G04*
G04 #@! TF.GenerationSoftware,Altium Limited,Altium Designer,20.0.11 (256)*
G04*
G04 Layer_Color=128*
%FSLAX43Y43*%
%MOMM*%
G71*
G01*
G75*
%ADD20C,0.051*%
D20*
X17212Y3810D02*
X18112D01*
X17662Y3360D02*
Y4260D01*
X14712Y3810D02*
X15612D01*
X15162Y3360D02*
Y4260D01*
X12212Y3810D02*
X13112D01*
X12662Y3360D02*
Y4260D01*
X9712Y3810D02*
X10612D01*
X10162Y3360D02*
Y4260D01*
X31260Y3810D02*
X32160D01*
X31710Y3360D02*
Y4260D01*
X28760Y3810D02*
X29660D01*
X29210Y3360D02*
Y4260D01*
X26260Y3810D02*
X27160D01*
X26710Y3360D02*
Y4260D01*
X23760Y3810D02*
X24660D01*
X24210Y3360D02*
Y4260D01*
X23720Y10500D02*
X24620D01*
X24170Y10050D02*
Y10950D01*
X26220Y10500D02*
X27120D01*
X26670Y10050D02*
Y10950D01*
X28720Y10500D02*
X29620D01*
X29170Y10050D02*
Y10950D01*
X31220Y10500D02*
X32120D01*
X31670Y10050D02*
Y10950D01*
X31220Y16510D02*
X32120D01*
X31670Y16060D02*
Y16960D01*
X28720Y16510D02*
X29620D01*
X29170Y16060D02*
Y16960D01*
X26220Y16510D02*
X27120D01*
X26670Y16060D02*
Y16960D01*
X23720Y16510D02*
X24620D01*
X24170Y16060D02*
Y16960D01*
X9712Y10500D02*
X10612D01*
X10162Y10050D02*
Y10950D01*
X12212Y10500D02*
X13112D01*
X12662Y10050D02*
Y10950D01*
X14712Y10500D02*
X15612D01*
X15162Y10050D02*
Y10950D01*
X17212Y10500D02*
X18112D01*
X17662Y10050D02*
Y10950D01*
X17212Y16510D02*
X18112D01*
X17662Y16060D02*
Y16960D01*
X14712Y16510D02*
X15612D01*
X15162Y16060D02*
Y16960D01*
X12212Y16510D02*
X13112D01*
X12662Y16060D02*
Y16960D01*
X9712Y16510D02*
X10612D01*
X10162Y16060D02*
Y16960D01*
X3360Y15240D02*
X4260D01*
X3810Y14790D02*
Y15690D01*
X3360Y12740D02*
X4260D01*
X3810Y12290D02*
Y13190D01*
X3360Y10240D02*
X4260D01*
X3810Y9790D02*
Y10690D01*
X3360Y7740D02*
X4260D01*
X3810Y7290D02*
Y8190D01*
X37650Y5120D02*
X38550D01*
X38100Y4670D02*
Y5570D01*
X37650Y7620D02*
X38550D01*
X38100Y7170D02*
Y8070D01*
X37650Y10120D02*
X38550D01*
X38100Y9670D02*
Y10570D01*
X37650Y12620D02*
X38550D01*
X38100Y12170D02*
Y13070D01*
X37770Y17780D02*
X40970D01*
X39370Y16180D02*
Y19380D01*
X2210Y2540D02*
X5410D01*
X3810Y940D02*
Y4140D01*
M02*
