G04*
G04 #@! TF.GenerationSoftware,Altium Limited,Altium Designer,20.0.11 (256)*
G04*
G04 Layer_Physical_Order=2*
G04 Layer_Color=16711680*
%FSLAX43Y43*%
%MOMM*%
G71*
G01*
G75*
%ADD10C,0.254*%
%ADD15C,0.508*%
%ADD16R,1.500X1.500*%
%ADD17C,1.500*%
%ADD18R,1.500X1.500*%
%ADD19C,1.778*%
D10*
X31670Y16510D02*
X31690Y16490D01*
Y3830D02*
X31710Y3810D01*
D15*
X25412Y15252D02*
X26670Y16510D01*
X15162D02*
X16420Y15252D01*
X25412D01*
X4559Y17768D02*
X13904D01*
X2552Y15761D02*
X4559Y17768D01*
X2552Y11498D02*
Y15761D01*
Y11498D02*
X3810Y10240D01*
X13904Y17768D02*
X15162Y16510D01*
X33032Y2552D02*
X38100Y7620D01*
X26710Y3810D02*
X27968Y2552D01*
X33032D01*
X26690Y3830D02*
X26710Y3810D01*
X26690Y3830D02*
Y10480D01*
X26670Y10500D02*
X26690Y10480D01*
X25452Y2552D02*
X26710Y3810D01*
X16420Y2552D02*
X25452D01*
X15162Y3810D02*
X16420Y2552D01*
X15162Y3810D02*
Y10500D01*
X6871Y5322D02*
Y7179D01*
Y5322D02*
X9641Y2552D01*
X13904D02*
X15162Y3810D01*
X9641Y2552D02*
X13904D01*
X3810Y10240D02*
X6871Y7179D01*
X31690Y12620D02*
X38100D01*
X10162D02*
X31690D01*
Y16490D01*
Y3830D02*
Y12620D01*
X6430D02*
X10162D01*
Y16510D01*
Y10500D02*
Y12620D01*
Y3810D02*
Y10500D01*
X3810Y15240D02*
X6430Y12620D01*
D16*
X17662Y3810D02*
D03*
X24210D02*
D03*
X24170Y10500D02*
D03*
Y16510D02*
D03*
X17662Y10500D02*
D03*
Y16510D02*
D03*
D17*
X15162Y3810D02*
D03*
X12662D02*
D03*
X10162D02*
D03*
X31710D02*
D03*
X29210D02*
D03*
X26710D02*
D03*
X26670Y10500D02*
D03*
X29170D02*
D03*
X31670D02*
D03*
Y16510D02*
D03*
X29170D02*
D03*
X26670D02*
D03*
X10162Y10500D02*
D03*
X12662D02*
D03*
X15162D02*
D03*
Y16510D02*
D03*
X12662D02*
D03*
X10162D02*
D03*
X3810Y15240D02*
D03*
Y12740D02*
D03*
Y10240D02*
D03*
X38100Y7620D02*
D03*
Y10120D02*
D03*
Y12620D02*
D03*
D18*
X3810Y7740D02*
D03*
X38100Y5120D02*
D03*
D19*
X39370Y17780D02*
D03*
X3810Y2540D02*
D03*
M02*
