G04*
G04 #@! TF.GenerationSoftware,Altium Limited,Altium Designer,20.0.11 (256)*
G04*
G04 Layer_Color=65535*
%FSLAX43Y43*%
%MOMM*%
G71*
G01*
G75*
%ADD10C,0.254*%
D10*
X20662Y4010D02*
Y6010D01*
X18512D02*
X19612D01*
X12829Y5080D02*
X18798D01*
Y2667D02*
Y5080D01*
X9146Y2667D02*
X18798D01*
X9146D02*
Y5080D01*
X12829D01*
X17962Y6010D02*
X18512D01*
X19612D02*
X20662D01*
X21210Y1610D02*
X22260D01*
X23360D02*
X23910D01*
X29043Y2540D02*
X32726D01*
Y4953D01*
X23074D02*
X32726D01*
X23074Y2540D02*
Y4953D01*
Y2540D02*
X29043D01*
X22260Y1610D02*
X23360D01*
X21210D02*
Y3610D01*
X21170Y8300D02*
Y10300D01*
X22220Y8300D02*
X23320D01*
X23034Y9230D02*
X29003D01*
X23034D02*
Y11643D01*
X32686D01*
Y9230D02*
Y11643D01*
X29003Y9230D02*
X32686D01*
X23320Y8300D02*
X23870D01*
X21170D02*
X22220D01*
X21170Y14310D02*
X22220D01*
X23320D02*
X23870D01*
X29003Y15240D02*
X32686D01*
Y17653D01*
X23034D02*
X32686D01*
X23034Y15240D02*
Y17653D01*
Y15240D02*
X29003D01*
X22220Y14310D02*
X23320D01*
X21170D02*
Y16310D01*
X19612Y12700D02*
X20662D01*
X17962D02*
X18512D01*
X9146Y11770D02*
X12829D01*
X9146Y9357D02*
Y11770D01*
Y9357D02*
X18798D01*
Y11770D01*
X12829D02*
X18798D01*
X18512Y12700D02*
X19612D01*
X20662Y10700D02*
Y12700D01*
Y16710D02*
Y18710D01*
X18512D02*
X19612D01*
X12829Y17780D02*
X18798D01*
Y15367D02*
Y17780D01*
X9146Y15367D02*
X18798D01*
X9146D02*
Y17780D01*
X12829D01*
X17962Y18710D02*
X18512D01*
X19612D02*
X20662D01*
X6010Y4740D02*
Y5790D01*
Y6890D02*
Y7440D01*
X5080Y12573D02*
Y16256D01*
X2667D02*
X5080D01*
X2667Y6604D02*
Y16256D01*
Y6604D02*
X5080D01*
Y12573D01*
X6010Y5790D02*
Y6890D01*
X4010Y4740D02*
X6010D01*
X38300Y2120D02*
X40300D01*
Y3170D02*
Y4270D01*
X39370Y3984D02*
Y9953D01*
X36957Y3984D02*
X39370D01*
X36957D02*
Y13636D01*
X39370D01*
Y9953D02*
Y13636D01*
X40300Y4270D02*
Y4820D01*
Y2120D02*
Y3170D01*
X6350Y4262D02*
X5842D01*
X6096D01*
Y2992D01*
X5842Y2738D01*
X5588D01*
X5334Y2992D01*
X6858Y2738D02*
X7366D01*
X7112D01*
Y4262D01*
X6858Y4008D01*
X8636Y8162D02*
X8128D01*
X8382D01*
Y6892D01*
X8128Y6638D01*
X7874D01*
X7620Y6892D01*
X9906Y6638D02*
Y8162D01*
X9144Y7400D01*
X10160D01*
X36576Y2032D02*
X36068D01*
X36322D01*
Y762D01*
X36068Y508D01*
X35814D01*
X35560Y762D01*
X37084Y1778D02*
X37338Y2032D01*
X37846D01*
X38100Y1778D01*
Y1524D01*
X37846Y1270D01*
X38100Y1016D01*
Y762D01*
X37846Y508D01*
X37338D01*
X37084Y762D01*
Y1016D01*
X37338Y1270D01*
X37084Y1524D01*
Y1778D01*
X37338Y1270D02*
X37846D01*
X25146Y7962D02*
X24638D01*
X24892D01*
Y6692D01*
X24638Y6438D01*
X24384D01*
X24130Y6692D01*
X25654Y7962D02*
X26670D01*
Y7708D01*
X25654Y6692D01*
Y6438D01*
X26416Y14362D02*
X25908D01*
X26162D01*
Y13092D01*
X25908Y12838D01*
X25654D01*
X25400Y13092D01*
X27940Y14362D02*
X27432Y14108D01*
X26924Y13600D01*
Y13092D01*
X27178Y12838D01*
X27686D01*
X27940Y13092D01*
Y13346D01*
X27686Y13600D01*
X26924D01*
X35306Y18542D02*
X34798D01*
X35052D01*
Y17272D01*
X34798Y17018D01*
X34544D01*
X34290Y17272D01*
X36830Y18542D02*
X35814D01*
Y17780D01*
X36322Y18034D01*
X36576D01*
X36830Y17780D01*
Y17272D01*
X36576Y17018D01*
X36068D01*
X35814Y17272D01*
X8636Y14362D02*
X8128D01*
X8382D01*
Y13092D01*
X8128Y12838D01*
X7874D01*
X7620Y13092D01*
X9144Y14108D02*
X9398Y14362D01*
X9906D01*
X10160Y14108D01*
Y13854D01*
X9906Y13600D01*
X9652D01*
X9906D01*
X10160Y13346D01*
Y13092D01*
X9906Y12838D01*
X9398D01*
X9144Y13092D01*
X6096Y19812D02*
X5588D01*
X5842D01*
Y18542D01*
X5588Y18288D01*
X5334D01*
X5080Y18542D01*
X7620Y18288D02*
X6604D01*
X7620Y19304D01*
Y19558D01*
X7366Y19812D01*
X6858D01*
X6604Y19558D01*
M02*
