G04 #@! TF.GenerationSoftware,KiCad,Pcbnew,(5.1.4)-1*
G04 #@! TF.CreationDate,2020-03-10T20:28:57-04:00*
G04 #@! TF.ProjectId,Torchic,546f7263-6869-4632-9e6b-696361645f70,rev?*
G04 #@! TF.SameCoordinates,Original*
G04 #@! TF.FileFunction,Copper,L2,Bot*
G04 #@! TF.FilePolarity,Positive*
%FSLAX46Y46*%
G04 Gerber Fmt 4.6, Leading zero omitted, Abs format (unit mm)*
G04 Created by KiCad (PCBNEW (5.1.4)-1) date 2020-03-10 20:28:57*
%MOMM*%
%LPD*%
G04 APERTURE LIST*
%ADD10C,0.100000*%
%ADD11C,1.150000*%
%ADD12O,1.950000X1.700000*%
%ADD13C,1.700000*%
%ADD14R,2.000000X1.500000*%
%ADD15R,2.000000X3.800000*%
%ADD16C,0.600000*%
%ADD17O,1.700000X1.700000*%
%ADD18R,1.700000X1.700000*%
%ADD19C,0.800000*%
%ADD20C,0.508000*%
%ADD21C,1.270000*%
%ADD22C,0.250000*%
%ADD23C,0.635000*%
G04 APERTURE END LIST*
D10*
G36*
X81627505Y-42225204D02*
G01*
X81651773Y-42228804D01*
X81675572Y-42234765D01*
X81698671Y-42243030D01*
X81720850Y-42253520D01*
X81741893Y-42266132D01*
X81761599Y-42280747D01*
X81779777Y-42297223D01*
X81796253Y-42315401D01*
X81810868Y-42335107D01*
X81823480Y-42356150D01*
X81833970Y-42378329D01*
X81842235Y-42401428D01*
X81848196Y-42425227D01*
X81851796Y-42449495D01*
X81853000Y-42473999D01*
X81853000Y-43124001D01*
X81851796Y-43148505D01*
X81848196Y-43172773D01*
X81842235Y-43196572D01*
X81833970Y-43219671D01*
X81823480Y-43241850D01*
X81810868Y-43262893D01*
X81796253Y-43282599D01*
X81779777Y-43300777D01*
X81761599Y-43317253D01*
X81741893Y-43331868D01*
X81720850Y-43344480D01*
X81698671Y-43354970D01*
X81675572Y-43363235D01*
X81651773Y-43369196D01*
X81627505Y-43372796D01*
X81603001Y-43374000D01*
X80702999Y-43374000D01*
X80678495Y-43372796D01*
X80654227Y-43369196D01*
X80630428Y-43363235D01*
X80607329Y-43354970D01*
X80585150Y-43344480D01*
X80564107Y-43331868D01*
X80544401Y-43317253D01*
X80526223Y-43300777D01*
X80509747Y-43282599D01*
X80495132Y-43262893D01*
X80482520Y-43241850D01*
X80472030Y-43219671D01*
X80463765Y-43196572D01*
X80457804Y-43172773D01*
X80454204Y-43148505D01*
X80453000Y-43124001D01*
X80453000Y-42473999D01*
X80454204Y-42449495D01*
X80457804Y-42425227D01*
X80463765Y-42401428D01*
X80472030Y-42378329D01*
X80482520Y-42356150D01*
X80495132Y-42335107D01*
X80509747Y-42315401D01*
X80526223Y-42297223D01*
X80544401Y-42280747D01*
X80564107Y-42266132D01*
X80585150Y-42253520D01*
X80607329Y-42243030D01*
X80630428Y-42234765D01*
X80654227Y-42228804D01*
X80678495Y-42225204D01*
X80702999Y-42224000D01*
X81603001Y-42224000D01*
X81627505Y-42225204D01*
X81627505Y-42225204D01*
G37*
D11*
X81153000Y-42799000D03*
D10*
G36*
X81627505Y-44275204D02*
G01*
X81651773Y-44278804D01*
X81675572Y-44284765D01*
X81698671Y-44293030D01*
X81720850Y-44303520D01*
X81741893Y-44316132D01*
X81761599Y-44330747D01*
X81779777Y-44347223D01*
X81796253Y-44365401D01*
X81810868Y-44385107D01*
X81823480Y-44406150D01*
X81833970Y-44428329D01*
X81842235Y-44451428D01*
X81848196Y-44475227D01*
X81851796Y-44499495D01*
X81853000Y-44523999D01*
X81853000Y-45174001D01*
X81851796Y-45198505D01*
X81848196Y-45222773D01*
X81842235Y-45246572D01*
X81833970Y-45269671D01*
X81823480Y-45291850D01*
X81810868Y-45312893D01*
X81796253Y-45332599D01*
X81779777Y-45350777D01*
X81761599Y-45367253D01*
X81741893Y-45381868D01*
X81720850Y-45394480D01*
X81698671Y-45404970D01*
X81675572Y-45413235D01*
X81651773Y-45419196D01*
X81627505Y-45422796D01*
X81603001Y-45424000D01*
X80702999Y-45424000D01*
X80678495Y-45422796D01*
X80654227Y-45419196D01*
X80630428Y-45413235D01*
X80607329Y-45404970D01*
X80585150Y-45394480D01*
X80564107Y-45381868D01*
X80544401Y-45367253D01*
X80526223Y-45350777D01*
X80509747Y-45332599D01*
X80495132Y-45312893D01*
X80482520Y-45291850D01*
X80472030Y-45269671D01*
X80463765Y-45246572D01*
X80457804Y-45222773D01*
X80454204Y-45198505D01*
X80453000Y-45174001D01*
X80453000Y-44523999D01*
X80454204Y-44499495D01*
X80457804Y-44475227D01*
X80463765Y-44451428D01*
X80472030Y-44428329D01*
X80482520Y-44406150D01*
X80495132Y-44385107D01*
X80509747Y-44365401D01*
X80526223Y-44347223D01*
X80544401Y-44330747D01*
X80564107Y-44316132D01*
X80585150Y-44303520D01*
X80607329Y-44293030D01*
X80630428Y-44284765D01*
X80654227Y-44278804D01*
X80678495Y-44275204D01*
X80702999Y-44274000D01*
X81603001Y-44274000D01*
X81627505Y-44275204D01*
X81627505Y-44275204D01*
G37*
D11*
X81153000Y-44849000D03*
D12*
X96139000Y-49189000D03*
X96139000Y-51689000D03*
X96139000Y-54189000D03*
D10*
G36*
X96888504Y-55840204D02*
G01*
X96912773Y-55843804D01*
X96936571Y-55849765D01*
X96959671Y-55858030D01*
X96981849Y-55868520D01*
X97002893Y-55881133D01*
X97022598Y-55895747D01*
X97040777Y-55912223D01*
X97057253Y-55930402D01*
X97071867Y-55950107D01*
X97084480Y-55971151D01*
X97094970Y-55993329D01*
X97103235Y-56016429D01*
X97109196Y-56040227D01*
X97112796Y-56064496D01*
X97114000Y-56089000D01*
X97114000Y-57289000D01*
X97112796Y-57313504D01*
X97109196Y-57337773D01*
X97103235Y-57361571D01*
X97094970Y-57384671D01*
X97084480Y-57406849D01*
X97071867Y-57427893D01*
X97057253Y-57447598D01*
X97040777Y-57465777D01*
X97022598Y-57482253D01*
X97002893Y-57496867D01*
X96981849Y-57509480D01*
X96959671Y-57519970D01*
X96936571Y-57528235D01*
X96912773Y-57534196D01*
X96888504Y-57537796D01*
X96864000Y-57539000D01*
X95414000Y-57539000D01*
X95389496Y-57537796D01*
X95365227Y-57534196D01*
X95341429Y-57528235D01*
X95318329Y-57519970D01*
X95296151Y-57509480D01*
X95275107Y-57496867D01*
X95255402Y-57482253D01*
X95237223Y-57465777D01*
X95220747Y-57447598D01*
X95206133Y-57427893D01*
X95193520Y-57406849D01*
X95183030Y-57384671D01*
X95174765Y-57361571D01*
X95168804Y-57337773D01*
X95165204Y-57313504D01*
X95164000Y-57289000D01*
X95164000Y-56089000D01*
X95165204Y-56064496D01*
X95168804Y-56040227D01*
X95174765Y-56016429D01*
X95183030Y-55993329D01*
X95193520Y-55971151D01*
X95206133Y-55950107D01*
X95220747Y-55930402D01*
X95237223Y-55912223D01*
X95255402Y-55895747D01*
X95275107Y-55881133D01*
X95296151Y-55868520D01*
X95318329Y-55858030D01*
X95341429Y-55849765D01*
X95365227Y-55843804D01*
X95389496Y-55840204D01*
X95414000Y-55839000D01*
X96864000Y-55839000D01*
X96888504Y-55840204D01*
X96888504Y-55840204D01*
G37*
D13*
X96139000Y-56689000D03*
D10*
G36*
X86827505Y-45656204D02*
G01*
X86851773Y-45659804D01*
X86875572Y-45665765D01*
X86898671Y-45674030D01*
X86920850Y-45684520D01*
X86941893Y-45697132D01*
X86961599Y-45711747D01*
X86979777Y-45728223D01*
X86996253Y-45746401D01*
X87010868Y-45766107D01*
X87023480Y-45787150D01*
X87033970Y-45809329D01*
X87042235Y-45832428D01*
X87048196Y-45856227D01*
X87051796Y-45880495D01*
X87053000Y-45904999D01*
X87053000Y-46805001D01*
X87051796Y-46829505D01*
X87048196Y-46853773D01*
X87042235Y-46877572D01*
X87033970Y-46900671D01*
X87023480Y-46922850D01*
X87010868Y-46943893D01*
X86996253Y-46963599D01*
X86979777Y-46981777D01*
X86961599Y-46998253D01*
X86941893Y-47012868D01*
X86920850Y-47025480D01*
X86898671Y-47035970D01*
X86875572Y-47044235D01*
X86851773Y-47050196D01*
X86827505Y-47053796D01*
X86803001Y-47055000D01*
X86152999Y-47055000D01*
X86128495Y-47053796D01*
X86104227Y-47050196D01*
X86080428Y-47044235D01*
X86057329Y-47035970D01*
X86035150Y-47025480D01*
X86014107Y-47012868D01*
X85994401Y-46998253D01*
X85976223Y-46981777D01*
X85959747Y-46963599D01*
X85945132Y-46943893D01*
X85932520Y-46922850D01*
X85922030Y-46900671D01*
X85913765Y-46877572D01*
X85907804Y-46853773D01*
X85904204Y-46829505D01*
X85903000Y-46805001D01*
X85903000Y-45904999D01*
X85904204Y-45880495D01*
X85907804Y-45856227D01*
X85913765Y-45832428D01*
X85922030Y-45809329D01*
X85932520Y-45787150D01*
X85945132Y-45766107D01*
X85959747Y-45746401D01*
X85976223Y-45728223D01*
X85994401Y-45711747D01*
X86014107Y-45697132D01*
X86035150Y-45684520D01*
X86057329Y-45674030D01*
X86080428Y-45665765D01*
X86104227Y-45659804D01*
X86128495Y-45656204D01*
X86152999Y-45655000D01*
X86803001Y-45655000D01*
X86827505Y-45656204D01*
X86827505Y-45656204D01*
G37*
D11*
X86478000Y-46355000D03*
D10*
G36*
X88877505Y-45656204D02*
G01*
X88901773Y-45659804D01*
X88925572Y-45665765D01*
X88948671Y-45674030D01*
X88970850Y-45684520D01*
X88991893Y-45697132D01*
X89011599Y-45711747D01*
X89029777Y-45728223D01*
X89046253Y-45746401D01*
X89060868Y-45766107D01*
X89073480Y-45787150D01*
X89083970Y-45809329D01*
X89092235Y-45832428D01*
X89098196Y-45856227D01*
X89101796Y-45880495D01*
X89103000Y-45904999D01*
X89103000Y-46805001D01*
X89101796Y-46829505D01*
X89098196Y-46853773D01*
X89092235Y-46877572D01*
X89083970Y-46900671D01*
X89073480Y-46922850D01*
X89060868Y-46943893D01*
X89046253Y-46963599D01*
X89029777Y-46981777D01*
X89011599Y-46998253D01*
X88991893Y-47012868D01*
X88970850Y-47025480D01*
X88948671Y-47035970D01*
X88925572Y-47044235D01*
X88901773Y-47050196D01*
X88877505Y-47053796D01*
X88853001Y-47055000D01*
X88202999Y-47055000D01*
X88178495Y-47053796D01*
X88154227Y-47050196D01*
X88130428Y-47044235D01*
X88107329Y-47035970D01*
X88085150Y-47025480D01*
X88064107Y-47012868D01*
X88044401Y-46998253D01*
X88026223Y-46981777D01*
X88009747Y-46963599D01*
X87995132Y-46943893D01*
X87982520Y-46922850D01*
X87972030Y-46900671D01*
X87963765Y-46877572D01*
X87957804Y-46853773D01*
X87954204Y-46829505D01*
X87953000Y-46805001D01*
X87953000Y-45904999D01*
X87954204Y-45880495D01*
X87957804Y-45856227D01*
X87963765Y-45832428D01*
X87972030Y-45809329D01*
X87982520Y-45787150D01*
X87995132Y-45766107D01*
X88009747Y-45746401D01*
X88026223Y-45728223D01*
X88044401Y-45711747D01*
X88064107Y-45697132D01*
X88085150Y-45684520D01*
X88107329Y-45674030D01*
X88130428Y-45665765D01*
X88154227Y-45659804D01*
X88178495Y-45656204D01*
X88202999Y-45655000D01*
X88853001Y-45655000D01*
X88877505Y-45656204D01*
X88877505Y-45656204D01*
G37*
D11*
X88528000Y-46355000D03*
D14*
X91263000Y-54977000D03*
X91263000Y-59577000D03*
X91263000Y-57277000D03*
D15*
X84963000Y-57277000D03*
D10*
G36*
X92787703Y-52024722D02*
G01*
X92802264Y-52026882D01*
X92816543Y-52030459D01*
X92830403Y-52035418D01*
X92843710Y-52041712D01*
X92856336Y-52049280D01*
X92868159Y-52058048D01*
X92879066Y-52067934D01*
X92888952Y-52078841D01*
X92897720Y-52090664D01*
X92905288Y-52103290D01*
X92911582Y-52116597D01*
X92916541Y-52130457D01*
X92920118Y-52144736D01*
X92922278Y-52159297D01*
X92923000Y-52174000D01*
X92923000Y-52474000D01*
X92922278Y-52488703D01*
X92920118Y-52503264D01*
X92916541Y-52517543D01*
X92911582Y-52531403D01*
X92905288Y-52544710D01*
X92897720Y-52557336D01*
X92888952Y-52569159D01*
X92879066Y-52580066D01*
X92868159Y-52589952D01*
X92856336Y-52598720D01*
X92843710Y-52606288D01*
X92830403Y-52612582D01*
X92816543Y-52617541D01*
X92802264Y-52621118D01*
X92787703Y-52623278D01*
X92773000Y-52624000D01*
X91123000Y-52624000D01*
X91108297Y-52623278D01*
X91093736Y-52621118D01*
X91079457Y-52617541D01*
X91065597Y-52612582D01*
X91052290Y-52606288D01*
X91039664Y-52598720D01*
X91027841Y-52589952D01*
X91016934Y-52580066D01*
X91007048Y-52569159D01*
X90998280Y-52557336D01*
X90990712Y-52544710D01*
X90984418Y-52531403D01*
X90979459Y-52517543D01*
X90975882Y-52503264D01*
X90973722Y-52488703D01*
X90973000Y-52474000D01*
X90973000Y-52174000D01*
X90973722Y-52159297D01*
X90975882Y-52144736D01*
X90979459Y-52130457D01*
X90984418Y-52116597D01*
X90990712Y-52103290D01*
X90998280Y-52090664D01*
X91007048Y-52078841D01*
X91016934Y-52067934D01*
X91027841Y-52058048D01*
X91039664Y-52049280D01*
X91052290Y-52041712D01*
X91065597Y-52035418D01*
X91079457Y-52030459D01*
X91093736Y-52026882D01*
X91108297Y-52024722D01*
X91123000Y-52024000D01*
X92773000Y-52024000D01*
X92787703Y-52024722D01*
X92787703Y-52024722D01*
G37*
D16*
X91948000Y-52324000D03*
D10*
G36*
X92787703Y-50754722D02*
G01*
X92802264Y-50756882D01*
X92816543Y-50760459D01*
X92830403Y-50765418D01*
X92843710Y-50771712D01*
X92856336Y-50779280D01*
X92868159Y-50788048D01*
X92879066Y-50797934D01*
X92888952Y-50808841D01*
X92897720Y-50820664D01*
X92905288Y-50833290D01*
X92911582Y-50846597D01*
X92916541Y-50860457D01*
X92920118Y-50874736D01*
X92922278Y-50889297D01*
X92923000Y-50904000D01*
X92923000Y-51204000D01*
X92922278Y-51218703D01*
X92920118Y-51233264D01*
X92916541Y-51247543D01*
X92911582Y-51261403D01*
X92905288Y-51274710D01*
X92897720Y-51287336D01*
X92888952Y-51299159D01*
X92879066Y-51310066D01*
X92868159Y-51319952D01*
X92856336Y-51328720D01*
X92843710Y-51336288D01*
X92830403Y-51342582D01*
X92816543Y-51347541D01*
X92802264Y-51351118D01*
X92787703Y-51353278D01*
X92773000Y-51354000D01*
X91123000Y-51354000D01*
X91108297Y-51353278D01*
X91093736Y-51351118D01*
X91079457Y-51347541D01*
X91065597Y-51342582D01*
X91052290Y-51336288D01*
X91039664Y-51328720D01*
X91027841Y-51319952D01*
X91016934Y-51310066D01*
X91007048Y-51299159D01*
X90998280Y-51287336D01*
X90990712Y-51274710D01*
X90984418Y-51261403D01*
X90979459Y-51247543D01*
X90975882Y-51233264D01*
X90973722Y-51218703D01*
X90973000Y-51204000D01*
X90973000Y-50904000D01*
X90973722Y-50889297D01*
X90975882Y-50874736D01*
X90979459Y-50860457D01*
X90984418Y-50846597D01*
X90990712Y-50833290D01*
X90998280Y-50820664D01*
X91007048Y-50808841D01*
X91016934Y-50797934D01*
X91027841Y-50788048D01*
X91039664Y-50779280D01*
X91052290Y-50771712D01*
X91065597Y-50765418D01*
X91079457Y-50760459D01*
X91093736Y-50756882D01*
X91108297Y-50754722D01*
X91123000Y-50754000D01*
X92773000Y-50754000D01*
X92787703Y-50754722D01*
X92787703Y-50754722D01*
G37*
D16*
X91948000Y-51054000D03*
D10*
G36*
X92787703Y-49484722D02*
G01*
X92802264Y-49486882D01*
X92816543Y-49490459D01*
X92830403Y-49495418D01*
X92843710Y-49501712D01*
X92856336Y-49509280D01*
X92868159Y-49518048D01*
X92879066Y-49527934D01*
X92888952Y-49538841D01*
X92897720Y-49550664D01*
X92905288Y-49563290D01*
X92911582Y-49576597D01*
X92916541Y-49590457D01*
X92920118Y-49604736D01*
X92922278Y-49619297D01*
X92923000Y-49634000D01*
X92923000Y-49934000D01*
X92922278Y-49948703D01*
X92920118Y-49963264D01*
X92916541Y-49977543D01*
X92911582Y-49991403D01*
X92905288Y-50004710D01*
X92897720Y-50017336D01*
X92888952Y-50029159D01*
X92879066Y-50040066D01*
X92868159Y-50049952D01*
X92856336Y-50058720D01*
X92843710Y-50066288D01*
X92830403Y-50072582D01*
X92816543Y-50077541D01*
X92802264Y-50081118D01*
X92787703Y-50083278D01*
X92773000Y-50084000D01*
X91123000Y-50084000D01*
X91108297Y-50083278D01*
X91093736Y-50081118D01*
X91079457Y-50077541D01*
X91065597Y-50072582D01*
X91052290Y-50066288D01*
X91039664Y-50058720D01*
X91027841Y-50049952D01*
X91016934Y-50040066D01*
X91007048Y-50029159D01*
X90998280Y-50017336D01*
X90990712Y-50004710D01*
X90984418Y-49991403D01*
X90979459Y-49977543D01*
X90975882Y-49963264D01*
X90973722Y-49948703D01*
X90973000Y-49934000D01*
X90973000Y-49634000D01*
X90973722Y-49619297D01*
X90975882Y-49604736D01*
X90979459Y-49590457D01*
X90984418Y-49576597D01*
X90990712Y-49563290D01*
X90998280Y-49550664D01*
X91007048Y-49538841D01*
X91016934Y-49527934D01*
X91027841Y-49518048D01*
X91039664Y-49509280D01*
X91052290Y-49501712D01*
X91065597Y-49495418D01*
X91079457Y-49490459D01*
X91093736Y-49486882D01*
X91108297Y-49484722D01*
X91123000Y-49484000D01*
X92773000Y-49484000D01*
X92787703Y-49484722D01*
X92787703Y-49484722D01*
G37*
D16*
X91948000Y-49784000D03*
D10*
G36*
X92787703Y-48214722D02*
G01*
X92802264Y-48216882D01*
X92816543Y-48220459D01*
X92830403Y-48225418D01*
X92843710Y-48231712D01*
X92856336Y-48239280D01*
X92868159Y-48248048D01*
X92879066Y-48257934D01*
X92888952Y-48268841D01*
X92897720Y-48280664D01*
X92905288Y-48293290D01*
X92911582Y-48306597D01*
X92916541Y-48320457D01*
X92920118Y-48334736D01*
X92922278Y-48349297D01*
X92923000Y-48364000D01*
X92923000Y-48664000D01*
X92922278Y-48678703D01*
X92920118Y-48693264D01*
X92916541Y-48707543D01*
X92911582Y-48721403D01*
X92905288Y-48734710D01*
X92897720Y-48747336D01*
X92888952Y-48759159D01*
X92879066Y-48770066D01*
X92868159Y-48779952D01*
X92856336Y-48788720D01*
X92843710Y-48796288D01*
X92830403Y-48802582D01*
X92816543Y-48807541D01*
X92802264Y-48811118D01*
X92787703Y-48813278D01*
X92773000Y-48814000D01*
X91123000Y-48814000D01*
X91108297Y-48813278D01*
X91093736Y-48811118D01*
X91079457Y-48807541D01*
X91065597Y-48802582D01*
X91052290Y-48796288D01*
X91039664Y-48788720D01*
X91027841Y-48779952D01*
X91016934Y-48770066D01*
X91007048Y-48759159D01*
X90998280Y-48747336D01*
X90990712Y-48734710D01*
X90984418Y-48721403D01*
X90979459Y-48707543D01*
X90975882Y-48693264D01*
X90973722Y-48678703D01*
X90973000Y-48664000D01*
X90973000Y-48364000D01*
X90973722Y-48349297D01*
X90975882Y-48334736D01*
X90979459Y-48320457D01*
X90984418Y-48306597D01*
X90990712Y-48293290D01*
X90998280Y-48280664D01*
X91007048Y-48268841D01*
X91016934Y-48257934D01*
X91027841Y-48248048D01*
X91039664Y-48239280D01*
X91052290Y-48231712D01*
X91065597Y-48225418D01*
X91079457Y-48220459D01*
X91093736Y-48216882D01*
X91108297Y-48214722D01*
X91123000Y-48214000D01*
X92773000Y-48214000D01*
X92787703Y-48214722D01*
X92787703Y-48214722D01*
G37*
D16*
X91948000Y-48514000D03*
D10*
G36*
X87837703Y-48214722D02*
G01*
X87852264Y-48216882D01*
X87866543Y-48220459D01*
X87880403Y-48225418D01*
X87893710Y-48231712D01*
X87906336Y-48239280D01*
X87918159Y-48248048D01*
X87929066Y-48257934D01*
X87938952Y-48268841D01*
X87947720Y-48280664D01*
X87955288Y-48293290D01*
X87961582Y-48306597D01*
X87966541Y-48320457D01*
X87970118Y-48334736D01*
X87972278Y-48349297D01*
X87973000Y-48364000D01*
X87973000Y-48664000D01*
X87972278Y-48678703D01*
X87970118Y-48693264D01*
X87966541Y-48707543D01*
X87961582Y-48721403D01*
X87955288Y-48734710D01*
X87947720Y-48747336D01*
X87938952Y-48759159D01*
X87929066Y-48770066D01*
X87918159Y-48779952D01*
X87906336Y-48788720D01*
X87893710Y-48796288D01*
X87880403Y-48802582D01*
X87866543Y-48807541D01*
X87852264Y-48811118D01*
X87837703Y-48813278D01*
X87823000Y-48814000D01*
X86173000Y-48814000D01*
X86158297Y-48813278D01*
X86143736Y-48811118D01*
X86129457Y-48807541D01*
X86115597Y-48802582D01*
X86102290Y-48796288D01*
X86089664Y-48788720D01*
X86077841Y-48779952D01*
X86066934Y-48770066D01*
X86057048Y-48759159D01*
X86048280Y-48747336D01*
X86040712Y-48734710D01*
X86034418Y-48721403D01*
X86029459Y-48707543D01*
X86025882Y-48693264D01*
X86023722Y-48678703D01*
X86023000Y-48664000D01*
X86023000Y-48364000D01*
X86023722Y-48349297D01*
X86025882Y-48334736D01*
X86029459Y-48320457D01*
X86034418Y-48306597D01*
X86040712Y-48293290D01*
X86048280Y-48280664D01*
X86057048Y-48268841D01*
X86066934Y-48257934D01*
X86077841Y-48248048D01*
X86089664Y-48239280D01*
X86102290Y-48231712D01*
X86115597Y-48225418D01*
X86129457Y-48220459D01*
X86143736Y-48216882D01*
X86158297Y-48214722D01*
X86173000Y-48214000D01*
X87823000Y-48214000D01*
X87837703Y-48214722D01*
X87837703Y-48214722D01*
G37*
D16*
X86998000Y-48514000D03*
D10*
G36*
X87837703Y-49484722D02*
G01*
X87852264Y-49486882D01*
X87866543Y-49490459D01*
X87880403Y-49495418D01*
X87893710Y-49501712D01*
X87906336Y-49509280D01*
X87918159Y-49518048D01*
X87929066Y-49527934D01*
X87938952Y-49538841D01*
X87947720Y-49550664D01*
X87955288Y-49563290D01*
X87961582Y-49576597D01*
X87966541Y-49590457D01*
X87970118Y-49604736D01*
X87972278Y-49619297D01*
X87973000Y-49634000D01*
X87973000Y-49934000D01*
X87972278Y-49948703D01*
X87970118Y-49963264D01*
X87966541Y-49977543D01*
X87961582Y-49991403D01*
X87955288Y-50004710D01*
X87947720Y-50017336D01*
X87938952Y-50029159D01*
X87929066Y-50040066D01*
X87918159Y-50049952D01*
X87906336Y-50058720D01*
X87893710Y-50066288D01*
X87880403Y-50072582D01*
X87866543Y-50077541D01*
X87852264Y-50081118D01*
X87837703Y-50083278D01*
X87823000Y-50084000D01*
X86173000Y-50084000D01*
X86158297Y-50083278D01*
X86143736Y-50081118D01*
X86129457Y-50077541D01*
X86115597Y-50072582D01*
X86102290Y-50066288D01*
X86089664Y-50058720D01*
X86077841Y-50049952D01*
X86066934Y-50040066D01*
X86057048Y-50029159D01*
X86048280Y-50017336D01*
X86040712Y-50004710D01*
X86034418Y-49991403D01*
X86029459Y-49977543D01*
X86025882Y-49963264D01*
X86023722Y-49948703D01*
X86023000Y-49934000D01*
X86023000Y-49634000D01*
X86023722Y-49619297D01*
X86025882Y-49604736D01*
X86029459Y-49590457D01*
X86034418Y-49576597D01*
X86040712Y-49563290D01*
X86048280Y-49550664D01*
X86057048Y-49538841D01*
X86066934Y-49527934D01*
X86077841Y-49518048D01*
X86089664Y-49509280D01*
X86102290Y-49501712D01*
X86115597Y-49495418D01*
X86129457Y-49490459D01*
X86143736Y-49486882D01*
X86158297Y-49484722D01*
X86173000Y-49484000D01*
X87823000Y-49484000D01*
X87837703Y-49484722D01*
X87837703Y-49484722D01*
G37*
D16*
X86998000Y-49784000D03*
D10*
G36*
X87837703Y-50754722D02*
G01*
X87852264Y-50756882D01*
X87866543Y-50760459D01*
X87880403Y-50765418D01*
X87893710Y-50771712D01*
X87906336Y-50779280D01*
X87918159Y-50788048D01*
X87929066Y-50797934D01*
X87938952Y-50808841D01*
X87947720Y-50820664D01*
X87955288Y-50833290D01*
X87961582Y-50846597D01*
X87966541Y-50860457D01*
X87970118Y-50874736D01*
X87972278Y-50889297D01*
X87973000Y-50904000D01*
X87973000Y-51204000D01*
X87972278Y-51218703D01*
X87970118Y-51233264D01*
X87966541Y-51247543D01*
X87961582Y-51261403D01*
X87955288Y-51274710D01*
X87947720Y-51287336D01*
X87938952Y-51299159D01*
X87929066Y-51310066D01*
X87918159Y-51319952D01*
X87906336Y-51328720D01*
X87893710Y-51336288D01*
X87880403Y-51342582D01*
X87866543Y-51347541D01*
X87852264Y-51351118D01*
X87837703Y-51353278D01*
X87823000Y-51354000D01*
X86173000Y-51354000D01*
X86158297Y-51353278D01*
X86143736Y-51351118D01*
X86129457Y-51347541D01*
X86115597Y-51342582D01*
X86102290Y-51336288D01*
X86089664Y-51328720D01*
X86077841Y-51319952D01*
X86066934Y-51310066D01*
X86057048Y-51299159D01*
X86048280Y-51287336D01*
X86040712Y-51274710D01*
X86034418Y-51261403D01*
X86029459Y-51247543D01*
X86025882Y-51233264D01*
X86023722Y-51218703D01*
X86023000Y-51204000D01*
X86023000Y-50904000D01*
X86023722Y-50889297D01*
X86025882Y-50874736D01*
X86029459Y-50860457D01*
X86034418Y-50846597D01*
X86040712Y-50833290D01*
X86048280Y-50820664D01*
X86057048Y-50808841D01*
X86066934Y-50797934D01*
X86077841Y-50788048D01*
X86089664Y-50779280D01*
X86102290Y-50771712D01*
X86115597Y-50765418D01*
X86129457Y-50760459D01*
X86143736Y-50756882D01*
X86158297Y-50754722D01*
X86173000Y-50754000D01*
X87823000Y-50754000D01*
X87837703Y-50754722D01*
X87837703Y-50754722D01*
G37*
D16*
X86998000Y-51054000D03*
D10*
G36*
X87837703Y-52024722D02*
G01*
X87852264Y-52026882D01*
X87866543Y-52030459D01*
X87880403Y-52035418D01*
X87893710Y-52041712D01*
X87906336Y-52049280D01*
X87918159Y-52058048D01*
X87929066Y-52067934D01*
X87938952Y-52078841D01*
X87947720Y-52090664D01*
X87955288Y-52103290D01*
X87961582Y-52116597D01*
X87966541Y-52130457D01*
X87970118Y-52144736D01*
X87972278Y-52159297D01*
X87973000Y-52174000D01*
X87973000Y-52474000D01*
X87972278Y-52488703D01*
X87970118Y-52503264D01*
X87966541Y-52517543D01*
X87961582Y-52531403D01*
X87955288Y-52544710D01*
X87947720Y-52557336D01*
X87938952Y-52569159D01*
X87929066Y-52580066D01*
X87918159Y-52589952D01*
X87906336Y-52598720D01*
X87893710Y-52606288D01*
X87880403Y-52612582D01*
X87866543Y-52617541D01*
X87852264Y-52621118D01*
X87837703Y-52623278D01*
X87823000Y-52624000D01*
X86173000Y-52624000D01*
X86158297Y-52623278D01*
X86143736Y-52621118D01*
X86129457Y-52617541D01*
X86115597Y-52612582D01*
X86102290Y-52606288D01*
X86089664Y-52598720D01*
X86077841Y-52589952D01*
X86066934Y-52580066D01*
X86057048Y-52569159D01*
X86048280Y-52557336D01*
X86040712Y-52544710D01*
X86034418Y-52531403D01*
X86029459Y-52517543D01*
X86025882Y-52503264D01*
X86023722Y-52488703D01*
X86023000Y-52474000D01*
X86023000Y-52174000D01*
X86023722Y-52159297D01*
X86025882Y-52144736D01*
X86029459Y-52130457D01*
X86034418Y-52116597D01*
X86040712Y-52103290D01*
X86048280Y-52090664D01*
X86057048Y-52078841D01*
X86066934Y-52067934D01*
X86077841Y-52058048D01*
X86089664Y-52049280D01*
X86102290Y-52041712D01*
X86115597Y-52035418D01*
X86129457Y-52030459D01*
X86143736Y-52026882D01*
X86158297Y-52024722D01*
X86173000Y-52024000D01*
X87823000Y-52024000D01*
X87837703Y-52024722D01*
X87837703Y-52024722D01*
G37*
D16*
X86998000Y-52324000D03*
D17*
X73025000Y-44958000D03*
X73025000Y-42418000D03*
X75565000Y-44958000D03*
X75565000Y-42418000D03*
X78105000Y-44958000D03*
D18*
X78105000Y-42418000D03*
D14*
X81280000Y-54977000D03*
X81280000Y-59577000D03*
X81280000Y-57277000D03*
D15*
X74980000Y-57277000D03*
D19*
X92710000Y-44958000D03*
X91313000Y-54991000D03*
X86995000Y-51054000D03*
X78486000Y-51816000D03*
X83185000Y-57277000D03*
X93726000Y-58166000D03*
X94107000Y-48514000D03*
X65786000Y-40894000D03*
X65786000Y-45974000D03*
X65786000Y-51054000D03*
X65532000Y-55118000D03*
X70866000Y-61214000D03*
X70866000Y-56134000D03*
X70866000Y-51054000D03*
X70866000Y-45974000D03*
X70866000Y-40894000D03*
X86106000Y-40894000D03*
X91186000Y-40894000D03*
X75946000Y-51054000D03*
X75946000Y-61214000D03*
X81026000Y-61214000D03*
X91186000Y-61214000D03*
X96266000Y-61214000D03*
X79629000Y-55753000D03*
X78867000Y-54864000D03*
X77978000Y-53975000D03*
X81026000Y-40894000D03*
X91313000Y-57277000D03*
X88646000Y-57277000D03*
X85217000Y-57277000D03*
X78486000Y-49784000D03*
X72898000Y-47244000D03*
X78232000Y-47244000D03*
X74676000Y-56388000D03*
X74676000Y-58420000D03*
X81280000Y-57277000D03*
X84963000Y-49149000D03*
X84074000Y-50927000D03*
X76962000Y-50546000D03*
X86995000Y-48514000D03*
X86995000Y-52324000D03*
X67818000Y-55626000D03*
X83058000Y-53086000D03*
X74549000Y-53086000D03*
D20*
X78486000Y-49784000D02*
X79878000Y-49784000D01*
X79878000Y-49784000D02*
X81748001Y-51654001D01*
X81748001Y-51654001D02*
X83410079Y-51654001D01*
X84963000Y-53206922D02*
X84963000Y-57277000D01*
X83410079Y-51654001D02*
X84963000Y-53206922D01*
X84963000Y-50679078D02*
X84963000Y-54869000D01*
X84963000Y-50844000D02*
X84963000Y-50489157D01*
X84963000Y-54869000D02*
X84963000Y-57277000D01*
D21*
X91313000Y-57277000D02*
X84963000Y-57277000D01*
D20*
X84963000Y-50355080D02*
X84963000Y-54869000D01*
X86998000Y-49784000D02*
X85534080Y-49784000D01*
X88528000Y-49229000D02*
X87973000Y-49784000D01*
X87973000Y-49784000D02*
X86998000Y-49784000D01*
X88528000Y-46355000D02*
X88528000Y-49229000D01*
X85534080Y-49784000D02*
X85185040Y-50133040D01*
X85185040Y-50133040D02*
X84963000Y-50355080D01*
X79998990Y-43953010D02*
X81153000Y-42799000D01*
X79998990Y-45708990D02*
X79998990Y-43953010D01*
X84666418Y-50133040D02*
X84666418Y-50116340D01*
X85185040Y-50133040D02*
X84666418Y-50133040D01*
X82804000Y-46736000D02*
X81026000Y-46736000D01*
X81026000Y-46736000D02*
X79998990Y-45708990D01*
X84108999Y-48040999D02*
X82804000Y-46736000D01*
X84108999Y-49575621D02*
X84108999Y-48040999D01*
X84666418Y-50133040D02*
X84108999Y-49575621D01*
D22*
X95504000Y-51054000D02*
X96139000Y-51689000D01*
X91948000Y-51054000D02*
X95504000Y-51054000D01*
X95544000Y-49784000D02*
X96139000Y-49189000D01*
X91948000Y-49784000D02*
X95544000Y-49784000D01*
D20*
X78214000Y-44849000D02*
X78105000Y-44958000D01*
D23*
X92898000Y-59577000D02*
X91263000Y-59577000D01*
X96139000Y-57539000D02*
X94101000Y-59577000D01*
X94101000Y-59577000D02*
X92898000Y-59577000D01*
X96139000Y-56689000D02*
X96139000Y-57539000D01*
X83550000Y-59577000D02*
X81915000Y-59577000D01*
X84935000Y-60962000D02*
X83550000Y-59577000D01*
X88243000Y-60962000D02*
X84935000Y-60962000D01*
X89628000Y-59577000D02*
X88243000Y-60962000D01*
X91263000Y-59577000D02*
X89628000Y-59577000D01*
X66900499Y-58606401D02*
X66900499Y-51971501D01*
X70425599Y-62131501D02*
X66900499Y-58606401D01*
X81466401Y-62131501D02*
X70425599Y-62131501D01*
X81943501Y-61654401D02*
X81466401Y-62131501D01*
X81280000Y-59577000D02*
X81943501Y-60240501D01*
X81943501Y-60240501D02*
X81943501Y-61654401D01*
X68170499Y-51971501D02*
X72898000Y-47244000D01*
X66900499Y-51971501D02*
X68170499Y-51971501D01*
X77785431Y-45729510D02*
X77559461Y-45503540D01*
X78232000Y-47244000D02*
X78232000Y-46176079D01*
X78232000Y-46176079D02*
X77785431Y-45729510D01*
D21*
X81915000Y-57277000D02*
X75615000Y-57277000D01*
D22*
X84963000Y-49149000D02*
X84963000Y-49149000D01*
X74200001Y-41242999D02*
X73874999Y-41568001D01*
X73874999Y-41568001D02*
X73025000Y-42418000D01*
X80171999Y-41242999D02*
X74200001Y-41242999D01*
X84963000Y-45909000D02*
X84963000Y-49149000D01*
X82213000Y-45909000D02*
X81153000Y-44849000D01*
X84963000Y-45909000D02*
X82213000Y-45909000D01*
X81818690Y-41876500D02*
X80805500Y-41876500D01*
X82178010Y-42235820D02*
X81818690Y-41876500D01*
X82178010Y-43823990D02*
X82178010Y-42235820D01*
X81153000Y-44849000D02*
X82178010Y-43823990D01*
X80805500Y-41876500D02*
X80171999Y-41242999D01*
X77412009Y-46805009D02*
X75565000Y-44958000D01*
X77412009Y-47497011D02*
X77412009Y-46805009D01*
X77883999Y-47969001D02*
X79719001Y-47969001D01*
X77412009Y-47497011D02*
X77883999Y-47969001D01*
X82677000Y-50927000D02*
X84074000Y-50927000D01*
X79719001Y-47969001D02*
X82677000Y-50927000D01*
X76129001Y-43782999D02*
X75000999Y-43782999D01*
X76929999Y-42982001D02*
X76129001Y-43782999D01*
X75000999Y-43782999D02*
X74389999Y-44393999D01*
X76929999Y-42493001D02*
X76929999Y-42982001D01*
X77005000Y-42418000D02*
X76929999Y-42493001D01*
X78105000Y-42418000D02*
X77005000Y-42418000D01*
X74389999Y-44393999D02*
X74389999Y-45560999D01*
X74389999Y-45560999D02*
X76962000Y-48133000D01*
X76962000Y-48133000D02*
X76962000Y-50546000D01*
X83058000Y-53086000D02*
X74549000Y-53086000D01*
X74549000Y-53086000D02*
X74549000Y-53086000D01*
X73841894Y-53086000D02*
X74549000Y-53086000D01*
X72840998Y-53086000D02*
X73841894Y-53086000D01*
X70300998Y-55626000D02*
X72840998Y-53086000D01*
X67818000Y-55626000D02*
X70300998Y-55626000D01*
D20*
G36*
X97301926Y-38961094D02*
G01*
X98057670Y-39174236D01*
X98761914Y-39521531D01*
X99391073Y-39991346D01*
X99924086Y-40567956D01*
X100343091Y-41232039D01*
X100634059Y-41961357D01*
X100789305Y-42741828D01*
X100813001Y-43193984D01*
X100813000Y-58903564D01*
X100738906Y-59709926D01*
X100525763Y-60465672D01*
X100178469Y-61169914D01*
X99708651Y-61799076D01*
X99132045Y-62332086D01*
X98467965Y-62751088D01*
X97738644Y-63042059D01*
X96958172Y-63197305D01*
X96506034Y-63221000D01*
X64032436Y-63221000D01*
X63226074Y-63146906D01*
X62470328Y-62933763D01*
X61766086Y-62586469D01*
X61136924Y-62116651D01*
X60603914Y-61540045D01*
X60184912Y-60875965D01*
X59893941Y-60146644D01*
X59858710Y-59969522D01*
X61434224Y-59969522D01*
X61434224Y-60426478D01*
X61523372Y-60874654D01*
X61698242Y-61296826D01*
X61952113Y-61676771D01*
X62275229Y-61999887D01*
X62655174Y-62253758D01*
X63077346Y-62428628D01*
X63525522Y-62517776D01*
X63982478Y-62517776D01*
X64430654Y-62428628D01*
X64852826Y-62253758D01*
X65232771Y-61999887D01*
X65555887Y-61676771D01*
X65809758Y-61296826D01*
X65984628Y-60874654D01*
X66073776Y-60426478D01*
X66073776Y-59969522D01*
X65984628Y-59521346D01*
X65809758Y-59099174D01*
X65555887Y-58719229D01*
X65232771Y-58396113D01*
X64852826Y-58142242D01*
X64430654Y-57967372D01*
X63982478Y-57878224D01*
X63525522Y-57878224D01*
X63077346Y-57967372D01*
X62655174Y-58142242D01*
X62275229Y-58396113D01*
X61952113Y-58719229D01*
X61698242Y-59099174D01*
X61523372Y-59521346D01*
X61434224Y-59969522D01*
X59858710Y-59969522D01*
X59738695Y-59366172D01*
X59715000Y-58914034D01*
X59715000Y-51971501D01*
X66071005Y-51971501D01*
X66075000Y-52012064D01*
X66074999Y-58565850D01*
X66071005Y-58606401D01*
X66074999Y-58646951D01*
X66074999Y-58646953D01*
X66086943Y-58768226D01*
X66104772Y-58827000D01*
X66134146Y-58923834D01*
X66210800Y-59067243D01*
X66237690Y-59100008D01*
X66313958Y-59192942D01*
X66345465Y-59218799D01*
X69813206Y-62686540D01*
X69839058Y-62718042D01*
X69888264Y-62758424D01*
X69964756Y-62821200D01*
X70009908Y-62845334D01*
X70108165Y-62897854D01*
X70263773Y-62945057D01*
X70385046Y-62957001D01*
X70385048Y-62957001D01*
X70425598Y-62960995D01*
X70466149Y-62957001D01*
X81425851Y-62957001D01*
X81466401Y-62960995D01*
X81506951Y-62957001D01*
X81506954Y-62957001D01*
X81628227Y-62945057D01*
X81783835Y-62897854D01*
X81927243Y-62821200D01*
X82052942Y-62718042D01*
X82078799Y-62686535D01*
X82498535Y-62266799D01*
X82530042Y-62240942D01*
X82614193Y-62138403D01*
X82633200Y-62115244D01*
X82675352Y-62036383D01*
X82709854Y-61971835D01*
X82757057Y-61816227D01*
X82769001Y-61694954D01*
X82769001Y-61694952D01*
X82772995Y-61654402D01*
X82769001Y-61613851D01*
X82769001Y-60464983D01*
X82780649Y-60426585D01*
X82783021Y-60402500D01*
X83208068Y-60402500D01*
X84322611Y-61517045D01*
X84348459Y-61548541D01*
X84379955Y-61574389D01*
X84379958Y-61574392D01*
X84474157Y-61651699D01*
X84617566Y-61728353D01*
X84773174Y-61775556D01*
X84894447Y-61787500D01*
X84894449Y-61787500D01*
X84935000Y-61791494D01*
X84975550Y-61787500D01*
X88202450Y-61787500D01*
X88243000Y-61791494D01*
X88283550Y-61787500D01*
X88283553Y-61787500D01*
X88404826Y-61775556D01*
X88560434Y-61728353D01*
X88703842Y-61651699D01*
X88829541Y-61548541D01*
X88855398Y-61517034D01*
X89811843Y-60560591D01*
X89838571Y-60610595D01*
X89902052Y-60687948D01*
X89979405Y-60751429D01*
X90067657Y-60798601D01*
X90163415Y-60827649D01*
X90263000Y-60837457D01*
X92263000Y-60837457D01*
X92362585Y-60827649D01*
X92458343Y-60798601D01*
X92546595Y-60751429D01*
X92623948Y-60687948D01*
X92687429Y-60610595D01*
X92734601Y-60522343D01*
X92763649Y-60426585D01*
X92766021Y-60402500D01*
X94060450Y-60402500D01*
X94101000Y-60406494D01*
X94141550Y-60402500D01*
X94141553Y-60402500D01*
X94262826Y-60390556D01*
X94418434Y-60343353D01*
X94561842Y-60266699D01*
X94687541Y-60163541D01*
X94713398Y-60132034D01*
X96694039Y-58151394D01*
X96725541Y-58125541D01*
X96787981Y-58049457D01*
X96864000Y-58049457D01*
X97012358Y-58034845D01*
X97155014Y-57991571D01*
X97286487Y-57921297D01*
X97401724Y-57826724D01*
X97496297Y-57711487D01*
X97566571Y-57580014D01*
X97609845Y-57437358D01*
X97624457Y-57289000D01*
X97624457Y-56089000D01*
X97609845Y-55940642D01*
X97566571Y-55797986D01*
X97496297Y-55666513D01*
X97401724Y-55551276D01*
X97286487Y-55456703D01*
X97256141Y-55440482D01*
X97308589Y-55403662D01*
X97525486Y-55176533D01*
X97693905Y-54911454D01*
X97751442Y-54810337D01*
X97633489Y-54570000D01*
X96520000Y-54570000D01*
X96520000Y-54590000D01*
X95758000Y-54590000D01*
X95758000Y-54570000D01*
X94644511Y-54570000D01*
X94526558Y-54810337D01*
X94584095Y-54911454D01*
X94752514Y-55176533D01*
X94969411Y-55403662D01*
X95021859Y-55440482D01*
X94991513Y-55456703D01*
X94876276Y-55551276D01*
X94781703Y-55666513D01*
X94711429Y-55797986D01*
X94668155Y-55940642D01*
X94653543Y-56089000D01*
X94653543Y-57289000D01*
X94668155Y-57437358D01*
X94711429Y-57580014D01*
X94781703Y-57711487D01*
X94789536Y-57721031D01*
X93759068Y-58751500D01*
X92766021Y-58751500D01*
X92763649Y-58727415D01*
X92734601Y-58631657D01*
X92687429Y-58543405D01*
X92623948Y-58466052D01*
X92576362Y-58427000D01*
X92623948Y-58387948D01*
X92687429Y-58310595D01*
X92734601Y-58222343D01*
X92763649Y-58126585D01*
X92773457Y-58027000D01*
X92773457Y-56527000D01*
X92763649Y-56427415D01*
X92734601Y-56331657D01*
X92732396Y-56327532D01*
X92804422Y-56268422D01*
X92899645Y-56152393D01*
X92970403Y-56020016D01*
X93013975Y-55876378D01*
X93028687Y-55727000D01*
X93025000Y-55548500D01*
X92834500Y-55358000D01*
X91644000Y-55358000D01*
X91644000Y-55378000D01*
X90882000Y-55378000D01*
X90882000Y-55358000D01*
X89691500Y-55358000D01*
X89501000Y-55548500D01*
X89497313Y-55727000D01*
X89512025Y-55876378D01*
X89555597Y-56020016D01*
X89616524Y-56134000D01*
X86473457Y-56134000D01*
X86473457Y-55377000D01*
X86463649Y-55277415D01*
X86434601Y-55181657D01*
X86387429Y-55093405D01*
X86323948Y-55016052D01*
X86246595Y-54952571D01*
X86158343Y-54905399D01*
X86062585Y-54876351D01*
X85963000Y-54866543D01*
X85725000Y-54866543D01*
X85725000Y-54227000D01*
X89497313Y-54227000D01*
X89501000Y-54405500D01*
X89691500Y-54596000D01*
X90882000Y-54596000D01*
X90882000Y-53655500D01*
X91644000Y-53655500D01*
X91644000Y-54596000D01*
X92834500Y-54596000D01*
X93025000Y-54405500D01*
X93028687Y-54227000D01*
X93013975Y-54077622D01*
X92970403Y-53933984D01*
X92899645Y-53801607D01*
X92804422Y-53685578D01*
X92688393Y-53590355D01*
X92556016Y-53519597D01*
X92412378Y-53476025D01*
X92263000Y-53461313D01*
X91834500Y-53465000D01*
X91644000Y-53655500D01*
X90882000Y-53655500D01*
X90691500Y-53465000D01*
X90263000Y-53461313D01*
X90113622Y-53476025D01*
X89969984Y-53519597D01*
X89837607Y-53590355D01*
X89721578Y-53685578D01*
X89626355Y-53801607D01*
X89555597Y-53933984D01*
X89512025Y-54077622D01*
X89497313Y-54227000D01*
X85725000Y-54227000D01*
X85725000Y-53244345D01*
X85728686Y-53206922D01*
X85725000Y-53169496D01*
X85725000Y-52956618D01*
X85806070Y-53023150D01*
X85920254Y-53084183D01*
X86044151Y-53121767D01*
X86173000Y-53134457D01*
X86578899Y-53134457D01*
X86730146Y-53197106D01*
X86905570Y-53232000D01*
X87084430Y-53232000D01*
X87259854Y-53197106D01*
X87411101Y-53134457D01*
X87823000Y-53134457D01*
X87951849Y-53121767D01*
X88075746Y-53084183D01*
X88189930Y-53023150D01*
X88290014Y-52941014D01*
X88372150Y-52840930D01*
X88433183Y-52726746D01*
X88464350Y-52624000D01*
X90207313Y-52624000D01*
X90222025Y-52773378D01*
X90265597Y-52917016D01*
X90336355Y-53049393D01*
X90431578Y-53165422D01*
X90547607Y-53260645D01*
X90679984Y-53331403D01*
X90823622Y-53374975D01*
X90973000Y-53389687D01*
X91376500Y-53386000D01*
X91567000Y-53195500D01*
X91567000Y-52370000D01*
X92329000Y-52370000D01*
X92329000Y-53195500D01*
X92519500Y-53386000D01*
X92923000Y-53389687D01*
X93072378Y-53374975D01*
X93216016Y-53331403D01*
X93348393Y-53260645D01*
X93464422Y-53165422D01*
X93559645Y-53049393D01*
X93630403Y-52917016D01*
X93673975Y-52773378D01*
X93688687Y-52624000D01*
X93685000Y-52560500D01*
X93494500Y-52370000D01*
X92329000Y-52370000D01*
X91567000Y-52370000D01*
X90401500Y-52370000D01*
X90211000Y-52560500D01*
X90207313Y-52624000D01*
X88464350Y-52624000D01*
X88470767Y-52602849D01*
X88483457Y-52474000D01*
X88483457Y-52174000D01*
X88470767Y-52045151D01*
X88464351Y-52024000D01*
X90207313Y-52024000D01*
X90211000Y-52087500D01*
X90401500Y-52278000D01*
X91567000Y-52278000D01*
X91567000Y-52024000D01*
X92329000Y-52024000D01*
X92329000Y-52278000D01*
X93494500Y-52278000D01*
X93685000Y-52087500D01*
X93688687Y-52024000D01*
X93673975Y-51874622D01*
X93630403Y-51730984D01*
X93606893Y-51687000D01*
X94649627Y-51687000D01*
X94649430Y-51689000D01*
X94675650Y-51955214D01*
X94753302Y-52211198D01*
X94879402Y-52447114D01*
X95049103Y-52653897D01*
X95222804Y-52796448D01*
X94969411Y-52974338D01*
X94752514Y-53201467D01*
X94584095Y-53466546D01*
X94526558Y-53567663D01*
X94644511Y-53808000D01*
X95758000Y-53808000D01*
X95758000Y-53788000D01*
X96520000Y-53788000D01*
X96520000Y-53808000D01*
X97633489Y-53808000D01*
X97751442Y-53567663D01*
X97693905Y-53466546D01*
X97525486Y-53201467D01*
X97308589Y-52974338D01*
X97055196Y-52796448D01*
X97228897Y-52653897D01*
X97398598Y-52447114D01*
X97524698Y-52211198D01*
X97602350Y-51955214D01*
X97628570Y-51689000D01*
X97602350Y-51422786D01*
X97524698Y-51166802D01*
X97398598Y-50930886D01*
X97228897Y-50724103D01*
X97022114Y-50554402D01*
X96806213Y-50439000D01*
X97022114Y-50323598D01*
X97228897Y-50153897D01*
X97398598Y-49947114D01*
X97524698Y-49711198D01*
X97602350Y-49455214D01*
X97628570Y-49189000D01*
X97602350Y-48922786D01*
X97524698Y-48666802D01*
X97398598Y-48430886D01*
X97228897Y-48224103D01*
X97022114Y-48054402D01*
X96786198Y-47928302D01*
X96530214Y-47850650D01*
X96330706Y-47831000D01*
X95947294Y-47831000D01*
X95747786Y-47850650D01*
X95491802Y-47928302D01*
X95255886Y-48054402D01*
X95049103Y-48224103D01*
X94879402Y-48430886D01*
X94753302Y-48666802D01*
X94675650Y-48922786D01*
X94653173Y-49151000D01*
X93220535Y-49151000D01*
X93218098Y-49149000D01*
X93240014Y-49131014D01*
X93322150Y-49030930D01*
X93383183Y-48916746D01*
X93420767Y-48792849D01*
X93433457Y-48664000D01*
X93433457Y-48364000D01*
X93420767Y-48235151D01*
X93383183Y-48111254D01*
X93322150Y-47997070D01*
X93240014Y-47896986D01*
X93139930Y-47814850D01*
X93025746Y-47753817D01*
X92901849Y-47716233D01*
X92773000Y-47703543D01*
X91123000Y-47703543D01*
X90994151Y-47716233D01*
X90870254Y-47753817D01*
X90756070Y-47814850D01*
X90655986Y-47896986D01*
X90573850Y-47997070D01*
X90512817Y-48111254D01*
X90475233Y-48235151D01*
X90462543Y-48364000D01*
X90462543Y-48664000D01*
X90475233Y-48792849D01*
X90512817Y-48916746D01*
X90573850Y-49030930D01*
X90655986Y-49131014D01*
X90677902Y-49149000D01*
X90655986Y-49166986D01*
X90573850Y-49267070D01*
X90512817Y-49381254D01*
X90475233Y-49505151D01*
X90462543Y-49634000D01*
X90462543Y-49934000D01*
X90475233Y-50062849D01*
X90512817Y-50186746D01*
X90573850Y-50300930D01*
X90655986Y-50401014D01*
X90677902Y-50419000D01*
X90655986Y-50436986D01*
X90573850Y-50537070D01*
X90512817Y-50651254D01*
X90475233Y-50775151D01*
X90462543Y-50904000D01*
X90462543Y-51204000D01*
X90475233Y-51332849D01*
X90502898Y-51424047D01*
X90431578Y-51482578D01*
X90336355Y-51598607D01*
X90265597Y-51730984D01*
X90222025Y-51874622D01*
X90207313Y-52024000D01*
X88464351Y-52024000D01*
X88443102Y-51953953D01*
X88514422Y-51895422D01*
X88609645Y-51779393D01*
X88680403Y-51647016D01*
X88723975Y-51503378D01*
X88738687Y-51354000D01*
X88735000Y-51290500D01*
X88544500Y-51100000D01*
X87379000Y-51100000D01*
X87379000Y-51354000D01*
X86617000Y-51354000D01*
X86617000Y-51100000D01*
X86597000Y-51100000D01*
X86597000Y-51008000D01*
X86617000Y-51008000D01*
X86617000Y-50754000D01*
X87379000Y-50754000D01*
X87379000Y-51008000D01*
X88544500Y-51008000D01*
X88735000Y-50817500D01*
X88738687Y-50754000D01*
X88723975Y-50604622D01*
X88680403Y-50460984D01*
X88609645Y-50328607D01*
X88562937Y-50271693D01*
X89040346Y-49794284D01*
X89069422Y-49770422D01*
X89134644Y-49690948D01*
X89164645Y-49654393D01*
X89235401Y-49522016D01*
X89235402Y-49522015D01*
X89278974Y-49378378D01*
X89290000Y-49266426D01*
X89290000Y-49266423D01*
X89293686Y-49229000D01*
X89290000Y-49191577D01*
X89290000Y-47425387D01*
X89390725Y-47342725D01*
X89485297Y-47227488D01*
X89555571Y-47096015D01*
X89598845Y-46953359D01*
X89613457Y-46805001D01*
X89613457Y-45904999D01*
X89598845Y-45756641D01*
X89555571Y-45613985D01*
X89485297Y-45482512D01*
X89390725Y-45367275D01*
X89275488Y-45272703D01*
X89144015Y-45202429D01*
X89001359Y-45159155D01*
X88853001Y-45144543D01*
X88202999Y-45144543D01*
X88054641Y-45159155D01*
X87911985Y-45202429D01*
X87780512Y-45272703D01*
X87733363Y-45311397D01*
X87689645Y-45229607D01*
X87594422Y-45113578D01*
X87478393Y-45018355D01*
X87346016Y-44947597D01*
X87202378Y-44904025D01*
X87053000Y-44889313D01*
X86989500Y-44893000D01*
X86799000Y-45083500D01*
X86799000Y-45974000D01*
X86879000Y-45974000D01*
X86879000Y-46736000D01*
X86799000Y-46736000D01*
X86799000Y-46756000D01*
X86157000Y-46756000D01*
X86157000Y-46736000D01*
X86077000Y-46736000D01*
X86077000Y-45974000D01*
X86157000Y-45974000D01*
X86157000Y-45083500D01*
X85966500Y-44893000D01*
X85903000Y-44889313D01*
X85753622Y-44904025D01*
X85609984Y-44947597D01*
X85477607Y-45018355D01*
X85361578Y-45113578D01*
X85266355Y-45229607D01*
X85214891Y-45325888D01*
X85206410Y-45321355D01*
X85087090Y-45285160D01*
X84994088Y-45276000D01*
X84963000Y-45272938D01*
X84931912Y-45276000D01*
X82475197Y-45276000D01*
X82363457Y-45164260D01*
X82363457Y-44533741D01*
X82603629Y-44293569D01*
X82627774Y-44273754D01*
X82650531Y-44246025D01*
X82706876Y-44177367D01*
X82721189Y-44150589D01*
X82765655Y-44067400D01*
X82801850Y-43948080D01*
X82811010Y-43855078D01*
X82811010Y-43855077D01*
X82814072Y-43823991D01*
X82811010Y-43792905D01*
X82811010Y-42266905D01*
X82814072Y-42235819D01*
X82809740Y-42191841D01*
X82801850Y-42111730D01*
X82765655Y-41992410D01*
X82760877Y-41983470D01*
X82735248Y-41935522D01*
X94962224Y-41935522D01*
X94962224Y-42392478D01*
X95051372Y-42840654D01*
X95226242Y-43262826D01*
X95480113Y-43642771D01*
X95803229Y-43965887D01*
X96183174Y-44219758D01*
X96605346Y-44394628D01*
X97053522Y-44483776D01*
X97510478Y-44483776D01*
X97958654Y-44394628D01*
X98380826Y-44219758D01*
X98760771Y-43965887D01*
X99083887Y-43642771D01*
X99337758Y-43262826D01*
X99512628Y-42840654D01*
X99601776Y-42392478D01*
X99601776Y-41935522D01*
X99512628Y-41487346D01*
X99337758Y-41065174D01*
X99083887Y-40685229D01*
X98760771Y-40362113D01*
X98380826Y-40108242D01*
X97958654Y-39933372D01*
X97510478Y-39844224D01*
X97053522Y-39844224D01*
X96605346Y-39933372D01*
X96183174Y-40108242D01*
X95803229Y-40362113D01*
X95480113Y-40685229D01*
X95226242Y-41065174D01*
X95051372Y-41487346D01*
X94962224Y-41935522D01*
X82735248Y-41935522D01*
X82706876Y-41882443D01*
X82701999Y-41876500D01*
X82627774Y-41786056D01*
X82603618Y-41766232D01*
X82288275Y-41450888D01*
X82268454Y-41426736D01*
X82172067Y-41347634D01*
X82062100Y-41288855D01*
X81942780Y-41252660D01*
X81849778Y-41243500D01*
X81818690Y-41240438D01*
X81787602Y-41243500D01*
X81067697Y-41243500D01*
X80641583Y-40817386D01*
X80621763Y-40793235D01*
X80525376Y-40714133D01*
X80415409Y-40655354D01*
X80296089Y-40619159D01*
X80203087Y-40609999D01*
X80171999Y-40606937D01*
X80140911Y-40609999D01*
X74231086Y-40609999D01*
X74200000Y-40606937D01*
X74168914Y-40609999D01*
X74168913Y-40609999D01*
X74075911Y-40619159D01*
X73956591Y-40655354D01*
X73846624Y-40714133D01*
X73750237Y-40793235D01*
X73730413Y-40817391D01*
X73449388Y-41098415D01*
X73449382Y-41098420D01*
X73426971Y-41120831D01*
X73291214Y-41079650D01*
X73091706Y-41060000D01*
X72958294Y-41060000D01*
X72758786Y-41079650D01*
X72502802Y-41157302D01*
X72266886Y-41283402D01*
X72060103Y-41453103D01*
X71890402Y-41659886D01*
X71764302Y-41895802D01*
X71686650Y-42151786D01*
X71660430Y-42418000D01*
X71686650Y-42684214D01*
X71764302Y-42940198D01*
X71890402Y-43176114D01*
X72060103Y-43382897D01*
X72260290Y-43547185D01*
X72133423Y-43614989D01*
X71888546Y-43814733D01*
X71687342Y-44058412D01*
X71537544Y-44336661D01*
X71649158Y-44577000D01*
X72644000Y-44577000D01*
X72644000Y-44557000D01*
X73406000Y-44557000D01*
X73406000Y-44577000D01*
X73426000Y-44577000D01*
X73426000Y-45339000D01*
X73406000Y-45339000D01*
X73406000Y-45359000D01*
X72644000Y-45359000D01*
X72644000Y-45339000D01*
X71649158Y-45339000D01*
X71537544Y-45579339D01*
X71687342Y-45857588D01*
X71888546Y-46101267D01*
X72133423Y-46301011D01*
X72403663Y-46445442D01*
X72643998Y-46327490D01*
X72643998Y-46368735D01*
X72633146Y-46370894D01*
X72467901Y-46439341D01*
X72319184Y-46538711D01*
X72192711Y-46665184D01*
X72093341Y-46813901D01*
X72045735Y-46928832D01*
X67828567Y-51146001D01*
X66941052Y-51146001D01*
X66900499Y-51142007D01*
X66859946Y-51146001D01*
X66738673Y-51157945D01*
X66583065Y-51205148D01*
X66439657Y-51281802D01*
X66313958Y-51384960D01*
X66210800Y-51510659D01*
X66134146Y-51654067D01*
X66086943Y-51809675D01*
X66071005Y-51971501D01*
X59715000Y-51971501D01*
X59715000Y-43204436D01*
X59789094Y-42398074D01*
X60002236Y-41642330D01*
X60349531Y-40938086D01*
X60819346Y-40308927D01*
X61395956Y-39775914D01*
X62060039Y-39356909D01*
X62789357Y-39065941D01*
X63569828Y-38910695D01*
X64021965Y-38887000D01*
X96495564Y-38887000D01*
X97301926Y-38961094D01*
X97301926Y-38961094D01*
G37*
X97301926Y-38961094D02*
X98057670Y-39174236D01*
X98761914Y-39521531D01*
X99391073Y-39991346D01*
X99924086Y-40567956D01*
X100343091Y-41232039D01*
X100634059Y-41961357D01*
X100789305Y-42741828D01*
X100813001Y-43193984D01*
X100813000Y-58903564D01*
X100738906Y-59709926D01*
X100525763Y-60465672D01*
X100178469Y-61169914D01*
X99708651Y-61799076D01*
X99132045Y-62332086D01*
X98467965Y-62751088D01*
X97738644Y-63042059D01*
X96958172Y-63197305D01*
X96506034Y-63221000D01*
X64032436Y-63221000D01*
X63226074Y-63146906D01*
X62470328Y-62933763D01*
X61766086Y-62586469D01*
X61136924Y-62116651D01*
X60603914Y-61540045D01*
X60184912Y-60875965D01*
X59893941Y-60146644D01*
X59858710Y-59969522D01*
X61434224Y-59969522D01*
X61434224Y-60426478D01*
X61523372Y-60874654D01*
X61698242Y-61296826D01*
X61952113Y-61676771D01*
X62275229Y-61999887D01*
X62655174Y-62253758D01*
X63077346Y-62428628D01*
X63525522Y-62517776D01*
X63982478Y-62517776D01*
X64430654Y-62428628D01*
X64852826Y-62253758D01*
X65232771Y-61999887D01*
X65555887Y-61676771D01*
X65809758Y-61296826D01*
X65984628Y-60874654D01*
X66073776Y-60426478D01*
X66073776Y-59969522D01*
X65984628Y-59521346D01*
X65809758Y-59099174D01*
X65555887Y-58719229D01*
X65232771Y-58396113D01*
X64852826Y-58142242D01*
X64430654Y-57967372D01*
X63982478Y-57878224D01*
X63525522Y-57878224D01*
X63077346Y-57967372D01*
X62655174Y-58142242D01*
X62275229Y-58396113D01*
X61952113Y-58719229D01*
X61698242Y-59099174D01*
X61523372Y-59521346D01*
X61434224Y-59969522D01*
X59858710Y-59969522D01*
X59738695Y-59366172D01*
X59715000Y-58914034D01*
X59715000Y-51971501D01*
X66071005Y-51971501D01*
X66075000Y-52012064D01*
X66074999Y-58565850D01*
X66071005Y-58606401D01*
X66074999Y-58646951D01*
X66074999Y-58646953D01*
X66086943Y-58768226D01*
X66104772Y-58827000D01*
X66134146Y-58923834D01*
X66210800Y-59067243D01*
X66237690Y-59100008D01*
X66313958Y-59192942D01*
X66345465Y-59218799D01*
X69813206Y-62686540D01*
X69839058Y-62718042D01*
X69888264Y-62758424D01*
X69964756Y-62821200D01*
X70009908Y-62845334D01*
X70108165Y-62897854D01*
X70263773Y-62945057D01*
X70385046Y-62957001D01*
X70385048Y-62957001D01*
X70425598Y-62960995D01*
X70466149Y-62957001D01*
X81425851Y-62957001D01*
X81466401Y-62960995D01*
X81506951Y-62957001D01*
X81506954Y-62957001D01*
X81628227Y-62945057D01*
X81783835Y-62897854D01*
X81927243Y-62821200D01*
X82052942Y-62718042D01*
X82078799Y-62686535D01*
X82498535Y-62266799D01*
X82530042Y-62240942D01*
X82614193Y-62138403D01*
X82633200Y-62115244D01*
X82675352Y-62036383D01*
X82709854Y-61971835D01*
X82757057Y-61816227D01*
X82769001Y-61694954D01*
X82769001Y-61694952D01*
X82772995Y-61654402D01*
X82769001Y-61613851D01*
X82769001Y-60464983D01*
X82780649Y-60426585D01*
X82783021Y-60402500D01*
X83208068Y-60402500D01*
X84322611Y-61517045D01*
X84348459Y-61548541D01*
X84379955Y-61574389D01*
X84379958Y-61574392D01*
X84474157Y-61651699D01*
X84617566Y-61728353D01*
X84773174Y-61775556D01*
X84894447Y-61787500D01*
X84894449Y-61787500D01*
X84935000Y-61791494D01*
X84975550Y-61787500D01*
X88202450Y-61787500D01*
X88243000Y-61791494D01*
X88283550Y-61787500D01*
X88283553Y-61787500D01*
X88404826Y-61775556D01*
X88560434Y-61728353D01*
X88703842Y-61651699D01*
X88829541Y-61548541D01*
X88855398Y-61517034D01*
X89811843Y-60560591D01*
X89838571Y-60610595D01*
X89902052Y-60687948D01*
X89979405Y-60751429D01*
X90067657Y-60798601D01*
X90163415Y-60827649D01*
X90263000Y-60837457D01*
X92263000Y-60837457D01*
X92362585Y-60827649D01*
X92458343Y-60798601D01*
X92546595Y-60751429D01*
X92623948Y-60687948D01*
X92687429Y-60610595D01*
X92734601Y-60522343D01*
X92763649Y-60426585D01*
X92766021Y-60402500D01*
X94060450Y-60402500D01*
X94101000Y-60406494D01*
X94141550Y-60402500D01*
X94141553Y-60402500D01*
X94262826Y-60390556D01*
X94418434Y-60343353D01*
X94561842Y-60266699D01*
X94687541Y-60163541D01*
X94713398Y-60132034D01*
X96694039Y-58151394D01*
X96725541Y-58125541D01*
X96787981Y-58049457D01*
X96864000Y-58049457D01*
X97012358Y-58034845D01*
X97155014Y-57991571D01*
X97286487Y-57921297D01*
X97401724Y-57826724D01*
X97496297Y-57711487D01*
X97566571Y-57580014D01*
X97609845Y-57437358D01*
X97624457Y-57289000D01*
X97624457Y-56089000D01*
X97609845Y-55940642D01*
X97566571Y-55797986D01*
X97496297Y-55666513D01*
X97401724Y-55551276D01*
X97286487Y-55456703D01*
X97256141Y-55440482D01*
X97308589Y-55403662D01*
X97525486Y-55176533D01*
X97693905Y-54911454D01*
X97751442Y-54810337D01*
X97633489Y-54570000D01*
X96520000Y-54570000D01*
X96520000Y-54590000D01*
X95758000Y-54590000D01*
X95758000Y-54570000D01*
X94644511Y-54570000D01*
X94526558Y-54810337D01*
X94584095Y-54911454D01*
X94752514Y-55176533D01*
X94969411Y-55403662D01*
X95021859Y-55440482D01*
X94991513Y-55456703D01*
X94876276Y-55551276D01*
X94781703Y-55666513D01*
X94711429Y-55797986D01*
X94668155Y-55940642D01*
X94653543Y-56089000D01*
X94653543Y-57289000D01*
X94668155Y-57437358D01*
X94711429Y-57580014D01*
X94781703Y-57711487D01*
X94789536Y-57721031D01*
X93759068Y-58751500D01*
X92766021Y-58751500D01*
X92763649Y-58727415D01*
X92734601Y-58631657D01*
X92687429Y-58543405D01*
X92623948Y-58466052D01*
X92576362Y-58427000D01*
X92623948Y-58387948D01*
X92687429Y-58310595D01*
X92734601Y-58222343D01*
X92763649Y-58126585D01*
X92773457Y-58027000D01*
X92773457Y-56527000D01*
X92763649Y-56427415D01*
X92734601Y-56331657D01*
X92732396Y-56327532D01*
X92804422Y-56268422D01*
X92899645Y-56152393D01*
X92970403Y-56020016D01*
X93013975Y-55876378D01*
X93028687Y-55727000D01*
X93025000Y-55548500D01*
X92834500Y-55358000D01*
X91644000Y-55358000D01*
X91644000Y-55378000D01*
X90882000Y-55378000D01*
X90882000Y-55358000D01*
X89691500Y-55358000D01*
X89501000Y-55548500D01*
X89497313Y-55727000D01*
X89512025Y-55876378D01*
X89555597Y-56020016D01*
X89616524Y-56134000D01*
X86473457Y-56134000D01*
X86473457Y-55377000D01*
X86463649Y-55277415D01*
X86434601Y-55181657D01*
X86387429Y-55093405D01*
X86323948Y-55016052D01*
X86246595Y-54952571D01*
X86158343Y-54905399D01*
X86062585Y-54876351D01*
X85963000Y-54866543D01*
X85725000Y-54866543D01*
X85725000Y-54227000D01*
X89497313Y-54227000D01*
X89501000Y-54405500D01*
X89691500Y-54596000D01*
X90882000Y-54596000D01*
X90882000Y-53655500D01*
X91644000Y-53655500D01*
X91644000Y-54596000D01*
X92834500Y-54596000D01*
X93025000Y-54405500D01*
X93028687Y-54227000D01*
X93013975Y-54077622D01*
X92970403Y-53933984D01*
X92899645Y-53801607D01*
X92804422Y-53685578D01*
X92688393Y-53590355D01*
X92556016Y-53519597D01*
X92412378Y-53476025D01*
X92263000Y-53461313D01*
X91834500Y-53465000D01*
X91644000Y-53655500D01*
X90882000Y-53655500D01*
X90691500Y-53465000D01*
X90263000Y-53461313D01*
X90113622Y-53476025D01*
X89969984Y-53519597D01*
X89837607Y-53590355D01*
X89721578Y-53685578D01*
X89626355Y-53801607D01*
X89555597Y-53933984D01*
X89512025Y-54077622D01*
X89497313Y-54227000D01*
X85725000Y-54227000D01*
X85725000Y-53244345D01*
X85728686Y-53206922D01*
X85725000Y-53169496D01*
X85725000Y-52956618D01*
X85806070Y-53023150D01*
X85920254Y-53084183D01*
X86044151Y-53121767D01*
X86173000Y-53134457D01*
X86578899Y-53134457D01*
X86730146Y-53197106D01*
X86905570Y-53232000D01*
X87084430Y-53232000D01*
X87259854Y-53197106D01*
X87411101Y-53134457D01*
X87823000Y-53134457D01*
X87951849Y-53121767D01*
X88075746Y-53084183D01*
X88189930Y-53023150D01*
X88290014Y-52941014D01*
X88372150Y-52840930D01*
X88433183Y-52726746D01*
X88464350Y-52624000D01*
X90207313Y-52624000D01*
X90222025Y-52773378D01*
X90265597Y-52917016D01*
X90336355Y-53049393D01*
X90431578Y-53165422D01*
X90547607Y-53260645D01*
X90679984Y-53331403D01*
X90823622Y-53374975D01*
X90973000Y-53389687D01*
X91376500Y-53386000D01*
X91567000Y-53195500D01*
X91567000Y-52370000D01*
X92329000Y-52370000D01*
X92329000Y-53195500D01*
X92519500Y-53386000D01*
X92923000Y-53389687D01*
X93072378Y-53374975D01*
X93216016Y-53331403D01*
X93348393Y-53260645D01*
X93464422Y-53165422D01*
X93559645Y-53049393D01*
X93630403Y-52917016D01*
X93673975Y-52773378D01*
X93688687Y-52624000D01*
X93685000Y-52560500D01*
X93494500Y-52370000D01*
X92329000Y-52370000D01*
X91567000Y-52370000D01*
X90401500Y-52370000D01*
X90211000Y-52560500D01*
X90207313Y-52624000D01*
X88464350Y-52624000D01*
X88470767Y-52602849D01*
X88483457Y-52474000D01*
X88483457Y-52174000D01*
X88470767Y-52045151D01*
X88464351Y-52024000D01*
X90207313Y-52024000D01*
X90211000Y-52087500D01*
X90401500Y-52278000D01*
X91567000Y-52278000D01*
X91567000Y-52024000D01*
X92329000Y-52024000D01*
X92329000Y-52278000D01*
X93494500Y-52278000D01*
X93685000Y-52087500D01*
X93688687Y-52024000D01*
X93673975Y-51874622D01*
X93630403Y-51730984D01*
X93606893Y-51687000D01*
X94649627Y-51687000D01*
X94649430Y-51689000D01*
X94675650Y-51955214D01*
X94753302Y-52211198D01*
X94879402Y-52447114D01*
X95049103Y-52653897D01*
X95222804Y-52796448D01*
X94969411Y-52974338D01*
X94752514Y-53201467D01*
X94584095Y-53466546D01*
X94526558Y-53567663D01*
X94644511Y-53808000D01*
X95758000Y-53808000D01*
X95758000Y-53788000D01*
X96520000Y-53788000D01*
X96520000Y-53808000D01*
X97633489Y-53808000D01*
X97751442Y-53567663D01*
X97693905Y-53466546D01*
X97525486Y-53201467D01*
X97308589Y-52974338D01*
X97055196Y-52796448D01*
X97228897Y-52653897D01*
X97398598Y-52447114D01*
X97524698Y-52211198D01*
X97602350Y-51955214D01*
X97628570Y-51689000D01*
X97602350Y-51422786D01*
X97524698Y-51166802D01*
X97398598Y-50930886D01*
X97228897Y-50724103D01*
X97022114Y-50554402D01*
X96806213Y-50439000D01*
X97022114Y-50323598D01*
X97228897Y-50153897D01*
X97398598Y-49947114D01*
X97524698Y-49711198D01*
X97602350Y-49455214D01*
X97628570Y-49189000D01*
X97602350Y-48922786D01*
X97524698Y-48666802D01*
X97398598Y-48430886D01*
X97228897Y-48224103D01*
X97022114Y-48054402D01*
X96786198Y-47928302D01*
X96530214Y-47850650D01*
X96330706Y-47831000D01*
X95947294Y-47831000D01*
X95747786Y-47850650D01*
X95491802Y-47928302D01*
X95255886Y-48054402D01*
X95049103Y-48224103D01*
X94879402Y-48430886D01*
X94753302Y-48666802D01*
X94675650Y-48922786D01*
X94653173Y-49151000D01*
X93220535Y-49151000D01*
X93218098Y-49149000D01*
X93240014Y-49131014D01*
X93322150Y-49030930D01*
X93383183Y-48916746D01*
X93420767Y-48792849D01*
X93433457Y-48664000D01*
X93433457Y-48364000D01*
X93420767Y-48235151D01*
X93383183Y-48111254D01*
X93322150Y-47997070D01*
X93240014Y-47896986D01*
X93139930Y-47814850D01*
X93025746Y-47753817D01*
X92901849Y-47716233D01*
X92773000Y-47703543D01*
X91123000Y-47703543D01*
X90994151Y-47716233D01*
X90870254Y-47753817D01*
X90756070Y-47814850D01*
X90655986Y-47896986D01*
X90573850Y-47997070D01*
X90512817Y-48111254D01*
X90475233Y-48235151D01*
X90462543Y-48364000D01*
X90462543Y-48664000D01*
X90475233Y-48792849D01*
X90512817Y-48916746D01*
X90573850Y-49030930D01*
X90655986Y-49131014D01*
X90677902Y-49149000D01*
X90655986Y-49166986D01*
X90573850Y-49267070D01*
X90512817Y-49381254D01*
X90475233Y-49505151D01*
X90462543Y-49634000D01*
X90462543Y-49934000D01*
X90475233Y-50062849D01*
X90512817Y-50186746D01*
X90573850Y-50300930D01*
X90655986Y-50401014D01*
X90677902Y-50419000D01*
X90655986Y-50436986D01*
X90573850Y-50537070D01*
X90512817Y-50651254D01*
X90475233Y-50775151D01*
X90462543Y-50904000D01*
X90462543Y-51204000D01*
X90475233Y-51332849D01*
X90502898Y-51424047D01*
X90431578Y-51482578D01*
X90336355Y-51598607D01*
X90265597Y-51730984D01*
X90222025Y-51874622D01*
X90207313Y-52024000D01*
X88464351Y-52024000D01*
X88443102Y-51953953D01*
X88514422Y-51895422D01*
X88609645Y-51779393D01*
X88680403Y-51647016D01*
X88723975Y-51503378D01*
X88738687Y-51354000D01*
X88735000Y-51290500D01*
X88544500Y-51100000D01*
X87379000Y-51100000D01*
X87379000Y-51354000D01*
X86617000Y-51354000D01*
X86617000Y-51100000D01*
X86597000Y-51100000D01*
X86597000Y-51008000D01*
X86617000Y-51008000D01*
X86617000Y-50754000D01*
X87379000Y-50754000D01*
X87379000Y-51008000D01*
X88544500Y-51008000D01*
X88735000Y-50817500D01*
X88738687Y-50754000D01*
X88723975Y-50604622D01*
X88680403Y-50460984D01*
X88609645Y-50328607D01*
X88562937Y-50271693D01*
X89040346Y-49794284D01*
X89069422Y-49770422D01*
X89134644Y-49690948D01*
X89164645Y-49654393D01*
X89235401Y-49522016D01*
X89235402Y-49522015D01*
X89278974Y-49378378D01*
X89290000Y-49266426D01*
X89290000Y-49266423D01*
X89293686Y-49229000D01*
X89290000Y-49191577D01*
X89290000Y-47425387D01*
X89390725Y-47342725D01*
X89485297Y-47227488D01*
X89555571Y-47096015D01*
X89598845Y-46953359D01*
X89613457Y-46805001D01*
X89613457Y-45904999D01*
X89598845Y-45756641D01*
X89555571Y-45613985D01*
X89485297Y-45482512D01*
X89390725Y-45367275D01*
X89275488Y-45272703D01*
X89144015Y-45202429D01*
X89001359Y-45159155D01*
X88853001Y-45144543D01*
X88202999Y-45144543D01*
X88054641Y-45159155D01*
X87911985Y-45202429D01*
X87780512Y-45272703D01*
X87733363Y-45311397D01*
X87689645Y-45229607D01*
X87594422Y-45113578D01*
X87478393Y-45018355D01*
X87346016Y-44947597D01*
X87202378Y-44904025D01*
X87053000Y-44889313D01*
X86989500Y-44893000D01*
X86799000Y-45083500D01*
X86799000Y-45974000D01*
X86879000Y-45974000D01*
X86879000Y-46736000D01*
X86799000Y-46736000D01*
X86799000Y-46756000D01*
X86157000Y-46756000D01*
X86157000Y-46736000D01*
X86077000Y-46736000D01*
X86077000Y-45974000D01*
X86157000Y-45974000D01*
X86157000Y-45083500D01*
X85966500Y-44893000D01*
X85903000Y-44889313D01*
X85753622Y-44904025D01*
X85609984Y-44947597D01*
X85477607Y-45018355D01*
X85361578Y-45113578D01*
X85266355Y-45229607D01*
X85214891Y-45325888D01*
X85206410Y-45321355D01*
X85087090Y-45285160D01*
X84994088Y-45276000D01*
X84963000Y-45272938D01*
X84931912Y-45276000D01*
X82475197Y-45276000D01*
X82363457Y-45164260D01*
X82363457Y-44533741D01*
X82603629Y-44293569D01*
X82627774Y-44273754D01*
X82650531Y-44246025D01*
X82706876Y-44177367D01*
X82721189Y-44150589D01*
X82765655Y-44067400D01*
X82801850Y-43948080D01*
X82811010Y-43855078D01*
X82811010Y-43855077D01*
X82814072Y-43823991D01*
X82811010Y-43792905D01*
X82811010Y-42266905D01*
X82814072Y-42235819D01*
X82809740Y-42191841D01*
X82801850Y-42111730D01*
X82765655Y-41992410D01*
X82760877Y-41983470D01*
X82735248Y-41935522D01*
X94962224Y-41935522D01*
X94962224Y-42392478D01*
X95051372Y-42840654D01*
X95226242Y-43262826D01*
X95480113Y-43642771D01*
X95803229Y-43965887D01*
X96183174Y-44219758D01*
X96605346Y-44394628D01*
X97053522Y-44483776D01*
X97510478Y-44483776D01*
X97958654Y-44394628D01*
X98380826Y-44219758D01*
X98760771Y-43965887D01*
X99083887Y-43642771D01*
X99337758Y-43262826D01*
X99512628Y-42840654D01*
X99601776Y-42392478D01*
X99601776Y-41935522D01*
X99512628Y-41487346D01*
X99337758Y-41065174D01*
X99083887Y-40685229D01*
X98760771Y-40362113D01*
X98380826Y-40108242D01*
X97958654Y-39933372D01*
X97510478Y-39844224D01*
X97053522Y-39844224D01*
X96605346Y-39933372D01*
X96183174Y-40108242D01*
X95803229Y-40362113D01*
X95480113Y-40685229D01*
X95226242Y-41065174D01*
X95051372Y-41487346D01*
X94962224Y-41935522D01*
X82735248Y-41935522D01*
X82706876Y-41882443D01*
X82701999Y-41876500D01*
X82627774Y-41786056D01*
X82603618Y-41766232D01*
X82288275Y-41450888D01*
X82268454Y-41426736D01*
X82172067Y-41347634D01*
X82062100Y-41288855D01*
X81942780Y-41252660D01*
X81849778Y-41243500D01*
X81818690Y-41240438D01*
X81787602Y-41243500D01*
X81067697Y-41243500D01*
X80641583Y-40817386D01*
X80621763Y-40793235D01*
X80525376Y-40714133D01*
X80415409Y-40655354D01*
X80296089Y-40619159D01*
X80203087Y-40609999D01*
X80171999Y-40606937D01*
X80140911Y-40609999D01*
X74231086Y-40609999D01*
X74200000Y-40606937D01*
X74168914Y-40609999D01*
X74168913Y-40609999D01*
X74075911Y-40619159D01*
X73956591Y-40655354D01*
X73846624Y-40714133D01*
X73750237Y-40793235D01*
X73730413Y-40817391D01*
X73449388Y-41098415D01*
X73449382Y-41098420D01*
X73426971Y-41120831D01*
X73291214Y-41079650D01*
X73091706Y-41060000D01*
X72958294Y-41060000D01*
X72758786Y-41079650D01*
X72502802Y-41157302D01*
X72266886Y-41283402D01*
X72060103Y-41453103D01*
X71890402Y-41659886D01*
X71764302Y-41895802D01*
X71686650Y-42151786D01*
X71660430Y-42418000D01*
X71686650Y-42684214D01*
X71764302Y-42940198D01*
X71890402Y-43176114D01*
X72060103Y-43382897D01*
X72260290Y-43547185D01*
X72133423Y-43614989D01*
X71888546Y-43814733D01*
X71687342Y-44058412D01*
X71537544Y-44336661D01*
X71649158Y-44577000D01*
X72644000Y-44577000D01*
X72644000Y-44557000D01*
X73406000Y-44557000D01*
X73406000Y-44577000D01*
X73426000Y-44577000D01*
X73426000Y-45339000D01*
X73406000Y-45339000D01*
X73406000Y-45359000D01*
X72644000Y-45359000D01*
X72644000Y-45339000D01*
X71649158Y-45339000D01*
X71537544Y-45579339D01*
X71687342Y-45857588D01*
X71888546Y-46101267D01*
X72133423Y-46301011D01*
X72403663Y-46445442D01*
X72643998Y-46327490D01*
X72643998Y-46368735D01*
X72633146Y-46370894D01*
X72467901Y-46439341D01*
X72319184Y-46538711D01*
X72192711Y-46665184D01*
X72093341Y-46813901D01*
X72045735Y-46928832D01*
X67828567Y-51146001D01*
X66941052Y-51146001D01*
X66900499Y-51142007D01*
X66859946Y-51146001D01*
X66738673Y-51157945D01*
X66583065Y-51205148D01*
X66439657Y-51281802D01*
X66313958Y-51384960D01*
X66210800Y-51510659D01*
X66134146Y-51654067D01*
X66086943Y-51809675D01*
X66071005Y-51971501D01*
X59715000Y-51971501D01*
X59715000Y-43204436D01*
X59789094Y-42398074D01*
X60002236Y-41642330D01*
X60349531Y-40938086D01*
X60819346Y-40308927D01*
X61395956Y-39775914D01*
X62060039Y-39356909D01*
X62789357Y-39065941D01*
X63569828Y-38910695D01*
X64021965Y-38887000D01*
X96495564Y-38887000D01*
X97301926Y-38961094D01*
G36*
X84201000Y-53522553D02*
G01*
X84201000Y-54866543D01*
X83963000Y-54866543D01*
X83863415Y-54876351D01*
X83767657Y-54905399D01*
X83679405Y-54952571D01*
X83602052Y-55016052D01*
X83538571Y-55093405D01*
X83491399Y-55181657D01*
X83462351Y-55277415D01*
X83452543Y-55377000D01*
X83452543Y-58751500D01*
X82783021Y-58751500D01*
X82780649Y-58727415D01*
X82751601Y-58631657D01*
X82704429Y-58543405D01*
X82640948Y-58466052D01*
X82593362Y-58427000D01*
X82640948Y-58387948D01*
X82704429Y-58310595D01*
X82751601Y-58222343D01*
X82780649Y-58126585D01*
X82790457Y-58027000D01*
X82790457Y-58011973D01*
X82869968Y-57915089D01*
X82976103Y-57716523D01*
X83041461Y-57501067D01*
X83063530Y-57277000D01*
X83041461Y-57052933D01*
X82976103Y-56837477D01*
X82869968Y-56638911D01*
X82790457Y-56542027D01*
X82790457Y-56527000D01*
X82780649Y-56427415D01*
X82751601Y-56331657D01*
X82749396Y-56327532D01*
X82821422Y-56268422D01*
X82916645Y-56152393D01*
X82987403Y-56020016D01*
X83030975Y-55876378D01*
X83045687Y-55727000D01*
X83042000Y-55548500D01*
X82851500Y-55358000D01*
X81661000Y-55358000D01*
X81661000Y-55378000D01*
X80899000Y-55378000D01*
X80899000Y-55358000D01*
X79708500Y-55358000D01*
X79518000Y-55548500D01*
X79514313Y-55727000D01*
X79529025Y-55876378D01*
X79572597Y-56020016D01*
X79633524Y-56134000D01*
X76490457Y-56134000D01*
X76490457Y-55377000D01*
X76480649Y-55277415D01*
X76451601Y-55181657D01*
X76404429Y-55093405D01*
X76340948Y-55016052D01*
X76263595Y-54952571D01*
X76175343Y-54905399D01*
X76079585Y-54876351D01*
X75980000Y-54866543D01*
X73980000Y-54866543D01*
X73880415Y-54876351D01*
X73784657Y-54905399D01*
X73696405Y-54952571D01*
X73619052Y-55016052D01*
X73555571Y-55093405D01*
X73508399Y-55181657D01*
X73479351Y-55277415D01*
X73469543Y-55377000D01*
X73469543Y-59177000D01*
X73479351Y-59276585D01*
X73508399Y-59372343D01*
X73555571Y-59460595D01*
X73619052Y-59537948D01*
X73696405Y-59601429D01*
X73784657Y-59648601D01*
X73880415Y-59677649D01*
X73980000Y-59687457D01*
X75980000Y-59687457D01*
X76079585Y-59677649D01*
X76175343Y-59648601D01*
X76263595Y-59601429D01*
X76340948Y-59537948D01*
X76404429Y-59460595D01*
X76451601Y-59372343D01*
X76480649Y-59276585D01*
X76490457Y-59177000D01*
X76490457Y-58420000D01*
X79958108Y-58420000D01*
X79966638Y-58427000D01*
X79919052Y-58466052D01*
X79855571Y-58543405D01*
X79808399Y-58631657D01*
X79779351Y-58727415D01*
X79769543Y-58827000D01*
X79769543Y-60327000D01*
X79779351Y-60426585D01*
X79808399Y-60522343D01*
X79855571Y-60610595D01*
X79919052Y-60687948D01*
X79996405Y-60751429D01*
X80084657Y-60798601D01*
X80180415Y-60827649D01*
X80280000Y-60837457D01*
X81118001Y-60837457D01*
X81118002Y-61306001D01*
X70767532Y-61306001D01*
X67725999Y-58264469D01*
X67725999Y-56533489D01*
X67728570Y-56534000D01*
X67907430Y-56534000D01*
X68082854Y-56499106D01*
X68248099Y-56430659D01*
X68396816Y-56331289D01*
X68469105Y-56259000D01*
X70269910Y-56259000D01*
X70300998Y-56262062D01*
X70332086Y-56259000D01*
X70425088Y-56249840D01*
X70544408Y-56213645D01*
X70654375Y-56154866D01*
X70750762Y-56075764D01*
X70770582Y-56051613D01*
X73103195Y-53719000D01*
X73897895Y-53719000D01*
X73970184Y-53791289D01*
X74118901Y-53890659D01*
X74284146Y-53959106D01*
X74459570Y-53994000D01*
X74638430Y-53994000D01*
X74813854Y-53959106D01*
X74979099Y-53890659D01*
X75127816Y-53791289D01*
X75200105Y-53719000D01*
X79711149Y-53719000D01*
X79643355Y-53801607D01*
X79572597Y-53933984D01*
X79529025Y-54077622D01*
X79514313Y-54227000D01*
X79518000Y-54405500D01*
X79708500Y-54596000D01*
X80899000Y-54596000D01*
X80899000Y-54576000D01*
X81661000Y-54576000D01*
X81661000Y-54596000D01*
X82851500Y-54596000D01*
X83042000Y-54405500D01*
X83045687Y-54227000D01*
X83030975Y-54077622D01*
X83005609Y-53994000D01*
X83147430Y-53994000D01*
X83322854Y-53959106D01*
X83488099Y-53890659D01*
X83636816Y-53791289D01*
X83763289Y-53664816D01*
X83862659Y-53516099D01*
X83931106Y-53350854D01*
X83947398Y-53268950D01*
X84201000Y-53522553D01*
X84201000Y-53522553D01*
G37*
X84201000Y-53522553D02*
X84201000Y-54866543D01*
X83963000Y-54866543D01*
X83863415Y-54876351D01*
X83767657Y-54905399D01*
X83679405Y-54952571D01*
X83602052Y-55016052D01*
X83538571Y-55093405D01*
X83491399Y-55181657D01*
X83462351Y-55277415D01*
X83452543Y-55377000D01*
X83452543Y-58751500D01*
X82783021Y-58751500D01*
X82780649Y-58727415D01*
X82751601Y-58631657D01*
X82704429Y-58543405D01*
X82640948Y-58466052D01*
X82593362Y-58427000D01*
X82640948Y-58387948D01*
X82704429Y-58310595D01*
X82751601Y-58222343D01*
X82780649Y-58126585D01*
X82790457Y-58027000D01*
X82790457Y-58011973D01*
X82869968Y-57915089D01*
X82976103Y-57716523D01*
X83041461Y-57501067D01*
X83063530Y-57277000D01*
X83041461Y-57052933D01*
X82976103Y-56837477D01*
X82869968Y-56638911D01*
X82790457Y-56542027D01*
X82790457Y-56527000D01*
X82780649Y-56427415D01*
X82751601Y-56331657D01*
X82749396Y-56327532D01*
X82821422Y-56268422D01*
X82916645Y-56152393D01*
X82987403Y-56020016D01*
X83030975Y-55876378D01*
X83045687Y-55727000D01*
X83042000Y-55548500D01*
X82851500Y-55358000D01*
X81661000Y-55358000D01*
X81661000Y-55378000D01*
X80899000Y-55378000D01*
X80899000Y-55358000D01*
X79708500Y-55358000D01*
X79518000Y-55548500D01*
X79514313Y-55727000D01*
X79529025Y-55876378D01*
X79572597Y-56020016D01*
X79633524Y-56134000D01*
X76490457Y-56134000D01*
X76490457Y-55377000D01*
X76480649Y-55277415D01*
X76451601Y-55181657D01*
X76404429Y-55093405D01*
X76340948Y-55016052D01*
X76263595Y-54952571D01*
X76175343Y-54905399D01*
X76079585Y-54876351D01*
X75980000Y-54866543D01*
X73980000Y-54866543D01*
X73880415Y-54876351D01*
X73784657Y-54905399D01*
X73696405Y-54952571D01*
X73619052Y-55016052D01*
X73555571Y-55093405D01*
X73508399Y-55181657D01*
X73479351Y-55277415D01*
X73469543Y-55377000D01*
X73469543Y-59177000D01*
X73479351Y-59276585D01*
X73508399Y-59372343D01*
X73555571Y-59460595D01*
X73619052Y-59537948D01*
X73696405Y-59601429D01*
X73784657Y-59648601D01*
X73880415Y-59677649D01*
X73980000Y-59687457D01*
X75980000Y-59687457D01*
X76079585Y-59677649D01*
X76175343Y-59648601D01*
X76263595Y-59601429D01*
X76340948Y-59537948D01*
X76404429Y-59460595D01*
X76451601Y-59372343D01*
X76480649Y-59276585D01*
X76490457Y-59177000D01*
X76490457Y-58420000D01*
X79958108Y-58420000D01*
X79966638Y-58427000D01*
X79919052Y-58466052D01*
X79855571Y-58543405D01*
X79808399Y-58631657D01*
X79779351Y-58727415D01*
X79769543Y-58827000D01*
X79769543Y-60327000D01*
X79779351Y-60426585D01*
X79808399Y-60522343D01*
X79855571Y-60610595D01*
X79919052Y-60687948D01*
X79996405Y-60751429D01*
X80084657Y-60798601D01*
X80180415Y-60827649D01*
X80280000Y-60837457D01*
X81118001Y-60837457D01*
X81118002Y-61306001D01*
X70767532Y-61306001D01*
X67725999Y-58264469D01*
X67725999Y-56533489D01*
X67728570Y-56534000D01*
X67907430Y-56534000D01*
X68082854Y-56499106D01*
X68248099Y-56430659D01*
X68396816Y-56331289D01*
X68469105Y-56259000D01*
X70269910Y-56259000D01*
X70300998Y-56262062D01*
X70332086Y-56259000D01*
X70425088Y-56249840D01*
X70544408Y-56213645D01*
X70654375Y-56154866D01*
X70750762Y-56075764D01*
X70770582Y-56051613D01*
X73103195Y-53719000D01*
X73897895Y-53719000D01*
X73970184Y-53791289D01*
X74118901Y-53890659D01*
X74284146Y-53959106D01*
X74459570Y-53994000D01*
X74638430Y-53994000D01*
X74813854Y-53959106D01*
X74979099Y-53890659D01*
X75127816Y-53791289D01*
X75200105Y-53719000D01*
X79711149Y-53719000D01*
X79643355Y-53801607D01*
X79572597Y-53933984D01*
X79529025Y-54077622D01*
X79514313Y-54227000D01*
X79518000Y-54405500D01*
X79708500Y-54596000D01*
X80899000Y-54596000D01*
X80899000Y-54576000D01*
X81661000Y-54576000D01*
X81661000Y-54596000D01*
X82851500Y-54596000D01*
X83042000Y-54405500D01*
X83045687Y-54227000D01*
X83030975Y-54077622D01*
X83005609Y-53994000D01*
X83147430Y-53994000D01*
X83322854Y-53959106D01*
X83488099Y-53890659D01*
X83636816Y-53791289D01*
X83763289Y-53664816D01*
X83862659Y-53516099D01*
X83931106Y-53350854D01*
X83947398Y-53268950D01*
X84201000Y-53522553D01*
G36*
X76329000Y-48395197D02*
G01*
X76329001Y-49894894D01*
X76256711Y-49967184D01*
X76157341Y-50115901D01*
X76088894Y-50281146D01*
X76054000Y-50456570D01*
X76054000Y-50635430D01*
X76088894Y-50810854D01*
X76157341Y-50976099D01*
X76256711Y-51124816D01*
X76383184Y-51251289D01*
X76531901Y-51350659D01*
X76697146Y-51419106D01*
X76872570Y-51454000D01*
X77051430Y-51454000D01*
X77226854Y-51419106D01*
X77392099Y-51350659D01*
X77540816Y-51251289D01*
X77667289Y-51124816D01*
X77766659Y-50976099D01*
X77835106Y-50810854D01*
X77870000Y-50635430D01*
X77870000Y-50456570D01*
X77868891Y-50450996D01*
X77907184Y-50489289D01*
X78055901Y-50588659D01*
X78221146Y-50657106D01*
X78396570Y-50692000D01*
X78575430Y-50692000D01*
X78750854Y-50657106D01*
X78916099Y-50588659D01*
X78979942Y-50546000D01*
X79562370Y-50546000D01*
X81182721Y-52166352D01*
X81206579Y-52195423D01*
X81235649Y-52219280D01*
X81322608Y-52290646D01*
X81364131Y-52312840D01*
X81454986Y-52361403D01*
X81598623Y-52404975D01*
X81710575Y-52416001D01*
X81710578Y-52416001D01*
X81748001Y-52419687D01*
X81785424Y-52416001D01*
X82443894Y-52416001D01*
X82406895Y-52453000D01*
X75200105Y-52453000D01*
X75127816Y-52380711D01*
X74979099Y-52281341D01*
X74813854Y-52212894D01*
X74638430Y-52178000D01*
X74459570Y-52178000D01*
X74284146Y-52212894D01*
X74118901Y-52281341D01*
X73970184Y-52380711D01*
X73897895Y-52453000D01*
X72872083Y-52453000D01*
X72840997Y-52449938D01*
X72809911Y-52453000D01*
X72809910Y-52453000D01*
X72716908Y-52462160D01*
X72597588Y-52498355D01*
X72487621Y-52557134D01*
X72391234Y-52636236D01*
X72371414Y-52660387D01*
X70038801Y-54993000D01*
X68469105Y-54993000D01*
X68396816Y-54920711D01*
X68248099Y-54821341D01*
X68082854Y-54752894D01*
X67907430Y-54718000D01*
X67728570Y-54718000D01*
X67725999Y-54718511D01*
X67725999Y-52797001D01*
X68129949Y-52797001D01*
X68170499Y-52800995D01*
X68211049Y-52797001D01*
X68211052Y-52797001D01*
X68332325Y-52785057D01*
X68487933Y-52737854D01*
X68631341Y-52661200D01*
X68757040Y-52558042D01*
X68782897Y-52526535D01*
X73213168Y-48096265D01*
X73328099Y-48048659D01*
X73476816Y-47949289D01*
X73603289Y-47822816D01*
X73702659Y-47674099D01*
X73771106Y-47508854D01*
X73806000Y-47333430D01*
X73806000Y-47154570D01*
X73771106Y-46979146D01*
X73702659Y-46813901D01*
X73603289Y-46665184D01*
X73476816Y-46538711D01*
X73406002Y-46491394D01*
X73406002Y-46327490D01*
X73646337Y-46445442D01*
X73916577Y-46301011D01*
X74091847Y-46158044D01*
X76329000Y-48395197D01*
X76329000Y-48395197D01*
G37*
X76329000Y-48395197D02*
X76329001Y-49894894D01*
X76256711Y-49967184D01*
X76157341Y-50115901D01*
X76088894Y-50281146D01*
X76054000Y-50456570D01*
X76054000Y-50635430D01*
X76088894Y-50810854D01*
X76157341Y-50976099D01*
X76256711Y-51124816D01*
X76383184Y-51251289D01*
X76531901Y-51350659D01*
X76697146Y-51419106D01*
X76872570Y-51454000D01*
X77051430Y-51454000D01*
X77226854Y-51419106D01*
X77392099Y-51350659D01*
X77540816Y-51251289D01*
X77667289Y-51124816D01*
X77766659Y-50976099D01*
X77835106Y-50810854D01*
X77870000Y-50635430D01*
X77870000Y-50456570D01*
X77868891Y-50450996D01*
X77907184Y-50489289D01*
X78055901Y-50588659D01*
X78221146Y-50657106D01*
X78396570Y-50692000D01*
X78575430Y-50692000D01*
X78750854Y-50657106D01*
X78916099Y-50588659D01*
X78979942Y-50546000D01*
X79562370Y-50546000D01*
X81182721Y-52166352D01*
X81206579Y-52195423D01*
X81235649Y-52219280D01*
X81322608Y-52290646D01*
X81364131Y-52312840D01*
X81454986Y-52361403D01*
X81598623Y-52404975D01*
X81710575Y-52416001D01*
X81710578Y-52416001D01*
X81748001Y-52419687D01*
X81785424Y-52416001D01*
X82443894Y-52416001D01*
X82406895Y-52453000D01*
X75200105Y-52453000D01*
X75127816Y-52380711D01*
X74979099Y-52281341D01*
X74813854Y-52212894D01*
X74638430Y-52178000D01*
X74459570Y-52178000D01*
X74284146Y-52212894D01*
X74118901Y-52281341D01*
X73970184Y-52380711D01*
X73897895Y-52453000D01*
X72872083Y-52453000D01*
X72840997Y-52449938D01*
X72809911Y-52453000D01*
X72809910Y-52453000D01*
X72716908Y-52462160D01*
X72597588Y-52498355D01*
X72487621Y-52557134D01*
X72391234Y-52636236D01*
X72371414Y-52660387D01*
X70038801Y-54993000D01*
X68469105Y-54993000D01*
X68396816Y-54920711D01*
X68248099Y-54821341D01*
X68082854Y-54752894D01*
X67907430Y-54718000D01*
X67728570Y-54718000D01*
X67725999Y-54718511D01*
X67725999Y-52797001D01*
X68129949Y-52797001D01*
X68170499Y-52800995D01*
X68211049Y-52797001D01*
X68211052Y-52797001D01*
X68332325Y-52785057D01*
X68487933Y-52737854D01*
X68631341Y-52661200D01*
X68757040Y-52558042D01*
X68782897Y-52526535D01*
X73213168Y-48096265D01*
X73328099Y-48048659D01*
X73476816Y-47949289D01*
X73603289Y-47822816D01*
X73702659Y-47674099D01*
X73771106Y-47508854D01*
X73806000Y-47333430D01*
X73806000Y-47154570D01*
X73771106Y-46979146D01*
X73702659Y-46813901D01*
X73603289Y-46665184D01*
X73476816Y-46538711D01*
X73406002Y-46491394D01*
X73406002Y-46327490D01*
X73646337Y-46445442D01*
X73916577Y-46301011D01*
X74091847Y-46158044D01*
X76329000Y-48395197D01*
M02*
