M48
; DRILL file {KiCad (5.1.4)-1} date 2020-03-10 8:29:04 PM
; FORMAT={-:-/ absolute / inch / decimal}
; #@! TF.CreationDate,2020-03-10T20:29:04-04:00
; #@! TF.GenerationSoftware,Kicad,Pcbnew,(5.1.4)-1
; #@! TF.FileFunction,Plated,1,2,PTH
FMAT,2
INCH
T1C0.0157
T2C0.0374
T3C0.0394
%
G90
G05
T1
X2.58Y-2.17
X2.59Y-1.61
X2.59Y-1.81
X2.59Y-2.01
X2.67Y-2.19
X2.79Y-1.61
X2.79Y-1.81
X2.79Y-2.01
X2.79Y-2.21
X2.79Y-2.41
X2.87Y-1.86
X2.935Y-2.09
X2.94Y-2.22
X2.94Y-2.3
X2.99Y-2.01
X2.99Y-2.41
X3.03Y-1.99
X3.07Y-2.125
X3.08Y-1.86
X3.09Y-1.96
X3.09Y-2.04
X3.105Y-2.16
X3.135Y-2.195
X3.19Y-1.61
X3.19Y-2.41
X3.2Y-2.255
X3.27Y-2.09
X3.275Y-2.255
X3.31Y-2.005
X3.345Y-1.935
X3.355Y-2.255
X3.39Y-1.61
X3.425Y-1.91
X3.425Y-2.01
X3.425Y-2.06
X3.49Y-2.255
X3.59Y-1.61
X3.59Y-2.41
X3.595Y-2.165
X3.595Y-2.255
X3.65Y-1.77
X3.69Y-2.29
X3.705Y-1.91
X3.79Y-2.41
T2
X3.785Y-1.9366
X3.785Y-2.035
X3.785Y-2.1334
X3.785Y-2.2319
T3
X2.875Y-1.67
X2.875Y-1.77
X2.975Y-1.67
X2.975Y-1.77
X3.075Y-1.67
X3.075Y-1.77
T0
M30
