G04 #@! TF.GenerationSoftware,KiCad,Pcbnew,(5.1.4)-1*
G04 #@! TF.CreationDate,2020-03-10T20:28:57-04:00*
G04 #@! TF.ProjectId,Torchic,546f7263-6869-4632-9e6b-696361645f70,rev?*
G04 #@! TF.SameCoordinates,Original*
G04 #@! TF.FileFunction,Legend,Top*
G04 #@! TF.FilePolarity,Positive*
%FSLAX46Y46*%
G04 Gerber Fmt 4.6, Leading zero omitted, Abs format (unit mm)*
G04 Created by KiCad (PCBNEW (5.1.4)-1) date 2020-03-10 20:28:57*
%MOMM*%
%LPD*%
G04 APERTURE LIST*
%ADD10C,0.120000*%
%ADD11C,0.150000*%
G04 APERTURE END LIST*
D10*
X88646000Y-53086000D02*
G75*
G03X88646000Y-53086000I-508000J0D01*
G01*
D11*
X88950000Y-53878000D02*
X90375000Y-53878000D01*
X81700000Y-54103000D02*
X82025000Y-54103000D01*
X81700000Y-46853000D02*
X82025000Y-46853000D01*
X88950000Y-46853000D02*
X88625000Y-46853000D01*
X88950000Y-54103000D02*
X88625000Y-54103000D01*
X88950000Y-46853000D02*
X88950000Y-47178000D01*
X81700000Y-46853000D02*
X81700000Y-47178000D01*
X81700000Y-54103000D02*
X81700000Y-53778000D01*
X88950000Y-54103000D02*
X88950000Y-53878000D01*
D10*
X98749000Y-59599000D02*
X98749000Y-57099000D01*
X96249000Y-59599000D02*
X98749000Y-59599000D01*
X96949000Y-47579000D02*
X98449000Y-47579000D01*
X96949000Y-46579000D02*
X96949000Y-47579000D01*
X96949000Y-58299000D02*
X98449000Y-58299000D01*
X96949000Y-59299000D02*
X96949000Y-58299000D01*
X96139000Y-47079000D02*
X96139000Y-46579000D01*
X94929000Y-47079000D02*
X96139000Y-47079000D01*
X94929000Y-58799000D02*
X94929000Y-47079000D01*
X96139000Y-58799000D02*
X94929000Y-58799000D01*
X96139000Y-59299000D02*
X96139000Y-58799000D01*
X94429000Y-46579000D02*
X94429000Y-59299000D01*
X98449000Y-46579000D02*
X94429000Y-46579000D01*
X98449000Y-59299000D02*
X98449000Y-46579000D01*
X94429000Y-59299000D02*
X98449000Y-59299000D01*
X75561436Y-60415000D02*
X76765564Y-60415000D01*
X75561436Y-57695000D02*
X76765564Y-57695000D01*
X87286000Y-58198936D02*
X87286000Y-59403064D01*
X90006000Y-58198936D02*
X90006000Y-59403064D01*
X85568800Y-42353800D02*
X85568800Y-43853800D01*
X86768800Y-43903800D02*
X87068800Y-43903800D01*
X86768800Y-42303800D02*
X87068800Y-42303800D01*
X65343000Y-56281000D02*
X68793000Y-56281000D01*
X65343000Y-56281000D02*
X63393000Y-56281000D01*
X65343000Y-51161000D02*
X67293000Y-51161000D01*
X65343000Y-51161000D02*
X63393000Y-51161000D01*
X63492748Y-49790000D02*
X64015252Y-49790000D01*
X63492748Y-48370000D02*
X64015252Y-48370000D01*
X63492748Y-46840000D02*
X64015252Y-46840000D01*
X63492748Y-45420000D02*
X64015252Y-45420000D01*
X63492748Y-43890000D02*
X64015252Y-43890000D01*
X63492748Y-42470000D02*
X64015252Y-42470000D01*
X81980000Y-57277000D02*
G75*
G03X81980000Y-57277000I-700000J0D01*
G01*
X92013000Y-57277000D02*
G75*
G03X92013000Y-57277000I-700000J0D01*
G01*
X75249000Y-53086000D02*
G75*
G03X75249000Y-53086000I-700000J0D01*
G01*
X70931000Y-53086000D02*
G75*
G03X70931000Y-53086000I-700000J0D01*
G01*
X73090000Y-53086000D02*
G75*
G03X73090000Y-53086000I-700000J0D01*
G01*
X93410000Y-44958000D02*
G75*
G03X93410000Y-44958000I-700000J0D01*
G01*
X84471252Y-56567000D02*
X83948748Y-56567000D01*
X84471252Y-57987000D02*
X83948748Y-57987000D01*
X91365000Y-51681748D02*
X91365000Y-52204252D01*
X92785000Y-51681748D02*
X92785000Y-52204252D01*
X77776000Y-50547748D02*
X77776000Y-51070252D01*
X79196000Y-50547748D02*
X79196000Y-51070252D01*
X84707800Y-43102052D02*
X84707800Y-42579548D01*
X83287800Y-43102052D02*
X83287800Y-42579548D01*
X90549800Y-43102052D02*
X90549800Y-42579548D01*
X89129800Y-43102052D02*
X89129800Y-42579548D01*
X75430748Y-57098000D02*
X75953252Y-57098000D01*
X75430748Y-55678000D02*
X75953252Y-55678000D01*
X79435000Y-41088000D02*
X79435000Y-42418000D01*
X78105000Y-41088000D02*
X79435000Y-41088000D01*
X79435000Y-43688000D02*
X79435000Y-46288000D01*
X76835000Y-43688000D02*
X79435000Y-43688000D01*
X76835000Y-41088000D02*
X76835000Y-43688000D01*
X79435000Y-46288000D02*
X71695000Y-46288000D01*
X76835000Y-41088000D02*
X71695000Y-41088000D01*
X71695000Y-41088000D02*
X71695000Y-46288000D01*
D11*
X78359095Y-53935380D02*
X78359095Y-54744904D01*
X78406714Y-54840142D01*
X78454333Y-54887761D01*
X78549571Y-54935380D01*
X78740047Y-54935380D01*
X78835285Y-54887761D01*
X78882904Y-54840142D01*
X78930523Y-54744904D01*
X78930523Y-53935380D01*
X79930523Y-54935380D02*
X79359095Y-54935380D01*
X79644809Y-54935380D02*
X79644809Y-53935380D01*
X79549571Y-54078238D01*
X79454333Y-54173476D01*
X79359095Y-54221095D01*
X92791380Y-53272333D02*
X93505666Y-53272333D01*
X93648523Y-53319952D01*
X93743761Y-53415190D01*
X93791380Y-53558047D01*
X93791380Y-53653285D01*
X92886619Y-52843761D02*
X92839000Y-52796142D01*
X92791380Y-52700904D01*
X92791380Y-52462809D01*
X92839000Y-52367571D01*
X92886619Y-52319952D01*
X92981857Y-52272333D01*
X93077095Y-52272333D01*
X93219952Y-52319952D01*
X93791380Y-52891380D01*
X93791380Y-52272333D01*
X75996833Y-57132142D02*
X75949214Y-57179761D01*
X75806357Y-57227380D01*
X75711119Y-57227380D01*
X75568261Y-57179761D01*
X75473023Y-57084523D01*
X75425404Y-56989285D01*
X75377785Y-56798809D01*
X75377785Y-56655952D01*
X75425404Y-56465476D01*
X75473023Y-56370238D01*
X75568261Y-56275000D01*
X75711119Y-56227380D01*
X75806357Y-56227380D01*
X75949214Y-56275000D01*
X75996833Y-56322619D01*
X76853976Y-56560714D02*
X76853976Y-57227380D01*
X76615880Y-56179761D02*
X76377785Y-56894047D01*
X76996833Y-56894047D01*
X91283142Y-58967666D02*
X91330761Y-59015285D01*
X91378380Y-59158142D01*
X91378380Y-59253380D01*
X91330761Y-59396238D01*
X91235523Y-59491476D01*
X91140285Y-59539095D01*
X90949809Y-59586714D01*
X90806952Y-59586714D01*
X90616476Y-59539095D01*
X90521238Y-59491476D01*
X90426000Y-59396238D01*
X90378380Y-59253380D01*
X90378380Y-59158142D01*
X90426000Y-59015285D01*
X90473619Y-58967666D01*
X90378380Y-58634333D02*
X90378380Y-58015285D01*
X90759333Y-58348619D01*
X90759333Y-58205761D01*
X90806952Y-58110523D01*
X90854571Y-58062904D01*
X90949809Y-58015285D01*
X91187904Y-58015285D01*
X91283142Y-58062904D01*
X91330761Y-58110523D01*
X91378380Y-58205761D01*
X91378380Y-58491476D01*
X91330761Y-58586714D01*
X91283142Y-58634333D01*
X86442609Y-41279990D02*
X86442609Y-41756180D01*
X86109276Y-40756180D02*
X86442609Y-41279990D01*
X86775942Y-40756180D01*
X87633085Y-41756180D02*
X87061657Y-41756180D01*
X87347371Y-41756180D02*
X87347371Y-40756180D01*
X87252133Y-40899038D01*
X87156895Y-40994276D01*
X87061657Y-41041895D01*
X64581095Y-56573380D02*
X64581095Y-57382904D01*
X64628714Y-57478142D01*
X64676333Y-57525761D01*
X64771571Y-57573380D01*
X64962047Y-57573380D01*
X65057285Y-57525761D01*
X65104904Y-57478142D01*
X65152523Y-57382904D01*
X65152523Y-56573380D01*
X66104904Y-56573380D02*
X65628714Y-56573380D01*
X65581095Y-57049571D01*
X65628714Y-57001952D01*
X65723952Y-56954333D01*
X65962047Y-56954333D01*
X66057285Y-57001952D01*
X66104904Y-57049571D01*
X66152523Y-57144809D01*
X66152523Y-57382904D01*
X66104904Y-57478142D01*
X66057285Y-57525761D01*
X65962047Y-57573380D01*
X65723952Y-57573380D01*
X65628714Y-57525761D01*
X65581095Y-57478142D01*
X63111142Y-47787142D02*
X63063523Y-47834761D01*
X62920666Y-47882380D01*
X62825428Y-47882380D01*
X62682571Y-47834761D01*
X62587333Y-47739523D01*
X62539714Y-47644285D01*
X62492095Y-47453809D01*
X62492095Y-47310952D01*
X62539714Y-47120476D01*
X62587333Y-47025238D01*
X62682571Y-46930000D01*
X62825428Y-46882380D01*
X62920666Y-46882380D01*
X63063523Y-46930000D01*
X63111142Y-46977619D01*
X64063523Y-47882380D02*
X63492095Y-47882380D01*
X63777809Y-47882380D02*
X63777809Y-46882380D01*
X63682571Y-47025238D01*
X63587333Y-47120476D01*
X63492095Y-47168095D01*
X64444476Y-46977619D02*
X64492095Y-46930000D01*
X64587333Y-46882380D01*
X64825428Y-46882380D01*
X64920666Y-46930000D01*
X64968285Y-46977619D01*
X65015904Y-47072857D01*
X65015904Y-47168095D01*
X64968285Y-47310952D01*
X64396857Y-47882380D01*
X65015904Y-47882380D01*
X63111142Y-44837142D02*
X63063523Y-44884761D01*
X62920666Y-44932380D01*
X62825428Y-44932380D01*
X62682571Y-44884761D01*
X62587333Y-44789523D01*
X62539714Y-44694285D01*
X62492095Y-44503809D01*
X62492095Y-44360952D01*
X62539714Y-44170476D01*
X62587333Y-44075238D01*
X62682571Y-43980000D01*
X62825428Y-43932380D01*
X62920666Y-43932380D01*
X63063523Y-43980000D01*
X63111142Y-44027619D01*
X64063523Y-44932380D02*
X63492095Y-44932380D01*
X63777809Y-44932380D02*
X63777809Y-43932380D01*
X63682571Y-44075238D01*
X63587333Y-44170476D01*
X63492095Y-44218095D01*
X65015904Y-44932380D02*
X64444476Y-44932380D01*
X64730190Y-44932380D02*
X64730190Y-43932380D01*
X64634952Y-44075238D01*
X64539714Y-44170476D01*
X64444476Y-44218095D01*
X63111142Y-41887142D02*
X63063523Y-41934761D01*
X62920666Y-41982380D01*
X62825428Y-41982380D01*
X62682571Y-41934761D01*
X62587333Y-41839523D01*
X62539714Y-41744285D01*
X62492095Y-41553809D01*
X62492095Y-41410952D01*
X62539714Y-41220476D01*
X62587333Y-41125238D01*
X62682571Y-41030000D01*
X62825428Y-40982380D01*
X62920666Y-40982380D01*
X63063523Y-41030000D01*
X63111142Y-41077619D01*
X64063523Y-41982380D02*
X63492095Y-41982380D01*
X63777809Y-41982380D02*
X63777809Y-40982380D01*
X63682571Y-41125238D01*
X63587333Y-41220476D01*
X63492095Y-41268095D01*
X64682571Y-40982380D02*
X64777809Y-40982380D01*
X64873047Y-41030000D01*
X64920666Y-41077619D01*
X64968285Y-41172857D01*
X65015904Y-41363333D01*
X65015904Y-41601428D01*
X64968285Y-41791904D01*
X64920666Y-41887142D01*
X64873047Y-41934761D01*
X64777809Y-41982380D01*
X64682571Y-41982380D01*
X64587333Y-41934761D01*
X64539714Y-41887142D01*
X64492095Y-41791904D01*
X64444476Y-41601428D01*
X64444476Y-41363333D01*
X64492095Y-41172857D01*
X64539714Y-41077619D01*
X64587333Y-41030000D01*
X64682571Y-40982380D01*
X79383095Y-58634380D02*
X79954523Y-58634380D01*
X79668809Y-59634380D02*
X79668809Y-58634380D01*
X80287857Y-59634380D02*
X80287857Y-58634380D01*
X80668809Y-58634380D01*
X80764047Y-58682000D01*
X80811666Y-58729619D01*
X80859285Y-58824857D01*
X80859285Y-58967714D01*
X80811666Y-59062952D01*
X80764047Y-59110571D01*
X80668809Y-59158190D01*
X80287857Y-59158190D01*
X81764047Y-58634380D02*
X81287857Y-58634380D01*
X81240238Y-59110571D01*
X81287857Y-59062952D01*
X81383095Y-59015333D01*
X81621190Y-59015333D01*
X81716428Y-59062952D01*
X81764047Y-59110571D01*
X81811666Y-59205809D01*
X81811666Y-59443904D01*
X81764047Y-59539142D01*
X81716428Y-59586761D01*
X81621190Y-59634380D01*
X81383095Y-59634380D01*
X81287857Y-59586761D01*
X81240238Y-59539142D01*
X90305095Y-58507380D02*
X90876523Y-58507380D01*
X90590809Y-59507380D02*
X90590809Y-58507380D01*
X91209857Y-59507380D02*
X91209857Y-58507380D01*
X91590809Y-58507380D01*
X91686047Y-58555000D01*
X91733666Y-58602619D01*
X91781285Y-58697857D01*
X91781285Y-58840714D01*
X91733666Y-58935952D01*
X91686047Y-58983571D01*
X91590809Y-59031190D01*
X91209857Y-59031190D01*
X92638428Y-58840714D02*
X92638428Y-59507380D01*
X92400333Y-58459761D02*
X92162238Y-59174047D01*
X92781285Y-59174047D01*
X75525380Y-54347904D02*
X75525380Y-53776476D01*
X76525380Y-54062190D02*
X75525380Y-54062190D01*
X76525380Y-53443142D02*
X75525380Y-53443142D01*
X75525380Y-53062190D01*
X75573000Y-52966952D01*
X75620619Y-52919333D01*
X75715857Y-52871714D01*
X75858714Y-52871714D01*
X75953952Y-52919333D01*
X76001571Y-52966952D01*
X76049190Y-53062190D01*
X76049190Y-53443142D01*
X75525380Y-52538380D02*
X75525380Y-51919333D01*
X75906333Y-52252666D01*
X75906333Y-52109809D01*
X75953952Y-52014571D01*
X76001571Y-51966952D01*
X76096809Y-51919333D01*
X76334904Y-51919333D01*
X76430142Y-51966952D01*
X76477761Y-52014571D01*
X76525380Y-52109809D01*
X76525380Y-52395523D01*
X76477761Y-52490761D01*
X76430142Y-52538380D01*
X68286380Y-54347904D02*
X68286380Y-53776476D01*
X69286380Y-54062190D02*
X68286380Y-54062190D01*
X69286380Y-53443142D02*
X68286380Y-53443142D01*
X68286380Y-53062190D01*
X68334000Y-52966952D01*
X68381619Y-52919333D01*
X68476857Y-52871714D01*
X68619714Y-52871714D01*
X68714952Y-52919333D01*
X68762571Y-52966952D01*
X68810190Y-53062190D01*
X68810190Y-53443142D01*
X68381619Y-52490761D02*
X68334000Y-52443142D01*
X68286380Y-52347904D01*
X68286380Y-52109809D01*
X68334000Y-52014571D01*
X68381619Y-51966952D01*
X68476857Y-51919333D01*
X68572095Y-51919333D01*
X68714952Y-51966952D01*
X69286380Y-52538380D01*
X69286380Y-51919333D01*
X71128095Y-50887380D02*
X71699523Y-50887380D01*
X71413809Y-51887380D02*
X71413809Y-50887380D01*
X72032857Y-51887380D02*
X72032857Y-50887380D01*
X72413809Y-50887380D01*
X72509047Y-50935000D01*
X72556666Y-50982619D01*
X72604285Y-51077857D01*
X72604285Y-51220714D01*
X72556666Y-51315952D01*
X72509047Y-51363571D01*
X72413809Y-51411190D01*
X72032857Y-51411190D01*
X73556666Y-51887380D02*
X72985238Y-51887380D01*
X73270952Y-51887380D02*
X73270952Y-50887380D01*
X73175714Y-51030238D01*
X73080476Y-51125476D01*
X72985238Y-51173095D01*
X92210095Y-42759380D02*
X92781523Y-42759380D01*
X92495809Y-43759380D02*
X92495809Y-42759380D01*
X93114857Y-43759380D02*
X93114857Y-42759380D01*
X93495809Y-42759380D01*
X93591047Y-42807000D01*
X93638666Y-42854619D01*
X93686285Y-42949857D01*
X93686285Y-43092714D01*
X93638666Y-43187952D01*
X93591047Y-43235571D01*
X93495809Y-43283190D01*
X93114857Y-43283190D01*
X94305333Y-42759380D02*
X94400571Y-42759380D01*
X94495809Y-42807000D01*
X94543428Y-42854619D01*
X94591047Y-42949857D01*
X94638666Y-43140333D01*
X94638666Y-43378428D01*
X94591047Y-43568904D01*
X94543428Y-43664142D01*
X94495809Y-43711761D01*
X94400571Y-43759380D01*
X94305333Y-43759380D01*
X94210095Y-43711761D01*
X94162476Y-43664142D01*
X94114857Y-43568904D01*
X94067238Y-43378428D01*
X94067238Y-43140333D01*
X94114857Y-42949857D01*
X94162476Y-42854619D01*
X94210095Y-42807000D01*
X94305333Y-42759380D01*
X84923333Y-59285142D02*
X84875714Y-59332761D01*
X84732857Y-59380380D01*
X84637619Y-59380380D01*
X84494761Y-59332761D01*
X84399523Y-59237523D01*
X84351904Y-59142285D01*
X84304285Y-58951809D01*
X84304285Y-58808952D01*
X84351904Y-58618476D01*
X84399523Y-58523238D01*
X84494761Y-58428000D01*
X84637619Y-58380380D01*
X84732857Y-58380380D01*
X84875714Y-58428000D01*
X84923333Y-58475619D01*
X85875714Y-59380380D02*
X85304285Y-59380380D01*
X85590000Y-59380380D02*
X85590000Y-58380380D01*
X85494761Y-58523238D01*
X85399523Y-58618476D01*
X85304285Y-58666095D01*
X91908333Y-49760142D02*
X91860714Y-49807761D01*
X91717857Y-49855380D01*
X91622619Y-49855380D01*
X91479761Y-49807761D01*
X91384523Y-49712523D01*
X91336904Y-49617285D01*
X91289285Y-49426809D01*
X91289285Y-49283952D01*
X91336904Y-49093476D01*
X91384523Y-48998238D01*
X91479761Y-48903000D01*
X91622619Y-48855380D01*
X91717857Y-48855380D01*
X91860714Y-48903000D01*
X91908333Y-48950619D01*
X92241666Y-48855380D02*
X92908333Y-48855380D01*
X92479761Y-49855380D01*
X78319333Y-48762142D02*
X78271714Y-48809761D01*
X78128857Y-48857380D01*
X78033619Y-48857380D01*
X77890761Y-48809761D01*
X77795523Y-48714523D01*
X77747904Y-48619285D01*
X77700285Y-48428809D01*
X77700285Y-48285952D01*
X77747904Y-48095476D01*
X77795523Y-48000238D01*
X77890761Y-47905000D01*
X78033619Y-47857380D01*
X78128857Y-47857380D01*
X78271714Y-47905000D01*
X78319333Y-47952619D01*
X78890761Y-48285952D02*
X78795523Y-48238333D01*
X78747904Y-48190714D01*
X78700285Y-48095476D01*
X78700285Y-48047857D01*
X78747904Y-47952619D01*
X78795523Y-47905000D01*
X78890761Y-47857380D01*
X79081238Y-47857380D01*
X79176476Y-47905000D01*
X79224095Y-47952619D01*
X79271714Y-48047857D01*
X79271714Y-48095476D01*
X79224095Y-48190714D01*
X79176476Y-48238333D01*
X79081238Y-48285952D01*
X78890761Y-48285952D01*
X78795523Y-48333571D01*
X78747904Y-48381190D01*
X78700285Y-48476428D01*
X78700285Y-48666904D01*
X78747904Y-48762142D01*
X78795523Y-48809761D01*
X78890761Y-48857380D01*
X79081238Y-48857380D01*
X79176476Y-48809761D01*
X79224095Y-48762142D01*
X79271714Y-48666904D01*
X79271714Y-48476428D01*
X79224095Y-48381190D01*
X79176476Y-48333571D01*
X79081238Y-48285952D01*
X83780333Y-40743142D02*
X83732714Y-40790761D01*
X83589857Y-40838380D01*
X83494619Y-40838380D01*
X83351761Y-40790761D01*
X83256523Y-40695523D01*
X83208904Y-40600285D01*
X83161285Y-40409809D01*
X83161285Y-40266952D01*
X83208904Y-40076476D01*
X83256523Y-39981238D01*
X83351761Y-39886000D01*
X83494619Y-39838380D01*
X83589857Y-39838380D01*
X83732714Y-39886000D01*
X83780333Y-39933619D01*
X84685095Y-39838380D02*
X84208904Y-39838380D01*
X84161285Y-40314571D01*
X84208904Y-40266952D01*
X84304142Y-40219333D01*
X84542238Y-40219333D01*
X84637476Y-40266952D01*
X84685095Y-40314571D01*
X84732714Y-40409809D01*
X84732714Y-40647904D01*
X84685095Y-40743142D01*
X84637476Y-40790761D01*
X84542238Y-40838380D01*
X84304142Y-40838380D01*
X84208904Y-40790761D01*
X84161285Y-40743142D01*
X89622333Y-40743142D02*
X89574714Y-40790761D01*
X89431857Y-40838380D01*
X89336619Y-40838380D01*
X89193761Y-40790761D01*
X89098523Y-40695523D01*
X89050904Y-40600285D01*
X89003285Y-40409809D01*
X89003285Y-40266952D01*
X89050904Y-40076476D01*
X89098523Y-39981238D01*
X89193761Y-39886000D01*
X89336619Y-39838380D01*
X89431857Y-39838380D01*
X89574714Y-39886000D01*
X89622333Y-39933619D01*
X90479476Y-39838380D02*
X90289000Y-39838380D01*
X90193761Y-39886000D01*
X90146142Y-39933619D01*
X90050904Y-40076476D01*
X90003285Y-40266952D01*
X90003285Y-40647904D01*
X90050904Y-40743142D01*
X90098523Y-40790761D01*
X90193761Y-40838380D01*
X90384238Y-40838380D01*
X90479476Y-40790761D01*
X90527095Y-40743142D01*
X90574714Y-40647904D01*
X90574714Y-40409809D01*
X90527095Y-40314571D01*
X90479476Y-40266952D01*
X90384238Y-40219333D01*
X90193761Y-40219333D01*
X90098523Y-40266952D01*
X90050904Y-40314571D01*
X90003285Y-40409809D01*
X72477333Y-56745142D02*
X72429714Y-56792761D01*
X72286857Y-56840380D01*
X72191619Y-56840380D01*
X72048761Y-56792761D01*
X71953523Y-56697523D01*
X71905904Y-56602285D01*
X71858285Y-56411809D01*
X71858285Y-56268952D01*
X71905904Y-56078476D01*
X71953523Y-55983238D01*
X72048761Y-55888000D01*
X72191619Y-55840380D01*
X72286857Y-55840380D01*
X72429714Y-55888000D01*
X72477333Y-55935619D01*
X72858285Y-55935619D02*
X72905904Y-55888000D01*
X73001142Y-55840380D01*
X73239238Y-55840380D01*
X73334476Y-55888000D01*
X73382095Y-55935619D01*
X73429714Y-56030857D01*
X73429714Y-56126095D01*
X73382095Y-56268952D01*
X72810666Y-56840380D01*
X73429714Y-56840380D01*
X75104666Y-39330380D02*
X75104666Y-40044666D01*
X75057047Y-40187523D01*
X74961809Y-40282761D01*
X74818952Y-40330380D01*
X74723714Y-40330380D01*
X76104666Y-40330380D02*
X75533238Y-40330380D01*
X75818952Y-40330380D02*
X75818952Y-39330380D01*
X75723714Y-39473238D01*
X75628476Y-39568476D01*
X75533238Y-39616095D01*
M02*
