G04 #@! TF.GenerationSoftware,KiCad,Pcbnew,(5.1.4)-1*
G04 #@! TF.CreationDate,2020-03-10T20:28:57-04:00*
G04 #@! TF.ProjectId,Torchic,546f7263-6869-4632-9e6b-696361645f70,rev?*
G04 #@! TF.SameCoordinates,Original*
G04 #@! TF.FileFunction,Legend,Bot*
G04 #@! TF.FilePolarity,Positive*
%FSLAX46Y46*%
G04 Gerber Fmt 4.6, Leading zero omitted, Abs format (unit mm)*
G04 Created by KiCad (PCBNEW (5.1.4)-1) date 2020-03-10 20:28:57*
%MOMM*%
%LPD*%
G04 APERTURE LIST*
%ADD10C,0.120000*%
%ADD11C,0.150000*%
G04 APERTURE END LIST*
D10*
X80443000Y-44085252D02*
X80443000Y-43562748D01*
X81863000Y-44085252D02*
X81863000Y-43562748D01*
X87764252Y-47065000D02*
X87241748Y-47065000D01*
X87764252Y-45645000D02*
X87241748Y-45645000D01*
X92213000Y-53867000D02*
X86203000Y-53867000D01*
X89963000Y-60687000D02*
X86203000Y-60687000D01*
X86203000Y-53867000D02*
X86203000Y-55127000D01*
X86203000Y-60687000D02*
X86203000Y-59427000D01*
X89473000Y-52979000D02*
X86023000Y-52979000D01*
X89473000Y-52979000D02*
X91423000Y-52979000D01*
X89473000Y-47859000D02*
X87523000Y-47859000D01*
X89473000Y-47859000D02*
X91423000Y-47859000D01*
X82230000Y-53867000D02*
X76220000Y-53867000D01*
X79980000Y-60687000D02*
X76220000Y-60687000D01*
X76220000Y-53867000D02*
X76220000Y-55127000D01*
X76220000Y-60687000D02*
X76220000Y-59427000D01*
D11*
X81319666Y-41727380D02*
X81653000Y-41251190D01*
X81891095Y-41727380D02*
X81891095Y-40727380D01*
X81510142Y-40727380D01*
X81414904Y-40775000D01*
X81367285Y-40822619D01*
X81319666Y-40917857D01*
X81319666Y-41060714D01*
X81367285Y-41155952D01*
X81414904Y-41203571D01*
X81510142Y-41251190D01*
X81891095Y-41251190D01*
X80367285Y-41727380D02*
X80938714Y-41727380D01*
X80653000Y-41727380D02*
X80653000Y-40727380D01*
X80748238Y-40870238D01*
X80843476Y-40965476D01*
X80938714Y-41013095D01*
X87669666Y-45062142D02*
X87717285Y-45109761D01*
X87860142Y-45157380D01*
X87955380Y-45157380D01*
X88098238Y-45109761D01*
X88193476Y-45014523D01*
X88241095Y-44919285D01*
X88288714Y-44728809D01*
X88288714Y-44585952D01*
X88241095Y-44395476D01*
X88193476Y-44300238D01*
X88098238Y-44205000D01*
X87955380Y-44157380D01*
X87860142Y-44157380D01*
X87717285Y-44205000D01*
X87669666Y-44252619D01*
X87193476Y-45157380D02*
X87003000Y-45157380D01*
X86907761Y-45109761D01*
X86860142Y-45062142D01*
X86764904Y-44919285D01*
X86717285Y-44728809D01*
X86717285Y-44347857D01*
X86764904Y-44252619D01*
X86812523Y-44205000D01*
X86907761Y-44157380D01*
X87098238Y-44157380D01*
X87193476Y-44205000D01*
X87241095Y-44252619D01*
X87288714Y-44347857D01*
X87288714Y-44585952D01*
X87241095Y-44681190D01*
X87193476Y-44728809D01*
X87098238Y-44776428D01*
X86907761Y-44776428D01*
X86812523Y-44728809D01*
X86764904Y-44681190D01*
X86717285Y-44585952D01*
X85216904Y-52538380D02*
X85216904Y-53347904D01*
X85169285Y-53443142D01*
X85121666Y-53490761D01*
X85026428Y-53538380D01*
X84835952Y-53538380D01*
X84740714Y-53490761D01*
X84693095Y-53443142D01*
X84645476Y-53347904D01*
X84645476Y-52538380D01*
X84264523Y-52538380D02*
X83645476Y-52538380D01*
X83978809Y-52919333D01*
X83835952Y-52919333D01*
X83740714Y-52966952D01*
X83693095Y-53014571D01*
X83645476Y-53109809D01*
X83645476Y-53347904D01*
X83693095Y-53443142D01*
X83740714Y-53490761D01*
X83835952Y-53538380D01*
X84121666Y-53538380D01*
X84216904Y-53490761D01*
X84264523Y-53443142D01*
X87375904Y-46442380D02*
X87375904Y-47251904D01*
X87328285Y-47347142D01*
X87280666Y-47394761D01*
X87185428Y-47442380D01*
X86994952Y-47442380D01*
X86899714Y-47394761D01*
X86852095Y-47347142D01*
X86804476Y-47251904D01*
X86804476Y-46442380D01*
X86375904Y-46537619D02*
X86328285Y-46490000D01*
X86233047Y-46442380D01*
X85994952Y-46442380D01*
X85899714Y-46490000D01*
X85852095Y-46537619D01*
X85804476Y-46632857D01*
X85804476Y-46728095D01*
X85852095Y-46870952D01*
X86423523Y-47442380D01*
X85804476Y-47442380D01*
X75310904Y-52538380D02*
X75310904Y-53347904D01*
X75263285Y-53443142D01*
X75215666Y-53490761D01*
X75120428Y-53538380D01*
X74929952Y-53538380D01*
X74834714Y-53490761D01*
X74787095Y-53443142D01*
X74739476Y-53347904D01*
X74739476Y-52538380D01*
X73834714Y-52871714D02*
X73834714Y-53538380D01*
X74072809Y-52490761D02*
X74310904Y-53205047D01*
X73691857Y-53205047D01*
M02*
