G04 #@! TF.GenerationSoftware,KiCad,Pcbnew,(5.1.4)-1*
G04 #@! TF.CreationDate,2020-03-10T20:28:57-04:00*
G04 #@! TF.ProjectId,Torchic,546f7263-6869-4632-9e6b-696361645f70,rev?*
G04 #@! TF.SameCoordinates,Original*
G04 #@! TF.FileFunction,Paste,Bot*
G04 #@! TF.FilePolarity,Positive*
%FSLAX46Y46*%
G04 Gerber Fmt 4.6, Leading zero omitted, Abs format (unit mm)*
G04 Created by KiCad (PCBNEW (5.1.4)-1) date 2020-03-10 20:28:57*
%MOMM*%
%LPD*%
G04 APERTURE LIST*
%ADD10C,0.100000*%
%ADD11C,1.150000*%
%ADD12R,2.000000X1.500000*%
%ADD13R,2.000000X3.800000*%
%ADD14C,0.600000*%
G04 APERTURE END LIST*
D10*
G36*
X81627505Y-42225204D02*
G01*
X81651773Y-42228804D01*
X81675572Y-42234765D01*
X81698671Y-42243030D01*
X81720850Y-42253520D01*
X81741893Y-42266132D01*
X81761599Y-42280747D01*
X81779777Y-42297223D01*
X81796253Y-42315401D01*
X81810868Y-42335107D01*
X81823480Y-42356150D01*
X81833970Y-42378329D01*
X81842235Y-42401428D01*
X81848196Y-42425227D01*
X81851796Y-42449495D01*
X81853000Y-42473999D01*
X81853000Y-43124001D01*
X81851796Y-43148505D01*
X81848196Y-43172773D01*
X81842235Y-43196572D01*
X81833970Y-43219671D01*
X81823480Y-43241850D01*
X81810868Y-43262893D01*
X81796253Y-43282599D01*
X81779777Y-43300777D01*
X81761599Y-43317253D01*
X81741893Y-43331868D01*
X81720850Y-43344480D01*
X81698671Y-43354970D01*
X81675572Y-43363235D01*
X81651773Y-43369196D01*
X81627505Y-43372796D01*
X81603001Y-43374000D01*
X80702999Y-43374000D01*
X80678495Y-43372796D01*
X80654227Y-43369196D01*
X80630428Y-43363235D01*
X80607329Y-43354970D01*
X80585150Y-43344480D01*
X80564107Y-43331868D01*
X80544401Y-43317253D01*
X80526223Y-43300777D01*
X80509747Y-43282599D01*
X80495132Y-43262893D01*
X80482520Y-43241850D01*
X80472030Y-43219671D01*
X80463765Y-43196572D01*
X80457804Y-43172773D01*
X80454204Y-43148505D01*
X80453000Y-43124001D01*
X80453000Y-42473999D01*
X80454204Y-42449495D01*
X80457804Y-42425227D01*
X80463765Y-42401428D01*
X80472030Y-42378329D01*
X80482520Y-42356150D01*
X80495132Y-42335107D01*
X80509747Y-42315401D01*
X80526223Y-42297223D01*
X80544401Y-42280747D01*
X80564107Y-42266132D01*
X80585150Y-42253520D01*
X80607329Y-42243030D01*
X80630428Y-42234765D01*
X80654227Y-42228804D01*
X80678495Y-42225204D01*
X80702999Y-42224000D01*
X81603001Y-42224000D01*
X81627505Y-42225204D01*
X81627505Y-42225204D01*
G37*
D11*
X81153000Y-42799000D03*
D10*
G36*
X81627505Y-44275204D02*
G01*
X81651773Y-44278804D01*
X81675572Y-44284765D01*
X81698671Y-44293030D01*
X81720850Y-44303520D01*
X81741893Y-44316132D01*
X81761599Y-44330747D01*
X81779777Y-44347223D01*
X81796253Y-44365401D01*
X81810868Y-44385107D01*
X81823480Y-44406150D01*
X81833970Y-44428329D01*
X81842235Y-44451428D01*
X81848196Y-44475227D01*
X81851796Y-44499495D01*
X81853000Y-44523999D01*
X81853000Y-45174001D01*
X81851796Y-45198505D01*
X81848196Y-45222773D01*
X81842235Y-45246572D01*
X81833970Y-45269671D01*
X81823480Y-45291850D01*
X81810868Y-45312893D01*
X81796253Y-45332599D01*
X81779777Y-45350777D01*
X81761599Y-45367253D01*
X81741893Y-45381868D01*
X81720850Y-45394480D01*
X81698671Y-45404970D01*
X81675572Y-45413235D01*
X81651773Y-45419196D01*
X81627505Y-45422796D01*
X81603001Y-45424000D01*
X80702999Y-45424000D01*
X80678495Y-45422796D01*
X80654227Y-45419196D01*
X80630428Y-45413235D01*
X80607329Y-45404970D01*
X80585150Y-45394480D01*
X80564107Y-45381868D01*
X80544401Y-45367253D01*
X80526223Y-45350777D01*
X80509747Y-45332599D01*
X80495132Y-45312893D01*
X80482520Y-45291850D01*
X80472030Y-45269671D01*
X80463765Y-45246572D01*
X80457804Y-45222773D01*
X80454204Y-45198505D01*
X80453000Y-45174001D01*
X80453000Y-44523999D01*
X80454204Y-44499495D01*
X80457804Y-44475227D01*
X80463765Y-44451428D01*
X80472030Y-44428329D01*
X80482520Y-44406150D01*
X80495132Y-44385107D01*
X80509747Y-44365401D01*
X80526223Y-44347223D01*
X80544401Y-44330747D01*
X80564107Y-44316132D01*
X80585150Y-44303520D01*
X80607329Y-44293030D01*
X80630428Y-44284765D01*
X80654227Y-44278804D01*
X80678495Y-44275204D01*
X80702999Y-44274000D01*
X81603001Y-44274000D01*
X81627505Y-44275204D01*
X81627505Y-44275204D01*
G37*
D11*
X81153000Y-44849000D03*
D10*
G36*
X86827505Y-45656204D02*
G01*
X86851773Y-45659804D01*
X86875572Y-45665765D01*
X86898671Y-45674030D01*
X86920850Y-45684520D01*
X86941893Y-45697132D01*
X86961599Y-45711747D01*
X86979777Y-45728223D01*
X86996253Y-45746401D01*
X87010868Y-45766107D01*
X87023480Y-45787150D01*
X87033970Y-45809329D01*
X87042235Y-45832428D01*
X87048196Y-45856227D01*
X87051796Y-45880495D01*
X87053000Y-45904999D01*
X87053000Y-46805001D01*
X87051796Y-46829505D01*
X87048196Y-46853773D01*
X87042235Y-46877572D01*
X87033970Y-46900671D01*
X87023480Y-46922850D01*
X87010868Y-46943893D01*
X86996253Y-46963599D01*
X86979777Y-46981777D01*
X86961599Y-46998253D01*
X86941893Y-47012868D01*
X86920850Y-47025480D01*
X86898671Y-47035970D01*
X86875572Y-47044235D01*
X86851773Y-47050196D01*
X86827505Y-47053796D01*
X86803001Y-47055000D01*
X86152999Y-47055000D01*
X86128495Y-47053796D01*
X86104227Y-47050196D01*
X86080428Y-47044235D01*
X86057329Y-47035970D01*
X86035150Y-47025480D01*
X86014107Y-47012868D01*
X85994401Y-46998253D01*
X85976223Y-46981777D01*
X85959747Y-46963599D01*
X85945132Y-46943893D01*
X85932520Y-46922850D01*
X85922030Y-46900671D01*
X85913765Y-46877572D01*
X85907804Y-46853773D01*
X85904204Y-46829505D01*
X85903000Y-46805001D01*
X85903000Y-45904999D01*
X85904204Y-45880495D01*
X85907804Y-45856227D01*
X85913765Y-45832428D01*
X85922030Y-45809329D01*
X85932520Y-45787150D01*
X85945132Y-45766107D01*
X85959747Y-45746401D01*
X85976223Y-45728223D01*
X85994401Y-45711747D01*
X86014107Y-45697132D01*
X86035150Y-45684520D01*
X86057329Y-45674030D01*
X86080428Y-45665765D01*
X86104227Y-45659804D01*
X86128495Y-45656204D01*
X86152999Y-45655000D01*
X86803001Y-45655000D01*
X86827505Y-45656204D01*
X86827505Y-45656204D01*
G37*
D11*
X86478000Y-46355000D03*
D10*
G36*
X88877505Y-45656204D02*
G01*
X88901773Y-45659804D01*
X88925572Y-45665765D01*
X88948671Y-45674030D01*
X88970850Y-45684520D01*
X88991893Y-45697132D01*
X89011599Y-45711747D01*
X89029777Y-45728223D01*
X89046253Y-45746401D01*
X89060868Y-45766107D01*
X89073480Y-45787150D01*
X89083970Y-45809329D01*
X89092235Y-45832428D01*
X89098196Y-45856227D01*
X89101796Y-45880495D01*
X89103000Y-45904999D01*
X89103000Y-46805001D01*
X89101796Y-46829505D01*
X89098196Y-46853773D01*
X89092235Y-46877572D01*
X89083970Y-46900671D01*
X89073480Y-46922850D01*
X89060868Y-46943893D01*
X89046253Y-46963599D01*
X89029777Y-46981777D01*
X89011599Y-46998253D01*
X88991893Y-47012868D01*
X88970850Y-47025480D01*
X88948671Y-47035970D01*
X88925572Y-47044235D01*
X88901773Y-47050196D01*
X88877505Y-47053796D01*
X88853001Y-47055000D01*
X88202999Y-47055000D01*
X88178495Y-47053796D01*
X88154227Y-47050196D01*
X88130428Y-47044235D01*
X88107329Y-47035970D01*
X88085150Y-47025480D01*
X88064107Y-47012868D01*
X88044401Y-46998253D01*
X88026223Y-46981777D01*
X88009747Y-46963599D01*
X87995132Y-46943893D01*
X87982520Y-46922850D01*
X87972030Y-46900671D01*
X87963765Y-46877572D01*
X87957804Y-46853773D01*
X87954204Y-46829505D01*
X87953000Y-46805001D01*
X87953000Y-45904999D01*
X87954204Y-45880495D01*
X87957804Y-45856227D01*
X87963765Y-45832428D01*
X87972030Y-45809329D01*
X87982520Y-45787150D01*
X87995132Y-45766107D01*
X88009747Y-45746401D01*
X88026223Y-45728223D01*
X88044401Y-45711747D01*
X88064107Y-45697132D01*
X88085150Y-45684520D01*
X88107329Y-45674030D01*
X88130428Y-45665765D01*
X88154227Y-45659804D01*
X88178495Y-45656204D01*
X88202999Y-45655000D01*
X88853001Y-45655000D01*
X88877505Y-45656204D01*
X88877505Y-45656204D01*
G37*
D11*
X88528000Y-46355000D03*
D12*
X91263000Y-54977000D03*
X91263000Y-59577000D03*
X91263000Y-57277000D03*
D13*
X84963000Y-57277000D03*
D10*
G36*
X92787703Y-52024722D02*
G01*
X92802264Y-52026882D01*
X92816543Y-52030459D01*
X92830403Y-52035418D01*
X92843710Y-52041712D01*
X92856336Y-52049280D01*
X92868159Y-52058048D01*
X92879066Y-52067934D01*
X92888952Y-52078841D01*
X92897720Y-52090664D01*
X92905288Y-52103290D01*
X92911582Y-52116597D01*
X92916541Y-52130457D01*
X92920118Y-52144736D01*
X92922278Y-52159297D01*
X92923000Y-52174000D01*
X92923000Y-52474000D01*
X92922278Y-52488703D01*
X92920118Y-52503264D01*
X92916541Y-52517543D01*
X92911582Y-52531403D01*
X92905288Y-52544710D01*
X92897720Y-52557336D01*
X92888952Y-52569159D01*
X92879066Y-52580066D01*
X92868159Y-52589952D01*
X92856336Y-52598720D01*
X92843710Y-52606288D01*
X92830403Y-52612582D01*
X92816543Y-52617541D01*
X92802264Y-52621118D01*
X92787703Y-52623278D01*
X92773000Y-52624000D01*
X91123000Y-52624000D01*
X91108297Y-52623278D01*
X91093736Y-52621118D01*
X91079457Y-52617541D01*
X91065597Y-52612582D01*
X91052290Y-52606288D01*
X91039664Y-52598720D01*
X91027841Y-52589952D01*
X91016934Y-52580066D01*
X91007048Y-52569159D01*
X90998280Y-52557336D01*
X90990712Y-52544710D01*
X90984418Y-52531403D01*
X90979459Y-52517543D01*
X90975882Y-52503264D01*
X90973722Y-52488703D01*
X90973000Y-52474000D01*
X90973000Y-52174000D01*
X90973722Y-52159297D01*
X90975882Y-52144736D01*
X90979459Y-52130457D01*
X90984418Y-52116597D01*
X90990712Y-52103290D01*
X90998280Y-52090664D01*
X91007048Y-52078841D01*
X91016934Y-52067934D01*
X91027841Y-52058048D01*
X91039664Y-52049280D01*
X91052290Y-52041712D01*
X91065597Y-52035418D01*
X91079457Y-52030459D01*
X91093736Y-52026882D01*
X91108297Y-52024722D01*
X91123000Y-52024000D01*
X92773000Y-52024000D01*
X92787703Y-52024722D01*
X92787703Y-52024722D01*
G37*
D14*
X91948000Y-52324000D03*
D10*
G36*
X92787703Y-50754722D02*
G01*
X92802264Y-50756882D01*
X92816543Y-50760459D01*
X92830403Y-50765418D01*
X92843710Y-50771712D01*
X92856336Y-50779280D01*
X92868159Y-50788048D01*
X92879066Y-50797934D01*
X92888952Y-50808841D01*
X92897720Y-50820664D01*
X92905288Y-50833290D01*
X92911582Y-50846597D01*
X92916541Y-50860457D01*
X92920118Y-50874736D01*
X92922278Y-50889297D01*
X92923000Y-50904000D01*
X92923000Y-51204000D01*
X92922278Y-51218703D01*
X92920118Y-51233264D01*
X92916541Y-51247543D01*
X92911582Y-51261403D01*
X92905288Y-51274710D01*
X92897720Y-51287336D01*
X92888952Y-51299159D01*
X92879066Y-51310066D01*
X92868159Y-51319952D01*
X92856336Y-51328720D01*
X92843710Y-51336288D01*
X92830403Y-51342582D01*
X92816543Y-51347541D01*
X92802264Y-51351118D01*
X92787703Y-51353278D01*
X92773000Y-51354000D01*
X91123000Y-51354000D01*
X91108297Y-51353278D01*
X91093736Y-51351118D01*
X91079457Y-51347541D01*
X91065597Y-51342582D01*
X91052290Y-51336288D01*
X91039664Y-51328720D01*
X91027841Y-51319952D01*
X91016934Y-51310066D01*
X91007048Y-51299159D01*
X90998280Y-51287336D01*
X90990712Y-51274710D01*
X90984418Y-51261403D01*
X90979459Y-51247543D01*
X90975882Y-51233264D01*
X90973722Y-51218703D01*
X90973000Y-51204000D01*
X90973000Y-50904000D01*
X90973722Y-50889297D01*
X90975882Y-50874736D01*
X90979459Y-50860457D01*
X90984418Y-50846597D01*
X90990712Y-50833290D01*
X90998280Y-50820664D01*
X91007048Y-50808841D01*
X91016934Y-50797934D01*
X91027841Y-50788048D01*
X91039664Y-50779280D01*
X91052290Y-50771712D01*
X91065597Y-50765418D01*
X91079457Y-50760459D01*
X91093736Y-50756882D01*
X91108297Y-50754722D01*
X91123000Y-50754000D01*
X92773000Y-50754000D01*
X92787703Y-50754722D01*
X92787703Y-50754722D01*
G37*
D14*
X91948000Y-51054000D03*
D10*
G36*
X92787703Y-49484722D02*
G01*
X92802264Y-49486882D01*
X92816543Y-49490459D01*
X92830403Y-49495418D01*
X92843710Y-49501712D01*
X92856336Y-49509280D01*
X92868159Y-49518048D01*
X92879066Y-49527934D01*
X92888952Y-49538841D01*
X92897720Y-49550664D01*
X92905288Y-49563290D01*
X92911582Y-49576597D01*
X92916541Y-49590457D01*
X92920118Y-49604736D01*
X92922278Y-49619297D01*
X92923000Y-49634000D01*
X92923000Y-49934000D01*
X92922278Y-49948703D01*
X92920118Y-49963264D01*
X92916541Y-49977543D01*
X92911582Y-49991403D01*
X92905288Y-50004710D01*
X92897720Y-50017336D01*
X92888952Y-50029159D01*
X92879066Y-50040066D01*
X92868159Y-50049952D01*
X92856336Y-50058720D01*
X92843710Y-50066288D01*
X92830403Y-50072582D01*
X92816543Y-50077541D01*
X92802264Y-50081118D01*
X92787703Y-50083278D01*
X92773000Y-50084000D01*
X91123000Y-50084000D01*
X91108297Y-50083278D01*
X91093736Y-50081118D01*
X91079457Y-50077541D01*
X91065597Y-50072582D01*
X91052290Y-50066288D01*
X91039664Y-50058720D01*
X91027841Y-50049952D01*
X91016934Y-50040066D01*
X91007048Y-50029159D01*
X90998280Y-50017336D01*
X90990712Y-50004710D01*
X90984418Y-49991403D01*
X90979459Y-49977543D01*
X90975882Y-49963264D01*
X90973722Y-49948703D01*
X90973000Y-49934000D01*
X90973000Y-49634000D01*
X90973722Y-49619297D01*
X90975882Y-49604736D01*
X90979459Y-49590457D01*
X90984418Y-49576597D01*
X90990712Y-49563290D01*
X90998280Y-49550664D01*
X91007048Y-49538841D01*
X91016934Y-49527934D01*
X91027841Y-49518048D01*
X91039664Y-49509280D01*
X91052290Y-49501712D01*
X91065597Y-49495418D01*
X91079457Y-49490459D01*
X91093736Y-49486882D01*
X91108297Y-49484722D01*
X91123000Y-49484000D01*
X92773000Y-49484000D01*
X92787703Y-49484722D01*
X92787703Y-49484722D01*
G37*
D14*
X91948000Y-49784000D03*
D10*
G36*
X92787703Y-48214722D02*
G01*
X92802264Y-48216882D01*
X92816543Y-48220459D01*
X92830403Y-48225418D01*
X92843710Y-48231712D01*
X92856336Y-48239280D01*
X92868159Y-48248048D01*
X92879066Y-48257934D01*
X92888952Y-48268841D01*
X92897720Y-48280664D01*
X92905288Y-48293290D01*
X92911582Y-48306597D01*
X92916541Y-48320457D01*
X92920118Y-48334736D01*
X92922278Y-48349297D01*
X92923000Y-48364000D01*
X92923000Y-48664000D01*
X92922278Y-48678703D01*
X92920118Y-48693264D01*
X92916541Y-48707543D01*
X92911582Y-48721403D01*
X92905288Y-48734710D01*
X92897720Y-48747336D01*
X92888952Y-48759159D01*
X92879066Y-48770066D01*
X92868159Y-48779952D01*
X92856336Y-48788720D01*
X92843710Y-48796288D01*
X92830403Y-48802582D01*
X92816543Y-48807541D01*
X92802264Y-48811118D01*
X92787703Y-48813278D01*
X92773000Y-48814000D01*
X91123000Y-48814000D01*
X91108297Y-48813278D01*
X91093736Y-48811118D01*
X91079457Y-48807541D01*
X91065597Y-48802582D01*
X91052290Y-48796288D01*
X91039664Y-48788720D01*
X91027841Y-48779952D01*
X91016934Y-48770066D01*
X91007048Y-48759159D01*
X90998280Y-48747336D01*
X90990712Y-48734710D01*
X90984418Y-48721403D01*
X90979459Y-48707543D01*
X90975882Y-48693264D01*
X90973722Y-48678703D01*
X90973000Y-48664000D01*
X90973000Y-48364000D01*
X90973722Y-48349297D01*
X90975882Y-48334736D01*
X90979459Y-48320457D01*
X90984418Y-48306597D01*
X90990712Y-48293290D01*
X90998280Y-48280664D01*
X91007048Y-48268841D01*
X91016934Y-48257934D01*
X91027841Y-48248048D01*
X91039664Y-48239280D01*
X91052290Y-48231712D01*
X91065597Y-48225418D01*
X91079457Y-48220459D01*
X91093736Y-48216882D01*
X91108297Y-48214722D01*
X91123000Y-48214000D01*
X92773000Y-48214000D01*
X92787703Y-48214722D01*
X92787703Y-48214722D01*
G37*
D14*
X91948000Y-48514000D03*
D10*
G36*
X87837703Y-48214722D02*
G01*
X87852264Y-48216882D01*
X87866543Y-48220459D01*
X87880403Y-48225418D01*
X87893710Y-48231712D01*
X87906336Y-48239280D01*
X87918159Y-48248048D01*
X87929066Y-48257934D01*
X87938952Y-48268841D01*
X87947720Y-48280664D01*
X87955288Y-48293290D01*
X87961582Y-48306597D01*
X87966541Y-48320457D01*
X87970118Y-48334736D01*
X87972278Y-48349297D01*
X87973000Y-48364000D01*
X87973000Y-48664000D01*
X87972278Y-48678703D01*
X87970118Y-48693264D01*
X87966541Y-48707543D01*
X87961582Y-48721403D01*
X87955288Y-48734710D01*
X87947720Y-48747336D01*
X87938952Y-48759159D01*
X87929066Y-48770066D01*
X87918159Y-48779952D01*
X87906336Y-48788720D01*
X87893710Y-48796288D01*
X87880403Y-48802582D01*
X87866543Y-48807541D01*
X87852264Y-48811118D01*
X87837703Y-48813278D01*
X87823000Y-48814000D01*
X86173000Y-48814000D01*
X86158297Y-48813278D01*
X86143736Y-48811118D01*
X86129457Y-48807541D01*
X86115597Y-48802582D01*
X86102290Y-48796288D01*
X86089664Y-48788720D01*
X86077841Y-48779952D01*
X86066934Y-48770066D01*
X86057048Y-48759159D01*
X86048280Y-48747336D01*
X86040712Y-48734710D01*
X86034418Y-48721403D01*
X86029459Y-48707543D01*
X86025882Y-48693264D01*
X86023722Y-48678703D01*
X86023000Y-48664000D01*
X86023000Y-48364000D01*
X86023722Y-48349297D01*
X86025882Y-48334736D01*
X86029459Y-48320457D01*
X86034418Y-48306597D01*
X86040712Y-48293290D01*
X86048280Y-48280664D01*
X86057048Y-48268841D01*
X86066934Y-48257934D01*
X86077841Y-48248048D01*
X86089664Y-48239280D01*
X86102290Y-48231712D01*
X86115597Y-48225418D01*
X86129457Y-48220459D01*
X86143736Y-48216882D01*
X86158297Y-48214722D01*
X86173000Y-48214000D01*
X87823000Y-48214000D01*
X87837703Y-48214722D01*
X87837703Y-48214722D01*
G37*
D14*
X86998000Y-48514000D03*
D10*
G36*
X87837703Y-49484722D02*
G01*
X87852264Y-49486882D01*
X87866543Y-49490459D01*
X87880403Y-49495418D01*
X87893710Y-49501712D01*
X87906336Y-49509280D01*
X87918159Y-49518048D01*
X87929066Y-49527934D01*
X87938952Y-49538841D01*
X87947720Y-49550664D01*
X87955288Y-49563290D01*
X87961582Y-49576597D01*
X87966541Y-49590457D01*
X87970118Y-49604736D01*
X87972278Y-49619297D01*
X87973000Y-49634000D01*
X87973000Y-49934000D01*
X87972278Y-49948703D01*
X87970118Y-49963264D01*
X87966541Y-49977543D01*
X87961582Y-49991403D01*
X87955288Y-50004710D01*
X87947720Y-50017336D01*
X87938952Y-50029159D01*
X87929066Y-50040066D01*
X87918159Y-50049952D01*
X87906336Y-50058720D01*
X87893710Y-50066288D01*
X87880403Y-50072582D01*
X87866543Y-50077541D01*
X87852264Y-50081118D01*
X87837703Y-50083278D01*
X87823000Y-50084000D01*
X86173000Y-50084000D01*
X86158297Y-50083278D01*
X86143736Y-50081118D01*
X86129457Y-50077541D01*
X86115597Y-50072582D01*
X86102290Y-50066288D01*
X86089664Y-50058720D01*
X86077841Y-50049952D01*
X86066934Y-50040066D01*
X86057048Y-50029159D01*
X86048280Y-50017336D01*
X86040712Y-50004710D01*
X86034418Y-49991403D01*
X86029459Y-49977543D01*
X86025882Y-49963264D01*
X86023722Y-49948703D01*
X86023000Y-49934000D01*
X86023000Y-49634000D01*
X86023722Y-49619297D01*
X86025882Y-49604736D01*
X86029459Y-49590457D01*
X86034418Y-49576597D01*
X86040712Y-49563290D01*
X86048280Y-49550664D01*
X86057048Y-49538841D01*
X86066934Y-49527934D01*
X86077841Y-49518048D01*
X86089664Y-49509280D01*
X86102290Y-49501712D01*
X86115597Y-49495418D01*
X86129457Y-49490459D01*
X86143736Y-49486882D01*
X86158297Y-49484722D01*
X86173000Y-49484000D01*
X87823000Y-49484000D01*
X87837703Y-49484722D01*
X87837703Y-49484722D01*
G37*
D14*
X86998000Y-49784000D03*
D10*
G36*
X87837703Y-50754722D02*
G01*
X87852264Y-50756882D01*
X87866543Y-50760459D01*
X87880403Y-50765418D01*
X87893710Y-50771712D01*
X87906336Y-50779280D01*
X87918159Y-50788048D01*
X87929066Y-50797934D01*
X87938952Y-50808841D01*
X87947720Y-50820664D01*
X87955288Y-50833290D01*
X87961582Y-50846597D01*
X87966541Y-50860457D01*
X87970118Y-50874736D01*
X87972278Y-50889297D01*
X87973000Y-50904000D01*
X87973000Y-51204000D01*
X87972278Y-51218703D01*
X87970118Y-51233264D01*
X87966541Y-51247543D01*
X87961582Y-51261403D01*
X87955288Y-51274710D01*
X87947720Y-51287336D01*
X87938952Y-51299159D01*
X87929066Y-51310066D01*
X87918159Y-51319952D01*
X87906336Y-51328720D01*
X87893710Y-51336288D01*
X87880403Y-51342582D01*
X87866543Y-51347541D01*
X87852264Y-51351118D01*
X87837703Y-51353278D01*
X87823000Y-51354000D01*
X86173000Y-51354000D01*
X86158297Y-51353278D01*
X86143736Y-51351118D01*
X86129457Y-51347541D01*
X86115597Y-51342582D01*
X86102290Y-51336288D01*
X86089664Y-51328720D01*
X86077841Y-51319952D01*
X86066934Y-51310066D01*
X86057048Y-51299159D01*
X86048280Y-51287336D01*
X86040712Y-51274710D01*
X86034418Y-51261403D01*
X86029459Y-51247543D01*
X86025882Y-51233264D01*
X86023722Y-51218703D01*
X86023000Y-51204000D01*
X86023000Y-50904000D01*
X86023722Y-50889297D01*
X86025882Y-50874736D01*
X86029459Y-50860457D01*
X86034418Y-50846597D01*
X86040712Y-50833290D01*
X86048280Y-50820664D01*
X86057048Y-50808841D01*
X86066934Y-50797934D01*
X86077841Y-50788048D01*
X86089664Y-50779280D01*
X86102290Y-50771712D01*
X86115597Y-50765418D01*
X86129457Y-50760459D01*
X86143736Y-50756882D01*
X86158297Y-50754722D01*
X86173000Y-50754000D01*
X87823000Y-50754000D01*
X87837703Y-50754722D01*
X87837703Y-50754722D01*
G37*
D14*
X86998000Y-51054000D03*
D10*
G36*
X87837703Y-52024722D02*
G01*
X87852264Y-52026882D01*
X87866543Y-52030459D01*
X87880403Y-52035418D01*
X87893710Y-52041712D01*
X87906336Y-52049280D01*
X87918159Y-52058048D01*
X87929066Y-52067934D01*
X87938952Y-52078841D01*
X87947720Y-52090664D01*
X87955288Y-52103290D01*
X87961582Y-52116597D01*
X87966541Y-52130457D01*
X87970118Y-52144736D01*
X87972278Y-52159297D01*
X87973000Y-52174000D01*
X87973000Y-52474000D01*
X87972278Y-52488703D01*
X87970118Y-52503264D01*
X87966541Y-52517543D01*
X87961582Y-52531403D01*
X87955288Y-52544710D01*
X87947720Y-52557336D01*
X87938952Y-52569159D01*
X87929066Y-52580066D01*
X87918159Y-52589952D01*
X87906336Y-52598720D01*
X87893710Y-52606288D01*
X87880403Y-52612582D01*
X87866543Y-52617541D01*
X87852264Y-52621118D01*
X87837703Y-52623278D01*
X87823000Y-52624000D01*
X86173000Y-52624000D01*
X86158297Y-52623278D01*
X86143736Y-52621118D01*
X86129457Y-52617541D01*
X86115597Y-52612582D01*
X86102290Y-52606288D01*
X86089664Y-52598720D01*
X86077841Y-52589952D01*
X86066934Y-52580066D01*
X86057048Y-52569159D01*
X86048280Y-52557336D01*
X86040712Y-52544710D01*
X86034418Y-52531403D01*
X86029459Y-52517543D01*
X86025882Y-52503264D01*
X86023722Y-52488703D01*
X86023000Y-52474000D01*
X86023000Y-52174000D01*
X86023722Y-52159297D01*
X86025882Y-52144736D01*
X86029459Y-52130457D01*
X86034418Y-52116597D01*
X86040712Y-52103290D01*
X86048280Y-52090664D01*
X86057048Y-52078841D01*
X86066934Y-52067934D01*
X86077841Y-52058048D01*
X86089664Y-52049280D01*
X86102290Y-52041712D01*
X86115597Y-52035418D01*
X86129457Y-52030459D01*
X86143736Y-52026882D01*
X86158297Y-52024722D01*
X86173000Y-52024000D01*
X87823000Y-52024000D01*
X87837703Y-52024722D01*
X87837703Y-52024722D01*
G37*
D14*
X86998000Y-52324000D03*
D12*
X81280000Y-54977000D03*
X81280000Y-59577000D03*
X81280000Y-57277000D03*
D13*
X74980000Y-57277000D03*
M02*
