G04 #@! TF.GenerationSoftware,KiCad,Pcbnew,(5.1.4)-1*
G04 #@! TF.CreationDate,2020-03-10T20:28:57-04:00*
G04 #@! TF.ProjectId,Torchic,546f7263-6869-4632-9e6b-696361645f70,rev?*
G04 #@! TF.SameCoordinates,Original*
G04 #@! TF.FileFunction,Paste,Top*
G04 #@! TF.FilePolarity,Positive*
%FSLAX46Y46*%
G04 Gerber Fmt 4.6, Leading zero omitted, Abs format (unit mm)*
G04 Created by KiCad (PCBNEW (5.1.4)-1) date 2020-03-10 20:28:57*
%MOMM*%
%LPD*%
G04 APERTURE LIST*
%ADD10R,0.550000X1.600000*%
%ADD11R,1.600000X0.550000*%
%ADD12C,0.100000*%
%ADD13C,1.425000*%
%ADD14R,0.800000X1.500000*%
%ADD15C,0.600000*%
%ADD16C,1.150000*%
G04 APERTURE END LIST*
D10*
X88125000Y-54728000D03*
X87325000Y-54728000D03*
X86525000Y-54728000D03*
X85725000Y-54728000D03*
X84925000Y-54728000D03*
X84125000Y-54728000D03*
X83325000Y-54728000D03*
X82525000Y-54728000D03*
D11*
X81075000Y-53278000D03*
X81075000Y-52478000D03*
X81075000Y-51678000D03*
X81075000Y-50878000D03*
X81075000Y-50078000D03*
X81075000Y-49278000D03*
X81075000Y-48478000D03*
X81075000Y-47678000D03*
D10*
X82525000Y-46228000D03*
X83325000Y-46228000D03*
X84125000Y-46228000D03*
X84925000Y-46228000D03*
X85725000Y-46228000D03*
X86525000Y-46228000D03*
X87325000Y-46228000D03*
X88125000Y-46228000D03*
D11*
X89575000Y-47678000D03*
X89575000Y-48478000D03*
X89575000Y-49278000D03*
X89575000Y-50078000D03*
X89575000Y-50878000D03*
X89575000Y-51678000D03*
X89575000Y-52478000D03*
X89575000Y-53278000D03*
D12*
G36*
X78138004Y-57731204D02*
G01*
X78162273Y-57734804D01*
X78186071Y-57740765D01*
X78209171Y-57749030D01*
X78231349Y-57759520D01*
X78252393Y-57772133D01*
X78272098Y-57786747D01*
X78290277Y-57803223D01*
X78306753Y-57821402D01*
X78321367Y-57841107D01*
X78333980Y-57862151D01*
X78344470Y-57884329D01*
X78352735Y-57907429D01*
X78358696Y-57931227D01*
X78362296Y-57955496D01*
X78363500Y-57980000D01*
X78363500Y-60130000D01*
X78362296Y-60154504D01*
X78358696Y-60178773D01*
X78352735Y-60202571D01*
X78344470Y-60225671D01*
X78333980Y-60247849D01*
X78321367Y-60268893D01*
X78306753Y-60288598D01*
X78290277Y-60306777D01*
X78272098Y-60323253D01*
X78252393Y-60337867D01*
X78231349Y-60350480D01*
X78209171Y-60360970D01*
X78186071Y-60369235D01*
X78162273Y-60375196D01*
X78138004Y-60378796D01*
X78113500Y-60380000D01*
X77188500Y-60380000D01*
X77163996Y-60378796D01*
X77139727Y-60375196D01*
X77115929Y-60369235D01*
X77092829Y-60360970D01*
X77070651Y-60350480D01*
X77049607Y-60337867D01*
X77029902Y-60323253D01*
X77011723Y-60306777D01*
X76995247Y-60288598D01*
X76980633Y-60268893D01*
X76968020Y-60247849D01*
X76957530Y-60225671D01*
X76949265Y-60202571D01*
X76943304Y-60178773D01*
X76939704Y-60154504D01*
X76938500Y-60130000D01*
X76938500Y-57980000D01*
X76939704Y-57955496D01*
X76943304Y-57931227D01*
X76949265Y-57907429D01*
X76957530Y-57884329D01*
X76968020Y-57862151D01*
X76980633Y-57841107D01*
X76995247Y-57821402D01*
X77011723Y-57803223D01*
X77029902Y-57786747D01*
X77049607Y-57772133D01*
X77070651Y-57759520D01*
X77092829Y-57749030D01*
X77115929Y-57740765D01*
X77139727Y-57734804D01*
X77163996Y-57731204D01*
X77188500Y-57730000D01*
X78113500Y-57730000D01*
X78138004Y-57731204D01*
X78138004Y-57731204D01*
G37*
D13*
X77651000Y-59055000D03*
D12*
G36*
X75163004Y-57731204D02*
G01*
X75187273Y-57734804D01*
X75211071Y-57740765D01*
X75234171Y-57749030D01*
X75256349Y-57759520D01*
X75277393Y-57772133D01*
X75297098Y-57786747D01*
X75315277Y-57803223D01*
X75331753Y-57821402D01*
X75346367Y-57841107D01*
X75358980Y-57862151D01*
X75369470Y-57884329D01*
X75377735Y-57907429D01*
X75383696Y-57931227D01*
X75387296Y-57955496D01*
X75388500Y-57980000D01*
X75388500Y-60130000D01*
X75387296Y-60154504D01*
X75383696Y-60178773D01*
X75377735Y-60202571D01*
X75369470Y-60225671D01*
X75358980Y-60247849D01*
X75346367Y-60268893D01*
X75331753Y-60288598D01*
X75315277Y-60306777D01*
X75297098Y-60323253D01*
X75277393Y-60337867D01*
X75256349Y-60350480D01*
X75234171Y-60360970D01*
X75211071Y-60369235D01*
X75187273Y-60375196D01*
X75163004Y-60378796D01*
X75138500Y-60380000D01*
X74213500Y-60380000D01*
X74188996Y-60378796D01*
X74164727Y-60375196D01*
X74140929Y-60369235D01*
X74117829Y-60360970D01*
X74095651Y-60350480D01*
X74074607Y-60337867D01*
X74054902Y-60323253D01*
X74036723Y-60306777D01*
X74020247Y-60288598D01*
X74005633Y-60268893D01*
X73993020Y-60247849D01*
X73982530Y-60225671D01*
X73974265Y-60202571D01*
X73968304Y-60178773D01*
X73964704Y-60154504D01*
X73963500Y-60130000D01*
X73963500Y-57980000D01*
X73964704Y-57955496D01*
X73968304Y-57931227D01*
X73974265Y-57907429D01*
X73982530Y-57884329D01*
X73993020Y-57862151D01*
X74005633Y-57841107D01*
X74020247Y-57821402D01*
X74036723Y-57803223D01*
X74054902Y-57786747D01*
X74074607Y-57772133D01*
X74095651Y-57759520D01*
X74117829Y-57749030D01*
X74140929Y-57740765D01*
X74164727Y-57734804D01*
X74188996Y-57731204D01*
X74213500Y-57730000D01*
X75138500Y-57730000D01*
X75163004Y-57731204D01*
X75163004Y-57731204D01*
G37*
D13*
X74676000Y-59055000D03*
D12*
G36*
X89745504Y-59577204D02*
G01*
X89769773Y-59580804D01*
X89793571Y-59586765D01*
X89816671Y-59595030D01*
X89838849Y-59605520D01*
X89859893Y-59618133D01*
X89879598Y-59632747D01*
X89897777Y-59649223D01*
X89914253Y-59667402D01*
X89928867Y-59687107D01*
X89941480Y-59708151D01*
X89951970Y-59730329D01*
X89960235Y-59753429D01*
X89966196Y-59777227D01*
X89969796Y-59801496D01*
X89971000Y-59826000D01*
X89971000Y-60751000D01*
X89969796Y-60775504D01*
X89966196Y-60799773D01*
X89960235Y-60823571D01*
X89951970Y-60846671D01*
X89941480Y-60868849D01*
X89928867Y-60889893D01*
X89914253Y-60909598D01*
X89897777Y-60927777D01*
X89879598Y-60944253D01*
X89859893Y-60958867D01*
X89838849Y-60971480D01*
X89816671Y-60981970D01*
X89793571Y-60990235D01*
X89769773Y-60996196D01*
X89745504Y-60999796D01*
X89721000Y-61001000D01*
X87571000Y-61001000D01*
X87546496Y-60999796D01*
X87522227Y-60996196D01*
X87498429Y-60990235D01*
X87475329Y-60981970D01*
X87453151Y-60971480D01*
X87432107Y-60958867D01*
X87412402Y-60944253D01*
X87394223Y-60927777D01*
X87377747Y-60909598D01*
X87363133Y-60889893D01*
X87350520Y-60868849D01*
X87340030Y-60846671D01*
X87331765Y-60823571D01*
X87325804Y-60799773D01*
X87322204Y-60775504D01*
X87321000Y-60751000D01*
X87321000Y-59826000D01*
X87322204Y-59801496D01*
X87325804Y-59777227D01*
X87331765Y-59753429D01*
X87340030Y-59730329D01*
X87350520Y-59708151D01*
X87363133Y-59687107D01*
X87377747Y-59667402D01*
X87394223Y-59649223D01*
X87412402Y-59632747D01*
X87432107Y-59618133D01*
X87453151Y-59605520D01*
X87475329Y-59595030D01*
X87498429Y-59586765D01*
X87522227Y-59580804D01*
X87546496Y-59577204D01*
X87571000Y-59576000D01*
X89721000Y-59576000D01*
X89745504Y-59577204D01*
X89745504Y-59577204D01*
G37*
D13*
X88646000Y-60288500D03*
D12*
G36*
X89745504Y-56602204D02*
G01*
X89769773Y-56605804D01*
X89793571Y-56611765D01*
X89816671Y-56620030D01*
X89838849Y-56630520D01*
X89859893Y-56643133D01*
X89879598Y-56657747D01*
X89897777Y-56674223D01*
X89914253Y-56692402D01*
X89928867Y-56712107D01*
X89941480Y-56733151D01*
X89951970Y-56755329D01*
X89960235Y-56778429D01*
X89966196Y-56802227D01*
X89969796Y-56826496D01*
X89971000Y-56851000D01*
X89971000Y-57776000D01*
X89969796Y-57800504D01*
X89966196Y-57824773D01*
X89960235Y-57848571D01*
X89951970Y-57871671D01*
X89941480Y-57893849D01*
X89928867Y-57914893D01*
X89914253Y-57934598D01*
X89897777Y-57952777D01*
X89879598Y-57969253D01*
X89859893Y-57983867D01*
X89838849Y-57996480D01*
X89816671Y-58006970D01*
X89793571Y-58015235D01*
X89769773Y-58021196D01*
X89745504Y-58024796D01*
X89721000Y-58026000D01*
X87571000Y-58026000D01*
X87546496Y-58024796D01*
X87522227Y-58021196D01*
X87498429Y-58015235D01*
X87475329Y-58006970D01*
X87453151Y-57996480D01*
X87432107Y-57983867D01*
X87412402Y-57969253D01*
X87394223Y-57952777D01*
X87377747Y-57934598D01*
X87363133Y-57914893D01*
X87350520Y-57893849D01*
X87340030Y-57871671D01*
X87331765Y-57848571D01*
X87325804Y-57824773D01*
X87322204Y-57800504D01*
X87321000Y-57776000D01*
X87321000Y-56851000D01*
X87322204Y-56826496D01*
X87325804Y-56802227D01*
X87331765Y-56778429D01*
X87340030Y-56755329D01*
X87350520Y-56733151D01*
X87363133Y-56712107D01*
X87377747Y-56692402D01*
X87394223Y-56674223D01*
X87412402Y-56657747D01*
X87432107Y-56643133D01*
X87453151Y-56630520D01*
X87475329Y-56620030D01*
X87498429Y-56611765D01*
X87522227Y-56605804D01*
X87546496Y-56602204D01*
X87571000Y-56601000D01*
X89721000Y-56601000D01*
X89745504Y-56602204D01*
X89745504Y-56602204D01*
G37*
D13*
X88646000Y-57313500D03*
D14*
X87668800Y-43103800D03*
X86168800Y-43103800D03*
D12*
G36*
X63707703Y-55326722D02*
G01*
X63722264Y-55328882D01*
X63736543Y-55332459D01*
X63750403Y-55337418D01*
X63763710Y-55343712D01*
X63776336Y-55351280D01*
X63788159Y-55360048D01*
X63799066Y-55369934D01*
X63808952Y-55380841D01*
X63817720Y-55392664D01*
X63825288Y-55405290D01*
X63831582Y-55418597D01*
X63836541Y-55432457D01*
X63840118Y-55446736D01*
X63842278Y-55461297D01*
X63843000Y-55476000D01*
X63843000Y-55776000D01*
X63842278Y-55790703D01*
X63840118Y-55805264D01*
X63836541Y-55819543D01*
X63831582Y-55833403D01*
X63825288Y-55846710D01*
X63817720Y-55859336D01*
X63808952Y-55871159D01*
X63799066Y-55882066D01*
X63788159Y-55891952D01*
X63776336Y-55900720D01*
X63763710Y-55908288D01*
X63750403Y-55914582D01*
X63736543Y-55919541D01*
X63722264Y-55923118D01*
X63707703Y-55925278D01*
X63693000Y-55926000D01*
X62043000Y-55926000D01*
X62028297Y-55925278D01*
X62013736Y-55923118D01*
X61999457Y-55919541D01*
X61985597Y-55914582D01*
X61972290Y-55908288D01*
X61959664Y-55900720D01*
X61947841Y-55891952D01*
X61936934Y-55882066D01*
X61927048Y-55871159D01*
X61918280Y-55859336D01*
X61910712Y-55846710D01*
X61904418Y-55833403D01*
X61899459Y-55819543D01*
X61895882Y-55805264D01*
X61893722Y-55790703D01*
X61893000Y-55776000D01*
X61893000Y-55476000D01*
X61893722Y-55461297D01*
X61895882Y-55446736D01*
X61899459Y-55432457D01*
X61904418Y-55418597D01*
X61910712Y-55405290D01*
X61918280Y-55392664D01*
X61927048Y-55380841D01*
X61936934Y-55369934D01*
X61947841Y-55360048D01*
X61959664Y-55351280D01*
X61972290Y-55343712D01*
X61985597Y-55337418D01*
X61999457Y-55332459D01*
X62013736Y-55328882D01*
X62028297Y-55326722D01*
X62043000Y-55326000D01*
X63693000Y-55326000D01*
X63707703Y-55326722D01*
X63707703Y-55326722D01*
G37*
D15*
X62868000Y-55626000D03*
D12*
G36*
X63707703Y-54056722D02*
G01*
X63722264Y-54058882D01*
X63736543Y-54062459D01*
X63750403Y-54067418D01*
X63763710Y-54073712D01*
X63776336Y-54081280D01*
X63788159Y-54090048D01*
X63799066Y-54099934D01*
X63808952Y-54110841D01*
X63817720Y-54122664D01*
X63825288Y-54135290D01*
X63831582Y-54148597D01*
X63836541Y-54162457D01*
X63840118Y-54176736D01*
X63842278Y-54191297D01*
X63843000Y-54206000D01*
X63843000Y-54506000D01*
X63842278Y-54520703D01*
X63840118Y-54535264D01*
X63836541Y-54549543D01*
X63831582Y-54563403D01*
X63825288Y-54576710D01*
X63817720Y-54589336D01*
X63808952Y-54601159D01*
X63799066Y-54612066D01*
X63788159Y-54621952D01*
X63776336Y-54630720D01*
X63763710Y-54638288D01*
X63750403Y-54644582D01*
X63736543Y-54649541D01*
X63722264Y-54653118D01*
X63707703Y-54655278D01*
X63693000Y-54656000D01*
X62043000Y-54656000D01*
X62028297Y-54655278D01*
X62013736Y-54653118D01*
X61999457Y-54649541D01*
X61985597Y-54644582D01*
X61972290Y-54638288D01*
X61959664Y-54630720D01*
X61947841Y-54621952D01*
X61936934Y-54612066D01*
X61927048Y-54601159D01*
X61918280Y-54589336D01*
X61910712Y-54576710D01*
X61904418Y-54563403D01*
X61899459Y-54549543D01*
X61895882Y-54535264D01*
X61893722Y-54520703D01*
X61893000Y-54506000D01*
X61893000Y-54206000D01*
X61893722Y-54191297D01*
X61895882Y-54176736D01*
X61899459Y-54162457D01*
X61904418Y-54148597D01*
X61910712Y-54135290D01*
X61918280Y-54122664D01*
X61927048Y-54110841D01*
X61936934Y-54099934D01*
X61947841Y-54090048D01*
X61959664Y-54081280D01*
X61972290Y-54073712D01*
X61985597Y-54067418D01*
X61999457Y-54062459D01*
X62013736Y-54058882D01*
X62028297Y-54056722D01*
X62043000Y-54056000D01*
X63693000Y-54056000D01*
X63707703Y-54056722D01*
X63707703Y-54056722D01*
G37*
D15*
X62868000Y-54356000D03*
D12*
G36*
X63707703Y-52786722D02*
G01*
X63722264Y-52788882D01*
X63736543Y-52792459D01*
X63750403Y-52797418D01*
X63763710Y-52803712D01*
X63776336Y-52811280D01*
X63788159Y-52820048D01*
X63799066Y-52829934D01*
X63808952Y-52840841D01*
X63817720Y-52852664D01*
X63825288Y-52865290D01*
X63831582Y-52878597D01*
X63836541Y-52892457D01*
X63840118Y-52906736D01*
X63842278Y-52921297D01*
X63843000Y-52936000D01*
X63843000Y-53236000D01*
X63842278Y-53250703D01*
X63840118Y-53265264D01*
X63836541Y-53279543D01*
X63831582Y-53293403D01*
X63825288Y-53306710D01*
X63817720Y-53319336D01*
X63808952Y-53331159D01*
X63799066Y-53342066D01*
X63788159Y-53351952D01*
X63776336Y-53360720D01*
X63763710Y-53368288D01*
X63750403Y-53374582D01*
X63736543Y-53379541D01*
X63722264Y-53383118D01*
X63707703Y-53385278D01*
X63693000Y-53386000D01*
X62043000Y-53386000D01*
X62028297Y-53385278D01*
X62013736Y-53383118D01*
X61999457Y-53379541D01*
X61985597Y-53374582D01*
X61972290Y-53368288D01*
X61959664Y-53360720D01*
X61947841Y-53351952D01*
X61936934Y-53342066D01*
X61927048Y-53331159D01*
X61918280Y-53319336D01*
X61910712Y-53306710D01*
X61904418Y-53293403D01*
X61899459Y-53279543D01*
X61895882Y-53265264D01*
X61893722Y-53250703D01*
X61893000Y-53236000D01*
X61893000Y-52936000D01*
X61893722Y-52921297D01*
X61895882Y-52906736D01*
X61899459Y-52892457D01*
X61904418Y-52878597D01*
X61910712Y-52865290D01*
X61918280Y-52852664D01*
X61927048Y-52840841D01*
X61936934Y-52829934D01*
X61947841Y-52820048D01*
X61959664Y-52811280D01*
X61972290Y-52803712D01*
X61985597Y-52797418D01*
X61999457Y-52792459D01*
X62013736Y-52788882D01*
X62028297Y-52786722D01*
X62043000Y-52786000D01*
X63693000Y-52786000D01*
X63707703Y-52786722D01*
X63707703Y-52786722D01*
G37*
D15*
X62868000Y-53086000D03*
D12*
G36*
X63707703Y-51516722D02*
G01*
X63722264Y-51518882D01*
X63736543Y-51522459D01*
X63750403Y-51527418D01*
X63763710Y-51533712D01*
X63776336Y-51541280D01*
X63788159Y-51550048D01*
X63799066Y-51559934D01*
X63808952Y-51570841D01*
X63817720Y-51582664D01*
X63825288Y-51595290D01*
X63831582Y-51608597D01*
X63836541Y-51622457D01*
X63840118Y-51636736D01*
X63842278Y-51651297D01*
X63843000Y-51666000D01*
X63843000Y-51966000D01*
X63842278Y-51980703D01*
X63840118Y-51995264D01*
X63836541Y-52009543D01*
X63831582Y-52023403D01*
X63825288Y-52036710D01*
X63817720Y-52049336D01*
X63808952Y-52061159D01*
X63799066Y-52072066D01*
X63788159Y-52081952D01*
X63776336Y-52090720D01*
X63763710Y-52098288D01*
X63750403Y-52104582D01*
X63736543Y-52109541D01*
X63722264Y-52113118D01*
X63707703Y-52115278D01*
X63693000Y-52116000D01*
X62043000Y-52116000D01*
X62028297Y-52115278D01*
X62013736Y-52113118D01*
X61999457Y-52109541D01*
X61985597Y-52104582D01*
X61972290Y-52098288D01*
X61959664Y-52090720D01*
X61947841Y-52081952D01*
X61936934Y-52072066D01*
X61927048Y-52061159D01*
X61918280Y-52049336D01*
X61910712Y-52036710D01*
X61904418Y-52023403D01*
X61899459Y-52009543D01*
X61895882Y-51995264D01*
X61893722Y-51980703D01*
X61893000Y-51966000D01*
X61893000Y-51666000D01*
X61893722Y-51651297D01*
X61895882Y-51636736D01*
X61899459Y-51622457D01*
X61904418Y-51608597D01*
X61910712Y-51595290D01*
X61918280Y-51582664D01*
X61927048Y-51570841D01*
X61936934Y-51559934D01*
X61947841Y-51550048D01*
X61959664Y-51541280D01*
X61972290Y-51533712D01*
X61985597Y-51527418D01*
X61999457Y-51522459D01*
X62013736Y-51518882D01*
X62028297Y-51516722D01*
X62043000Y-51516000D01*
X63693000Y-51516000D01*
X63707703Y-51516722D01*
X63707703Y-51516722D01*
G37*
D15*
X62868000Y-51816000D03*
D12*
G36*
X68657703Y-51516722D02*
G01*
X68672264Y-51518882D01*
X68686543Y-51522459D01*
X68700403Y-51527418D01*
X68713710Y-51533712D01*
X68726336Y-51541280D01*
X68738159Y-51550048D01*
X68749066Y-51559934D01*
X68758952Y-51570841D01*
X68767720Y-51582664D01*
X68775288Y-51595290D01*
X68781582Y-51608597D01*
X68786541Y-51622457D01*
X68790118Y-51636736D01*
X68792278Y-51651297D01*
X68793000Y-51666000D01*
X68793000Y-51966000D01*
X68792278Y-51980703D01*
X68790118Y-51995264D01*
X68786541Y-52009543D01*
X68781582Y-52023403D01*
X68775288Y-52036710D01*
X68767720Y-52049336D01*
X68758952Y-52061159D01*
X68749066Y-52072066D01*
X68738159Y-52081952D01*
X68726336Y-52090720D01*
X68713710Y-52098288D01*
X68700403Y-52104582D01*
X68686543Y-52109541D01*
X68672264Y-52113118D01*
X68657703Y-52115278D01*
X68643000Y-52116000D01*
X66993000Y-52116000D01*
X66978297Y-52115278D01*
X66963736Y-52113118D01*
X66949457Y-52109541D01*
X66935597Y-52104582D01*
X66922290Y-52098288D01*
X66909664Y-52090720D01*
X66897841Y-52081952D01*
X66886934Y-52072066D01*
X66877048Y-52061159D01*
X66868280Y-52049336D01*
X66860712Y-52036710D01*
X66854418Y-52023403D01*
X66849459Y-52009543D01*
X66845882Y-51995264D01*
X66843722Y-51980703D01*
X66843000Y-51966000D01*
X66843000Y-51666000D01*
X66843722Y-51651297D01*
X66845882Y-51636736D01*
X66849459Y-51622457D01*
X66854418Y-51608597D01*
X66860712Y-51595290D01*
X66868280Y-51582664D01*
X66877048Y-51570841D01*
X66886934Y-51559934D01*
X66897841Y-51550048D01*
X66909664Y-51541280D01*
X66922290Y-51533712D01*
X66935597Y-51527418D01*
X66949457Y-51522459D01*
X66963736Y-51518882D01*
X66978297Y-51516722D01*
X66993000Y-51516000D01*
X68643000Y-51516000D01*
X68657703Y-51516722D01*
X68657703Y-51516722D01*
G37*
D15*
X67818000Y-51816000D03*
D12*
G36*
X68657703Y-52786722D02*
G01*
X68672264Y-52788882D01*
X68686543Y-52792459D01*
X68700403Y-52797418D01*
X68713710Y-52803712D01*
X68726336Y-52811280D01*
X68738159Y-52820048D01*
X68749066Y-52829934D01*
X68758952Y-52840841D01*
X68767720Y-52852664D01*
X68775288Y-52865290D01*
X68781582Y-52878597D01*
X68786541Y-52892457D01*
X68790118Y-52906736D01*
X68792278Y-52921297D01*
X68793000Y-52936000D01*
X68793000Y-53236000D01*
X68792278Y-53250703D01*
X68790118Y-53265264D01*
X68786541Y-53279543D01*
X68781582Y-53293403D01*
X68775288Y-53306710D01*
X68767720Y-53319336D01*
X68758952Y-53331159D01*
X68749066Y-53342066D01*
X68738159Y-53351952D01*
X68726336Y-53360720D01*
X68713710Y-53368288D01*
X68700403Y-53374582D01*
X68686543Y-53379541D01*
X68672264Y-53383118D01*
X68657703Y-53385278D01*
X68643000Y-53386000D01*
X66993000Y-53386000D01*
X66978297Y-53385278D01*
X66963736Y-53383118D01*
X66949457Y-53379541D01*
X66935597Y-53374582D01*
X66922290Y-53368288D01*
X66909664Y-53360720D01*
X66897841Y-53351952D01*
X66886934Y-53342066D01*
X66877048Y-53331159D01*
X66868280Y-53319336D01*
X66860712Y-53306710D01*
X66854418Y-53293403D01*
X66849459Y-53279543D01*
X66845882Y-53265264D01*
X66843722Y-53250703D01*
X66843000Y-53236000D01*
X66843000Y-52936000D01*
X66843722Y-52921297D01*
X66845882Y-52906736D01*
X66849459Y-52892457D01*
X66854418Y-52878597D01*
X66860712Y-52865290D01*
X66868280Y-52852664D01*
X66877048Y-52840841D01*
X66886934Y-52829934D01*
X66897841Y-52820048D01*
X66909664Y-52811280D01*
X66922290Y-52803712D01*
X66935597Y-52797418D01*
X66949457Y-52792459D01*
X66963736Y-52788882D01*
X66978297Y-52786722D01*
X66993000Y-52786000D01*
X68643000Y-52786000D01*
X68657703Y-52786722D01*
X68657703Y-52786722D01*
G37*
D15*
X67818000Y-53086000D03*
D12*
G36*
X68657703Y-54056722D02*
G01*
X68672264Y-54058882D01*
X68686543Y-54062459D01*
X68700403Y-54067418D01*
X68713710Y-54073712D01*
X68726336Y-54081280D01*
X68738159Y-54090048D01*
X68749066Y-54099934D01*
X68758952Y-54110841D01*
X68767720Y-54122664D01*
X68775288Y-54135290D01*
X68781582Y-54148597D01*
X68786541Y-54162457D01*
X68790118Y-54176736D01*
X68792278Y-54191297D01*
X68793000Y-54206000D01*
X68793000Y-54506000D01*
X68792278Y-54520703D01*
X68790118Y-54535264D01*
X68786541Y-54549543D01*
X68781582Y-54563403D01*
X68775288Y-54576710D01*
X68767720Y-54589336D01*
X68758952Y-54601159D01*
X68749066Y-54612066D01*
X68738159Y-54621952D01*
X68726336Y-54630720D01*
X68713710Y-54638288D01*
X68700403Y-54644582D01*
X68686543Y-54649541D01*
X68672264Y-54653118D01*
X68657703Y-54655278D01*
X68643000Y-54656000D01*
X66993000Y-54656000D01*
X66978297Y-54655278D01*
X66963736Y-54653118D01*
X66949457Y-54649541D01*
X66935597Y-54644582D01*
X66922290Y-54638288D01*
X66909664Y-54630720D01*
X66897841Y-54621952D01*
X66886934Y-54612066D01*
X66877048Y-54601159D01*
X66868280Y-54589336D01*
X66860712Y-54576710D01*
X66854418Y-54563403D01*
X66849459Y-54549543D01*
X66845882Y-54535264D01*
X66843722Y-54520703D01*
X66843000Y-54506000D01*
X66843000Y-54206000D01*
X66843722Y-54191297D01*
X66845882Y-54176736D01*
X66849459Y-54162457D01*
X66854418Y-54148597D01*
X66860712Y-54135290D01*
X66868280Y-54122664D01*
X66877048Y-54110841D01*
X66886934Y-54099934D01*
X66897841Y-54090048D01*
X66909664Y-54081280D01*
X66922290Y-54073712D01*
X66935597Y-54067418D01*
X66949457Y-54062459D01*
X66963736Y-54058882D01*
X66978297Y-54056722D01*
X66993000Y-54056000D01*
X68643000Y-54056000D01*
X68657703Y-54056722D01*
X68657703Y-54056722D01*
G37*
D15*
X67818000Y-54356000D03*
D12*
G36*
X68657703Y-55326722D02*
G01*
X68672264Y-55328882D01*
X68686543Y-55332459D01*
X68700403Y-55337418D01*
X68713710Y-55343712D01*
X68726336Y-55351280D01*
X68738159Y-55360048D01*
X68749066Y-55369934D01*
X68758952Y-55380841D01*
X68767720Y-55392664D01*
X68775288Y-55405290D01*
X68781582Y-55418597D01*
X68786541Y-55432457D01*
X68790118Y-55446736D01*
X68792278Y-55461297D01*
X68793000Y-55476000D01*
X68793000Y-55776000D01*
X68792278Y-55790703D01*
X68790118Y-55805264D01*
X68786541Y-55819543D01*
X68781582Y-55833403D01*
X68775288Y-55846710D01*
X68767720Y-55859336D01*
X68758952Y-55871159D01*
X68749066Y-55882066D01*
X68738159Y-55891952D01*
X68726336Y-55900720D01*
X68713710Y-55908288D01*
X68700403Y-55914582D01*
X68686543Y-55919541D01*
X68672264Y-55923118D01*
X68657703Y-55925278D01*
X68643000Y-55926000D01*
X66993000Y-55926000D01*
X66978297Y-55925278D01*
X66963736Y-55923118D01*
X66949457Y-55919541D01*
X66935597Y-55914582D01*
X66922290Y-55908288D01*
X66909664Y-55900720D01*
X66897841Y-55891952D01*
X66886934Y-55882066D01*
X66877048Y-55871159D01*
X66868280Y-55859336D01*
X66860712Y-55846710D01*
X66854418Y-55833403D01*
X66849459Y-55819543D01*
X66845882Y-55805264D01*
X66843722Y-55790703D01*
X66843000Y-55776000D01*
X66843000Y-55476000D01*
X66843722Y-55461297D01*
X66845882Y-55446736D01*
X66849459Y-55432457D01*
X66854418Y-55418597D01*
X66860712Y-55405290D01*
X66868280Y-55392664D01*
X66877048Y-55380841D01*
X66886934Y-55369934D01*
X66897841Y-55360048D01*
X66909664Y-55351280D01*
X66922290Y-55343712D01*
X66935597Y-55337418D01*
X66949457Y-55332459D01*
X66963736Y-55328882D01*
X66978297Y-55326722D01*
X66993000Y-55326000D01*
X68643000Y-55326000D01*
X68657703Y-55326722D01*
X68657703Y-55326722D01*
G37*
D15*
X67818000Y-55626000D03*
D12*
G36*
X65128505Y-48381204D02*
G01*
X65152773Y-48384804D01*
X65176572Y-48390765D01*
X65199671Y-48399030D01*
X65221850Y-48409520D01*
X65242893Y-48422132D01*
X65262599Y-48436747D01*
X65280777Y-48453223D01*
X65297253Y-48471401D01*
X65311868Y-48491107D01*
X65324480Y-48512150D01*
X65334970Y-48534329D01*
X65343235Y-48557428D01*
X65349196Y-48581227D01*
X65352796Y-48605495D01*
X65354000Y-48629999D01*
X65354000Y-49530001D01*
X65352796Y-49554505D01*
X65349196Y-49578773D01*
X65343235Y-49602572D01*
X65334970Y-49625671D01*
X65324480Y-49647850D01*
X65311868Y-49668893D01*
X65297253Y-49688599D01*
X65280777Y-49706777D01*
X65262599Y-49723253D01*
X65242893Y-49737868D01*
X65221850Y-49750480D01*
X65199671Y-49760970D01*
X65176572Y-49769235D01*
X65152773Y-49775196D01*
X65128505Y-49778796D01*
X65104001Y-49780000D01*
X64453999Y-49780000D01*
X64429495Y-49778796D01*
X64405227Y-49775196D01*
X64381428Y-49769235D01*
X64358329Y-49760970D01*
X64336150Y-49750480D01*
X64315107Y-49737868D01*
X64295401Y-49723253D01*
X64277223Y-49706777D01*
X64260747Y-49688599D01*
X64246132Y-49668893D01*
X64233520Y-49647850D01*
X64223030Y-49625671D01*
X64214765Y-49602572D01*
X64208804Y-49578773D01*
X64205204Y-49554505D01*
X64204000Y-49530001D01*
X64204000Y-48629999D01*
X64205204Y-48605495D01*
X64208804Y-48581227D01*
X64214765Y-48557428D01*
X64223030Y-48534329D01*
X64233520Y-48512150D01*
X64246132Y-48491107D01*
X64260747Y-48471401D01*
X64277223Y-48453223D01*
X64295401Y-48436747D01*
X64315107Y-48422132D01*
X64336150Y-48409520D01*
X64358329Y-48399030D01*
X64381428Y-48390765D01*
X64405227Y-48384804D01*
X64429495Y-48381204D01*
X64453999Y-48380000D01*
X65104001Y-48380000D01*
X65128505Y-48381204D01*
X65128505Y-48381204D01*
G37*
D16*
X64779000Y-49080000D03*
D12*
G36*
X63078505Y-48381204D02*
G01*
X63102773Y-48384804D01*
X63126572Y-48390765D01*
X63149671Y-48399030D01*
X63171850Y-48409520D01*
X63192893Y-48422132D01*
X63212599Y-48436747D01*
X63230777Y-48453223D01*
X63247253Y-48471401D01*
X63261868Y-48491107D01*
X63274480Y-48512150D01*
X63284970Y-48534329D01*
X63293235Y-48557428D01*
X63299196Y-48581227D01*
X63302796Y-48605495D01*
X63304000Y-48629999D01*
X63304000Y-49530001D01*
X63302796Y-49554505D01*
X63299196Y-49578773D01*
X63293235Y-49602572D01*
X63284970Y-49625671D01*
X63274480Y-49647850D01*
X63261868Y-49668893D01*
X63247253Y-49688599D01*
X63230777Y-49706777D01*
X63212599Y-49723253D01*
X63192893Y-49737868D01*
X63171850Y-49750480D01*
X63149671Y-49760970D01*
X63126572Y-49769235D01*
X63102773Y-49775196D01*
X63078505Y-49778796D01*
X63054001Y-49780000D01*
X62403999Y-49780000D01*
X62379495Y-49778796D01*
X62355227Y-49775196D01*
X62331428Y-49769235D01*
X62308329Y-49760970D01*
X62286150Y-49750480D01*
X62265107Y-49737868D01*
X62245401Y-49723253D01*
X62227223Y-49706777D01*
X62210747Y-49688599D01*
X62196132Y-49668893D01*
X62183520Y-49647850D01*
X62173030Y-49625671D01*
X62164765Y-49602572D01*
X62158804Y-49578773D01*
X62155204Y-49554505D01*
X62154000Y-49530001D01*
X62154000Y-48629999D01*
X62155204Y-48605495D01*
X62158804Y-48581227D01*
X62164765Y-48557428D01*
X62173030Y-48534329D01*
X62183520Y-48512150D01*
X62196132Y-48491107D01*
X62210747Y-48471401D01*
X62227223Y-48453223D01*
X62245401Y-48436747D01*
X62265107Y-48422132D01*
X62286150Y-48409520D01*
X62308329Y-48399030D01*
X62331428Y-48390765D01*
X62355227Y-48384804D01*
X62379495Y-48381204D01*
X62403999Y-48380000D01*
X63054001Y-48380000D01*
X63078505Y-48381204D01*
X63078505Y-48381204D01*
G37*
D16*
X62729000Y-49080000D03*
D12*
G36*
X65128505Y-45431204D02*
G01*
X65152773Y-45434804D01*
X65176572Y-45440765D01*
X65199671Y-45449030D01*
X65221850Y-45459520D01*
X65242893Y-45472132D01*
X65262599Y-45486747D01*
X65280777Y-45503223D01*
X65297253Y-45521401D01*
X65311868Y-45541107D01*
X65324480Y-45562150D01*
X65334970Y-45584329D01*
X65343235Y-45607428D01*
X65349196Y-45631227D01*
X65352796Y-45655495D01*
X65354000Y-45679999D01*
X65354000Y-46580001D01*
X65352796Y-46604505D01*
X65349196Y-46628773D01*
X65343235Y-46652572D01*
X65334970Y-46675671D01*
X65324480Y-46697850D01*
X65311868Y-46718893D01*
X65297253Y-46738599D01*
X65280777Y-46756777D01*
X65262599Y-46773253D01*
X65242893Y-46787868D01*
X65221850Y-46800480D01*
X65199671Y-46810970D01*
X65176572Y-46819235D01*
X65152773Y-46825196D01*
X65128505Y-46828796D01*
X65104001Y-46830000D01*
X64453999Y-46830000D01*
X64429495Y-46828796D01*
X64405227Y-46825196D01*
X64381428Y-46819235D01*
X64358329Y-46810970D01*
X64336150Y-46800480D01*
X64315107Y-46787868D01*
X64295401Y-46773253D01*
X64277223Y-46756777D01*
X64260747Y-46738599D01*
X64246132Y-46718893D01*
X64233520Y-46697850D01*
X64223030Y-46675671D01*
X64214765Y-46652572D01*
X64208804Y-46628773D01*
X64205204Y-46604505D01*
X64204000Y-46580001D01*
X64204000Y-45679999D01*
X64205204Y-45655495D01*
X64208804Y-45631227D01*
X64214765Y-45607428D01*
X64223030Y-45584329D01*
X64233520Y-45562150D01*
X64246132Y-45541107D01*
X64260747Y-45521401D01*
X64277223Y-45503223D01*
X64295401Y-45486747D01*
X64315107Y-45472132D01*
X64336150Y-45459520D01*
X64358329Y-45449030D01*
X64381428Y-45440765D01*
X64405227Y-45434804D01*
X64429495Y-45431204D01*
X64453999Y-45430000D01*
X65104001Y-45430000D01*
X65128505Y-45431204D01*
X65128505Y-45431204D01*
G37*
D16*
X64779000Y-46130000D03*
D12*
G36*
X63078505Y-45431204D02*
G01*
X63102773Y-45434804D01*
X63126572Y-45440765D01*
X63149671Y-45449030D01*
X63171850Y-45459520D01*
X63192893Y-45472132D01*
X63212599Y-45486747D01*
X63230777Y-45503223D01*
X63247253Y-45521401D01*
X63261868Y-45541107D01*
X63274480Y-45562150D01*
X63284970Y-45584329D01*
X63293235Y-45607428D01*
X63299196Y-45631227D01*
X63302796Y-45655495D01*
X63304000Y-45679999D01*
X63304000Y-46580001D01*
X63302796Y-46604505D01*
X63299196Y-46628773D01*
X63293235Y-46652572D01*
X63284970Y-46675671D01*
X63274480Y-46697850D01*
X63261868Y-46718893D01*
X63247253Y-46738599D01*
X63230777Y-46756777D01*
X63212599Y-46773253D01*
X63192893Y-46787868D01*
X63171850Y-46800480D01*
X63149671Y-46810970D01*
X63126572Y-46819235D01*
X63102773Y-46825196D01*
X63078505Y-46828796D01*
X63054001Y-46830000D01*
X62403999Y-46830000D01*
X62379495Y-46828796D01*
X62355227Y-46825196D01*
X62331428Y-46819235D01*
X62308329Y-46810970D01*
X62286150Y-46800480D01*
X62265107Y-46787868D01*
X62245401Y-46773253D01*
X62227223Y-46756777D01*
X62210747Y-46738599D01*
X62196132Y-46718893D01*
X62183520Y-46697850D01*
X62173030Y-46675671D01*
X62164765Y-46652572D01*
X62158804Y-46628773D01*
X62155204Y-46604505D01*
X62154000Y-46580001D01*
X62154000Y-45679999D01*
X62155204Y-45655495D01*
X62158804Y-45631227D01*
X62164765Y-45607428D01*
X62173030Y-45584329D01*
X62183520Y-45562150D01*
X62196132Y-45541107D01*
X62210747Y-45521401D01*
X62227223Y-45503223D01*
X62245401Y-45486747D01*
X62265107Y-45472132D01*
X62286150Y-45459520D01*
X62308329Y-45449030D01*
X62331428Y-45440765D01*
X62355227Y-45434804D01*
X62379495Y-45431204D01*
X62403999Y-45430000D01*
X63054001Y-45430000D01*
X63078505Y-45431204D01*
X63078505Y-45431204D01*
G37*
D16*
X62729000Y-46130000D03*
D12*
G36*
X65128505Y-42481204D02*
G01*
X65152773Y-42484804D01*
X65176572Y-42490765D01*
X65199671Y-42499030D01*
X65221850Y-42509520D01*
X65242893Y-42522132D01*
X65262599Y-42536747D01*
X65280777Y-42553223D01*
X65297253Y-42571401D01*
X65311868Y-42591107D01*
X65324480Y-42612150D01*
X65334970Y-42634329D01*
X65343235Y-42657428D01*
X65349196Y-42681227D01*
X65352796Y-42705495D01*
X65354000Y-42729999D01*
X65354000Y-43630001D01*
X65352796Y-43654505D01*
X65349196Y-43678773D01*
X65343235Y-43702572D01*
X65334970Y-43725671D01*
X65324480Y-43747850D01*
X65311868Y-43768893D01*
X65297253Y-43788599D01*
X65280777Y-43806777D01*
X65262599Y-43823253D01*
X65242893Y-43837868D01*
X65221850Y-43850480D01*
X65199671Y-43860970D01*
X65176572Y-43869235D01*
X65152773Y-43875196D01*
X65128505Y-43878796D01*
X65104001Y-43880000D01*
X64453999Y-43880000D01*
X64429495Y-43878796D01*
X64405227Y-43875196D01*
X64381428Y-43869235D01*
X64358329Y-43860970D01*
X64336150Y-43850480D01*
X64315107Y-43837868D01*
X64295401Y-43823253D01*
X64277223Y-43806777D01*
X64260747Y-43788599D01*
X64246132Y-43768893D01*
X64233520Y-43747850D01*
X64223030Y-43725671D01*
X64214765Y-43702572D01*
X64208804Y-43678773D01*
X64205204Y-43654505D01*
X64204000Y-43630001D01*
X64204000Y-42729999D01*
X64205204Y-42705495D01*
X64208804Y-42681227D01*
X64214765Y-42657428D01*
X64223030Y-42634329D01*
X64233520Y-42612150D01*
X64246132Y-42591107D01*
X64260747Y-42571401D01*
X64277223Y-42553223D01*
X64295401Y-42536747D01*
X64315107Y-42522132D01*
X64336150Y-42509520D01*
X64358329Y-42499030D01*
X64381428Y-42490765D01*
X64405227Y-42484804D01*
X64429495Y-42481204D01*
X64453999Y-42480000D01*
X65104001Y-42480000D01*
X65128505Y-42481204D01*
X65128505Y-42481204D01*
G37*
D16*
X64779000Y-43180000D03*
D12*
G36*
X63078505Y-42481204D02*
G01*
X63102773Y-42484804D01*
X63126572Y-42490765D01*
X63149671Y-42499030D01*
X63171850Y-42509520D01*
X63192893Y-42522132D01*
X63212599Y-42536747D01*
X63230777Y-42553223D01*
X63247253Y-42571401D01*
X63261868Y-42591107D01*
X63274480Y-42612150D01*
X63284970Y-42634329D01*
X63293235Y-42657428D01*
X63299196Y-42681227D01*
X63302796Y-42705495D01*
X63304000Y-42729999D01*
X63304000Y-43630001D01*
X63302796Y-43654505D01*
X63299196Y-43678773D01*
X63293235Y-43702572D01*
X63284970Y-43725671D01*
X63274480Y-43747850D01*
X63261868Y-43768893D01*
X63247253Y-43788599D01*
X63230777Y-43806777D01*
X63212599Y-43823253D01*
X63192893Y-43837868D01*
X63171850Y-43850480D01*
X63149671Y-43860970D01*
X63126572Y-43869235D01*
X63102773Y-43875196D01*
X63078505Y-43878796D01*
X63054001Y-43880000D01*
X62403999Y-43880000D01*
X62379495Y-43878796D01*
X62355227Y-43875196D01*
X62331428Y-43869235D01*
X62308329Y-43860970D01*
X62286150Y-43850480D01*
X62265107Y-43837868D01*
X62245401Y-43823253D01*
X62227223Y-43806777D01*
X62210747Y-43788599D01*
X62196132Y-43768893D01*
X62183520Y-43747850D01*
X62173030Y-43725671D01*
X62164765Y-43702572D01*
X62158804Y-43678773D01*
X62155204Y-43654505D01*
X62154000Y-43630001D01*
X62154000Y-42729999D01*
X62155204Y-42705495D01*
X62158804Y-42681227D01*
X62164765Y-42657428D01*
X62173030Y-42634329D01*
X62183520Y-42612150D01*
X62196132Y-42591107D01*
X62210747Y-42571401D01*
X62227223Y-42553223D01*
X62245401Y-42536747D01*
X62265107Y-42522132D01*
X62286150Y-42509520D01*
X62308329Y-42499030D01*
X62331428Y-42490765D01*
X62355227Y-42484804D01*
X62379495Y-42481204D01*
X62403999Y-42480000D01*
X63054001Y-42480000D01*
X63078505Y-42481204D01*
X63078505Y-42481204D01*
G37*
D16*
X62729000Y-43180000D03*
D12*
G36*
X83534505Y-56578204D02*
G01*
X83558773Y-56581804D01*
X83582572Y-56587765D01*
X83605671Y-56596030D01*
X83627850Y-56606520D01*
X83648893Y-56619132D01*
X83668599Y-56633747D01*
X83686777Y-56650223D01*
X83703253Y-56668401D01*
X83717868Y-56688107D01*
X83730480Y-56709150D01*
X83740970Y-56731329D01*
X83749235Y-56754428D01*
X83755196Y-56778227D01*
X83758796Y-56802495D01*
X83760000Y-56826999D01*
X83760000Y-57727001D01*
X83758796Y-57751505D01*
X83755196Y-57775773D01*
X83749235Y-57799572D01*
X83740970Y-57822671D01*
X83730480Y-57844850D01*
X83717868Y-57865893D01*
X83703253Y-57885599D01*
X83686777Y-57903777D01*
X83668599Y-57920253D01*
X83648893Y-57934868D01*
X83627850Y-57947480D01*
X83605671Y-57957970D01*
X83582572Y-57966235D01*
X83558773Y-57972196D01*
X83534505Y-57975796D01*
X83510001Y-57977000D01*
X82859999Y-57977000D01*
X82835495Y-57975796D01*
X82811227Y-57972196D01*
X82787428Y-57966235D01*
X82764329Y-57957970D01*
X82742150Y-57947480D01*
X82721107Y-57934868D01*
X82701401Y-57920253D01*
X82683223Y-57903777D01*
X82666747Y-57885599D01*
X82652132Y-57865893D01*
X82639520Y-57844850D01*
X82629030Y-57822671D01*
X82620765Y-57799572D01*
X82614804Y-57775773D01*
X82611204Y-57751505D01*
X82610000Y-57727001D01*
X82610000Y-56826999D01*
X82611204Y-56802495D01*
X82614804Y-56778227D01*
X82620765Y-56754428D01*
X82629030Y-56731329D01*
X82639520Y-56709150D01*
X82652132Y-56688107D01*
X82666747Y-56668401D01*
X82683223Y-56650223D01*
X82701401Y-56633747D01*
X82721107Y-56619132D01*
X82742150Y-56606520D01*
X82764329Y-56596030D01*
X82787428Y-56587765D01*
X82811227Y-56581804D01*
X82835495Y-56578204D01*
X82859999Y-56577000D01*
X83510001Y-56577000D01*
X83534505Y-56578204D01*
X83534505Y-56578204D01*
G37*
D16*
X83185000Y-57277000D03*
D12*
G36*
X85584505Y-56578204D02*
G01*
X85608773Y-56581804D01*
X85632572Y-56587765D01*
X85655671Y-56596030D01*
X85677850Y-56606520D01*
X85698893Y-56619132D01*
X85718599Y-56633747D01*
X85736777Y-56650223D01*
X85753253Y-56668401D01*
X85767868Y-56688107D01*
X85780480Y-56709150D01*
X85790970Y-56731329D01*
X85799235Y-56754428D01*
X85805196Y-56778227D01*
X85808796Y-56802495D01*
X85810000Y-56826999D01*
X85810000Y-57727001D01*
X85808796Y-57751505D01*
X85805196Y-57775773D01*
X85799235Y-57799572D01*
X85790970Y-57822671D01*
X85780480Y-57844850D01*
X85767868Y-57865893D01*
X85753253Y-57885599D01*
X85736777Y-57903777D01*
X85718599Y-57920253D01*
X85698893Y-57934868D01*
X85677850Y-57947480D01*
X85655671Y-57957970D01*
X85632572Y-57966235D01*
X85608773Y-57972196D01*
X85584505Y-57975796D01*
X85560001Y-57977000D01*
X84909999Y-57977000D01*
X84885495Y-57975796D01*
X84861227Y-57972196D01*
X84837428Y-57966235D01*
X84814329Y-57957970D01*
X84792150Y-57947480D01*
X84771107Y-57934868D01*
X84751401Y-57920253D01*
X84733223Y-57903777D01*
X84716747Y-57885599D01*
X84702132Y-57865893D01*
X84689520Y-57844850D01*
X84679030Y-57822671D01*
X84670765Y-57799572D01*
X84664804Y-57775773D01*
X84661204Y-57751505D01*
X84660000Y-57727001D01*
X84660000Y-56826999D01*
X84661204Y-56802495D01*
X84664804Y-56778227D01*
X84670765Y-56754428D01*
X84679030Y-56731329D01*
X84689520Y-56709150D01*
X84702132Y-56688107D01*
X84716747Y-56668401D01*
X84733223Y-56650223D01*
X84751401Y-56633747D01*
X84771107Y-56619132D01*
X84792150Y-56606520D01*
X84814329Y-56596030D01*
X84837428Y-56587765D01*
X84861227Y-56581804D01*
X84885495Y-56578204D01*
X84909999Y-56577000D01*
X85560001Y-56577000D01*
X85584505Y-56578204D01*
X85584505Y-56578204D01*
G37*
D16*
X85235000Y-57277000D03*
D12*
G36*
X92549505Y-52394204D02*
G01*
X92573773Y-52397804D01*
X92597572Y-52403765D01*
X92620671Y-52412030D01*
X92642850Y-52422520D01*
X92663893Y-52435132D01*
X92683599Y-52449747D01*
X92701777Y-52466223D01*
X92718253Y-52484401D01*
X92732868Y-52504107D01*
X92745480Y-52525150D01*
X92755970Y-52547329D01*
X92764235Y-52570428D01*
X92770196Y-52594227D01*
X92773796Y-52618495D01*
X92775000Y-52642999D01*
X92775000Y-53293001D01*
X92773796Y-53317505D01*
X92770196Y-53341773D01*
X92764235Y-53365572D01*
X92755970Y-53388671D01*
X92745480Y-53410850D01*
X92732868Y-53431893D01*
X92718253Y-53451599D01*
X92701777Y-53469777D01*
X92683599Y-53486253D01*
X92663893Y-53500868D01*
X92642850Y-53513480D01*
X92620671Y-53523970D01*
X92597572Y-53532235D01*
X92573773Y-53538196D01*
X92549505Y-53541796D01*
X92525001Y-53543000D01*
X91624999Y-53543000D01*
X91600495Y-53541796D01*
X91576227Y-53538196D01*
X91552428Y-53532235D01*
X91529329Y-53523970D01*
X91507150Y-53513480D01*
X91486107Y-53500868D01*
X91466401Y-53486253D01*
X91448223Y-53469777D01*
X91431747Y-53451599D01*
X91417132Y-53431893D01*
X91404520Y-53410850D01*
X91394030Y-53388671D01*
X91385765Y-53365572D01*
X91379804Y-53341773D01*
X91376204Y-53317505D01*
X91375000Y-53293001D01*
X91375000Y-52642999D01*
X91376204Y-52618495D01*
X91379804Y-52594227D01*
X91385765Y-52570428D01*
X91394030Y-52547329D01*
X91404520Y-52525150D01*
X91417132Y-52504107D01*
X91431747Y-52484401D01*
X91448223Y-52466223D01*
X91466401Y-52449747D01*
X91486107Y-52435132D01*
X91507150Y-52422520D01*
X91529329Y-52412030D01*
X91552428Y-52403765D01*
X91576227Y-52397804D01*
X91600495Y-52394204D01*
X91624999Y-52393000D01*
X92525001Y-52393000D01*
X92549505Y-52394204D01*
X92549505Y-52394204D01*
G37*
D16*
X92075000Y-52968000D03*
D12*
G36*
X92549505Y-50344204D02*
G01*
X92573773Y-50347804D01*
X92597572Y-50353765D01*
X92620671Y-50362030D01*
X92642850Y-50372520D01*
X92663893Y-50385132D01*
X92683599Y-50399747D01*
X92701777Y-50416223D01*
X92718253Y-50434401D01*
X92732868Y-50454107D01*
X92745480Y-50475150D01*
X92755970Y-50497329D01*
X92764235Y-50520428D01*
X92770196Y-50544227D01*
X92773796Y-50568495D01*
X92775000Y-50592999D01*
X92775000Y-51243001D01*
X92773796Y-51267505D01*
X92770196Y-51291773D01*
X92764235Y-51315572D01*
X92755970Y-51338671D01*
X92745480Y-51360850D01*
X92732868Y-51381893D01*
X92718253Y-51401599D01*
X92701777Y-51419777D01*
X92683599Y-51436253D01*
X92663893Y-51450868D01*
X92642850Y-51463480D01*
X92620671Y-51473970D01*
X92597572Y-51482235D01*
X92573773Y-51488196D01*
X92549505Y-51491796D01*
X92525001Y-51493000D01*
X91624999Y-51493000D01*
X91600495Y-51491796D01*
X91576227Y-51488196D01*
X91552428Y-51482235D01*
X91529329Y-51473970D01*
X91507150Y-51463480D01*
X91486107Y-51450868D01*
X91466401Y-51436253D01*
X91448223Y-51419777D01*
X91431747Y-51401599D01*
X91417132Y-51381893D01*
X91404520Y-51360850D01*
X91394030Y-51338671D01*
X91385765Y-51315572D01*
X91379804Y-51291773D01*
X91376204Y-51267505D01*
X91375000Y-51243001D01*
X91375000Y-50592999D01*
X91376204Y-50568495D01*
X91379804Y-50544227D01*
X91385765Y-50520428D01*
X91394030Y-50497329D01*
X91404520Y-50475150D01*
X91417132Y-50454107D01*
X91431747Y-50434401D01*
X91448223Y-50416223D01*
X91466401Y-50399747D01*
X91486107Y-50385132D01*
X91507150Y-50372520D01*
X91529329Y-50362030D01*
X91552428Y-50353765D01*
X91576227Y-50347804D01*
X91600495Y-50344204D01*
X91624999Y-50343000D01*
X92525001Y-50343000D01*
X92549505Y-50344204D01*
X92549505Y-50344204D01*
G37*
D16*
X92075000Y-50918000D03*
D12*
G36*
X78960505Y-51260204D02*
G01*
X78984773Y-51263804D01*
X79008572Y-51269765D01*
X79031671Y-51278030D01*
X79053850Y-51288520D01*
X79074893Y-51301132D01*
X79094599Y-51315747D01*
X79112777Y-51332223D01*
X79129253Y-51350401D01*
X79143868Y-51370107D01*
X79156480Y-51391150D01*
X79166970Y-51413329D01*
X79175235Y-51436428D01*
X79181196Y-51460227D01*
X79184796Y-51484495D01*
X79186000Y-51508999D01*
X79186000Y-52159001D01*
X79184796Y-52183505D01*
X79181196Y-52207773D01*
X79175235Y-52231572D01*
X79166970Y-52254671D01*
X79156480Y-52276850D01*
X79143868Y-52297893D01*
X79129253Y-52317599D01*
X79112777Y-52335777D01*
X79094599Y-52352253D01*
X79074893Y-52366868D01*
X79053850Y-52379480D01*
X79031671Y-52389970D01*
X79008572Y-52398235D01*
X78984773Y-52404196D01*
X78960505Y-52407796D01*
X78936001Y-52409000D01*
X78035999Y-52409000D01*
X78011495Y-52407796D01*
X77987227Y-52404196D01*
X77963428Y-52398235D01*
X77940329Y-52389970D01*
X77918150Y-52379480D01*
X77897107Y-52366868D01*
X77877401Y-52352253D01*
X77859223Y-52335777D01*
X77842747Y-52317599D01*
X77828132Y-52297893D01*
X77815520Y-52276850D01*
X77805030Y-52254671D01*
X77796765Y-52231572D01*
X77790804Y-52207773D01*
X77787204Y-52183505D01*
X77786000Y-52159001D01*
X77786000Y-51508999D01*
X77787204Y-51484495D01*
X77790804Y-51460227D01*
X77796765Y-51436428D01*
X77805030Y-51413329D01*
X77815520Y-51391150D01*
X77828132Y-51370107D01*
X77842747Y-51350401D01*
X77859223Y-51332223D01*
X77877401Y-51315747D01*
X77897107Y-51301132D01*
X77918150Y-51288520D01*
X77940329Y-51278030D01*
X77963428Y-51269765D01*
X77987227Y-51263804D01*
X78011495Y-51260204D01*
X78035999Y-51259000D01*
X78936001Y-51259000D01*
X78960505Y-51260204D01*
X78960505Y-51260204D01*
G37*
D16*
X78486000Y-51834000D03*
D12*
G36*
X78960505Y-49210204D02*
G01*
X78984773Y-49213804D01*
X79008572Y-49219765D01*
X79031671Y-49228030D01*
X79053850Y-49238520D01*
X79074893Y-49251132D01*
X79094599Y-49265747D01*
X79112777Y-49282223D01*
X79129253Y-49300401D01*
X79143868Y-49320107D01*
X79156480Y-49341150D01*
X79166970Y-49363329D01*
X79175235Y-49386428D01*
X79181196Y-49410227D01*
X79184796Y-49434495D01*
X79186000Y-49458999D01*
X79186000Y-50109001D01*
X79184796Y-50133505D01*
X79181196Y-50157773D01*
X79175235Y-50181572D01*
X79166970Y-50204671D01*
X79156480Y-50226850D01*
X79143868Y-50247893D01*
X79129253Y-50267599D01*
X79112777Y-50285777D01*
X79094599Y-50302253D01*
X79074893Y-50316868D01*
X79053850Y-50329480D01*
X79031671Y-50339970D01*
X79008572Y-50348235D01*
X78984773Y-50354196D01*
X78960505Y-50357796D01*
X78936001Y-50359000D01*
X78035999Y-50359000D01*
X78011495Y-50357796D01*
X77987227Y-50354196D01*
X77963428Y-50348235D01*
X77940329Y-50339970D01*
X77918150Y-50329480D01*
X77897107Y-50316868D01*
X77877401Y-50302253D01*
X77859223Y-50285777D01*
X77842747Y-50267599D01*
X77828132Y-50247893D01*
X77815520Y-50226850D01*
X77805030Y-50204671D01*
X77796765Y-50181572D01*
X77790804Y-50157773D01*
X77787204Y-50133505D01*
X77786000Y-50109001D01*
X77786000Y-49458999D01*
X77787204Y-49434495D01*
X77790804Y-49410227D01*
X77796765Y-49386428D01*
X77805030Y-49363329D01*
X77815520Y-49341150D01*
X77828132Y-49320107D01*
X77842747Y-49300401D01*
X77859223Y-49282223D01*
X77877401Y-49265747D01*
X77897107Y-49251132D01*
X77918150Y-49238520D01*
X77940329Y-49228030D01*
X77963428Y-49219765D01*
X77987227Y-49213804D01*
X78011495Y-49210204D01*
X78035999Y-49209000D01*
X78936001Y-49209000D01*
X78960505Y-49210204D01*
X78960505Y-49210204D01*
G37*
D16*
X78486000Y-49784000D03*
D12*
G36*
X84472305Y-41242004D02*
G01*
X84496573Y-41245604D01*
X84520372Y-41251565D01*
X84543471Y-41259830D01*
X84565650Y-41270320D01*
X84586693Y-41282932D01*
X84606399Y-41297547D01*
X84624577Y-41314023D01*
X84641053Y-41332201D01*
X84655668Y-41351907D01*
X84668280Y-41372950D01*
X84678770Y-41395129D01*
X84687035Y-41418228D01*
X84692996Y-41442027D01*
X84696596Y-41466295D01*
X84697800Y-41490799D01*
X84697800Y-42140801D01*
X84696596Y-42165305D01*
X84692996Y-42189573D01*
X84687035Y-42213372D01*
X84678770Y-42236471D01*
X84668280Y-42258650D01*
X84655668Y-42279693D01*
X84641053Y-42299399D01*
X84624577Y-42317577D01*
X84606399Y-42334053D01*
X84586693Y-42348668D01*
X84565650Y-42361280D01*
X84543471Y-42371770D01*
X84520372Y-42380035D01*
X84496573Y-42385996D01*
X84472305Y-42389596D01*
X84447801Y-42390800D01*
X83547799Y-42390800D01*
X83523295Y-42389596D01*
X83499027Y-42385996D01*
X83475228Y-42380035D01*
X83452129Y-42371770D01*
X83429950Y-42361280D01*
X83408907Y-42348668D01*
X83389201Y-42334053D01*
X83371023Y-42317577D01*
X83354547Y-42299399D01*
X83339932Y-42279693D01*
X83327320Y-42258650D01*
X83316830Y-42236471D01*
X83308565Y-42213372D01*
X83302604Y-42189573D01*
X83299004Y-42165305D01*
X83297800Y-42140801D01*
X83297800Y-41490799D01*
X83299004Y-41466295D01*
X83302604Y-41442027D01*
X83308565Y-41418228D01*
X83316830Y-41395129D01*
X83327320Y-41372950D01*
X83339932Y-41351907D01*
X83354547Y-41332201D01*
X83371023Y-41314023D01*
X83389201Y-41297547D01*
X83408907Y-41282932D01*
X83429950Y-41270320D01*
X83452129Y-41259830D01*
X83475228Y-41251565D01*
X83499027Y-41245604D01*
X83523295Y-41242004D01*
X83547799Y-41240800D01*
X84447801Y-41240800D01*
X84472305Y-41242004D01*
X84472305Y-41242004D01*
G37*
D16*
X83997800Y-41815800D03*
D12*
G36*
X84472305Y-43292004D02*
G01*
X84496573Y-43295604D01*
X84520372Y-43301565D01*
X84543471Y-43309830D01*
X84565650Y-43320320D01*
X84586693Y-43332932D01*
X84606399Y-43347547D01*
X84624577Y-43364023D01*
X84641053Y-43382201D01*
X84655668Y-43401907D01*
X84668280Y-43422950D01*
X84678770Y-43445129D01*
X84687035Y-43468228D01*
X84692996Y-43492027D01*
X84696596Y-43516295D01*
X84697800Y-43540799D01*
X84697800Y-44190801D01*
X84696596Y-44215305D01*
X84692996Y-44239573D01*
X84687035Y-44263372D01*
X84678770Y-44286471D01*
X84668280Y-44308650D01*
X84655668Y-44329693D01*
X84641053Y-44349399D01*
X84624577Y-44367577D01*
X84606399Y-44384053D01*
X84586693Y-44398668D01*
X84565650Y-44411280D01*
X84543471Y-44421770D01*
X84520372Y-44430035D01*
X84496573Y-44435996D01*
X84472305Y-44439596D01*
X84447801Y-44440800D01*
X83547799Y-44440800D01*
X83523295Y-44439596D01*
X83499027Y-44435996D01*
X83475228Y-44430035D01*
X83452129Y-44421770D01*
X83429950Y-44411280D01*
X83408907Y-44398668D01*
X83389201Y-44384053D01*
X83371023Y-44367577D01*
X83354547Y-44349399D01*
X83339932Y-44329693D01*
X83327320Y-44308650D01*
X83316830Y-44286471D01*
X83308565Y-44263372D01*
X83302604Y-44239573D01*
X83299004Y-44215305D01*
X83297800Y-44190801D01*
X83297800Y-43540799D01*
X83299004Y-43516295D01*
X83302604Y-43492027D01*
X83308565Y-43468228D01*
X83316830Y-43445129D01*
X83327320Y-43422950D01*
X83339932Y-43401907D01*
X83354547Y-43382201D01*
X83371023Y-43364023D01*
X83389201Y-43347547D01*
X83408907Y-43332932D01*
X83429950Y-43320320D01*
X83452129Y-43309830D01*
X83475228Y-43301565D01*
X83499027Y-43295604D01*
X83523295Y-43292004D01*
X83547799Y-43290800D01*
X84447801Y-43290800D01*
X84472305Y-43292004D01*
X84472305Y-43292004D01*
G37*
D16*
X83997800Y-43865800D03*
D12*
G36*
X90314305Y-41242004D02*
G01*
X90338573Y-41245604D01*
X90362372Y-41251565D01*
X90385471Y-41259830D01*
X90407650Y-41270320D01*
X90428693Y-41282932D01*
X90448399Y-41297547D01*
X90466577Y-41314023D01*
X90483053Y-41332201D01*
X90497668Y-41351907D01*
X90510280Y-41372950D01*
X90520770Y-41395129D01*
X90529035Y-41418228D01*
X90534996Y-41442027D01*
X90538596Y-41466295D01*
X90539800Y-41490799D01*
X90539800Y-42140801D01*
X90538596Y-42165305D01*
X90534996Y-42189573D01*
X90529035Y-42213372D01*
X90520770Y-42236471D01*
X90510280Y-42258650D01*
X90497668Y-42279693D01*
X90483053Y-42299399D01*
X90466577Y-42317577D01*
X90448399Y-42334053D01*
X90428693Y-42348668D01*
X90407650Y-42361280D01*
X90385471Y-42371770D01*
X90362372Y-42380035D01*
X90338573Y-42385996D01*
X90314305Y-42389596D01*
X90289801Y-42390800D01*
X89389799Y-42390800D01*
X89365295Y-42389596D01*
X89341027Y-42385996D01*
X89317228Y-42380035D01*
X89294129Y-42371770D01*
X89271950Y-42361280D01*
X89250907Y-42348668D01*
X89231201Y-42334053D01*
X89213023Y-42317577D01*
X89196547Y-42299399D01*
X89181932Y-42279693D01*
X89169320Y-42258650D01*
X89158830Y-42236471D01*
X89150565Y-42213372D01*
X89144604Y-42189573D01*
X89141004Y-42165305D01*
X89139800Y-42140801D01*
X89139800Y-41490799D01*
X89141004Y-41466295D01*
X89144604Y-41442027D01*
X89150565Y-41418228D01*
X89158830Y-41395129D01*
X89169320Y-41372950D01*
X89181932Y-41351907D01*
X89196547Y-41332201D01*
X89213023Y-41314023D01*
X89231201Y-41297547D01*
X89250907Y-41282932D01*
X89271950Y-41270320D01*
X89294129Y-41259830D01*
X89317228Y-41251565D01*
X89341027Y-41245604D01*
X89365295Y-41242004D01*
X89389799Y-41240800D01*
X90289801Y-41240800D01*
X90314305Y-41242004D01*
X90314305Y-41242004D01*
G37*
D16*
X89839800Y-41815800D03*
D12*
G36*
X90314305Y-43292004D02*
G01*
X90338573Y-43295604D01*
X90362372Y-43301565D01*
X90385471Y-43309830D01*
X90407650Y-43320320D01*
X90428693Y-43332932D01*
X90448399Y-43347547D01*
X90466577Y-43364023D01*
X90483053Y-43382201D01*
X90497668Y-43401907D01*
X90510280Y-43422950D01*
X90520770Y-43445129D01*
X90529035Y-43468228D01*
X90534996Y-43492027D01*
X90538596Y-43516295D01*
X90539800Y-43540799D01*
X90539800Y-44190801D01*
X90538596Y-44215305D01*
X90534996Y-44239573D01*
X90529035Y-44263372D01*
X90520770Y-44286471D01*
X90510280Y-44308650D01*
X90497668Y-44329693D01*
X90483053Y-44349399D01*
X90466577Y-44367577D01*
X90448399Y-44384053D01*
X90428693Y-44398668D01*
X90407650Y-44411280D01*
X90385471Y-44421770D01*
X90362372Y-44430035D01*
X90338573Y-44435996D01*
X90314305Y-44439596D01*
X90289801Y-44440800D01*
X89389799Y-44440800D01*
X89365295Y-44439596D01*
X89341027Y-44435996D01*
X89317228Y-44430035D01*
X89294129Y-44421770D01*
X89271950Y-44411280D01*
X89250907Y-44398668D01*
X89231201Y-44384053D01*
X89213023Y-44367577D01*
X89196547Y-44349399D01*
X89181932Y-44329693D01*
X89169320Y-44308650D01*
X89158830Y-44286471D01*
X89150565Y-44263372D01*
X89144604Y-44239573D01*
X89141004Y-44215305D01*
X89139800Y-44190801D01*
X89139800Y-43540799D01*
X89141004Y-43516295D01*
X89144604Y-43492027D01*
X89150565Y-43468228D01*
X89158830Y-43445129D01*
X89169320Y-43422950D01*
X89181932Y-43401907D01*
X89196547Y-43382201D01*
X89213023Y-43364023D01*
X89231201Y-43347547D01*
X89250907Y-43332932D01*
X89271950Y-43320320D01*
X89294129Y-43309830D01*
X89317228Y-43301565D01*
X89341027Y-43295604D01*
X89365295Y-43292004D01*
X89389799Y-43290800D01*
X90289801Y-43290800D01*
X90314305Y-43292004D01*
X90314305Y-43292004D01*
G37*
D16*
X89839800Y-43865800D03*
D12*
G36*
X77066505Y-55689204D02*
G01*
X77090773Y-55692804D01*
X77114572Y-55698765D01*
X77137671Y-55707030D01*
X77159850Y-55717520D01*
X77180893Y-55730132D01*
X77200599Y-55744747D01*
X77218777Y-55761223D01*
X77235253Y-55779401D01*
X77249868Y-55799107D01*
X77262480Y-55820150D01*
X77272970Y-55842329D01*
X77281235Y-55865428D01*
X77287196Y-55889227D01*
X77290796Y-55913495D01*
X77292000Y-55937999D01*
X77292000Y-56838001D01*
X77290796Y-56862505D01*
X77287196Y-56886773D01*
X77281235Y-56910572D01*
X77272970Y-56933671D01*
X77262480Y-56955850D01*
X77249868Y-56976893D01*
X77235253Y-56996599D01*
X77218777Y-57014777D01*
X77200599Y-57031253D01*
X77180893Y-57045868D01*
X77159850Y-57058480D01*
X77137671Y-57068970D01*
X77114572Y-57077235D01*
X77090773Y-57083196D01*
X77066505Y-57086796D01*
X77042001Y-57088000D01*
X76391999Y-57088000D01*
X76367495Y-57086796D01*
X76343227Y-57083196D01*
X76319428Y-57077235D01*
X76296329Y-57068970D01*
X76274150Y-57058480D01*
X76253107Y-57045868D01*
X76233401Y-57031253D01*
X76215223Y-57014777D01*
X76198747Y-56996599D01*
X76184132Y-56976893D01*
X76171520Y-56955850D01*
X76161030Y-56933671D01*
X76152765Y-56910572D01*
X76146804Y-56886773D01*
X76143204Y-56862505D01*
X76142000Y-56838001D01*
X76142000Y-55937999D01*
X76143204Y-55913495D01*
X76146804Y-55889227D01*
X76152765Y-55865428D01*
X76161030Y-55842329D01*
X76171520Y-55820150D01*
X76184132Y-55799107D01*
X76198747Y-55779401D01*
X76215223Y-55761223D01*
X76233401Y-55744747D01*
X76253107Y-55730132D01*
X76274150Y-55717520D01*
X76296329Y-55707030D01*
X76319428Y-55698765D01*
X76343227Y-55692804D01*
X76367495Y-55689204D01*
X76391999Y-55688000D01*
X77042001Y-55688000D01*
X77066505Y-55689204D01*
X77066505Y-55689204D01*
G37*
D16*
X76717000Y-56388000D03*
D12*
G36*
X75016505Y-55689204D02*
G01*
X75040773Y-55692804D01*
X75064572Y-55698765D01*
X75087671Y-55707030D01*
X75109850Y-55717520D01*
X75130893Y-55730132D01*
X75150599Y-55744747D01*
X75168777Y-55761223D01*
X75185253Y-55779401D01*
X75199868Y-55799107D01*
X75212480Y-55820150D01*
X75222970Y-55842329D01*
X75231235Y-55865428D01*
X75237196Y-55889227D01*
X75240796Y-55913495D01*
X75242000Y-55937999D01*
X75242000Y-56838001D01*
X75240796Y-56862505D01*
X75237196Y-56886773D01*
X75231235Y-56910572D01*
X75222970Y-56933671D01*
X75212480Y-56955850D01*
X75199868Y-56976893D01*
X75185253Y-56996599D01*
X75168777Y-57014777D01*
X75150599Y-57031253D01*
X75130893Y-57045868D01*
X75109850Y-57058480D01*
X75087671Y-57068970D01*
X75064572Y-57077235D01*
X75040773Y-57083196D01*
X75016505Y-57086796D01*
X74992001Y-57088000D01*
X74341999Y-57088000D01*
X74317495Y-57086796D01*
X74293227Y-57083196D01*
X74269428Y-57077235D01*
X74246329Y-57068970D01*
X74224150Y-57058480D01*
X74203107Y-57045868D01*
X74183401Y-57031253D01*
X74165223Y-57014777D01*
X74148747Y-56996599D01*
X74134132Y-56976893D01*
X74121520Y-56955850D01*
X74111030Y-56933671D01*
X74102765Y-56910572D01*
X74096804Y-56886773D01*
X74093204Y-56862505D01*
X74092000Y-56838001D01*
X74092000Y-55937999D01*
X74093204Y-55913495D01*
X74096804Y-55889227D01*
X74102765Y-55865428D01*
X74111030Y-55842329D01*
X74121520Y-55820150D01*
X74134132Y-55799107D01*
X74148747Y-55779401D01*
X74165223Y-55761223D01*
X74183401Y-55744747D01*
X74203107Y-55730132D01*
X74224150Y-55717520D01*
X74246329Y-55707030D01*
X74269428Y-55698765D01*
X74293227Y-55692804D01*
X74317495Y-55689204D01*
X74341999Y-55688000D01*
X74992001Y-55688000D01*
X75016505Y-55689204D01*
X75016505Y-55689204D01*
G37*
D16*
X74667000Y-56388000D03*
M02*
