G04 #@! TF.GenerationSoftware,KiCad,Pcbnew,(5.1.4)-1*
G04 #@! TF.CreationDate,2020-02-08T13:17:21-05:00*
G04 #@! TF.ProjectId,Torchic,546f7263-6869-4632-9e6b-696361645f70,rev?*
G04 #@! TF.SameCoordinates,Original*
G04 #@! TF.FileFunction,Copper,L1,Top*
G04 #@! TF.FilePolarity,Positive*
%FSLAX46Y46*%
G04 Gerber Fmt 4.6, Leading zero omitted, Abs format (unit mm)*
G04 Created by KiCad (PCBNEW (5.1.4)-1) date 2020-02-08 13:17:21*
%MOMM*%
%LPD*%
G04 APERTURE LIST*
%ADD10O,1.950000X1.700000*%
%ADD11C,0.100000*%
%ADD12C,1.700000*%
%ADD13C,1.425000*%
%ADD14R,0.800000X1.500000*%
%ADD15C,0.600000*%
%ADD16C,1.150000*%
%ADD17R,0.550000X1.600000*%
%ADD18R,1.600000X0.550000*%
%ADD19C,1.000000*%
%ADD20O,1.700000X1.700000*%
%ADD21R,1.700000X1.700000*%
%ADD22C,0.800000*%
%ADD23C,0.508000*%
%ADD24C,0.635000*%
%ADD25C,0.762000*%
%ADD26C,0.250000*%
G04 APERTURE END LIST*
D10*
X96139000Y-49189000D03*
X96139000Y-51689000D03*
X96139000Y-54189000D03*
D11*
G36*
X96888504Y-55840204D02*
G01*
X96912773Y-55843804D01*
X96936571Y-55849765D01*
X96959671Y-55858030D01*
X96981849Y-55868520D01*
X97002893Y-55881133D01*
X97022598Y-55895747D01*
X97040777Y-55912223D01*
X97057253Y-55930402D01*
X97071867Y-55950107D01*
X97084480Y-55971151D01*
X97094970Y-55993329D01*
X97103235Y-56016429D01*
X97109196Y-56040227D01*
X97112796Y-56064496D01*
X97114000Y-56089000D01*
X97114000Y-57289000D01*
X97112796Y-57313504D01*
X97109196Y-57337773D01*
X97103235Y-57361571D01*
X97094970Y-57384671D01*
X97084480Y-57406849D01*
X97071867Y-57427893D01*
X97057253Y-57447598D01*
X97040777Y-57465777D01*
X97022598Y-57482253D01*
X97002893Y-57496867D01*
X96981849Y-57509480D01*
X96959671Y-57519970D01*
X96936571Y-57528235D01*
X96912773Y-57534196D01*
X96888504Y-57537796D01*
X96864000Y-57539000D01*
X95414000Y-57539000D01*
X95389496Y-57537796D01*
X95365227Y-57534196D01*
X95341429Y-57528235D01*
X95318329Y-57519970D01*
X95296151Y-57509480D01*
X95275107Y-57496867D01*
X95255402Y-57482253D01*
X95237223Y-57465777D01*
X95220747Y-57447598D01*
X95206133Y-57427893D01*
X95193520Y-57406849D01*
X95183030Y-57384671D01*
X95174765Y-57361571D01*
X95168804Y-57337773D01*
X95165204Y-57313504D01*
X95164000Y-57289000D01*
X95164000Y-56089000D01*
X95165204Y-56064496D01*
X95168804Y-56040227D01*
X95174765Y-56016429D01*
X95183030Y-55993329D01*
X95193520Y-55971151D01*
X95206133Y-55950107D01*
X95220747Y-55930402D01*
X95237223Y-55912223D01*
X95255402Y-55895747D01*
X95275107Y-55881133D01*
X95296151Y-55868520D01*
X95318329Y-55858030D01*
X95341429Y-55849765D01*
X95365227Y-55843804D01*
X95389496Y-55840204D01*
X95414000Y-55839000D01*
X96864000Y-55839000D01*
X96888504Y-55840204D01*
X96888504Y-55840204D01*
G37*
D12*
X96139000Y-56689000D03*
D11*
G36*
X78138004Y-57731204D02*
G01*
X78162273Y-57734804D01*
X78186071Y-57740765D01*
X78209171Y-57749030D01*
X78231349Y-57759520D01*
X78252393Y-57772133D01*
X78272098Y-57786747D01*
X78290277Y-57803223D01*
X78306753Y-57821402D01*
X78321367Y-57841107D01*
X78333980Y-57862151D01*
X78344470Y-57884329D01*
X78352735Y-57907429D01*
X78358696Y-57931227D01*
X78362296Y-57955496D01*
X78363500Y-57980000D01*
X78363500Y-60130000D01*
X78362296Y-60154504D01*
X78358696Y-60178773D01*
X78352735Y-60202571D01*
X78344470Y-60225671D01*
X78333980Y-60247849D01*
X78321367Y-60268893D01*
X78306753Y-60288598D01*
X78290277Y-60306777D01*
X78272098Y-60323253D01*
X78252393Y-60337867D01*
X78231349Y-60350480D01*
X78209171Y-60360970D01*
X78186071Y-60369235D01*
X78162273Y-60375196D01*
X78138004Y-60378796D01*
X78113500Y-60380000D01*
X77188500Y-60380000D01*
X77163996Y-60378796D01*
X77139727Y-60375196D01*
X77115929Y-60369235D01*
X77092829Y-60360970D01*
X77070651Y-60350480D01*
X77049607Y-60337867D01*
X77029902Y-60323253D01*
X77011723Y-60306777D01*
X76995247Y-60288598D01*
X76980633Y-60268893D01*
X76968020Y-60247849D01*
X76957530Y-60225671D01*
X76949265Y-60202571D01*
X76943304Y-60178773D01*
X76939704Y-60154504D01*
X76938500Y-60130000D01*
X76938500Y-57980000D01*
X76939704Y-57955496D01*
X76943304Y-57931227D01*
X76949265Y-57907429D01*
X76957530Y-57884329D01*
X76968020Y-57862151D01*
X76980633Y-57841107D01*
X76995247Y-57821402D01*
X77011723Y-57803223D01*
X77029902Y-57786747D01*
X77049607Y-57772133D01*
X77070651Y-57759520D01*
X77092829Y-57749030D01*
X77115929Y-57740765D01*
X77139727Y-57734804D01*
X77163996Y-57731204D01*
X77188500Y-57730000D01*
X78113500Y-57730000D01*
X78138004Y-57731204D01*
X78138004Y-57731204D01*
G37*
D13*
X77651000Y-59055000D03*
D11*
G36*
X75163004Y-57731204D02*
G01*
X75187273Y-57734804D01*
X75211071Y-57740765D01*
X75234171Y-57749030D01*
X75256349Y-57759520D01*
X75277393Y-57772133D01*
X75297098Y-57786747D01*
X75315277Y-57803223D01*
X75331753Y-57821402D01*
X75346367Y-57841107D01*
X75358980Y-57862151D01*
X75369470Y-57884329D01*
X75377735Y-57907429D01*
X75383696Y-57931227D01*
X75387296Y-57955496D01*
X75388500Y-57980000D01*
X75388500Y-60130000D01*
X75387296Y-60154504D01*
X75383696Y-60178773D01*
X75377735Y-60202571D01*
X75369470Y-60225671D01*
X75358980Y-60247849D01*
X75346367Y-60268893D01*
X75331753Y-60288598D01*
X75315277Y-60306777D01*
X75297098Y-60323253D01*
X75277393Y-60337867D01*
X75256349Y-60350480D01*
X75234171Y-60360970D01*
X75211071Y-60369235D01*
X75187273Y-60375196D01*
X75163004Y-60378796D01*
X75138500Y-60380000D01*
X74213500Y-60380000D01*
X74188996Y-60378796D01*
X74164727Y-60375196D01*
X74140929Y-60369235D01*
X74117829Y-60360970D01*
X74095651Y-60350480D01*
X74074607Y-60337867D01*
X74054902Y-60323253D01*
X74036723Y-60306777D01*
X74020247Y-60288598D01*
X74005633Y-60268893D01*
X73993020Y-60247849D01*
X73982530Y-60225671D01*
X73974265Y-60202571D01*
X73968304Y-60178773D01*
X73964704Y-60154504D01*
X73963500Y-60130000D01*
X73963500Y-57980000D01*
X73964704Y-57955496D01*
X73968304Y-57931227D01*
X73974265Y-57907429D01*
X73982530Y-57884329D01*
X73993020Y-57862151D01*
X74005633Y-57841107D01*
X74020247Y-57821402D01*
X74036723Y-57803223D01*
X74054902Y-57786747D01*
X74074607Y-57772133D01*
X74095651Y-57759520D01*
X74117829Y-57749030D01*
X74140929Y-57740765D01*
X74164727Y-57734804D01*
X74188996Y-57731204D01*
X74213500Y-57730000D01*
X75138500Y-57730000D01*
X75163004Y-57731204D01*
X75163004Y-57731204D01*
G37*
D13*
X74676000Y-59055000D03*
D11*
G36*
X89745504Y-59577204D02*
G01*
X89769773Y-59580804D01*
X89793571Y-59586765D01*
X89816671Y-59595030D01*
X89838849Y-59605520D01*
X89859893Y-59618133D01*
X89879598Y-59632747D01*
X89897777Y-59649223D01*
X89914253Y-59667402D01*
X89928867Y-59687107D01*
X89941480Y-59708151D01*
X89951970Y-59730329D01*
X89960235Y-59753429D01*
X89966196Y-59777227D01*
X89969796Y-59801496D01*
X89971000Y-59826000D01*
X89971000Y-60751000D01*
X89969796Y-60775504D01*
X89966196Y-60799773D01*
X89960235Y-60823571D01*
X89951970Y-60846671D01*
X89941480Y-60868849D01*
X89928867Y-60889893D01*
X89914253Y-60909598D01*
X89897777Y-60927777D01*
X89879598Y-60944253D01*
X89859893Y-60958867D01*
X89838849Y-60971480D01*
X89816671Y-60981970D01*
X89793571Y-60990235D01*
X89769773Y-60996196D01*
X89745504Y-60999796D01*
X89721000Y-61001000D01*
X87571000Y-61001000D01*
X87546496Y-60999796D01*
X87522227Y-60996196D01*
X87498429Y-60990235D01*
X87475329Y-60981970D01*
X87453151Y-60971480D01*
X87432107Y-60958867D01*
X87412402Y-60944253D01*
X87394223Y-60927777D01*
X87377747Y-60909598D01*
X87363133Y-60889893D01*
X87350520Y-60868849D01*
X87340030Y-60846671D01*
X87331765Y-60823571D01*
X87325804Y-60799773D01*
X87322204Y-60775504D01*
X87321000Y-60751000D01*
X87321000Y-59826000D01*
X87322204Y-59801496D01*
X87325804Y-59777227D01*
X87331765Y-59753429D01*
X87340030Y-59730329D01*
X87350520Y-59708151D01*
X87363133Y-59687107D01*
X87377747Y-59667402D01*
X87394223Y-59649223D01*
X87412402Y-59632747D01*
X87432107Y-59618133D01*
X87453151Y-59605520D01*
X87475329Y-59595030D01*
X87498429Y-59586765D01*
X87522227Y-59580804D01*
X87546496Y-59577204D01*
X87571000Y-59576000D01*
X89721000Y-59576000D01*
X89745504Y-59577204D01*
X89745504Y-59577204D01*
G37*
D13*
X88646000Y-60288500D03*
D11*
G36*
X89745504Y-56602204D02*
G01*
X89769773Y-56605804D01*
X89793571Y-56611765D01*
X89816671Y-56620030D01*
X89838849Y-56630520D01*
X89859893Y-56643133D01*
X89879598Y-56657747D01*
X89897777Y-56674223D01*
X89914253Y-56692402D01*
X89928867Y-56712107D01*
X89941480Y-56733151D01*
X89951970Y-56755329D01*
X89960235Y-56778429D01*
X89966196Y-56802227D01*
X89969796Y-56826496D01*
X89971000Y-56851000D01*
X89971000Y-57776000D01*
X89969796Y-57800504D01*
X89966196Y-57824773D01*
X89960235Y-57848571D01*
X89951970Y-57871671D01*
X89941480Y-57893849D01*
X89928867Y-57914893D01*
X89914253Y-57934598D01*
X89897777Y-57952777D01*
X89879598Y-57969253D01*
X89859893Y-57983867D01*
X89838849Y-57996480D01*
X89816671Y-58006970D01*
X89793571Y-58015235D01*
X89769773Y-58021196D01*
X89745504Y-58024796D01*
X89721000Y-58026000D01*
X87571000Y-58026000D01*
X87546496Y-58024796D01*
X87522227Y-58021196D01*
X87498429Y-58015235D01*
X87475329Y-58006970D01*
X87453151Y-57996480D01*
X87432107Y-57983867D01*
X87412402Y-57969253D01*
X87394223Y-57952777D01*
X87377747Y-57934598D01*
X87363133Y-57914893D01*
X87350520Y-57893849D01*
X87340030Y-57871671D01*
X87331765Y-57848571D01*
X87325804Y-57824773D01*
X87322204Y-57800504D01*
X87321000Y-57776000D01*
X87321000Y-56851000D01*
X87322204Y-56826496D01*
X87325804Y-56802227D01*
X87331765Y-56778429D01*
X87340030Y-56755329D01*
X87350520Y-56733151D01*
X87363133Y-56712107D01*
X87377747Y-56692402D01*
X87394223Y-56674223D01*
X87412402Y-56657747D01*
X87432107Y-56643133D01*
X87453151Y-56630520D01*
X87475329Y-56620030D01*
X87498429Y-56611765D01*
X87522227Y-56605804D01*
X87546496Y-56602204D01*
X87571000Y-56601000D01*
X89721000Y-56601000D01*
X89745504Y-56602204D01*
X89745504Y-56602204D01*
G37*
D13*
X88646000Y-57313500D03*
D14*
X87668800Y-43103800D03*
X86168800Y-43103800D03*
D11*
G36*
X63707703Y-55326722D02*
G01*
X63722264Y-55328882D01*
X63736543Y-55332459D01*
X63750403Y-55337418D01*
X63763710Y-55343712D01*
X63776336Y-55351280D01*
X63788159Y-55360048D01*
X63799066Y-55369934D01*
X63808952Y-55380841D01*
X63817720Y-55392664D01*
X63825288Y-55405290D01*
X63831582Y-55418597D01*
X63836541Y-55432457D01*
X63840118Y-55446736D01*
X63842278Y-55461297D01*
X63843000Y-55476000D01*
X63843000Y-55776000D01*
X63842278Y-55790703D01*
X63840118Y-55805264D01*
X63836541Y-55819543D01*
X63831582Y-55833403D01*
X63825288Y-55846710D01*
X63817720Y-55859336D01*
X63808952Y-55871159D01*
X63799066Y-55882066D01*
X63788159Y-55891952D01*
X63776336Y-55900720D01*
X63763710Y-55908288D01*
X63750403Y-55914582D01*
X63736543Y-55919541D01*
X63722264Y-55923118D01*
X63707703Y-55925278D01*
X63693000Y-55926000D01*
X62043000Y-55926000D01*
X62028297Y-55925278D01*
X62013736Y-55923118D01*
X61999457Y-55919541D01*
X61985597Y-55914582D01*
X61972290Y-55908288D01*
X61959664Y-55900720D01*
X61947841Y-55891952D01*
X61936934Y-55882066D01*
X61927048Y-55871159D01*
X61918280Y-55859336D01*
X61910712Y-55846710D01*
X61904418Y-55833403D01*
X61899459Y-55819543D01*
X61895882Y-55805264D01*
X61893722Y-55790703D01*
X61893000Y-55776000D01*
X61893000Y-55476000D01*
X61893722Y-55461297D01*
X61895882Y-55446736D01*
X61899459Y-55432457D01*
X61904418Y-55418597D01*
X61910712Y-55405290D01*
X61918280Y-55392664D01*
X61927048Y-55380841D01*
X61936934Y-55369934D01*
X61947841Y-55360048D01*
X61959664Y-55351280D01*
X61972290Y-55343712D01*
X61985597Y-55337418D01*
X61999457Y-55332459D01*
X62013736Y-55328882D01*
X62028297Y-55326722D01*
X62043000Y-55326000D01*
X63693000Y-55326000D01*
X63707703Y-55326722D01*
X63707703Y-55326722D01*
G37*
D15*
X62868000Y-55626000D03*
D11*
G36*
X63707703Y-54056722D02*
G01*
X63722264Y-54058882D01*
X63736543Y-54062459D01*
X63750403Y-54067418D01*
X63763710Y-54073712D01*
X63776336Y-54081280D01*
X63788159Y-54090048D01*
X63799066Y-54099934D01*
X63808952Y-54110841D01*
X63817720Y-54122664D01*
X63825288Y-54135290D01*
X63831582Y-54148597D01*
X63836541Y-54162457D01*
X63840118Y-54176736D01*
X63842278Y-54191297D01*
X63843000Y-54206000D01*
X63843000Y-54506000D01*
X63842278Y-54520703D01*
X63840118Y-54535264D01*
X63836541Y-54549543D01*
X63831582Y-54563403D01*
X63825288Y-54576710D01*
X63817720Y-54589336D01*
X63808952Y-54601159D01*
X63799066Y-54612066D01*
X63788159Y-54621952D01*
X63776336Y-54630720D01*
X63763710Y-54638288D01*
X63750403Y-54644582D01*
X63736543Y-54649541D01*
X63722264Y-54653118D01*
X63707703Y-54655278D01*
X63693000Y-54656000D01*
X62043000Y-54656000D01*
X62028297Y-54655278D01*
X62013736Y-54653118D01*
X61999457Y-54649541D01*
X61985597Y-54644582D01*
X61972290Y-54638288D01*
X61959664Y-54630720D01*
X61947841Y-54621952D01*
X61936934Y-54612066D01*
X61927048Y-54601159D01*
X61918280Y-54589336D01*
X61910712Y-54576710D01*
X61904418Y-54563403D01*
X61899459Y-54549543D01*
X61895882Y-54535264D01*
X61893722Y-54520703D01*
X61893000Y-54506000D01*
X61893000Y-54206000D01*
X61893722Y-54191297D01*
X61895882Y-54176736D01*
X61899459Y-54162457D01*
X61904418Y-54148597D01*
X61910712Y-54135290D01*
X61918280Y-54122664D01*
X61927048Y-54110841D01*
X61936934Y-54099934D01*
X61947841Y-54090048D01*
X61959664Y-54081280D01*
X61972290Y-54073712D01*
X61985597Y-54067418D01*
X61999457Y-54062459D01*
X62013736Y-54058882D01*
X62028297Y-54056722D01*
X62043000Y-54056000D01*
X63693000Y-54056000D01*
X63707703Y-54056722D01*
X63707703Y-54056722D01*
G37*
D15*
X62868000Y-54356000D03*
D11*
G36*
X63707703Y-52786722D02*
G01*
X63722264Y-52788882D01*
X63736543Y-52792459D01*
X63750403Y-52797418D01*
X63763710Y-52803712D01*
X63776336Y-52811280D01*
X63788159Y-52820048D01*
X63799066Y-52829934D01*
X63808952Y-52840841D01*
X63817720Y-52852664D01*
X63825288Y-52865290D01*
X63831582Y-52878597D01*
X63836541Y-52892457D01*
X63840118Y-52906736D01*
X63842278Y-52921297D01*
X63843000Y-52936000D01*
X63843000Y-53236000D01*
X63842278Y-53250703D01*
X63840118Y-53265264D01*
X63836541Y-53279543D01*
X63831582Y-53293403D01*
X63825288Y-53306710D01*
X63817720Y-53319336D01*
X63808952Y-53331159D01*
X63799066Y-53342066D01*
X63788159Y-53351952D01*
X63776336Y-53360720D01*
X63763710Y-53368288D01*
X63750403Y-53374582D01*
X63736543Y-53379541D01*
X63722264Y-53383118D01*
X63707703Y-53385278D01*
X63693000Y-53386000D01*
X62043000Y-53386000D01*
X62028297Y-53385278D01*
X62013736Y-53383118D01*
X61999457Y-53379541D01*
X61985597Y-53374582D01*
X61972290Y-53368288D01*
X61959664Y-53360720D01*
X61947841Y-53351952D01*
X61936934Y-53342066D01*
X61927048Y-53331159D01*
X61918280Y-53319336D01*
X61910712Y-53306710D01*
X61904418Y-53293403D01*
X61899459Y-53279543D01*
X61895882Y-53265264D01*
X61893722Y-53250703D01*
X61893000Y-53236000D01*
X61893000Y-52936000D01*
X61893722Y-52921297D01*
X61895882Y-52906736D01*
X61899459Y-52892457D01*
X61904418Y-52878597D01*
X61910712Y-52865290D01*
X61918280Y-52852664D01*
X61927048Y-52840841D01*
X61936934Y-52829934D01*
X61947841Y-52820048D01*
X61959664Y-52811280D01*
X61972290Y-52803712D01*
X61985597Y-52797418D01*
X61999457Y-52792459D01*
X62013736Y-52788882D01*
X62028297Y-52786722D01*
X62043000Y-52786000D01*
X63693000Y-52786000D01*
X63707703Y-52786722D01*
X63707703Y-52786722D01*
G37*
D15*
X62868000Y-53086000D03*
D11*
G36*
X63707703Y-51516722D02*
G01*
X63722264Y-51518882D01*
X63736543Y-51522459D01*
X63750403Y-51527418D01*
X63763710Y-51533712D01*
X63776336Y-51541280D01*
X63788159Y-51550048D01*
X63799066Y-51559934D01*
X63808952Y-51570841D01*
X63817720Y-51582664D01*
X63825288Y-51595290D01*
X63831582Y-51608597D01*
X63836541Y-51622457D01*
X63840118Y-51636736D01*
X63842278Y-51651297D01*
X63843000Y-51666000D01*
X63843000Y-51966000D01*
X63842278Y-51980703D01*
X63840118Y-51995264D01*
X63836541Y-52009543D01*
X63831582Y-52023403D01*
X63825288Y-52036710D01*
X63817720Y-52049336D01*
X63808952Y-52061159D01*
X63799066Y-52072066D01*
X63788159Y-52081952D01*
X63776336Y-52090720D01*
X63763710Y-52098288D01*
X63750403Y-52104582D01*
X63736543Y-52109541D01*
X63722264Y-52113118D01*
X63707703Y-52115278D01*
X63693000Y-52116000D01*
X62043000Y-52116000D01*
X62028297Y-52115278D01*
X62013736Y-52113118D01*
X61999457Y-52109541D01*
X61985597Y-52104582D01*
X61972290Y-52098288D01*
X61959664Y-52090720D01*
X61947841Y-52081952D01*
X61936934Y-52072066D01*
X61927048Y-52061159D01*
X61918280Y-52049336D01*
X61910712Y-52036710D01*
X61904418Y-52023403D01*
X61899459Y-52009543D01*
X61895882Y-51995264D01*
X61893722Y-51980703D01*
X61893000Y-51966000D01*
X61893000Y-51666000D01*
X61893722Y-51651297D01*
X61895882Y-51636736D01*
X61899459Y-51622457D01*
X61904418Y-51608597D01*
X61910712Y-51595290D01*
X61918280Y-51582664D01*
X61927048Y-51570841D01*
X61936934Y-51559934D01*
X61947841Y-51550048D01*
X61959664Y-51541280D01*
X61972290Y-51533712D01*
X61985597Y-51527418D01*
X61999457Y-51522459D01*
X62013736Y-51518882D01*
X62028297Y-51516722D01*
X62043000Y-51516000D01*
X63693000Y-51516000D01*
X63707703Y-51516722D01*
X63707703Y-51516722D01*
G37*
D15*
X62868000Y-51816000D03*
D11*
G36*
X68657703Y-51516722D02*
G01*
X68672264Y-51518882D01*
X68686543Y-51522459D01*
X68700403Y-51527418D01*
X68713710Y-51533712D01*
X68726336Y-51541280D01*
X68738159Y-51550048D01*
X68749066Y-51559934D01*
X68758952Y-51570841D01*
X68767720Y-51582664D01*
X68775288Y-51595290D01*
X68781582Y-51608597D01*
X68786541Y-51622457D01*
X68790118Y-51636736D01*
X68792278Y-51651297D01*
X68793000Y-51666000D01*
X68793000Y-51966000D01*
X68792278Y-51980703D01*
X68790118Y-51995264D01*
X68786541Y-52009543D01*
X68781582Y-52023403D01*
X68775288Y-52036710D01*
X68767720Y-52049336D01*
X68758952Y-52061159D01*
X68749066Y-52072066D01*
X68738159Y-52081952D01*
X68726336Y-52090720D01*
X68713710Y-52098288D01*
X68700403Y-52104582D01*
X68686543Y-52109541D01*
X68672264Y-52113118D01*
X68657703Y-52115278D01*
X68643000Y-52116000D01*
X66993000Y-52116000D01*
X66978297Y-52115278D01*
X66963736Y-52113118D01*
X66949457Y-52109541D01*
X66935597Y-52104582D01*
X66922290Y-52098288D01*
X66909664Y-52090720D01*
X66897841Y-52081952D01*
X66886934Y-52072066D01*
X66877048Y-52061159D01*
X66868280Y-52049336D01*
X66860712Y-52036710D01*
X66854418Y-52023403D01*
X66849459Y-52009543D01*
X66845882Y-51995264D01*
X66843722Y-51980703D01*
X66843000Y-51966000D01*
X66843000Y-51666000D01*
X66843722Y-51651297D01*
X66845882Y-51636736D01*
X66849459Y-51622457D01*
X66854418Y-51608597D01*
X66860712Y-51595290D01*
X66868280Y-51582664D01*
X66877048Y-51570841D01*
X66886934Y-51559934D01*
X66897841Y-51550048D01*
X66909664Y-51541280D01*
X66922290Y-51533712D01*
X66935597Y-51527418D01*
X66949457Y-51522459D01*
X66963736Y-51518882D01*
X66978297Y-51516722D01*
X66993000Y-51516000D01*
X68643000Y-51516000D01*
X68657703Y-51516722D01*
X68657703Y-51516722D01*
G37*
D15*
X67818000Y-51816000D03*
D11*
G36*
X68657703Y-52786722D02*
G01*
X68672264Y-52788882D01*
X68686543Y-52792459D01*
X68700403Y-52797418D01*
X68713710Y-52803712D01*
X68726336Y-52811280D01*
X68738159Y-52820048D01*
X68749066Y-52829934D01*
X68758952Y-52840841D01*
X68767720Y-52852664D01*
X68775288Y-52865290D01*
X68781582Y-52878597D01*
X68786541Y-52892457D01*
X68790118Y-52906736D01*
X68792278Y-52921297D01*
X68793000Y-52936000D01*
X68793000Y-53236000D01*
X68792278Y-53250703D01*
X68790118Y-53265264D01*
X68786541Y-53279543D01*
X68781582Y-53293403D01*
X68775288Y-53306710D01*
X68767720Y-53319336D01*
X68758952Y-53331159D01*
X68749066Y-53342066D01*
X68738159Y-53351952D01*
X68726336Y-53360720D01*
X68713710Y-53368288D01*
X68700403Y-53374582D01*
X68686543Y-53379541D01*
X68672264Y-53383118D01*
X68657703Y-53385278D01*
X68643000Y-53386000D01*
X66993000Y-53386000D01*
X66978297Y-53385278D01*
X66963736Y-53383118D01*
X66949457Y-53379541D01*
X66935597Y-53374582D01*
X66922290Y-53368288D01*
X66909664Y-53360720D01*
X66897841Y-53351952D01*
X66886934Y-53342066D01*
X66877048Y-53331159D01*
X66868280Y-53319336D01*
X66860712Y-53306710D01*
X66854418Y-53293403D01*
X66849459Y-53279543D01*
X66845882Y-53265264D01*
X66843722Y-53250703D01*
X66843000Y-53236000D01*
X66843000Y-52936000D01*
X66843722Y-52921297D01*
X66845882Y-52906736D01*
X66849459Y-52892457D01*
X66854418Y-52878597D01*
X66860712Y-52865290D01*
X66868280Y-52852664D01*
X66877048Y-52840841D01*
X66886934Y-52829934D01*
X66897841Y-52820048D01*
X66909664Y-52811280D01*
X66922290Y-52803712D01*
X66935597Y-52797418D01*
X66949457Y-52792459D01*
X66963736Y-52788882D01*
X66978297Y-52786722D01*
X66993000Y-52786000D01*
X68643000Y-52786000D01*
X68657703Y-52786722D01*
X68657703Y-52786722D01*
G37*
D15*
X67818000Y-53086000D03*
D11*
G36*
X68657703Y-54056722D02*
G01*
X68672264Y-54058882D01*
X68686543Y-54062459D01*
X68700403Y-54067418D01*
X68713710Y-54073712D01*
X68726336Y-54081280D01*
X68738159Y-54090048D01*
X68749066Y-54099934D01*
X68758952Y-54110841D01*
X68767720Y-54122664D01*
X68775288Y-54135290D01*
X68781582Y-54148597D01*
X68786541Y-54162457D01*
X68790118Y-54176736D01*
X68792278Y-54191297D01*
X68793000Y-54206000D01*
X68793000Y-54506000D01*
X68792278Y-54520703D01*
X68790118Y-54535264D01*
X68786541Y-54549543D01*
X68781582Y-54563403D01*
X68775288Y-54576710D01*
X68767720Y-54589336D01*
X68758952Y-54601159D01*
X68749066Y-54612066D01*
X68738159Y-54621952D01*
X68726336Y-54630720D01*
X68713710Y-54638288D01*
X68700403Y-54644582D01*
X68686543Y-54649541D01*
X68672264Y-54653118D01*
X68657703Y-54655278D01*
X68643000Y-54656000D01*
X66993000Y-54656000D01*
X66978297Y-54655278D01*
X66963736Y-54653118D01*
X66949457Y-54649541D01*
X66935597Y-54644582D01*
X66922290Y-54638288D01*
X66909664Y-54630720D01*
X66897841Y-54621952D01*
X66886934Y-54612066D01*
X66877048Y-54601159D01*
X66868280Y-54589336D01*
X66860712Y-54576710D01*
X66854418Y-54563403D01*
X66849459Y-54549543D01*
X66845882Y-54535264D01*
X66843722Y-54520703D01*
X66843000Y-54506000D01*
X66843000Y-54206000D01*
X66843722Y-54191297D01*
X66845882Y-54176736D01*
X66849459Y-54162457D01*
X66854418Y-54148597D01*
X66860712Y-54135290D01*
X66868280Y-54122664D01*
X66877048Y-54110841D01*
X66886934Y-54099934D01*
X66897841Y-54090048D01*
X66909664Y-54081280D01*
X66922290Y-54073712D01*
X66935597Y-54067418D01*
X66949457Y-54062459D01*
X66963736Y-54058882D01*
X66978297Y-54056722D01*
X66993000Y-54056000D01*
X68643000Y-54056000D01*
X68657703Y-54056722D01*
X68657703Y-54056722D01*
G37*
D15*
X67818000Y-54356000D03*
D11*
G36*
X68657703Y-55326722D02*
G01*
X68672264Y-55328882D01*
X68686543Y-55332459D01*
X68700403Y-55337418D01*
X68713710Y-55343712D01*
X68726336Y-55351280D01*
X68738159Y-55360048D01*
X68749066Y-55369934D01*
X68758952Y-55380841D01*
X68767720Y-55392664D01*
X68775288Y-55405290D01*
X68781582Y-55418597D01*
X68786541Y-55432457D01*
X68790118Y-55446736D01*
X68792278Y-55461297D01*
X68793000Y-55476000D01*
X68793000Y-55776000D01*
X68792278Y-55790703D01*
X68790118Y-55805264D01*
X68786541Y-55819543D01*
X68781582Y-55833403D01*
X68775288Y-55846710D01*
X68767720Y-55859336D01*
X68758952Y-55871159D01*
X68749066Y-55882066D01*
X68738159Y-55891952D01*
X68726336Y-55900720D01*
X68713710Y-55908288D01*
X68700403Y-55914582D01*
X68686543Y-55919541D01*
X68672264Y-55923118D01*
X68657703Y-55925278D01*
X68643000Y-55926000D01*
X66993000Y-55926000D01*
X66978297Y-55925278D01*
X66963736Y-55923118D01*
X66949457Y-55919541D01*
X66935597Y-55914582D01*
X66922290Y-55908288D01*
X66909664Y-55900720D01*
X66897841Y-55891952D01*
X66886934Y-55882066D01*
X66877048Y-55871159D01*
X66868280Y-55859336D01*
X66860712Y-55846710D01*
X66854418Y-55833403D01*
X66849459Y-55819543D01*
X66845882Y-55805264D01*
X66843722Y-55790703D01*
X66843000Y-55776000D01*
X66843000Y-55476000D01*
X66843722Y-55461297D01*
X66845882Y-55446736D01*
X66849459Y-55432457D01*
X66854418Y-55418597D01*
X66860712Y-55405290D01*
X66868280Y-55392664D01*
X66877048Y-55380841D01*
X66886934Y-55369934D01*
X66897841Y-55360048D01*
X66909664Y-55351280D01*
X66922290Y-55343712D01*
X66935597Y-55337418D01*
X66949457Y-55332459D01*
X66963736Y-55328882D01*
X66978297Y-55326722D01*
X66993000Y-55326000D01*
X68643000Y-55326000D01*
X68657703Y-55326722D01*
X68657703Y-55326722D01*
G37*
D15*
X67818000Y-55626000D03*
D11*
G36*
X65128505Y-48381204D02*
G01*
X65152773Y-48384804D01*
X65176572Y-48390765D01*
X65199671Y-48399030D01*
X65221850Y-48409520D01*
X65242893Y-48422132D01*
X65262599Y-48436747D01*
X65280777Y-48453223D01*
X65297253Y-48471401D01*
X65311868Y-48491107D01*
X65324480Y-48512150D01*
X65334970Y-48534329D01*
X65343235Y-48557428D01*
X65349196Y-48581227D01*
X65352796Y-48605495D01*
X65354000Y-48629999D01*
X65354000Y-49530001D01*
X65352796Y-49554505D01*
X65349196Y-49578773D01*
X65343235Y-49602572D01*
X65334970Y-49625671D01*
X65324480Y-49647850D01*
X65311868Y-49668893D01*
X65297253Y-49688599D01*
X65280777Y-49706777D01*
X65262599Y-49723253D01*
X65242893Y-49737868D01*
X65221850Y-49750480D01*
X65199671Y-49760970D01*
X65176572Y-49769235D01*
X65152773Y-49775196D01*
X65128505Y-49778796D01*
X65104001Y-49780000D01*
X64453999Y-49780000D01*
X64429495Y-49778796D01*
X64405227Y-49775196D01*
X64381428Y-49769235D01*
X64358329Y-49760970D01*
X64336150Y-49750480D01*
X64315107Y-49737868D01*
X64295401Y-49723253D01*
X64277223Y-49706777D01*
X64260747Y-49688599D01*
X64246132Y-49668893D01*
X64233520Y-49647850D01*
X64223030Y-49625671D01*
X64214765Y-49602572D01*
X64208804Y-49578773D01*
X64205204Y-49554505D01*
X64204000Y-49530001D01*
X64204000Y-48629999D01*
X64205204Y-48605495D01*
X64208804Y-48581227D01*
X64214765Y-48557428D01*
X64223030Y-48534329D01*
X64233520Y-48512150D01*
X64246132Y-48491107D01*
X64260747Y-48471401D01*
X64277223Y-48453223D01*
X64295401Y-48436747D01*
X64315107Y-48422132D01*
X64336150Y-48409520D01*
X64358329Y-48399030D01*
X64381428Y-48390765D01*
X64405227Y-48384804D01*
X64429495Y-48381204D01*
X64453999Y-48380000D01*
X65104001Y-48380000D01*
X65128505Y-48381204D01*
X65128505Y-48381204D01*
G37*
D16*
X64779000Y-49080000D03*
D11*
G36*
X63078505Y-48381204D02*
G01*
X63102773Y-48384804D01*
X63126572Y-48390765D01*
X63149671Y-48399030D01*
X63171850Y-48409520D01*
X63192893Y-48422132D01*
X63212599Y-48436747D01*
X63230777Y-48453223D01*
X63247253Y-48471401D01*
X63261868Y-48491107D01*
X63274480Y-48512150D01*
X63284970Y-48534329D01*
X63293235Y-48557428D01*
X63299196Y-48581227D01*
X63302796Y-48605495D01*
X63304000Y-48629999D01*
X63304000Y-49530001D01*
X63302796Y-49554505D01*
X63299196Y-49578773D01*
X63293235Y-49602572D01*
X63284970Y-49625671D01*
X63274480Y-49647850D01*
X63261868Y-49668893D01*
X63247253Y-49688599D01*
X63230777Y-49706777D01*
X63212599Y-49723253D01*
X63192893Y-49737868D01*
X63171850Y-49750480D01*
X63149671Y-49760970D01*
X63126572Y-49769235D01*
X63102773Y-49775196D01*
X63078505Y-49778796D01*
X63054001Y-49780000D01*
X62403999Y-49780000D01*
X62379495Y-49778796D01*
X62355227Y-49775196D01*
X62331428Y-49769235D01*
X62308329Y-49760970D01*
X62286150Y-49750480D01*
X62265107Y-49737868D01*
X62245401Y-49723253D01*
X62227223Y-49706777D01*
X62210747Y-49688599D01*
X62196132Y-49668893D01*
X62183520Y-49647850D01*
X62173030Y-49625671D01*
X62164765Y-49602572D01*
X62158804Y-49578773D01*
X62155204Y-49554505D01*
X62154000Y-49530001D01*
X62154000Y-48629999D01*
X62155204Y-48605495D01*
X62158804Y-48581227D01*
X62164765Y-48557428D01*
X62173030Y-48534329D01*
X62183520Y-48512150D01*
X62196132Y-48491107D01*
X62210747Y-48471401D01*
X62227223Y-48453223D01*
X62245401Y-48436747D01*
X62265107Y-48422132D01*
X62286150Y-48409520D01*
X62308329Y-48399030D01*
X62331428Y-48390765D01*
X62355227Y-48384804D01*
X62379495Y-48381204D01*
X62403999Y-48380000D01*
X63054001Y-48380000D01*
X63078505Y-48381204D01*
X63078505Y-48381204D01*
G37*
D16*
X62729000Y-49080000D03*
D11*
G36*
X65128505Y-45431204D02*
G01*
X65152773Y-45434804D01*
X65176572Y-45440765D01*
X65199671Y-45449030D01*
X65221850Y-45459520D01*
X65242893Y-45472132D01*
X65262599Y-45486747D01*
X65280777Y-45503223D01*
X65297253Y-45521401D01*
X65311868Y-45541107D01*
X65324480Y-45562150D01*
X65334970Y-45584329D01*
X65343235Y-45607428D01*
X65349196Y-45631227D01*
X65352796Y-45655495D01*
X65354000Y-45679999D01*
X65354000Y-46580001D01*
X65352796Y-46604505D01*
X65349196Y-46628773D01*
X65343235Y-46652572D01*
X65334970Y-46675671D01*
X65324480Y-46697850D01*
X65311868Y-46718893D01*
X65297253Y-46738599D01*
X65280777Y-46756777D01*
X65262599Y-46773253D01*
X65242893Y-46787868D01*
X65221850Y-46800480D01*
X65199671Y-46810970D01*
X65176572Y-46819235D01*
X65152773Y-46825196D01*
X65128505Y-46828796D01*
X65104001Y-46830000D01*
X64453999Y-46830000D01*
X64429495Y-46828796D01*
X64405227Y-46825196D01*
X64381428Y-46819235D01*
X64358329Y-46810970D01*
X64336150Y-46800480D01*
X64315107Y-46787868D01*
X64295401Y-46773253D01*
X64277223Y-46756777D01*
X64260747Y-46738599D01*
X64246132Y-46718893D01*
X64233520Y-46697850D01*
X64223030Y-46675671D01*
X64214765Y-46652572D01*
X64208804Y-46628773D01*
X64205204Y-46604505D01*
X64204000Y-46580001D01*
X64204000Y-45679999D01*
X64205204Y-45655495D01*
X64208804Y-45631227D01*
X64214765Y-45607428D01*
X64223030Y-45584329D01*
X64233520Y-45562150D01*
X64246132Y-45541107D01*
X64260747Y-45521401D01*
X64277223Y-45503223D01*
X64295401Y-45486747D01*
X64315107Y-45472132D01*
X64336150Y-45459520D01*
X64358329Y-45449030D01*
X64381428Y-45440765D01*
X64405227Y-45434804D01*
X64429495Y-45431204D01*
X64453999Y-45430000D01*
X65104001Y-45430000D01*
X65128505Y-45431204D01*
X65128505Y-45431204D01*
G37*
D16*
X64779000Y-46130000D03*
D11*
G36*
X63078505Y-45431204D02*
G01*
X63102773Y-45434804D01*
X63126572Y-45440765D01*
X63149671Y-45449030D01*
X63171850Y-45459520D01*
X63192893Y-45472132D01*
X63212599Y-45486747D01*
X63230777Y-45503223D01*
X63247253Y-45521401D01*
X63261868Y-45541107D01*
X63274480Y-45562150D01*
X63284970Y-45584329D01*
X63293235Y-45607428D01*
X63299196Y-45631227D01*
X63302796Y-45655495D01*
X63304000Y-45679999D01*
X63304000Y-46580001D01*
X63302796Y-46604505D01*
X63299196Y-46628773D01*
X63293235Y-46652572D01*
X63284970Y-46675671D01*
X63274480Y-46697850D01*
X63261868Y-46718893D01*
X63247253Y-46738599D01*
X63230777Y-46756777D01*
X63212599Y-46773253D01*
X63192893Y-46787868D01*
X63171850Y-46800480D01*
X63149671Y-46810970D01*
X63126572Y-46819235D01*
X63102773Y-46825196D01*
X63078505Y-46828796D01*
X63054001Y-46830000D01*
X62403999Y-46830000D01*
X62379495Y-46828796D01*
X62355227Y-46825196D01*
X62331428Y-46819235D01*
X62308329Y-46810970D01*
X62286150Y-46800480D01*
X62265107Y-46787868D01*
X62245401Y-46773253D01*
X62227223Y-46756777D01*
X62210747Y-46738599D01*
X62196132Y-46718893D01*
X62183520Y-46697850D01*
X62173030Y-46675671D01*
X62164765Y-46652572D01*
X62158804Y-46628773D01*
X62155204Y-46604505D01*
X62154000Y-46580001D01*
X62154000Y-45679999D01*
X62155204Y-45655495D01*
X62158804Y-45631227D01*
X62164765Y-45607428D01*
X62173030Y-45584329D01*
X62183520Y-45562150D01*
X62196132Y-45541107D01*
X62210747Y-45521401D01*
X62227223Y-45503223D01*
X62245401Y-45486747D01*
X62265107Y-45472132D01*
X62286150Y-45459520D01*
X62308329Y-45449030D01*
X62331428Y-45440765D01*
X62355227Y-45434804D01*
X62379495Y-45431204D01*
X62403999Y-45430000D01*
X63054001Y-45430000D01*
X63078505Y-45431204D01*
X63078505Y-45431204D01*
G37*
D16*
X62729000Y-46130000D03*
D11*
G36*
X65128505Y-42481204D02*
G01*
X65152773Y-42484804D01*
X65176572Y-42490765D01*
X65199671Y-42499030D01*
X65221850Y-42509520D01*
X65242893Y-42522132D01*
X65262599Y-42536747D01*
X65280777Y-42553223D01*
X65297253Y-42571401D01*
X65311868Y-42591107D01*
X65324480Y-42612150D01*
X65334970Y-42634329D01*
X65343235Y-42657428D01*
X65349196Y-42681227D01*
X65352796Y-42705495D01*
X65354000Y-42729999D01*
X65354000Y-43630001D01*
X65352796Y-43654505D01*
X65349196Y-43678773D01*
X65343235Y-43702572D01*
X65334970Y-43725671D01*
X65324480Y-43747850D01*
X65311868Y-43768893D01*
X65297253Y-43788599D01*
X65280777Y-43806777D01*
X65262599Y-43823253D01*
X65242893Y-43837868D01*
X65221850Y-43850480D01*
X65199671Y-43860970D01*
X65176572Y-43869235D01*
X65152773Y-43875196D01*
X65128505Y-43878796D01*
X65104001Y-43880000D01*
X64453999Y-43880000D01*
X64429495Y-43878796D01*
X64405227Y-43875196D01*
X64381428Y-43869235D01*
X64358329Y-43860970D01*
X64336150Y-43850480D01*
X64315107Y-43837868D01*
X64295401Y-43823253D01*
X64277223Y-43806777D01*
X64260747Y-43788599D01*
X64246132Y-43768893D01*
X64233520Y-43747850D01*
X64223030Y-43725671D01*
X64214765Y-43702572D01*
X64208804Y-43678773D01*
X64205204Y-43654505D01*
X64204000Y-43630001D01*
X64204000Y-42729999D01*
X64205204Y-42705495D01*
X64208804Y-42681227D01*
X64214765Y-42657428D01*
X64223030Y-42634329D01*
X64233520Y-42612150D01*
X64246132Y-42591107D01*
X64260747Y-42571401D01*
X64277223Y-42553223D01*
X64295401Y-42536747D01*
X64315107Y-42522132D01*
X64336150Y-42509520D01*
X64358329Y-42499030D01*
X64381428Y-42490765D01*
X64405227Y-42484804D01*
X64429495Y-42481204D01*
X64453999Y-42480000D01*
X65104001Y-42480000D01*
X65128505Y-42481204D01*
X65128505Y-42481204D01*
G37*
D16*
X64779000Y-43180000D03*
D11*
G36*
X63078505Y-42481204D02*
G01*
X63102773Y-42484804D01*
X63126572Y-42490765D01*
X63149671Y-42499030D01*
X63171850Y-42509520D01*
X63192893Y-42522132D01*
X63212599Y-42536747D01*
X63230777Y-42553223D01*
X63247253Y-42571401D01*
X63261868Y-42591107D01*
X63274480Y-42612150D01*
X63284970Y-42634329D01*
X63293235Y-42657428D01*
X63299196Y-42681227D01*
X63302796Y-42705495D01*
X63304000Y-42729999D01*
X63304000Y-43630001D01*
X63302796Y-43654505D01*
X63299196Y-43678773D01*
X63293235Y-43702572D01*
X63284970Y-43725671D01*
X63274480Y-43747850D01*
X63261868Y-43768893D01*
X63247253Y-43788599D01*
X63230777Y-43806777D01*
X63212599Y-43823253D01*
X63192893Y-43837868D01*
X63171850Y-43850480D01*
X63149671Y-43860970D01*
X63126572Y-43869235D01*
X63102773Y-43875196D01*
X63078505Y-43878796D01*
X63054001Y-43880000D01*
X62403999Y-43880000D01*
X62379495Y-43878796D01*
X62355227Y-43875196D01*
X62331428Y-43869235D01*
X62308329Y-43860970D01*
X62286150Y-43850480D01*
X62265107Y-43837868D01*
X62245401Y-43823253D01*
X62227223Y-43806777D01*
X62210747Y-43788599D01*
X62196132Y-43768893D01*
X62183520Y-43747850D01*
X62173030Y-43725671D01*
X62164765Y-43702572D01*
X62158804Y-43678773D01*
X62155204Y-43654505D01*
X62154000Y-43630001D01*
X62154000Y-42729999D01*
X62155204Y-42705495D01*
X62158804Y-42681227D01*
X62164765Y-42657428D01*
X62173030Y-42634329D01*
X62183520Y-42612150D01*
X62196132Y-42591107D01*
X62210747Y-42571401D01*
X62227223Y-42553223D01*
X62245401Y-42536747D01*
X62265107Y-42522132D01*
X62286150Y-42509520D01*
X62308329Y-42499030D01*
X62331428Y-42490765D01*
X62355227Y-42484804D01*
X62379495Y-42481204D01*
X62403999Y-42480000D01*
X63054001Y-42480000D01*
X63078505Y-42481204D01*
X63078505Y-42481204D01*
G37*
D16*
X62729000Y-43180000D03*
D17*
X88125000Y-54728000D03*
X87325000Y-54728000D03*
X86525000Y-54728000D03*
X85725000Y-54728000D03*
X84925000Y-54728000D03*
X84125000Y-54728000D03*
X83325000Y-54728000D03*
X82525000Y-54728000D03*
D18*
X81075000Y-53278000D03*
X81075000Y-52478000D03*
X81075000Y-51678000D03*
X81075000Y-50878000D03*
X81075000Y-50078000D03*
X81075000Y-49278000D03*
X81075000Y-48478000D03*
X81075000Y-47678000D03*
D17*
X82525000Y-46228000D03*
X83325000Y-46228000D03*
X84125000Y-46228000D03*
X84925000Y-46228000D03*
X85725000Y-46228000D03*
X86525000Y-46228000D03*
X87325000Y-46228000D03*
X88125000Y-46228000D03*
D18*
X89575000Y-47678000D03*
X89575000Y-48478000D03*
X89575000Y-49278000D03*
X89575000Y-50078000D03*
X89575000Y-50878000D03*
X89575000Y-51678000D03*
X89575000Y-52478000D03*
X89575000Y-53278000D03*
D19*
X74549000Y-49784000D03*
X70231000Y-49784000D03*
X70231000Y-47625000D03*
X81280000Y-57277000D03*
X91313000Y-57277000D03*
X74549000Y-53086000D03*
X70231000Y-53086000D03*
X72390000Y-53086000D03*
X91948000Y-45847000D03*
D11*
G36*
X83534505Y-56578204D02*
G01*
X83558773Y-56581804D01*
X83582572Y-56587765D01*
X83605671Y-56596030D01*
X83627850Y-56606520D01*
X83648893Y-56619132D01*
X83668599Y-56633747D01*
X83686777Y-56650223D01*
X83703253Y-56668401D01*
X83717868Y-56688107D01*
X83730480Y-56709150D01*
X83740970Y-56731329D01*
X83749235Y-56754428D01*
X83755196Y-56778227D01*
X83758796Y-56802495D01*
X83760000Y-56826999D01*
X83760000Y-57727001D01*
X83758796Y-57751505D01*
X83755196Y-57775773D01*
X83749235Y-57799572D01*
X83740970Y-57822671D01*
X83730480Y-57844850D01*
X83717868Y-57865893D01*
X83703253Y-57885599D01*
X83686777Y-57903777D01*
X83668599Y-57920253D01*
X83648893Y-57934868D01*
X83627850Y-57947480D01*
X83605671Y-57957970D01*
X83582572Y-57966235D01*
X83558773Y-57972196D01*
X83534505Y-57975796D01*
X83510001Y-57977000D01*
X82859999Y-57977000D01*
X82835495Y-57975796D01*
X82811227Y-57972196D01*
X82787428Y-57966235D01*
X82764329Y-57957970D01*
X82742150Y-57947480D01*
X82721107Y-57934868D01*
X82701401Y-57920253D01*
X82683223Y-57903777D01*
X82666747Y-57885599D01*
X82652132Y-57865893D01*
X82639520Y-57844850D01*
X82629030Y-57822671D01*
X82620765Y-57799572D01*
X82614804Y-57775773D01*
X82611204Y-57751505D01*
X82610000Y-57727001D01*
X82610000Y-56826999D01*
X82611204Y-56802495D01*
X82614804Y-56778227D01*
X82620765Y-56754428D01*
X82629030Y-56731329D01*
X82639520Y-56709150D01*
X82652132Y-56688107D01*
X82666747Y-56668401D01*
X82683223Y-56650223D01*
X82701401Y-56633747D01*
X82721107Y-56619132D01*
X82742150Y-56606520D01*
X82764329Y-56596030D01*
X82787428Y-56587765D01*
X82811227Y-56581804D01*
X82835495Y-56578204D01*
X82859999Y-56577000D01*
X83510001Y-56577000D01*
X83534505Y-56578204D01*
X83534505Y-56578204D01*
G37*
D16*
X83185000Y-57277000D03*
D11*
G36*
X85584505Y-56578204D02*
G01*
X85608773Y-56581804D01*
X85632572Y-56587765D01*
X85655671Y-56596030D01*
X85677850Y-56606520D01*
X85698893Y-56619132D01*
X85718599Y-56633747D01*
X85736777Y-56650223D01*
X85753253Y-56668401D01*
X85767868Y-56688107D01*
X85780480Y-56709150D01*
X85790970Y-56731329D01*
X85799235Y-56754428D01*
X85805196Y-56778227D01*
X85808796Y-56802495D01*
X85810000Y-56826999D01*
X85810000Y-57727001D01*
X85808796Y-57751505D01*
X85805196Y-57775773D01*
X85799235Y-57799572D01*
X85790970Y-57822671D01*
X85780480Y-57844850D01*
X85767868Y-57865893D01*
X85753253Y-57885599D01*
X85736777Y-57903777D01*
X85718599Y-57920253D01*
X85698893Y-57934868D01*
X85677850Y-57947480D01*
X85655671Y-57957970D01*
X85632572Y-57966235D01*
X85608773Y-57972196D01*
X85584505Y-57975796D01*
X85560001Y-57977000D01*
X84909999Y-57977000D01*
X84885495Y-57975796D01*
X84861227Y-57972196D01*
X84837428Y-57966235D01*
X84814329Y-57957970D01*
X84792150Y-57947480D01*
X84771107Y-57934868D01*
X84751401Y-57920253D01*
X84733223Y-57903777D01*
X84716747Y-57885599D01*
X84702132Y-57865893D01*
X84689520Y-57844850D01*
X84679030Y-57822671D01*
X84670765Y-57799572D01*
X84664804Y-57775773D01*
X84661204Y-57751505D01*
X84660000Y-57727001D01*
X84660000Y-56826999D01*
X84661204Y-56802495D01*
X84664804Y-56778227D01*
X84670765Y-56754428D01*
X84679030Y-56731329D01*
X84689520Y-56709150D01*
X84702132Y-56688107D01*
X84716747Y-56668401D01*
X84733223Y-56650223D01*
X84751401Y-56633747D01*
X84771107Y-56619132D01*
X84792150Y-56606520D01*
X84814329Y-56596030D01*
X84837428Y-56587765D01*
X84861227Y-56581804D01*
X84885495Y-56578204D01*
X84909999Y-56577000D01*
X85560001Y-56577000D01*
X85584505Y-56578204D01*
X85584505Y-56578204D01*
G37*
D16*
X85235000Y-57277000D03*
D11*
G36*
X92549505Y-52394204D02*
G01*
X92573773Y-52397804D01*
X92597572Y-52403765D01*
X92620671Y-52412030D01*
X92642850Y-52422520D01*
X92663893Y-52435132D01*
X92683599Y-52449747D01*
X92701777Y-52466223D01*
X92718253Y-52484401D01*
X92732868Y-52504107D01*
X92745480Y-52525150D01*
X92755970Y-52547329D01*
X92764235Y-52570428D01*
X92770196Y-52594227D01*
X92773796Y-52618495D01*
X92775000Y-52642999D01*
X92775000Y-53293001D01*
X92773796Y-53317505D01*
X92770196Y-53341773D01*
X92764235Y-53365572D01*
X92755970Y-53388671D01*
X92745480Y-53410850D01*
X92732868Y-53431893D01*
X92718253Y-53451599D01*
X92701777Y-53469777D01*
X92683599Y-53486253D01*
X92663893Y-53500868D01*
X92642850Y-53513480D01*
X92620671Y-53523970D01*
X92597572Y-53532235D01*
X92573773Y-53538196D01*
X92549505Y-53541796D01*
X92525001Y-53543000D01*
X91624999Y-53543000D01*
X91600495Y-53541796D01*
X91576227Y-53538196D01*
X91552428Y-53532235D01*
X91529329Y-53523970D01*
X91507150Y-53513480D01*
X91486107Y-53500868D01*
X91466401Y-53486253D01*
X91448223Y-53469777D01*
X91431747Y-53451599D01*
X91417132Y-53431893D01*
X91404520Y-53410850D01*
X91394030Y-53388671D01*
X91385765Y-53365572D01*
X91379804Y-53341773D01*
X91376204Y-53317505D01*
X91375000Y-53293001D01*
X91375000Y-52642999D01*
X91376204Y-52618495D01*
X91379804Y-52594227D01*
X91385765Y-52570428D01*
X91394030Y-52547329D01*
X91404520Y-52525150D01*
X91417132Y-52504107D01*
X91431747Y-52484401D01*
X91448223Y-52466223D01*
X91466401Y-52449747D01*
X91486107Y-52435132D01*
X91507150Y-52422520D01*
X91529329Y-52412030D01*
X91552428Y-52403765D01*
X91576227Y-52397804D01*
X91600495Y-52394204D01*
X91624999Y-52393000D01*
X92525001Y-52393000D01*
X92549505Y-52394204D01*
X92549505Y-52394204D01*
G37*
D16*
X92075000Y-52968000D03*
D11*
G36*
X92549505Y-50344204D02*
G01*
X92573773Y-50347804D01*
X92597572Y-50353765D01*
X92620671Y-50362030D01*
X92642850Y-50372520D01*
X92663893Y-50385132D01*
X92683599Y-50399747D01*
X92701777Y-50416223D01*
X92718253Y-50434401D01*
X92732868Y-50454107D01*
X92745480Y-50475150D01*
X92755970Y-50497329D01*
X92764235Y-50520428D01*
X92770196Y-50544227D01*
X92773796Y-50568495D01*
X92775000Y-50592999D01*
X92775000Y-51243001D01*
X92773796Y-51267505D01*
X92770196Y-51291773D01*
X92764235Y-51315572D01*
X92755970Y-51338671D01*
X92745480Y-51360850D01*
X92732868Y-51381893D01*
X92718253Y-51401599D01*
X92701777Y-51419777D01*
X92683599Y-51436253D01*
X92663893Y-51450868D01*
X92642850Y-51463480D01*
X92620671Y-51473970D01*
X92597572Y-51482235D01*
X92573773Y-51488196D01*
X92549505Y-51491796D01*
X92525001Y-51493000D01*
X91624999Y-51493000D01*
X91600495Y-51491796D01*
X91576227Y-51488196D01*
X91552428Y-51482235D01*
X91529329Y-51473970D01*
X91507150Y-51463480D01*
X91486107Y-51450868D01*
X91466401Y-51436253D01*
X91448223Y-51419777D01*
X91431747Y-51401599D01*
X91417132Y-51381893D01*
X91404520Y-51360850D01*
X91394030Y-51338671D01*
X91385765Y-51315572D01*
X91379804Y-51291773D01*
X91376204Y-51267505D01*
X91375000Y-51243001D01*
X91375000Y-50592999D01*
X91376204Y-50568495D01*
X91379804Y-50544227D01*
X91385765Y-50520428D01*
X91394030Y-50497329D01*
X91404520Y-50475150D01*
X91417132Y-50454107D01*
X91431747Y-50434401D01*
X91448223Y-50416223D01*
X91466401Y-50399747D01*
X91486107Y-50385132D01*
X91507150Y-50372520D01*
X91529329Y-50362030D01*
X91552428Y-50353765D01*
X91576227Y-50347804D01*
X91600495Y-50344204D01*
X91624999Y-50343000D01*
X92525001Y-50343000D01*
X92549505Y-50344204D01*
X92549505Y-50344204D01*
G37*
D16*
X92075000Y-50918000D03*
D11*
G36*
X78960505Y-51260204D02*
G01*
X78984773Y-51263804D01*
X79008572Y-51269765D01*
X79031671Y-51278030D01*
X79053850Y-51288520D01*
X79074893Y-51301132D01*
X79094599Y-51315747D01*
X79112777Y-51332223D01*
X79129253Y-51350401D01*
X79143868Y-51370107D01*
X79156480Y-51391150D01*
X79166970Y-51413329D01*
X79175235Y-51436428D01*
X79181196Y-51460227D01*
X79184796Y-51484495D01*
X79186000Y-51508999D01*
X79186000Y-52159001D01*
X79184796Y-52183505D01*
X79181196Y-52207773D01*
X79175235Y-52231572D01*
X79166970Y-52254671D01*
X79156480Y-52276850D01*
X79143868Y-52297893D01*
X79129253Y-52317599D01*
X79112777Y-52335777D01*
X79094599Y-52352253D01*
X79074893Y-52366868D01*
X79053850Y-52379480D01*
X79031671Y-52389970D01*
X79008572Y-52398235D01*
X78984773Y-52404196D01*
X78960505Y-52407796D01*
X78936001Y-52409000D01*
X78035999Y-52409000D01*
X78011495Y-52407796D01*
X77987227Y-52404196D01*
X77963428Y-52398235D01*
X77940329Y-52389970D01*
X77918150Y-52379480D01*
X77897107Y-52366868D01*
X77877401Y-52352253D01*
X77859223Y-52335777D01*
X77842747Y-52317599D01*
X77828132Y-52297893D01*
X77815520Y-52276850D01*
X77805030Y-52254671D01*
X77796765Y-52231572D01*
X77790804Y-52207773D01*
X77787204Y-52183505D01*
X77786000Y-52159001D01*
X77786000Y-51508999D01*
X77787204Y-51484495D01*
X77790804Y-51460227D01*
X77796765Y-51436428D01*
X77805030Y-51413329D01*
X77815520Y-51391150D01*
X77828132Y-51370107D01*
X77842747Y-51350401D01*
X77859223Y-51332223D01*
X77877401Y-51315747D01*
X77897107Y-51301132D01*
X77918150Y-51288520D01*
X77940329Y-51278030D01*
X77963428Y-51269765D01*
X77987227Y-51263804D01*
X78011495Y-51260204D01*
X78035999Y-51259000D01*
X78936001Y-51259000D01*
X78960505Y-51260204D01*
X78960505Y-51260204D01*
G37*
D16*
X78486000Y-51834000D03*
D11*
G36*
X78960505Y-49210204D02*
G01*
X78984773Y-49213804D01*
X79008572Y-49219765D01*
X79031671Y-49228030D01*
X79053850Y-49238520D01*
X79074893Y-49251132D01*
X79094599Y-49265747D01*
X79112777Y-49282223D01*
X79129253Y-49300401D01*
X79143868Y-49320107D01*
X79156480Y-49341150D01*
X79166970Y-49363329D01*
X79175235Y-49386428D01*
X79181196Y-49410227D01*
X79184796Y-49434495D01*
X79186000Y-49458999D01*
X79186000Y-50109001D01*
X79184796Y-50133505D01*
X79181196Y-50157773D01*
X79175235Y-50181572D01*
X79166970Y-50204671D01*
X79156480Y-50226850D01*
X79143868Y-50247893D01*
X79129253Y-50267599D01*
X79112777Y-50285777D01*
X79094599Y-50302253D01*
X79074893Y-50316868D01*
X79053850Y-50329480D01*
X79031671Y-50339970D01*
X79008572Y-50348235D01*
X78984773Y-50354196D01*
X78960505Y-50357796D01*
X78936001Y-50359000D01*
X78035999Y-50359000D01*
X78011495Y-50357796D01*
X77987227Y-50354196D01*
X77963428Y-50348235D01*
X77940329Y-50339970D01*
X77918150Y-50329480D01*
X77897107Y-50316868D01*
X77877401Y-50302253D01*
X77859223Y-50285777D01*
X77842747Y-50267599D01*
X77828132Y-50247893D01*
X77815520Y-50226850D01*
X77805030Y-50204671D01*
X77796765Y-50181572D01*
X77790804Y-50157773D01*
X77787204Y-50133505D01*
X77786000Y-50109001D01*
X77786000Y-49458999D01*
X77787204Y-49434495D01*
X77790804Y-49410227D01*
X77796765Y-49386428D01*
X77805030Y-49363329D01*
X77815520Y-49341150D01*
X77828132Y-49320107D01*
X77842747Y-49300401D01*
X77859223Y-49282223D01*
X77877401Y-49265747D01*
X77897107Y-49251132D01*
X77918150Y-49238520D01*
X77940329Y-49228030D01*
X77963428Y-49219765D01*
X77987227Y-49213804D01*
X78011495Y-49210204D01*
X78035999Y-49209000D01*
X78936001Y-49209000D01*
X78960505Y-49210204D01*
X78960505Y-49210204D01*
G37*
D16*
X78486000Y-49784000D03*
D11*
G36*
X84472305Y-41242004D02*
G01*
X84496573Y-41245604D01*
X84520372Y-41251565D01*
X84543471Y-41259830D01*
X84565650Y-41270320D01*
X84586693Y-41282932D01*
X84606399Y-41297547D01*
X84624577Y-41314023D01*
X84641053Y-41332201D01*
X84655668Y-41351907D01*
X84668280Y-41372950D01*
X84678770Y-41395129D01*
X84687035Y-41418228D01*
X84692996Y-41442027D01*
X84696596Y-41466295D01*
X84697800Y-41490799D01*
X84697800Y-42140801D01*
X84696596Y-42165305D01*
X84692996Y-42189573D01*
X84687035Y-42213372D01*
X84678770Y-42236471D01*
X84668280Y-42258650D01*
X84655668Y-42279693D01*
X84641053Y-42299399D01*
X84624577Y-42317577D01*
X84606399Y-42334053D01*
X84586693Y-42348668D01*
X84565650Y-42361280D01*
X84543471Y-42371770D01*
X84520372Y-42380035D01*
X84496573Y-42385996D01*
X84472305Y-42389596D01*
X84447801Y-42390800D01*
X83547799Y-42390800D01*
X83523295Y-42389596D01*
X83499027Y-42385996D01*
X83475228Y-42380035D01*
X83452129Y-42371770D01*
X83429950Y-42361280D01*
X83408907Y-42348668D01*
X83389201Y-42334053D01*
X83371023Y-42317577D01*
X83354547Y-42299399D01*
X83339932Y-42279693D01*
X83327320Y-42258650D01*
X83316830Y-42236471D01*
X83308565Y-42213372D01*
X83302604Y-42189573D01*
X83299004Y-42165305D01*
X83297800Y-42140801D01*
X83297800Y-41490799D01*
X83299004Y-41466295D01*
X83302604Y-41442027D01*
X83308565Y-41418228D01*
X83316830Y-41395129D01*
X83327320Y-41372950D01*
X83339932Y-41351907D01*
X83354547Y-41332201D01*
X83371023Y-41314023D01*
X83389201Y-41297547D01*
X83408907Y-41282932D01*
X83429950Y-41270320D01*
X83452129Y-41259830D01*
X83475228Y-41251565D01*
X83499027Y-41245604D01*
X83523295Y-41242004D01*
X83547799Y-41240800D01*
X84447801Y-41240800D01*
X84472305Y-41242004D01*
X84472305Y-41242004D01*
G37*
D16*
X83997800Y-41815800D03*
D11*
G36*
X84472305Y-43292004D02*
G01*
X84496573Y-43295604D01*
X84520372Y-43301565D01*
X84543471Y-43309830D01*
X84565650Y-43320320D01*
X84586693Y-43332932D01*
X84606399Y-43347547D01*
X84624577Y-43364023D01*
X84641053Y-43382201D01*
X84655668Y-43401907D01*
X84668280Y-43422950D01*
X84678770Y-43445129D01*
X84687035Y-43468228D01*
X84692996Y-43492027D01*
X84696596Y-43516295D01*
X84697800Y-43540799D01*
X84697800Y-44190801D01*
X84696596Y-44215305D01*
X84692996Y-44239573D01*
X84687035Y-44263372D01*
X84678770Y-44286471D01*
X84668280Y-44308650D01*
X84655668Y-44329693D01*
X84641053Y-44349399D01*
X84624577Y-44367577D01*
X84606399Y-44384053D01*
X84586693Y-44398668D01*
X84565650Y-44411280D01*
X84543471Y-44421770D01*
X84520372Y-44430035D01*
X84496573Y-44435996D01*
X84472305Y-44439596D01*
X84447801Y-44440800D01*
X83547799Y-44440800D01*
X83523295Y-44439596D01*
X83499027Y-44435996D01*
X83475228Y-44430035D01*
X83452129Y-44421770D01*
X83429950Y-44411280D01*
X83408907Y-44398668D01*
X83389201Y-44384053D01*
X83371023Y-44367577D01*
X83354547Y-44349399D01*
X83339932Y-44329693D01*
X83327320Y-44308650D01*
X83316830Y-44286471D01*
X83308565Y-44263372D01*
X83302604Y-44239573D01*
X83299004Y-44215305D01*
X83297800Y-44190801D01*
X83297800Y-43540799D01*
X83299004Y-43516295D01*
X83302604Y-43492027D01*
X83308565Y-43468228D01*
X83316830Y-43445129D01*
X83327320Y-43422950D01*
X83339932Y-43401907D01*
X83354547Y-43382201D01*
X83371023Y-43364023D01*
X83389201Y-43347547D01*
X83408907Y-43332932D01*
X83429950Y-43320320D01*
X83452129Y-43309830D01*
X83475228Y-43301565D01*
X83499027Y-43295604D01*
X83523295Y-43292004D01*
X83547799Y-43290800D01*
X84447801Y-43290800D01*
X84472305Y-43292004D01*
X84472305Y-43292004D01*
G37*
D16*
X83997800Y-43865800D03*
D11*
G36*
X90314305Y-41242004D02*
G01*
X90338573Y-41245604D01*
X90362372Y-41251565D01*
X90385471Y-41259830D01*
X90407650Y-41270320D01*
X90428693Y-41282932D01*
X90448399Y-41297547D01*
X90466577Y-41314023D01*
X90483053Y-41332201D01*
X90497668Y-41351907D01*
X90510280Y-41372950D01*
X90520770Y-41395129D01*
X90529035Y-41418228D01*
X90534996Y-41442027D01*
X90538596Y-41466295D01*
X90539800Y-41490799D01*
X90539800Y-42140801D01*
X90538596Y-42165305D01*
X90534996Y-42189573D01*
X90529035Y-42213372D01*
X90520770Y-42236471D01*
X90510280Y-42258650D01*
X90497668Y-42279693D01*
X90483053Y-42299399D01*
X90466577Y-42317577D01*
X90448399Y-42334053D01*
X90428693Y-42348668D01*
X90407650Y-42361280D01*
X90385471Y-42371770D01*
X90362372Y-42380035D01*
X90338573Y-42385996D01*
X90314305Y-42389596D01*
X90289801Y-42390800D01*
X89389799Y-42390800D01*
X89365295Y-42389596D01*
X89341027Y-42385996D01*
X89317228Y-42380035D01*
X89294129Y-42371770D01*
X89271950Y-42361280D01*
X89250907Y-42348668D01*
X89231201Y-42334053D01*
X89213023Y-42317577D01*
X89196547Y-42299399D01*
X89181932Y-42279693D01*
X89169320Y-42258650D01*
X89158830Y-42236471D01*
X89150565Y-42213372D01*
X89144604Y-42189573D01*
X89141004Y-42165305D01*
X89139800Y-42140801D01*
X89139800Y-41490799D01*
X89141004Y-41466295D01*
X89144604Y-41442027D01*
X89150565Y-41418228D01*
X89158830Y-41395129D01*
X89169320Y-41372950D01*
X89181932Y-41351907D01*
X89196547Y-41332201D01*
X89213023Y-41314023D01*
X89231201Y-41297547D01*
X89250907Y-41282932D01*
X89271950Y-41270320D01*
X89294129Y-41259830D01*
X89317228Y-41251565D01*
X89341027Y-41245604D01*
X89365295Y-41242004D01*
X89389799Y-41240800D01*
X90289801Y-41240800D01*
X90314305Y-41242004D01*
X90314305Y-41242004D01*
G37*
D16*
X89839800Y-41815800D03*
D11*
G36*
X90314305Y-43292004D02*
G01*
X90338573Y-43295604D01*
X90362372Y-43301565D01*
X90385471Y-43309830D01*
X90407650Y-43320320D01*
X90428693Y-43332932D01*
X90448399Y-43347547D01*
X90466577Y-43364023D01*
X90483053Y-43382201D01*
X90497668Y-43401907D01*
X90510280Y-43422950D01*
X90520770Y-43445129D01*
X90529035Y-43468228D01*
X90534996Y-43492027D01*
X90538596Y-43516295D01*
X90539800Y-43540799D01*
X90539800Y-44190801D01*
X90538596Y-44215305D01*
X90534996Y-44239573D01*
X90529035Y-44263372D01*
X90520770Y-44286471D01*
X90510280Y-44308650D01*
X90497668Y-44329693D01*
X90483053Y-44349399D01*
X90466577Y-44367577D01*
X90448399Y-44384053D01*
X90428693Y-44398668D01*
X90407650Y-44411280D01*
X90385471Y-44421770D01*
X90362372Y-44430035D01*
X90338573Y-44435996D01*
X90314305Y-44439596D01*
X90289801Y-44440800D01*
X89389799Y-44440800D01*
X89365295Y-44439596D01*
X89341027Y-44435996D01*
X89317228Y-44430035D01*
X89294129Y-44421770D01*
X89271950Y-44411280D01*
X89250907Y-44398668D01*
X89231201Y-44384053D01*
X89213023Y-44367577D01*
X89196547Y-44349399D01*
X89181932Y-44329693D01*
X89169320Y-44308650D01*
X89158830Y-44286471D01*
X89150565Y-44263372D01*
X89144604Y-44239573D01*
X89141004Y-44215305D01*
X89139800Y-44190801D01*
X89139800Y-43540799D01*
X89141004Y-43516295D01*
X89144604Y-43492027D01*
X89150565Y-43468228D01*
X89158830Y-43445129D01*
X89169320Y-43422950D01*
X89181932Y-43401907D01*
X89196547Y-43382201D01*
X89213023Y-43364023D01*
X89231201Y-43347547D01*
X89250907Y-43332932D01*
X89271950Y-43320320D01*
X89294129Y-43309830D01*
X89317228Y-43301565D01*
X89341027Y-43295604D01*
X89365295Y-43292004D01*
X89389799Y-43290800D01*
X90289801Y-43290800D01*
X90314305Y-43292004D01*
X90314305Y-43292004D01*
G37*
D16*
X89839800Y-43865800D03*
D11*
G36*
X77066505Y-55689204D02*
G01*
X77090773Y-55692804D01*
X77114572Y-55698765D01*
X77137671Y-55707030D01*
X77159850Y-55717520D01*
X77180893Y-55730132D01*
X77200599Y-55744747D01*
X77218777Y-55761223D01*
X77235253Y-55779401D01*
X77249868Y-55799107D01*
X77262480Y-55820150D01*
X77272970Y-55842329D01*
X77281235Y-55865428D01*
X77287196Y-55889227D01*
X77290796Y-55913495D01*
X77292000Y-55937999D01*
X77292000Y-56838001D01*
X77290796Y-56862505D01*
X77287196Y-56886773D01*
X77281235Y-56910572D01*
X77272970Y-56933671D01*
X77262480Y-56955850D01*
X77249868Y-56976893D01*
X77235253Y-56996599D01*
X77218777Y-57014777D01*
X77200599Y-57031253D01*
X77180893Y-57045868D01*
X77159850Y-57058480D01*
X77137671Y-57068970D01*
X77114572Y-57077235D01*
X77090773Y-57083196D01*
X77066505Y-57086796D01*
X77042001Y-57088000D01*
X76391999Y-57088000D01*
X76367495Y-57086796D01*
X76343227Y-57083196D01*
X76319428Y-57077235D01*
X76296329Y-57068970D01*
X76274150Y-57058480D01*
X76253107Y-57045868D01*
X76233401Y-57031253D01*
X76215223Y-57014777D01*
X76198747Y-56996599D01*
X76184132Y-56976893D01*
X76171520Y-56955850D01*
X76161030Y-56933671D01*
X76152765Y-56910572D01*
X76146804Y-56886773D01*
X76143204Y-56862505D01*
X76142000Y-56838001D01*
X76142000Y-55937999D01*
X76143204Y-55913495D01*
X76146804Y-55889227D01*
X76152765Y-55865428D01*
X76161030Y-55842329D01*
X76171520Y-55820150D01*
X76184132Y-55799107D01*
X76198747Y-55779401D01*
X76215223Y-55761223D01*
X76233401Y-55744747D01*
X76253107Y-55730132D01*
X76274150Y-55717520D01*
X76296329Y-55707030D01*
X76319428Y-55698765D01*
X76343227Y-55692804D01*
X76367495Y-55689204D01*
X76391999Y-55688000D01*
X77042001Y-55688000D01*
X77066505Y-55689204D01*
X77066505Y-55689204D01*
G37*
D16*
X76717000Y-56388000D03*
D11*
G36*
X75016505Y-55689204D02*
G01*
X75040773Y-55692804D01*
X75064572Y-55698765D01*
X75087671Y-55707030D01*
X75109850Y-55717520D01*
X75130893Y-55730132D01*
X75150599Y-55744747D01*
X75168777Y-55761223D01*
X75185253Y-55779401D01*
X75199868Y-55799107D01*
X75212480Y-55820150D01*
X75222970Y-55842329D01*
X75231235Y-55865428D01*
X75237196Y-55889227D01*
X75240796Y-55913495D01*
X75242000Y-55937999D01*
X75242000Y-56838001D01*
X75240796Y-56862505D01*
X75237196Y-56886773D01*
X75231235Y-56910572D01*
X75222970Y-56933671D01*
X75212480Y-56955850D01*
X75199868Y-56976893D01*
X75185253Y-56996599D01*
X75168777Y-57014777D01*
X75150599Y-57031253D01*
X75130893Y-57045868D01*
X75109850Y-57058480D01*
X75087671Y-57068970D01*
X75064572Y-57077235D01*
X75040773Y-57083196D01*
X75016505Y-57086796D01*
X74992001Y-57088000D01*
X74341999Y-57088000D01*
X74317495Y-57086796D01*
X74293227Y-57083196D01*
X74269428Y-57077235D01*
X74246329Y-57068970D01*
X74224150Y-57058480D01*
X74203107Y-57045868D01*
X74183401Y-57031253D01*
X74165223Y-57014777D01*
X74148747Y-56996599D01*
X74134132Y-56976893D01*
X74121520Y-56955850D01*
X74111030Y-56933671D01*
X74102765Y-56910572D01*
X74096804Y-56886773D01*
X74093204Y-56862505D01*
X74092000Y-56838001D01*
X74092000Y-55937999D01*
X74093204Y-55913495D01*
X74096804Y-55889227D01*
X74102765Y-55865428D01*
X74111030Y-55842329D01*
X74121520Y-55820150D01*
X74134132Y-55799107D01*
X74148747Y-55779401D01*
X74165223Y-55761223D01*
X74183401Y-55744747D01*
X74203107Y-55730132D01*
X74224150Y-55717520D01*
X74246329Y-55707030D01*
X74269428Y-55698765D01*
X74293227Y-55692804D01*
X74317495Y-55689204D01*
X74341999Y-55688000D01*
X74992001Y-55688000D01*
X75016505Y-55689204D01*
X75016505Y-55689204D01*
G37*
D16*
X74667000Y-56388000D03*
D20*
X73025000Y-44958000D03*
X73025000Y-42418000D03*
X75565000Y-44958000D03*
X75565000Y-42418000D03*
X78105000Y-44958000D03*
D21*
X78105000Y-42418000D03*
D22*
X91948000Y-45847000D03*
X91313000Y-54991000D03*
X86995000Y-51054000D03*
X78486000Y-51816000D03*
X83185000Y-57277000D03*
X93726000Y-58166000D03*
X94107000Y-48514000D03*
X65786000Y-40894000D03*
X65786000Y-45974000D03*
X65786000Y-51054000D03*
X65786000Y-56134000D03*
X70866000Y-61214000D03*
X70866000Y-56134000D03*
X70866000Y-51054000D03*
X70866000Y-45974000D03*
X70866000Y-40894000D03*
X81026000Y-40894000D03*
X86106000Y-40894000D03*
X91186000Y-40894000D03*
X75946000Y-51054000D03*
X75946000Y-61214000D03*
X81026000Y-61214000D03*
X91186000Y-61214000D03*
X96266000Y-61214000D03*
X79629000Y-55753000D03*
X78867000Y-54864000D03*
X77978000Y-53975000D03*
X91313000Y-57277000D03*
X88646000Y-57277000D03*
X85217000Y-57277000D03*
X78486000Y-49784000D03*
X74676000Y-56388000D03*
X74676000Y-58420000D03*
X81280000Y-57277000D03*
X84963000Y-49149000D03*
X84074000Y-50927000D03*
X76962000Y-48133000D03*
X86995000Y-48514000D03*
X86995000Y-52324000D03*
X74549000Y-49784000D03*
X82550000Y-50292000D03*
X67818000Y-55626000D03*
X83058000Y-53086000D03*
X74549000Y-53086000D03*
D23*
X72653000Y-44586000D02*
X73025000Y-44958000D01*
X70104000Y-44586000D02*
X72653000Y-44586000D01*
D24*
X76717000Y-58121000D02*
X77651000Y-59055000D01*
D25*
X76717000Y-56388000D02*
X76717000Y-58121000D01*
D23*
X78486000Y-51574798D02*
X78486000Y-51834000D01*
X79982798Y-50078000D02*
X78486000Y-51574798D01*
X81075000Y-50078000D02*
X79982798Y-50078000D01*
X87971000Y-50078000D02*
X89575000Y-50078000D01*
X86995000Y-51054000D02*
X87971000Y-50078000D01*
D26*
X65386001Y-55734001D02*
X65786000Y-56134000D01*
X64378710Y-54726710D02*
X65386001Y-55734001D01*
X63238710Y-54726710D02*
X64378710Y-54726710D01*
X62868000Y-54356000D02*
X63238710Y-54726710D01*
X92035000Y-50878000D02*
X92075000Y-50918000D01*
D23*
X78992000Y-49278000D02*
X81075000Y-49278000D01*
X78486000Y-49784000D02*
X78486000Y-49784000D01*
X89615000Y-50918000D02*
X89575000Y-50878000D01*
X92075000Y-50918000D02*
X89615000Y-50918000D01*
X78486000Y-49784000D02*
X78992000Y-49278000D01*
X92775000Y-50918000D02*
X92075000Y-50918000D01*
X93229010Y-51372010D02*
X92775000Y-50918000D01*
X93229010Y-55360990D02*
X93229010Y-51372010D01*
X91313000Y-57277000D02*
X93229010Y-55360990D01*
D26*
X62729000Y-43180000D02*
X62729000Y-49080000D01*
X62105628Y-49703372D02*
X62729000Y-49080000D01*
X61567990Y-50241010D02*
X62105628Y-49703372D01*
X61567990Y-54702758D02*
X61567990Y-50241010D01*
X62120522Y-55255290D02*
X61567990Y-54702758D01*
X62497290Y-55255290D02*
X62120522Y-55255290D01*
X62868000Y-55626000D02*
X62497290Y-55255290D01*
X73113500Y-59055000D02*
X74676000Y-59055000D01*
X65897000Y-59055000D02*
X73113500Y-59055000D01*
X62868000Y-55626000D02*
X62868000Y-56026000D01*
X62868000Y-56026000D02*
X65897000Y-59055000D01*
X86525000Y-44285000D02*
X86043800Y-43803800D01*
X86525000Y-46228000D02*
X86525000Y-44285000D01*
X84059800Y-43803800D02*
X83997800Y-43865800D01*
X86043800Y-43803800D02*
X84059800Y-43803800D01*
X87325000Y-44272600D02*
X87793800Y-43803800D01*
X87325000Y-46228000D02*
X87325000Y-44272600D01*
X89777800Y-43803800D02*
X89839800Y-43865800D01*
X87793800Y-43803800D02*
X89777800Y-43803800D01*
D23*
X72907000Y-42536000D02*
X73025000Y-42418000D01*
X70104000Y-42536000D02*
X72907000Y-42536000D01*
D26*
X87325000Y-54728000D02*
X87325000Y-53867998D01*
X86956013Y-53499011D02*
X85446009Y-53499011D01*
X83348999Y-51402001D02*
X85446009Y-53499011D01*
X83348999Y-50578999D02*
X83348999Y-51402001D01*
X87325000Y-53867998D02*
X86956013Y-53499011D01*
X84778998Y-49149000D02*
X83348999Y-50578999D01*
X84963000Y-49149000D02*
X84778998Y-49149000D01*
X87914002Y-52478000D02*
X87343001Y-53049001D01*
X89575000Y-52478000D02*
X87914002Y-52478000D01*
X86196001Y-53049001D02*
X84074000Y-50927000D01*
X87343001Y-53049001D02*
X86196001Y-53049001D01*
X76929999Y-43782999D02*
X75565000Y-42418000D01*
X80710000Y-44958000D02*
X79534999Y-43782999D01*
X85725000Y-45367998D02*
X85315002Y-44958000D01*
X85725000Y-46228000D02*
X85725000Y-45367998D01*
X79534999Y-43782999D02*
X76929999Y-43782999D01*
X85315002Y-44958000D02*
X80710000Y-44958000D01*
X89575000Y-54938002D02*
X88379002Y-56134000D01*
X89575000Y-53278000D02*
X89575000Y-54938002D01*
X88379002Y-56134000D02*
X81280000Y-56134000D01*
X81197810Y-56134000D02*
X76962000Y-51898190D01*
X81280000Y-56134000D02*
X81197810Y-56134000D01*
X76962000Y-51898190D02*
X76962000Y-48895000D01*
X76962000Y-48895000D02*
X76962000Y-48641000D01*
X76962000Y-48641000D02*
X76962000Y-48133000D01*
X76962000Y-48133000D02*
X76962000Y-48133000D01*
X89539000Y-48514000D02*
X89575000Y-48478000D01*
X86995000Y-48514000D02*
X89539000Y-48514000D01*
X86595001Y-51924001D02*
X86995000Y-52324000D01*
X86269999Y-50705999D02*
X86269999Y-51598999D01*
X86269999Y-51598999D02*
X86595001Y-51924001D01*
X87697998Y-49278000D02*
X86269999Y-50705999D01*
X89575000Y-49278000D02*
X87697998Y-49278000D01*
X70231000Y-49784000D02*
X72955990Y-47059010D01*
X80025000Y-48478000D02*
X81075000Y-48478000D01*
X78606010Y-47059010D02*
X80025000Y-48478000D01*
X72955990Y-47059010D02*
X78606010Y-47059010D01*
X81022000Y-47625000D02*
X81075000Y-47678000D01*
X80025000Y-47678000D02*
X78956000Y-46609000D01*
X81075000Y-47678000D02*
X80025000Y-47678000D01*
X71247000Y-46609000D02*
X70231000Y-47625000D01*
X78956000Y-46609000D02*
X71247000Y-46609000D01*
X84925000Y-46228000D02*
X84925000Y-47917000D01*
X84925000Y-47917000D02*
X82550000Y-50292000D01*
X76692999Y-53911001D02*
X73215001Y-53911001D01*
X81133008Y-58351010D02*
X76692999Y-53911001D01*
X93808020Y-50861020D02*
X93808020Y-56002982D01*
X91459992Y-58351010D02*
X81133008Y-58351010D01*
X93808020Y-56002982D02*
X91459992Y-58351010D01*
X73215001Y-53911001D02*
X72390000Y-53086000D01*
X90625000Y-47678000D02*
X93808020Y-50861020D01*
X89575000Y-47678000D02*
X90625000Y-47678000D01*
X72390000Y-52378894D02*
X72390000Y-53086000D01*
X72272105Y-52260999D02*
X72390000Y-52378894D01*
X69860290Y-52260999D02*
X72272105Y-52260999D01*
X69405999Y-52715290D02*
X69860290Y-52260999D01*
X68188710Y-52715290D02*
X69405999Y-52715290D01*
X67818000Y-53086000D02*
X68188710Y-52715290D01*
X70730999Y-53585999D02*
X70231000Y-53086000D01*
X71506011Y-54361011D02*
X70730999Y-53585999D01*
X76506599Y-54361011D02*
X71506011Y-54361011D01*
X80946608Y-58801020D02*
X76506599Y-54361011D01*
X91646392Y-58801020D02*
X80946608Y-58801020D01*
X94258029Y-56189383D02*
X91646392Y-58801020D01*
X94258030Y-50674620D02*
X94258029Y-56189383D01*
X89811410Y-46228000D02*
X94258030Y-50674620D01*
X88125000Y-46228000D02*
X89811410Y-46228000D01*
X68590290Y-54726710D02*
X69912795Y-53404205D01*
X67818000Y-54356000D02*
X68188710Y-54726710D01*
X68188710Y-54726710D02*
X68590290Y-54726710D01*
X84925000Y-53867998D02*
X84143002Y-53086000D01*
X84925000Y-54728000D02*
X84925000Y-53867998D01*
X84143002Y-53086000D02*
X83058000Y-53086000D01*
X83058000Y-53086000D02*
X83058000Y-53086000D01*
D23*
G36*
X97301926Y-38961094D02*
G01*
X98057670Y-39174236D01*
X98761914Y-39521531D01*
X99391073Y-39991346D01*
X99924086Y-40567956D01*
X100343091Y-41232039D01*
X100634059Y-41961357D01*
X100789305Y-42741828D01*
X100813001Y-43193984D01*
X100813000Y-58903564D01*
X100738906Y-59709926D01*
X100525763Y-60465672D01*
X100178469Y-61169914D01*
X99708651Y-61799076D01*
X99132045Y-62332086D01*
X98467965Y-62751088D01*
X97738644Y-63042059D01*
X96958172Y-63197305D01*
X96506034Y-63221000D01*
X64032436Y-63221000D01*
X63226074Y-63146906D01*
X62470328Y-62933763D01*
X61766086Y-62586469D01*
X61136924Y-62116651D01*
X60603914Y-61540045D01*
X60184912Y-60875965D01*
X59893941Y-60146644D01*
X59738695Y-59366172D01*
X59715000Y-58914034D01*
X59715000Y-50241010D01*
X60931928Y-50241010D01*
X60934991Y-50272108D01*
X60934990Y-54671670D01*
X60931928Y-54702758D01*
X60937476Y-54759087D01*
X60944150Y-54826847D01*
X60980345Y-54946167D01*
X61039124Y-55056134D01*
X61118226Y-55152522D01*
X61142377Y-55172342D01*
X61388236Y-55418201D01*
X61382543Y-55476000D01*
X61382543Y-55776000D01*
X61395233Y-55904849D01*
X61432817Y-56028746D01*
X61493850Y-56142930D01*
X61575986Y-56243014D01*
X61676070Y-56325150D01*
X61790254Y-56386183D01*
X61914151Y-56423767D01*
X62043000Y-56436457D01*
X62385978Y-56436457D01*
X62418237Y-56475764D01*
X62442383Y-56495580D01*
X63825027Y-57878224D01*
X63525522Y-57878224D01*
X63077346Y-57967372D01*
X62655174Y-58142242D01*
X62275229Y-58396113D01*
X61952113Y-58719229D01*
X61698242Y-59099174D01*
X61523372Y-59521346D01*
X61434224Y-59969522D01*
X61434224Y-60426478D01*
X61523372Y-60874654D01*
X61698242Y-61296826D01*
X61952113Y-61676771D01*
X62275229Y-61999887D01*
X62655174Y-62253758D01*
X63077346Y-62428628D01*
X63525522Y-62517776D01*
X63982478Y-62517776D01*
X64430654Y-62428628D01*
X64852826Y-62253758D01*
X65232771Y-61999887D01*
X65555887Y-61676771D01*
X65809758Y-61296826D01*
X65984628Y-60874654D01*
X66073776Y-60426478D01*
X66073776Y-59969522D01*
X66017778Y-59688000D01*
X73453043Y-59688000D01*
X73453043Y-60130000D01*
X73467655Y-60278358D01*
X73510929Y-60421014D01*
X73581203Y-60552487D01*
X73675776Y-60667724D01*
X73791013Y-60762297D01*
X73922486Y-60832571D01*
X74065142Y-60875845D01*
X74213500Y-60890457D01*
X75138500Y-60890457D01*
X75286858Y-60875845D01*
X75429514Y-60832571D01*
X75560987Y-60762297D01*
X75676224Y-60667724D01*
X75770797Y-60552487D01*
X75841071Y-60421014D01*
X75853512Y-60380000D01*
X76172813Y-60380000D01*
X76187525Y-60529378D01*
X76231097Y-60673016D01*
X76301855Y-60805393D01*
X76397078Y-60921422D01*
X76513107Y-61016645D01*
X76645484Y-61087403D01*
X76789122Y-61130975D01*
X76938500Y-61145687D01*
X77079500Y-61142000D01*
X77270000Y-60951500D01*
X77270000Y-59436000D01*
X78032000Y-59436000D01*
X78032000Y-60951500D01*
X78222500Y-61142000D01*
X78363500Y-61145687D01*
X78512878Y-61130975D01*
X78656516Y-61087403D01*
X78788893Y-61016645D01*
X78807956Y-61001000D01*
X86555313Y-61001000D01*
X86570025Y-61150378D01*
X86613597Y-61294016D01*
X86684355Y-61426393D01*
X86779578Y-61542422D01*
X86895607Y-61637645D01*
X87027984Y-61708403D01*
X87171622Y-61751975D01*
X87321000Y-61766687D01*
X88074500Y-61763000D01*
X88265000Y-61572500D01*
X88265000Y-60669500D01*
X89027000Y-60669500D01*
X89027000Y-61572500D01*
X89217500Y-61763000D01*
X89971000Y-61766687D01*
X90120378Y-61751975D01*
X90264016Y-61708403D01*
X90396393Y-61637645D01*
X90512422Y-61542422D01*
X90607645Y-61426393D01*
X90678403Y-61294016D01*
X90721975Y-61150378D01*
X90736687Y-61001000D01*
X90733000Y-60860000D01*
X90542500Y-60669500D01*
X89027000Y-60669500D01*
X88265000Y-60669500D01*
X86749500Y-60669500D01*
X86559000Y-60860000D01*
X86555313Y-61001000D01*
X78807956Y-61001000D01*
X78904922Y-60921422D01*
X79000145Y-60805393D01*
X79070903Y-60673016D01*
X79114475Y-60529378D01*
X79129187Y-60380000D01*
X79125500Y-59626500D01*
X78935000Y-59436000D01*
X78032000Y-59436000D01*
X77270000Y-59436000D01*
X76367000Y-59436000D01*
X76176500Y-59626500D01*
X76172813Y-60380000D01*
X75853512Y-60380000D01*
X75884345Y-60278358D01*
X75898957Y-60130000D01*
X75898957Y-57980000D01*
X75884345Y-57831642D01*
X75875822Y-57803544D01*
X75992622Y-57838975D01*
X76142000Y-57853687D01*
X76173409Y-57851863D01*
X76176500Y-58483500D01*
X76367000Y-58674000D01*
X77270000Y-58674000D01*
X77270000Y-58654000D01*
X78032000Y-58654000D01*
X78032000Y-58674000D01*
X78935000Y-58674000D01*
X79125500Y-58483500D01*
X79128462Y-57878072D01*
X80477028Y-59226638D01*
X80496844Y-59250784D01*
X80520990Y-59270600D01*
X80520991Y-59270601D01*
X80536080Y-59282984D01*
X80593231Y-59329886D01*
X80703198Y-59388665D01*
X80801555Y-59418501D01*
X80822518Y-59424860D01*
X80946608Y-59437082D01*
X80977696Y-59434020D01*
X86569296Y-59434020D01*
X86555313Y-59576000D01*
X86559000Y-59717000D01*
X86749500Y-59907500D01*
X88265000Y-59907500D01*
X88265000Y-59887500D01*
X89027000Y-59887500D01*
X89027000Y-59907500D01*
X90542500Y-59907500D01*
X90733000Y-59717000D01*
X90736687Y-59576000D01*
X90722704Y-59434020D01*
X91615304Y-59434020D01*
X91646392Y-59437082D01*
X91677480Y-59434020D01*
X91770482Y-59424860D01*
X91889802Y-59388665D01*
X91999769Y-59329886D01*
X92096156Y-59250784D01*
X92115976Y-59226633D01*
X94653543Y-56689066D01*
X94653543Y-57289000D01*
X94668155Y-57437358D01*
X94711429Y-57580014D01*
X94781703Y-57711487D01*
X94876276Y-57826724D01*
X94991513Y-57921297D01*
X95122986Y-57991571D01*
X95265642Y-58034845D01*
X95414000Y-58049457D01*
X96864000Y-58049457D01*
X97012358Y-58034845D01*
X97155014Y-57991571D01*
X97286487Y-57921297D01*
X97401724Y-57826724D01*
X97496297Y-57711487D01*
X97566571Y-57580014D01*
X97609845Y-57437358D01*
X97624457Y-57289000D01*
X97624457Y-56089000D01*
X97609845Y-55940642D01*
X97566571Y-55797986D01*
X97496297Y-55666513D01*
X97401724Y-55551276D01*
X97286487Y-55456703D01*
X97256141Y-55440482D01*
X97308589Y-55403662D01*
X97525486Y-55176533D01*
X97693905Y-54911454D01*
X97751442Y-54810337D01*
X97633489Y-54570000D01*
X96520000Y-54570000D01*
X96520000Y-54590000D01*
X95758000Y-54590000D01*
X95758000Y-54570000D01*
X95738000Y-54570000D01*
X95738000Y-53808000D01*
X95758000Y-53808000D01*
X95758000Y-53788000D01*
X96520000Y-53788000D01*
X96520000Y-53808000D01*
X97633489Y-53808000D01*
X97751442Y-53567663D01*
X97693905Y-53466546D01*
X97525486Y-53201467D01*
X97308589Y-52974338D01*
X97055196Y-52796448D01*
X97228897Y-52653897D01*
X97398598Y-52447114D01*
X97524698Y-52211198D01*
X97602350Y-51955214D01*
X97628570Y-51689000D01*
X97602350Y-51422786D01*
X97524698Y-51166802D01*
X97398598Y-50930886D01*
X97228897Y-50724103D01*
X97022114Y-50554402D01*
X96806213Y-50439000D01*
X97022114Y-50323598D01*
X97228897Y-50153897D01*
X97398598Y-49947114D01*
X97524698Y-49711198D01*
X97602350Y-49455214D01*
X97628570Y-49189000D01*
X97602350Y-48922786D01*
X97524698Y-48666802D01*
X97398598Y-48430886D01*
X97228897Y-48224103D01*
X97022114Y-48054402D01*
X96786198Y-47928302D01*
X96530214Y-47850650D01*
X96330706Y-47831000D01*
X95947294Y-47831000D01*
X95747786Y-47850650D01*
X95491802Y-47928302D01*
X95255886Y-48054402D01*
X95049103Y-48224103D01*
X94879402Y-48430886D01*
X94753302Y-48666802D01*
X94675650Y-48922786D01*
X94649430Y-49189000D01*
X94675650Y-49455214D01*
X94753302Y-49711198D01*
X94879402Y-49947114D01*
X95049103Y-50153897D01*
X95255886Y-50323598D01*
X95471787Y-50439000D01*
X95255886Y-50554402D01*
X95049103Y-50724103D01*
X94891030Y-50916717D01*
X94891030Y-50705705D01*
X94894092Y-50674619D01*
X94888477Y-50617610D01*
X94881870Y-50550531D01*
X94845675Y-50431211D01*
X94845674Y-50431208D01*
X94786896Y-50321243D01*
X94727610Y-50249003D01*
X94707794Y-50224857D01*
X94683648Y-50205041D01*
X91509102Y-47030495D01*
X91650584Y-47079735D01*
X91896793Y-47114071D01*
X92144970Y-47099715D01*
X92385578Y-47037217D01*
X92480196Y-46998025D01*
X92515914Y-46762810D01*
X91948000Y-46194897D01*
X91838398Y-46304498D01*
X91490502Y-45956602D01*
X91600103Y-45847000D01*
X92295897Y-45847000D01*
X92863810Y-46414914D01*
X93099025Y-46379196D01*
X93180735Y-46144416D01*
X93215071Y-45898207D01*
X93200715Y-45650030D01*
X93138217Y-45409422D01*
X93099025Y-45314804D01*
X92863810Y-45279086D01*
X92295897Y-45847000D01*
X91600103Y-45847000D01*
X91032190Y-45279086D01*
X90796975Y-45314804D01*
X90715265Y-45549584D01*
X90680929Y-45795793D01*
X90695285Y-46043970D01*
X90755887Y-46277280D01*
X90280994Y-45802387D01*
X90261174Y-45778236D01*
X90164787Y-45699134D01*
X90054820Y-45640355D01*
X89935500Y-45604160D01*
X89842498Y-45595000D01*
X89811410Y-45591938D01*
X89780322Y-45595000D01*
X88910457Y-45595000D01*
X88910457Y-45428000D01*
X88900649Y-45328415D01*
X88871601Y-45232657D01*
X88824429Y-45144405D01*
X88760948Y-45067052D01*
X88683595Y-45003571D01*
X88595343Y-44956399D01*
X88499585Y-44927351D01*
X88400000Y-44917543D01*
X87958000Y-44917543D01*
X87958000Y-44534797D01*
X88055997Y-44436800D01*
X88673574Y-44436800D01*
X88687229Y-44481815D01*
X88757503Y-44613288D01*
X88852075Y-44728525D01*
X88967312Y-44823097D01*
X89098785Y-44893371D01*
X89241441Y-44936645D01*
X89389799Y-44951257D01*
X90289801Y-44951257D01*
X90438159Y-44936645D01*
X90456141Y-44931190D01*
X91380086Y-44931190D01*
X91948000Y-45499103D01*
X92515914Y-44931190D01*
X92480196Y-44695975D01*
X92245416Y-44614265D01*
X91999207Y-44579929D01*
X91751030Y-44594285D01*
X91510422Y-44656783D01*
X91415804Y-44695975D01*
X91380086Y-44931190D01*
X90456141Y-44931190D01*
X90580815Y-44893371D01*
X90712288Y-44823097D01*
X90827525Y-44728525D01*
X90922097Y-44613288D01*
X90992371Y-44481815D01*
X91035645Y-44339159D01*
X91050257Y-44190801D01*
X91050257Y-43540799D01*
X91035645Y-43392441D01*
X90992371Y-43249785D01*
X90922097Y-43118312D01*
X90883403Y-43071163D01*
X90965193Y-43027445D01*
X91081222Y-42932222D01*
X91176445Y-42816193D01*
X91247203Y-42683816D01*
X91290775Y-42540178D01*
X91305487Y-42390800D01*
X91301800Y-42327300D01*
X91111300Y-42136800D01*
X90220800Y-42136800D01*
X90220800Y-42216800D01*
X89458800Y-42216800D01*
X89458800Y-42136800D01*
X88568300Y-42136800D01*
X88541854Y-42163246D01*
X88540401Y-42158457D01*
X88493229Y-42070205D01*
X88429748Y-41992852D01*
X88359891Y-41935522D01*
X94962224Y-41935522D01*
X94962224Y-42392478D01*
X95051372Y-42840654D01*
X95226242Y-43262826D01*
X95480113Y-43642771D01*
X95803229Y-43965887D01*
X96183174Y-44219758D01*
X96605346Y-44394628D01*
X97053522Y-44483776D01*
X97510478Y-44483776D01*
X97958654Y-44394628D01*
X98380826Y-44219758D01*
X98760771Y-43965887D01*
X99083887Y-43642771D01*
X99337758Y-43262826D01*
X99512628Y-42840654D01*
X99601776Y-42392478D01*
X99601776Y-41935522D01*
X99512628Y-41487346D01*
X99337758Y-41065174D01*
X99083887Y-40685229D01*
X98760771Y-40362113D01*
X98380826Y-40108242D01*
X97958654Y-39933372D01*
X97510478Y-39844224D01*
X97053522Y-39844224D01*
X96605346Y-39933372D01*
X96183174Y-40108242D01*
X95803229Y-40362113D01*
X95480113Y-40685229D01*
X95226242Y-41065174D01*
X95051372Y-41487346D01*
X94962224Y-41935522D01*
X88359891Y-41935522D01*
X88352395Y-41929371D01*
X88264143Y-41882199D01*
X88168385Y-41853151D01*
X88068800Y-41843343D01*
X87268800Y-41843343D01*
X87169215Y-41853151D01*
X87073457Y-41882199D01*
X86985205Y-41929371D01*
X86918800Y-41983867D01*
X86852395Y-41929371D01*
X86764143Y-41882199D01*
X86668385Y-41853151D01*
X86568800Y-41843343D01*
X85768800Y-41843343D01*
X85669215Y-41853151D01*
X85573457Y-41882199D01*
X85485205Y-41929371D01*
X85407852Y-41992852D01*
X85344371Y-42070205D01*
X85297199Y-42158457D01*
X85295746Y-42163246D01*
X85269300Y-42136800D01*
X84378800Y-42136800D01*
X84378800Y-42216800D01*
X83616800Y-42216800D01*
X83616800Y-42136800D01*
X82726300Y-42136800D01*
X82535800Y-42327300D01*
X82532113Y-42390800D01*
X82546825Y-42540178D01*
X82590397Y-42683816D01*
X82661155Y-42816193D01*
X82756378Y-42932222D01*
X82872407Y-43027445D01*
X82954197Y-43071163D01*
X82915503Y-43118312D01*
X82845229Y-43249785D01*
X82801955Y-43392441D01*
X82787343Y-43540799D01*
X82787343Y-44190801D01*
X82800560Y-44325000D01*
X80972197Y-44325000D01*
X80004583Y-43357386D01*
X79984763Y-43333235D01*
X79888376Y-43254133D01*
X79778409Y-43195354D01*
X79659089Y-43159159D01*
X79566087Y-43149999D01*
X79534999Y-43146937D01*
X79503911Y-43149999D01*
X79465457Y-43149999D01*
X79465457Y-41568000D01*
X79455649Y-41468415D01*
X79426601Y-41372657D01*
X79379429Y-41284405D01*
X79343644Y-41240800D01*
X82532113Y-41240800D01*
X82535800Y-41304300D01*
X82726300Y-41494800D01*
X83616800Y-41494800D01*
X83616800Y-40669300D01*
X84378800Y-40669300D01*
X84378800Y-41494800D01*
X85269300Y-41494800D01*
X85459800Y-41304300D01*
X85463487Y-41240800D01*
X88374113Y-41240800D01*
X88377800Y-41304300D01*
X88568300Y-41494800D01*
X89458800Y-41494800D01*
X89458800Y-40669300D01*
X90220800Y-40669300D01*
X90220800Y-41494800D01*
X91111300Y-41494800D01*
X91301800Y-41304300D01*
X91305487Y-41240800D01*
X91290775Y-41091422D01*
X91247203Y-40947784D01*
X91176445Y-40815407D01*
X91081222Y-40699378D01*
X90965193Y-40604155D01*
X90832816Y-40533397D01*
X90689178Y-40489825D01*
X90539800Y-40475113D01*
X90411300Y-40478800D01*
X90220800Y-40669300D01*
X89458800Y-40669300D01*
X89268300Y-40478800D01*
X89139800Y-40475113D01*
X88990422Y-40489825D01*
X88846784Y-40533397D01*
X88714407Y-40604155D01*
X88598378Y-40699378D01*
X88503155Y-40815407D01*
X88432397Y-40947784D01*
X88388825Y-41091422D01*
X88374113Y-41240800D01*
X85463487Y-41240800D01*
X85448775Y-41091422D01*
X85405203Y-40947784D01*
X85334445Y-40815407D01*
X85239222Y-40699378D01*
X85123193Y-40604155D01*
X84990816Y-40533397D01*
X84847178Y-40489825D01*
X84697800Y-40475113D01*
X84569300Y-40478800D01*
X84378800Y-40669300D01*
X83616800Y-40669300D01*
X83426300Y-40478800D01*
X83297800Y-40475113D01*
X83148422Y-40489825D01*
X83004784Y-40533397D01*
X82872407Y-40604155D01*
X82756378Y-40699378D01*
X82661155Y-40815407D01*
X82590397Y-40947784D01*
X82546825Y-41091422D01*
X82532113Y-41240800D01*
X79343644Y-41240800D01*
X79315948Y-41207052D01*
X79238595Y-41143571D01*
X79150343Y-41096399D01*
X79054585Y-41067351D01*
X78955000Y-41057543D01*
X77255000Y-41057543D01*
X77155415Y-41067351D01*
X77059657Y-41096399D01*
X76971405Y-41143571D01*
X76894052Y-41207052D01*
X76830571Y-41284405D01*
X76783399Y-41372657D01*
X76754351Y-41468415D01*
X76744543Y-41568000D01*
X76744543Y-41743972D01*
X76699598Y-41659886D01*
X76529897Y-41453103D01*
X76323114Y-41283402D01*
X76087198Y-41157302D01*
X75831214Y-41079650D01*
X75631706Y-41060000D01*
X75498294Y-41060000D01*
X75298786Y-41079650D01*
X75042802Y-41157302D01*
X74806886Y-41283402D01*
X74600103Y-41453103D01*
X74430402Y-41659886D01*
X74304302Y-41895802D01*
X74295000Y-41926467D01*
X74285698Y-41895802D01*
X74159598Y-41659886D01*
X73989897Y-41453103D01*
X73783114Y-41283402D01*
X73547198Y-41157302D01*
X73291214Y-41079650D01*
X73091706Y-41060000D01*
X72958294Y-41060000D01*
X72758786Y-41079650D01*
X72502802Y-41157302D01*
X72266886Y-41283402D01*
X72060103Y-41453103D01*
X71890402Y-41659886D01*
X71829407Y-41774000D01*
X70066574Y-41774000D01*
X69954622Y-41785026D01*
X69810985Y-41828598D01*
X69678608Y-41899355D01*
X69562578Y-41994578D01*
X69467355Y-42110608D01*
X69396598Y-42242985D01*
X69353026Y-42386622D01*
X69338314Y-42536000D01*
X69353026Y-42685378D01*
X69396598Y-42829015D01*
X69467355Y-42961392D01*
X69562578Y-43077422D01*
X69678608Y-43172645D01*
X69810985Y-43243402D01*
X69954622Y-43286974D01*
X70066574Y-43298000D01*
X71990430Y-43298000D01*
X72060103Y-43382897D01*
X72260290Y-43547185D01*
X72133423Y-43614989D01*
X71888546Y-43814733D01*
X71687342Y-44058412D01*
X71537544Y-44336661D01*
X71649158Y-44577000D01*
X72644000Y-44577000D01*
X72644000Y-44557000D01*
X73406000Y-44557000D01*
X73406000Y-44577000D01*
X73426000Y-44577000D01*
X73426000Y-45339000D01*
X73406000Y-45339000D01*
X73406000Y-45359000D01*
X72644000Y-45359000D01*
X72644000Y-45339000D01*
X71649158Y-45339000D01*
X71537544Y-45579339D01*
X71687342Y-45857588D01*
X71785114Y-45976000D01*
X71278088Y-45976000D01*
X71247000Y-45972938D01*
X71215912Y-45976000D01*
X71122910Y-45985160D01*
X71003590Y-46021355D01*
X70961281Y-46043970D01*
X70893623Y-46080134D01*
X70864652Y-46103910D01*
X70797236Y-46159236D01*
X70777420Y-46183382D01*
X70341559Y-46619244D01*
X70330279Y-46617000D01*
X70131721Y-46617000D01*
X69936977Y-46655737D01*
X69753533Y-46731722D01*
X69588438Y-46842035D01*
X69448035Y-46982438D01*
X69337722Y-47147533D01*
X69261737Y-47330977D01*
X69223000Y-47525721D01*
X69223000Y-47724279D01*
X69261737Y-47919023D01*
X69337722Y-48102467D01*
X69448035Y-48267562D01*
X69588438Y-48407965D01*
X69753533Y-48518278D01*
X69936977Y-48594263D01*
X70131721Y-48633000D01*
X70330279Y-48633000D01*
X70525023Y-48594263D01*
X70525906Y-48593897D01*
X70341559Y-48778244D01*
X70330279Y-48776000D01*
X70131721Y-48776000D01*
X69936977Y-48814737D01*
X69753533Y-48890722D01*
X69588438Y-49001035D01*
X69448035Y-49141438D01*
X69337722Y-49306533D01*
X69261737Y-49489977D01*
X69223000Y-49684721D01*
X69223000Y-49883279D01*
X69261737Y-50078023D01*
X69337722Y-50261467D01*
X69448035Y-50426562D01*
X69588438Y-50566965D01*
X69753533Y-50677278D01*
X69936977Y-50753263D01*
X70131721Y-50792000D01*
X70330279Y-50792000D01*
X70525023Y-50753263D01*
X70708467Y-50677278D01*
X70873562Y-50566965D01*
X71013965Y-50426562D01*
X71124278Y-50261467D01*
X71200263Y-50078023D01*
X71239000Y-49883279D01*
X71239000Y-49684721D01*
X73541000Y-49684721D01*
X73541000Y-49883279D01*
X73579737Y-50078023D01*
X73655722Y-50261467D01*
X73766035Y-50426562D01*
X73906438Y-50566965D01*
X74071533Y-50677278D01*
X74254977Y-50753263D01*
X74449721Y-50792000D01*
X74648279Y-50792000D01*
X74843023Y-50753263D01*
X75026467Y-50677278D01*
X75191562Y-50566965D01*
X75331965Y-50426562D01*
X75442278Y-50261467D01*
X75518263Y-50078023D01*
X75557000Y-49883279D01*
X75557000Y-49684721D01*
X75518263Y-49489977D01*
X75442278Y-49306533D01*
X75331965Y-49141438D01*
X75191562Y-49001035D01*
X75026467Y-48890722D01*
X74843023Y-48814737D01*
X74648279Y-48776000D01*
X74449721Y-48776000D01*
X74254977Y-48814737D01*
X74071533Y-48890722D01*
X73906438Y-49001035D01*
X73766035Y-49141438D01*
X73655722Y-49306533D01*
X73579737Y-49489977D01*
X73541000Y-49684721D01*
X71239000Y-49684721D01*
X71236756Y-49673441D01*
X73218187Y-47692010D01*
X76164618Y-47692010D01*
X76157341Y-47702901D01*
X76088894Y-47868146D01*
X76054000Y-48043570D01*
X76054000Y-48222430D01*
X76088894Y-48397854D01*
X76157341Y-48563099D01*
X76256711Y-48711816D01*
X76329000Y-48784105D01*
X76329000Y-48926087D01*
X76329001Y-48926097D01*
X76329000Y-51867102D01*
X76325938Y-51898190D01*
X76331364Y-51953279D01*
X76338160Y-52022279D01*
X76374355Y-52141599D01*
X76433134Y-52251566D01*
X76512236Y-52347954D01*
X76536387Y-52367774D01*
X80652550Y-56483938D01*
X80637438Y-56494035D01*
X80497035Y-56634438D01*
X80422774Y-56745578D01*
X77162583Y-53485388D01*
X77142763Y-53461237D01*
X77046376Y-53382135D01*
X76936409Y-53323356D01*
X76817089Y-53287161D01*
X76724087Y-53278001D01*
X76692999Y-53274939D01*
X76661911Y-53278001D01*
X75538556Y-53278001D01*
X75557000Y-53185279D01*
X75557000Y-52986721D01*
X75518263Y-52791977D01*
X75442278Y-52608533D01*
X75331965Y-52443438D01*
X75191562Y-52303035D01*
X75026467Y-52192722D01*
X74843023Y-52116737D01*
X74648279Y-52078000D01*
X74449721Y-52078000D01*
X74254977Y-52116737D01*
X74071533Y-52192722D01*
X73906438Y-52303035D01*
X73766035Y-52443438D01*
X73655722Y-52608533D01*
X73579737Y-52791977D01*
X73541000Y-52986721D01*
X73541000Y-53185279D01*
X73559444Y-53278001D01*
X73477198Y-53278001D01*
X73395756Y-53196559D01*
X73398000Y-53185279D01*
X73398000Y-52986721D01*
X73359263Y-52791977D01*
X73283278Y-52608533D01*
X73172965Y-52443438D01*
X73032562Y-52303035D01*
X73017606Y-52293042D01*
X73017274Y-52289674D01*
X73013840Y-52254804D01*
X72977645Y-52135484D01*
X72918866Y-52025517D01*
X72839764Y-51929130D01*
X72815610Y-51909308D01*
X72741690Y-51835388D01*
X72721869Y-51811235D01*
X72625482Y-51732133D01*
X72515515Y-51673354D01*
X72396195Y-51637159D01*
X72303193Y-51627999D01*
X72272105Y-51624937D01*
X72241017Y-51627999D01*
X69891367Y-51627999D01*
X69860289Y-51624938D01*
X69829211Y-51627999D01*
X69829202Y-51627999D01*
X69736200Y-51637159D01*
X69616880Y-51673354D01*
X69555000Y-51706430D01*
X69555000Y-51579500D01*
X69558687Y-51516000D01*
X69555000Y-51478564D01*
X69555000Y-51434998D01*
X69550709Y-51434998D01*
X69543975Y-51366622D01*
X69500403Y-51222984D01*
X69429645Y-51090607D01*
X69334422Y-50974578D01*
X69218393Y-50879355D01*
X69086016Y-50808597D01*
X68942378Y-50765025D01*
X68793000Y-50750313D01*
X68389500Y-50754000D01*
X68199000Y-50944500D01*
X68199000Y-51770000D01*
X68219000Y-51770000D01*
X68219000Y-51862000D01*
X68199000Y-51862000D01*
X68199000Y-52080242D01*
X68188709Y-52079228D01*
X68157623Y-52082290D01*
X68157622Y-52082290D01*
X68064620Y-52091450D01*
X67983689Y-52116000D01*
X67437000Y-52116000D01*
X67437000Y-51862000D01*
X66271500Y-51862000D01*
X66081000Y-52052500D01*
X66077313Y-52116000D01*
X66092025Y-52265378D01*
X66135597Y-52409016D01*
X66206355Y-52541393D01*
X66301578Y-52657422D01*
X66372898Y-52715953D01*
X66345233Y-52807151D01*
X66332543Y-52936000D01*
X66332543Y-53236000D01*
X66345233Y-53364849D01*
X66382817Y-53488746D01*
X66443850Y-53602930D01*
X66525986Y-53703014D01*
X66547902Y-53721000D01*
X66525986Y-53738986D01*
X66443850Y-53839070D01*
X66382817Y-53953254D01*
X66345233Y-54077151D01*
X66332543Y-54206000D01*
X66332543Y-54506000D01*
X66345233Y-54634849D01*
X66382817Y-54758746D01*
X66443850Y-54872930D01*
X66525986Y-54973014D01*
X66547902Y-54991000D01*
X66525986Y-55008986D01*
X66443850Y-55109070D01*
X66382817Y-55223254D01*
X66345233Y-55347151D01*
X66332543Y-55476000D01*
X66332543Y-55776000D01*
X66345233Y-55904849D01*
X66382817Y-56028746D01*
X66443850Y-56142930D01*
X66525986Y-56243014D01*
X66626070Y-56325150D01*
X66740254Y-56386183D01*
X66864151Y-56423767D01*
X66993000Y-56436457D01*
X67401899Y-56436457D01*
X67553146Y-56499106D01*
X67728570Y-56534000D01*
X67907430Y-56534000D01*
X68082854Y-56499106D01*
X68234101Y-56436457D01*
X68643000Y-56436457D01*
X68771849Y-56423767D01*
X68895746Y-56386183D01*
X69009930Y-56325150D01*
X69110014Y-56243014D01*
X69192150Y-56142930D01*
X69253183Y-56028746D01*
X69290767Y-55904849D01*
X69303457Y-55776000D01*
X69303457Y-55476000D01*
X69290767Y-55347151D01*
X69253183Y-55223254D01*
X69192150Y-55109070D01*
X69152023Y-55060174D01*
X70120441Y-54091756D01*
X70131721Y-54094000D01*
X70330279Y-54094000D01*
X70341559Y-54091756D01*
X71036427Y-54786624D01*
X71056247Y-54810775D01*
X71152634Y-54889877D01*
X71262601Y-54948656D01*
X71381921Y-54984851D01*
X71474923Y-54994011D01*
X71474924Y-54994011D01*
X71506010Y-54997073D01*
X71537096Y-54994011D01*
X75823889Y-54994011D01*
X75716607Y-55051355D01*
X75600578Y-55146578D01*
X75505355Y-55262607D01*
X75461637Y-55344397D01*
X75414488Y-55305703D01*
X75283015Y-55235429D01*
X75140359Y-55192155D01*
X74992001Y-55177543D01*
X74341999Y-55177543D01*
X74193641Y-55192155D01*
X74050985Y-55235429D01*
X73919512Y-55305703D01*
X73804275Y-55400275D01*
X73709703Y-55515512D01*
X73639429Y-55646985D01*
X73596155Y-55789641D01*
X73581543Y-55937999D01*
X73581543Y-56838001D01*
X73596155Y-56986359D01*
X73639429Y-57129015D01*
X73709703Y-57260488D01*
X73785196Y-57352477D01*
X73675776Y-57442276D01*
X73581203Y-57557513D01*
X73510929Y-57688986D01*
X73467655Y-57831642D01*
X73453043Y-57980000D01*
X73453043Y-58422000D01*
X66159197Y-58422000D01*
X64061258Y-56324061D01*
X64160014Y-56243014D01*
X64242150Y-56142930D01*
X64303183Y-56028746D01*
X64340767Y-55904849D01*
X64353457Y-55776000D01*
X64353457Y-55476000D01*
X64340767Y-55347151D01*
X64313102Y-55255953D01*
X64384422Y-55197422D01*
X64479645Y-55081393D01*
X64550403Y-54949016D01*
X64593975Y-54805378D01*
X64608687Y-54656000D01*
X64605000Y-54592500D01*
X64414500Y-54402000D01*
X63249000Y-54402000D01*
X63249000Y-54656000D01*
X62702311Y-54656000D01*
X62621380Y-54631450D01*
X62528378Y-54622290D01*
X62497290Y-54619228D01*
X62487000Y-54620242D01*
X62487000Y-54402000D01*
X62467000Y-54402000D01*
X62467000Y-54310000D01*
X62487000Y-54310000D01*
X62487000Y-54056000D01*
X63249000Y-54056000D01*
X63249000Y-54310000D01*
X64414500Y-54310000D01*
X64605000Y-54119500D01*
X64608687Y-54056000D01*
X64593975Y-53906622D01*
X64550403Y-53762984D01*
X64479645Y-53630607D01*
X64384422Y-53514578D01*
X64313102Y-53456047D01*
X64340767Y-53364849D01*
X64353457Y-53236000D01*
X64353457Y-52936000D01*
X64340767Y-52807151D01*
X64303183Y-52683254D01*
X64242150Y-52569070D01*
X64160014Y-52468986D01*
X64138098Y-52451000D01*
X64160014Y-52433014D01*
X64242150Y-52332930D01*
X64303183Y-52218746D01*
X64340767Y-52094849D01*
X64353457Y-51966000D01*
X64353457Y-51666000D01*
X64340767Y-51537151D01*
X64334351Y-51516000D01*
X66077313Y-51516000D01*
X66081000Y-51579500D01*
X66271500Y-51770000D01*
X67437000Y-51770000D01*
X67437000Y-50944500D01*
X67246500Y-50754000D01*
X66843000Y-50750313D01*
X66693622Y-50765025D01*
X66549984Y-50808597D01*
X66417607Y-50879355D01*
X66301578Y-50974578D01*
X66206355Y-51090607D01*
X66135597Y-51222984D01*
X66092025Y-51366622D01*
X66077313Y-51516000D01*
X64334351Y-51516000D01*
X64303183Y-51413254D01*
X64242150Y-51299070D01*
X64160014Y-51198986D01*
X64059930Y-51116850D01*
X63945746Y-51055817D01*
X63821849Y-51018233D01*
X63693000Y-51005543D01*
X62200990Y-51005543D01*
X62200990Y-50503207D01*
X62413741Y-50290457D01*
X63054001Y-50290457D01*
X63202359Y-50275845D01*
X63345015Y-50232571D01*
X63476488Y-50162297D01*
X63523637Y-50123603D01*
X63567355Y-50205393D01*
X63662578Y-50321422D01*
X63778607Y-50416645D01*
X63910984Y-50487403D01*
X64054622Y-50530975D01*
X64204000Y-50545687D01*
X64267500Y-50542000D01*
X64458000Y-50351500D01*
X64458000Y-49461000D01*
X65100000Y-49461000D01*
X65100000Y-50351500D01*
X65290500Y-50542000D01*
X65354000Y-50545687D01*
X65503378Y-50530975D01*
X65647016Y-50487403D01*
X65779393Y-50416645D01*
X65895422Y-50321422D01*
X65990645Y-50205393D01*
X66061403Y-50073016D01*
X66104975Y-49929378D01*
X66119687Y-49780000D01*
X66116000Y-49651500D01*
X65925500Y-49461000D01*
X65100000Y-49461000D01*
X64458000Y-49461000D01*
X64378000Y-49461000D01*
X64378000Y-48699000D01*
X64458000Y-48699000D01*
X64458000Y-47808500D01*
X65100000Y-47808500D01*
X65100000Y-48699000D01*
X65925500Y-48699000D01*
X66116000Y-48508500D01*
X66119687Y-48380000D01*
X66104975Y-48230622D01*
X66061403Y-48086984D01*
X65990645Y-47954607D01*
X65895422Y-47838578D01*
X65779393Y-47743355D01*
X65647016Y-47672597D01*
X65503378Y-47629025D01*
X65354000Y-47614313D01*
X65290500Y-47618000D01*
X65100000Y-47808500D01*
X64458000Y-47808500D01*
X64267500Y-47618000D01*
X64204000Y-47614313D01*
X64054622Y-47629025D01*
X63910984Y-47672597D01*
X63778607Y-47743355D01*
X63662578Y-47838578D01*
X63567355Y-47954607D01*
X63523637Y-48036397D01*
X63476488Y-47997703D01*
X63362000Y-47936508D01*
X63362000Y-47273492D01*
X63476488Y-47212297D01*
X63523637Y-47173603D01*
X63567355Y-47255393D01*
X63662578Y-47371422D01*
X63778607Y-47466645D01*
X63910984Y-47537403D01*
X64054622Y-47580975D01*
X64204000Y-47595687D01*
X64267500Y-47592000D01*
X64458000Y-47401500D01*
X64458000Y-46511000D01*
X65100000Y-46511000D01*
X65100000Y-47401500D01*
X65290500Y-47592000D01*
X65354000Y-47595687D01*
X65503378Y-47580975D01*
X65647016Y-47537403D01*
X65779393Y-47466645D01*
X65895422Y-47371422D01*
X65990645Y-47255393D01*
X66061403Y-47123016D01*
X66104975Y-46979378D01*
X66119687Y-46830000D01*
X66116000Y-46701500D01*
X65925500Y-46511000D01*
X65100000Y-46511000D01*
X64458000Y-46511000D01*
X64378000Y-46511000D01*
X64378000Y-45749000D01*
X64458000Y-45749000D01*
X64458000Y-44858500D01*
X65100000Y-44858500D01*
X65100000Y-45749000D01*
X65925500Y-45749000D01*
X66116000Y-45558500D01*
X66119687Y-45430000D01*
X66104975Y-45280622D01*
X66061403Y-45136984D01*
X65990645Y-45004607D01*
X65895422Y-44888578D01*
X65779393Y-44793355D01*
X65647016Y-44722597D01*
X65503378Y-44679025D01*
X65354000Y-44664313D01*
X65290500Y-44668000D01*
X65100000Y-44858500D01*
X64458000Y-44858500D01*
X64267500Y-44668000D01*
X64204000Y-44664313D01*
X64054622Y-44679025D01*
X63910984Y-44722597D01*
X63778607Y-44793355D01*
X63662578Y-44888578D01*
X63567355Y-45004607D01*
X63523637Y-45086397D01*
X63476488Y-45047703D01*
X63362000Y-44986508D01*
X63362000Y-44323492D01*
X63476488Y-44262297D01*
X63523637Y-44223603D01*
X63567355Y-44305393D01*
X63662578Y-44421422D01*
X63778607Y-44516645D01*
X63910984Y-44587403D01*
X64054622Y-44630975D01*
X64204000Y-44645687D01*
X64267500Y-44642000D01*
X64458000Y-44451500D01*
X64458000Y-43561000D01*
X65100000Y-43561000D01*
X65100000Y-44451500D01*
X65290500Y-44642000D01*
X65354000Y-44645687D01*
X65503378Y-44630975D01*
X65647016Y-44587403D01*
X65779393Y-44516645D01*
X65895422Y-44421422D01*
X65990645Y-44305393D01*
X66061403Y-44173016D01*
X66104975Y-44029378D01*
X66119687Y-43880000D01*
X66116000Y-43751500D01*
X65925500Y-43561000D01*
X65100000Y-43561000D01*
X64458000Y-43561000D01*
X64378000Y-43561000D01*
X64378000Y-42799000D01*
X64458000Y-42799000D01*
X64458000Y-41908500D01*
X65100000Y-41908500D01*
X65100000Y-42799000D01*
X65925500Y-42799000D01*
X66116000Y-42608500D01*
X66119687Y-42480000D01*
X66104975Y-42330622D01*
X66061403Y-42186984D01*
X65990645Y-42054607D01*
X65895422Y-41938578D01*
X65779393Y-41843355D01*
X65647016Y-41772597D01*
X65503378Y-41729025D01*
X65354000Y-41714313D01*
X65290500Y-41718000D01*
X65100000Y-41908500D01*
X64458000Y-41908500D01*
X64267500Y-41718000D01*
X64204000Y-41714313D01*
X64054622Y-41729025D01*
X63910984Y-41772597D01*
X63778607Y-41843355D01*
X63662578Y-41938578D01*
X63567355Y-42054607D01*
X63523637Y-42136397D01*
X63476488Y-42097703D01*
X63345015Y-42027429D01*
X63202359Y-41984155D01*
X63054001Y-41969543D01*
X62403999Y-41969543D01*
X62255641Y-41984155D01*
X62112985Y-42027429D01*
X61981512Y-42097703D01*
X61866275Y-42192275D01*
X61771703Y-42307512D01*
X61701429Y-42438985D01*
X61658155Y-42581641D01*
X61643543Y-42729999D01*
X61643543Y-43630001D01*
X61658155Y-43778359D01*
X61701429Y-43921015D01*
X61771703Y-44052488D01*
X61866275Y-44167725D01*
X61981512Y-44262297D01*
X62096000Y-44323492D01*
X62096000Y-44986508D01*
X61981512Y-45047703D01*
X61866275Y-45142275D01*
X61771703Y-45257512D01*
X61701429Y-45388985D01*
X61658155Y-45531641D01*
X61643543Y-45679999D01*
X61643543Y-46580001D01*
X61658155Y-46728359D01*
X61701429Y-46871015D01*
X61771703Y-47002488D01*
X61866275Y-47117725D01*
X61981512Y-47212297D01*
X62096001Y-47273493D01*
X62096001Y-47936507D01*
X61981512Y-47997703D01*
X61866275Y-48092275D01*
X61771703Y-48207512D01*
X61701429Y-48338985D01*
X61658155Y-48481641D01*
X61643543Y-48629999D01*
X61643543Y-49270259D01*
X61142372Y-49771431D01*
X61118227Y-49791246D01*
X61098411Y-49815392D01*
X61098409Y-49815394D01*
X61039124Y-49887634D01*
X60980346Y-49997600D01*
X60944150Y-50116921D01*
X60931928Y-50241010D01*
X59715000Y-50241010D01*
X59715000Y-43204436D01*
X59789094Y-42398074D01*
X60002236Y-41642330D01*
X60349531Y-40938086D01*
X60819346Y-40308927D01*
X61395956Y-39775914D01*
X62060039Y-39356909D01*
X62789357Y-39065941D01*
X63569828Y-38910695D01*
X64021965Y-38887000D01*
X96495564Y-38887000D01*
X97301926Y-38961094D01*
X97301926Y-38961094D01*
G37*
X97301926Y-38961094D02*
X98057670Y-39174236D01*
X98761914Y-39521531D01*
X99391073Y-39991346D01*
X99924086Y-40567956D01*
X100343091Y-41232039D01*
X100634059Y-41961357D01*
X100789305Y-42741828D01*
X100813001Y-43193984D01*
X100813000Y-58903564D01*
X100738906Y-59709926D01*
X100525763Y-60465672D01*
X100178469Y-61169914D01*
X99708651Y-61799076D01*
X99132045Y-62332086D01*
X98467965Y-62751088D01*
X97738644Y-63042059D01*
X96958172Y-63197305D01*
X96506034Y-63221000D01*
X64032436Y-63221000D01*
X63226074Y-63146906D01*
X62470328Y-62933763D01*
X61766086Y-62586469D01*
X61136924Y-62116651D01*
X60603914Y-61540045D01*
X60184912Y-60875965D01*
X59893941Y-60146644D01*
X59738695Y-59366172D01*
X59715000Y-58914034D01*
X59715000Y-50241010D01*
X60931928Y-50241010D01*
X60934991Y-50272108D01*
X60934990Y-54671670D01*
X60931928Y-54702758D01*
X60937476Y-54759087D01*
X60944150Y-54826847D01*
X60980345Y-54946167D01*
X61039124Y-55056134D01*
X61118226Y-55152522D01*
X61142377Y-55172342D01*
X61388236Y-55418201D01*
X61382543Y-55476000D01*
X61382543Y-55776000D01*
X61395233Y-55904849D01*
X61432817Y-56028746D01*
X61493850Y-56142930D01*
X61575986Y-56243014D01*
X61676070Y-56325150D01*
X61790254Y-56386183D01*
X61914151Y-56423767D01*
X62043000Y-56436457D01*
X62385978Y-56436457D01*
X62418237Y-56475764D01*
X62442383Y-56495580D01*
X63825027Y-57878224D01*
X63525522Y-57878224D01*
X63077346Y-57967372D01*
X62655174Y-58142242D01*
X62275229Y-58396113D01*
X61952113Y-58719229D01*
X61698242Y-59099174D01*
X61523372Y-59521346D01*
X61434224Y-59969522D01*
X61434224Y-60426478D01*
X61523372Y-60874654D01*
X61698242Y-61296826D01*
X61952113Y-61676771D01*
X62275229Y-61999887D01*
X62655174Y-62253758D01*
X63077346Y-62428628D01*
X63525522Y-62517776D01*
X63982478Y-62517776D01*
X64430654Y-62428628D01*
X64852826Y-62253758D01*
X65232771Y-61999887D01*
X65555887Y-61676771D01*
X65809758Y-61296826D01*
X65984628Y-60874654D01*
X66073776Y-60426478D01*
X66073776Y-59969522D01*
X66017778Y-59688000D01*
X73453043Y-59688000D01*
X73453043Y-60130000D01*
X73467655Y-60278358D01*
X73510929Y-60421014D01*
X73581203Y-60552487D01*
X73675776Y-60667724D01*
X73791013Y-60762297D01*
X73922486Y-60832571D01*
X74065142Y-60875845D01*
X74213500Y-60890457D01*
X75138500Y-60890457D01*
X75286858Y-60875845D01*
X75429514Y-60832571D01*
X75560987Y-60762297D01*
X75676224Y-60667724D01*
X75770797Y-60552487D01*
X75841071Y-60421014D01*
X75853512Y-60380000D01*
X76172813Y-60380000D01*
X76187525Y-60529378D01*
X76231097Y-60673016D01*
X76301855Y-60805393D01*
X76397078Y-60921422D01*
X76513107Y-61016645D01*
X76645484Y-61087403D01*
X76789122Y-61130975D01*
X76938500Y-61145687D01*
X77079500Y-61142000D01*
X77270000Y-60951500D01*
X77270000Y-59436000D01*
X78032000Y-59436000D01*
X78032000Y-60951500D01*
X78222500Y-61142000D01*
X78363500Y-61145687D01*
X78512878Y-61130975D01*
X78656516Y-61087403D01*
X78788893Y-61016645D01*
X78807956Y-61001000D01*
X86555313Y-61001000D01*
X86570025Y-61150378D01*
X86613597Y-61294016D01*
X86684355Y-61426393D01*
X86779578Y-61542422D01*
X86895607Y-61637645D01*
X87027984Y-61708403D01*
X87171622Y-61751975D01*
X87321000Y-61766687D01*
X88074500Y-61763000D01*
X88265000Y-61572500D01*
X88265000Y-60669500D01*
X89027000Y-60669500D01*
X89027000Y-61572500D01*
X89217500Y-61763000D01*
X89971000Y-61766687D01*
X90120378Y-61751975D01*
X90264016Y-61708403D01*
X90396393Y-61637645D01*
X90512422Y-61542422D01*
X90607645Y-61426393D01*
X90678403Y-61294016D01*
X90721975Y-61150378D01*
X90736687Y-61001000D01*
X90733000Y-60860000D01*
X90542500Y-60669500D01*
X89027000Y-60669500D01*
X88265000Y-60669500D01*
X86749500Y-60669500D01*
X86559000Y-60860000D01*
X86555313Y-61001000D01*
X78807956Y-61001000D01*
X78904922Y-60921422D01*
X79000145Y-60805393D01*
X79070903Y-60673016D01*
X79114475Y-60529378D01*
X79129187Y-60380000D01*
X79125500Y-59626500D01*
X78935000Y-59436000D01*
X78032000Y-59436000D01*
X77270000Y-59436000D01*
X76367000Y-59436000D01*
X76176500Y-59626500D01*
X76172813Y-60380000D01*
X75853512Y-60380000D01*
X75884345Y-60278358D01*
X75898957Y-60130000D01*
X75898957Y-57980000D01*
X75884345Y-57831642D01*
X75875822Y-57803544D01*
X75992622Y-57838975D01*
X76142000Y-57853687D01*
X76173409Y-57851863D01*
X76176500Y-58483500D01*
X76367000Y-58674000D01*
X77270000Y-58674000D01*
X77270000Y-58654000D01*
X78032000Y-58654000D01*
X78032000Y-58674000D01*
X78935000Y-58674000D01*
X79125500Y-58483500D01*
X79128462Y-57878072D01*
X80477028Y-59226638D01*
X80496844Y-59250784D01*
X80520990Y-59270600D01*
X80520991Y-59270601D01*
X80536080Y-59282984D01*
X80593231Y-59329886D01*
X80703198Y-59388665D01*
X80801555Y-59418501D01*
X80822518Y-59424860D01*
X80946608Y-59437082D01*
X80977696Y-59434020D01*
X86569296Y-59434020D01*
X86555313Y-59576000D01*
X86559000Y-59717000D01*
X86749500Y-59907500D01*
X88265000Y-59907500D01*
X88265000Y-59887500D01*
X89027000Y-59887500D01*
X89027000Y-59907500D01*
X90542500Y-59907500D01*
X90733000Y-59717000D01*
X90736687Y-59576000D01*
X90722704Y-59434020D01*
X91615304Y-59434020D01*
X91646392Y-59437082D01*
X91677480Y-59434020D01*
X91770482Y-59424860D01*
X91889802Y-59388665D01*
X91999769Y-59329886D01*
X92096156Y-59250784D01*
X92115976Y-59226633D01*
X94653543Y-56689066D01*
X94653543Y-57289000D01*
X94668155Y-57437358D01*
X94711429Y-57580014D01*
X94781703Y-57711487D01*
X94876276Y-57826724D01*
X94991513Y-57921297D01*
X95122986Y-57991571D01*
X95265642Y-58034845D01*
X95414000Y-58049457D01*
X96864000Y-58049457D01*
X97012358Y-58034845D01*
X97155014Y-57991571D01*
X97286487Y-57921297D01*
X97401724Y-57826724D01*
X97496297Y-57711487D01*
X97566571Y-57580014D01*
X97609845Y-57437358D01*
X97624457Y-57289000D01*
X97624457Y-56089000D01*
X97609845Y-55940642D01*
X97566571Y-55797986D01*
X97496297Y-55666513D01*
X97401724Y-55551276D01*
X97286487Y-55456703D01*
X97256141Y-55440482D01*
X97308589Y-55403662D01*
X97525486Y-55176533D01*
X97693905Y-54911454D01*
X97751442Y-54810337D01*
X97633489Y-54570000D01*
X96520000Y-54570000D01*
X96520000Y-54590000D01*
X95758000Y-54590000D01*
X95758000Y-54570000D01*
X95738000Y-54570000D01*
X95738000Y-53808000D01*
X95758000Y-53808000D01*
X95758000Y-53788000D01*
X96520000Y-53788000D01*
X96520000Y-53808000D01*
X97633489Y-53808000D01*
X97751442Y-53567663D01*
X97693905Y-53466546D01*
X97525486Y-53201467D01*
X97308589Y-52974338D01*
X97055196Y-52796448D01*
X97228897Y-52653897D01*
X97398598Y-52447114D01*
X97524698Y-52211198D01*
X97602350Y-51955214D01*
X97628570Y-51689000D01*
X97602350Y-51422786D01*
X97524698Y-51166802D01*
X97398598Y-50930886D01*
X97228897Y-50724103D01*
X97022114Y-50554402D01*
X96806213Y-50439000D01*
X97022114Y-50323598D01*
X97228897Y-50153897D01*
X97398598Y-49947114D01*
X97524698Y-49711198D01*
X97602350Y-49455214D01*
X97628570Y-49189000D01*
X97602350Y-48922786D01*
X97524698Y-48666802D01*
X97398598Y-48430886D01*
X97228897Y-48224103D01*
X97022114Y-48054402D01*
X96786198Y-47928302D01*
X96530214Y-47850650D01*
X96330706Y-47831000D01*
X95947294Y-47831000D01*
X95747786Y-47850650D01*
X95491802Y-47928302D01*
X95255886Y-48054402D01*
X95049103Y-48224103D01*
X94879402Y-48430886D01*
X94753302Y-48666802D01*
X94675650Y-48922786D01*
X94649430Y-49189000D01*
X94675650Y-49455214D01*
X94753302Y-49711198D01*
X94879402Y-49947114D01*
X95049103Y-50153897D01*
X95255886Y-50323598D01*
X95471787Y-50439000D01*
X95255886Y-50554402D01*
X95049103Y-50724103D01*
X94891030Y-50916717D01*
X94891030Y-50705705D01*
X94894092Y-50674619D01*
X94888477Y-50617610D01*
X94881870Y-50550531D01*
X94845675Y-50431211D01*
X94845674Y-50431208D01*
X94786896Y-50321243D01*
X94727610Y-50249003D01*
X94707794Y-50224857D01*
X94683648Y-50205041D01*
X91509102Y-47030495D01*
X91650584Y-47079735D01*
X91896793Y-47114071D01*
X92144970Y-47099715D01*
X92385578Y-47037217D01*
X92480196Y-46998025D01*
X92515914Y-46762810D01*
X91948000Y-46194897D01*
X91838398Y-46304498D01*
X91490502Y-45956602D01*
X91600103Y-45847000D01*
X92295897Y-45847000D01*
X92863810Y-46414914D01*
X93099025Y-46379196D01*
X93180735Y-46144416D01*
X93215071Y-45898207D01*
X93200715Y-45650030D01*
X93138217Y-45409422D01*
X93099025Y-45314804D01*
X92863810Y-45279086D01*
X92295897Y-45847000D01*
X91600103Y-45847000D01*
X91032190Y-45279086D01*
X90796975Y-45314804D01*
X90715265Y-45549584D01*
X90680929Y-45795793D01*
X90695285Y-46043970D01*
X90755887Y-46277280D01*
X90280994Y-45802387D01*
X90261174Y-45778236D01*
X90164787Y-45699134D01*
X90054820Y-45640355D01*
X89935500Y-45604160D01*
X89842498Y-45595000D01*
X89811410Y-45591938D01*
X89780322Y-45595000D01*
X88910457Y-45595000D01*
X88910457Y-45428000D01*
X88900649Y-45328415D01*
X88871601Y-45232657D01*
X88824429Y-45144405D01*
X88760948Y-45067052D01*
X88683595Y-45003571D01*
X88595343Y-44956399D01*
X88499585Y-44927351D01*
X88400000Y-44917543D01*
X87958000Y-44917543D01*
X87958000Y-44534797D01*
X88055997Y-44436800D01*
X88673574Y-44436800D01*
X88687229Y-44481815D01*
X88757503Y-44613288D01*
X88852075Y-44728525D01*
X88967312Y-44823097D01*
X89098785Y-44893371D01*
X89241441Y-44936645D01*
X89389799Y-44951257D01*
X90289801Y-44951257D01*
X90438159Y-44936645D01*
X90456141Y-44931190D01*
X91380086Y-44931190D01*
X91948000Y-45499103D01*
X92515914Y-44931190D01*
X92480196Y-44695975D01*
X92245416Y-44614265D01*
X91999207Y-44579929D01*
X91751030Y-44594285D01*
X91510422Y-44656783D01*
X91415804Y-44695975D01*
X91380086Y-44931190D01*
X90456141Y-44931190D01*
X90580815Y-44893371D01*
X90712288Y-44823097D01*
X90827525Y-44728525D01*
X90922097Y-44613288D01*
X90992371Y-44481815D01*
X91035645Y-44339159D01*
X91050257Y-44190801D01*
X91050257Y-43540799D01*
X91035645Y-43392441D01*
X90992371Y-43249785D01*
X90922097Y-43118312D01*
X90883403Y-43071163D01*
X90965193Y-43027445D01*
X91081222Y-42932222D01*
X91176445Y-42816193D01*
X91247203Y-42683816D01*
X91290775Y-42540178D01*
X91305487Y-42390800D01*
X91301800Y-42327300D01*
X91111300Y-42136800D01*
X90220800Y-42136800D01*
X90220800Y-42216800D01*
X89458800Y-42216800D01*
X89458800Y-42136800D01*
X88568300Y-42136800D01*
X88541854Y-42163246D01*
X88540401Y-42158457D01*
X88493229Y-42070205D01*
X88429748Y-41992852D01*
X88359891Y-41935522D01*
X94962224Y-41935522D01*
X94962224Y-42392478D01*
X95051372Y-42840654D01*
X95226242Y-43262826D01*
X95480113Y-43642771D01*
X95803229Y-43965887D01*
X96183174Y-44219758D01*
X96605346Y-44394628D01*
X97053522Y-44483776D01*
X97510478Y-44483776D01*
X97958654Y-44394628D01*
X98380826Y-44219758D01*
X98760771Y-43965887D01*
X99083887Y-43642771D01*
X99337758Y-43262826D01*
X99512628Y-42840654D01*
X99601776Y-42392478D01*
X99601776Y-41935522D01*
X99512628Y-41487346D01*
X99337758Y-41065174D01*
X99083887Y-40685229D01*
X98760771Y-40362113D01*
X98380826Y-40108242D01*
X97958654Y-39933372D01*
X97510478Y-39844224D01*
X97053522Y-39844224D01*
X96605346Y-39933372D01*
X96183174Y-40108242D01*
X95803229Y-40362113D01*
X95480113Y-40685229D01*
X95226242Y-41065174D01*
X95051372Y-41487346D01*
X94962224Y-41935522D01*
X88359891Y-41935522D01*
X88352395Y-41929371D01*
X88264143Y-41882199D01*
X88168385Y-41853151D01*
X88068800Y-41843343D01*
X87268800Y-41843343D01*
X87169215Y-41853151D01*
X87073457Y-41882199D01*
X86985205Y-41929371D01*
X86918800Y-41983867D01*
X86852395Y-41929371D01*
X86764143Y-41882199D01*
X86668385Y-41853151D01*
X86568800Y-41843343D01*
X85768800Y-41843343D01*
X85669215Y-41853151D01*
X85573457Y-41882199D01*
X85485205Y-41929371D01*
X85407852Y-41992852D01*
X85344371Y-42070205D01*
X85297199Y-42158457D01*
X85295746Y-42163246D01*
X85269300Y-42136800D01*
X84378800Y-42136800D01*
X84378800Y-42216800D01*
X83616800Y-42216800D01*
X83616800Y-42136800D01*
X82726300Y-42136800D01*
X82535800Y-42327300D01*
X82532113Y-42390800D01*
X82546825Y-42540178D01*
X82590397Y-42683816D01*
X82661155Y-42816193D01*
X82756378Y-42932222D01*
X82872407Y-43027445D01*
X82954197Y-43071163D01*
X82915503Y-43118312D01*
X82845229Y-43249785D01*
X82801955Y-43392441D01*
X82787343Y-43540799D01*
X82787343Y-44190801D01*
X82800560Y-44325000D01*
X80972197Y-44325000D01*
X80004583Y-43357386D01*
X79984763Y-43333235D01*
X79888376Y-43254133D01*
X79778409Y-43195354D01*
X79659089Y-43159159D01*
X79566087Y-43149999D01*
X79534999Y-43146937D01*
X79503911Y-43149999D01*
X79465457Y-43149999D01*
X79465457Y-41568000D01*
X79455649Y-41468415D01*
X79426601Y-41372657D01*
X79379429Y-41284405D01*
X79343644Y-41240800D01*
X82532113Y-41240800D01*
X82535800Y-41304300D01*
X82726300Y-41494800D01*
X83616800Y-41494800D01*
X83616800Y-40669300D01*
X84378800Y-40669300D01*
X84378800Y-41494800D01*
X85269300Y-41494800D01*
X85459800Y-41304300D01*
X85463487Y-41240800D01*
X88374113Y-41240800D01*
X88377800Y-41304300D01*
X88568300Y-41494800D01*
X89458800Y-41494800D01*
X89458800Y-40669300D01*
X90220800Y-40669300D01*
X90220800Y-41494800D01*
X91111300Y-41494800D01*
X91301800Y-41304300D01*
X91305487Y-41240800D01*
X91290775Y-41091422D01*
X91247203Y-40947784D01*
X91176445Y-40815407D01*
X91081222Y-40699378D01*
X90965193Y-40604155D01*
X90832816Y-40533397D01*
X90689178Y-40489825D01*
X90539800Y-40475113D01*
X90411300Y-40478800D01*
X90220800Y-40669300D01*
X89458800Y-40669300D01*
X89268300Y-40478800D01*
X89139800Y-40475113D01*
X88990422Y-40489825D01*
X88846784Y-40533397D01*
X88714407Y-40604155D01*
X88598378Y-40699378D01*
X88503155Y-40815407D01*
X88432397Y-40947784D01*
X88388825Y-41091422D01*
X88374113Y-41240800D01*
X85463487Y-41240800D01*
X85448775Y-41091422D01*
X85405203Y-40947784D01*
X85334445Y-40815407D01*
X85239222Y-40699378D01*
X85123193Y-40604155D01*
X84990816Y-40533397D01*
X84847178Y-40489825D01*
X84697800Y-40475113D01*
X84569300Y-40478800D01*
X84378800Y-40669300D01*
X83616800Y-40669300D01*
X83426300Y-40478800D01*
X83297800Y-40475113D01*
X83148422Y-40489825D01*
X83004784Y-40533397D01*
X82872407Y-40604155D01*
X82756378Y-40699378D01*
X82661155Y-40815407D01*
X82590397Y-40947784D01*
X82546825Y-41091422D01*
X82532113Y-41240800D01*
X79343644Y-41240800D01*
X79315948Y-41207052D01*
X79238595Y-41143571D01*
X79150343Y-41096399D01*
X79054585Y-41067351D01*
X78955000Y-41057543D01*
X77255000Y-41057543D01*
X77155415Y-41067351D01*
X77059657Y-41096399D01*
X76971405Y-41143571D01*
X76894052Y-41207052D01*
X76830571Y-41284405D01*
X76783399Y-41372657D01*
X76754351Y-41468415D01*
X76744543Y-41568000D01*
X76744543Y-41743972D01*
X76699598Y-41659886D01*
X76529897Y-41453103D01*
X76323114Y-41283402D01*
X76087198Y-41157302D01*
X75831214Y-41079650D01*
X75631706Y-41060000D01*
X75498294Y-41060000D01*
X75298786Y-41079650D01*
X75042802Y-41157302D01*
X74806886Y-41283402D01*
X74600103Y-41453103D01*
X74430402Y-41659886D01*
X74304302Y-41895802D01*
X74295000Y-41926467D01*
X74285698Y-41895802D01*
X74159598Y-41659886D01*
X73989897Y-41453103D01*
X73783114Y-41283402D01*
X73547198Y-41157302D01*
X73291214Y-41079650D01*
X73091706Y-41060000D01*
X72958294Y-41060000D01*
X72758786Y-41079650D01*
X72502802Y-41157302D01*
X72266886Y-41283402D01*
X72060103Y-41453103D01*
X71890402Y-41659886D01*
X71829407Y-41774000D01*
X70066574Y-41774000D01*
X69954622Y-41785026D01*
X69810985Y-41828598D01*
X69678608Y-41899355D01*
X69562578Y-41994578D01*
X69467355Y-42110608D01*
X69396598Y-42242985D01*
X69353026Y-42386622D01*
X69338314Y-42536000D01*
X69353026Y-42685378D01*
X69396598Y-42829015D01*
X69467355Y-42961392D01*
X69562578Y-43077422D01*
X69678608Y-43172645D01*
X69810985Y-43243402D01*
X69954622Y-43286974D01*
X70066574Y-43298000D01*
X71990430Y-43298000D01*
X72060103Y-43382897D01*
X72260290Y-43547185D01*
X72133423Y-43614989D01*
X71888546Y-43814733D01*
X71687342Y-44058412D01*
X71537544Y-44336661D01*
X71649158Y-44577000D01*
X72644000Y-44577000D01*
X72644000Y-44557000D01*
X73406000Y-44557000D01*
X73406000Y-44577000D01*
X73426000Y-44577000D01*
X73426000Y-45339000D01*
X73406000Y-45339000D01*
X73406000Y-45359000D01*
X72644000Y-45359000D01*
X72644000Y-45339000D01*
X71649158Y-45339000D01*
X71537544Y-45579339D01*
X71687342Y-45857588D01*
X71785114Y-45976000D01*
X71278088Y-45976000D01*
X71247000Y-45972938D01*
X71215912Y-45976000D01*
X71122910Y-45985160D01*
X71003590Y-46021355D01*
X70961281Y-46043970D01*
X70893623Y-46080134D01*
X70864652Y-46103910D01*
X70797236Y-46159236D01*
X70777420Y-46183382D01*
X70341559Y-46619244D01*
X70330279Y-46617000D01*
X70131721Y-46617000D01*
X69936977Y-46655737D01*
X69753533Y-46731722D01*
X69588438Y-46842035D01*
X69448035Y-46982438D01*
X69337722Y-47147533D01*
X69261737Y-47330977D01*
X69223000Y-47525721D01*
X69223000Y-47724279D01*
X69261737Y-47919023D01*
X69337722Y-48102467D01*
X69448035Y-48267562D01*
X69588438Y-48407965D01*
X69753533Y-48518278D01*
X69936977Y-48594263D01*
X70131721Y-48633000D01*
X70330279Y-48633000D01*
X70525023Y-48594263D01*
X70525906Y-48593897D01*
X70341559Y-48778244D01*
X70330279Y-48776000D01*
X70131721Y-48776000D01*
X69936977Y-48814737D01*
X69753533Y-48890722D01*
X69588438Y-49001035D01*
X69448035Y-49141438D01*
X69337722Y-49306533D01*
X69261737Y-49489977D01*
X69223000Y-49684721D01*
X69223000Y-49883279D01*
X69261737Y-50078023D01*
X69337722Y-50261467D01*
X69448035Y-50426562D01*
X69588438Y-50566965D01*
X69753533Y-50677278D01*
X69936977Y-50753263D01*
X70131721Y-50792000D01*
X70330279Y-50792000D01*
X70525023Y-50753263D01*
X70708467Y-50677278D01*
X70873562Y-50566965D01*
X71013965Y-50426562D01*
X71124278Y-50261467D01*
X71200263Y-50078023D01*
X71239000Y-49883279D01*
X71239000Y-49684721D01*
X73541000Y-49684721D01*
X73541000Y-49883279D01*
X73579737Y-50078023D01*
X73655722Y-50261467D01*
X73766035Y-50426562D01*
X73906438Y-50566965D01*
X74071533Y-50677278D01*
X74254977Y-50753263D01*
X74449721Y-50792000D01*
X74648279Y-50792000D01*
X74843023Y-50753263D01*
X75026467Y-50677278D01*
X75191562Y-50566965D01*
X75331965Y-50426562D01*
X75442278Y-50261467D01*
X75518263Y-50078023D01*
X75557000Y-49883279D01*
X75557000Y-49684721D01*
X75518263Y-49489977D01*
X75442278Y-49306533D01*
X75331965Y-49141438D01*
X75191562Y-49001035D01*
X75026467Y-48890722D01*
X74843023Y-48814737D01*
X74648279Y-48776000D01*
X74449721Y-48776000D01*
X74254977Y-48814737D01*
X74071533Y-48890722D01*
X73906438Y-49001035D01*
X73766035Y-49141438D01*
X73655722Y-49306533D01*
X73579737Y-49489977D01*
X73541000Y-49684721D01*
X71239000Y-49684721D01*
X71236756Y-49673441D01*
X73218187Y-47692010D01*
X76164618Y-47692010D01*
X76157341Y-47702901D01*
X76088894Y-47868146D01*
X76054000Y-48043570D01*
X76054000Y-48222430D01*
X76088894Y-48397854D01*
X76157341Y-48563099D01*
X76256711Y-48711816D01*
X76329000Y-48784105D01*
X76329000Y-48926087D01*
X76329001Y-48926097D01*
X76329000Y-51867102D01*
X76325938Y-51898190D01*
X76331364Y-51953279D01*
X76338160Y-52022279D01*
X76374355Y-52141599D01*
X76433134Y-52251566D01*
X76512236Y-52347954D01*
X76536387Y-52367774D01*
X80652550Y-56483938D01*
X80637438Y-56494035D01*
X80497035Y-56634438D01*
X80422774Y-56745578D01*
X77162583Y-53485388D01*
X77142763Y-53461237D01*
X77046376Y-53382135D01*
X76936409Y-53323356D01*
X76817089Y-53287161D01*
X76724087Y-53278001D01*
X76692999Y-53274939D01*
X76661911Y-53278001D01*
X75538556Y-53278001D01*
X75557000Y-53185279D01*
X75557000Y-52986721D01*
X75518263Y-52791977D01*
X75442278Y-52608533D01*
X75331965Y-52443438D01*
X75191562Y-52303035D01*
X75026467Y-52192722D01*
X74843023Y-52116737D01*
X74648279Y-52078000D01*
X74449721Y-52078000D01*
X74254977Y-52116737D01*
X74071533Y-52192722D01*
X73906438Y-52303035D01*
X73766035Y-52443438D01*
X73655722Y-52608533D01*
X73579737Y-52791977D01*
X73541000Y-52986721D01*
X73541000Y-53185279D01*
X73559444Y-53278001D01*
X73477198Y-53278001D01*
X73395756Y-53196559D01*
X73398000Y-53185279D01*
X73398000Y-52986721D01*
X73359263Y-52791977D01*
X73283278Y-52608533D01*
X73172965Y-52443438D01*
X73032562Y-52303035D01*
X73017606Y-52293042D01*
X73017274Y-52289674D01*
X73013840Y-52254804D01*
X72977645Y-52135484D01*
X72918866Y-52025517D01*
X72839764Y-51929130D01*
X72815610Y-51909308D01*
X72741690Y-51835388D01*
X72721869Y-51811235D01*
X72625482Y-51732133D01*
X72515515Y-51673354D01*
X72396195Y-51637159D01*
X72303193Y-51627999D01*
X72272105Y-51624937D01*
X72241017Y-51627999D01*
X69891367Y-51627999D01*
X69860289Y-51624938D01*
X69829211Y-51627999D01*
X69829202Y-51627999D01*
X69736200Y-51637159D01*
X69616880Y-51673354D01*
X69555000Y-51706430D01*
X69555000Y-51579500D01*
X69558687Y-51516000D01*
X69555000Y-51478564D01*
X69555000Y-51434998D01*
X69550709Y-51434998D01*
X69543975Y-51366622D01*
X69500403Y-51222984D01*
X69429645Y-51090607D01*
X69334422Y-50974578D01*
X69218393Y-50879355D01*
X69086016Y-50808597D01*
X68942378Y-50765025D01*
X68793000Y-50750313D01*
X68389500Y-50754000D01*
X68199000Y-50944500D01*
X68199000Y-51770000D01*
X68219000Y-51770000D01*
X68219000Y-51862000D01*
X68199000Y-51862000D01*
X68199000Y-52080242D01*
X68188709Y-52079228D01*
X68157623Y-52082290D01*
X68157622Y-52082290D01*
X68064620Y-52091450D01*
X67983689Y-52116000D01*
X67437000Y-52116000D01*
X67437000Y-51862000D01*
X66271500Y-51862000D01*
X66081000Y-52052500D01*
X66077313Y-52116000D01*
X66092025Y-52265378D01*
X66135597Y-52409016D01*
X66206355Y-52541393D01*
X66301578Y-52657422D01*
X66372898Y-52715953D01*
X66345233Y-52807151D01*
X66332543Y-52936000D01*
X66332543Y-53236000D01*
X66345233Y-53364849D01*
X66382817Y-53488746D01*
X66443850Y-53602930D01*
X66525986Y-53703014D01*
X66547902Y-53721000D01*
X66525986Y-53738986D01*
X66443850Y-53839070D01*
X66382817Y-53953254D01*
X66345233Y-54077151D01*
X66332543Y-54206000D01*
X66332543Y-54506000D01*
X66345233Y-54634849D01*
X66382817Y-54758746D01*
X66443850Y-54872930D01*
X66525986Y-54973014D01*
X66547902Y-54991000D01*
X66525986Y-55008986D01*
X66443850Y-55109070D01*
X66382817Y-55223254D01*
X66345233Y-55347151D01*
X66332543Y-55476000D01*
X66332543Y-55776000D01*
X66345233Y-55904849D01*
X66382817Y-56028746D01*
X66443850Y-56142930D01*
X66525986Y-56243014D01*
X66626070Y-56325150D01*
X66740254Y-56386183D01*
X66864151Y-56423767D01*
X66993000Y-56436457D01*
X67401899Y-56436457D01*
X67553146Y-56499106D01*
X67728570Y-56534000D01*
X67907430Y-56534000D01*
X68082854Y-56499106D01*
X68234101Y-56436457D01*
X68643000Y-56436457D01*
X68771849Y-56423767D01*
X68895746Y-56386183D01*
X69009930Y-56325150D01*
X69110014Y-56243014D01*
X69192150Y-56142930D01*
X69253183Y-56028746D01*
X69290767Y-55904849D01*
X69303457Y-55776000D01*
X69303457Y-55476000D01*
X69290767Y-55347151D01*
X69253183Y-55223254D01*
X69192150Y-55109070D01*
X69152023Y-55060174D01*
X70120441Y-54091756D01*
X70131721Y-54094000D01*
X70330279Y-54094000D01*
X70341559Y-54091756D01*
X71036427Y-54786624D01*
X71056247Y-54810775D01*
X71152634Y-54889877D01*
X71262601Y-54948656D01*
X71381921Y-54984851D01*
X71474923Y-54994011D01*
X71474924Y-54994011D01*
X71506010Y-54997073D01*
X71537096Y-54994011D01*
X75823889Y-54994011D01*
X75716607Y-55051355D01*
X75600578Y-55146578D01*
X75505355Y-55262607D01*
X75461637Y-55344397D01*
X75414488Y-55305703D01*
X75283015Y-55235429D01*
X75140359Y-55192155D01*
X74992001Y-55177543D01*
X74341999Y-55177543D01*
X74193641Y-55192155D01*
X74050985Y-55235429D01*
X73919512Y-55305703D01*
X73804275Y-55400275D01*
X73709703Y-55515512D01*
X73639429Y-55646985D01*
X73596155Y-55789641D01*
X73581543Y-55937999D01*
X73581543Y-56838001D01*
X73596155Y-56986359D01*
X73639429Y-57129015D01*
X73709703Y-57260488D01*
X73785196Y-57352477D01*
X73675776Y-57442276D01*
X73581203Y-57557513D01*
X73510929Y-57688986D01*
X73467655Y-57831642D01*
X73453043Y-57980000D01*
X73453043Y-58422000D01*
X66159197Y-58422000D01*
X64061258Y-56324061D01*
X64160014Y-56243014D01*
X64242150Y-56142930D01*
X64303183Y-56028746D01*
X64340767Y-55904849D01*
X64353457Y-55776000D01*
X64353457Y-55476000D01*
X64340767Y-55347151D01*
X64313102Y-55255953D01*
X64384422Y-55197422D01*
X64479645Y-55081393D01*
X64550403Y-54949016D01*
X64593975Y-54805378D01*
X64608687Y-54656000D01*
X64605000Y-54592500D01*
X64414500Y-54402000D01*
X63249000Y-54402000D01*
X63249000Y-54656000D01*
X62702311Y-54656000D01*
X62621380Y-54631450D01*
X62528378Y-54622290D01*
X62497290Y-54619228D01*
X62487000Y-54620242D01*
X62487000Y-54402000D01*
X62467000Y-54402000D01*
X62467000Y-54310000D01*
X62487000Y-54310000D01*
X62487000Y-54056000D01*
X63249000Y-54056000D01*
X63249000Y-54310000D01*
X64414500Y-54310000D01*
X64605000Y-54119500D01*
X64608687Y-54056000D01*
X64593975Y-53906622D01*
X64550403Y-53762984D01*
X64479645Y-53630607D01*
X64384422Y-53514578D01*
X64313102Y-53456047D01*
X64340767Y-53364849D01*
X64353457Y-53236000D01*
X64353457Y-52936000D01*
X64340767Y-52807151D01*
X64303183Y-52683254D01*
X64242150Y-52569070D01*
X64160014Y-52468986D01*
X64138098Y-52451000D01*
X64160014Y-52433014D01*
X64242150Y-52332930D01*
X64303183Y-52218746D01*
X64340767Y-52094849D01*
X64353457Y-51966000D01*
X64353457Y-51666000D01*
X64340767Y-51537151D01*
X64334351Y-51516000D01*
X66077313Y-51516000D01*
X66081000Y-51579500D01*
X66271500Y-51770000D01*
X67437000Y-51770000D01*
X67437000Y-50944500D01*
X67246500Y-50754000D01*
X66843000Y-50750313D01*
X66693622Y-50765025D01*
X66549984Y-50808597D01*
X66417607Y-50879355D01*
X66301578Y-50974578D01*
X66206355Y-51090607D01*
X66135597Y-51222984D01*
X66092025Y-51366622D01*
X66077313Y-51516000D01*
X64334351Y-51516000D01*
X64303183Y-51413254D01*
X64242150Y-51299070D01*
X64160014Y-51198986D01*
X64059930Y-51116850D01*
X63945746Y-51055817D01*
X63821849Y-51018233D01*
X63693000Y-51005543D01*
X62200990Y-51005543D01*
X62200990Y-50503207D01*
X62413741Y-50290457D01*
X63054001Y-50290457D01*
X63202359Y-50275845D01*
X63345015Y-50232571D01*
X63476488Y-50162297D01*
X63523637Y-50123603D01*
X63567355Y-50205393D01*
X63662578Y-50321422D01*
X63778607Y-50416645D01*
X63910984Y-50487403D01*
X64054622Y-50530975D01*
X64204000Y-50545687D01*
X64267500Y-50542000D01*
X64458000Y-50351500D01*
X64458000Y-49461000D01*
X65100000Y-49461000D01*
X65100000Y-50351500D01*
X65290500Y-50542000D01*
X65354000Y-50545687D01*
X65503378Y-50530975D01*
X65647016Y-50487403D01*
X65779393Y-50416645D01*
X65895422Y-50321422D01*
X65990645Y-50205393D01*
X66061403Y-50073016D01*
X66104975Y-49929378D01*
X66119687Y-49780000D01*
X66116000Y-49651500D01*
X65925500Y-49461000D01*
X65100000Y-49461000D01*
X64458000Y-49461000D01*
X64378000Y-49461000D01*
X64378000Y-48699000D01*
X64458000Y-48699000D01*
X64458000Y-47808500D01*
X65100000Y-47808500D01*
X65100000Y-48699000D01*
X65925500Y-48699000D01*
X66116000Y-48508500D01*
X66119687Y-48380000D01*
X66104975Y-48230622D01*
X66061403Y-48086984D01*
X65990645Y-47954607D01*
X65895422Y-47838578D01*
X65779393Y-47743355D01*
X65647016Y-47672597D01*
X65503378Y-47629025D01*
X65354000Y-47614313D01*
X65290500Y-47618000D01*
X65100000Y-47808500D01*
X64458000Y-47808500D01*
X64267500Y-47618000D01*
X64204000Y-47614313D01*
X64054622Y-47629025D01*
X63910984Y-47672597D01*
X63778607Y-47743355D01*
X63662578Y-47838578D01*
X63567355Y-47954607D01*
X63523637Y-48036397D01*
X63476488Y-47997703D01*
X63362000Y-47936508D01*
X63362000Y-47273492D01*
X63476488Y-47212297D01*
X63523637Y-47173603D01*
X63567355Y-47255393D01*
X63662578Y-47371422D01*
X63778607Y-47466645D01*
X63910984Y-47537403D01*
X64054622Y-47580975D01*
X64204000Y-47595687D01*
X64267500Y-47592000D01*
X64458000Y-47401500D01*
X64458000Y-46511000D01*
X65100000Y-46511000D01*
X65100000Y-47401500D01*
X65290500Y-47592000D01*
X65354000Y-47595687D01*
X65503378Y-47580975D01*
X65647016Y-47537403D01*
X65779393Y-47466645D01*
X65895422Y-47371422D01*
X65990645Y-47255393D01*
X66061403Y-47123016D01*
X66104975Y-46979378D01*
X66119687Y-46830000D01*
X66116000Y-46701500D01*
X65925500Y-46511000D01*
X65100000Y-46511000D01*
X64458000Y-46511000D01*
X64378000Y-46511000D01*
X64378000Y-45749000D01*
X64458000Y-45749000D01*
X64458000Y-44858500D01*
X65100000Y-44858500D01*
X65100000Y-45749000D01*
X65925500Y-45749000D01*
X66116000Y-45558500D01*
X66119687Y-45430000D01*
X66104975Y-45280622D01*
X66061403Y-45136984D01*
X65990645Y-45004607D01*
X65895422Y-44888578D01*
X65779393Y-44793355D01*
X65647016Y-44722597D01*
X65503378Y-44679025D01*
X65354000Y-44664313D01*
X65290500Y-44668000D01*
X65100000Y-44858500D01*
X64458000Y-44858500D01*
X64267500Y-44668000D01*
X64204000Y-44664313D01*
X64054622Y-44679025D01*
X63910984Y-44722597D01*
X63778607Y-44793355D01*
X63662578Y-44888578D01*
X63567355Y-45004607D01*
X63523637Y-45086397D01*
X63476488Y-45047703D01*
X63362000Y-44986508D01*
X63362000Y-44323492D01*
X63476488Y-44262297D01*
X63523637Y-44223603D01*
X63567355Y-44305393D01*
X63662578Y-44421422D01*
X63778607Y-44516645D01*
X63910984Y-44587403D01*
X64054622Y-44630975D01*
X64204000Y-44645687D01*
X64267500Y-44642000D01*
X64458000Y-44451500D01*
X64458000Y-43561000D01*
X65100000Y-43561000D01*
X65100000Y-44451500D01*
X65290500Y-44642000D01*
X65354000Y-44645687D01*
X65503378Y-44630975D01*
X65647016Y-44587403D01*
X65779393Y-44516645D01*
X65895422Y-44421422D01*
X65990645Y-44305393D01*
X66061403Y-44173016D01*
X66104975Y-44029378D01*
X66119687Y-43880000D01*
X66116000Y-43751500D01*
X65925500Y-43561000D01*
X65100000Y-43561000D01*
X64458000Y-43561000D01*
X64378000Y-43561000D01*
X64378000Y-42799000D01*
X64458000Y-42799000D01*
X64458000Y-41908500D01*
X65100000Y-41908500D01*
X65100000Y-42799000D01*
X65925500Y-42799000D01*
X66116000Y-42608500D01*
X66119687Y-42480000D01*
X66104975Y-42330622D01*
X66061403Y-42186984D01*
X65990645Y-42054607D01*
X65895422Y-41938578D01*
X65779393Y-41843355D01*
X65647016Y-41772597D01*
X65503378Y-41729025D01*
X65354000Y-41714313D01*
X65290500Y-41718000D01*
X65100000Y-41908500D01*
X64458000Y-41908500D01*
X64267500Y-41718000D01*
X64204000Y-41714313D01*
X64054622Y-41729025D01*
X63910984Y-41772597D01*
X63778607Y-41843355D01*
X63662578Y-41938578D01*
X63567355Y-42054607D01*
X63523637Y-42136397D01*
X63476488Y-42097703D01*
X63345015Y-42027429D01*
X63202359Y-41984155D01*
X63054001Y-41969543D01*
X62403999Y-41969543D01*
X62255641Y-41984155D01*
X62112985Y-42027429D01*
X61981512Y-42097703D01*
X61866275Y-42192275D01*
X61771703Y-42307512D01*
X61701429Y-42438985D01*
X61658155Y-42581641D01*
X61643543Y-42729999D01*
X61643543Y-43630001D01*
X61658155Y-43778359D01*
X61701429Y-43921015D01*
X61771703Y-44052488D01*
X61866275Y-44167725D01*
X61981512Y-44262297D01*
X62096000Y-44323492D01*
X62096000Y-44986508D01*
X61981512Y-45047703D01*
X61866275Y-45142275D01*
X61771703Y-45257512D01*
X61701429Y-45388985D01*
X61658155Y-45531641D01*
X61643543Y-45679999D01*
X61643543Y-46580001D01*
X61658155Y-46728359D01*
X61701429Y-46871015D01*
X61771703Y-47002488D01*
X61866275Y-47117725D01*
X61981512Y-47212297D01*
X62096001Y-47273493D01*
X62096001Y-47936507D01*
X61981512Y-47997703D01*
X61866275Y-48092275D01*
X61771703Y-48207512D01*
X61701429Y-48338985D01*
X61658155Y-48481641D01*
X61643543Y-48629999D01*
X61643543Y-49270259D01*
X61142372Y-49771431D01*
X61118227Y-49791246D01*
X61098411Y-49815392D01*
X61098409Y-49815394D01*
X61039124Y-49887634D01*
X60980346Y-49997600D01*
X60944150Y-50116921D01*
X60931928Y-50241010D01*
X59715000Y-50241010D01*
X59715000Y-43204436D01*
X59789094Y-42398074D01*
X60002236Y-41642330D01*
X60349531Y-40938086D01*
X60819346Y-40308927D01*
X61395956Y-39775914D01*
X62060039Y-39356909D01*
X62789357Y-39065941D01*
X63569828Y-38910695D01*
X64021965Y-38887000D01*
X96495564Y-38887000D01*
X97301926Y-38961094D01*
G36*
X83506000Y-56896000D02*
G01*
X83586000Y-56896000D01*
X83586000Y-57658000D01*
X83506000Y-57658000D01*
X83506000Y-57678000D01*
X82864000Y-57678000D01*
X82864000Y-57658000D01*
X82784000Y-57658000D01*
X82784000Y-56896000D01*
X82864000Y-56896000D01*
X82864000Y-56876000D01*
X83506000Y-56876000D01*
X83506000Y-56896000D01*
X83506000Y-56896000D01*
G37*
X83506000Y-56896000D02*
X83586000Y-56896000D01*
X83586000Y-57658000D01*
X83506000Y-57658000D01*
X83506000Y-57678000D01*
X82864000Y-57678000D01*
X82864000Y-57658000D01*
X82784000Y-57658000D01*
X82784000Y-56896000D01*
X82864000Y-56896000D01*
X82864000Y-56876000D01*
X83506000Y-56876000D01*
X83506000Y-56896000D01*
G36*
X77038000Y-56007000D02*
G01*
X77118000Y-56007000D01*
X77118000Y-56769000D01*
X77038000Y-56769000D01*
X77038000Y-56789000D01*
X76396000Y-56789000D01*
X76396000Y-56769000D01*
X76316000Y-56769000D01*
X76316000Y-56007000D01*
X76396000Y-56007000D01*
X76396000Y-55987000D01*
X77038000Y-55987000D01*
X77038000Y-56007000D01*
X77038000Y-56007000D01*
G37*
X77038000Y-56007000D02*
X77118000Y-56007000D01*
X77118000Y-56769000D01*
X77038000Y-56769000D01*
X77038000Y-56789000D01*
X76396000Y-56789000D01*
X76396000Y-56769000D01*
X76316000Y-56769000D01*
X76316000Y-56007000D01*
X76396000Y-56007000D01*
X76396000Y-55987000D01*
X77038000Y-55987000D01*
X77038000Y-56007000D01*
G36*
X92456000Y-52647000D02*
G01*
X92467011Y-52647000D01*
X92467011Y-53289000D01*
X92456000Y-53289000D01*
X92456000Y-54114500D01*
X92467010Y-54125510D01*
X92467010Y-55045359D01*
X91243370Y-56269000D01*
X91213721Y-56269000D01*
X91018977Y-56307737D01*
X90835533Y-56383722D01*
X90670438Y-56494035D01*
X90530035Y-56634438D01*
X90469108Y-56725621D01*
X90466845Y-56702642D01*
X90423571Y-56559986D01*
X90353297Y-56428513D01*
X90258724Y-56313276D01*
X90143487Y-56218703D01*
X90012014Y-56148429D01*
X89869358Y-56105155D01*
X89721000Y-56090543D01*
X89317656Y-56090543D01*
X90000613Y-55407586D01*
X90024764Y-55387766D01*
X90103866Y-55291379D01*
X90162645Y-55181412D01*
X90198840Y-55062092D01*
X90205244Y-54997073D01*
X90211062Y-54938002D01*
X90208000Y-54906914D01*
X90208000Y-54063457D01*
X90375000Y-54063457D01*
X90474585Y-54053649D01*
X90570343Y-54024601D01*
X90658595Y-53977429D01*
X90717393Y-53929176D01*
X90738355Y-53968393D01*
X90833578Y-54084422D01*
X90949607Y-54179645D01*
X91081984Y-54250403D01*
X91225622Y-54293975D01*
X91375000Y-54308687D01*
X91503500Y-54305000D01*
X91694000Y-54114500D01*
X91694000Y-53289000D01*
X91674000Y-53289000D01*
X91674000Y-52647000D01*
X91694000Y-52647000D01*
X91694000Y-52567000D01*
X92456000Y-52567000D01*
X92456000Y-52647000D01*
X92456000Y-52647000D01*
G37*
X92456000Y-52647000D02*
X92467011Y-52647000D01*
X92467011Y-53289000D01*
X92456000Y-53289000D01*
X92456000Y-54114500D01*
X92467010Y-54125510D01*
X92467010Y-55045359D01*
X91243370Y-56269000D01*
X91213721Y-56269000D01*
X91018977Y-56307737D01*
X90835533Y-56383722D01*
X90670438Y-56494035D01*
X90530035Y-56634438D01*
X90469108Y-56725621D01*
X90466845Y-56702642D01*
X90423571Y-56559986D01*
X90353297Y-56428513D01*
X90258724Y-56313276D01*
X90143487Y-56218703D01*
X90012014Y-56148429D01*
X89869358Y-56105155D01*
X89721000Y-56090543D01*
X89317656Y-56090543D01*
X90000613Y-55407586D01*
X90024764Y-55387766D01*
X90103866Y-55291379D01*
X90162645Y-55181412D01*
X90198840Y-55062092D01*
X90205244Y-54997073D01*
X90211062Y-54938002D01*
X90208000Y-54906914D01*
X90208000Y-54063457D01*
X90375000Y-54063457D01*
X90474585Y-54053649D01*
X90570343Y-54024601D01*
X90658595Y-53977429D01*
X90717393Y-53929176D01*
X90738355Y-53968393D01*
X90833578Y-54084422D01*
X90949607Y-54179645D01*
X91081984Y-54250403D01*
X91225622Y-54293975D01*
X91375000Y-54308687D01*
X91503500Y-54305000D01*
X91694000Y-54114500D01*
X91694000Y-53289000D01*
X91674000Y-53289000D01*
X91674000Y-52647000D01*
X91694000Y-52647000D01*
X91694000Y-52567000D01*
X92456000Y-52567000D01*
X92456000Y-52647000D01*
G36*
X78867000Y-51513000D02*
G01*
X78887000Y-51513000D01*
X78887000Y-52155000D01*
X78867000Y-52155000D01*
X78867000Y-52235000D01*
X78194007Y-52235000D01*
X78085000Y-52125993D01*
X78085000Y-51513000D01*
X78105000Y-51513000D01*
X78105000Y-51433000D01*
X78867000Y-51433000D01*
X78867000Y-51513000D01*
X78867000Y-51513000D01*
G37*
X78867000Y-51513000D02*
X78887000Y-51513000D01*
X78887000Y-52155000D01*
X78867000Y-52155000D01*
X78867000Y-52235000D01*
X78194007Y-52235000D01*
X78085000Y-52125993D01*
X78085000Y-51513000D01*
X78105000Y-51513000D01*
X78105000Y-51433000D01*
X78867000Y-51433000D01*
X78867000Y-51513000D01*
G36*
X88203500Y-50057000D02*
G01*
X88709439Y-50057000D01*
X88775000Y-50063457D01*
X89976000Y-50063457D01*
X89976000Y-50092543D01*
X88775000Y-50092543D01*
X88709439Y-50099000D01*
X88203500Y-50099000D01*
X88013000Y-50289500D01*
X88009313Y-50353000D01*
X88024025Y-50502378D01*
X88067597Y-50646016D01*
X88138355Y-50778393D01*
X88233578Y-50894422D01*
X88264543Y-50919834D01*
X88264543Y-51153000D01*
X88274351Y-51252585D01*
X88282061Y-51278000D01*
X88274351Y-51303415D01*
X88264543Y-51403000D01*
X88264543Y-51845000D01*
X87945087Y-51845000D01*
X87914001Y-51841938D01*
X87882915Y-51845000D01*
X87882914Y-51845000D01*
X87789912Y-51854160D01*
X87775937Y-51858399D01*
X87700289Y-51745184D01*
X87573816Y-51618711D01*
X87425099Y-51519341D01*
X87259854Y-51450894D01*
X87084430Y-51416000D01*
X86982196Y-51416000D01*
X86902999Y-51336803D01*
X86902999Y-50968196D01*
X87960195Y-49911000D01*
X88057500Y-49911000D01*
X88203500Y-50057000D01*
X88203500Y-50057000D01*
G37*
X88203500Y-50057000D02*
X88709439Y-50057000D01*
X88775000Y-50063457D01*
X89976000Y-50063457D01*
X89976000Y-50092543D01*
X88775000Y-50092543D01*
X88709439Y-50099000D01*
X88203500Y-50099000D01*
X88013000Y-50289500D01*
X88009313Y-50353000D01*
X88024025Y-50502378D01*
X88067597Y-50646016D01*
X88138355Y-50778393D01*
X88233578Y-50894422D01*
X88264543Y-50919834D01*
X88264543Y-51153000D01*
X88274351Y-51252585D01*
X88282061Y-51278000D01*
X88274351Y-51303415D01*
X88264543Y-51403000D01*
X88264543Y-51845000D01*
X87945087Y-51845000D01*
X87914001Y-51841938D01*
X87882915Y-51845000D01*
X87882914Y-51845000D01*
X87789912Y-51854160D01*
X87775937Y-51858399D01*
X87700289Y-51745184D01*
X87573816Y-51618711D01*
X87425099Y-51519341D01*
X87259854Y-51450894D01*
X87084430Y-51416000D01*
X86982196Y-51416000D01*
X86902999Y-51336803D01*
X86902999Y-50968196D01*
X87960195Y-49911000D01*
X88057500Y-49911000D01*
X88203500Y-50057000D01*
G36*
X81476000Y-50092543D02*
G01*
X80674000Y-50092543D01*
X80674000Y-50063457D01*
X81476000Y-50063457D01*
X81476000Y-50092543D01*
X81476000Y-50092543D01*
G37*
X81476000Y-50092543D02*
X80674000Y-50092543D01*
X80674000Y-50063457D01*
X81476000Y-50063457D01*
X81476000Y-50092543D01*
M02*
