M48
;Layer_Color=9474304
;FILE_FORMAT=2:5
INCH,TZ
;TYPE=PLATED
T1F00S00C0.01181
T2F00S00C0.03543
T3F00S00C0.04134
%
T01
X189964Y116226
X189964Y143356
X228091Y144110
X228590Y147610
Y151110
Y154610
X231228Y142493
X234591Y142110
X238232Y142020
X241636Y142091
X245732Y142020
X249423Y142091
X253732Y142020
X257232
X263232Y140020
Y136407
X263043Y132726
X270743Y155263
X311291Y141291
X321185Y150685
X347685
X347662Y123990
X334549Y130747
X331209Y110791
X331344Y103753
X334571Y157442
X334386Y184486
X347500Y177728
X321000
Y204728
X334386Y211486
X347500Y204728
Y231728
X334386Y238486
X321000Y231728
Y258728
X334386Y265486
X347500Y258728
X347500Y285500
X334386Y292257
X321000Y285500
X190043Y276500
X189964Y250856
X189779Y224041
X189964Y197356
Y170356
X236138Y174110
X242043
X243000Y165500
Y160000
X250000
Y165500
X251091Y173110
X258591
X249500Y187000
X243000Y186500
X236000Y165500
Y160000
X273462Y157557
X276540Y159327
X278842Y161781
X282232Y163520
X280238Y183528
T02
X233000Y104500
X243000
X253000
X263000
X273000
Y114500
X263000
X253000
X243000
X233000
X290500Y210000
X300500
Y220000
Y230000
X290500
Y220000
T03
X143000Y118000
Y127842
X381500Y132343
Y122500
X381000Y178000
Y187843
X381500Y231000
Y240843
X382000Y285000
Y294843
X266843Y284000
X257000
X232000
X222158
X142964Y280486
Y270644
X141964Y227069
Y217227
X143464Y173069
Y163226
M30
