G04*
G04 #@! TF.GenerationSoftware,Altium Limited,Altium Designer,20.0.10 (225)*
G04*
G04 Layer_Color=16711935*
%FSLAX25Y25*%
%MOIN*%
G70*
G01*
G75*
%ADD20R,0.03556X0.04343*%
%ADD21R,0.04343X0.03556*%
%ADD22R,0.06312X0.05524*%
%ADD28R,0.05524X0.06312*%
%ADD31C,0.07001*%
%ADD32R,0.06706X0.06706*%
%ADD33C,0.06706*%
%ADD34R,0.06706X0.06706*%
%ADD35C,0.03162*%
%ADD61R,0.03162X0.04343*%
D20*
X231953Y174000D02*
D03*
X226047D02*
D03*
X241953D02*
D03*
X236047D02*
D03*
D21*
X302000Y171453D02*
D03*
Y165547D02*
D03*
D22*
X250000Y172543D02*
D03*
Y165457D02*
D03*
X259500Y172543D02*
D03*
Y165457D02*
D03*
D28*
X275043Y183000D02*
D03*
X267957D02*
D03*
D31*
X382000Y294843D02*
D03*
Y285000D02*
D03*
X381500Y240843D02*
D03*
Y231000D02*
D03*
X381000Y187843D02*
D03*
Y178000D02*
D03*
X381500Y132343D02*
D03*
Y122500D02*
D03*
X143000Y118000D02*
D03*
Y127842D02*
D03*
X143464Y163226D02*
D03*
Y173069D02*
D03*
X141964Y217227D02*
D03*
Y227069D02*
D03*
X142964Y270644D02*
D03*
Y280486D02*
D03*
X266843Y284000D02*
D03*
X257000D02*
D03*
X232000D02*
D03*
X222158D02*
D03*
D32*
X300500Y210000D02*
D03*
D33*
Y220000D02*
D03*
Y230000D02*
D03*
X290500Y210000D02*
D03*
Y220000D02*
D03*
Y230000D02*
D03*
X243000Y104500D02*
D03*
X253000D02*
D03*
X263000D02*
D03*
X273000D02*
D03*
X233000Y114500D02*
D03*
X243000D02*
D03*
X253000D02*
D03*
X263000D02*
D03*
X273000D02*
D03*
D34*
X233000Y104500D02*
D03*
D35*
X331209Y110791D02*
D03*
X243000Y165500D02*
D03*
X250000D02*
D03*
Y160000D02*
D03*
X243000D02*
D03*
X236000Y165500D02*
D03*
Y160000D02*
D03*
X249500Y187000D02*
D03*
X243000Y186500D02*
D03*
X331344Y103753D02*
D03*
X280238Y183528D02*
D03*
X263043Y132726D02*
D03*
X263232Y140020D02*
D03*
Y136407D02*
D03*
X311291Y141291D02*
D03*
X276540Y159327D02*
D03*
X273462Y157557D02*
D03*
X270743Y155263D02*
D03*
X278842Y161781D02*
D03*
X282232Y163520D02*
D03*
X231228Y142493D02*
D03*
X238232Y142020D02*
D03*
X234591Y142110D02*
D03*
X241636Y142091D02*
D03*
X245732Y142020D02*
D03*
X249423Y142091D02*
D03*
X253732Y142020D02*
D03*
X257232D02*
D03*
X228091Y144110D02*
D03*
X228590Y147610D02*
D03*
Y151110D02*
D03*
Y154610D02*
D03*
X334549Y130747D02*
D03*
X347662Y123990D02*
D03*
X334571Y157442D02*
D03*
X321185Y150685D02*
D03*
X347685D02*
D03*
X334386Y184486D02*
D03*
X321000Y177728D02*
D03*
X347500D02*
D03*
X334386Y211486D02*
D03*
X321000Y204728D02*
D03*
X347500D02*
D03*
X334386Y238486D02*
D03*
X321000Y231728D02*
D03*
X347500D02*
D03*
X334386Y265486D02*
D03*
X321000Y258728D02*
D03*
X347500D02*
D03*
X347500Y285500D02*
D03*
X251091Y173110D02*
D03*
X258591D02*
D03*
X242043Y174110D02*
D03*
X236138D02*
D03*
X321000Y285500D02*
D03*
X334386Y292257D02*
D03*
X189964Y116226D02*
D03*
X189964Y143356D02*
D03*
Y170356D02*
D03*
Y197356D02*
D03*
X189779Y224041D02*
D03*
X189964Y250856D02*
D03*
X190043Y276500D02*
D03*
D61*
X295224Y164457D02*
D03*
X292075D02*
D03*
X288925D02*
D03*
X285776D02*
D03*
X295224Y171543D02*
D03*
X292075D02*
D03*
X288925D02*
D03*
X285776D02*
D03*
M02*
