G04*
G04 #@! TF.GenerationSoftware,Altium Limited,Altium Designer,20.0.10 (225)*
G04*
G04 Layer_Color=16711935*
%FSLAX25Y25*%
%MOIN*%
G70*
G01*
G75*
%ADD11C,0.00787*%
%ADD14C,0.00394*%
%ADD16C,0.01000*%
D11*
X287272Y194972D02*
X308728D01*
X287272Y179028D02*
Y194972D01*
Y179028D02*
X308728D01*
Y194972D01*
X391252Y283032D02*
X395189D01*
Y296811D01*
X391252D02*
X395189D01*
X391252Y283032D02*
Y296811D01*
X368614Y275354D02*
X391252D01*
Y304488D01*
X368614D02*
X391252D01*
X368614Y275354D02*
Y304488D01*
X390752Y229031D02*
X394689D01*
Y242811D01*
X390752D02*
X394689D01*
X390752Y229031D02*
Y242811D01*
X368114Y221354D02*
X390752D01*
Y250488D01*
X368114D02*
X390752D01*
X368114Y221354D02*
Y250488D01*
X390252Y176031D02*
X394189D01*
Y189811D01*
X390252D02*
X394189D01*
X390252Y176031D02*
Y189811D01*
X367614Y168354D02*
X390252D01*
Y197488D01*
X367614D02*
X390252D01*
X367614Y168354D02*
Y197488D01*
X390752Y120531D02*
X394689D01*
Y134311D01*
X390752D02*
X394689D01*
X390752Y120531D02*
Y134311D01*
X368114Y112854D02*
X390752D01*
Y141988D01*
X368114D02*
X390752D01*
X368114Y112854D02*
Y141988D01*
X129811Y129811D02*
X133748D01*
X129811Y116032D02*
Y129811D01*
Y116032D02*
X133748D01*
Y129811D01*
Y137488D02*
X156386D01*
X133748Y108354D02*
Y137488D01*
Y108354D02*
X156386D01*
Y137488D01*
X130275Y175038D02*
X134212D01*
X130275Y161258D02*
Y175038D01*
Y161258D02*
X134212D01*
Y175038D01*
Y182715D02*
X156850D01*
X134212Y153581D02*
Y182715D01*
Y153581D02*
X156850D01*
Y182715D01*
X128775Y229037D02*
X132712D01*
X128775Y215258D02*
Y229037D01*
Y215258D02*
X132712D01*
Y229037D01*
Y236715D02*
X155350D01*
X132712Y207581D02*
Y236715D01*
Y207581D02*
X155350D01*
Y236715D01*
X129775Y282455D02*
X133712D01*
X129775Y268675D02*
Y282455D01*
Y268675D02*
X133712D01*
Y282455D01*
Y290132D02*
X156350D01*
X133712Y260998D02*
Y290132D01*
Y260998D02*
X156350D01*
Y290132D01*
X247354Y270614D02*
X276488D01*
X247354D02*
Y293252D01*
X276488D01*
Y270614D02*
Y293252D01*
X255031D02*
X268811D01*
X255031D02*
Y297189D01*
X268811D01*
Y293252D02*
Y297189D01*
X212512Y270614D02*
X241646D01*
X212512D02*
Y293252D01*
X241646D01*
Y270614D02*
Y293252D01*
X220189D02*
X233968D01*
X220189D02*
Y297189D01*
X233968D01*
Y293252D02*
Y297189D01*
X215063Y254933D02*
X272937D01*
Y209067D02*
Y254933D01*
X215063Y209067D02*
X272937D01*
X215063D02*
Y254933D01*
D14*
X267268Y180244D02*
X275732D01*
X267268Y185756D02*
X275732D01*
Y180244D02*
Y185756D01*
X267268Y180244D02*
Y185756D01*
X300130Y165154D02*
Y171846D01*
X303870Y165154D02*
Y171846D01*
X300130D02*
X303870D01*
X300130Y165154D02*
X303870D01*
X247244Y164768D02*
Y173232D01*
X252756Y164768D02*
Y173232D01*
X247244D02*
X252756D01*
X247244Y164768D02*
X252756D01*
X256744D02*
Y173232D01*
X262256Y164768D02*
Y173232D01*
X256744D02*
X262256D01*
X256744Y164768D02*
X262256D01*
X225654Y175870D02*
X232347D01*
X225654Y172130D02*
X232347D01*
Y175870D01*
X225654Y172130D02*
Y175870D01*
X235653D02*
X242347D01*
X235653Y172130D02*
X242347D01*
Y175870D01*
X235653Y172130D02*
Y175870D01*
X220654Y193870D02*
X227346D01*
X220654Y190130D02*
X227346D01*
X220654D02*
Y193870D01*
X227346Y190130D02*
Y193870D01*
X233154Y190130D02*
X239846D01*
X233154Y193870D02*
X239846D01*
Y190130D02*
Y193870D01*
X233154Y190130D02*
Y193870D01*
X308630Y296654D02*
Y303346D01*
X312370Y296654D02*
Y303346D01*
X308630Y296654D02*
X312370D01*
X308630Y303346D02*
X312370D01*
X340305Y103015D02*
Y111480D01*
X334793Y103015D02*
Y111480D01*
X340305D01*
X334793Y103015D02*
X340305D01*
X344356Y107704D02*
Y114791D01*
X357742Y107704D02*
Y114791D01*
X344356D02*
X357742D01*
X344356Y107704D02*
X357742D01*
X223406Y178295D02*
X262776D01*
Y138925D02*
Y178295D01*
X223406Y138925D02*
X262776D01*
X223406D02*
Y178295D01*
Y176327D02*
X225374Y178295D01*
X321154Y295013D02*
X329619D01*
X321154Y289502D02*
X329619D01*
X321154D02*
Y295013D01*
X329619Y289502D02*
Y295013D01*
X354925Y291650D02*
X358075D01*
X354925Y285350D02*
X358075D01*
Y291650D01*
X354925Y285350D02*
Y291650D01*
X320693Y298399D02*
Y305486D01*
X334079Y298399D02*
Y305486D01*
X320693D02*
X334079D01*
X320693Y298399D02*
X334079D01*
X354516Y297549D02*
Y304242D01*
X358256Y297549D02*
Y304242D01*
X354516Y297549D02*
X358256D01*
X354516Y304242D02*
X358256D01*
X339689Y291348D02*
Y304537D01*
X350083Y291348D02*
Y304537D01*
X339689Y291348D02*
X350083D01*
X339689Y304537D02*
X350083D01*
X321154Y268242D02*
X329619D01*
X321154Y262730D02*
X329619D01*
X321154D02*
Y268242D01*
X329619Y262730D02*
Y268242D01*
X354925Y264878D02*
X358075D01*
X354925Y258579D02*
X358075D01*
Y264878D01*
X354925Y258579D02*
Y264878D01*
X320693Y271627D02*
Y278714D01*
X334079Y271627D02*
Y278714D01*
X320693D02*
X334079D01*
X320693Y271627D02*
X334079D01*
X354516Y270777D02*
Y277470D01*
X358256Y270777D02*
Y277470D01*
X354516Y270777D02*
X358256D01*
X354516Y277470D02*
X358256D01*
X339689Y264576D02*
Y277765D01*
X350083Y264576D02*
Y277765D01*
X339689Y264576D02*
X350083D01*
X339689Y277765D02*
X350083D01*
X321154Y241242D02*
X329619D01*
X321154Y235730D02*
X329619D01*
X321154D02*
Y241242D01*
X329619Y235730D02*
Y241242D01*
X354925Y237878D02*
X358075D01*
X354925Y231579D02*
X358075D01*
Y237878D01*
X354925Y231579D02*
Y237878D01*
X320693Y244627D02*
Y251714D01*
X334079Y244627D02*
Y251714D01*
X320693D02*
X334079D01*
X320693Y244627D02*
X334079D01*
X354516Y243777D02*
Y250470D01*
X358256Y243777D02*
Y250470D01*
X354516Y243777D02*
X358256D01*
X354516Y250470D02*
X358256D01*
X339689Y237576D02*
Y250765D01*
X350083Y237576D02*
Y250765D01*
X339689Y237576D02*
X350083D01*
X339689Y250765D02*
X350083D01*
X321154Y214242D02*
X329619D01*
X321154Y208730D02*
X329619D01*
X321154D02*
Y214242D01*
X329619Y208730D02*
Y214242D01*
X354925Y210878D02*
X358075D01*
X354925Y204579D02*
X358075D01*
Y210878D01*
X354925Y204579D02*
Y210878D01*
X320693Y217628D02*
Y224714D01*
X334079Y217628D02*
Y224714D01*
X320693D02*
X334079D01*
X320693Y217628D02*
X334079D01*
X354516Y216777D02*
Y223470D01*
X358256Y216777D02*
Y223470D01*
X354516Y216777D02*
X358256D01*
X354516Y223470D02*
X358256D01*
X339689Y210576D02*
Y223765D01*
X350083Y210576D02*
Y223765D01*
X339689Y210576D02*
X350083D01*
X339689Y223765D02*
X350083D01*
X321154Y187242D02*
X329619D01*
X321154Y181730D02*
X329619D01*
X321154D02*
Y187242D01*
X329619Y181730D02*
Y187242D01*
X354925Y183878D02*
X358075D01*
X354925Y177579D02*
X358075D01*
Y183878D01*
X354925Y177579D02*
Y183878D01*
X320693Y190628D02*
Y197714D01*
X334079Y190628D02*
Y197714D01*
X320693D02*
X334079D01*
X320693Y190628D02*
X334079D01*
X354516Y189777D02*
Y196470D01*
X358256Y189777D02*
Y196470D01*
X354516Y189777D02*
X358256D01*
X354516Y196470D02*
X358256D01*
X339689Y183576D02*
Y196765D01*
X350083Y183576D02*
Y196765D01*
X339689Y183576D02*
X350083D01*
X339689Y196765D02*
X350083D01*
X321339Y160198D02*
X329803D01*
X321339Y154687D02*
X329803D01*
X321339D02*
Y160198D01*
X329803Y154687D02*
Y160198D01*
X355110Y156835D02*
X358260D01*
X355110Y150535D02*
X358260D01*
Y156835D01*
X355110Y150535D02*
Y156835D01*
X320878Y163584D02*
Y170671D01*
X334264Y163584D02*
Y170671D01*
X320878D02*
X334264D01*
X320878Y163584D02*
X334264D01*
X354701Y162734D02*
Y169427D01*
X358441Y162734D02*
Y169427D01*
X354701Y162734D02*
X358441D01*
X354701Y169427D02*
X358441D01*
X339874Y156533D02*
Y169722D01*
X350268Y156533D02*
Y169722D01*
X339874Y156533D02*
X350268D01*
X339874Y169722D02*
X350268D01*
X321316Y127991D02*
X329781D01*
X321316Y133503D02*
X329781D01*
X321316Y127991D02*
Y133503D01*
X329781Y127991D02*
Y133503D01*
X354925Y130150D02*
X358075D01*
X354925Y123850D02*
X358075D01*
X354925D02*
Y130150D01*
X358075Y123850D02*
Y130150D01*
X320856Y136889D02*
Y143976D01*
X334242Y136889D02*
Y143976D01*
X320856Y136889D02*
X334242D01*
X320856Y143976D02*
X334242D01*
X358419Y136039D02*
Y142732D01*
X354679Y136039D02*
Y142732D01*
Y136039D02*
X358419D01*
X354679Y142732D02*
X358419D01*
X350245Y129838D02*
Y143027D01*
X339852Y129838D02*
Y143027D01*
Y129838D02*
X350245D01*
X339852Y143027D02*
X350245D01*
X194811Y273744D02*
X203276D01*
X194811Y279256D02*
X203276D01*
Y273744D02*
Y279256D01*
X194811Y273744D02*
Y279256D01*
X166389Y276514D02*
X169539D01*
X166389Y270215D02*
X169539D01*
Y276514D01*
X166389Y270215D02*
Y276514D01*
X203657Y283368D02*
Y290455D01*
X190271Y283368D02*
Y290455D01*
Y283368D02*
X203657D01*
X190271Y290455D02*
X203657D01*
X166094Y282518D02*
Y289211D01*
X169834Y282518D02*
Y289211D01*
X166094Y282518D02*
X169834D01*
X166094Y289211D02*
X169834D01*
X174267Y276317D02*
Y289506D01*
X184661Y276317D02*
Y289506D01*
X174267Y276317D02*
X184661D01*
X174267Y289506D02*
X184661D01*
X194732Y248100D02*
X203197D01*
X194732Y253612D02*
X203197D01*
Y248100D02*
Y253612D01*
X194732Y248100D02*
Y253612D01*
X166389Y250144D02*
X169539D01*
X166389Y243845D02*
X169539D01*
Y250144D01*
X166389Y243845D02*
Y250144D01*
X203657Y256998D02*
Y264085D01*
X190271Y256998D02*
Y264085D01*
Y256998D02*
X203657D01*
X190271Y264085D02*
X203657D01*
X166094Y256148D02*
Y262841D01*
X169834Y256148D02*
Y262841D01*
X166094Y256148D02*
X169834D01*
X166094Y262841D02*
X169834D01*
X174267Y249947D02*
Y263136D01*
X184661Y249947D02*
Y263136D01*
X174267Y249947D02*
X184661D01*
X174267Y263136D02*
X184661D01*
X194547Y221286D02*
X203011D01*
X194547Y226797D02*
X203011D01*
Y221286D02*
Y226797D01*
X194547Y221286D02*
Y226797D01*
X166204Y223329D02*
X169354D01*
X166204Y217030D02*
X169354D01*
Y223329D01*
X166204Y217030D02*
Y223329D01*
X203472Y230183D02*
Y237270D01*
X190086Y230183D02*
Y237270D01*
Y230183D02*
X203472D01*
X190086Y237270D02*
X203472D01*
X165909Y229333D02*
Y236026D01*
X169649Y229333D02*
Y236026D01*
X165909Y229333D02*
X169649D01*
X165909Y236026D02*
X169649D01*
X174082Y223132D02*
Y236321D01*
X184476Y223132D02*
Y236321D01*
X174082Y223132D02*
X184476D01*
X174082Y236321D02*
X184476D01*
X194732Y194600D02*
X203197D01*
X194732Y200112D02*
X203197D01*
Y194600D02*
Y200112D01*
X194732Y194600D02*
Y200112D01*
X166389Y196644D02*
X169539D01*
X166389Y190345D02*
X169539D01*
Y196644D01*
X166389Y190345D02*
Y196644D01*
X203657Y203498D02*
Y210585D01*
X190271Y203498D02*
Y210585D01*
Y203498D02*
X203657D01*
X190271Y210585D02*
X203657D01*
X166094Y202648D02*
Y209341D01*
X169834Y202648D02*
Y209341D01*
X166094Y202648D02*
X169834D01*
X166094Y209341D02*
X169834D01*
X174267Y196447D02*
Y209636D01*
X184661Y196447D02*
Y209636D01*
X174267Y196447D02*
X184661D01*
X174267Y209636D02*
X184661D01*
X194732Y167601D02*
X203197D01*
X194732Y173112D02*
X203197D01*
Y167601D02*
Y173112D01*
X194732Y167601D02*
Y173112D01*
X166389Y169644D02*
X169539D01*
X166389Y163345D02*
X169539D01*
Y169644D01*
X166389Y163345D02*
Y169644D01*
X203657Y176498D02*
Y183585D01*
X190271Y176498D02*
Y183585D01*
Y176498D02*
X203657D01*
X190271Y183585D02*
X203657D01*
X166094Y175648D02*
Y182341D01*
X169834Y175648D02*
Y182341D01*
X166094Y175648D02*
X169834D01*
X166094Y182341D02*
X169834D01*
X174267Y169447D02*
Y182636D01*
X184661Y169447D02*
Y182636D01*
X174267Y169447D02*
X184661D01*
X174267Y182636D02*
X184661D01*
X194732Y146112D02*
X203197D01*
X194732Y140601D02*
X203197D01*
Y146112D01*
X194732Y140601D02*
Y146112D01*
X165560Y142644D02*
X168710D01*
X165560Y136345D02*
X168710D01*
X165560D02*
Y142644D01*
X168710Y136345D02*
Y142644D01*
X203657Y149498D02*
Y156585D01*
X190271Y149498D02*
Y156585D01*
X203657D01*
X190271Y149498D02*
X203657D01*
X169834Y148648D02*
Y155341D01*
X166094Y148648D02*
Y155341D01*
Y148648D02*
X169834D01*
X166094Y155341D02*
X169834D01*
X184661Y142447D02*
Y155636D01*
X174267Y142447D02*
Y155636D01*
Y142447D02*
X184661D01*
X174267Y155636D02*
X184661D01*
X166389Y115514D02*
X169539D01*
X166389Y109215D02*
X169539D01*
Y115514D01*
X166389Y109215D02*
Y115514D01*
X194732Y113471D02*
X203197D01*
X194732Y118982D02*
X203197D01*
Y113471D02*
Y118982D01*
X194732Y113471D02*
Y118982D01*
X203657Y122368D02*
Y129455D01*
X190271Y122368D02*
Y129455D01*
Y122368D02*
X203657D01*
X190271Y129455D02*
X203657D01*
X174267Y115317D02*
Y128506D01*
X184661Y115317D02*
Y128506D01*
X174267Y115317D02*
X184661D01*
X174267Y128506D02*
X184661D01*
X166094Y121518D02*
Y128211D01*
X169834Y121518D02*
Y128211D01*
X166094Y121518D02*
X169834D01*
X166094Y128211D02*
X169834D01*
D16*
X296799Y164850D02*
Y171150D01*
X284201D02*
X296799D01*
X284201Y164850D02*
Y171150D01*
Y164850D02*
X296799D01*
M02*
