G04*
G04 #@! TF.GenerationSoftware,Altium Limited,Altium Designer,20.0.10 (225)*
G04*
G04 Layer_Color=32896*
%FSLAX25Y25*%
%MOIN*%
G70*
G01*
G75*
%ADD11C,0.00787*%
%ADD16C,0.01000*%
%ADD62C,0.01000*%
D11*
X271500Y180638D02*
Y185362D01*
X300622Y167713D02*
Y169287D01*
X303378Y167713D02*
Y169287D01*
X247638Y169000D02*
X252362D01*
X257138D02*
X261862D01*
X228213Y175378D02*
X229787D01*
X228213Y172622D02*
X229787D01*
X238213Y175378D02*
X239787D01*
X238213Y172622D02*
X239787D01*
D16*
X231700Y179400D02*
Y183399D01*
X229701D01*
X229034Y182732D01*
Y181399D01*
X229701Y180733D01*
X231700D01*
X230367D02*
X229034Y179400D01*
X225036Y183399D02*
X226368Y182732D01*
X227701Y181399D01*
Y180067D01*
X227035Y179400D01*
X225702D01*
X225036Y180067D01*
Y180733D01*
X225702Y181399D01*
X227701D01*
X241700Y179400D02*
Y183399D01*
X239701D01*
X239034Y182732D01*
Y181399D01*
X239701Y180733D01*
X241700D01*
X240367D02*
X239034Y179400D01*
X235035Y183399D02*
X237701D01*
Y181399D01*
X236368Y182066D01*
X235702D01*
X235035Y181399D01*
Y180067D01*
X235702Y179400D01*
X237035D01*
X237701Y180067D01*
X305332Y157501D02*
Y161499D01*
X303333D01*
X302666Y160833D01*
Y159500D01*
X303333Y158834D01*
X305332D01*
X303999D02*
X302666Y157501D01*
X299334D02*
Y161499D01*
X301333Y159500D01*
X298668D01*
X294665Y156501D02*
Y160499D01*
X292666D01*
X291999Y159833D01*
Y158500D01*
X292666Y157834D01*
X294665D01*
X293332D02*
X291999Y156501D01*
X290666D02*
Y160499D01*
X288001Y156501D01*
Y160499D01*
X286668Y156501D02*
X285335D01*
X286001D01*
Y160499D01*
X286668Y159833D01*
X267834Y191333D02*
X267167Y191999D01*
X265834D01*
X265168Y191333D01*
Y188667D01*
X265834Y188001D01*
X267167D01*
X267834Y188667D01*
X269166Y191333D02*
X269833Y191999D01*
X271166D01*
X271832Y191333D01*
Y190666D01*
X271166Y190000D01*
X270499D01*
X271166D01*
X271832Y189333D01*
Y188667D01*
X271166Y188001D01*
X269833D01*
X269166Y188667D01*
X248167Y180166D02*
X247501Y180833D01*
Y182166D01*
X248167Y182832D01*
X250833D01*
X251499Y182166D01*
Y180833D01*
X250833Y180166D01*
X251499Y176168D02*
Y178833D01*
X248834Y176168D01*
X248167D01*
X247501Y176834D01*
Y178167D01*
X248167Y178833D01*
X256167Y179500D02*
X255501Y180166D01*
Y181499D01*
X256167Y182166D01*
X258833D01*
X259499Y181499D01*
Y180166D01*
X258833Y179500D01*
X259499Y178167D02*
Y176834D01*
Y177501D01*
X255501D01*
X256167Y178167D01*
D62*
X295867Y161171D02*
D03*
M02*
