G04*
G04 #@! TF.GenerationSoftware,Altium Limited,Altium Designer,20.0.11 (256)*
G04*
G04 Layer_Color=16711935*
%FSLAX43Y43*%
%MOMM*%
G71*
G01*
G75*
%ADD26R,1.503X1.653*%
%ADD27C,1.727*%
%ADD28C,1.703*%
%ADD29R,1.703X1.703*%
%ADD30R,1.703X1.703*%
%ADD31C,1.473*%
%ADD45R,1.703X1.453*%
%ADD46O,2.453X0.903*%
%ADD47R,2.103X3.453*%
%ADD48R,2.103X1.153*%
D26*
X26708Y17018D02*
D03*
X25108D02*
D03*
D27*
X33401Y21590D02*
D03*
X4191Y3556D02*
D03*
D28*
X9233Y20574D02*
D03*
Y23114D02*
D03*
X11773Y20574D02*
D03*
Y23114D02*
D03*
X14313Y20574D02*
D03*
X6350Y13676D02*
D03*
Y11176D02*
D03*
X33782Y8763D02*
D03*
Y11263D02*
D03*
Y13763D02*
D03*
D29*
X14313Y23114D02*
D03*
D30*
X6350Y8676D02*
D03*
X33782Y6263D02*
D03*
D31*
X29337Y9995D02*
D03*
X19939Y5080D02*
D03*
X17780Y7747D02*
D03*
X21590Y13843D02*
D03*
X22987Y11938D02*
D03*
X12827Y17145D02*
D03*
X14224Y15875D02*
D03*
X24003Y14478D02*
D03*
X23876Y10668D02*
D03*
X18288Y17780D02*
D03*
X19685Y11811D02*
D03*
X27942Y2700D02*
D03*
X28067Y5080D02*
D03*
X24892Y5414D02*
D03*
X21755Y4953D02*
D03*
D45*
X17526Y20921D02*
D03*
Y23021D02*
D03*
D46*
X29270Y14478D02*
D03*
Y13208D02*
D03*
Y11938D02*
D03*
Y10668D02*
D03*
X24070Y14478D02*
D03*
Y13208D02*
D03*
Y11938D02*
D03*
Y10668D02*
D03*
D47*
X21842Y5000D02*
D03*
D48*
X27942Y7300D02*
D03*
Y2700D02*
D03*
Y5000D02*
D03*
M02*
