G04*
G04 #@! TF.GenerationSoftware,Altium Limited,Altium Designer,20.0.11 (256)*
G04*
G04 Layer_Color=255*
%FSLAX43Y43*%
%MOMM*%
G71*
G01*
G75*
%ADD15R,1.450X1.300*%
%ADD16O,1.950X0.600*%
%ADD17O,0.600X1.950*%
%ADD18R,0.950X2.200*%
%ADD19R,2.600X1.100*%
%ADD20R,1.300X1.450*%
%ADD35C,1.524*%
%ADD36C,1.500*%
%ADD37R,1.500X1.500*%
%ADD38R,1.500X1.500*%
D15*
X25908Y21628D02*
D03*
Y20028D02*
D03*
X29337Y9995D02*
D03*
Y11595D02*
D03*
X15328Y11595D02*
D03*
Y9995D02*
D03*
X20320Y20028D02*
D03*
Y21628D02*
D03*
D16*
X26583Y9392D02*
D03*
Y10192D02*
D03*
Y10992D02*
D03*
Y11792D02*
D03*
Y12592D02*
D03*
Y13392D02*
D03*
Y14192D02*
D03*
Y14992D02*
D03*
X18083D02*
D03*
Y14192D02*
D03*
Y13392D02*
D03*
Y12592D02*
D03*
Y11792D02*
D03*
Y10992D02*
D03*
Y10192D02*
D03*
Y9392D02*
D03*
D17*
X25133Y16442D02*
D03*
X24333D02*
D03*
X23533D02*
D03*
X22733D02*
D03*
X21933D02*
D03*
X21133D02*
D03*
X20333D02*
D03*
X19533D02*
D03*
Y7942D02*
D03*
X20333D02*
D03*
X21133D02*
D03*
X21933D02*
D03*
X22733D02*
D03*
X23533D02*
D03*
X24333D02*
D03*
X25133D02*
D03*
D18*
X23789Y20193D02*
D03*
X22439D02*
D03*
D19*
X24892Y5414D02*
D03*
Y2714D02*
D03*
D20*
X21755Y4953D02*
D03*
X20155D02*
D03*
D35*
X33401Y21590D02*
D03*
X4191Y3556D02*
D03*
D36*
X9233Y20574D02*
D03*
Y23114D02*
D03*
X11773Y20574D02*
D03*
Y23114D02*
D03*
X14313Y20574D02*
D03*
X6350Y13676D02*
D03*
Y11176D02*
D03*
X33782Y8763D02*
D03*
Y11263D02*
D03*
Y13763D02*
D03*
D37*
X14313Y23114D02*
D03*
D38*
X6350Y8676D02*
D03*
X33782Y6263D02*
D03*
M02*
