G04*
G04 #@! TF.GenerationSoftware,Altium Limited,Altium Designer,20.0.11 (256)*
G04*
G04 Layer_Color=8388736*
%FSLAX43Y43*%
%MOMM*%
G71*
G01*
G75*
%ADD21R,1.653X1.503*%
%ADD22O,2.153X0.803*%
%ADD23O,0.803X2.153*%
%ADD24R,1.153X2.403*%
%ADD25R,2.803X1.303*%
%ADD26R,1.503X1.653*%
%ADD27C,1.727*%
%ADD28C,1.703*%
%ADD29R,1.703X1.703*%
%ADD30R,1.703X1.703*%
%ADD31C,1.473*%
D21*
X25908Y21628D02*
D03*
Y20028D02*
D03*
X29337Y9995D02*
D03*
Y11595D02*
D03*
X15328Y11595D02*
D03*
Y9995D02*
D03*
X20320Y20028D02*
D03*
Y21628D02*
D03*
D22*
X26583Y9392D02*
D03*
Y10192D02*
D03*
Y10992D02*
D03*
Y11792D02*
D03*
Y12592D02*
D03*
Y13392D02*
D03*
Y14192D02*
D03*
Y14992D02*
D03*
X18083D02*
D03*
Y14192D02*
D03*
Y13392D02*
D03*
Y12592D02*
D03*
Y11792D02*
D03*
Y10992D02*
D03*
Y10192D02*
D03*
Y9392D02*
D03*
D23*
X25133Y16442D02*
D03*
X24333D02*
D03*
X23533D02*
D03*
X22733D02*
D03*
X21933D02*
D03*
X21133D02*
D03*
X20333D02*
D03*
X19533D02*
D03*
Y7942D02*
D03*
X20333D02*
D03*
X21133D02*
D03*
X21933D02*
D03*
X22733D02*
D03*
X23533D02*
D03*
X24333D02*
D03*
X25133D02*
D03*
D24*
X23789Y20193D02*
D03*
X22439D02*
D03*
D25*
X24892Y5414D02*
D03*
Y2714D02*
D03*
D26*
X21755Y4953D02*
D03*
X20155D02*
D03*
D27*
X33401Y21590D02*
D03*
X4191Y3556D02*
D03*
D28*
X9233Y20574D02*
D03*
Y23114D02*
D03*
X11773Y20574D02*
D03*
Y23114D02*
D03*
X14313Y20574D02*
D03*
X6350Y13676D02*
D03*
Y11176D02*
D03*
X33782Y8763D02*
D03*
Y11263D02*
D03*
Y13763D02*
D03*
D29*
X14313Y23114D02*
D03*
D30*
X6350Y8676D02*
D03*
X33782Y6263D02*
D03*
D31*
X29337Y9995D02*
D03*
X19939Y5080D02*
D03*
X17780Y7747D02*
D03*
X21590Y13843D02*
D03*
X22987Y11938D02*
D03*
X12827Y17145D02*
D03*
X14224Y15875D02*
D03*
X24003Y14478D02*
D03*
X23876Y10668D02*
D03*
X18288Y17780D02*
D03*
X19685Y11811D02*
D03*
X27942Y2700D02*
D03*
X28067Y5080D02*
D03*
X24892Y5414D02*
D03*
X21755Y4953D02*
D03*
M02*
