G04*
G04 #@! TF.GenerationSoftware,Altium Limited,Altium Designer,20.0.11 (256)*
G04*
G04 Layer_Color=16711935*
%FSLAX43Y43*%
%MOMM*%
G71*
G01*
G75*
%ADD50C,0.100*%
D50*
X25433Y9592D02*
G03*
X25433Y9592I-500J0D01*
G01*
X26070Y10973D02*
G03*
X26070Y10973I-500J0D01*
G01*
X25183Y21928D02*
X26633D01*
X25183Y19728D02*
X26633D01*
Y21928D01*
X25183Y19728D02*
Y21928D01*
X25833Y8692D02*
Y15692D01*
X18833Y8692D02*
Y15692D01*
Y8692D02*
X25833D01*
X18833Y15692D02*
X25833D01*
X16851Y20871D02*
X18201D01*
X16851Y23071D02*
X18201D01*
Y20871D02*
Y23071D01*
X16851Y20871D02*
Y23071D01*
X24808Y17743D02*
X27008D01*
X24808Y16293D02*
X27008D01*
Y17743D01*
X24808Y16293D02*
Y17743D01*
X24670Y15073D02*
X28670D01*
X24670Y10073D02*
X28670D01*
Y15073D01*
X24670Y10073D02*
Y15073D01*
X26242Y2364D02*
Y5764D01*
X23542Y2364D02*
Y5764D01*
X26242D01*
X23542Y2364D02*
X26242D01*
X19855Y4228D02*
X22055D01*
X19855Y5678D02*
X22055D01*
Y4228D02*
Y5678D01*
X19855Y4228D02*
Y5678D01*
X28612Y9695D02*
Y11895D01*
X30062Y9695D02*
Y11895D01*
X28612Y9695D02*
X30062D01*
X28612Y11895D02*
X30062D01*
X16053Y9695D02*
Y11895D01*
X14603Y9695D02*
Y11895D01*
X16053D01*
X14603Y9695D02*
X16053D01*
X19595Y19728D02*
Y21928D01*
X21045Y19728D02*
Y21928D01*
X19595Y19728D02*
X21045D01*
X19595Y21928D02*
X21045D01*
M02*
