G04*
G04 #@! TF.GenerationSoftware,Altium Limited,Altium Designer,20.0.11 (256)*
G04*
G04 Layer_Color=32896*
%FSLAX43Y43*%
%MOMM*%
G71*
G01*
G75*
%ADD10C,0.250*%
%ADD12C,0.200*%
%ADD13C,0.254*%
%ADD49C,0.400*%
D10*
X24195Y9768D02*
G03*
X24195Y9768I-125J0D01*
G01*
D12*
X18176Y21921D02*
Y22021D01*
X16876Y21921D02*
Y22021D01*
X25595Y15073D02*
X27745D01*
X25595Y10073D02*
X27745D01*
Y15073D01*
X25595Y10073D02*
Y15073D01*
D13*
X23241Y1444D02*
X26670D01*
X23241D02*
Y8556D01*
X26670Y1444D02*
Y8556D01*
X23241D02*
X26670D01*
X30645Y17881D02*
Y16612D01*
X30391Y16358D01*
X29883D01*
X29629Y16612D01*
Y17881D01*
X28106Y16358D02*
X29121D01*
X28106Y17373D01*
Y17627D01*
X28360Y17881D01*
X28868D01*
X29121Y17627D01*
X22479Y2667D02*
Y1397D01*
X22225Y1143D01*
X21717D01*
X21463Y1397D01*
Y2667D01*
X20955Y2413D02*
X20701Y2667D01*
X20193D01*
X19939Y2413D01*
Y2159D01*
X20193Y1905D01*
X20447D01*
X20193D01*
X19939Y1651D01*
Y1397D01*
X20193Y1143D01*
X20701D01*
X20955Y1397D01*
X21463Y21336D02*
Y22860D01*
X20701D01*
X20447Y22606D01*
Y22098D01*
X20701Y21844D01*
X21463D01*
X20955D02*
X20447Y21336D01*
X19939D02*
X19431D01*
X19685D01*
Y22860D01*
X19939Y22606D01*
X25949Y20066D02*
X26202Y20320D01*
X26710D01*
X26964Y20066D01*
Y19050D01*
X26710Y18796D01*
X26202D01*
X25949Y19050D01*
X25441D02*
X25187Y18796D01*
X24679D01*
X24425Y19050D01*
Y20066D01*
X24679Y20320D01*
X25187D01*
X25441Y20066D01*
Y19812D01*
X25187Y19558D01*
X24425D01*
D49*
X26595Y10873D02*
G03*
X26595Y10873I-200J0D01*
G01*
M02*
