G04 #@! TF.GenerationSoftware,KiCad,Pcbnew,(5.1.2-1)-1*
G04 #@! TF.CreationDate,2020-02-16T12:27:45-05:00*
G04 #@! TF.ProjectId,Delibird,44656c69-6269-4726-942e-6b696361645f,rev?*
G04 #@! TF.SameCoordinates,Original*
G04 #@! TF.FileFunction,Copper,L1,Top*
G04 #@! TF.FilePolarity,Positive*
%FSLAX46Y46*%
G04 Gerber Fmt 4.6, Leading zero omitted, Abs format (unit mm)*
G04 Created by KiCad (PCBNEW (5.1.2-1)-1) date 2020-02-16 12:27:45*
%MOMM*%
%LPD*%
G04 APERTURE LIST*
%ADD10O,1.950000X1.700000*%
%ADD11C,0.100000*%
%ADD12C,1.700000*%
%ADD13R,0.550000X1.600000*%
%ADD14R,1.600000X0.550000*%
%ADD15C,1.000000*%
%ADD16R,1.150000X1.000000*%
%ADD17C,1.425000*%
%ADD18C,1.150000*%
%ADD19O,1.700000X1.700000*%
%ADD20R,1.700000X1.700000*%
%ADD21C,0.800000*%
%ADD22C,0.508000*%
%ADD23C,0.635000*%
%ADD24C,0.762000*%
%ADD25C,0.250000*%
G04 APERTURE END LIST*
D10*
X45593000Y-23535000D03*
X45593000Y-26035000D03*
X45593000Y-28535000D03*
D11*
G36*
X46342504Y-30186204D02*
G01*
X46366773Y-30189804D01*
X46390571Y-30195765D01*
X46413671Y-30204030D01*
X46435849Y-30214520D01*
X46456893Y-30227133D01*
X46476598Y-30241747D01*
X46494777Y-30258223D01*
X46511253Y-30276402D01*
X46525867Y-30296107D01*
X46538480Y-30317151D01*
X46548970Y-30339329D01*
X46557235Y-30362429D01*
X46563196Y-30386227D01*
X46566796Y-30410496D01*
X46568000Y-30435000D01*
X46568000Y-31635000D01*
X46566796Y-31659504D01*
X46563196Y-31683773D01*
X46557235Y-31707571D01*
X46548970Y-31730671D01*
X46538480Y-31752849D01*
X46525867Y-31773893D01*
X46511253Y-31793598D01*
X46494777Y-31811777D01*
X46476598Y-31828253D01*
X46456893Y-31842867D01*
X46435849Y-31855480D01*
X46413671Y-31865970D01*
X46390571Y-31874235D01*
X46366773Y-31880196D01*
X46342504Y-31883796D01*
X46318000Y-31885000D01*
X44868000Y-31885000D01*
X44843496Y-31883796D01*
X44819227Y-31880196D01*
X44795429Y-31874235D01*
X44772329Y-31865970D01*
X44750151Y-31855480D01*
X44729107Y-31842867D01*
X44709402Y-31828253D01*
X44691223Y-31811777D01*
X44674747Y-31793598D01*
X44660133Y-31773893D01*
X44647520Y-31752849D01*
X44637030Y-31730671D01*
X44628765Y-31707571D01*
X44622804Y-31683773D01*
X44619204Y-31659504D01*
X44618000Y-31635000D01*
X44618000Y-30435000D01*
X44619204Y-30410496D01*
X44622804Y-30386227D01*
X44628765Y-30362429D01*
X44637030Y-30339329D01*
X44647520Y-30317151D01*
X44660133Y-30296107D01*
X44674747Y-30276402D01*
X44691223Y-30258223D01*
X44709402Y-30241747D01*
X44729107Y-30227133D01*
X44750151Y-30214520D01*
X44772329Y-30204030D01*
X44795429Y-30195765D01*
X44819227Y-30189804D01*
X44843496Y-30186204D01*
X44868000Y-30185000D01*
X46318000Y-30185000D01*
X46342504Y-30186204D01*
X46342504Y-30186204D01*
G37*
D12*
X45593000Y-31035000D03*
D13*
X37579000Y-29074000D03*
X36779000Y-29074000D03*
X35979000Y-29074000D03*
X35179000Y-29074000D03*
X34379000Y-29074000D03*
X33579000Y-29074000D03*
X32779000Y-29074000D03*
X31979000Y-29074000D03*
D14*
X30529000Y-27624000D03*
X30529000Y-26824000D03*
X30529000Y-26024000D03*
X30529000Y-25224000D03*
X30529000Y-24424000D03*
X30529000Y-23624000D03*
X30529000Y-22824000D03*
X30529000Y-22024000D03*
D13*
X31979000Y-20574000D03*
X32779000Y-20574000D03*
X33579000Y-20574000D03*
X34379000Y-20574000D03*
X35179000Y-20574000D03*
X35979000Y-20574000D03*
X36779000Y-20574000D03*
X37579000Y-20574000D03*
D14*
X39029000Y-22024000D03*
X39029000Y-22824000D03*
X39029000Y-23624000D03*
X39029000Y-24424000D03*
X39029000Y-25224000D03*
X39029000Y-26024000D03*
X39029000Y-26824000D03*
X39029000Y-27624000D03*
D15*
X24003000Y-24130000D03*
D16*
X35497800Y-16749800D03*
X37247800Y-16749800D03*
X37247800Y-18149800D03*
X35497800Y-18149800D03*
D11*
G36*
X39199504Y-33923204D02*
G01*
X39223773Y-33926804D01*
X39247571Y-33932765D01*
X39270671Y-33941030D01*
X39292849Y-33951520D01*
X39313893Y-33964133D01*
X39333598Y-33978747D01*
X39351777Y-33995223D01*
X39368253Y-34013402D01*
X39382867Y-34033107D01*
X39395480Y-34054151D01*
X39405970Y-34076329D01*
X39414235Y-34099429D01*
X39420196Y-34123227D01*
X39423796Y-34147496D01*
X39425000Y-34172000D01*
X39425000Y-35097000D01*
X39423796Y-35121504D01*
X39420196Y-35145773D01*
X39414235Y-35169571D01*
X39405970Y-35192671D01*
X39395480Y-35214849D01*
X39382867Y-35235893D01*
X39368253Y-35255598D01*
X39351777Y-35273777D01*
X39333598Y-35290253D01*
X39313893Y-35304867D01*
X39292849Y-35317480D01*
X39270671Y-35327970D01*
X39247571Y-35336235D01*
X39223773Y-35342196D01*
X39199504Y-35345796D01*
X39175000Y-35347000D01*
X37025000Y-35347000D01*
X37000496Y-35345796D01*
X36976227Y-35342196D01*
X36952429Y-35336235D01*
X36929329Y-35327970D01*
X36907151Y-35317480D01*
X36886107Y-35304867D01*
X36866402Y-35290253D01*
X36848223Y-35273777D01*
X36831747Y-35255598D01*
X36817133Y-35235893D01*
X36804520Y-35214849D01*
X36794030Y-35192671D01*
X36785765Y-35169571D01*
X36779804Y-35145773D01*
X36776204Y-35121504D01*
X36775000Y-35097000D01*
X36775000Y-34172000D01*
X36776204Y-34147496D01*
X36779804Y-34123227D01*
X36785765Y-34099429D01*
X36794030Y-34076329D01*
X36804520Y-34054151D01*
X36817133Y-34033107D01*
X36831747Y-34013402D01*
X36848223Y-33995223D01*
X36866402Y-33978747D01*
X36886107Y-33964133D01*
X36907151Y-33951520D01*
X36929329Y-33941030D01*
X36952429Y-33932765D01*
X36976227Y-33926804D01*
X37000496Y-33923204D01*
X37025000Y-33922000D01*
X39175000Y-33922000D01*
X39199504Y-33923204D01*
X39199504Y-33923204D01*
G37*
D17*
X38100000Y-34634500D03*
D11*
G36*
X39199504Y-30948204D02*
G01*
X39223773Y-30951804D01*
X39247571Y-30957765D01*
X39270671Y-30966030D01*
X39292849Y-30976520D01*
X39313893Y-30989133D01*
X39333598Y-31003747D01*
X39351777Y-31020223D01*
X39368253Y-31038402D01*
X39382867Y-31058107D01*
X39395480Y-31079151D01*
X39405970Y-31101329D01*
X39414235Y-31124429D01*
X39420196Y-31148227D01*
X39423796Y-31172496D01*
X39425000Y-31197000D01*
X39425000Y-32122000D01*
X39423796Y-32146504D01*
X39420196Y-32170773D01*
X39414235Y-32194571D01*
X39405970Y-32217671D01*
X39395480Y-32239849D01*
X39382867Y-32260893D01*
X39368253Y-32280598D01*
X39351777Y-32298777D01*
X39333598Y-32315253D01*
X39313893Y-32329867D01*
X39292849Y-32342480D01*
X39270671Y-32352970D01*
X39247571Y-32361235D01*
X39223773Y-32367196D01*
X39199504Y-32370796D01*
X39175000Y-32372000D01*
X37025000Y-32372000D01*
X37000496Y-32370796D01*
X36976227Y-32367196D01*
X36952429Y-32361235D01*
X36929329Y-32352970D01*
X36907151Y-32342480D01*
X36886107Y-32329867D01*
X36866402Y-32315253D01*
X36848223Y-32298777D01*
X36831747Y-32280598D01*
X36817133Y-32260893D01*
X36804520Y-32239849D01*
X36794030Y-32217671D01*
X36785765Y-32194571D01*
X36779804Y-32170773D01*
X36776204Y-32146504D01*
X36775000Y-32122000D01*
X36775000Y-31197000D01*
X36776204Y-31172496D01*
X36779804Y-31148227D01*
X36785765Y-31124429D01*
X36794030Y-31101329D01*
X36804520Y-31079151D01*
X36817133Y-31058107D01*
X36831747Y-31038402D01*
X36848223Y-31020223D01*
X36866402Y-31003747D01*
X36886107Y-30989133D01*
X36907151Y-30976520D01*
X36929329Y-30966030D01*
X36952429Y-30957765D01*
X36976227Y-30951804D01*
X37000496Y-30948204D01*
X37025000Y-30947000D01*
X39175000Y-30947000D01*
X39199504Y-30948204D01*
X39199504Y-30948204D01*
G37*
D17*
X38100000Y-31659500D03*
D11*
G36*
X27592004Y-32077204D02*
G01*
X27616273Y-32080804D01*
X27640071Y-32086765D01*
X27663171Y-32095030D01*
X27685349Y-32105520D01*
X27706393Y-32118133D01*
X27726098Y-32132747D01*
X27744277Y-32149223D01*
X27760753Y-32167402D01*
X27775367Y-32187107D01*
X27787980Y-32208151D01*
X27798470Y-32230329D01*
X27806735Y-32253429D01*
X27812696Y-32277227D01*
X27816296Y-32301496D01*
X27817500Y-32326000D01*
X27817500Y-34476000D01*
X27816296Y-34500504D01*
X27812696Y-34524773D01*
X27806735Y-34548571D01*
X27798470Y-34571671D01*
X27787980Y-34593849D01*
X27775367Y-34614893D01*
X27760753Y-34634598D01*
X27744277Y-34652777D01*
X27726098Y-34669253D01*
X27706393Y-34683867D01*
X27685349Y-34696480D01*
X27663171Y-34706970D01*
X27640071Y-34715235D01*
X27616273Y-34721196D01*
X27592004Y-34724796D01*
X27567500Y-34726000D01*
X26642500Y-34726000D01*
X26617996Y-34724796D01*
X26593727Y-34721196D01*
X26569929Y-34715235D01*
X26546829Y-34706970D01*
X26524651Y-34696480D01*
X26503607Y-34683867D01*
X26483902Y-34669253D01*
X26465723Y-34652777D01*
X26449247Y-34634598D01*
X26434633Y-34614893D01*
X26422020Y-34593849D01*
X26411530Y-34571671D01*
X26403265Y-34548571D01*
X26397304Y-34524773D01*
X26393704Y-34500504D01*
X26392500Y-34476000D01*
X26392500Y-32326000D01*
X26393704Y-32301496D01*
X26397304Y-32277227D01*
X26403265Y-32253429D01*
X26411530Y-32230329D01*
X26422020Y-32208151D01*
X26434633Y-32187107D01*
X26449247Y-32167402D01*
X26465723Y-32149223D01*
X26483902Y-32132747D01*
X26503607Y-32118133D01*
X26524651Y-32105520D01*
X26546829Y-32095030D01*
X26569929Y-32086765D01*
X26593727Y-32080804D01*
X26617996Y-32077204D01*
X26642500Y-32076000D01*
X27567500Y-32076000D01*
X27592004Y-32077204D01*
X27592004Y-32077204D01*
G37*
D17*
X27105000Y-33401000D03*
D11*
G36*
X24617004Y-32077204D02*
G01*
X24641273Y-32080804D01*
X24665071Y-32086765D01*
X24688171Y-32095030D01*
X24710349Y-32105520D01*
X24731393Y-32118133D01*
X24751098Y-32132747D01*
X24769277Y-32149223D01*
X24785753Y-32167402D01*
X24800367Y-32187107D01*
X24812980Y-32208151D01*
X24823470Y-32230329D01*
X24831735Y-32253429D01*
X24837696Y-32277227D01*
X24841296Y-32301496D01*
X24842500Y-32326000D01*
X24842500Y-34476000D01*
X24841296Y-34500504D01*
X24837696Y-34524773D01*
X24831735Y-34548571D01*
X24823470Y-34571671D01*
X24812980Y-34593849D01*
X24800367Y-34614893D01*
X24785753Y-34634598D01*
X24769277Y-34652777D01*
X24751098Y-34669253D01*
X24731393Y-34683867D01*
X24710349Y-34696480D01*
X24688171Y-34706970D01*
X24665071Y-34715235D01*
X24641273Y-34721196D01*
X24617004Y-34724796D01*
X24592500Y-34726000D01*
X23667500Y-34726000D01*
X23642996Y-34724796D01*
X23618727Y-34721196D01*
X23594929Y-34715235D01*
X23571829Y-34706970D01*
X23549651Y-34696480D01*
X23528607Y-34683867D01*
X23508902Y-34669253D01*
X23490723Y-34652777D01*
X23474247Y-34634598D01*
X23459633Y-34614893D01*
X23447020Y-34593849D01*
X23436530Y-34571671D01*
X23428265Y-34548571D01*
X23422304Y-34524773D01*
X23418704Y-34500504D01*
X23417500Y-34476000D01*
X23417500Y-32326000D01*
X23418704Y-32301496D01*
X23422304Y-32277227D01*
X23428265Y-32253429D01*
X23436530Y-32230329D01*
X23447020Y-32208151D01*
X23459633Y-32187107D01*
X23474247Y-32167402D01*
X23490723Y-32149223D01*
X23508902Y-32132747D01*
X23528607Y-32118133D01*
X23549651Y-32105520D01*
X23571829Y-32095030D01*
X23594929Y-32086765D01*
X23618727Y-32080804D01*
X23642996Y-32077204D01*
X23667500Y-32076000D01*
X24592500Y-32076000D01*
X24617004Y-32077204D01*
X24617004Y-32077204D01*
G37*
D17*
X24130000Y-33401000D03*
D15*
X19685000Y-24130000D03*
X19685000Y-21971000D03*
X30734000Y-31623000D03*
X40767000Y-31623000D03*
X24003000Y-27432000D03*
X19685000Y-27432000D03*
X21844000Y-27432000D03*
X41402000Y-20193000D03*
D11*
G36*
X32988505Y-30924204D02*
G01*
X33012773Y-30927804D01*
X33036572Y-30933765D01*
X33059671Y-30942030D01*
X33081850Y-30952520D01*
X33102893Y-30965132D01*
X33122599Y-30979747D01*
X33140777Y-30996223D01*
X33157253Y-31014401D01*
X33171868Y-31034107D01*
X33184480Y-31055150D01*
X33194970Y-31077329D01*
X33203235Y-31100428D01*
X33209196Y-31124227D01*
X33212796Y-31148495D01*
X33214000Y-31172999D01*
X33214000Y-32073001D01*
X33212796Y-32097505D01*
X33209196Y-32121773D01*
X33203235Y-32145572D01*
X33194970Y-32168671D01*
X33184480Y-32190850D01*
X33171868Y-32211893D01*
X33157253Y-32231599D01*
X33140777Y-32249777D01*
X33122599Y-32266253D01*
X33102893Y-32280868D01*
X33081850Y-32293480D01*
X33059671Y-32303970D01*
X33036572Y-32312235D01*
X33012773Y-32318196D01*
X32988505Y-32321796D01*
X32964001Y-32323000D01*
X32313999Y-32323000D01*
X32289495Y-32321796D01*
X32265227Y-32318196D01*
X32241428Y-32312235D01*
X32218329Y-32303970D01*
X32196150Y-32293480D01*
X32175107Y-32280868D01*
X32155401Y-32266253D01*
X32137223Y-32249777D01*
X32120747Y-32231599D01*
X32106132Y-32211893D01*
X32093520Y-32190850D01*
X32083030Y-32168671D01*
X32074765Y-32145572D01*
X32068804Y-32121773D01*
X32065204Y-32097505D01*
X32064000Y-32073001D01*
X32064000Y-31172999D01*
X32065204Y-31148495D01*
X32068804Y-31124227D01*
X32074765Y-31100428D01*
X32083030Y-31077329D01*
X32093520Y-31055150D01*
X32106132Y-31034107D01*
X32120747Y-31014401D01*
X32137223Y-30996223D01*
X32155401Y-30979747D01*
X32175107Y-30965132D01*
X32196150Y-30952520D01*
X32218329Y-30942030D01*
X32241428Y-30933765D01*
X32265227Y-30927804D01*
X32289495Y-30924204D01*
X32313999Y-30923000D01*
X32964001Y-30923000D01*
X32988505Y-30924204D01*
X32988505Y-30924204D01*
G37*
D18*
X32639000Y-31623000D03*
D11*
G36*
X35038505Y-30924204D02*
G01*
X35062773Y-30927804D01*
X35086572Y-30933765D01*
X35109671Y-30942030D01*
X35131850Y-30952520D01*
X35152893Y-30965132D01*
X35172599Y-30979747D01*
X35190777Y-30996223D01*
X35207253Y-31014401D01*
X35221868Y-31034107D01*
X35234480Y-31055150D01*
X35244970Y-31077329D01*
X35253235Y-31100428D01*
X35259196Y-31124227D01*
X35262796Y-31148495D01*
X35264000Y-31172999D01*
X35264000Y-32073001D01*
X35262796Y-32097505D01*
X35259196Y-32121773D01*
X35253235Y-32145572D01*
X35244970Y-32168671D01*
X35234480Y-32190850D01*
X35221868Y-32211893D01*
X35207253Y-32231599D01*
X35190777Y-32249777D01*
X35172599Y-32266253D01*
X35152893Y-32280868D01*
X35131850Y-32293480D01*
X35109671Y-32303970D01*
X35086572Y-32312235D01*
X35062773Y-32318196D01*
X35038505Y-32321796D01*
X35014001Y-32323000D01*
X34363999Y-32323000D01*
X34339495Y-32321796D01*
X34315227Y-32318196D01*
X34291428Y-32312235D01*
X34268329Y-32303970D01*
X34246150Y-32293480D01*
X34225107Y-32280868D01*
X34205401Y-32266253D01*
X34187223Y-32249777D01*
X34170747Y-32231599D01*
X34156132Y-32211893D01*
X34143520Y-32190850D01*
X34133030Y-32168671D01*
X34124765Y-32145572D01*
X34118804Y-32121773D01*
X34115204Y-32097505D01*
X34114000Y-32073001D01*
X34114000Y-31172999D01*
X34115204Y-31148495D01*
X34118804Y-31124227D01*
X34124765Y-31100428D01*
X34133030Y-31077329D01*
X34143520Y-31055150D01*
X34156132Y-31034107D01*
X34170747Y-31014401D01*
X34187223Y-30996223D01*
X34205401Y-30979747D01*
X34225107Y-30965132D01*
X34246150Y-30952520D01*
X34268329Y-30942030D01*
X34291428Y-30933765D01*
X34315227Y-30927804D01*
X34339495Y-30924204D01*
X34363999Y-30923000D01*
X35014001Y-30923000D01*
X35038505Y-30924204D01*
X35038505Y-30924204D01*
G37*
D18*
X34689000Y-31623000D03*
D11*
G36*
X42003505Y-26740204D02*
G01*
X42027773Y-26743804D01*
X42051572Y-26749765D01*
X42074671Y-26758030D01*
X42096850Y-26768520D01*
X42117893Y-26781132D01*
X42137599Y-26795747D01*
X42155777Y-26812223D01*
X42172253Y-26830401D01*
X42186868Y-26850107D01*
X42199480Y-26871150D01*
X42209970Y-26893329D01*
X42218235Y-26916428D01*
X42224196Y-26940227D01*
X42227796Y-26964495D01*
X42229000Y-26988999D01*
X42229000Y-27639001D01*
X42227796Y-27663505D01*
X42224196Y-27687773D01*
X42218235Y-27711572D01*
X42209970Y-27734671D01*
X42199480Y-27756850D01*
X42186868Y-27777893D01*
X42172253Y-27797599D01*
X42155777Y-27815777D01*
X42137599Y-27832253D01*
X42117893Y-27846868D01*
X42096850Y-27859480D01*
X42074671Y-27869970D01*
X42051572Y-27878235D01*
X42027773Y-27884196D01*
X42003505Y-27887796D01*
X41979001Y-27889000D01*
X41078999Y-27889000D01*
X41054495Y-27887796D01*
X41030227Y-27884196D01*
X41006428Y-27878235D01*
X40983329Y-27869970D01*
X40961150Y-27859480D01*
X40940107Y-27846868D01*
X40920401Y-27832253D01*
X40902223Y-27815777D01*
X40885747Y-27797599D01*
X40871132Y-27777893D01*
X40858520Y-27756850D01*
X40848030Y-27734671D01*
X40839765Y-27711572D01*
X40833804Y-27687773D01*
X40830204Y-27663505D01*
X40829000Y-27639001D01*
X40829000Y-26988999D01*
X40830204Y-26964495D01*
X40833804Y-26940227D01*
X40839765Y-26916428D01*
X40848030Y-26893329D01*
X40858520Y-26871150D01*
X40871132Y-26850107D01*
X40885747Y-26830401D01*
X40902223Y-26812223D01*
X40920401Y-26795747D01*
X40940107Y-26781132D01*
X40961150Y-26768520D01*
X40983329Y-26758030D01*
X41006428Y-26749765D01*
X41030227Y-26743804D01*
X41054495Y-26740204D01*
X41078999Y-26739000D01*
X41979001Y-26739000D01*
X42003505Y-26740204D01*
X42003505Y-26740204D01*
G37*
D18*
X41529000Y-27314000D03*
D11*
G36*
X42003505Y-24690204D02*
G01*
X42027773Y-24693804D01*
X42051572Y-24699765D01*
X42074671Y-24708030D01*
X42096850Y-24718520D01*
X42117893Y-24731132D01*
X42137599Y-24745747D01*
X42155777Y-24762223D01*
X42172253Y-24780401D01*
X42186868Y-24800107D01*
X42199480Y-24821150D01*
X42209970Y-24843329D01*
X42218235Y-24866428D01*
X42224196Y-24890227D01*
X42227796Y-24914495D01*
X42229000Y-24938999D01*
X42229000Y-25589001D01*
X42227796Y-25613505D01*
X42224196Y-25637773D01*
X42218235Y-25661572D01*
X42209970Y-25684671D01*
X42199480Y-25706850D01*
X42186868Y-25727893D01*
X42172253Y-25747599D01*
X42155777Y-25765777D01*
X42137599Y-25782253D01*
X42117893Y-25796868D01*
X42096850Y-25809480D01*
X42074671Y-25819970D01*
X42051572Y-25828235D01*
X42027773Y-25834196D01*
X42003505Y-25837796D01*
X41979001Y-25839000D01*
X41078999Y-25839000D01*
X41054495Y-25837796D01*
X41030227Y-25834196D01*
X41006428Y-25828235D01*
X40983329Y-25819970D01*
X40961150Y-25809480D01*
X40940107Y-25796868D01*
X40920401Y-25782253D01*
X40902223Y-25765777D01*
X40885747Y-25747599D01*
X40871132Y-25727893D01*
X40858520Y-25706850D01*
X40848030Y-25684671D01*
X40839765Y-25661572D01*
X40833804Y-25637773D01*
X40830204Y-25613505D01*
X40829000Y-25589001D01*
X40829000Y-24938999D01*
X40830204Y-24914495D01*
X40833804Y-24890227D01*
X40839765Y-24866428D01*
X40848030Y-24843329D01*
X40858520Y-24821150D01*
X40871132Y-24800107D01*
X40885747Y-24780401D01*
X40902223Y-24762223D01*
X40920401Y-24745747D01*
X40940107Y-24731132D01*
X40961150Y-24718520D01*
X40983329Y-24708030D01*
X41006428Y-24699765D01*
X41030227Y-24693804D01*
X41054495Y-24690204D01*
X41078999Y-24689000D01*
X41979001Y-24689000D01*
X42003505Y-24690204D01*
X42003505Y-24690204D01*
G37*
D18*
X41529000Y-25264000D03*
D11*
G36*
X28414505Y-25606204D02*
G01*
X28438773Y-25609804D01*
X28462572Y-25615765D01*
X28485671Y-25624030D01*
X28507850Y-25634520D01*
X28528893Y-25647132D01*
X28548599Y-25661747D01*
X28566777Y-25678223D01*
X28583253Y-25696401D01*
X28597868Y-25716107D01*
X28610480Y-25737150D01*
X28620970Y-25759329D01*
X28629235Y-25782428D01*
X28635196Y-25806227D01*
X28638796Y-25830495D01*
X28640000Y-25854999D01*
X28640000Y-26505001D01*
X28638796Y-26529505D01*
X28635196Y-26553773D01*
X28629235Y-26577572D01*
X28620970Y-26600671D01*
X28610480Y-26622850D01*
X28597868Y-26643893D01*
X28583253Y-26663599D01*
X28566777Y-26681777D01*
X28548599Y-26698253D01*
X28528893Y-26712868D01*
X28507850Y-26725480D01*
X28485671Y-26735970D01*
X28462572Y-26744235D01*
X28438773Y-26750196D01*
X28414505Y-26753796D01*
X28390001Y-26755000D01*
X27489999Y-26755000D01*
X27465495Y-26753796D01*
X27441227Y-26750196D01*
X27417428Y-26744235D01*
X27394329Y-26735970D01*
X27372150Y-26725480D01*
X27351107Y-26712868D01*
X27331401Y-26698253D01*
X27313223Y-26681777D01*
X27296747Y-26663599D01*
X27282132Y-26643893D01*
X27269520Y-26622850D01*
X27259030Y-26600671D01*
X27250765Y-26577572D01*
X27244804Y-26553773D01*
X27241204Y-26529505D01*
X27240000Y-26505001D01*
X27240000Y-25854999D01*
X27241204Y-25830495D01*
X27244804Y-25806227D01*
X27250765Y-25782428D01*
X27259030Y-25759329D01*
X27269520Y-25737150D01*
X27282132Y-25716107D01*
X27296747Y-25696401D01*
X27313223Y-25678223D01*
X27331401Y-25661747D01*
X27351107Y-25647132D01*
X27372150Y-25634520D01*
X27394329Y-25624030D01*
X27417428Y-25615765D01*
X27441227Y-25609804D01*
X27465495Y-25606204D01*
X27489999Y-25605000D01*
X28390001Y-25605000D01*
X28414505Y-25606204D01*
X28414505Y-25606204D01*
G37*
D18*
X27940000Y-26180000D03*
D11*
G36*
X28414505Y-23556204D02*
G01*
X28438773Y-23559804D01*
X28462572Y-23565765D01*
X28485671Y-23574030D01*
X28507850Y-23584520D01*
X28528893Y-23597132D01*
X28548599Y-23611747D01*
X28566777Y-23628223D01*
X28583253Y-23646401D01*
X28597868Y-23666107D01*
X28610480Y-23687150D01*
X28620970Y-23709329D01*
X28629235Y-23732428D01*
X28635196Y-23756227D01*
X28638796Y-23780495D01*
X28640000Y-23804999D01*
X28640000Y-24455001D01*
X28638796Y-24479505D01*
X28635196Y-24503773D01*
X28629235Y-24527572D01*
X28620970Y-24550671D01*
X28610480Y-24572850D01*
X28597868Y-24593893D01*
X28583253Y-24613599D01*
X28566777Y-24631777D01*
X28548599Y-24648253D01*
X28528893Y-24662868D01*
X28507850Y-24675480D01*
X28485671Y-24685970D01*
X28462572Y-24694235D01*
X28438773Y-24700196D01*
X28414505Y-24703796D01*
X28390001Y-24705000D01*
X27489999Y-24705000D01*
X27465495Y-24703796D01*
X27441227Y-24700196D01*
X27417428Y-24694235D01*
X27394329Y-24685970D01*
X27372150Y-24675480D01*
X27351107Y-24662868D01*
X27331401Y-24648253D01*
X27313223Y-24631777D01*
X27296747Y-24613599D01*
X27282132Y-24593893D01*
X27269520Y-24572850D01*
X27259030Y-24550671D01*
X27250765Y-24527572D01*
X27244804Y-24503773D01*
X27241204Y-24479505D01*
X27240000Y-24455001D01*
X27240000Y-23804999D01*
X27241204Y-23780495D01*
X27244804Y-23756227D01*
X27250765Y-23732428D01*
X27259030Y-23709329D01*
X27269520Y-23687150D01*
X27282132Y-23666107D01*
X27296747Y-23646401D01*
X27313223Y-23628223D01*
X27331401Y-23611747D01*
X27351107Y-23597132D01*
X27372150Y-23584520D01*
X27394329Y-23574030D01*
X27417428Y-23565765D01*
X27441227Y-23559804D01*
X27465495Y-23556204D01*
X27489999Y-23555000D01*
X28390001Y-23555000D01*
X28414505Y-23556204D01*
X28414505Y-23556204D01*
G37*
D18*
X27940000Y-24130000D03*
D11*
G36*
X20032505Y-18358204D02*
G01*
X20056773Y-18361804D01*
X20080572Y-18367765D01*
X20103671Y-18376030D01*
X20125850Y-18386520D01*
X20146893Y-18399132D01*
X20166599Y-18413747D01*
X20184777Y-18430223D01*
X20201253Y-18448401D01*
X20215868Y-18468107D01*
X20228480Y-18489150D01*
X20238970Y-18511329D01*
X20247235Y-18534428D01*
X20253196Y-18558227D01*
X20256796Y-18582495D01*
X20258000Y-18606999D01*
X20258000Y-19257001D01*
X20256796Y-19281505D01*
X20253196Y-19305773D01*
X20247235Y-19329572D01*
X20238970Y-19352671D01*
X20228480Y-19374850D01*
X20215868Y-19395893D01*
X20201253Y-19415599D01*
X20184777Y-19433777D01*
X20166599Y-19450253D01*
X20146893Y-19464868D01*
X20125850Y-19477480D01*
X20103671Y-19487970D01*
X20080572Y-19496235D01*
X20056773Y-19502196D01*
X20032505Y-19505796D01*
X20008001Y-19507000D01*
X19107999Y-19507000D01*
X19083495Y-19505796D01*
X19059227Y-19502196D01*
X19035428Y-19496235D01*
X19012329Y-19487970D01*
X18990150Y-19477480D01*
X18969107Y-19464868D01*
X18949401Y-19450253D01*
X18931223Y-19433777D01*
X18914747Y-19415599D01*
X18900132Y-19395893D01*
X18887520Y-19374850D01*
X18877030Y-19352671D01*
X18868765Y-19329572D01*
X18862804Y-19305773D01*
X18859204Y-19281505D01*
X18858000Y-19257001D01*
X18858000Y-18606999D01*
X18859204Y-18582495D01*
X18862804Y-18558227D01*
X18868765Y-18534428D01*
X18877030Y-18511329D01*
X18887520Y-18489150D01*
X18900132Y-18468107D01*
X18914747Y-18448401D01*
X18931223Y-18430223D01*
X18949401Y-18413747D01*
X18969107Y-18399132D01*
X18990150Y-18386520D01*
X19012329Y-18376030D01*
X19035428Y-18367765D01*
X19059227Y-18361804D01*
X19083495Y-18358204D01*
X19107999Y-18357000D01*
X20008001Y-18357000D01*
X20032505Y-18358204D01*
X20032505Y-18358204D01*
G37*
D18*
X19558000Y-18932000D03*
D11*
G36*
X20032505Y-16308204D02*
G01*
X20056773Y-16311804D01*
X20080572Y-16317765D01*
X20103671Y-16326030D01*
X20125850Y-16336520D01*
X20146893Y-16349132D01*
X20166599Y-16363747D01*
X20184777Y-16380223D01*
X20201253Y-16398401D01*
X20215868Y-16418107D01*
X20228480Y-16439150D01*
X20238970Y-16461329D01*
X20247235Y-16484428D01*
X20253196Y-16508227D01*
X20256796Y-16532495D01*
X20258000Y-16556999D01*
X20258000Y-17207001D01*
X20256796Y-17231505D01*
X20253196Y-17255773D01*
X20247235Y-17279572D01*
X20238970Y-17302671D01*
X20228480Y-17324850D01*
X20215868Y-17345893D01*
X20201253Y-17365599D01*
X20184777Y-17383777D01*
X20166599Y-17400253D01*
X20146893Y-17414868D01*
X20125850Y-17427480D01*
X20103671Y-17437970D01*
X20080572Y-17446235D01*
X20056773Y-17452196D01*
X20032505Y-17455796D01*
X20008001Y-17457000D01*
X19107999Y-17457000D01*
X19083495Y-17455796D01*
X19059227Y-17452196D01*
X19035428Y-17446235D01*
X19012329Y-17437970D01*
X18990150Y-17427480D01*
X18969107Y-17414868D01*
X18949401Y-17400253D01*
X18931223Y-17383777D01*
X18914747Y-17365599D01*
X18900132Y-17345893D01*
X18887520Y-17324850D01*
X18877030Y-17302671D01*
X18868765Y-17279572D01*
X18862804Y-17255773D01*
X18859204Y-17231505D01*
X18858000Y-17207001D01*
X18858000Y-16556999D01*
X18859204Y-16532495D01*
X18862804Y-16508227D01*
X18868765Y-16484428D01*
X18877030Y-16461329D01*
X18887520Y-16439150D01*
X18900132Y-16418107D01*
X18914747Y-16398401D01*
X18931223Y-16380223D01*
X18949401Y-16363747D01*
X18969107Y-16349132D01*
X18990150Y-16336520D01*
X19012329Y-16326030D01*
X19035428Y-16317765D01*
X19059227Y-16311804D01*
X19083495Y-16308204D01*
X19107999Y-16307000D01*
X20008001Y-16307000D01*
X20032505Y-16308204D01*
X20032505Y-16308204D01*
G37*
D18*
X19558000Y-16882000D03*
D11*
G36*
X33926305Y-15588004D02*
G01*
X33950573Y-15591604D01*
X33974372Y-15597565D01*
X33997471Y-15605830D01*
X34019650Y-15616320D01*
X34040693Y-15628932D01*
X34060399Y-15643547D01*
X34078577Y-15660023D01*
X34095053Y-15678201D01*
X34109668Y-15697907D01*
X34122280Y-15718950D01*
X34132770Y-15741129D01*
X34141035Y-15764228D01*
X34146996Y-15788027D01*
X34150596Y-15812295D01*
X34151800Y-15836799D01*
X34151800Y-16486801D01*
X34150596Y-16511305D01*
X34146996Y-16535573D01*
X34141035Y-16559372D01*
X34132770Y-16582471D01*
X34122280Y-16604650D01*
X34109668Y-16625693D01*
X34095053Y-16645399D01*
X34078577Y-16663577D01*
X34060399Y-16680053D01*
X34040693Y-16694668D01*
X34019650Y-16707280D01*
X33997471Y-16717770D01*
X33974372Y-16726035D01*
X33950573Y-16731996D01*
X33926305Y-16735596D01*
X33901801Y-16736800D01*
X33001799Y-16736800D01*
X32977295Y-16735596D01*
X32953027Y-16731996D01*
X32929228Y-16726035D01*
X32906129Y-16717770D01*
X32883950Y-16707280D01*
X32862907Y-16694668D01*
X32843201Y-16680053D01*
X32825023Y-16663577D01*
X32808547Y-16645399D01*
X32793932Y-16625693D01*
X32781320Y-16604650D01*
X32770830Y-16582471D01*
X32762565Y-16559372D01*
X32756604Y-16535573D01*
X32753004Y-16511305D01*
X32751800Y-16486801D01*
X32751800Y-15836799D01*
X32753004Y-15812295D01*
X32756604Y-15788027D01*
X32762565Y-15764228D01*
X32770830Y-15741129D01*
X32781320Y-15718950D01*
X32793932Y-15697907D01*
X32808547Y-15678201D01*
X32825023Y-15660023D01*
X32843201Y-15643547D01*
X32862907Y-15628932D01*
X32883950Y-15616320D01*
X32906129Y-15605830D01*
X32929228Y-15597565D01*
X32953027Y-15591604D01*
X32977295Y-15588004D01*
X33001799Y-15586800D01*
X33901801Y-15586800D01*
X33926305Y-15588004D01*
X33926305Y-15588004D01*
G37*
D18*
X33451800Y-16161800D03*
D11*
G36*
X33926305Y-17638004D02*
G01*
X33950573Y-17641604D01*
X33974372Y-17647565D01*
X33997471Y-17655830D01*
X34019650Y-17666320D01*
X34040693Y-17678932D01*
X34060399Y-17693547D01*
X34078577Y-17710023D01*
X34095053Y-17728201D01*
X34109668Y-17747907D01*
X34122280Y-17768950D01*
X34132770Y-17791129D01*
X34141035Y-17814228D01*
X34146996Y-17838027D01*
X34150596Y-17862295D01*
X34151800Y-17886799D01*
X34151800Y-18536801D01*
X34150596Y-18561305D01*
X34146996Y-18585573D01*
X34141035Y-18609372D01*
X34132770Y-18632471D01*
X34122280Y-18654650D01*
X34109668Y-18675693D01*
X34095053Y-18695399D01*
X34078577Y-18713577D01*
X34060399Y-18730053D01*
X34040693Y-18744668D01*
X34019650Y-18757280D01*
X33997471Y-18767770D01*
X33974372Y-18776035D01*
X33950573Y-18781996D01*
X33926305Y-18785596D01*
X33901801Y-18786800D01*
X33001799Y-18786800D01*
X32977295Y-18785596D01*
X32953027Y-18781996D01*
X32929228Y-18776035D01*
X32906129Y-18767770D01*
X32883950Y-18757280D01*
X32862907Y-18744668D01*
X32843201Y-18730053D01*
X32825023Y-18713577D01*
X32808547Y-18695399D01*
X32793932Y-18675693D01*
X32781320Y-18654650D01*
X32770830Y-18632471D01*
X32762565Y-18609372D01*
X32756604Y-18585573D01*
X32753004Y-18561305D01*
X32751800Y-18536801D01*
X32751800Y-17886799D01*
X32753004Y-17862295D01*
X32756604Y-17838027D01*
X32762565Y-17814228D01*
X32770830Y-17791129D01*
X32781320Y-17768950D01*
X32793932Y-17747907D01*
X32808547Y-17728201D01*
X32825023Y-17710023D01*
X32843201Y-17693547D01*
X32862907Y-17678932D01*
X32883950Y-17666320D01*
X32906129Y-17655830D01*
X32929228Y-17647565D01*
X32953027Y-17641604D01*
X32977295Y-17638004D01*
X33001799Y-17636800D01*
X33901801Y-17636800D01*
X33926305Y-17638004D01*
X33926305Y-17638004D01*
G37*
D18*
X33451800Y-18211800D03*
D11*
G36*
X39768305Y-15588004D02*
G01*
X39792573Y-15591604D01*
X39816372Y-15597565D01*
X39839471Y-15605830D01*
X39861650Y-15616320D01*
X39882693Y-15628932D01*
X39902399Y-15643547D01*
X39920577Y-15660023D01*
X39937053Y-15678201D01*
X39951668Y-15697907D01*
X39964280Y-15718950D01*
X39974770Y-15741129D01*
X39983035Y-15764228D01*
X39988996Y-15788027D01*
X39992596Y-15812295D01*
X39993800Y-15836799D01*
X39993800Y-16486801D01*
X39992596Y-16511305D01*
X39988996Y-16535573D01*
X39983035Y-16559372D01*
X39974770Y-16582471D01*
X39964280Y-16604650D01*
X39951668Y-16625693D01*
X39937053Y-16645399D01*
X39920577Y-16663577D01*
X39902399Y-16680053D01*
X39882693Y-16694668D01*
X39861650Y-16707280D01*
X39839471Y-16717770D01*
X39816372Y-16726035D01*
X39792573Y-16731996D01*
X39768305Y-16735596D01*
X39743801Y-16736800D01*
X38843799Y-16736800D01*
X38819295Y-16735596D01*
X38795027Y-16731996D01*
X38771228Y-16726035D01*
X38748129Y-16717770D01*
X38725950Y-16707280D01*
X38704907Y-16694668D01*
X38685201Y-16680053D01*
X38667023Y-16663577D01*
X38650547Y-16645399D01*
X38635932Y-16625693D01*
X38623320Y-16604650D01*
X38612830Y-16582471D01*
X38604565Y-16559372D01*
X38598604Y-16535573D01*
X38595004Y-16511305D01*
X38593800Y-16486801D01*
X38593800Y-15836799D01*
X38595004Y-15812295D01*
X38598604Y-15788027D01*
X38604565Y-15764228D01*
X38612830Y-15741129D01*
X38623320Y-15718950D01*
X38635932Y-15697907D01*
X38650547Y-15678201D01*
X38667023Y-15660023D01*
X38685201Y-15643547D01*
X38704907Y-15628932D01*
X38725950Y-15616320D01*
X38748129Y-15605830D01*
X38771228Y-15597565D01*
X38795027Y-15591604D01*
X38819295Y-15588004D01*
X38843799Y-15586800D01*
X39743801Y-15586800D01*
X39768305Y-15588004D01*
X39768305Y-15588004D01*
G37*
D18*
X39293800Y-16161800D03*
D11*
G36*
X39768305Y-17638004D02*
G01*
X39792573Y-17641604D01*
X39816372Y-17647565D01*
X39839471Y-17655830D01*
X39861650Y-17666320D01*
X39882693Y-17678932D01*
X39902399Y-17693547D01*
X39920577Y-17710023D01*
X39937053Y-17728201D01*
X39951668Y-17747907D01*
X39964280Y-17768950D01*
X39974770Y-17791129D01*
X39983035Y-17814228D01*
X39988996Y-17838027D01*
X39992596Y-17862295D01*
X39993800Y-17886799D01*
X39993800Y-18536801D01*
X39992596Y-18561305D01*
X39988996Y-18585573D01*
X39983035Y-18609372D01*
X39974770Y-18632471D01*
X39964280Y-18654650D01*
X39951668Y-18675693D01*
X39937053Y-18695399D01*
X39920577Y-18713577D01*
X39902399Y-18730053D01*
X39882693Y-18744668D01*
X39861650Y-18757280D01*
X39839471Y-18767770D01*
X39816372Y-18776035D01*
X39792573Y-18781996D01*
X39768305Y-18785596D01*
X39743801Y-18786800D01*
X38843799Y-18786800D01*
X38819295Y-18785596D01*
X38795027Y-18781996D01*
X38771228Y-18776035D01*
X38748129Y-18767770D01*
X38725950Y-18757280D01*
X38704907Y-18744668D01*
X38685201Y-18730053D01*
X38667023Y-18713577D01*
X38650547Y-18695399D01*
X38635932Y-18675693D01*
X38623320Y-18654650D01*
X38612830Y-18632471D01*
X38604565Y-18609372D01*
X38598604Y-18585573D01*
X38595004Y-18561305D01*
X38593800Y-18536801D01*
X38593800Y-17886799D01*
X38595004Y-17862295D01*
X38598604Y-17838027D01*
X38604565Y-17814228D01*
X38612830Y-17791129D01*
X38623320Y-17768950D01*
X38635932Y-17747907D01*
X38650547Y-17728201D01*
X38667023Y-17710023D01*
X38685201Y-17693547D01*
X38704907Y-17678932D01*
X38725950Y-17666320D01*
X38748129Y-17655830D01*
X38771228Y-17647565D01*
X38795027Y-17641604D01*
X38819295Y-17638004D01*
X38843799Y-17636800D01*
X39743801Y-17636800D01*
X39768305Y-17638004D01*
X39768305Y-17638004D01*
G37*
D18*
X39293800Y-18211800D03*
D11*
G36*
X26520505Y-30035204D02*
G01*
X26544773Y-30038804D01*
X26568572Y-30044765D01*
X26591671Y-30053030D01*
X26613850Y-30063520D01*
X26634893Y-30076132D01*
X26654599Y-30090747D01*
X26672777Y-30107223D01*
X26689253Y-30125401D01*
X26703868Y-30145107D01*
X26716480Y-30166150D01*
X26726970Y-30188329D01*
X26735235Y-30211428D01*
X26741196Y-30235227D01*
X26744796Y-30259495D01*
X26746000Y-30283999D01*
X26746000Y-31184001D01*
X26744796Y-31208505D01*
X26741196Y-31232773D01*
X26735235Y-31256572D01*
X26726970Y-31279671D01*
X26716480Y-31301850D01*
X26703868Y-31322893D01*
X26689253Y-31342599D01*
X26672777Y-31360777D01*
X26654599Y-31377253D01*
X26634893Y-31391868D01*
X26613850Y-31404480D01*
X26591671Y-31414970D01*
X26568572Y-31423235D01*
X26544773Y-31429196D01*
X26520505Y-31432796D01*
X26496001Y-31434000D01*
X25845999Y-31434000D01*
X25821495Y-31432796D01*
X25797227Y-31429196D01*
X25773428Y-31423235D01*
X25750329Y-31414970D01*
X25728150Y-31404480D01*
X25707107Y-31391868D01*
X25687401Y-31377253D01*
X25669223Y-31360777D01*
X25652747Y-31342599D01*
X25638132Y-31322893D01*
X25625520Y-31301850D01*
X25615030Y-31279671D01*
X25606765Y-31256572D01*
X25600804Y-31232773D01*
X25597204Y-31208505D01*
X25596000Y-31184001D01*
X25596000Y-30283999D01*
X25597204Y-30259495D01*
X25600804Y-30235227D01*
X25606765Y-30211428D01*
X25615030Y-30188329D01*
X25625520Y-30166150D01*
X25638132Y-30145107D01*
X25652747Y-30125401D01*
X25669223Y-30107223D01*
X25687401Y-30090747D01*
X25707107Y-30076132D01*
X25728150Y-30063520D01*
X25750329Y-30053030D01*
X25773428Y-30044765D01*
X25797227Y-30038804D01*
X25821495Y-30035204D01*
X25845999Y-30034000D01*
X26496001Y-30034000D01*
X26520505Y-30035204D01*
X26520505Y-30035204D01*
G37*
D18*
X26171000Y-30734000D03*
D11*
G36*
X24470505Y-30035204D02*
G01*
X24494773Y-30038804D01*
X24518572Y-30044765D01*
X24541671Y-30053030D01*
X24563850Y-30063520D01*
X24584893Y-30076132D01*
X24604599Y-30090747D01*
X24622777Y-30107223D01*
X24639253Y-30125401D01*
X24653868Y-30145107D01*
X24666480Y-30166150D01*
X24676970Y-30188329D01*
X24685235Y-30211428D01*
X24691196Y-30235227D01*
X24694796Y-30259495D01*
X24696000Y-30283999D01*
X24696000Y-31184001D01*
X24694796Y-31208505D01*
X24691196Y-31232773D01*
X24685235Y-31256572D01*
X24676970Y-31279671D01*
X24666480Y-31301850D01*
X24653868Y-31322893D01*
X24639253Y-31342599D01*
X24622777Y-31360777D01*
X24604599Y-31377253D01*
X24584893Y-31391868D01*
X24563850Y-31404480D01*
X24541671Y-31414970D01*
X24518572Y-31423235D01*
X24494773Y-31429196D01*
X24470505Y-31432796D01*
X24446001Y-31434000D01*
X23795999Y-31434000D01*
X23771495Y-31432796D01*
X23747227Y-31429196D01*
X23723428Y-31423235D01*
X23700329Y-31414970D01*
X23678150Y-31404480D01*
X23657107Y-31391868D01*
X23637401Y-31377253D01*
X23619223Y-31360777D01*
X23602747Y-31342599D01*
X23588132Y-31322893D01*
X23575520Y-31301850D01*
X23565030Y-31279671D01*
X23556765Y-31256572D01*
X23550804Y-31232773D01*
X23547204Y-31208505D01*
X23546000Y-31184001D01*
X23546000Y-30283999D01*
X23547204Y-30259495D01*
X23550804Y-30235227D01*
X23556765Y-30211428D01*
X23565030Y-30188329D01*
X23575520Y-30166150D01*
X23588132Y-30145107D01*
X23602747Y-30125401D01*
X23619223Y-30107223D01*
X23637401Y-30090747D01*
X23657107Y-30076132D01*
X23678150Y-30063520D01*
X23700329Y-30053030D01*
X23723428Y-30044765D01*
X23747227Y-30038804D01*
X23771495Y-30035204D01*
X23795999Y-30034000D01*
X24446001Y-30034000D01*
X24470505Y-30035204D01*
X24470505Y-30035204D01*
G37*
D18*
X24121000Y-30734000D03*
D19*
X22479000Y-19304000D03*
X22479000Y-16764000D03*
X25019000Y-19304000D03*
X25019000Y-16764000D03*
X27559000Y-19304000D03*
D20*
X27559000Y-16764000D03*
D21*
X41402000Y-20193000D03*
X40767000Y-29337000D03*
X36449000Y-25400000D03*
X27940000Y-26162000D03*
X32639000Y-31623000D03*
X43180000Y-32512000D03*
X43561000Y-22860000D03*
X15240000Y-15240000D03*
X15240000Y-20320000D03*
X15240000Y-25400000D03*
X15240000Y-30480000D03*
X20320000Y-35560000D03*
X20320000Y-30480000D03*
X20320000Y-25400000D03*
X20320000Y-20320000D03*
X20320000Y-15240000D03*
X30480000Y-15240000D03*
X35560000Y-15240000D03*
X40640000Y-15240000D03*
X25400000Y-25400000D03*
X25400000Y-35560000D03*
X30480000Y-35560000D03*
X40640000Y-35560000D03*
X45720000Y-35560000D03*
X29083000Y-30099000D03*
X28321000Y-29210000D03*
X27432000Y-28321000D03*
X40767000Y-31623000D03*
X38100000Y-31623000D03*
X34671000Y-31623000D03*
X27940000Y-24130000D03*
X24130000Y-30734000D03*
X24130000Y-32766000D03*
X30734000Y-31623000D03*
X34417000Y-23495000D03*
X33528000Y-25273000D03*
X26416000Y-22479000D03*
X36449000Y-22860000D03*
X36449000Y-26670000D03*
X24003000Y-27432000D03*
X32512000Y-27432000D03*
X24003000Y-24130000D03*
X32004000Y-24638000D03*
D22*
X22107000Y-18932000D02*
X22479000Y-19304000D01*
X19558000Y-18932000D02*
X22107000Y-18932000D01*
D23*
X26171000Y-32467000D02*
X27105000Y-33401000D01*
D24*
X26171000Y-30734000D02*
X26171000Y-32467000D01*
D22*
X27940000Y-25920798D02*
X27940000Y-26180000D01*
X29436798Y-24424000D02*
X27940000Y-25920798D01*
X30529000Y-24424000D02*
X29436798Y-24424000D01*
X37425000Y-24424000D02*
X39029000Y-24424000D01*
X36449000Y-25400000D02*
X37425000Y-24424000D01*
D25*
X41489000Y-25224000D02*
X41529000Y-25264000D01*
D22*
X28446000Y-23624000D02*
X30529000Y-23624000D01*
X27940000Y-24130000D02*
X27940000Y-24130000D01*
X39069000Y-25264000D02*
X39029000Y-25224000D01*
X41529000Y-25264000D02*
X39069000Y-25264000D01*
X27940000Y-24130000D02*
X28446000Y-23624000D01*
X42229000Y-25264000D02*
X41529000Y-25264000D01*
X42683010Y-25718010D02*
X42229000Y-25264000D01*
X42683010Y-29706990D02*
X42683010Y-25718010D01*
X40767000Y-31623000D02*
X42683010Y-29706990D01*
D25*
X35979000Y-18631000D02*
X35497800Y-18149800D01*
X35979000Y-20574000D02*
X35979000Y-18631000D01*
X33513800Y-18149800D02*
X33451800Y-18211800D01*
X35497800Y-18149800D02*
X33513800Y-18149800D01*
X36779000Y-18618600D02*
X37247800Y-18149800D01*
X36779000Y-20574000D02*
X36779000Y-18618600D01*
X39231800Y-18149800D02*
X39293800Y-18211800D01*
X37247800Y-18149800D02*
X39231800Y-18149800D01*
D22*
X22361000Y-16882000D02*
X22479000Y-16764000D01*
X19558000Y-16882000D02*
X22361000Y-16882000D01*
D25*
X36779000Y-29074000D02*
X36779000Y-28213998D01*
X36410013Y-27845011D02*
X34900009Y-27845011D01*
X32802999Y-25748001D02*
X34900009Y-27845011D01*
X32802999Y-24924999D02*
X32802999Y-25748001D01*
X36779000Y-28213998D02*
X36410013Y-27845011D01*
X34232998Y-23495000D02*
X32802999Y-24924999D01*
X34417000Y-23495000D02*
X34232998Y-23495000D01*
X37368002Y-26824000D02*
X36797001Y-27395001D01*
X39029000Y-26824000D02*
X37368002Y-26824000D01*
X35650001Y-27395001D02*
X33528000Y-25273000D01*
X36797001Y-27395001D02*
X35650001Y-27395001D01*
X26383999Y-18128999D02*
X25019000Y-16764000D01*
X30164000Y-19304000D02*
X28988999Y-18128999D01*
X35179000Y-19713998D02*
X34769002Y-19304000D01*
X35179000Y-20574000D02*
X35179000Y-19713998D01*
X28988999Y-18128999D02*
X26383999Y-18128999D01*
X34769002Y-19304000D02*
X30164000Y-19304000D01*
X39029000Y-29284002D02*
X37833002Y-30480000D01*
X39029000Y-27624000D02*
X39029000Y-29284002D01*
X37833002Y-30480000D02*
X30734000Y-30480000D01*
X30651810Y-30480000D02*
X26416000Y-26244190D01*
X30734000Y-30480000D02*
X30651810Y-30480000D01*
X26416000Y-26244190D02*
X26416000Y-23241000D01*
X26416000Y-23241000D02*
X26416000Y-22987000D01*
X26416000Y-22987000D02*
X26416000Y-22479000D01*
X26416000Y-22479000D02*
X26416000Y-22479000D01*
X38993000Y-22860000D02*
X39029000Y-22824000D01*
X36449000Y-22860000D02*
X38993000Y-22860000D01*
X36049001Y-26270001D02*
X36449000Y-26670000D01*
X35723999Y-25051999D02*
X35723999Y-25944999D01*
X35723999Y-25944999D02*
X36049001Y-26270001D01*
X37151998Y-23624000D02*
X35723999Y-25051999D01*
X39029000Y-23624000D02*
X37151998Y-23624000D01*
X34379000Y-28213998D02*
X33597002Y-27432000D01*
X34379000Y-29074000D02*
X34379000Y-28213998D01*
X33597002Y-27432000D02*
X32512000Y-27432000D01*
X32512000Y-27432000D02*
X32512000Y-27432000D01*
X19685000Y-24130000D02*
X22409990Y-21405010D01*
X29479000Y-22824000D02*
X30529000Y-22824000D01*
X28060010Y-21405010D02*
X29479000Y-22824000D01*
X22409990Y-21405010D02*
X28060010Y-21405010D01*
X30476000Y-21971000D02*
X30529000Y-22024000D01*
X29479000Y-22024000D02*
X28410000Y-20955000D01*
X30529000Y-22024000D02*
X29479000Y-22024000D01*
X20701000Y-20955000D02*
X19685000Y-21971000D01*
X28410000Y-20955000D02*
X20701000Y-20955000D01*
X34379000Y-20574000D02*
X34379000Y-22263000D01*
X34379000Y-22263000D02*
X32004000Y-24638000D01*
X20184999Y-27931999D02*
X19685000Y-27432000D01*
X20960011Y-28707011D02*
X20184999Y-27931999D01*
X25960599Y-28707011D02*
X20960011Y-28707011D01*
X30400608Y-33147020D02*
X25960599Y-28707011D01*
X41100392Y-33147020D02*
X30400608Y-33147020D01*
X43712029Y-30535383D02*
X41100392Y-33147020D01*
X43712030Y-25020620D02*
X43712029Y-30535383D01*
X39265410Y-20574000D02*
X43712030Y-25020620D01*
X37579000Y-20574000D02*
X39265410Y-20574000D01*
X22343999Y-27931999D02*
X21844000Y-27432000D01*
X26146999Y-28257001D02*
X22669001Y-28257001D01*
X30587008Y-32697010D02*
X26146999Y-28257001D01*
X43262020Y-25207020D02*
X43262020Y-30348982D01*
X40913992Y-32697010D02*
X30587008Y-32697010D01*
X43262020Y-30348982D02*
X40913992Y-32697010D01*
X22669001Y-28257001D02*
X21844000Y-27432000D01*
X40079000Y-22024000D02*
X43262020Y-25207020D01*
X39029000Y-22024000D02*
X40079000Y-22024000D01*
D22*
G36*
X46755926Y-13307094D02*
G01*
X47511670Y-13520236D01*
X48215914Y-13867531D01*
X48845073Y-14337346D01*
X49378086Y-14913956D01*
X49797091Y-15578039D01*
X50088059Y-16307357D01*
X50243305Y-17087828D01*
X50267001Y-17539984D01*
X50267000Y-33249564D01*
X50192906Y-34055926D01*
X49979763Y-34811672D01*
X49632469Y-35515914D01*
X49162651Y-36145076D01*
X48586045Y-36678086D01*
X47921965Y-37097088D01*
X47192644Y-37388059D01*
X46412172Y-37543305D01*
X45960034Y-37567000D01*
X17550436Y-37567000D01*
X16744074Y-37492906D01*
X15988328Y-37279763D01*
X15284086Y-36932469D01*
X14654924Y-36462651D01*
X14121914Y-35886045D01*
X13702912Y-35221965D01*
X13411941Y-34492644D01*
X13256695Y-33712172D01*
X13235438Y-33306546D01*
X15195227Y-33306546D01*
X15245938Y-33758642D01*
X15383496Y-34192279D01*
X15602660Y-34590938D01*
X15895085Y-34939436D01*
X16249630Y-35224498D01*
X16652792Y-35435266D01*
X17089214Y-35563712D01*
X17542273Y-35604943D01*
X17994713Y-35557390D01*
X18429299Y-35422863D01*
X18829479Y-35206487D01*
X19180009Y-34916502D01*
X19467539Y-34563956D01*
X19681117Y-34162275D01*
X19812606Y-33726760D01*
X19857000Y-33274000D01*
X19856091Y-33208915D01*
X19799073Y-32757570D01*
X19655474Y-32325897D01*
X19430765Y-31930336D01*
X19133503Y-31585955D01*
X18775012Y-31305872D01*
X18368947Y-31100753D01*
X17930774Y-30978413D01*
X17477183Y-30943511D01*
X17025452Y-30997377D01*
X16592786Y-31137958D01*
X16195667Y-31359901D01*
X15849219Y-31654751D01*
X15566639Y-32011278D01*
X15358691Y-32415902D01*
X15233295Y-32853210D01*
X15195227Y-33306546D01*
X13235438Y-33306546D01*
X13233000Y-33260034D01*
X13233000Y-19507000D01*
X18092313Y-19507000D01*
X18107025Y-19656378D01*
X18150597Y-19800016D01*
X18221355Y-19932393D01*
X18316578Y-20048422D01*
X18432607Y-20143645D01*
X18564984Y-20214403D01*
X18708622Y-20257975D01*
X18858000Y-20272687D01*
X18986500Y-20269000D01*
X19177000Y-20078500D01*
X19177000Y-19253000D01*
X18286500Y-19253000D01*
X18096000Y-19443500D01*
X18092313Y-19507000D01*
X13233000Y-19507000D01*
X13233000Y-18357000D01*
X18092313Y-18357000D01*
X18096000Y-18420500D01*
X18286500Y-18611000D01*
X19177000Y-18611000D01*
X19177000Y-18531000D01*
X19939000Y-18531000D01*
X19939000Y-18611000D01*
X20829500Y-18611000D01*
X21020000Y-18420500D01*
X21023687Y-18357000D01*
X21008975Y-18207622D01*
X20965403Y-18063984D01*
X20894645Y-17931607D01*
X20799422Y-17815578D01*
X20683393Y-17720355D01*
X20601603Y-17676637D01*
X20628387Y-17644000D01*
X21444430Y-17644000D01*
X21514103Y-17728897D01*
X21714290Y-17893185D01*
X21587423Y-17960989D01*
X21342546Y-18160733D01*
X21141342Y-18404412D01*
X20991544Y-18682661D01*
X21103157Y-18922998D01*
X20867000Y-18922998D01*
X20867000Y-19290500D01*
X20829500Y-19253000D01*
X19939000Y-19253000D01*
X19939000Y-20078500D01*
X20129500Y-20269000D01*
X20258000Y-20272687D01*
X20407378Y-20257975D01*
X20551016Y-20214403D01*
X20683393Y-20143645D01*
X20799422Y-20048422D01*
X20894645Y-19932393D01*
X20965403Y-19800016D01*
X21000292Y-19685002D01*
X21103157Y-19685002D01*
X20991544Y-19925339D01*
X21141342Y-20203588D01*
X21239114Y-20322000D01*
X20732088Y-20322000D01*
X20701000Y-20318938D01*
X20669912Y-20322000D01*
X20576910Y-20331160D01*
X20457590Y-20367355D01*
X20415281Y-20389970D01*
X20347623Y-20426134D01*
X20318652Y-20449910D01*
X20251236Y-20505236D01*
X20231420Y-20529382D01*
X19795559Y-20965244D01*
X19784279Y-20963000D01*
X19585721Y-20963000D01*
X19390977Y-21001737D01*
X19207533Y-21077722D01*
X19042438Y-21188035D01*
X18902035Y-21328438D01*
X18791722Y-21493533D01*
X18715737Y-21676977D01*
X18677000Y-21871721D01*
X18677000Y-22070279D01*
X18715737Y-22265023D01*
X18791722Y-22448467D01*
X18902035Y-22613562D01*
X19042438Y-22753965D01*
X19207533Y-22864278D01*
X19390977Y-22940263D01*
X19585721Y-22979000D01*
X19784279Y-22979000D01*
X19979023Y-22940263D01*
X19979906Y-22939897D01*
X19795559Y-23124244D01*
X19784279Y-23122000D01*
X19585721Y-23122000D01*
X19390977Y-23160737D01*
X19207533Y-23236722D01*
X19042438Y-23347035D01*
X18902035Y-23487438D01*
X18791722Y-23652533D01*
X18715737Y-23835977D01*
X18677000Y-24030721D01*
X18677000Y-24229279D01*
X18715737Y-24424023D01*
X18791722Y-24607467D01*
X18902035Y-24772562D01*
X19042438Y-24912965D01*
X19207533Y-25023278D01*
X19390977Y-25099263D01*
X19585721Y-25138000D01*
X19784279Y-25138000D01*
X19979023Y-25099263D01*
X20162467Y-25023278D01*
X20327562Y-24912965D01*
X20467965Y-24772562D01*
X20578278Y-24607467D01*
X20654263Y-24424023D01*
X20693000Y-24229279D01*
X20693000Y-24030721D01*
X22995000Y-24030721D01*
X22995000Y-24229279D01*
X23033737Y-24424023D01*
X23109722Y-24607467D01*
X23220035Y-24772562D01*
X23360438Y-24912965D01*
X23525533Y-25023278D01*
X23708977Y-25099263D01*
X23903721Y-25138000D01*
X24102279Y-25138000D01*
X24297023Y-25099263D01*
X24480467Y-25023278D01*
X24645562Y-24912965D01*
X24785965Y-24772562D01*
X24896278Y-24607467D01*
X24972263Y-24424023D01*
X25011000Y-24229279D01*
X25011000Y-24030721D01*
X24972263Y-23835977D01*
X24896278Y-23652533D01*
X24785965Y-23487438D01*
X24645562Y-23347035D01*
X24480467Y-23236722D01*
X24297023Y-23160737D01*
X24102279Y-23122000D01*
X23903721Y-23122000D01*
X23708977Y-23160737D01*
X23525533Y-23236722D01*
X23360438Y-23347035D01*
X23220035Y-23487438D01*
X23109722Y-23652533D01*
X23033737Y-23835977D01*
X22995000Y-24030721D01*
X20693000Y-24030721D01*
X20690756Y-24019441D01*
X22672187Y-22038010D01*
X25618618Y-22038010D01*
X25611341Y-22048901D01*
X25542894Y-22214146D01*
X25508000Y-22389570D01*
X25508000Y-22568430D01*
X25542894Y-22743854D01*
X25611341Y-22909099D01*
X25710711Y-23057816D01*
X25783000Y-23130105D01*
X25783000Y-23272087D01*
X25783001Y-23272097D01*
X25783000Y-26213102D01*
X25779938Y-26244190D01*
X25785555Y-26301214D01*
X25792160Y-26368279D01*
X25828355Y-26487599D01*
X25887134Y-26597566D01*
X25966236Y-26693954D01*
X25990387Y-26713774D01*
X30106550Y-30829938D01*
X30091438Y-30840035D01*
X29951035Y-30980438D01*
X29876774Y-31091578D01*
X26616583Y-27831388D01*
X26596763Y-27807237D01*
X26500376Y-27728135D01*
X26390409Y-27669356D01*
X26271089Y-27633161D01*
X26178087Y-27624001D01*
X26146999Y-27620939D01*
X26115911Y-27624001D01*
X24992556Y-27624001D01*
X25011000Y-27531279D01*
X25011000Y-27332721D01*
X24972263Y-27137977D01*
X24896278Y-26954533D01*
X24785965Y-26789438D01*
X24645562Y-26649035D01*
X24480467Y-26538722D01*
X24297023Y-26462737D01*
X24102279Y-26424000D01*
X23903721Y-26424000D01*
X23708977Y-26462737D01*
X23525533Y-26538722D01*
X23360438Y-26649035D01*
X23220035Y-26789438D01*
X23109722Y-26954533D01*
X23033737Y-27137977D01*
X22995000Y-27332721D01*
X22995000Y-27531279D01*
X23013444Y-27624001D01*
X22931198Y-27624001D01*
X22849756Y-27542559D01*
X22852000Y-27531279D01*
X22852000Y-27332721D01*
X22813263Y-27137977D01*
X22737278Y-26954533D01*
X22626965Y-26789438D01*
X22486562Y-26649035D01*
X22321467Y-26538722D01*
X22138023Y-26462737D01*
X21943279Y-26424000D01*
X21744721Y-26424000D01*
X21549977Y-26462737D01*
X21366533Y-26538722D01*
X21201438Y-26649035D01*
X21061035Y-26789438D01*
X20950722Y-26954533D01*
X20874737Y-27137977D01*
X20836000Y-27332721D01*
X20836000Y-27531279D01*
X20874737Y-27726023D01*
X20875103Y-27726906D01*
X20690756Y-27542559D01*
X20693000Y-27531279D01*
X20693000Y-27332721D01*
X20654263Y-27137977D01*
X20578278Y-26954533D01*
X20467965Y-26789438D01*
X20327562Y-26649035D01*
X20162467Y-26538722D01*
X19979023Y-26462737D01*
X19784279Y-26424000D01*
X19585721Y-26424000D01*
X19390977Y-26462737D01*
X19207533Y-26538722D01*
X19042438Y-26649035D01*
X18902035Y-26789438D01*
X18791722Y-26954533D01*
X18715737Y-27137977D01*
X18677000Y-27332721D01*
X18677000Y-27531279D01*
X18715737Y-27726023D01*
X18791722Y-27909467D01*
X18902035Y-28074562D01*
X19042438Y-28214965D01*
X19207533Y-28325278D01*
X19390977Y-28401263D01*
X19585721Y-28440000D01*
X19784279Y-28440000D01*
X19795559Y-28437756D01*
X20490427Y-29132624D01*
X20510247Y-29156775D01*
X20606634Y-29235877D01*
X20716601Y-29294656D01*
X20835921Y-29330851D01*
X20928923Y-29340011D01*
X20928924Y-29340011D01*
X20960010Y-29343073D01*
X20991096Y-29340011D01*
X25277889Y-29340011D01*
X25170607Y-29397355D01*
X25054578Y-29492578D01*
X24959355Y-29608607D01*
X24915637Y-29690397D01*
X24868488Y-29651703D01*
X24737015Y-29581429D01*
X24594359Y-29538155D01*
X24446001Y-29523543D01*
X23795999Y-29523543D01*
X23647641Y-29538155D01*
X23504985Y-29581429D01*
X23373512Y-29651703D01*
X23258275Y-29746275D01*
X23163703Y-29861512D01*
X23093429Y-29992985D01*
X23050155Y-30135641D01*
X23035543Y-30283999D01*
X23035543Y-31184001D01*
X23050155Y-31332359D01*
X23093429Y-31475015D01*
X23163703Y-31606488D01*
X23239196Y-31698477D01*
X23129776Y-31788276D01*
X23035203Y-31903513D01*
X22964929Y-32034986D01*
X22921655Y-32177642D01*
X22907043Y-32326000D01*
X22907043Y-34476000D01*
X22921655Y-34624358D01*
X22964929Y-34767014D01*
X23035203Y-34898487D01*
X23129776Y-35013724D01*
X23245013Y-35108297D01*
X23376486Y-35178571D01*
X23519142Y-35221845D01*
X23667500Y-35236457D01*
X24592500Y-35236457D01*
X24740858Y-35221845D01*
X24883514Y-35178571D01*
X25014987Y-35108297D01*
X25130224Y-35013724D01*
X25224797Y-34898487D01*
X25295071Y-34767014D01*
X25307512Y-34726000D01*
X25626813Y-34726000D01*
X25641525Y-34875378D01*
X25685097Y-35019016D01*
X25755855Y-35151393D01*
X25851078Y-35267422D01*
X25967107Y-35362645D01*
X26099484Y-35433403D01*
X26243122Y-35476975D01*
X26392500Y-35491687D01*
X26533500Y-35488000D01*
X26724000Y-35297500D01*
X26724000Y-33782000D01*
X27486000Y-33782000D01*
X27486000Y-35297500D01*
X27676500Y-35488000D01*
X27817500Y-35491687D01*
X27966878Y-35476975D01*
X28110516Y-35433403D01*
X28242893Y-35362645D01*
X28261956Y-35347000D01*
X36009313Y-35347000D01*
X36024025Y-35496378D01*
X36067597Y-35640016D01*
X36138355Y-35772393D01*
X36233578Y-35888422D01*
X36349607Y-35983645D01*
X36481984Y-36054403D01*
X36625622Y-36097975D01*
X36775000Y-36112687D01*
X37528500Y-36109000D01*
X37719000Y-35918500D01*
X37719000Y-35015500D01*
X38481000Y-35015500D01*
X38481000Y-35918500D01*
X38671500Y-36109000D01*
X39425000Y-36112687D01*
X39574378Y-36097975D01*
X39718016Y-36054403D01*
X39850393Y-35983645D01*
X39966422Y-35888422D01*
X40061645Y-35772393D01*
X40132403Y-35640016D01*
X40175975Y-35496378D01*
X40190687Y-35347000D01*
X40187000Y-35206000D01*
X39996500Y-35015500D01*
X38481000Y-35015500D01*
X37719000Y-35015500D01*
X36203500Y-35015500D01*
X36013000Y-35206000D01*
X36009313Y-35347000D01*
X28261956Y-35347000D01*
X28358922Y-35267422D01*
X28454145Y-35151393D01*
X28524903Y-35019016D01*
X28568475Y-34875378D01*
X28583187Y-34726000D01*
X28579500Y-33972500D01*
X28389000Y-33782000D01*
X27486000Y-33782000D01*
X26724000Y-33782000D01*
X25821000Y-33782000D01*
X25630500Y-33972500D01*
X25626813Y-34726000D01*
X25307512Y-34726000D01*
X25338345Y-34624358D01*
X25352957Y-34476000D01*
X25352957Y-32326000D01*
X25338345Y-32177642D01*
X25329822Y-32149544D01*
X25446622Y-32184975D01*
X25596000Y-32199687D01*
X25627409Y-32197863D01*
X25630500Y-32829500D01*
X25821000Y-33020000D01*
X26724000Y-33020000D01*
X26724000Y-33000000D01*
X27486000Y-33000000D01*
X27486000Y-33020000D01*
X28389000Y-33020000D01*
X28579500Y-32829500D01*
X28582462Y-32224072D01*
X29931028Y-33572638D01*
X29950844Y-33596784D01*
X29974990Y-33616600D01*
X29974991Y-33616601D01*
X29990080Y-33628984D01*
X30047231Y-33675886D01*
X30157198Y-33734665D01*
X30255555Y-33764501D01*
X30276518Y-33770860D01*
X30400608Y-33783082D01*
X30431696Y-33780020D01*
X36023296Y-33780020D01*
X36009313Y-33922000D01*
X36013000Y-34063000D01*
X36203500Y-34253500D01*
X37719000Y-34253500D01*
X37719000Y-34233500D01*
X38481000Y-34233500D01*
X38481000Y-34253500D01*
X39996500Y-34253500D01*
X40187000Y-34063000D01*
X40190687Y-33922000D01*
X40176704Y-33780020D01*
X41069304Y-33780020D01*
X41100392Y-33783082D01*
X41131480Y-33780020D01*
X41224482Y-33770860D01*
X41343802Y-33734665D01*
X41453769Y-33675886D01*
X41550156Y-33596784D01*
X41569976Y-33572633D01*
X44107543Y-31035066D01*
X44107543Y-31635000D01*
X44122155Y-31783358D01*
X44165429Y-31926014D01*
X44235703Y-32057487D01*
X44330276Y-32172724D01*
X44445513Y-32267297D01*
X44576986Y-32337571D01*
X44719642Y-32380845D01*
X44868000Y-32395457D01*
X46318000Y-32395457D01*
X46466358Y-32380845D01*
X46609014Y-32337571D01*
X46740487Y-32267297D01*
X46855724Y-32172724D01*
X46950297Y-32057487D01*
X47020571Y-31926014D01*
X47063845Y-31783358D01*
X47078457Y-31635000D01*
X47078457Y-30435000D01*
X47063845Y-30286642D01*
X47020571Y-30143986D01*
X46950297Y-30012513D01*
X46855724Y-29897276D01*
X46740487Y-29802703D01*
X46710141Y-29786482D01*
X46762589Y-29749662D01*
X46979486Y-29522533D01*
X47147905Y-29257454D01*
X47205442Y-29156337D01*
X47087489Y-28916000D01*
X45974000Y-28916000D01*
X45974000Y-28936000D01*
X45212000Y-28936000D01*
X45212000Y-28916000D01*
X45192000Y-28916000D01*
X45192000Y-28154000D01*
X45212000Y-28154000D01*
X45212000Y-28134000D01*
X45974000Y-28134000D01*
X45974000Y-28154000D01*
X47087489Y-28154000D01*
X47205442Y-27913663D01*
X47147905Y-27812546D01*
X46979486Y-27547467D01*
X46762589Y-27320338D01*
X46509196Y-27142448D01*
X46682897Y-26999897D01*
X46852598Y-26793114D01*
X46978698Y-26557198D01*
X47056350Y-26301214D01*
X47082570Y-26035000D01*
X47056350Y-25768786D01*
X46978698Y-25512802D01*
X46852598Y-25276886D01*
X46682897Y-25070103D01*
X46476114Y-24900402D01*
X46260213Y-24785000D01*
X46476114Y-24669598D01*
X46682897Y-24499897D01*
X46852598Y-24293114D01*
X46978698Y-24057198D01*
X47056350Y-23801214D01*
X47082570Y-23535000D01*
X47056350Y-23268786D01*
X46978698Y-23012802D01*
X46852598Y-22776886D01*
X46682897Y-22570103D01*
X46476114Y-22400402D01*
X46240198Y-22274302D01*
X45984214Y-22196650D01*
X45784706Y-22177000D01*
X45401294Y-22177000D01*
X45201786Y-22196650D01*
X44945802Y-22274302D01*
X44709886Y-22400402D01*
X44503103Y-22570103D01*
X44333402Y-22776886D01*
X44207302Y-23012802D01*
X44129650Y-23268786D01*
X44103430Y-23535000D01*
X44129650Y-23801214D01*
X44207302Y-24057198D01*
X44333402Y-24293114D01*
X44503103Y-24499897D01*
X44709886Y-24669598D01*
X44925787Y-24785000D01*
X44709886Y-24900402D01*
X44503103Y-25070103D01*
X44345030Y-25262717D01*
X44345030Y-25051705D01*
X44348092Y-25020619D01*
X44342477Y-24963610D01*
X44335870Y-24896531D01*
X44299675Y-24777211D01*
X44299674Y-24777208D01*
X44240896Y-24667243D01*
X44181610Y-24595003D01*
X44161794Y-24570857D01*
X44137648Y-24551041D01*
X40963102Y-21376495D01*
X41104584Y-21425735D01*
X41350793Y-21460071D01*
X41598970Y-21445715D01*
X41839578Y-21383217D01*
X41934196Y-21344025D01*
X41969914Y-21108810D01*
X41402000Y-20540897D01*
X41292398Y-20650498D01*
X40944502Y-20302602D01*
X41054103Y-20193000D01*
X41749897Y-20193000D01*
X42317810Y-20760914D01*
X42553025Y-20725196D01*
X42634735Y-20490416D01*
X42669071Y-20244207D01*
X42654715Y-19996030D01*
X42592217Y-19755422D01*
X42553025Y-19660804D01*
X42317810Y-19625086D01*
X41749897Y-20193000D01*
X41054103Y-20193000D01*
X40486190Y-19625086D01*
X40250975Y-19660804D01*
X40169265Y-19895584D01*
X40134929Y-20141793D01*
X40149285Y-20389970D01*
X40209887Y-20623280D01*
X39734994Y-20148387D01*
X39715174Y-20124236D01*
X39618787Y-20045134D01*
X39508820Y-19986355D01*
X39389500Y-19950160D01*
X39296498Y-19941000D01*
X39265410Y-19937938D01*
X39234322Y-19941000D01*
X38364457Y-19941000D01*
X38364457Y-19774000D01*
X38354649Y-19674415D01*
X38325601Y-19578657D01*
X38278429Y-19490405D01*
X38214948Y-19413052D01*
X38137595Y-19349571D01*
X38049343Y-19302399D01*
X37953585Y-19273351D01*
X37854000Y-19263543D01*
X37412000Y-19263543D01*
X37412000Y-19160257D01*
X37822800Y-19160257D01*
X37922385Y-19150449D01*
X38018143Y-19121401D01*
X38106395Y-19074229D01*
X38183748Y-19010748D01*
X38218741Y-18968108D01*
X38306075Y-19074525D01*
X38421312Y-19169097D01*
X38552785Y-19239371D01*
X38695441Y-19282645D01*
X38843799Y-19297257D01*
X39743801Y-19297257D01*
X39892159Y-19282645D01*
X39910141Y-19277190D01*
X40834086Y-19277190D01*
X41402000Y-19845103D01*
X41969914Y-19277190D01*
X41934196Y-19041975D01*
X41699416Y-18960265D01*
X41453207Y-18925929D01*
X41205030Y-18940285D01*
X40964422Y-19002783D01*
X40869804Y-19041975D01*
X40834086Y-19277190D01*
X39910141Y-19277190D01*
X40034815Y-19239371D01*
X40166288Y-19169097D01*
X40281525Y-19074525D01*
X40376097Y-18959288D01*
X40446371Y-18827815D01*
X40489645Y-18685159D01*
X40504257Y-18536801D01*
X40504257Y-17886799D01*
X40489645Y-17738441D01*
X40446371Y-17595785D01*
X40426467Y-17558546D01*
X43643227Y-17558546D01*
X43693938Y-18010642D01*
X43831496Y-18444279D01*
X44050660Y-18842938D01*
X44343085Y-19191436D01*
X44697630Y-19476498D01*
X45100792Y-19687266D01*
X45537214Y-19815712D01*
X45990273Y-19856943D01*
X46442713Y-19809390D01*
X46877299Y-19674863D01*
X47277479Y-19458487D01*
X47628009Y-19168502D01*
X47915539Y-18815956D01*
X48129117Y-18414275D01*
X48260606Y-17978760D01*
X48305000Y-17526000D01*
X48304091Y-17460915D01*
X48247073Y-17009570D01*
X48103474Y-16577897D01*
X47878765Y-16182336D01*
X47581503Y-15837955D01*
X47223012Y-15557872D01*
X46816947Y-15352753D01*
X46378774Y-15230413D01*
X45925183Y-15195511D01*
X45473452Y-15249377D01*
X45040786Y-15389958D01*
X44643667Y-15611901D01*
X44297219Y-15906751D01*
X44014639Y-16263278D01*
X43806691Y-16667902D01*
X43681295Y-17105210D01*
X43643227Y-17558546D01*
X40426467Y-17558546D01*
X40376097Y-17464312D01*
X40337403Y-17417163D01*
X40419193Y-17373445D01*
X40535222Y-17278222D01*
X40630445Y-17162193D01*
X40701203Y-17029816D01*
X40744775Y-16886178D01*
X40759487Y-16736800D01*
X40755800Y-16673300D01*
X40565300Y-16482800D01*
X39674800Y-16482800D01*
X39674800Y-16562800D01*
X38912800Y-16562800D01*
X38912800Y-16482800D01*
X38892800Y-16482800D01*
X38892800Y-15840800D01*
X38912800Y-15840800D01*
X38912800Y-15015300D01*
X39674800Y-15015300D01*
X39674800Y-15840800D01*
X40565300Y-15840800D01*
X40755800Y-15650300D01*
X40759487Y-15586800D01*
X40744775Y-15437422D01*
X40701203Y-15293784D01*
X40630445Y-15161407D01*
X40535222Y-15045378D01*
X40419193Y-14950155D01*
X40286816Y-14879397D01*
X40143178Y-14835825D01*
X39993800Y-14821113D01*
X39865300Y-14824800D01*
X39674800Y-15015300D01*
X38912800Y-15015300D01*
X38722300Y-14824800D01*
X38593800Y-14821113D01*
X38444422Y-14835825D01*
X38300784Y-14879397D01*
X38168407Y-14950155D01*
X38052378Y-15045378D01*
X37957155Y-15161407D01*
X37886397Y-15293784D01*
X37842825Y-15437422D01*
X37828113Y-15586800D01*
X37831800Y-15650300D01*
X37934250Y-15752750D01*
X37922385Y-15749151D01*
X37822800Y-15739343D01*
X36672800Y-15739343D01*
X36573215Y-15749151D01*
X36477457Y-15778199D01*
X36389205Y-15825371D01*
X36372800Y-15838834D01*
X36356395Y-15825371D01*
X36268143Y-15778199D01*
X36172385Y-15749151D01*
X36072800Y-15739343D01*
X34922800Y-15739343D01*
X34823215Y-15749151D01*
X34811350Y-15752750D01*
X34913800Y-15650300D01*
X34917487Y-15586800D01*
X34902775Y-15437422D01*
X34859203Y-15293784D01*
X34788445Y-15161407D01*
X34693222Y-15045378D01*
X34577193Y-14950155D01*
X34444816Y-14879397D01*
X34301178Y-14835825D01*
X34151800Y-14821113D01*
X34023300Y-14824800D01*
X33832800Y-15015300D01*
X33832800Y-15840800D01*
X33852800Y-15840800D01*
X33852800Y-16482800D01*
X33832800Y-16482800D01*
X33832800Y-16562800D01*
X33070800Y-16562800D01*
X33070800Y-16482800D01*
X32180300Y-16482800D01*
X31989800Y-16673300D01*
X31986113Y-16736800D01*
X32000825Y-16886178D01*
X32044397Y-17029816D01*
X32115155Y-17162193D01*
X32210378Y-17278222D01*
X32326407Y-17373445D01*
X32408197Y-17417163D01*
X32369503Y-17464312D01*
X32299229Y-17595785D01*
X32255955Y-17738441D01*
X32241343Y-17886799D01*
X32241343Y-18536801D01*
X32254560Y-18671000D01*
X30426197Y-18671000D01*
X29458583Y-17703386D01*
X29438763Y-17679235D01*
X29342376Y-17600133D01*
X29232409Y-17541354D01*
X29113089Y-17505159D01*
X29020087Y-17495999D01*
X28988999Y-17492937D01*
X28957911Y-17495999D01*
X28919457Y-17495999D01*
X28919457Y-15914000D01*
X28909649Y-15814415D01*
X28880601Y-15718657D01*
X28833429Y-15630405D01*
X28797644Y-15586800D01*
X31986113Y-15586800D01*
X31989800Y-15650300D01*
X32180300Y-15840800D01*
X33070800Y-15840800D01*
X33070800Y-15015300D01*
X32880300Y-14824800D01*
X32751800Y-14821113D01*
X32602422Y-14835825D01*
X32458784Y-14879397D01*
X32326407Y-14950155D01*
X32210378Y-15045378D01*
X32115155Y-15161407D01*
X32044397Y-15293784D01*
X32000825Y-15437422D01*
X31986113Y-15586800D01*
X28797644Y-15586800D01*
X28769948Y-15553052D01*
X28692595Y-15489571D01*
X28604343Y-15442399D01*
X28508585Y-15413351D01*
X28409000Y-15403543D01*
X26709000Y-15403543D01*
X26609415Y-15413351D01*
X26513657Y-15442399D01*
X26425405Y-15489571D01*
X26348052Y-15553052D01*
X26284571Y-15630405D01*
X26237399Y-15718657D01*
X26208351Y-15814415D01*
X26198543Y-15914000D01*
X26198543Y-16089972D01*
X26153598Y-16005886D01*
X25983897Y-15799103D01*
X25777114Y-15629402D01*
X25541198Y-15503302D01*
X25285214Y-15425650D01*
X25085706Y-15406000D01*
X24952294Y-15406000D01*
X24752786Y-15425650D01*
X24496802Y-15503302D01*
X24260886Y-15629402D01*
X24054103Y-15799103D01*
X23884402Y-16005886D01*
X23758302Y-16241802D01*
X23749000Y-16272467D01*
X23739698Y-16241802D01*
X23613598Y-16005886D01*
X23443897Y-15799103D01*
X23237114Y-15629402D01*
X23001198Y-15503302D01*
X22745214Y-15425650D01*
X22545706Y-15406000D01*
X22412294Y-15406000D01*
X22212786Y-15425650D01*
X21956802Y-15503302D01*
X21720886Y-15629402D01*
X21514103Y-15799103D01*
X21344402Y-16005886D01*
X21283407Y-16120000D01*
X20628387Y-16120000D01*
X20545725Y-16019275D01*
X20430488Y-15924703D01*
X20299015Y-15854429D01*
X20156359Y-15811155D01*
X20008001Y-15796543D01*
X19107999Y-15796543D01*
X18959641Y-15811155D01*
X18816985Y-15854429D01*
X18685512Y-15924703D01*
X18570275Y-16019275D01*
X18475703Y-16134512D01*
X18405429Y-16265985D01*
X18362155Y-16408641D01*
X18347543Y-16556999D01*
X18347543Y-17207001D01*
X18362155Y-17355359D01*
X18405429Y-17498015D01*
X18475703Y-17629488D01*
X18514397Y-17676637D01*
X18432607Y-17720355D01*
X18316578Y-17815578D01*
X18221355Y-17931607D01*
X18150597Y-18063984D01*
X18107025Y-18207622D01*
X18092313Y-18357000D01*
X13233000Y-18357000D01*
X13233000Y-17550436D01*
X13307094Y-16744074D01*
X13520236Y-15988330D01*
X13867531Y-15284086D01*
X14337346Y-14654927D01*
X14913956Y-14121914D01*
X15578039Y-13702909D01*
X16307357Y-13411941D01*
X17087828Y-13256695D01*
X17539965Y-13233000D01*
X45949564Y-13233000D01*
X46755926Y-13307094D01*
X46755926Y-13307094D01*
G37*
X46755926Y-13307094D02*
X47511670Y-13520236D01*
X48215914Y-13867531D01*
X48845073Y-14337346D01*
X49378086Y-14913956D01*
X49797091Y-15578039D01*
X50088059Y-16307357D01*
X50243305Y-17087828D01*
X50267001Y-17539984D01*
X50267000Y-33249564D01*
X50192906Y-34055926D01*
X49979763Y-34811672D01*
X49632469Y-35515914D01*
X49162651Y-36145076D01*
X48586045Y-36678086D01*
X47921965Y-37097088D01*
X47192644Y-37388059D01*
X46412172Y-37543305D01*
X45960034Y-37567000D01*
X17550436Y-37567000D01*
X16744074Y-37492906D01*
X15988328Y-37279763D01*
X15284086Y-36932469D01*
X14654924Y-36462651D01*
X14121914Y-35886045D01*
X13702912Y-35221965D01*
X13411941Y-34492644D01*
X13256695Y-33712172D01*
X13235438Y-33306546D01*
X15195227Y-33306546D01*
X15245938Y-33758642D01*
X15383496Y-34192279D01*
X15602660Y-34590938D01*
X15895085Y-34939436D01*
X16249630Y-35224498D01*
X16652792Y-35435266D01*
X17089214Y-35563712D01*
X17542273Y-35604943D01*
X17994713Y-35557390D01*
X18429299Y-35422863D01*
X18829479Y-35206487D01*
X19180009Y-34916502D01*
X19467539Y-34563956D01*
X19681117Y-34162275D01*
X19812606Y-33726760D01*
X19857000Y-33274000D01*
X19856091Y-33208915D01*
X19799073Y-32757570D01*
X19655474Y-32325897D01*
X19430765Y-31930336D01*
X19133503Y-31585955D01*
X18775012Y-31305872D01*
X18368947Y-31100753D01*
X17930774Y-30978413D01*
X17477183Y-30943511D01*
X17025452Y-30997377D01*
X16592786Y-31137958D01*
X16195667Y-31359901D01*
X15849219Y-31654751D01*
X15566639Y-32011278D01*
X15358691Y-32415902D01*
X15233295Y-32853210D01*
X15195227Y-33306546D01*
X13235438Y-33306546D01*
X13233000Y-33260034D01*
X13233000Y-19507000D01*
X18092313Y-19507000D01*
X18107025Y-19656378D01*
X18150597Y-19800016D01*
X18221355Y-19932393D01*
X18316578Y-20048422D01*
X18432607Y-20143645D01*
X18564984Y-20214403D01*
X18708622Y-20257975D01*
X18858000Y-20272687D01*
X18986500Y-20269000D01*
X19177000Y-20078500D01*
X19177000Y-19253000D01*
X18286500Y-19253000D01*
X18096000Y-19443500D01*
X18092313Y-19507000D01*
X13233000Y-19507000D01*
X13233000Y-18357000D01*
X18092313Y-18357000D01*
X18096000Y-18420500D01*
X18286500Y-18611000D01*
X19177000Y-18611000D01*
X19177000Y-18531000D01*
X19939000Y-18531000D01*
X19939000Y-18611000D01*
X20829500Y-18611000D01*
X21020000Y-18420500D01*
X21023687Y-18357000D01*
X21008975Y-18207622D01*
X20965403Y-18063984D01*
X20894645Y-17931607D01*
X20799422Y-17815578D01*
X20683393Y-17720355D01*
X20601603Y-17676637D01*
X20628387Y-17644000D01*
X21444430Y-17644000D01*
X21514103Y-17728897D01*
X21714290Y-17893185D01*
X21587423Y-17960989D01*
X21342546Y-18160733D01*
X21141342Y-18404412D01*
X20991544Y-18682661D01*
X21103157Y-18922998D01*
X20867000Y-18922998D01*
X20867000Y-19290500D01*
X20829500Y-19253000D01*
X19939000Y-19253000D01*
X19939000Y-20078500D01*
X20129500Y-20269000D01*
X20258000Y-20272687D01*
X20407378Y-20257975D01*
X20551016Y-20214403D01*
X20683393Y-20143645D01*
X20799422Y-20048422D01*
X20894645Y-19932393D01*
X20965403Y-19800016D01*
X21000292Y-19685002D01*
X21103157Y-19685002D01*
X20991544Y-19925339D01*
X21141342Y-20203588D01*
X21239114Y-20322000D01*
X20732088Y-20322000D01*
X20701000Y-20318938D01*
X20669912Y-20322000D01*
X20576910Y-20331160D01*
X20457590Y-20367355D01*
X20415281Y-20389970D01*
X20347623Y-20426134D01*
X20318652Y-20449910D01*
X20251236Y-20505236D01*
X20231420Y-20529382D01*
X19795559Y-20965244D01*
X19784279Y-20963000D01*
X19585721Y-20963000D01*
X19390977Y-21001737D01*
X19207533Y-21077722D01*
X19042438Y-21188035D01*
X18902035Y-21328438D01*
X18791722Y-21493533D01*
X18715737Y-21676977D01*
X18677000Y-21871721D01*
X18677000Y-22070279D01*
X18715737Y-22265023D01*
X18791722Y-22448467D01*
X18902035Y-22613562D01*
X19042438Y-22753965D01*
X19207533Y-22864278D01*
X19390977Y-22940263D01*
X19585721Y-22979000D01*
X19784279Y-22979000D01*
X19979023Y-22940263D01*
X19979906Y-22939897D01*
X19795559Y-23124244D01*
X19784279Y-23122000D01*
X19585721Y-23122000D01*
X19390977Y-23160737D01*
X19207533Y-23236722D01*
X19042438Y-23347035D01*
X18902035Y-23487438D01*
X18791722Y-23652533D01*
X18715737Y-23835977D01*
X18677000Y-24030721D01*
X18677000Y-24229279D01*
X18715737Y-24424023D01*
X18791722Y-24607467D01*
X18902035Y-24772562D01*
X19042438Y-24912965D01*
X19207533Y-25023278D01*
X19390977Y-25099263D01*
X19585721Y-25138000D01*
X19784279Y-25138000D01*
X19979023Y-25099263D01*
X20162467Y-25023278D01*
X20327562Y-24912965D01*
X20467965Y-24772562D01*
X20578278Y-24607467D01*
X20654263Y-24424023D01*
X20693000Y-24229279D01*
X20693000Y-24030721D01*
X22995000Y-24030721D01*
X22995000Y-24229279D01*
X23033737Y-24424023D01*
X23109722Y-24607467D01*
X23220035Y-24772562D01*
X23360438Y-24912965D01*
X23525533Y-25023278D01*
X23708977Y-25099263D01*
X23903721Y-25138000D01*
X24102279Y-25138000D01*
X24297023Y-25099263D01*
X24480467Y-25023278D01*
X24645562Y-24912965D01*
X24785965Y-24772562D01*
X24896278Y-24607467D01*
X24972263Y-24424023D01*
X25011000Y-24229279D01*
X25011000Y-24030721D01*
X24972263Y-23835977D01*
X24896278Y-23652533D01*
X24785965Y-23487438D01*
X24645562Y-23347035D01*
X24480467Y-23236722D01*
X24297023Y-23160737D01*
X24102279Y-23122000D01*
X23903721Y-23122000D01*
X23708977Y-23160737D01*
X23525533Y-23236722D01*
X23360438Y-23347035D01*
X23220035Y-23487438D01*
X23109722Y-23652533D01*
X23033737Y-23835977D01*
X22995000Y-24030721D01*
X20693000Y-24030721D01*
X20690756Y-24019441D01*
X22672187Y-22038010D01*
X25618618Y-22038010D01*
X25611341Y-22048901D01*
X25542894Y-22214146D01*
X25508000Y-22389570D01*
X25508000Y-22568430D01*
X25542894Y-22743854D01*
X25611341Y-22909099D01*
X25710711Y-23057816D01*
X25783000Y-23130105D01*
X25783000Y-23272087D01*
X25783001Y-23272097D01*
X25783000Y-26213102D01*
X25779938Y-26244190D01*
X25785555Y-26301214D01*
X25792160Y-26368279D01*
X25828355Y-26487599D01*
X25887134Y-26597566D01*
X25966236Y-26693954D01*
X25990387Y-26713774D01*
X30106550Y-30829938D01*
X30091438Y-30840035D01*
X29951035Y-30980438D01*
X29876774Y-31091578D01*
X26616583Y-27831388D01*
X26596763Y-27807237D01*
X26500376Y-27728135D01*
X26390409Y-27669356D01*
X26271089Y-27633161D01*
X26178087Y-27624001D01*
X26146999Y-27620939D01*
X26115911Y-27624001D01*
X24992556Y-27624001D01*
X25011000Y-27531279D01*
X25011000Y-27332721D01*
X24972263Y-27137977D01*
X24896278Y-26954533D01*
X24785965Y-26789438D01*
X24645562Y-26649035D01*
X24480467Y-26538722D01*
X24297023Y-26462737D01*
X24102279Y-26424000D01*
X23903721Y-26424000D01*
X23708977Y-26462737D01*
X23525533Y-26538722D01*
X23360438Y-26649035D01*
X23220035Y-26789438D01*
X23109722Y-26954533D01*
X23033737Y-27137977D01*
X22995000Y-27332721D01*
X22995000Y-27531279D01*
X23013444Y-27624001D01*
X22931198Y-27624001D01*
X22849756Y-27542559D01*
X22852000Y-27531279D01*
X22852000Y-27332721D01*
X22813263Y-27137977D01*
X22737278Y-26954533D01*
X22626965Y-26789438D01*
X22486562Y-26649035D01*
X22321467Y-26538722D01*
X22138023Y-26462737D01*
X21943279Y-26424000D01*
X21744721Y-26424000D01*
X21549977Y-26462737D01*
X21366533Y-26538722D01*
X21201438Y-26649035D01*
X21061035Y-26789438D01*
X20950722Y-26954533D01*
X20874737Y-27137977D01*
X20836000Y-27332721D01*
X20836000Y-27531279D01*
X20874737Y-27726023D01*
X20875103Y-27726906D01*
X20690756Y-27542559D01*
X20693000Y-27531279D01*
X20693000Y-27332721D01*
X20654263Y-27137977D01*
X20578278Y-26954533D01*
X20467965Y-26789438D01*
X20327562Y-26649035D01*
X20162467Y-26538722D01*
X19979023Y-26462737D01*
X19784279Y-26424000D01*
X19585721Y-26424000D01*
X19390977Y-26462737D01*
X19207533Y-26538722D01*
X19042438Y-26649035D01*
X18902035Y-26789438D01*
X18791722Y-26954533D01*
X18715737Y-27137977D01*
X18677000Y-27332721D01*
X18677000Y-27531279D01*
X18715737Y-27726023D01*
X18791722Y-27909467D01*
X18902035Y-28074562D01*
X19042438Y-28214965D01*
X19207533Y-28325278D01*
X19390977Y-28401263D01*
X19585721Y-28440000D01*
X19784279Y-28440000D01*
X19795559Y-28437756D01*
X20490427Y-29132624D01*
X20510247Y-29156775D01*
X20606634Y-29235877D01*
X20716601Y-29294656D01*
X20835921Y-29330851D01*
X20928923Y-29340011D01*
X20928924Y-29340011D01*
X20960010Y-29343073D01*
X20991096Y-29340011D01*
X25277889Y-29340011D01*
X25170607Y-29397355D01*
X25054578Y-29492578D01*
X24959355Y-29608607D01*
X24915637Y-29690397D01*
X24868488Y-29651703D01*
X24737015Y-29581429D01*
X24594359Y-29538155D01*
X24446001Y-29523543D01*
X23795999Y-29523543D01*
X23647641Y-29538155D01*
X23504985Y-29581429D01*
X23373512Y-29651703D01*
X23258275Y-29746275D01*
X23163703Y-29861512D01*
X23093429Y-29992985D01*
X23050155Y-30135641D01*
X23035543Y-30283999D01*
X23035543Y-31184001D01*
X23050155Y-31332359D01*
X23093429Y-31475015D01*
X23163703Y-31606488D01*
X23239196Y-31698477D01*
X23129776Y-31788276D01*
X23035203Y-31903513D01*
X22964929Y-32034986D01*
X22921655Y-32177642D01*
X22907043Y-32326000D01*
X22907043Y-34476000D01*
X22921655Y-34624358D01*
X22964929Y-34767014D01*
X23035203Y-34898487D01*
X23129776Y-35013724D01*
X23245013Y-35108297D01*
X23376486Y-35178571D01*
X23519142Y-35221845D01*
X23667500Y-35236457D01*
X24592500Y-35236457D01*
X24740858Y-35221845D01*
X24883514Y-35178571D01*
X25014987Y-35108297D01*
X25130224Y-35013724D01*
X25224797Y-34898487D01*
X25295071Y-34767014D01*
X25307512Y-34726000D01*
X25626813Y-34726000D01*
X25641525Y-34875378D01*
X25685097Y-35019016D01*
X25755855Y-35151393D01*
X25851078Y-35267422D01*
X25967107Y-35362645D01*
X26099484Y-35433403D01*
X26243122Y-35476975D01*
X26392500Y-35491687D01*
X26533500Y-35488000D01*
X26724000Y-35297500D01*
X26724000Y-33782000D01*
X27486000Y-33782000D01*
X27486000Y-35297500D01*
X27676500Y-35488000D01*
X27817500Y-35491687D01*
X27966878Y-35476975D01*
X28110516Y-35433403D01*
X28242893Y-35362645D01*
X28261956Y-35347000D01*
X36009313Y-35347000D01*
X36024025Y-35496378D01*
X36067597Y-35640016D01*
X36138355Y-35772393D01*
X36233578Y-35888422D01*
X36349607Y-35983645D01*
X36481984Y-36054403D01*
X36625622Y-36097975D01*
X36775000Y-36112687D01*
X37528500Y-36109000D01*
X37719000Y-35918500D01*
X37719000Y-35015500D01*
X38481000Y-35015500D01*
X38481000Y-35918500D01*
X38671500Y-36109000D01*
X39425000Y-36112687D01*
X39574378Y-36097975D01*
X39718016Y-36054403D01*
X39850393Y-35983645D01*
X39966422Y-35888422D01*
X40061645Y-35772393D01*
X40132403Y-35640016D01*
X40175975Y-35496378D01*
X40190687Y-35347000D01*
X40187000Y-35206000D01*
X39996500Y-35015500D01*
X38481000Y-35015500D01*
X37719000Y-35015500D01*
X36203500Y-35015500D01*
X36013000Y-35206000D01*
X36009313Y-35347000D01*
X28261956Y-35347000D01*
X28358922Y-35267422D01*
X28454145Y-35151393D01*
X28524903Y-35019016D01*
X28568475Y-34875378D01*
X28583187Y-34726000D01*
X28579500Y-33972500D01*
X28389000Y-33782000D01*
X27486000Y-33782000D01*
X26724000Y-33782000D01*
X25821000Y-33782000D01*
X25630500Y-33972500D01*
X25626813Y-34726000D01*
X25307512Y-34726000D01*
X25338345Y-34624358D01*
X25352957Y-34476000D01*
X25352957Y-32326000D01*
X25338345Y-32177642D01*
X25329822Y-32149544D01*
X25446622Y-32184975D01*
X25596000Y-32199687D01*
X25627409Y-32197863D01*
X25630500Y-32829500D01*
X25821000Y-33020000D01*
X26724000Y-33020000D01*
X26724000Y-33000000D01*
X27486000Y-33000000D01*
X27486000Y-33020000D01*
X28389000Y-33020000D01*
X28579500Y-32829500D01*
X28582462Y-32224072D01*
X29931028Y-33572638D01*
X29950844Y-33596784D01*
X29974990Y-33616600D01*
X29974991Y-33616601D01*
X29990080Y-33628984D01*
X30047231Y-33675886D01*
X30157198Y-33734665D01*
X30255555Y-33764501D01*
X30276518Y-33770860D01*
X30400608Y-33783082D01*
X30431696Y-33780020D01*
X36023296Y-33780020D01*
X36009313Y-33922000D01*
X36013000Y-34063000D01*
X36203500Y-34253500D01*
X37719000Y-34253500D01*
X37719000Y-34233500D01*
X38481000Y-34233500D01*
X38481000Y-34253500D01*
X39996500Y-34253500D01*
X40187000Y-34063000D01*
X40190687Y-33922000D01*
X40176704Y-33780020D01*
X41069304Y-33780020D01*
X41100392Y-33783082D01*
X41131480Y-33780020D01*
X41224482Y-33770860D01*
X41343802Y-33734665D01*
X41453769Y-33675886D01*
X41550156Y-33596784D01*
X41569976Y-33572633D01*
X44107543Y-31035066D01*
X44107543Y-31635000D01*
X44122155Y-31783358D01*
X44165429Y-31926014D01*
X44235703Y-32057487D01*
X44330276Y-32172724D01*
X44445513Y-32267297D01*
X44576986Y-32337571D01*
X44719642Y-32380845D01*
X44868000Y-32395457D01*
X46318000Y-32395457D01*
X46466358Y-32380845D01*
X46609014Y-32337571D01*
X46740487Y-32267297D01*
X46855724Y-32172724D01*
X46950297Y-32057487D01*
X47020571Y-31926014D01*
X47063845Y-31783358D01*
X47078457Y-31635000D01*
X47078457Y-30435000D01*
X47063845Y-30286642D01*
X47020571Y-30143986D01*
X46950297Y-30012513D01*
X46855724Y-29897276D01*
X46740487Y-29802703D01*
X46710141Y-29786482D01*
X46762589Y-29749662D01*
X46979486Y-29522533D01*
X47147905Y-29257454D01*
X47205442Y-29156337D01*
X47087489Y-28916000D01*
X45974000Y-28916000D01*
X45974000Y-28936000D01*
X45212000Y-28936000D01*
X45212000Y-28916000D01*
X45192000Y-28916000D01*
X45192000Y-28154000D01*
X45212000Y-28154000D01*
X45212000Y-28134000D01*
X45974000Y-28134000D01*
X45974000Y-28154000D01*
X47087489Y-28154000D01*
X47205442Y-27913663D01*
X47147905Y-27812546D01*
X46979486Y-27547467D01*
X46762589Y-27320338D01*
X46509196Y-27142448D01*
X46682897Y-26999897D01*
X46852598Y-26793114D01*
X46978698Y-26557198D01*
X47056350Y-26301214D01*
X47082570Y-26035000D01*
X47056350Y-25768786D01*
X46978698Y-25512802D01*
X46852598Y-25276886D01*
X46682897Y-25070103D01*
X46476114Y-24900402D01*
X46260213Y-24785000D01*
X46476114Y-24669598D01*
X46682897Y-24499897D01*
X46852598Y-24293114D01*
X46978698Y-24057198D01*
X47056350Y-23801214D01*
X47082570Y-23535000D01*
X47056350Y-23268786D01*
X46978698Y-23012802D01*
X46852598Y-22776886D01*
X46682897Y-22570103D01*
X46476114Y-22400402D01*
X46240198Y-22274302D01*
X45984214Y-22196650D01*
X45784706Y-22177000D01*
X45401294Y-22177000D01*
X45201786Y-22196650D01*
X44945802Y-22274302D01*
X44709886Y-22400402D01*
X44503103Y-22570103D01*
X44333402Y-22776886D01*
X44207302Y-23012802D01*
X44129650Y-23268786D01*
X44103430Y-23535000D01*
X44129650Y-23801214D01*
X44207302Y-24057198D01*
X44333402Y-24293114D01*
X44503103Y-24499897D01*
X44709886Y-24669598D01*
X44925787Y-24785000D01*
X44709886Y-24900402D01*
X44503103Y-25070103D01*
X44345030Y-25262717D01*
X44345030Y-25051705D01*
X44348092Y-25020619D01*
X44342477Y-24963610D01*
X44335870Y-24896531D01*
X44299675Y-24777211D01*
X44299674Y-24777208D01*
X44240896Y-24667243D01*
X44181610Y-24595003D01*
X44161794Y-24570857D01*
X44137648Y-24551041D01*
X40963102Y-21376495D01*
X41104584Y-21425735D01*
X41350793Y-21460071D01*
X41598970Y-21445715D01*
X41839578Y-21383217D01*
X41934196Y-21344025D01*
X41969914Y-21108810D01*
X41402000Y-20540897D01*
X41292398Y-20650498D01*
X40944502Y-20302602D01*
X41054103Y-20193000D01*
X41749897Y-20193000D01*
X42317810Y-20760914D01*
X42553025Y-20725196D01*
X42634735Y-20490416D01*
X42669071Y-20244207D01*
X42654715Y-19996030D01*
X42592217Y-19755422D01*
X42553025Y-19660804D01*
X42317810Y-19625086D01*
X41749897Y-20193000D01*
X41054103Y-20193000D01*
X40486190Y-19625086D01*
X40250975Y-19660804D01*
X40169265Y-19895584D01*
X40134929Y-20141793D01*
X40149285Y-20389970D01*
X40209887Y-20623280D01*
X39734994Y-20148387D01*
X39715174Y-20124236D01*
X39618787Y-20045134D01*
X39508820Y-19986355D01*
X39389500Y-19950160D01*
X39296498Y-19941000D01*
X39265410Y-19937938D01*
X39234322Y-19941000D01*
X38364457Y-19941000D01*
X38364457Y-19774000D01*
X38354649Y-19674415D01*
X38325601Y-19578657D01*
X38278429Y-19490405D01*
X38214948Y-19413052D01*
X38137595Y-19349571D01*
X38049343Y-19302399D01*
X37953585Y-19273351D01*
X37854000Y-19263543D01*
X37412000Y-19263543D01*
X37412000Y-19160257D01*
X37822800Y-19160257D01*
X37922385Y-19150449D01*
X38018143Y-19121401D01*
X38106395Y-19074229D01*
X38183748Y-19010748D01*
X38218741Y-18968108D01*
X38306075Y-19074525D01*
X38421312Y-19169097D01*
X38552785Y-19239371D01*
X38695441Y-19282645D01*
X38843799Y-19297257D01*
X39743801Y-19297257D01*
X39892159Y-19282645D01*
X39910141Y-19277190D01*
X40834086Y-19277190D01*
X41402000Y-19845103D01*
X41969914Y-19277190D01*
X41934196Y-19041975D01*
X41699416Y-18960265D01*
X41453207Y-18925929D01*
X41205030Y-18940285D01*
X40964422Y-19002783D01*
X40869804Y-19041975D01*
X40834086Y-19277190D01*
X39910141Y-19277190D01*
X40034815Y-19239371D01*
X40166288Y-19169097D01*
X40281525Y-19074525D01*
X40376097Y-18959288D01*
X40446371Y-18827815D01*
X40489645Y-18685159D01*
X40504257Y-18536801D01*
X40504257Y-17886799D01*
X40489645Y-17738441D01*
X40446371Y-17595785D01*
X40426467Y-17558546D01*
X43643227Y-17558546D01*
X43693938Y-18010642D01*
X43831496Y-18444279D01*
X44050660Y-18842938D01*
X44343085Y-19191436D01*
X44697630Y-19476498D01*
X45100792Y-19687266D01*
X45537214Y-19815712D01*
X45990273Y-19856943D01*
X46442713Y-19809390D01*
X46877299Y-19674863D01*
X47277479Y-19458487D01*
X47628009Y-19168502D01*
X47915539Y-18815956D01*
X48129117Y-18414275D01*
X48260606Y-17978760D01*
X48305000Y-17526000D01*
X48304091Y-17460915D01*
X48247073Y-17009570D01*
X48103474Y-16577897D01*
X47878765Y-16182336D01*
X47581503Y-15837955D01*
X47223012Y-15557872D01*
X46816947Y-15352753D01*
X46378774Y-15230413D01*
X45925183Y-15195511D01*
X45473452Y-15249377D01*
X45040786Y-15389958D01*
X44643667Y-15611901D01*
X44297219Y-15906751D01*
X44014639Y-16263278D01*
X43806691Y-16667902D01*
X43681295Y-17105210D01*
X43643227Y-17558546D01*
X40426467Y-17558546D01*
X40376097Y-17464312D01*
X40337403Y-17417163D01*
X40419193Y-17373445D01*
X40535222Y-17278222D01*
X40630445Y-17162193D01*
X40701203Y-17029816D01*
X40744775Y-16886178D01*
X40759487Y-16736800D01*
X40755800Y-16673300D01*
X40565300Y-16482800D01*
X39674800Y-16482800D01*
X39674800Y-16562800D01*
X38912800Y-16562800D01*
X38912800Y-16482800D01*
X38892800Y-16482800D01*
X38892800Y-15840800D01*
X38912800Y-15840800D01*
X38912800Y-15015300D01*
X39674800Y-15015300D01*
X39674800Y-15840800D01*
X40565300Y-15840800D01*
X40755800Y-15650300D01*
X40759487Y-15586800D01*
X40744775Y-15437422D01*
X40701203Y-15293784D01*
X40630445Y-15161407D01*
X40535222Y-15045378D01*
X40419193Y-14950155D01*
X40286816Y-14879397D01*
X40143178Y-14835825D01*
X39993800Y-14821113D01*
X39865300Y-14824800D01*
X39674800Y-15015300D01*
X38912800Y-15015300D01*
X38722300Y-14824800D01*
X38593800Y-14821113D01*
X38444422Y-14835825D01*
X38300784Y-14879397D01*
X38168407Y-14950155D01*
X38052378Y-15045378D01*
X37957155Y-15161407D01*
X37886397Y-15293784D01*
X37842825Y-15437422D01*
X37828113Y-15586800D01*
X37831800Y-15650300D01*
X37934250Y-15752750D01*
X37922385Y-15749151D01*
X37822800Y-15739343D01*
X36672800Y-15739343D01*
X36573215Y-15749151D01*
X36477457Y-15778199D01*
X36389205Y-15825371D01*
X36372800Y-15838834D01*
X36356395Y-15825371D01*
X36268143Y-15778199D01*
X36172385Y-15749151D01*
X36072800Y-15739343D01*
X34922800Y-15739343D01*
X34823215Y-15749151D01*
X34811350Y-15752750D01*
X34913800Y-15650300D01*
X34917487Y-15586800D01*
X34902775Y-15437422D01*
X34859203Y-15293784D01*
X34788445Y-15161407D01*
X34693222Y-15045378D01*
X34577193Y-14950155D01*
X34444816Y-14879397D01*
X34301178Y-14835825D01*
X34151800Y-14821113D01*
X34023300Y-14824800D01*
X33832800Y-15015300D01*
X33832800Y-15840800D01*
X33852800Y-15840800D01*
X33852800Y-16482800D01*
X33832800Y-16482800D01*
X33832800Y-16562800D01*
X33070800Y-16562800D01*
X33070800Y-16482800D01*
X32180300Y-16482800D01*
X31989800Y-16673300D01*
X31986113Y-16736800D01*
X32000825Y-16886178D01*
X32044397Y-17029816D01*
X32115155Y-17162193D01*
X32210378Y-17278222D01*
X32326407Y-17373445D01*
X32408197Y-17417163D01*
X32369503Y-17464312D01*
X32299229Y-17595785D01*
X32255955Y-17738441D01*
X32241343Y-17886799D01*
X32241343Y-18536801D01*
X32254560Y-18671000D01*
X30426197Y-18671000D01*
X29458583Y-17703386D01*
X29438763Y-17679235D01*
X29342376Y-17600133D01*
X29232409Y-17541354D01*
X29113089Y-17505159D01*
X29020087Y-17495999D01*
X28988999Y-17492937D01*
X28957911Y-17495999D01*
X28919457Y-17495999D01*
X28919457Y-15914000D01*
X28909649Y-15814415D01*
X28880601Y-15718657D01*
X28833429Y-15630405D01*
X28797644Y-15586800D01*
X31986113Y-15586800D01*
X31989800Y-15650300D01*
X32180300Y-15840800D01*
X33070800Y-15840800D01*
X33070800Y-15015300D01*
X32880300Y-14824800D01*
X32751800Y-14821113D01*
X32602422Y-14835825D01*
X32458784Y-14879397D01*
X32326407Y-14950155D01*
X32210378Y-15045378D01*
X32115155Y-15161407D01*
X32044397Y-15293784D01*
X32000825Y-15437422D01*
X31986113Y-15586800D01*
X28797644Y-15586800D01*
X28769948Y-15553052D01*
X28692595Y-15489571D01*
X28604343Y-15442399D01*
X28508585Y-15413351D01*
X28409000Y-15403543D01*
X26709000Y-15403543D01*
X26609415Y-15413351D01*
X26513657Y-15442399D01*
X26425405Y-15489571D01*
X26348052Y-15553052D01*
X26284571Y-15630405D01*
X26237399Y-15718657D01*
X26208351Y-15814415D01*
X26198543Y-15914000D01*
X26198543Y-16089972D01*
X26153598Y-16005886D01*
X25983897Y-15799103D01*
X25777114Y-15629402D01*
X25541198Y-15503302D01*
X25285214Y-15425650D01*
X25085706Y-15406000D01*
X24952294Y-15406000D01*
X24752786Y-15425650D01*
X24496802Y-15503302D01*
X24260886Y-15629402D01*
X24054103Y-15799103D01*
X23884402Y-16005886D01*
X23758302Y-16241802D01*
X23749000Y-16272467D01*
X23739698Y-16241802D01*
X23613598Y-16005886D01*
X23443897Y-15799103D01*
X23237114Y-15629402D01*
X23001198Y-15503302D01*
X22745214Y-15425650D01*
X22545706Y-15406000D01*
X22412294Y-15406000D01*
X22212786Y-15425650D01*
X21956802Y-15503302D01*
X21720886Y-15629402D01*
X21514103Y-15799103D01*
X21344402Y-16005886D01*
X21283407Y-16120000D01*
X20628387Y-16120000D01*
X20545725Y-16019275D01*
X20430488Y-15924703D01*
X20299015Y-15854429D01*
X20156359Y-15811155D01*
X20008001Y-15796543D01*
X19107999Y-15796543D01*
X18959641Y-15811155D01*
X18816985Y-15854429D01*
X18685512Y-15924703D01*
X18570275Y-16019275D01*
X18475703Y-16134512D01*
X18405429Y-16265985D01*
X18362155Y-16408641D01*
X18347543Y-16556999D01*
X18347543Y-17207001D01*
X18362155Y-17355359D01*
X18405429Y-17498015D01*
X18475703Y-17629488D01*
X18514397Y-17676637D01*
X18432607Y-17720355D01*
X18316578Y-17815578D01*
X18221355Y-17931607D01*
X18150597Y-18063984D01*
X18107025Y-18207622D01*
X18092313Y-18357000D01*
X13233000Y-18357000D01*
X13233000Y-17550436D01*
X13307094Y-16744074D01*
X13520236Y-15988330D01*
X13867531Y-15284086D01*
X14337346Y-14654927D01*
X14913956Y-14121914D01*
X15578039Y-13702909D01*
X16307357Y-13411941D01*
X17087828Y-13256695D01*
X17539965Y-13233000D01*
X45949564Y-13233000D01*
X46755926Y-13307094D01*
G36*
X32960000Y-31242000D02*
G01*
X33040000Y-31242000D01*
X33040000Y-32004000D01*
X32960000Y-32004000D01*
X32960000Y-32024000D01*
X32318000Y-32024000D01*
X32318000Y-32004000D01*
X32238000Y-32004000D01*
X32238000Y-31242000D01*
X32318000Y-31242000D01*
X32318000Y-31222000D01*
X32960000Y-31222000D01*
X32960000Y-31242000D01*
X32960000Y-31242000D01*
G37*
X32960000Y-31242000D02*
X33040000Y-31242000D01*
X33040000Y-32004000D01*
X32960000Y-32004000D01*
X32960000Y-32024000D01*
X32318000Y-32024000D01*
X32318000Y-32004000D01*
X32238000Y-32004000D01*
X32238000Y-31242000D01*
X32318000Y-31242000D01*
X32318000Y-31222000D01*
X32960000Y-31222000D01*
X32960000Y-31242000D01*
G36*
X26492000Y-30353000D02*
G01*
X26572000Y-30353000D01*
X26572000Y-31115000D01*
X26492000Y-31115000D01*
X26492000Y-31135000D01*
X25850000Y-31135000D01*
X25850000Y-31115000D01*
X25770000Y-31115000D01*
X25770000Y-30353000D01*
X25850000Y-30353000D01*
X25850000Y-30333000D01*
X26492000Y-30333000D01*
X26492000Y-30353000D01*
X26492000Y-30353000D01*
G37*
X26492000Y-30353000D02*
X26572000Y-30353000D01*
X26572000Y-31115000D01*
X26492000Y-31115000D01*
X26492000Y-31135000D01*
X25850000Y-31135000D01*
X25850000Y-31115000D01*
X25770000Y-31115000D01*
X25770000Y-30353000D01*
X25850000Y-30353000D01*
X25850000Y-30333000D01*
X26492000Y-30333000D01*
X26492000Y-30353000D01*
G36*
X41910000Y-26993000D02*
G01*
X41921011Y-26993000D01*
X41921011Y-27635000D01*
X41910000Y-27635000D01*
X41910000Y-28460500D01*
X41921010Y-28471510D01*
X41921010Y-29391359D01*
X40697370Y-30615000D01*
X40667721Y-30615000D01*
X40472977Y-30653737D01*
X40289533Y-30729722D01*
X40124438Y-30840035D01*
X39984035Y-30980438D01*
X39923108Y-31071621D01*
X39920845Y-31048642D01*
X39877571Y-30905986D01*
X39807297Y-30774513D01*
X39712724Y-30659276D01*
X39597487Y-30564703D01*
X39466014Y-30494429D01*
X39323358Y-30451155D01*
X39175000Y-30436543D01*
X38771656Y-30436543D01*
X39454613Y-29753586D01*
X39478764Y-29733766D01*
X39557866Y-29637379D01*
X39616645Y-29527412D01*
X39652840Y-29408092D01*
X39659244Y-29343073D01*
X39665062Y-29284002D01*
X39662000Y-29252914D01*
X39662000Y-28409457D01*
X39829000Y-28409457D01*
X39928585Y-28399649D01*
X40024343Y-28370601D01*
X40112595Y-28323429D01*
X40171393Y-28275176D01*
X40192355Y-28314393D01*
X40287578Y-28430422D01*
X40403607Y-28525645D01*
X40535984Y-28596403D01*
X40679622Y-28639975D01*
X40829000Y-28654687D01*
X40957500Y-28651000D01*
X41148000Y-28460500D01*
X41148000Y-27635000D01*
X41128000Y-27635000D01*
X41128000Y-26993000D01*
X41148000Y-26993000D01*
X41148000Y-26913000D01*
X41910000Y-26913000D01*
X41910000Y-26993000D01*
X41910000Y-26993000D01*
G37*
X41910000Y-26993000D02*
X41921011Y-26993000D01*
X41921011Y-27635000D01*
X41910000Y-27635000D01*
X41910000Y-28460500D01*
X41921010Y-28471510D01*
X41921010Y-29391359D01*
X40697370Y-30615000D01*
X40667721Y-30615000D01*
X40472977Y-30653737D01*
X40289533Y-30729722D01*
X40124438Y-30840035D01*
X39984035Y-30980438D01*
X39923108Y-31071621D01*
X39920845Y-31048642D01*
X39877571Y-30905986D01*
X39807297Y-30774513D01*
X39712724Y-30659276D01*
X39597487Y-30564703D01*
X39466014Y-30494429D01*
X39323358Y-30451155D01*
X39175000Y-30436543D01*
X38771656Y-30436543D01*
X39454613Y-29753586D01*
X39478764Y-29733766D01*
X39557866Y-29637379D01*
X39616645Y-29527412D01*
X39652840Y-29408092D01*
X39659244Y-29343073D01*
X39665062Y-29284002D01*
X39662000Y-29252914D01*
X39662000Y-28409457D01*
X39829000Y-28409457D01*
X39928585Y-28399649D01*
X40024343Y-28370601D01*
X40112595Y-28323429D01*
X40171393Y-28275176D01*
X40192355Y-28314393D01*
X40287578Y-28430422D01*
X40403607Y-28525645D01*
X40535984Y-28596403D01*
X40679622Y-28639975D01*
X40829000Y-28654687D01*
X40957500Y-28651000D01*
X41148000Y-28460500D01*
X41148000Y-27635000D01*
X41128000Y-27635000D01*
X41128000Y-26993000D01*
X41148000Y-26993000D01*
X41148000Y-26913000D01*
X41910000Y-26913000D01*
X41910000Y-26993000D01*
G36*
X28321000Y-25859000D02*
G01*
X28341000Y-25859000D01*
X28341000Y-26501000D01*
X28321000Y-26501000D01*
X28321000Y-26581000D01*
X27648007Y-26581000D01*
X27539000Y-26471993D01*
X27539000Y-25859000D01*
X27559000Y-25859000D01*
X27559000Y-25779000D01*
X28321000Y-25779000D01*
X28321000Y-25859000D01*
X28321000Y-25859000D01*
G37*
X28321000Y-25859000D02*
X28341000Y-25859000D01*
X28341000Y-26501000D01*
X28321000Y-26501000D01*
X28321000Y-26581000D01*
X27648007Y-26581000D01*
X27539000Y-26471993D01*
X27539000Y-25859000D01*
X27559000Y-25859000D01*
X27559000Y-25779000D01*
X28321000Y-25779000D01*
X28321000Y-25859000D01*
G36*
X37657500Y-24403000D02*
G01*
X38163439Y-24403000D01*
X38229000Y-24409457D01*
X39430000Y-24409457D01*
X39430000Y-24438543D01*
X38229000Y-24438543D01*
X38163439Y-24445000D01*
X37657500Y-24445000D01*
X37467000Y-24635500D01*
X37463313Y-24699000D01*
X37478025Y-24848378D01*
X37521597Y-24992016D01*
X37592355Y-25124393D01*
X37687578Y-25240422D01*
X37718543Y-25265834D01*
X37718543Y-25499000D01*
X37728351Y-25598585D01*
X37736061Y-25624000D01*
X37728351Y-25649415D01*
X37718543Y-25749000D01*
X37718543Y-26191000D01*
X37399087Y-26191000D01*
X37368001Y-26187938D01*
X37336915Y-26191000D01*
X37336914Y-26191000D01*
X37243912Y-26200160D01*
X37229937Y-26204399D01*
X37154289Y-26091184D01*
X37027816Y-25964711D01*
X36879099Y-25865341D01*
X36713854Y-25796894D01*
X36538430Y-25762000D01*
X36436196Y-25762000D01*
X36356999Y-25682803D01*
X36356999Y-25314196D01*
X37414195Y-24257000D01*
X37511500Y-24257000D01*
X37657500Y-24403000D01*
X37657500Y-24403000D01*
G37*
X37657500Y-24403000D02*
X38163439Y-24403000D01*
X38229000Y-24409457D01*
X39430000Y-24409457D01*
X39430000Y-24438543D01*
X38229000Y-24438543D01*
X38163439Y-24445000D01*
X37657500Y-24445000D01*
X37467000Y-24635500D01*
X37463313Y-24699000D01*
X37478025Y-24848378D01*
X37521597Y-24992016D01*
X37592355Y-25124393D01*
X37687578Y-25240422D01*
X37718543Y-25265834D01*
X37718543Y-25499000D01*
X37728351Y-25598585D01*
X37736061Y-25624000D01*
X37728351Y-25649415D01*
X37718543Y-25749000D01*
X37718543Y-26191000D01*
X37399087Y-26191000D01*
X37368001Y-26187938D01*
X37336915Y-26191000D01*
X37336914Y-26191000D01*
X37243912Y-26200160D01*
X37229937Y-26204399D01*
X37154289Y-26091184D01*
X37027816Y-25964711D01*
X36879099Y-25865341D01*
X36713854Y-25796894D01*
X36538430Y-25762000D01*
X36436196Y-25762000D01*
X36356999Y-25682803D01*
X36356999Y-25314196D01*
X37414195Y-24257000D01*
X37511500Y-24257000D01*
X37657500Y-24403000D01*
G36*
X30930000Y-24438543D02*
G01*
X30128000Y-24438543D01*
X30128000Y-24409457D01*
X30930000Y-24409457D01*
X30930000Y-24438543D01*
X30930000Y-24438543D01*
G37*
X30930000Y-24438543D02*
X30128000Y-24438543D01*
X30128000Y-24409457D01*
X30930000Y-24409457D01*
X30930000Y-24438543D01*
G36*
X22860000Y-18923000D02*
G01*
X22880000Y-18923000D01*
X22880000Y-19685000D01*
X22860000Y-19685000D01*
X22860000Y-19705000D01*
X22098000Y-19705000D01*
X22098000Y-19685000D01*
X22078000Y-19685000D01*
X22078000Y-18923000D01*
X22098000Y-18923000D01*
X22098000Y-18903000D01*
X22860000Y-18903000D01*
X22860000Y-18923000D01*
X22860000Y-18923000D01*
G37*
X22860000Y-18923000D02*
X22880000Y-18923000D01*
X22880000Y-19685000D01*
X22860000Y-19685000D01*
X22860000Y-19705000D01*
X22098000Y-19705000D01*
X22098000Y-19685000D01*
X22078000Y-19685000D01*
X22078000Y-18923000D01*
X22098000Y-18923000D01*
X22098000Y-18903000D01*
X22860000Y-18903000D01*
X22860000Y-18923000D01*
M02*
