M48
; DRILL file {KiCad (5.1.4)-1} date 2020-03-24 4:39:47 PM
; FORMAT={-:-/ absolute / inch / decimal}
; #@! TF.CreationDate,2020-03-24T16:39:47-06:00
; #@! TF.GenerationSoftware,Kicad,Pcbnew,(5.1.4)-1
; #@! TF.FileFunction,Plated,1,2,PTH
FMAT,2
INCH
T1C0.0157
T2C0.0374
T3C0.0394
T4C0.0400
T5C0.1200
%
G90
G05
T1
X4.503Y-4.218
X4.652Y-3.983
X4.866Y-3.597
X4.982Y-3.625
X5.183Y-3.426
X5.196Y-4.523
X5.5Y-3.593
X5.617Y-4.271
X5.651Y-4.131
X5.674Y-4.394
X5.689Y-4.297
X5.815Y-4.098
X5.85Y-4.175
X5.871Y-4.007
X5.892Y-4.089
X5.9Y-4.175
X5.919Y-3.988
X5.933Y-3.203
X5.95Y-3.73
X5.9672Y-3.9978
X5.994Y-4.771
X6.0Y-4.175
X6.014Y-3.122
X6.2Y-4.403
X6.252Y-4.473
X6.273Y-4.757
X6.28Y-4.65
X6.319Y-4.344
X6.45Y-4.29
X6.47Y-3.88
X6.49Y-3.625
X6.56Y-3.89
X6.5666Y-4.2894
X6.58Y-3.317
X6.845Y-4.463
T2
X5.6947Y-4.64
X5.7931Y-4.64
X5.8916Y-4.64
X5.99Y-4.64
T3
X5.089Y-3.222
X5.089Y-3.322
X5.089Y-3.422
X5.089Y-3.522
X5.089Y-3.622
X5.525Y-3.933
X5.525Y-4.033
X5.525Y-4.133
X5.525Y-4.233
X5.334Y-3.223
X5.334Y-3.323
X5.334Y-3.423
X5.334Y-3.523
X5.334Y-3.623
X4.805Y-3.881
X4.805Y-3.981
X4.805Y-4.081
X5.324Y-3.936
X5.324Y-4.036
X5.324Y-4.136
X5.324Y-4.236
X6.18Y-3.62
X6.18Y-3.72
X6.18Y-3.82
X6.28Y-3.62
X6.28Y-3.72
X6.28Y-3.82
T4
X5.11Y-2.975
X5.21Y-2.975
X5.31Y-2.975
X5.41Y-2.975
X5.51Y-2.975
X5.61Y-2.975
X5.71Y-2.975
X5.81Y-2.975
X5.91Y-2.975
X6.01Y-2.975
X6.37Y-4.875
X6.47Y-4.875
X6.57Y-4.875
X6.67Y-4.875
X6.77Y-4.875
X6.87Y-4.875
X6.17Y-2.975
X6.27Y-2.975
X6.37Y-2.975
X6.47Y-2.975
X6.57Y-2.975
X6.67Y-2.975
X6.77Y-2.975
X6.87Y-2.975
X5.47Y-4.875
X5.57Y-4.875
X5.67Y-4.875
X5.77Y-4.875
X5.87Y-4.875
X5.97Y-4.875
X6.07Y-4.875
X6.17Y-4.875
T5
X4.97Y-2.975
X6.97Y-3.575
X4.92Y-4.875
X6.97Y-4.675
T0
M30
