G04 #@! TF.GenerationSoftware,KiCad,Pcbnew,(5.1.4)-1*
G04 #@! TF.CreationDate,2020-03-24T16:39:45-06:00*
G04 #@! TF.ProjectId,Laser_Stripe_Sensor,4c617365-725f-4537-9472-6970655f5365,rev?*
G04 #@! TF.SameCoordinates,Original*
G04 #@! TF.FileFunction,Copper,L2,Bot*
G04 #@! TF.FilePolarity,Positive*
%FSLAX46Y46*%
G04 Gerber Fmt 4.6, Leading zero omitted, Abs format (unit mm)*
G04 Created by KiCad (PCBNEW (5.1.4)-1) date 2020-03-24 16:39:45*
%MOMM*%
%LPD*%
G04 APERTURE LIST*
%ADD10O,1.700000X1.700000*%
%ADD11R,1.700000X1.700000*%
%ADD12O,1.700000X1.950000*%
%ADD13C,0.100000*%
%ADD14C,1.700000*%
%ADD15R,1.500000X2.000000*%
%ADD16R,3.800000X2.000000*%
%ADD17C,0.600000*%
%ADD18C,1.000000*%
%ADD19C,1.150000*%
%ADD20C,4.064000*%
%ADD21O,1.727200X2.032000*%
%ADD22C,0.250000*%
%ADD23C,1.270000*%
%ADD24C,0.508000*%
G04 APERTURE END LIST*
D10*
X135229600Y-99974400D03*
X135229600Y-102514400D03*
X135229600Y-105054400D03*
D11*
X135229600Y-107594400D03*
D12*
X152146000Y-117856000D03*
X149646000Y-117856000D03*
X147146000Y-117856000D03*
D13*
G36*
X145270504Y-116882204D02*
G01*
X145294773Y-116885804D01*
X145318571Y-116891765D01*
X145341671Y-116900030D01*
X145363849Y-116910520D01*
X145384893Y-116923133D01*
X145404598Y-116937747D01*
X145422777Y-116954223D01*
X145439253Y-116972402D01*
X145453867Y-116992107D01*
X145466480Y-117013151D01*
X145476970Y-117035329D01*
X145485235Y-117058429D01*
X145491196Y-117082227D01*
X145494796Y-117106496D01*
X145496000Y-117131000D01*
X145496000Y-118581000D01*
X145494796Y-118605504D01*
X145491196Y-118629773D01*
X145485235Y-118653571D01*
X145476970Y-118676671D01*
X145466480Y-118698849D01*
X145453867Y-118719893D01*
X145439253Y-118739598D01*
X145422777Y-118757777D01*
X145404598Y-118774253D01*
X145384893Y-118788867D01*
X145363849Y-118801480D01*
X145341671Y-118811970D01*
X145318571Y-118820235D01*
X145294773Y-118826196D01*
X145270504Y-118829796D01*
X145246000Y-118831000D01*
X144046000Y-118831000D01*
X144021496Y-118829796D01*
X143997227Y-118826196D01*
X143973429Y-118820235D01*
X143950329Y-118811970D01*
X143928151Y-118801480D01*
X143907107Y-118788867D01*
X143887402Y-118774253D01*
X143869223Y-118757777D01*
X143852747Y-118739598D01*
X143838133Y-118719893D01*
X143825520Y-118698849D01*
X143815030Y-118676671D01*
X143806765Y-118653571D01*
X143800804Y-118629773D01*
X143797204Y-118605504D01*
X143796000Y-118581000D01*
X143796000Y-117131000D01*
X143797204Y-117106496D01*
X143800804Y-117082227D01*
X143806765Y-117058429D01*
X143815030Y-117035329D01*
X143825520Y-117013151D01*
X143838133Y-116992107D01*
X143852747Y-116972402D01*
X143869223Y-116954223D01*
X143887402Y-116937747D01*
X143907107Y-116923133D01*
X143928151Y-116910520D01*
X143950329Y-116900030D01*
X143973429Y-116891765D01*
X143997227Y-116885804D01*
X144021496Y-116882204D01*
X144046000Y-116881000D01*
X145246000Y-116881000D01*
X145270504Y-116882204D01*
X145270504Y-116882204D01*
G37*
D14*
X144646000Y-117856000D03*
D15*
X164324000Y-98552000D03*
X168924000Y-98552000D03*
X166624000Y-98552000D03*
D16*
X166624000Y-104852000D03*
D15*
X164324000Y-108762000D03*
X168924000Y-108762000D03*
X166624000Y-108762000D03*
D16*
X166624000Y-115062000D03*
D13*
G36*
X148627703Y-109893722D02*
G01*
X148642264Y-109895882D01*
X148656543Y-109899459D01*
X148670403Y-109904418D01*
X148683710Y-109910712D01*
X148696336Y-109918280D01*
X148708159Y-109927048D01*
X148719066Y-109936934D01*
X148728952Y-109947841D01*
X148737720Y-109959664D01*
X148745288Y-109972290D01*
X148751582Y-109985597D01*
X148756541Y-109999457D01*
X148760118Y-110013736D01*
X148762278Y-110028297D01*
X148763000Y-110043000D01*
X148763000Y-111693000D01*
X148762278Y-111707703D01*
X148760118Y-111722264D01*
X148756541Y-111736543D01*
X148751582Y-111750403D01*
X148745288Y-111763710D01*
X148737720Y-111776336D01*
X148728952Y-111788159D01*
X148719066Y-111799066D01*
X148708159Y-111808952D01*
X148696336Y-111817720D01*
X148683710Y-111825288D01*
X148670403Y-111831582D01*
X148656543Y-111836541D01*
X148642264Y-111840118D01*
X148627703Y-111842278D01*
X148613000Y-111843000D01*
X148313000Y-111843000D01*
X148298297Y-111842278D01*
X148283736Y-111840118D01*
X148269457Y-111836541D01*
X148255597Y-111831582D01*
X148242290Y-111825288D01*
X148229664Y-111817720D01*
X148217841Y-111808952D01*
X148206934Y-111799066D01*
X148197048Y-111788159D01*
X148188280Y-111776336D01*
X148180712Y-111763710D01*
X148174418Y-111750403D01*
X148169459Y-111736543D01*
X148165882Y-111722264D01*
X148163722Y-111707703D01*
X148163000Y-111693000D01*
X148163000Y-110043000D01*
X148163722Y-110028297D01*
X148165882Y-110013736D01*
X148169459Y-109999457D01*
X148174418Y-109985597D01*
X148180712Y-109972290D01*
X148188280Y-109959664D01*
X148197048Y-109947841D01*
X148206934Y-109936934D01*
X148217841Y-109927048D01*
X148229664Y-109918280D01*
X148242290Y-109910712D01*
X148255597Y-109904418D01*
X148269457Y-109899459D01*
X148283736Y-109895882D01*
X148298297Y-109893722D01*
X148313000Y-109893000D01*
X148613000Y-109893000D01*
X148627703Y-109893722D01*
X148627703Y-109893722D01*
G37*
D17*
X148463000Y-110868000D03*
D13*
G36*
X149897703Y-109893722D02*
G01*
X149912264Y-109895882D01*
X149926543Y-109899459D01*
X149940403Y-109904418D01*
X149953710Y-109910712D01*
X149966336Y-109918280D01*
X149978159Y-109927048D01*
X149989066Y-109936934D01*
X149998952Y-109947841D01*
X150007720Y-109959664D01*
X150015288Y-109972290D01*
X150021582Y-109985597D01*
X150026541Y-109999457D01*
X150030118Y-110013736D01*
X150032278Y-110028297D01*
X150033000Y-110043000D01*
X150033000Y-111693000D01*
X150032278Y-111707703D01*
X150030118Y-111722264D01*
X150026541Y-111736543D01*
X150021582Y-111750403D01*
X150015288Y-111763710D01*
X150007720Y-111776336D01*
X149998952Y-111788159D01*
X149989066Y-111799066D01*
X149978159Y-111808952D01*
X149966336Y-111817720D01*
X149953710Y-111825288D01*
X149940403Y-111831582D01*
X149926543Y-111836541D01*
X149912264Y-111840118D01*
X149897703Y-111842278D01*
X149883000Y-111843000D01*
X149583000Y-111843000D01*
X149568297Y-111842278D01*
X149553736Y-111840118D01*
X149539457Y-111836541D01*
X149525597Y-111831582D01*
X149512290Y-111825288D01*
X149499664Y-111817720D01*
X149487841Y-111808952D01*
X149476934Y-111799066D01*
X149467048Y-111788159D01*
X149458280Y-111776336D01*
X149450712Y-111763710D01*
X149444418Y-111750403D01*
X149439459Y-111736543D01*
X149435882Y-111722264D01*
X149433722Y-111707703D01*
X149433000Y-111693000D01*
X149433000Y-110043000D01*
X149433722Y-110028297D01*
X149435882Y-110013736D01*
X149439459Y-109999457D01*
X149444418Y-109985597D01*
X149450712Y-109972290D01*
X149458280Y-109959664D01*
X149467048Y-109947841D01*
X149476934Y-109936934D01*
X149487841Y-109927048D01*
X149499664Y-109918280D01*
X149512290Y-109910712D01*
X149525597Y-109904418D01*
X149539457Y-109899459D01*
X149553736Y-109895882D01*
X149568297Y-109893722D01*
X149583000Y-109893000D01*
X149883000Y-109893000D01*
X149897703Y-109893722D01*
X149897703Y-109893722D01*
G37*
D17*
X149733000Y-110868000D03*
D13*
G36*
X151167703Y-109893722D02*
G01*
X151182264Y-109895882D01*
X151196543Y-109899459D01*
X151210403Y-109904418D01*
X151223710Y-109910712D01*
X151236336Y-109918280D01*
X151248159Y-109927048D01*
X151259066Y-109936934D01*
X151268952Y-109947841D01*
X151277720Y-109959664D01*
X151285288Y-109972290D01*
X151291582Y-109985597D01*
X151296541Y-109999457D01*
X151300118Y-110013736D01*
X151302278Y-110028297D01*
X151303000Y-110043000D01*
X151303000Y-111693000D01*
X151302278Y-111707703D01*
X151300118Y-111722264D01*
X151296541Y-111736543D01*
X151291582Y-111750403D01*
X151285288Y-111763710D01*
X151277720Y-111776336D01*
X151268952Y-111788159D01*
X151259066Y-111799066D01*
X151248159Y-111808952D01*
X151236336Y-111817720D01*
X151223710Y-111825288D01*
X151210403Y-111831582D01*
X151196543Y-111836541D01*
X151182264Y-111840118D01*
X151167703Y-111842278D01*
X151153000Y-111843000D01*
X150853000Y-111843000D01*
X150838297Y-111842278D01*
X150823736Y-111840118D01*
X150809457Y-111836541D01*
X150795597Y-111831582D01*
X150782290Y-111825288D01*
X150769664Y-111817720D01*
X150757841Y-111808952D01*
X150746934Y-111799066D01*
X150737048Y-111788159D01*
X150728280Y-111776336D01*
X150720712Y-111763710D01*
X150714418Y-111750403D01*
X150709459Y-111736543D01*
X150705882Y-111722264D01*
X150703722Y-111707703D01*
X150703000Y-111693000D01*
X150703000Y-110043000D01*
X150703722Y-110028297D01*
X150705882Y-110013736D01*
X150709459Y-109999457D01*
X150714418Y-109985597D01*
X150720712Y-109972290D01*
X150728280Y-109959664D01*
X150737048Y-109947841D01*
X150746934Y-109936934D01*
X150757841Y-109927048D01*
X150769664Y-109918280D01*
X150782290Y-109910712D01*
X150795597Y-109904418D01*
X150809457Y-109899459D01*
X150823736Y-109895882D01*
X150838297Y-109893722D01*
X150853000Y-109893000D01*
X151153000Y-109893000D01*
X151167703Y-109893722D01*
X151167703Y-109893722D01*
G37*
D17*
X151003000Y-110868000D03*
D13*
G36*
X152437703Y-109893722D02*
G01*
X152452264Y-109895882D01*
X152466543Y-109899459D01*
X152480403Y-109904418D01*
X152493710Y-109910712D01*
X152506336Y-109918280D01*
X152518159Y-109927048D01*
X152529066Y-109936934D01*
X152538952Y-109947841D01*
X152547720Y-109959664D01*
X152555288Y-109972290D01*
X152561582Y-109985597D01*
X152566541Y-109999457D01*
X152570118Y-110013736D01*
X152572278Y-110028297D01*
X152573000Y-110043000D01*
X152573000Y-111693000D01*
X152572278Y-111707703D01*
X152570118Y-111722264D01*
X152566541Y-111736543D01*
X152561582Y-111750403D01*
X152555288Y-111763710D01*
X152547720Y-111776336D01*
X152538952Y-111788159D01*
X152529066Y-111799066D01*
X152518159Y-111808952D01*
X152506336Y-111817720D01*
X152493710Y-111825288D01*
X152480403Y-111831582D01*
X152466543Y-111836541D01*
X152452264Y-111840118D01*
X152437703Y-111842278D01*
X152423000Y-111843000D01*
X152123000Y-111843000D01*
X152108297Y-111842278D01*
X152093736Y-111840118D01*
X152079457Y-111836541D01*
X152065597Y-111831582D01*
X152052290Y-111825288D01*
X152039664Y-111817720D01*
X152027841Y-111808952D01*
X152016934Y-111799066D01*
X152007048Y-111788159D01*
X151998280Y-111776336D01*
X151990712Y-111763710D01*
X151984418Y-111750403D01*
X151979459Y-111736543D01*
X151975882Y-111722264D01*
X151973722Y-111707703D01*
X151973000Y-111693000D01*
X151973000Y-110043000D01*
X151973722Y-110028297D01*
X151975882Y-110013736D01*
X151979459Y-109999457D01*
X151984418Y-109985597D01*
X151990712Y-109972290D01*
X151998280Y-109959664D01*
X152007048Y-109947841D01*
X152016934Y-109936934D01*
X152027841Y-109927048D01*
X152039664Y-109918280D01*
X152052290Y-109910712D01*
X152065597Y-109904418D01*
X152079457Y-109899459D01*
X152093736Y-109895882D01*
X152108297Y-109893722D01*
X152123000Y-109893000D01*
X152423000Y-109893000D01*
X152437703Y-109893722D01*
X152437703Y-109893722D01*
G37*
D17*
X152273000Y-110868000D03*
D13*
G36*
X152437703Y-104943722D02*
G01*
X152452264Y-104945882D01*
X152466543Y-104949459D01*
X152480403Y-104954418D01*
X152493710Y-104960712D01*
X152506336Y-104968280D01*
X152518159Y-104977048D01*
X152529066Y-104986934D01*
X152538952Y-104997841D01*
X152547720Y-105009664D01*
X152555288Y-105022290D01*
X152561582Y-105035597D01*
X152566541Y-105049457D01*
X152570118Y-105063736D01*
X152572278Y-105078297D01*
X152573000Y-105093000D01*
X152573000Y-106743000D01*
X152572278Y-106757703D01*
X152570118Y-106772264D01*
X152566541Y-106786543D01*
X152561582Y-106800403D01*
X152555288Y-106813710D01*
X152547720Y-106826336D01*
X152538952Y-106838159D01*
X152529066Y-106849066D01*
X152518159Y-106858952D01*
X152506336Y-106867720D01*
X152493710Y-106875288D01*
X152480403Y-106881582D01*
X152466543Y-106886541D01*
X152452264Y-106890118D01*
X152437703Y-106892278D01*
X152423000Y-106893000D01*
X152123000Y-106893000D01*
X152108297Y-106892278D01*
X152093736Y-106890118D01*
X152079457Y-106886541D01*
X152065597Y-106881582D01*
X152052290Y-106875288D01*
X152039664Y-106867720D01*
X152027841Y-106858952D01*
X152016934Y-106849066D01*
X152007048Y-106838159D01*
X151998280Y-106826336D01*
X151990712Y-106813710D01*
X151984418Y-106800403D01*
X151979459Y-106786543D01*
X151975882Y-106772264D01*
X151973722Y-106757703D01*
X151973000Y-106743000D01*
X151973000Y-105093000D01*
X151973722Y-105078297D01*
X151975882Y-105063736D01*
X151979459Y-105049457D01*
X151984418Y-105035597D01*
X151990712Y-105022290D01*
X151998280Y-105009664D01*
X152007048Y-104997841D01*
X152016934Y-104986934D01*
X152027841Y-104977048D01*
X152039664Y-104968280D01*
X152052290Y-104960712D01*
X152065597Y-104954418D01*
X152079457Y-104949459D01*
X152093736Y-104945882D01*
X152108297Y-104943722D01*
X152123000Y-104943000D01*
X152423000Y-104943000D01*
X152437703Y-104943722D01*
X152437703Y-104943722D01*
G37*
D17*
X152273000Y-105918000D03*
D13*
G36*
X151167703Y-104943722D02*
G01*
X151182264Y-104945882D01*
X151196543Y-104949459D01*
X151210403Y-104954418D01*
X151223710Y-104960712D01*
X151236336Y-104968280D01*
X151248159Y-104977048D01*
X151259066Y-104986934D01*
X151268952Y-104997841D01*
X151277720Y-105009664D01*
X151285288Y-105022290D01*
X151291582Y-105035597D01*
X151296541Y-105049457D01*
X151300118Y-105063736D01*
X151302278Y-105078297D01*
X151303000Y-105093000D01*
X151303000Y-106743000D01*
X151302278Y-106757703D01*
X151300118Y-106772264D01*
X151296541Y-106786543D01*
X151291582Y-106800403D01*
X151285288Y-106813710D01*
X151277720Y-106826336D01*
X151268952Y-106838159D01*
X151259066Y-106849066D01*
X151248159Y-106858952D01*
X151236336Y-106867720D01*
X151223710Y-106875288D01*
X151210403Y-106881582D01*
X151196543Y-106886541D01*
X151182264Y-106890118D01*
X151167703Y-106892278D01*
X151153000Y-106893000D01*
X150853000Y-106893000D01*
X150838297Y-106892278D01*
X150823736Y-106890118D01*
X150809457Y-106886541D01*
X150795597Y-106881582D01*
X150782290Y-106875288D01*
X150769664Y-106867720D01*
X150757841Y-106858952D01*
X150746934Y-106849066D01*
X150737048Y-106838159D01*
X150728280Y-106826336D01*
X150720712Y-106813710D01*
X150714418Y-106800403D01*
X150709459Y-106786543D01*
X150705882Y-106772264D01*
X150703722Y-106757703D01*
X150703000Y-106743000D01*
X150703000Y-105093000D01*
X150703722Y-105078297D01*
X150705882Y-105063736D01*
X150709459Y-105049457D01*
X150714418Y-105035597D01*
X150720712Y-105022290D01*
X150728280Y-105009664D01*
X150737048Y-104997841D01*
X150746934Y-104986934D01*
X150757841Y-104977048D01*
X150769664Y-104968280D01*
X150782290Y-104960712D01*
X150795597Y-104954418D01*
X150809457Y-104949459D01*
X150823736Y-104945882D01*
X150838297Y-104943722D01*
X150853000Y-104943000D01*
X151153000Y-104943000D01*
X151167703Y-104943722D01*
X151167703Y-104943722D01*
G37*
D17*
X151003000Y-105918000D03*
D13*
G36*
X149897703Y-104943722D02*
G01*
X149912264Y-104945882D01*
X149926543Y-104949459D01*
X149940403Y-104954418D01*
X149953710Y-104960712D01*
X149966336Y-104968280D01*
X149978159Y-104977048D01*
X149989066Y-104986934D01*
X149998952Y-104997841D01*
X150007720Y-105009664D01*
X150015288Y-105022290D01*
X150021582Y-105035597D01*
X150026541Y-105049457D01*
X150030118Y-105063736D01*
X150032278Y-105078297D01*
X150033000Y-105093000D01*
X150033000Y-106743000D01*
X150032278Y-106757703D01*
X150030118Y-106772264D01*
X150026541Y-106786543D01*
X150021582Y-106800403D01*
X150015288Y-106813710D01*
X150007720Y-106826336D01*
X149998952Y-106838159D01*
X149989066Y-106849066D01*
X149978159Y-106858952D01*
X149966336Y-106867720D01*
X149953710Y-106875288D01*
X149940403Y-106881582D01*
X149926543Y-106886541D01*
X149912264Y-106890118D01*
X149897703Y-106892278D01*
X149883000Y-106893000D01*
X149583000Y-106893000D01*
X149568297Y-106892278D01*
X149553736Y-106890118D01*
X149539457Y-106886541D01*
X149525597Y-106881582D01*
X149512290Y-106875288D01*
X149499664Y-106867720D01*
X149487841Y-106858952D01*
X149476934Y-106849066D01*
X149467048Y-106838159D01*
X149458280Y-106826336D01*
X149450712Y-106813710D01*
X149444418Y-106800403D01*
X149439459Y-106786543D01*
X149435882Y-106772264D01*
X149433722Y-106757703D01*
X149433000Y-106743000D01*
X149433000Y-105093000D01*
X149433722Y-105078297D01*
X149435882Y-105063736D01*
X149439459Y-105049457D01*
X149444418Y-105035597D01*
X149450712Y-105022290D01*
X149458280Y-105009664D01*
X149467048Y-104997841D01*
X149476934Y-104986934D01*
X149487841Y-104977048D01*
X149499664Y-104968280D01*
X149512290Y-104960712D01*
X149525597Y-104954418D01*
X149539457Y-104949459D01*
X149553736Y-104945882D01*
X149568297Y-104943722D01*
X149583000Y-104943000D01*
X149883000Y-104943000D01*
X149897703Y-104943722D01*
X149897703Y-104943722D01*
G37*
D17*
X149733000Y-105918000D03*
D13*
G36*
X148627703Y-104943722D02*
G01*
X148642264Y-104945882D01*
X148656543Y-104949459D01*
X148670403Y-104954418D01*
X148683710Y-104960712D01*
X148696336Y-104968280D01*
X148708159Y-104977048D01*
X148719066Y-104986934D01*
X148728952Y-104997841D01*
X148737720Y-105009664D01*
X148745288Y-105022290D01*
X148751582Y-105035597D01*
X148756541Y-105049457D01*
X148760118Y-105063736D01*
X148762278Y-105078297D01*
X148763000Y-105093000D01*
X148763000Y-106743000D01*
X148762278Y-106757703D01*
X148760118Y-106772264D01*
X148756541Y-106786543D01*
X148751582Y-106800403D01*
X148745288Y-106813710D01*
X148737720Y-106826336D01*
X148728952Y-106838159D01*
X148719066Y-106849066D01*
X148708159Y-106858952D01*
X148696336Y-106867720D01*
X148683710Y-106875288D01*
X148670403Y-106881582D01*
X148656543Y-106886541D01*
X148642264Y-106890118D01*
X148627703Y-106892278D01*
X148613000Y-106893000D01*
X148313000Y-106893000D01*
X148298297Y-106892278D01*
X148283736Y-106890118D01*
X148269457Y-106886541D01*
X148255597Y-106881582D01*
X148242290Y-106875288D01*
X148229664Y-106867720D01*
X148217841Y-106858952D01*
X148206934Y-106849066D01*
X148197048Y-106838159D01*
X148188280Y-106826336D01*
X148180712Y-106813710D01*
X148174418Y-106800403D01*
X148169459Y-106786543D01*
X148165882Y-106772264D01*
X148163722Y-106757703D01*
X148163000Y-106743000D01*
X148163000Y-105093000D01*
X148163722Y-105078297D01*
X148165882Y-105063736D01*
X148169459Y-105049457D01*
X148174418Y-105035597D01*
X148180712Y-105022290D01*
X148188280Y-105009664D01*
X148197048Y-104997841D01*
X148206934Y-104986934D01*
X148217841Y-104977048D01*
X148229664Y-104968280D01*
X148242290Y-104960712D01*
X148255597Y-104954418D01*
X148269457Y-104949459D01*
X148283736Y-104945882D01*
X148298297Y-104943722D01*
X148313000Y-104943000D01*
X148613000Y-104943000D01*
X148627703Y-104943722D01*
X148627703Y-104943722D01*
G37*
D17*
X148463000Y-105918000D03*
D18*
X169672000Y-118516400D03*
D13*
G36*
X158591505Y-99123204D02*
G01*
X158615773Y-99126804D01*
X158639572Y-99132765D01*
X158662671Y-99141030D01*
X158684850Y-99151520D01*
X158705893Y-99164132D01*
X158725599Y-99178747D01*
X158743777Y-99195223D01*
X158760253Y-99213401D01*
X158774868Y-99233107D01*
X158787480Y-99254150D01*
X158797970Y-99276329D01*
X158806235Y-99299428D01*
X158812196Y-99323227D01*
X158815796Y-99347495D01*
X158817000Y-99371999D01*
X158817000Y-100272001D01*
X158815796Y-100296505D01*
X158812196Y-100320773D01*
X158806235Y-100344572D01*
X158797970Y-100367671D01*
X158787480Y-100389850D01*
X158774868Y-100410893D01*
X158760253Y-100430599D01*
X158743777Y-100448777D01*
X158725599Y-100465253D01*
X158705893Y-100479868D01*
X158684850Y-100492480D01*
X158662671Y-100502970D01*
X158639572Y-100511235D01*
X158615773Y-100517196D01*
X158591505Y-100520796D01*
X158567001Y-100522000D01*
X157916999Y-100522000D01*
X157892495Y-100520796D01*
X157868227Y-100517196D01*
X157844428Y-100511235D01*
X157821329Y-100502970D01*
X157799150Y-100492480D01*
X157778107Y-100479868D01*
X157758401Y-100465253D01*
X157740223Y-100448777D01*
X157723747Y-100430599D01*
X157709132Y-100410893D01*
X157696520Y-100389850D01*
X157686030Y-100367671D01*
X157677765Y-100344572D01*
X157671804Y-100320773D01*
X157668204Y-100296505D01*
X157667000Y-100272001D01*
X157667000Y-99371999D01*
X157668204Y-99347495D01*
X157671804Y-99323227D01*
X157677765Y-99299428D01*
X157686030Y-99276329D01*
X157696520Y-99254150D01*
X157709132Y-99233107D01*
X157723747Y-99213401D01*
X157740223Y-99195223D01*
X157758401Y-99178747D01*
X157778107Y-99164132D01*
X157799150Y-99151520D01*
X157821329Y-99141030D01*
X157844428Y-99132765D01*
X157868227Y-99126804D01*
X157892495Y-99123204D01*
X157916999Y-99122000D01*
X158567001Y-99122000D01*
X158591505Y-99123204D01*
X158591505Y-99123204D01*
G37*
D19*
X158242000Y-99822000D03*
D13*
G36*
X156541505Y-99123204D02*
G01*
X156565773Y-99126804D01*
X156589572Y-99132765D01*
X156612671Y-99141030D01*
X156634850Y-99151520D01*
X156655893Y-99164132D01*
X156675599Y-99178747D01*
X156693777Y-99195223D01*
X156710253Y-99213401D01*
X156724868Y-99233107D01*
X156737480Y-99254150D01*
X156747970Y-99276329D01*
X156756235Y-99299428D01*
X156762196Y-99323227D01*
X156765796Y-99347495D01*
X156767000Y-99371999D01*
X156767000Y-100272001D01*
X156765796Y-100296505D01*
X156762196Y-100320773D01*
X156756235Y-100344572D01*
X156747970Y-100367671D01*
X156737480Y-100389850D01*
X156724868Y-100410893D01*
X156710253Y-100430599D01*
X156693777Y-100448777D01*
X156675599Y-100465253D01*
X156655893Y-100479868D01*
X156634850Y-100492480D01*
X156612671Y-100502970D01*
X156589572Y-100511235D01*
X156565773Y-100517196D01*
X156541505Y-100520796D01*
X156517001Y-100522000D01*
X155866999Y-100522000D01*
X155842495Y-100520796D01*
X155818227Y-100517196D01*
X155794428Y-100511235D01*
X155771329Y-100502970D01*
X155749150Y-100492480D01*
X155728107Y-100479868D01*
X155708401Y-100465253D01*
X155690223Y-100448777D01*
X155673747Y-100430599D01*
X155659132Y-100410893D01*
X155646520Y-100389850D01*
X155636030Y-100367671D01*
X155627765Y-100344572D01*
X155621804Y-100320773D01*
X155618204Y-100296505D01*
X155617000Y-100272001D01*
X155617000Y-99371999D01*
X155618204Y-99347495D01*
X155621804Y-99323227D01*
X155627765Y-99299428D01*
X155636030Y-99276329D01*
X155646520Y-99254150D01*
X155659132Y-99233107D01*
X155673747Y-99213401D01*
X155690223Y-99195223D01*
X155708401Y-99178747D01*
X155728107Y-99164132D01*
X155749150Y-99151520D01*
X155771329Y-99141030D01*
X155794428Y-99132765D01*
X155818227Y-99126804D01*
X155842495Y-99123204D01*
X155866999Y-99122000D01*
X156517001Y-99122000D01*
X156541505Y-99123204D01*
X156541505Y-99123204D01*
G37*
D19*
X156192000Y-99822000D03*
D10*
X122047000Y-98577400D03*
X122047000Y-101117400D03*
D11*
X122047000Y-103657400D03*
D10*
X140335000Y-107518200D03*
X140335000Y-104978200D03*
X140335000Y-102438200D03*
D11*
X140335000Y-99898200D03*
D10*
X129260600Y-81838800D03*
X129260600Y-84378800D03*
X129260600Y-86918800D03*
X129260600Y-89458800D03*
D11*
X129260600Y-91998800D03*
D10*
X135483600Y-81864200D03*
X135483600Y-84404200D03*
X135483600Y-86944200D03*
X135483600Y-89484200D03*
D11*
X135483600Y-92024200D03*
D10*
X156972000Y-91948000D03*
X159512000Y-91948000D03*
X156972000Y-94488000D03*
X159512000Y-94488000D03*
X156972000Y-97028000D03*
D11*
X159512000Y-97028000D03*
D13*
G36*
X155109705Y-104056204D02*
G01*
X155133973Y-104059804D01*
X155157772Y-104065765D01*
X155180871Y-104074030D01*
X155203050Y-104084520D01*
X155224093Y-104097132D01*
X155243799Y-104111747D01*
X155261977Y-104128223D01*
X155278453Y-104146401D01*
X155293068Y-104166107D01*
X155305680Y-104187150D01*
X155316170Y-104209329D01*
X155324435Y-104232428D01*
X155330396Y-104256227D01*
X155333996Y-104280495D01*
X155335200Y-104304999D01*
X155335200Y-104955001D01*
X155333996Y-104979505D01*
X155330396Y-105003773D01*
X155324435Y-105027572D01*
X155316170Y-105050671D01*
X155305680Y-105072850D01*
X155293068Y-105093893D01*
X155278453Y-105113599D01*
X155261977Y-105131777D01*
X155243799Y-105148253D01*
X155224093Y-105162868D01*
X155203050Y-105175480D01*
X155180871Y-105185970D01*
X155157772Y-105194235D01*
X155133973Y-105200196D01*
X155109705Y-105203796D01*
X155085201Y-105205000D01*
X154185199Y-105205000D01*
X154160695Y-105203796D01*
X154136427Y-105200196D01*
X154112628Y-105194235D01*
X154089529Y-105185970D01*
X154067350Y-105175480D01*
X154046307Y-105162868D01*
X154026601Y-105148253D01*
X154008423Y-105131777D01*
X153991947Y-105113599D01*
X153977332Y-105093893D01*
X153964720Y-105072850D01*
X153954230Y-105050671D01*
X153945965Y-105027572D01*
X153940004Y-105003773D01*
X153936404Y-104979505D01*
X153935200Y-104955001D01*
X153935200Y-104304999D01*
X153936404Y-104280495D01*
X153940004Y-104256227D01*
X153945965Y-104232428D01*
X153954230Y-104209329D01*
X153964720Y-104187150D01*
X153977332Y-104166107D01*
X153991947Y-104146401D01*
X154008423Y-104128223D01*
X154026601Y-104111747D01*
X154046307Y-104097132D01*
X154067350Y-104084520D01*
X154089529Y-104074030D01*
X154112628Y-104065765D01*
X154136427Y-104059804D01*
X154160695Y-104056204D01*
X154185199Y-104055000D01*
X155085201Y-104055000D01*
X155109705Y-104056204D01*
X155109705Y-104056204D01*
G37*
D19*
X154635200Y-104630000D03*
D13*
G36*
X155109705Y-106106204D02*
G01*
X155133973Y-106109804D01*
X155157772Y-106115765D01*
X155180871Y-106124030D01*
X155203050Y-106134520D01*
X155224093Y-106147132D01*
X155243799Y-106161747D01*
X155261977Y-106178223D01*
X155278453Y-106196401D01*
X155293068Y-106216107D01*
X155305680Y-106237150D01*
X155316170Y-106259329D01*
X155324435Y-106282428D01*
X155330396Y-106306227D01*
X155333996Y-106330495D01*
X155335200Y-106354999D01*
X155335200Y-107005001D01*
X155333996Y-107029505D01*
X155330396Y-107053773D01*
X155324435Y-107077572D01*
X155316170Y-107100671D01*
X155305680Y-107122850D01*
X155293068Y-107143893D01*
X155278453Y-107163599D01*
X155261977Y-107181777D01*
X155243799Y-107198253D01*
X155224093Y-107212868D01*
X155203050Y-107225480D01*
X155180871Y-107235970D01*
X155157772Y-107244235D01*
X155133973Y-107250196D01*
X155109705Y-107253796D01*
X155085201Y-107255000D01*
X154185199Y-107255000D01*
X154160695Y-107253796D01*
X154136427Y-107250196D01*
X154112628Y-107244235D01*
X154089529Y-107235970D01*
X154067350Y-107225480D01*
X154046307Y-107212868D01*
X154026601Y-107198253D01*
X154008423Y-107181777D01*
X153991947Y-107163599D01*
X153977332Y-107143893D01*
X153964720Y-107122850D01*
X153954230Y-107100671D01*
X153945965Y-107077572D01*
X153940004Y-107053773D01*
X153936404Y-107029505D01*
X153935200Y-107005001D01*
X153935200Y-106354999D01*
X153936404Y-106330495D01*
X153940004Y-106306227D01*
X153945965Y-106282428D01*
X153954230Y-106259329D01*
X153964720Y-106237150D01*
X153977332Y-106216107D01*
X153991947Y-106196401D01*
X154008423Y-106178223D01*
X154026601Y-106161747D01*
X154046307Y-106147132D01*
X154067350Y-106134520D01*
X154089529Y-106124030D01*
X154112628Y-106115765D01*
X154136427Y-106109804D01*
X154160695Y-106106204D01*
X154185199Y-106105000D01*
X155085201Y-106105000D01*
X155109705Y-106106204D01*
X155109705Y-106106204D01*
G37*
D19*
X154635200Y-106680000D03*
D20*
X124968000Y-123825000D03*
X177038000Y-118745000D03*
X126238000Y-75565000D03*
X177038000Y-90805000D03*
D21*
X138938000Y-123825000D03*
X141478000Y-123825000D03*
X144018000Y-123825000D03*
X146558000Y-123825000D03*
X149098000Y-123825000D03*
X151638000Y-123825000D03*
X154178000Y-123825000D03*
X156718000Y-123825000D03*
X161798000Y-123825000D03*
X164338000Y-123825000D03*
X166878000Y-123825000D03*
X169418000Y-123825000D03*
X171958000Y-123825000D03*
X174498000Y-123825000D03*
X129794000Y-75565000D03*
X132334000Y-75565000D03*
X134874000Y-75565000D03*
X137414000Y-75565000D03*
X139954000Y-75565000D03*
X142494000Y-75565000D03*
X145034000Y-75565000D03*
X147574000Y-75565000D03*
X150114000Y-75565000D03*
X152654000Y-75565000D03*
X156718000Y-75565000D03*
X159258000Y-75565000D03*
X161798000Y-75565000D03*
X164338000Y-75565000D03*
X166878000Y-75565000D03*
X169418000Y-75565000D03*
X171958000Y-75565000D03*
X174498000Y-75565000D03*
D17*
X131648200Y-87020400D03*
X149860000Y-106045000D03*
X164338000Y-98552000D03*
X163830000Y-108966000D03*
X167132000Y-84251800D03*
X150698200Y-81356200D03*
X126542800Y-92075000D03*
X131978400Y-114884200D03*
X173863000Y-113360200D03*
X158800800Y-113614200D03*
X164846000Y-92075000D03*
X118160800Y-101168200D03*
X114376200Y-107137200D03*
X152247600Y-121183400D03*
X150342600Y-101295200D03*
X143535400Y-104927400D03*
X160502600Y-110337600D03*
X157480000Y-111836200D03*
X166624000Y-98806000D03*
X159334200Y-120827800D03*
X142671800Y-108483400D03*
X149656800Y-103860600D03*
X149123400Y-101777800D03*
X144500600Y-109143800D03*
X144119600Y-111607600D03*
X151130000Y-94742000D03*
X147701000Y-104089200D03*
X148590000Y-106045000D03*
X152400000Y-106045000D03*
X152755600Y-79298800D03*
X123596400Y-91363800D03*
X139700000Y-91262200D03*
X159512000Y-118110000D03*
X151568000Y-101543000D03*
X166790700Y-108951700D03*
D22*
X147146000Y-114474000D02*
X147146000Y-117856000D01*
X148463000Y-110868000D02*
X148463000Y-110868000D01*
X148463000Y-113157000D02*
X147146000Y-114474000D01*
X150342600Y-105308400D02*
X149733000Y-105918000D01*
X150342600Y-101295200D02*
X150342600Y-105308400D01*
X148463000Y-110868000D02*
X148463000Y-113157000D01*
D23*
X166624000Y-98552000D02*
X166624000Y-98806000D01*
D24*
X160502600Y-110337600D02*
X160502600Y-110337600D01*
X152990810Y-107347010D02*
X145523210Y-107347010D01*
X157480000Y-111836200D02*
X152990810Y-107347010D01*
X165988200Y-104216200D02*
X166624000Y-104852000D01*
X145523210Y-107339474D02*
X145523210Y-107347010D01*
X143535400Y-105351664D02*
X145523210Y-107339474D01*
X143535400Y-104927400D02*
X143535400Y-105351664D01*
D23*
X166624000Y-98806000D02*
X166624000Y-104852000D01*
D24*
X160802599Y-110037601D02*
X160502600Y-110337600D01*
X160802599Y-109773401D02*
X160802599Y-110037601D01*
X165724000Y-104852000D02*
X160802599Y-109773401D01*
X166624000Y-104852000D02*
X165724000Y-104852000D01*
X168924000Y-108512000D02*
X168924000Y-108762000D01*
X170182000Y-107254000D02*
X168924000Y-108512000D01*
X170182000Y-101318000D02*
X170182000Y-107254000D01*
X168924000Y-100060000D02*
X170182000Y-101318000D01*
X168924000Y-98552000D02*
X168924000Y-100060000D01*
X168924000Y-98552000D02*
X168924000Y-90615800D01*
X168924000Y-90615800D02*
X166649400Y-88341200D01*
X166649400Y-88341200D02*
X153720800Y-88341200D01*
X153720800Y-88341200D02*
X153035000Y-89027000D01*
X153035000Y-93091000D02*
X156972000Y-97028000D01*
X153035000Y-89027000D02*
X153035000Y-93091000D01*
X168924000Y-108762000D02*
X170182000Y-108762000D01*
X166132092Y-120827800D02*
X159334200Y-120827800D01*
X159334200Y-120827800D02*
X159334200Y-120827800D01*
X171485123Y-109866401D02*
X174650400Y-113031678D01*
X170182000Y-108762000D02*
X171286401Y-109866401D01*
X171286401Y-109866401D02*
X171485123Y-109866401D01*
X174650400Y-113031678D02*
X174650400Y-116459000D01*
X170281600Y-120827800D02*
X166132092Y-120827800D01*
X174650400Y-116459000D02*
X170281600Y-120827800D01*
D22*
X149733000Y-117769000D02*
X149646000Y-117856000D01*
X149733000Y-110868000D02*
X149733000Y-117769000D01*
X151003000Y-110868000D02*
X151003000Y-113157000D01*
X151003000Y-113157000D02*
X152146000Y-114300000D01*
X152146000Y-114300000D02*
X152146000Y-117856000D01*
X160361999Y-92797999D02*
X159512000Y-91948000D01*
X160687001Y-93123001D02*
X160361999Y-92797999D01*
X160687001Y-98138001D02*
X160687001Y-93123001D01*
X160028012Y-98796990D02*
X160687001Y-98138001D01*
X156653810Y-99822000D02*
X157678820Y-98796990D01*
X157678820Y-98796990D02*
X160028012Y-98796990D01*
X156192000Y-99822000D02*
X156653810Y-99822000D01*
X142371801Y-108783399D02*
X132608599Y-108783399D01*
X142671800Y-108483400D02*
X142371801Y-108783399D01*
X132608599Y-108783399D02*
X130378200Y-106553000D01*
X130378200Y-106553000D02*
X130378200Y-99542600D01*
X130378200Y-99542600D02*
X131521200Y-98399600D01*
X154769600Y-98399600D02*
X156192000Y-99822000D01*
X131521200Y-98399600D02*
X154769600Y-98399600D01*
X149232536Y-103860600D02*
X149656800Y-103860600D01*
X148854602Y-103860600D02*
X149232536Y-103860600D01*
X148001001Y-104714201D02*
X148854602Y-103860600D01*
X146902191Y-104714201D02*
X148001001Y-104714201D01*
X146441199Y-104253209D02*
X146902191Y-104714201D01*
X142798993Y-104253209D02*
X146441199Y-104253209D01*
X140822801Y-106229401D02*
X142798993Y-104253209D01*
X134665599Y-106229401D02*
X140822801Y-106229401D01*
X134054599Y-105618401D02*
X134665599Y-106229401D01*
X134054599Y-103689401D02*
X134054599Y-105618401D01*
X135229600Y-102514400D02*
X134054599Y-103689401D01*
X140665200Y-102768400D02*
X140335000Y-102438200D01*
X140995400Y-101777800D02*
X140335000Y-102438200D01*
X149123400Y-101777800D02*
X140995400Y-101777800D01*
X159512000Y-98128000D02*
X159512000Y-97028000D01*
X159436999Y-98203001D02*
X159512000Y-98128000D01*
X156407999Y-98203001D02*
X159436999Y-98203001D01*
X154572598Y-96367600D02*
X156407999Y-98203001D01*
X144076336Y-109143800D02*
X143009536Y-110210600D01*
X144500600Y-109143800D02*
X144076336Y-109143800D01*
X132232400Y-110210600D02*
X128905000Y-106883200D01*
X143009536Y-110210600D02*
X132232400Y-110210600D01*
X128905000Y-106883200D02*
X128905000Y-98806000D01*
X131343400Y-96367600D02*
X154572598Y-96367600D01*
X128905000Y-98806000D02*
X131343400Y-96367600D01*
X126607982Y-99195198D02*
X131061180Y-94742000D01*
X126607981Y-106341599D02*
X126607982Y-99195198D01*
X144119600Y-111607600D02*
X131873980Y-111607600D01*
X131873980Y-111607600D02*
X126607981Y-106341599D01*
X131061180Y-94742000D02*
X146659600Y-94742000D01*
X146659600Y-94742000D02*
X151130000Y-94742000D01*
X146913600Y-104089200D02*
X147701000Y-104089200D01*
X146627599Y-103803199D02*
X146913600Y-104089200D01*
X135229600Y-105054400D02*
X136480801Y-103803199D01*
X136480801Y-103803199D02*
X146627599Y-103803199D01*
D24*
X169418000Y-75717400D02*
X169418000Y-75565000D01*
X165836600Y-79298800D02*
X169418000Y-75717400D01*
X152755600Y-79298800D02*
X165836600Y-79298800D01*
X156718000Y-120904000D02*
X156718000Y-123825000D01*
X159512000Y-118110000D02*
X159512000Y-118110000D01*
X165084000Y-118110000D02*
X159512000Y-118110000D01*
X166624000Y-115062000D02*
X166624000Y-116570000D01*
X159512000Y-118110000D02*
X156718000Y-120904000D01*
D23*
X166624000Y-108762000D02*
X166624000Y-115062000D01*
D24*
X154011828Y-106056628D02*
X154635200Y-106680000D01*
X154011828Y-105827628D02*
X154011828Y-106056628D01*
X152673190Y-104488990D02*
X154011828Y-105827628D01*
X123896399Y-91663799D02*
X123596400Y-91363800D01*
X125560801Y-93328201D02*
X123896399Y-91663799D01*
X137633999Y-93328201D02*
X125560801Y-93328201D01*
X139700000Y-91262200D02*
X137633999Y-93328201D01*
X158242000Y-99822000D02*
X157962622Y-99822000D01*
X151003000Y-104843000D02*
X151003000Y-105918000D01*
X151357010Y-104488990D02*
X151003000Y-104843000D01*
X151357010Y-104488990D02*
X152673190Y-104488990D01*
X151357010Y-104488990D02*
X151568000Y-104278000D01*
X163017200Y-115062000D02*
X154635200Y-106680000D01*
X166624000Y-115062000D02*
X163017200Y-115062000D01*
X167924100Y-116768500D02*
X169672000Y-118516400D01*
X166425500Y-116768500D02*
X167924100Y-116768500D01*
X166425500Y-116768500D02*
X165084000Y-118110000D01*
X166624000Y-116570000D02*
X166425500Y-116768500D01*
X152965000Y-101543000D02*
X151568000Y-102940000D01*
X156521000Y-101543000D02*
X152965000Y-101543000D01*
X158242000Y-99822000D02*
X156521000Y-101543000D01*
X151568000Y-104278000D02*
X151568000Y-102940000D01*
X151568000Y-102940000D02*
X151568000Y-101543000D01*
G36*
X124265053Y-73945844D02*
G01*
X123987081Y-74361859D01*
X123795611Y-74824109D01*
X123698000Y-75314832D01*
X123698000Y-75815168D01*
X123795611Y-76305891D01*
X123987081Y-76768141D01*
X124265053Y-77184156D01*
X124618844Y-77537947D01*
X125034859Y-77815919D01*
X125497109Y-78007389D01*
X125987832Y-78105000D01*
X126488168Y-78105000D01*
X126978891Y-78007389D01*
X127441141Y-77815919D01*
X127857156Y-77537947D01*
X128210947Y-77184156D01*
X128488919Y-76768141D01*
X128624908Y-76439833D01*
X128648039Y-76483107D01*
X128819441Y-76691960D01*
X129028294Y-76863361D01*
X129266573Y-76990724D01*
X129525120Y-77069154D01*
X129794000Y-77095636D01*
X130062881Y-77069154D01*
X130321428Y-76990724D01*
X130559707Y-76863361D01*
X130768560Y-76691960D01*
X130939961Y-76483107D01*
X131064000Y-76251046D01*
X131188039Y-76483107D01*
X131359441Y-76691960D01*
X131568294Y-76863361D01*
X131806573Y-76990724D01*
X132065120Y-77069154D01*
X132334000Y-77095636D01*
X132602881Y-77069154D01*
X132861428Y-76990724D01*
X133099707Y-76863361D01*
X133308560Y-76691960D01*
X133479961Y-76483107D01*
X133604000Y-76251046D01*
X133728039Y-76483107D01*
X133899441Y-76691960D01*
X134108294Y-76863361D01*
X134346573Y-76990724D01*
X134605120Y-77069154D01*
X134874000Y-77095636D01*
X135142881Y-77069154D01*
X135401428Y-76990724D01*
X135639707Y-76863361D01*
X135848560Y-76691960D01*
X136019961Y-76483107D01*
X136144000Y-76251046D01*
X136268039Y-76483107D01*
X136439441Y-76691960D01*
X136648294Y-76863361D01*
X136886573Y-76990724D01*
X137145120Y-77069154D01*
X137414000Y-77095636D01*
X137682881Y-77069154D01*
X137941428Y-76990724D01*
X138179707Y-76863361D01*
X138388560Y-76691960D01*
X138559961Y-76483107D01*
X138684000Y-76251046D01*
X138808039Y-76483107D01*
X138979441Y-76691960D01*
X139188294Y-76863361D01*
X139426573Y-76990724D01*
X139685120Y-77069154D01*
X139954000Y-77095636D01*
X140222881Y-77069154D01*
X140481428Y-76990724D01*
X140719707Y-76863361D01*
X140928560Y-76691960D01*
X141099961Y-76483107D01*
X141224000Y-76251046D01*
X141348039Y-76483107D01*
X141519441Y-76691960D01*
X141728294Y-76863361D01*
X141966573Y-76990724D01*
X142225120Y-77069154D01*
X142494000Y-77095636D01*
X142762881Y-77069154D01*
X143021428Y-76990724D01*
X143259707Y-76863361D01*
X143468560Y-76691960D01*
X143639961Y-76483107D01*
X143764000Y-76251046D01*
X143888039Y-76483107D01*
X144059441Y-76691960D01*
X144268294Y-76863361D01*
X144506573Y-76990724D01*
X144765120Y-77069154D01*
X145034000Y-77095636D01*
X145302881Y-77069154D01*
X145561428Y-76990724D01*
X145799707Y-76863361D01*
X146008560Y-76691960D01*
X146179961Y-76483107D01*
X146304000Y-76251046D01*
X146428039Y-76483107D01*
X146599441Y-76691960D01*
X146808294Y-76863361D01*
X147046573Y-76990724D01*
X147305120Y-77069154D01*
X147574000Y-77095636D01*
X147842881Y-77069154D01*
X148101428Y-76990724D01*
X148339707Y-76863361D01*
X148548560Y-76691960D01*
X148719961Y-76483107D01*
X148844000Y-76251046D01*
X148968039Y-76483107D01*
X149139441Y-76691960D01*
X149348294Y-76863361D01*
X149586573Y-76990724D01*
X149845120Y-77069154D01*
X150114000Y-77095636D01*
X150382881Y-77069154D01*
X150641428Y-76990724D01*
X150879707Y-76863361D01*
X151088560Y-76691960D01*
X151259961Y-76483107D01*
X151384000Y-76251046D01*
X151508039Y-76483107D01*
X151679441Y-76691960D01*
X151888294Y-76863361D01*
X152126573Y-76990724D01*
X152385120Y-77069154D01*
X152654000Y-77095636D01*
X152922881Y-77069154D01*
X153181428Y-76990724D01*
X153419707Y-76863361D01*
X153628560Y-76691960D01*
X153799961Y-76483107D01*
X153927324Y-76244827D01*
X154005754Y-75986280D01*
X154025600Y-75784777D01*
X154025600Y-75345222D01*
X154005754Y-75143719D01*
X153927324Y-74885172D01*
X153799961Y-74646893D01*
X153628559Y-74438040D01*
X153419706Y-74266639D01*
X153181427Y-74139276D01*
X152922880Y-74060846D01*
X152654000Y-74034364D01*
X152385119Y-74060846D01*
X152126572Y-74139276D01*
X151888293Y-74266639D01*
X151679440Y-74438041D01*
X151508039Y-74646894D01*
X151384000Y-74878954D01*
X151259961Y-74646893D01*
X151088559Y-74438040D01*
X150879706Y-74266639D01*
X150641427Y-74139276D01*
X150382880Y-74060846D01*
X150114000Y-74034364D01*
X149845119Y-74060846D01*
X149586572Y-74139276D01*
X149348293Y-74266639D01*
X149139440Y-74438041D01*
X148968039Y-74646894D01*
X148844000Y-74878954D01*
X148719961Y-74646893D01*
X148548559Y-74438040D01*
X148339706Y-74266639D01*
X148101427Y-74139276D01*
X147842880Y-74060846D01*
X147574000Y-74034364D01*
X147305119Y-74060846D01*
X147046572Y-74139276D01*
X146808293Y-74266639D01*
X146599440Y-74438041D01*
X146428039Y-74646894D01*
X146304000Y-74878954D01*
X146179961Y-74646893D01*
X146008559Y-74438040D01*
X145799706Y-74266639D01*
X145561427Y-74139276D01*
X145302880Y-74060846D01*
X145034000Y-74034364D01*
X144765119Y-74060846D01*
X144506572Y-74139276D01*
X144268293Y-74266639D01*
X144059440Y-74438041D01*
X143888039Y-74646894D01*
X143764000Y-74878954D01*
X143639961Y-74646893D01*
X143468559Y-74438040D01*
X143259706Y-74266639D01*
X143021427Y-74139276D01*
X142762880Y-74060846D01*
X142494000Y-74034364D01*
X142225119Y-74060846D01*
X141966572Y-74139276D01*
X141728293Y-74266639D01*
X141519440Y-74438041D01*
X141348039Y-74646894D01*
X141224000Y-74878954D01*
X141099961Y-74646893D01*
X140928559Y-74438040D01*
X140719706Y-74266639D01*
X140481427Y-74139276D01*
X140222880Y-74060846D01*
X139954000Y-74034364D01*
X139685119Y-74060846D01*
X139426572Y-74139276D01*
X139188293Y-74266639D01*
X138979440Y-74438041D01*
X138808039Y-74646894D01*
X138684000Y-74878954D01*
X138559961Y-74646893D01*
X138388559Y-74438040D01*
X138179706Y-74266639D01*
X137941427Y-74139276D01*
X137682880Y-74060846D01*
X137414000Y-74034364D01*
X137145119Y-74060846D01*
X136886572Y-74139276D01*
X136648293Y-74266639D01*
X136439440Y-74438041D01*
X136268039Y-74646894D01*
X136144000Y-74878954D01*
X136019961Y-74646893D01*
X135848559Y-74438040D01*
X135639706Y-74266639D01*
X135401427Y-74139276D01*
X135142880Y-74060846D01*
X134874000Y-74034364D01*
X134605119Y-74060846D01*
X134346572Y-74139276D01*
X134108293Y-74266639D01*
X133899440Y-74438041D01*
X133728039Y-74646894D01*
X133604000Y-74878954D01*
X133479961Y-74646893D01*
X133308559Y-74438040D01*
X133099706Y-74266639D01*
X132861427Y-74139276D01*
X132602880Y-74060846D01*
X132334000Y-74034364D01*
X132065119Y-74060846D01*
X131806572Y-74139276D01*
X131568293Y-74266639D01*
X131359440Y-74438041D01*
X131188039Y-74646894D01*
X131064000Y-74878954D01*
X130939961Y-74646893D01*
X130768559Y-74438040D01*
X130559706Y-74266639D01*
X130321427Y-74139276D01*
X130062880Y-74060846D01*
X129794000Y-74034364D01*
X129525119Y-74060846D01*
X129266572Y-74139276D01*
X129028293Y-74266639D01*
X128819440Y-74438041D01*
X128648039Y-74646894D01*
X128624909Y-74690168D01*
X128488919Y-74361859D01*
X128210947Y-73945844D01*
X127873103Y-73608000D01*
X175272515Y-73608000D01*
X176455001Y-74790487D01*
X176455000Y-85950377D01*
X176452181Y-85979000D01*
X176455000Y-86007623D01*
X176455000Y-86007632D01*
X176463436Y-86093287D01*
X176496773Y-86203183D01*
X176550908Y-86304463D01*
X176623763Y-86393237D01*
X176646009Y-86411494D01*
X178995001Y-88760487D01*
X178995001Y-89169898D01*
X178657156Y-88832053D01*
X178241141Y-88554081D01*
X177778891Y-88362611D01*
X177288168Y-88265000D01*
X176787832Y-88265000D01*
X176297109Y-88362611D01*
X175834859Y-88554081D01*
X175418844Y-88832053D01*
X175065053Y-89185844D01*
X174787081Y-89601859D01*
X174595611Y-90064109D01*
X174498000Y-90554832D01*
X174498000Y-91055168D01*
X174595611Y-91545891D01*
X174787081Y-92008141D01*
X175065053Y-92424156D01*
X175418844Y-92777947D01*
X175834859Y-93055919D01*
X176297109Y-93247389D01*
X176787832Y-93345000D01*
X177288168Y-93345000D01*
X177778891Y-93247389D01*
X178241141Y-93055919D01*
X178657156Y-92777947D01*
X178995001Y-92440102D01*
X178995000Y-117109897D01*
X178657156Y-116772053D01*
X178241141Y-116494081D01*
X177778891Y-116302611D01*
X177288168Y-116205000D01*
X176787832Y-116205000D01*
X176297109Y-116302611D01*
X175834859Y-116494081D01*
X175418844Y-116772053D01*
X175197987Y-116992910D01*
X175287045Y-116884392D01*
X175357802Y-116752015D01*
X175401374Y-116608378D01*
X175412400Y-116496426D01*
X175412400Y-116496424D01*
X175416086Y-116459001D01*
X175412400Y-116421578D01*
X175412400Y-113069101D01*
X175416086Y-113031678D01*
X175412400Y-112994252D01*
X175401374Y-112882300D01*
X175357802Y-112738663D01*
X175324865Y-112677042D01*
X175287045Y-112606285D01*
X175252257Y-112563897D01*
X175191822Y-112490256D01*
X175162747Y-112466395D01*
X172050407Y-109354055D01*
X172026545Y-109324979D01*
X171910515Y-109229756D01*
X171778138Y-109158999D01*
X171634501Y-109115427D01*
X171610715Y-109113084D01*
X170747284Y-108249654D01*
X170723422Y-108220578D01*
X170607392Y-108125355D01*
X170475015Y-108054598D01*
X170462752Y-108050878D01*
X170694346Y-107819284D01*
X170723422Y-107795422D01*
X170795519Y-107707571D01*
X170818645Y-107679393D01*
X170856465Y-107608636D01*
X170889402Y-107547015D01*
X170932974Y-107403378D01*
X170944000Y-107291426D01*
X170944000Y-107291423D01*
X170947686Y-107254000D01*
X170944000Y-107216577D01*
X170944000Y-101355423D01*
X170947686Y-101318000D01*
X170944000Y-101280574D01*
X170932974Y-101168622D01*
X170889402Y-101024985D01*
X170830820Y-100915385D01*
X170818645Y-100892607D01*
X170764768Y-100826959D01*
X170723422Y-100776578D01*
X170694347Y-100752717D01*
X169931831Y-99990201D01*
X169957595Y-99976429D01*
X170034948Y-99912948D01*
X170098429Y-99835595D01*
X170145601Y-99747343D01*
X170174649Y-99651585D01*
X170184457Y-99552000D01*
X170184457Y-97552000D01*
X170174649Y-97452415D01*
X170145601Y-97356657D01*
X170098429Y-97268405D01*
X170034948Y-97191052D01*
X169957595Y-97127571D01*
X169869343Y-97080399D01*
X169773585Y-97051351D01*
X169686000Y-97042725D01*
X169686000Y-90653222D01*
X169689686Y-90615799D01*
X169685388Y-90572158D01*
X169674974Y-90466422D01*
X169631402Y-90322785D01*
X169560645Y-90190408D01*
X169465422Y-90074378D01*
X169436352Y-90050521D01*
X167214684Y-87828854D01*
X167190822Y-87799778D01*
X167074792Y-87704555D01*
X166942415Y-87633798D01*
X166798778Y-87590226D01*
X166686826Y-87579200D01*
X166686823Y-87579200D01*
X166649400Y-87575514D01*
X166611977Y-87579200D01*
X153758223Y-87579200D01*
X153720800Y-87575514D01*
X153683377Y-87579200D01*
X153683374Y-87579200D01*
X153571422Y-87590226D01*
X153427785Y-87633798D01*
X153401187Y-87648015D01*
X153295407Y-87704555D01*
X153256555Y-87736441D01*
X153179378Y-87799778D01*
X153155516Y-87828854D01*
X152522654Y-88461716D01*
X152493578Y-88485578D01*
X152437983Y-88553322D01*
X152398355Y-88601608D01*
X152380926Y-88634216D01*
X152327598Y-88733986D01*
X152284026Y-88877623D01*
X152273000Y-88989574D01*
X152269314Y-89027000D01*
X152273000Y-89064423D01*
X152273001Y-93053567D01*
X152269314Y-93091000D01*
X152284027Y-93240378D01*
X152327599Y-93384015D01*
X152398355Y-93516392D01*
X152444619Y-93572764D01*
X152493579Y-93632422D01*
X152522649Y-93656279D01*
X154600673Y-95734303D01*
X154572598Y-95731538D01*
X154541510Y-95734600D01*
X131374485Y-95734600D01*
X131343399Y-95731538D01*
X131312313Y-95734600D01*
X131312312Y-95734600D01*
X131219310Y-95743760D01*
X131099990Y-95779955D01*
X130990023Y-95838734D01*
X130893636Y-95917836D01*
X130873816Y-95941987D01*
X128479383Y-98336420D01*
X128455237Y-98356236D01*
X128435421Y-98380382D01*
X128435419Y-98380384D01*
X128376134Y-98452624D01*
X128317356Y-98562590D01*
X128281160Y-98681911D01*
X128268938Y-98806000D01*
X128272001Y-98837098D01*
X128272000Y-106852112D01*
X128268938Y-106883200D01*
X128272000Y-106914287D01*
X128281160Y-107007289D01*
X128317355Y-107126609D01*
X128350848Y-107189269D01*
X127240980Y-106079401D01*
X127240982Y-99457395D01*
X131323378Y-95375000D01*
X150622989Y-95375000D01*
X150747268Y-95458041D01*
X150894315Y-95518949D01*
X151050419Y-95550000D01*
X151209581Y-95550000D01*
X151365685Y-95518949D01*
X151512732Y-95458041D01*
X151645070Y-95369615D01*
X151757615Y-95257070D01*
X151846041Y-95124732D01*
X151906949Y-94977685D01*
X151938000Y-94821581D01*
X151938000Y-94662419D01*
X151906949Y-94506315D01*
X151846041Y-94359268D01*
X151757615Y-94226930D01*
X151645070Y-94114385D01*
X151512732Y-94025959D01*
X151365685Y-93965051D01*
X151209581Y-93934000D01*
X151050419Y-93934000D01*
X150894315Y-93965051D01*
X150747268Y-94025959D01*
X150622989Y-94109000D01*
X131092267Y-94109000D01*
X131061179Y-94105938D01*
X130937090Y-94118160D01*
X130817770Y-94154355D01*
X130707803Y-94213134D01*
X130611416Y-94292236D01*
X130591600Y-94316382D01*
X126182364Y-98725619D01*
X126158219Y-98745434D01*
X126138403Y-98769580D01*
X126138401Y-98769582D01*
X126079116Y-98841822D01*
X126020338Y-98951788D01*
X125984142Y-99071109D01*
X125971920Y-99195198D01*
X125974983Y-99226296D01*
X125974981Y-106310513D01*
X125971919Y-106341599D01*
X125982732Y-106451384D01*
X125984141Y-106465688D01*
X126020336Y-106585008D01*
X126079115Y-106694975D01*
X126158217Y-106791362D01*
X126182368Y-106811182D01*
X131404396Y-112033213D01*
X131424216Y-112057364D01*
X131520603Y-112136466D01*
X131630570Y-112195245D01*
X131749890Y-112231440D01*
X131873980Y-112243662D01*
X131905068Y-112240600D01*
X143612589Y-112240600D01*
X143736868Y-112323641D01*
X143883915Y-112384549D01*
X144040019Y-112415600D01*
X144199181Y-112415600D01*
X144355285Y-112384549D01*
X144502332Y-112323641D01*
X144634670Y-112235215D01*
X144747215Y-112122670D01*
X144835641Y-111990332D01*
X144896549Y-111843285D01*
X144896605Y-111843000D01*
X147397313Y-111843000D01*
X147412025Y-111992378D01*
X147455597Y-112136016D01*
X147526355Y-112268393D01*
X147621578Y-112384422D01*
X147737607Y-112479645D01*
X147869984Y-112550403D01*
X148013622Y-112593975D01*
X148163000Y-112608687D01*
X148226500Y-112605000D01*
X148417000Y-112414500D01*
X148417000Y-111249000D01*
X147591500Y-111249000D01*
X147401000Y-111439500D01*
X147397313Y-111843000D01*
X144896605Y-111843000D01*
X144927600Y-111687181D01*
X144927600Y-111528019D01*
X144896549Y-111371915D01*
X144835641Y-111224868D01*
X144747215Y-111092530D01*
X144634670Y-110979985D01*
X144502332Y-110891559D01*
X144355285Y-110830651D01*
X144199181Y-110799600D01*
X144040019Y-110799600D01*
X143883915Y-110830651D01*
X143736868Y-110891559D01*
X143612589Y-110974600D01*
X132136177Y-110974600D01*
X131926329Y-110764752D01*
X131988990Y-110798245D01*
X132108310Y-110834440D01*
X132201312Y-110843600D01*
X132201313Y-110843600D01*
X132232399Y-110846662D01*
X132263485Y-110843600D01*
X142978448Y-110843600D01*
X143009536Y-110846662D01*
X143040624Y-110843600D01*
X143133626Y-110834440D01*
X143252946Y-110798245D01*
X143362913Y-110739466D01*
X143459300Y-110660364D01*
X143479120Y-110636213D01*
X144215184Y-109900150D01*
X144264915Y-109920749D01*
X144421019Y-109951800D01*
X144580181Y-109951800D01*
X144736285Y-109920749D01*
X144803277Y-109893000D01*
X147397313Y-109893000D01*
X147401000Y-110296500D01*
X147591500Y-110487000D01*
X148417000Y-110487000D01*
X148417000Y-109321500D01*
X148226500Y-109131000D01*
X148163000Y-109127313D01*
X148013622Y-109142025D01*
X147869984Y-109185597D01*
X147737607Y-109256355D01*
X147621578Y-109351578D01*
X147526355Y-109467607D01*
X147455597Y-109599984D01*
X147412025Y-109743622D01*
X147397313Y-109893000D01*
X144803277Y-109893000D01*
X144883332Y-109859841D01*
X145015670Y-109771415D01*
X145128215Y-109658870D01*
X145216641Y-109526532D01*
X145277549Y-109379485D01*
X145308600Y-109223381D01*
X145308600Y-109064219D01*
X145277549Y-108908115D01*
X145216641Y-108761068D01*
X145128215Y-108628730D01*
X145015670Y-108516185D01*
X144883332Y-108427759D01*
X144736285Y-108366851D01*
X144580181Y-108335800D01*
X144421019Y-108335800D01*
X144264915Y-108366851D01*
X144117868Y-108427759D01*
X143985530Y-108516185D01*
X143984979Y-108516736D01*
X143952246Y-108519960D01*
X143832926Y-108556155D01*
X143820156Y-108562981D01*
X143722959Y-108614934D01*
X143674560Y-108654654D01*
X143626572Y-108694036D01*
X143606756Y-108718182D01*
X142747339Y-109577600D01*
X132494597Y-109577600D01*
X129538000Y-106621003D01*
X129538000Y-99068197D01*
X131605597Y-97000600D01*
X154310401Y-97000600D01*
X155921343Y-98611543D01*
X155876740Y-98611543D01*
X155239184Y-97973987D01*
X155219364Y-97949836D01*
X155122977Y-97870734D01*
X155013010Y-97811955D01*
X154893690Y-97775760D01*
X154800688Y-97766600D01*
X154769600Y-97763538D01*
X154738512Y-97766600D01*
X131552285Y-97766600D01*
X131521199Y-97763538D01*
X131490113Y-97766600D01*
X131490112Y-97766600D01*
X131397110Y-97775760D01*
X131277790Y-97811955D01*
X131216720Y-97844598D01*
X131167823Y-97870734D01*
X131113452Y-97915355D01*
X131071436Y-97949836D01*
X131051620Y-97973982D01*
X129952582Y-99073021D01*
X129928437Y-99092836D01*
X129908621Y-99116982D01*
X129908619Y-99116984D01*
X129849334Y-99189224D01*
X129790556Y-99299190D01*
X129754360Y-99418511D01*
X129742138Y-99542600D01*
X129745201Y-99573698D01*
X129745200Y-106521912D01*
X129742138Y-106553000D01*
X129750686Y-106639790D01*
X129754360Y-106677089D01*
X129790555Y-106796409D01*
X129849334Y-106906376D01*
X129928436Y-107002764D01*
X129952587Y-107022584D01*
X132139015Y-109209012D01*
X132158835Y-109233163D01*
X132255222Y-109312265D01*
X132365189Y-109371044D01*
X132463797Y-109400956D01*
X132484509Y-109407239D01*
X132608599Y-109419461D01*
X132639687Y-109416399D01*
X142340713Y-109416399D01*
X142371801Y-109419461D01*
X142402889Y-109416399D01*
X142495891Y-109407239D01*
X142615211Y-109371044D01*
X142725178Y-109312265D01*
X142750602Y-109291400D01*
X142751381Y-109291400D01*
X142907485Y-109260349D01*
X143054532Y-109199441D01*
X143186870Y-109111015D01*
X143299415Y-108998470D01*
X143387841Y-108866132D01*
X143448749Y-108719085D01*
X143479800Y-108562981D01*
X143479800Y-108403819D01*
X143448749Y-108247715D01*
X143387841Y-108100668D01*
X143299415Y-107968330D01*
X143186870Y-107855785D01*
X143054532Y-107767359D01*
X142907485Y-107706451D01*
X142751381Y-107675400D01*
X142592219Y-107675400D01*
X142436115Y-107706451D01*
X142289068Y-107767359D01*
X142156730Y-107855785D01*
X142044185Y-107968330D01*
X141955759Y-108100668D01*
X141935160Y-108150399D01*
X141816637Y-108150399D01*
X141822442Y-108139537D01*
X141704489Y-107899200D01*
X140716000Y-107899200D01*
X140716000Y-107919200D01*
X139954000Y-107919200D01*
X139954000Y-107899200D01*
X138965511Y-107899200D01*
X138847558Y-108139537D01*
X138853363Y-108150399D01*
X136826099Y-108150399D01*
X136651100Y-107975400D01*
X135610600Y-107975400D01*
X135610600Y-107995400D01*
X134848600Y-107995400D01*
X134848600Y-107975400D01*
X133808100Y-107975400D01*
X133633101Y-108150399D01*
X132870796Y-108150399D01*
X131011200Y-106290803D01*
X131011200Y-99804797D01*
X131783398Y-99032600D01*
X134245748Y-99032600D01*
X134095002Y-99216286D01*
X133968902Y-99452202D01*
X133891250Y-99708186D01*
X133865030Y-99974400D01*
X133891250Y-100240614D01*
X133968902Y-100496598D01*
X134095002Y-100732514D01*
X134264703Y-100939297D01*
X134471486Y-101108998D01*
X134707402Y-101235098D01*
X134738067Y-101244400D01*
X134707402Y-101253702D01*
X134471486Y-101379802D01*
X134264703Y-101549503D01*
X134095002Y-101756286D01*
X133968902Y-101992202D01*
X133891250Y-102248186D01*
X133865030Y-102514400D01*
X133891250Y-102780614D01*
X133932432Y-102916371D01*
X133628986Y-103219817D01*
X133604835Y-103239637D01*
X133525733Y-103336025D01*
X133466954Y-103445992D01*
X133448970Y-103505279D01*
X133430759Y-103565312D01*
X133418537Y-103689401D01*
X133421599Y-103720490D01*
X133421600Y-105587303D01*
X133418537Y-105618401D01*
X133430759Y-105742490D01*
X133466955Y-105861811D01*
X133525733Y-105971777D01*
X133574126Y-106030744D01*
X133604836Y-106068165D01*
X133628982Y-106087981D01*
X133795717Y-106254716D01*
X133742955Y-106319007D01*
X133672197Y-106451384D01*
X133628625Y-106595022D01*
X133613913Y-106744400D01*
X133617600Y-107022900D01*
X133808100Y-107213400D01*
X134848600Y-107213400D01*
X134848600Y-107193400D01*
X135610600Y-107193400D01*
X135610600Y-107213400D01*
X136651100Y-107213400D01*
X136841600Y-107022900D01*
X136843725Y-106862401D01*
X138865976Y-106862401D01*
X138847558Y-106896863D01*
X138965511Y-107137200D01*
X139954000Y-107137200D01*
X139954000Y-107117200D01*
X140716000Y-107117200D01*
X140716000Y-107137200D01*
X141704489Y-107137200D01*
X141822442Y-106896863D01*
X141678011Y-106626623D01*
X141517525Y-106429874D01*
X142766026Y-105181373D01*
X142773400Y-105199176D01*
X142773400Y-105314241D01*
X142769714Y-105351664D01*
X142773400Y-105389087D01*
X142773400Y-105389090D01*
X142784426Y-105501042D01*
X142827998Y-105644679D01*
X142898755Y-105777056D01*
X142993979Y-105893086D01*
X143023049Y-105916943D01*
X144923442Y-107817337D01*
X144981788Y-107888432D01*
X145097818Y-107983655D01*
X145230195Y-108054412D01*
X145373832Y-108097984D01*
X145485784Y-108109010D01*
X145485785Y-108109010D01*
X145523210Y-108112696D01*
X145560636Y-108109010D01*
X152675180Y-108109010D01*
X156749010Y-112182841D01*
X156763959Y-112218932D01*
X156852385Y-112351270D01*
X156964930Y-112463815D01*
X157097268Y-112552241D01*
X157244315Y-112613149D01*
X157400419Y-112644200D01*
X157559581Y-112644200D01*
X157715685Y-112613149D01*
X157862732Y-112552241D01*
X157995070Y-112463815D01*
X158107615Y-112351270D01*
X158196041Y-112218932D01*
X158256949Y-112071885D01*
X158288000Y-111915781D01*
X158288000Y-111756619D01*
X158256949Y-111600515D01*
X158196041Y-111453468D01*
X158107615Y-111321130D01*
X157995070Y-111208585D01*
X157862732Y-111120159D01*
X157826641Y-111105210D01*
X154486887Y-107765457D01*
X154643027Y-107765457D01*
X162451921Y-115574352D01*
X162475778Y-115603422D01*
X162591808Y-115698645D01*
X162724185Y-115769402D01*
X162867822Y-115812974D01*
X162979774Y-115824000D01*
X162979776Y-115824000D01*
X163017199Y-115827686D01*
X163054622Y-115824000D01*
X164213543Y-115824000D01*
X164213543Y-116062000D01*
X164223351Y-116161585D01*
X164252399Y-116257343D01*
X164299571Y-116345595D01*
X164363052Y-116422948D01*
X164440405Y-116486429D01*
X164528657Y-116533601D01*
X164624415Y-116562649D01*
X164724000Y-116572457D01*
X165543912Y-116572457D01*
X164768370Y-117348000D01*
X159783776Y-117348000D01*
X159747685Y-117333051D01*
X159591581Y-117302000D01*
X159432419Y-117302000D01*
X159276315Y-117333051D01*
X159129268Y-117393959D01*
X158996930Y-117482385D01*
X158884385Y-117594930D01*
X158795959Y-117727268D01*
X158781009Y-117763361D01*
X156205654Y-120338716D01*
X156176578Y-120362578D01*
X156143891Y-120402408D01*
X156081355Y-120478608D01*
X156051328Y-120534785D01*
X156010598Y-120610986D01*
X155967026Y-120754623D01*
X155962763Y-120797909D01*
X155952314Y-120904000D01*
X155956000Y-120941423D01*
X155956001Y-122524657D01*
X155952293Y-122526639D01*
X155743440Y-122698041D01*
X155572039Y-122906894D01*
X155448000Y-123138954D01*
X155323961Y-122906893D01*
X155152559Y-122698040D01*
X154943706Y-122526639D01*
X154705427Y-122399276D01*
X154446880Y-122320846D01*
X154178000Y-122294364D01*
X153909119Y-122320846D01*
X153650572Y-122399276D01*
X153412293Y-122526639D01*
X153203440Y-122698041D01*
X153047416Y-122888157D01*
X152881583Y-122642422D01*
X152656710Y-122419606D01*
X152392689Y-122244941D01*
X152261526Y-122171337D01*
X152019000Y-122288999D01*
X152019000Y-123444000D01*
X152039000Y-123444000D01*
X152039000Y-124206000D01*
X152019000Y-124206000D01*
X152019000Y-125361001D01*
X152261526Y-125478663D01*
X152392689Y-125405059D01*
X152656710Y-125230394D01*
X152881583Y-125007578D01*
X153047416Y-124761843D01*
X153203441Y-124951960D01*
X153412294Y-125123361D01*
X153650573Y-125250724D01*
X153909120Y-125329154D01*
X154178000Y-125355636D01*
X154446881Y-125329154D01*
X154705428Y-125250724D01*
X154943707Y-125123361D01*
X155152560Y-124951960D01*
X155323961Y-124743107D01*
X155448000Y-124511046D01*
X155572039Y-124743107D01*
X155743441Y-124951960D01*
X155952294Y-125123361D01*
X156190573Y-125250724D01*
X156449120Y-125329154D01*
X156718000Y-125355636D01*
X156986881Y-125329154D01*
X157245428Y-125250724D01*
X157483707Y-125123361D01*
X157692560Y-124951960D01*
X157863961Y-124743107D01*
X157991324Y-124504827D01*
X158069754Y-124246280D01*
X158089600Y-124044777D01*
X158089600Y-123605223D01*
X160426400Y-123605223D01*
X160426400Y-124044778D01*
X160446246Y-124246281D01*
X160524676Y-124504828D01*
X160652039Y-124743107D01*
X160823441Y-124951960D01*
X161032294Y-125123361D01*
X161270573Y-125250724D01*
X161529120Y-125329154D01*
X161798000Y-125355636D01*
X162066881Y-125329154D01*
X162325428Y-125250724D01*
X162563707Y-125123361D01*
X162772560Y-124951960D01*
X162943961Y-124743107D01*
X163068000Y-124511046D01*
X163192039Y-124743107D01*
X163363441Y-124951960D01*
X163572294Y-125123361D01*
X163810573Y-125250724D01*
X164069120Y-125329154D01*
X164338000Y-125355636D01*
X164606881Y-125329154D01*
X164865428Y-125250724D01*
X165103707Y-125123361D01*
X165312560Y-124951960D01*
X165483961Y-124743107D01*
X165608000Y-124511046D01*
X165732039Y-124743107D01*
X165903441Y-124951960D01*
X166112294Y-125123361D01*
X166350573Y-125250724D01*
X166609120Y-125329154D01*
X166878000Y-125355636D01*
X167146881Y-125329154D01*
X167405428Y-125250724D01*
X167643707Y-125123361D01*
X167852560Y-124951960D01*
X168023961Y-124743107D01*
X168148000Y-124511046D01*
X168272039Y-124743107D01*
X168443441Y-124951960D01*
X168652294Y-125123361D01*
X168890573Y-125250724D01*
X169149120Y-125329154D01*
X169418000Y-125355636D01*
X169686881Y-125329154D01*
X169945428Y-125250724D01*
X170183707Y-125123361D01*
X170392560Y-124951960D01*
X170563961Y-124743107D01*
X170688000Y-124511046D01*
X170812039Y-124743107D01*
X170983441Y-124951960D01*
X171192294Y-125123361D01*
X171430573Y-125250724D01*
X171689120Y-125329154D01*
X171958000Y-125355636D01*
X172226881Y-125329154D01*
X172485428Y-125250724D01*
X172723707Y-125123361D01*
X172932560Y-124951960D01*
X173103961Y-124743107D01*
X173228000Y-124511046D01*
X173352039Y-124743107D01*
X173523441Y-124951960D01*
X173732294Y-125123361D01*
X173970573Y-125250724D01*
X174229120Y-125329154D01*
X174498000Y-125355636D01*
X174766881Y-125329154D01*
X175025428Y-125250724D01*
X175263707Y-125123361D01*
X175472560Y-124951960D01*
X175643961Y-124743107D01*
X175771324Y-124504827D01*
X175849754Y-124246280D01*
X175869600Y-124044777D01*
X175869600Y-123605222D01*
X175849754Y-123403719D01*
X175771324Y-123145172D01*
X175643961Y-122906893D01*
X175472559Y-122698040D01*
X175263706Y-122526639D01*
X175025427Y-122399276D01*
X174766880Y-122320846D01*
X174498000Y-122294364D01*
X174229119Y-122320846D01*
X173970572Y-122399276D01*
X173732293Y-122526639D01*
X173523440Y-122698041D01*
X173352039Y-122906894D01*
X173228000Y-123138954D01*
X173103961Y-122906893D01*
X172932559Y-122698040D01*
X172723706Y-122526639D01*
X172485427Y-122399276D01*
X172226880Y-122320846D01*
X171958000Y-122294364D01*
X171689119Y-122320846D01*
X171430572Y-122399276D01*
X171192293Y-122526639D01*
X170983440Y-122698041D01*
X170812039Y-122906894D01*
X170688000Y-123138954D01*
X170563961Y-122906893D01*
X170392559Y-122698040D01*
X170183706Y-122526639D01*
X169945427Y-122399276D01*
X169686880Y-122320846D01*
X169418000Y-122294364D01*
X169149119Y-122320846D01*
X168890572Y-122399276D01*
X168652293Y-122526639D01*
X168443440Y-122698041D01*
X168272039Y-122906894D01*
X168148000Y-123138954D01*
X168023961Y-122906893D01*
X167852559Y-122698040D01*
X167643706Y-122526639D01*
X167405427Y-122399276D01*
X167146880Y-122320846D01*
X166878000Y-122294364D01*
X166609119Y-122320846D01*
X166350572Y-122399276D01*
X166112293Y-122526639D01*
X165903440Y-122698041D01*
X165732039Y-122906894D01*
X165608000Y-123138954D01*
X165483961Y-122906893D01*
X165312559Y-122698040D01*
X165103706Y-122526639D01*
X164865427Y-122399276D01*
X164606880Y-122320846D01*
X164338000Y-122294364D01*
X164069119Y-122320846D01*
X163810572Y-122399276D01*
X163572293Y-122526639D01*
X163363440Y-122698041D01*
X163192039Y-122906894D01*
X163068000Y-123138954D01*
X162943961Y-122906893D01*
X162772559Y-122698040D01*
X162563706Y-122526639D01*
X162325427Y-122399276D01*
X162066880Y-122320846D01*
X161798000Y-122294364D01*
X161529119Y-122320846D01*
X161270572Y-122399276D01*
X161032293Y-122526639D01*
X160823440Y-122698041D01*
X160652039Y-122906894D01*
X160524676Y-123145173D01*
X160446246Y-123403720D01*
X160426400Y-123605223D01*
X158089600Y-123605223D01*
X158089600Y-123605222D01*
X158069754Y-123403719D01*
X157991324Y-123145172D01*
X157863961Y-122906893D01*
X157692559Y-122698040D01*
X157483706Y-122526639D01*
X157480000Y-122524658D01*
X157480000Y-121219630D01*
X159827630Y-118872000D01*
X165046577Y-118872000D01*
X165084000Y-118875686D01*
X165121423Y-118872000D01*
X165121426Y-118872000D01*
X165233378Y-118860974D01*
X165377015Y-118817402D01*
X165509392Y-118746645D01*
X165625422Y-118651422D01*
X165649284Y-118622346D01*
X166741131Y-117530500D01*
X167608470Y-117530500D01*
X168664000Y-118586031D01*
X168664000Y-118615679D01*
X168702737Y-118810423D01*
X168778722Y-118993867D01*
X168889035Y-119158962D01*
X169029438Y-119299365D01*
X169194533Y-119409678D01*
X169377977Y-119485663D01*
X169572721Y-119524400D01*
X169771279Y-119524400D01*
X169966023Y-119485663D01*
X170149467Y-119409678D01*
X170314562Y-119299365D01*
X170454965Y-119158962D01*
X170565278Y-118993867D01*
X170641263Y-118810423D01*
X170680000Y-118615679D01*
X170680000Y-118417121D01*
X170641263Y-118222377D01*
X170565278Y-118038933D01*
X170454965Y-117873838D01*
X170314562Y-117733435D01*
X170149467Y-117623122D01*
X169966023Y-117547137D01*
X169771279Y-117508400D01*
X169741631Y-117508400D01*
X168750290Y-116517060D01*
X168807595Y-116486429D01*
X168884948Y-116422948D01*
X168948429Y-116345595D01*
X168995601Y-116257343D01*
X169024649Y-116161585D01*
X169034457Y-116062000D01*
X169034457Y-114062000D01*
X169024649Y-113962415D01*
X168995601Y-113866657D01*
X168948429Y-113778405D01*
X168884948Y-113701052D01*
X168807595Y-113637571D01*
X168719343Y-113590399D01*
X168623585Y-113561351D01*
X168524000Y-113551543D01*
X167767000Y-113551543D01*
X167767000Y-110083892D01*
X167774000Y-110075362D01*
X167813052Y-110122948D01*
X167890405Y-110186429D01*
X167978657Y-110233601D01*
X168074415Y-110262649D01*
X168174000Y-110272457D01*
X169674000Y-110272457D01*
X169773585Y-110262649D01*
X169869343Y-110233601D01*
X169957595Y-110186429D01*
X170034948Y-110122948D01*
X170098429Y-110045595D01*
X170145601Y-109957343D01*
X170174649Y-109861585D01*
X170177276Y-109834907D01*
X170721121Y-110378752D01*
X170744979Y-110407823D01*
X170774049Y-110431680D01*
X170861008Y-110503046D01*
X170907109Y-110527687D01*
X170993386Y-110573803D01*
X171137023Y-110617375D01*
X171160810Y-110619718D01*
X173888400Y-113347308D01*
X173888401Y-116143368D01*
X169965970Y-120065800D01*
X159605976Y-120065800D01*
X159569885Y-120050851D01*
X159413781Y-120019800D01*
X159254619Y-120019800D01*
X159098515Y-120050851D01*
X158951468Y-120111759D01*
X158819130Y-120200185D01*
X158706585Y-120312730D01*
X158618159Y-120445068D01*
X158557251Y-120592115D01*
X158526200Y-120748219D01*
X158526200Y-120907381D01*
X158557251Y-121063485D01*
X158618159Y-121210532D01*
X158706585Y-121342870D01*
X158819130Y-121455415D01*
X158951468Y-121543841D01*
X159098515Y-121604749D01*
X159254619Y-121635800D01*
X159413781Y-121635800D01*
X159569885Y-121604749D01*
X159605976Y-121589800D01*
X170244177Y-121589800D01*
X170281600Y-121593486D01*
X170319023Y-121589800D01*
X170319026Y-121589800D01*
X170430978Y-121578774D01*
X170574615Y-121535202D01*
X170706992Y-121464445D01*
X170823022Y-121369222D01*
X170846884Y-121340146D01*
X175162752Y-117024279D01*
X175184310Y-117006587D01*
X175065053Y-117125844D01*
X174787081Y-117541859D01*
X174595611Y-118004109D01*
X174498000Y-118494832D01*
X174498000Y-118995168D01*
X174595611Y-119485891D01*
X174787081Y-119948141D01*
X175065053Y-120364156D01*
X175418844Y-120717947D01*
X175834859Y-120995919D01*
X176297109Y-121187389D01*
X176787832Y-121285000D01*
X177288168Y-121285000D01*
X177778891Y-121187389D01*
X178241141Y-120995919D01*
X178657156Y-120717947D01*
X178995000Y-120380103D01*
X178995000Y-121043514D01*
X176646005Y-123392510D01*
X176623764Y-123410763D01*
X176605511Y-123433004D01*
X176550909Y-123499536D01*
X176496773Y-123600817D01*
X176463437Y-123710712D01*
X176452181Y-123825000D01*
X176455001Y-123853633D01*
X176455000Y-125782000D01*
X126603103Y-125782000D01*
X126940947Y-125444156D01*
X127218919Y-125028141D01*
X127410389Y-124565891D01*
X127508000Y-124075168D01*
X127508000Y-123605223D01*
X137566400Y-123605223D01*
X137566400Y-124044778D01*
X137586246Y-124246281D01*
X137664676Y-124504828D01*
X137792039Y-124743107D01*
X137963441Y-124951960D01*
X138172294Y-125123361D01*
X138410573Y-125250724D01*
X138669120Y-125329154D01*
X138938000Y-125355636D01*
X139206881Y-125329154D01*
X139465428Y-125250724D01*
X139703707Y-125123361D01*
X139912560Y-124951960D01*
X140083961Y-124743107D01*
X140208000Y-124511046D01*
X140332039Y-124743107D01*
X140503441Y-124951960D01*
X140712294Y-125123361D01*
X140950573Y-125250724D01*
X141209120Y-125329154D01*
X141478000Y-125355636D01*
X141746881Y-125329154D01*
X142005428Y-125250724D01*
X142243707Y-125123361D01*
X142452560Y-124951960D01*
X142623961Y-124743107D01*
X142748000Y-124511046D01*
X142872039Y-124743107D01*
X143043441Y-124951960D01*
X143252294Y-125123361D01*
X143490573Y-125250724D01*
X143749120Y-125329154D01*
X144018000Y-125355636D01*
X144286881Y-125329154D01*
X144545428Y-125250724D01*
X144783707Y-125123361D01*
X144992560Y-124951960D01*
X145163961Y-124743107D01*
X145288000Y-124511046D01*
X145412039Y-124743107D01*
X145583441Y-124951960D01*
X145792294Y-125123361D01*
X146030573Y-125250724D01*
X146289120Y-125329154D01*
X146558000Y-125355636D01*
X146826881Y-125329154D01*
X147085428Y-125250724D01*
X147323707Y-125123361D01*
X147532560Y-124951960D01*
X147703961Y-124743107D01*
X147828000Y-124511046D01*
X147952039Y-124743107D01*
X148123441Y-124951960D01*
X148332294Y-125123361D01*
X148570573Y-125250724D01*
X148829120Y-125329154D01*
X149098000Y-125355636D01*
X149366881Y-125329154D01*
X149625428Y-125250724D01*
X149863707Y-125123361D01*
X150072560Y-124951960D01*
X150228585Y-124761843D01*
X150394417Y-125007578D01*
X150619290Y-125230394D01*
X150883311Y-125405059D01*
X151014474Y-125478663D01*
X151257000Y-125361001D01*
X151257000Y-124206000D01*
X151237000Y-124206000D01*
X151237000Y-123444000D01*
X151257000Y-123444000D01*
X151257000Y-122288999D01*
X151014474Y-122171337D01*
X150883311Y-122244941D01*
X150619290Y-122419606D01*
X150394417Y-122642422D01*
X150228584Y-122888157D01*
X150072559Y-122698040D01*
X149863706Y-122526639D01*
X149625427Y-122399276D01*
X149366880Y-122320846D01*
X149098000Y-122294364D01*
X148829119Y-122320846D01*
X148570572Y-122399276D01*
X148332293Y-122526639D01*
X148123440Y-122698041D01*
X147952039Y-122906894D01*
X147828000Y-123138954D01*
X147703961Y-122906893D01*
X147532559Y-122698040D01*
X147323706Y-122526639D01*
X147085427Y-122399276D01*
X146826880Y-122320846D01*
X146558000Y-122294364D01*
X146289119Y-122320846D01*
X146030572Y-122399276D01*
X145792293Y-122526639D01*
X145583440Y-122698041D01*
X145412039Y-122906894D01*
X145288000Y-123138954D01*
X145163961Y-122906893D01*
X144992559Y-122698040D01*
X144783706Y-122526639D01*
X144545427Y-122399276D01*
X144286880Y-122320846D01*
X144018000Y-122294364D01*
X143749119Y-122320846D01*
X143490572Y-122399276D01*
X143252293Y-122526639D01*
X143043440Y-122698041D01*
X142872039Y-122906894D01*
X142748000Y-123138954D01*
X142623961Y-122906893D01*
X142452559Y-122698040D01*
X142243706Y-122526639D01*
X142005427Y-122399276D01*
X141746880Y-122320846D01*
X141478000Y-122294364D01*
X141209119Y-122320846D01*
X140950572Y-122399276D01*
X140712293Y-122526639D01*
X140503440Y-122698041D01*
X140332039Y-122906894D01*
X140208000Y-123138954D01*
X140083961Y-122906893D01*
X139912559Y-122698040D01*
X139703706Y-122526639D01*
X139465427Y-122399276D01*
X139206880Y-122320846D01*
X138938000Y-122294364D01*
X138669119Y-122320846D01*
X138410572Y-122399276D01*
X138172293Y-122526639D01*
X137963440Y-122698041D01*
X137792039Y-122906894D01*
X137664676Y-123145173D01*
X137586246Y-123403720D01*
X137566400Y-123605223D01*
X127508000Y-123605223D01*
X127508000Y-123574832D01*
X127410389Y-123084109D01*
X127218919Y-122621859D01*
X126940947Y-122205844D01*
X126587156Y-121852053D01*
X126171141Y-121574081D01*
X125708891Y-121382611D01*
X125218168Y-121285000D01*
X124717832Y-121285000D01*
X124227109Y-121382611D01*
X123764859Y-121574081D01*
X123348844Y-121852053D01*
X122995053Y-122205844D01*
X122717081Y-122621859D01*
X122525611Y-123084109D01*
X122428000Y-123574832D01*
X122428000Y-124075168D01*
X122525611Y-124565891D01*
X122717081Y-125028141D01*
X122995053Y-125444156D01*
X123332897Y-125782000D01*
X111581000Y-125782000D01*
X111581000Y-117131000D01*
X143285543Y-117131000D01*
X143285543Y-118581000D01*
X143300155Y-118729358D01*
X143343429Y-118872014D01*
X143413703Y-119003487D01*
X143508276Y-119118724D01*
X143623513Y-119213297D01*
X143754986Y-119283571D01*
X143897642Y-119326845D01*
X144046000Y-119341457D01*
X145246000Y-119341457D01*
X145394358Y-119326845D01*
X145537014Y-119283571D01*
X145668487Y-119213297D01*
X145783724Y-119118724D01*
X145878297Y-119003487D01*
X145894518Y-118973141D01*
X145931338Y-119025589D01*
X146158467Y-119242486D01*
X146423546Y-119410905D01*
X146524663Y-119468442D01*
X146765000Y-119350489D01*
X146765000Y-118237000D01*
X146745000Y-118237000D01*
X146745000Y-117475000D01*
X146765000Y-117475000D01*
X146765000Y-116361511D01*
X147527000Y-116361511D01*
X147527000Y-117475000D01*
X147547000Y-117475000D01*
X147547000Y-118237000D01*
X147527000Y-118237000D01*
X147527000Y-119350489D01*
X147767337Y-119468442D01*
X147868454Y-119410905D01*
X148133533Y-119242486D01*
X148360662Y-119025589D01*
X148538552Y-118772196D01*
X148681104Y-118945897D01*
X148887887Y-119115598D01*
X149123803Y-119241698D01*
X149379787Y-119319350D01*
X149646000Y-119345570D01*
X149912214Y-119319350D01*
X150168198Y-119241698D01*
X150404114Y-119115598D01*
X150610897Y-118945897D01*
X150780598Y-118739113D01*
X150896000Y-118523212D01*
X151011402Y-118739114D01*
X151181104Y-118945897D01*
X151387887Y-119115598D01*
X151623803Y-119241698D01*
X151879787Y-119319350D01*
X152146000Y-119345570D01*
X152412214Y-119319350D01*
X152668198Y-119241698D01*
X152904114Y-119115598D01*
X153110897Y-118945897D01*
X153280598Y-118739113D01*
X153406698Y-118503197D01*
X153484350Y-118247213D01*
X153504000Y-118047705D01*
X153504000Y-117664294D01*
X153484350Y-117464786D01*
X153406698Y-117208802D01*
X153280598Y-116972886D01*
X153110896Y-116766103D01*
X152904113Y-116596402D01*
X152779000Y-116529528D01*
X152779000Y-114331085D01*
X152782062Y-114299999D01*
X152779000Y-114268912D01*
X152769840Y-114175910D01*
X152733645Y-114056590D01*
X152674866Y-113946623D01*
X152595764Y-113850236D01*
X152571619Y-113830421D01*
X151636000Y-112894803D01*
X151636000Y-112140535D01*
X151638000Y-112138098D01*
X151655986Y-112160014D01*
X151756070Y-112242150D01*
X151870254Y-112303183D01*
X151994151Y-112340767D01*
X152123000Y-112353457D01*
X152423000Y-112353457D01*
X152551849Y-112340767D01*
X152675746Y-112303183D01*
X152789930Y-112242150D01*
X152890014Y-112160014D01*
X152972150Y-112059930D01*
X153033183Y-111945746D01*
X153070767Y-111821849D01*
X153083457Y-111693000D01*
X153083457Y-110043000D01*
X153070767Y-109914151D01*
X153033183Y-109790254D01*
X152972150Y-109676070D01*
X152890014Y-109575986D01*
X152789930Y-109493850D01*
X152675746Y-109432817D01*
X152551849Y-109395233D01*
X152423000Y-109382543D01*
X152123000Y-109382543D01*
X151994151Y-109395233D01*
X151870254Y-109432817D01*
X151756070Y-109493850D01*
X151655986Y-109575986D01*
X151638000Y-109597902D01*
X151620014Y-109575986D01*
X151519930Y-109493850D01*
X151405746Y-109432817D01*
X151281849Y-109395233D01*
X151153000Y-109382543D01*
X150853000Y-109382543D01*
X150724151Y-109395233D01*
X150600254Y-109432817D01*
X150486070Y-109493850D01*
X150385986Y-109575986D01*
X150368000Y-109597902D01*
X150350014Y-109575986D01*
X150249930Y-109493850D01*
X150135746Y-109432817D01*
X150011849Y-109395233D01*
X149883000Y-109382543D01*
X149583000Y-109382543D01*
X149454151Y-109395233D01*
X149362953Y-109422898D01*
X149304422Y-109351578D01*
X149188393Y-109256355D01*
X149056016Y-109185597D01*
X148912378Y-109142025D01*
X148763000Y-109127313D01*
X148699500Y-109131000D01*
X148509000Y-109321500D01*
X148509000Y-110487000D01*
X148763000Y-110487000D01*
X148763000Y-111249000D01*
X148509000Y-111249000D01*
X148509000Y-112414500D01*
X148699500Y-112605000D01*
X148763000Y-112608687D01*
X148912378Y-112593975D01*
X149056016Y-112550403D01*
X149100000Y-112526893D01*
X149100001Y-116483024D01*
X148887886Y-116596402D01*
X148681103Y-116766104D01*
X148538552Y-116939804D01*
X148360662Y-116686411D01*
X148133533Y-116469514D01*
X147868454Y-116301095D01*
X147767337Y-116243558D01*
X147527000Y-116361511D01*
X146765000Y-116361511D01*
X146524663Y-116243558D01*
X146423546Y-116301095D01*
X146158467Y-116469514D01*
X145931338Y-116686411D01*
X145894518Y-116738859D01*
X145878297Y-116708513D01*
X145783724Y-116593276D01*
X145668487Y-116498703D01*
X145537014Y-116428429D01*
X145394358Y-116385155D01*
X145246000Y-116370543D01*
X144046000Y-116370543D01*
X143897642Y-116385155D01*
X143754986Y-116428429D01*
X143623513Y-116498703D01*
X143508276Y-116593276D01*
X143413703Y-116708513D01*
X143343429Y-116839986D01*
X143300155Y-116982642D01*
X143285543Y-117131000D01*
X111581000Y-117131000D01*
X111581000Y-104507400D01*
X120431313Y-104507400D01*
X120446025Y-104656778D01*
X120489597Y-104800416D01*
X120560355Y-104932793D01*
X120655578Y-105048822D01*
X120771607Y-105144045D01*
X120903984Y-105214803D01*
X121047622Y-105258375D01*
X121197000Y-105273087D01*
X121475500Y-105269400D01*
X121666000Y-105078900D01*
X121666000Y-104038400D01*
X122428000Y-104038400D01*
X122428000Y-105078900D01*
X122618500Y-105269400D01*
X122897000Y-105273087D01*
X123046378Y-105258375D01*
X123190016Y-105214803D01*
X123322393Y-105144045D01*
X123438422Y-105048822D01*
X123533645Y-104932793D01*
X123604403Y-104800416D01*
X123647975Y-104656778D01*
X123662687Y-104507400D01*
X123659000Y-104228900D01*
X123468500Y-104038400D01*
X122428000Y-104038400D01*
X121666000Y-104038400D01*
X120625500Y-104038400D01*
X120435000Y-104228900D01*
X120431313Y-104507400D01*
X111581000Y-104507400D01*
X111581000Y-102807400D01*
X120431313Y-102807400D01*
X120435000Y-103085900D01*
X120625500Y-103276400D01*
X121666000Y-103276400D01*
X121666000Y-101498400D01*
X122428000Y-101498400D01*
X122428000Y-103276400D01*
X123468500Y-103276400D01*
X123659000Y-103085900D01*
X123662687Y-102807400D01*
X123647975Y-102658022D01*
X123604403Y-102514384D01*
X123533645Y-102382007D01*
X123438422Y-102265978D01*
X123322393Y-102170755D01*
X123277586Y-102146805D01*
X123390011Y-102008977D01*
X123534442Y-101738737D01*
X123416489Y-101498400D01*
X122428000Y-101498400D01*
X121666000Y-101498400D01*
X120677511Y-101498400D01*
X120559558Y-101738737D01*
X120703989Y-102008977D01*
X120816414Y-102146805D01*
X120771607Y-102170755D01*
X120655578Y-102265978D01*
X120560355Y-102382007D01*
X120489597Y-102514384D01*
X120446025Y-102658022D01*
X120431313Y-102807400D01*
X111581000Y-102807400D01*
X111581000Y-99198737D01*
X120559558Y-99198737D01*
X120703989Y-99468977D01*
X120903733Y-99713854D01*
X121065471Y-99847400D01*
X120903733Y-99980946D01*
X120703989Y-100225823D01*
X120559558Y-100496063D01*
X120677511Y-100736400D01*
X121666000Y-100736400D01*
X121666000Y-98958400D01*
X122428000Y-98958400D01*
X122428000Y-100736400D01*
X123416489Y-100736400D01*
X123534442Y-100496063D01*
X123390011Y-100225823D01*
X123190267Y-99980946D01*
X123028529Y-99847400D01*
X123190267Y-99713854D01*
X123390011Y-99468977D01*
X123534442Y-99198737D01*
X123416489Y-98958400D01*
X122428000Y-98958400D01*
X121666000Y-98958400D01*
X120677511Y-98958400D01*
X120559558Y-99198737D01*
X111581000Y-99198737D01*
X111581000Y-97956063D01*
X120559558Y-97956063D01*
X120677511Y-98196400D01*
X121666000Y-98196400D01*
X121666000Y-97201558D01*
X122428000Y-97201558D01*
X122428000Y-98196400D01*
X123416489Y-98196400D01*
X123534442Y-97956063D01*
X123390011Y-97685823D01*
X123190267Y-97440946D01*
X122946588Y-97239742D01*
X122668339Y-97089944D01*
X122428000Y-97201558D01*
X121666000Y-97201558D01*
X121425661Y-97089944D01*
X121147412Y-97239742D01*
X120903733Y-97440946D01*
X120703989Y-97685823D01*
X120559558Y-97956063D01*
X111581000Y-97956063D01*
X111581000Y-91284219D01*
X122788400Y-91284219D01*
X122788400Y-91443381D01*
X122819451Y-91599485D01*
X122880359Y-91746532D01*
X122968785Y-91878870D01*
X123081330Y-91991415D01*
X123213668Y-92079841D01*
X123249762Y-92094791D01*
X123331116Y-92176145D01*
X123331120Y-92176150D01*
X124995522Y-93840553D01*
X125019379Y-93869623D01*
X125048449Y-93893480D01*
X125135408Y-93964846D01*
X125206165Y-94002666D01*
X125267786Y-94035603D01*
X125411423Y-94079175D01*
X125523375Y-94090201D01*
X125523378Y-94090201D01*
X125560801Y-94093887D01*
X125598224Y-94090201D01*
X137596576Y-94090201D01*
X137633999Y-94093887D01*
X137671422Y-94090201D01*
X137671425Y-94090201D01*
X137783377Y-94079175D01*
X137927014Y-94035603D01*
X138059391Y-93964846D01*
X138175421Y-93869623D01*
X138199283Y-93840547D01*
X140046639Y-91993191D01*
X140082732Y-91978241D01*
X140215070Y-91889815D01*
X140327615Y-91777270D01*
X140416041Y-91644932D01*
X140476949Y-91497885D01*
X140508000Y-91341781D01*
X140508000Y-91182619D01*
X140476949Y-91026515D01*
X140416041Y-90879468D01*
X140327615Y-90747130D01*
X140215070Y-90634585D01*
X140082732Y-90546159D01*
X139935685Y-90485251D01*
X139779581Y-90454200D01*
X139620419Y-90454200D01*
X139464315Y-90485251D01*
X139317268Y-90546159D01*
X139184930Y-90634585D01*
X139072385Y-90747130D01*
X138983959Y-90879468D01*
X138969009Y-90915561D01*
X137318369Y-92566201D01*
X136844057Y-92566201D01*
X136844057Y-91174200D01*
X136834249Y-91074615D01*
X136805201Y-90978857D01*
X136758029Y-90890605D01*
X136694548Y-90813252D01*
X136617195Y-90749771D01*
X136528943Y-90702599D01*
X136433185Y-90673551D01*
X136333600Y-90663743D01*
X136157628Y-90663743D01*
X136241714Y-90618798D01*
X136448497Y-90449097D01*
X136618198Y-90242314D01*
X136744298Y-90006398D01*
X136821950Y-89750414D01*
X136848170Y-89484200D01*
X136821950Y-89217986D01*
X136744298Y-88962002D01*
X136618198Y-88726086D01*
X136448497Y-88519303D01*
X136247909Y-88354686D01*
X136383188Y-88281858D01*
X136626867Y-88080654D01*
X136826611Y-87835777D01*
X136971042Y-87565537D01*
X136853089Y-87325200D01*
X135864600Y-87325200D01*
X135864600Y-87345200D01*
X135102600Y-87345200D01*
X135102600Y-87325200D01*
X134114111Y-87325200D01*
X133996158Y-87565537D01*
X134140589Y-87835777D01*
X134340333Y-88080654D01*
X134584012Y-88281858D01*
X134719291Y-88354686D01*
X134518703Y-88519303D01*
X134349002Y-88726086D01*
X134222902Y-88962002D01*
X134145250Y-89217986D01*
X134119030Y-89484200D01*
X134145250Y-89750414D01*
X134222902Y-90006398D01*
X134349002Y-90242314D01*
X134518703Y-90449097D01*
X134725486Y-90618798D01*
X134809572Y-90663743D01*
X134633600Y-90663743D01*
X134534015Y-90673551D01*
X134438257Y-90702599D01*
X134350005Y-90749771D01*
X134272652Y-90813252D01*
X134209171Y-90890605D01*
X134161999Y-90978857D01*
X134132951Y-91074615D01*
X134123143Y-91174200D01*
X134123143Y-92566201D01*
X130621057Y-92566201D01*
X130621057Y-91148800D01*
X130611249Y-91049215D01*
X130582201Y-90953457D01*
X130535029Y-90865205D01*
X130471548Y-90787852D01*
X130394195Y-90724371D01*
X130305943Y-90677199D01*
X130210185Y-90648151D01*
X130110600Y-90638343D01*
X129934628Y-90638343D01*
X130018714Y-90593398D01*
X130225497Y-90423697D01*
X130395198Y-90216914D01*
X130521298Y-89980998D01*
X130598950Y-89725014D01*
X130625170Y-89458800D01*
X130598950Y-89192586D01*
X130521298Y-88936602D01*
X130395198Y-88700686D01*
X130225497Y-88493903D01*
X130024909Y-88329286D01*
X130160188Y-88256458D01*
X130403867Y-88055254D01*
X130603611Y-87810377D01*
X130748042Y-87540137D01*
X130630090Y-87299802D01*
X130872600Y-87299802D01*
X130872600Y-87259342D01*
X130932159Y-87403132D01*
X131020585Y-87535470D01*
X131133130Y-87648015D01*
X131265468Y-87736441D01*
X131412515Y-87797349D01*
X131568619Y-87828400D01*
X131727781Y-87828400D01*
X131883885Y-87797349D01*
X132030932Y-87736441D01*
X132163270Y-87648015D01*
X132275815Y-87535470D01*
X132364241Y-87403132D01*
X132425149Y-87256085D01*
X132456200Y-87099981D01*
X132456200Y-86940819D01*
X132425149Y-86784715D01*
X132364241Y-86637668D01*
X132275815Y-86505330D01*
X132163270Y-86392785D01*
X132058626Y-86322863D01*
X133996158Y-86322863D01*
X134114111Y-86563200D01*
X135102600Y-86563200D01*
X135102600Y-86543200D01*
X135864600Y-86543200D01*
X135864600Y-86563200D01*
X136853089Y-86563200D01*
X136971042Y-86322863D01*
X136826611Y-86052623D01*
X136626867Y-85807746D01*
X136383188Y-85606542D01*
X136247909Y-85533714D01*
X136448497Y-85369097D01*
X136618198Y-85162314D01*
X136744298Y-84926398D01*
X136821950Y-84670414D01*
X136848170Y-84404200D01*
X136821950Y-84137986D01*
X136744298Y-83882002D01*
X136618198Y-83646086D01*
X136448497Y-83439303D01*
X136241714Y-83269602D01*
X136005798Y-83143502D01*
X135975133Y-83134200D01*
X136005798Y-83124898D01*
X136241714Y-82998798D01*
X136448497Y-82829097D01*
X136618198Y-82622314D01*
X136744298Y-82386398D01*
X136821950Y-82130414D01*
X136848170Y-81864200D01*
X136821950Y-81597986D01*
X136744298Y-81342002D01*
X136618198Y-81106086D01*
X136448497Y-80899303D01*
X136241714Y-80729602D01*
X136005798Y-80603502D01*
X135749814Y-80525850D01*
X135550306Y-80506200D01*
X135416894Y-80506200D01*
X135217386Y-80525850D01*
X134961402Y-80603502D01*
X134725486Y-80729602D01*
X134518703Y-80899303D01*
X134349002Y-81106086D01*
X134222902Y-81342002D01*
X134145250Y-81597986D01*
X134119030Y-81864200D01*
X134145250Y-82130414D01*
X134222902Y-82386398D01*
X134349002Y-82622314D01*
X134518703Y-82829097D01*
X134725486Y-82998798D01*
X134961402Y-83124898D01*
X134992067Y-83134200D01*
X134961402Y-83143502D01*
X134725486Y-83269602D01*
X134518703Y-83439303D01*
X134349002Y-83646086D01*
X134222902Y-83882002D01*
X134145250Y-84137986D01*
X134119030Y-84404200D01*
X134145250Y-84670414D01*
X134222902Y-84926398D01*
X134349002Y-85162314D01*
X134518703Y-85369097D01*
X134719291Y-85533714D01*
X134584012Y-85606542D01*
X134340333Y-85807746D01*
X134140589Y-86052623D01*
X133996158Y-86322863D01*
X132058626Y-86322863D01*
X132030932Y-86304359D01*
X131883885Y-86243451D01*
X131727781Y-86212400D01*
X131568619Y-86212400D01*
X131412515Y-86243451D01*
X131265468Y-86304359D01*
X131133130Y-86392785D01*
X131020585Y-86505330D01*
X130932159Y-86637668D01*
X130872600Y-86781458D01*
X130872600Y-86537798D01*
X130630090Y-86537798D01*
X130748042Y-86297463D01*
X130603611Y-86027223D01*
X130403867Y-85782346D01*
X130160188Y-85581142D01*
X130024909Y-85508314D01*
X130225497Y-85343697D01*
X130395198Y-85136914D01*
X130521298Y-84900998D01*
X130598950Y-84645014D01*
X130625170Y-84378800D01*
X130598950Y-84112586D01*
X130521298Y-83856602D01*
X130395198Y-83620686D01*
X130225497Y-83413903D01*
X130018714Y-83244202D01*
X129782798Y-83118102D01*
X129752133Y-83108800D01*
X129782798Y-83099498D01*
X130018714Y-82973398D01*
X130225497Y-82803697D01*
X130395198Y-82596914D01*
X130521298Y-82360998D01*
X130598950Y-82105014D01*
X130625170Y-81838800D01*
X130598950Y-81572586D01*
X130521298Y-81316602D01*
X130395198Y-81080686D01*
X130225497Y-80873903D01*
X130018714Y-80704202D01*
X129782798Y-80578102D01*
X129526814Y-80500450D01*
X129327306Y-80480800D01*
X129193894Y-80480800D01*
X128994386Y-80500450D01*
X128738402Y-80578102D01*
X128502486Y-80704202D01*
X128295703Y-80873903D01*
X128126002Y-81080686D01*
X127999902Y-81316602D01*
X127922250Y-81572586D01*
X127896030Y-81838800D01*
X127922250Y-82105014D01*
X127999902Y-82360998D01*
X128126002Y-82596914D01*
X128295703Y-82803697D01*
X128502486Y-82973398D01*
X128738402Y-83099498D01*
X128769067Y-83108800D01*
X128738402Y-83118102D01*
X128502486Y-83244202D01*
X128295703Y-83413903D01*
X128126002Y-83620686D01*
X127999902Y-83856602D01*
X127922250Y-84112586D01*
X127896030Y-84378800D01*
X127922250Y-84645014D01*
X127999902Y-84900998D01*
X128126002Y-85136914D01*
X128295703Y-85343697D01*
X128496291Y-85508314D01*
X128361012Y-85581142D01*
X128117333Y-85782346D01*
X127917589Y-86027223D01*
X127773158Y-86297463D01*
X127891111Y-86537800D01*
X128879600Y-86537800D01*
X128879600Y-86517800D01*
X129641600Y-86517800D01*
X129641600Y-86537800D01*
X129661600Y-86537800D01*
X129661600Y-87299800D01*
X129641600Y-87299800D01*
X129641600Y-87319800D01*
X128879600Y-87319800D01*
X128879600Y-87299800D01*
X127891111Y-87299800D01*
X127773158Y-87540137D01*
X127917589Y-87810377D01*
X128117333Y-88055254D01*
X128361012Y-88256458D01*
X128496291Y-88329286D01*
X128295703Y-88493903D01*
X128126002Y-88700686D01*
X127999902Y-88936602D01*
X127922250Y-89192586D01*
X127896030Y-89458800D01*
X127922250Y-89725014D01*
X127999902Y-89980998D01*
X128126002Y-90216914D01*
X128295703Y-90423697D01*
X128502486Y-90593398D01*
X128586572Y-90638343D01*
X128410600Y-90638343D01*
X128311015Y-90648151D01*
X128215257Y-90677199D01*
X128127005Y-90724371D01*
X128049652Y-90787852D01*
X127986171Y-90865205D01*
X127938999Y-90953457D01*
X127909951Y-91049215D01*
X127900143Y-91148800D01*
X127900143Y-92566201D01*
X125876432Y-92566201D01*
X124408750Y-91098520D01*
X124408745Y-91098516D01*
X124327391Y-91017162D01*
X124312441Y-90981068D01*
X124224015Y-90848730D01*
X124111470Y-90736185D01*
X123979132Y-90647759D01*
X123832085Y-90586851D01*
X123675981Y-90555800D01*
X123516819Y-90555800D01*
X123360715Y-90586851D01*
X123213668Y-90647759D01*
X123081330Y-90736185D01*
X122968785Y-90848730D01*
X122880359Y-90981068D01*
X122819451Y-91128115D01*
X122788400Y-91284219D01*
X111581000Y-91284219D01*
X111581000Y-79219219D01*
X151947600Y-79219219D01*
X151947600Y-79378381D01*
X151978651Y-79534485D01*
X152039559Y-79681532D01*
X152127985Y-79813870D01*
X152240530Y-79926415D01*
X152372868Y-80014841D01*
X152519915Y-80075749D01*
X152676019Y-80106800D01*
X152835181Y-80106800D01*
X152991285Y-80075749D01*
X153027376Y-80060800D01*
X165799177Y-80060800D01*
X165836600Y-80064486D01*
X165874023Y-80060800D01*
X165874026Y-80060800D01*
X165985978Y-80049774D01*
X166129615Y-80006202D01*
X166261992Y-79935445D01*
X166378022Y-79840222D01*
X166401884Y-79811146D01*
X169145097Y-77067934D01*
X169149120Y-77069154D01*
X169418000Y-77095636D01*
X169686881Y-77069154D01*
X169945428Y-76990724D01*
X170183707Y-76863361D01*
X170392560Y-76691960D01*
X170563961Y-76483107D01*
X170688000Y-76251046D01*
X170812039Y-76483107D01*
X170983441Y-76691960D01*
X171192294Y-76863361D01*
X171430573Y-76990724D01*
X171689120Y-77069154D01*
X171958000Y-77095636D01*
X172226881Y-77069154D01*
X172485428Y-76990724D01*
X172723707Y-76863361D01*
X172932560Y-76691960D01*
X173103961Y-76483107D01*
X173228000Y-76251046D01*
X173352039Y-76483107D01*
X173523441Y-76691960D01*
X173732294Y-76863361D01*
X173970573Y-76990724D01*
X174229120Y-77069154D01*
X174498000Y-77095636D01*
X174766881Y-77069154D01*
X175025428Y-76990724D01*
X175263707Y-76863361D01*
X175472560Y-76691960D01*
X175643961Y-76483107D01*
X175771324Y-76244827D01*
X175849754Y-75986280D01*
X175869600Y-75784777D01*
X175869600Y-75345222D01*
X175849754Y-75143719D01*
X175771324Y-74885172D01*
X175643961Y-74646893D01*
X175472559Y-74438040D01*
X175263706Y-74266639D01*
X175025427Y-74139276D01*
X174766880Y-74060846D01*
X174498000Y-74034364D01*
X174229119Y-74060846D01*
X173970572Y-74139276D01*
X173732293Y-74266639D01*
X173523440Y-74438041D01*
X173352039Y-74646894D01*
X173228000Y-74878954D01*
X173103961Y-74646893D01*
X172932559Y-74438040D01*
X172723706Y-74266639D01*
X172485427Y-74139276D01*
X172226880Y-74060846D01*
X171958000Y-74034364D01*
X171689119Y-74060846D01*
X171430572Y-74139276D01*
X171192293Y-74266639D01*
X170983440Y-74438041D01*
X170812039Y-74646894D01*
X170688000Y-74878954D01*
X170563961Y-74646893D01*
X170392559Y-74438040D01*
X170183706Y-74266639D01*
X169945427Y-74139276D01*
X169686880Y-74060846D01*
X169418000Y-74034364D01*
X169149119Y-74060846D01*
X168890572Y-74139276D01*
X168652293Y-74266639D01*
X168443440Y-74438041D01*
X168272039Y-74646894D01*
X168148000Y-74878954D01*
X168023961Y-74646893D01*
X167852559Y-74438040D01*
X167643706Y-74266639D01*
X167405427Y-74139276D01*
X167146880Y-74060846D01*
X166878000Y-74034364D01*
X166609119Y-74060846D01*
X166350572Y-74139276D01*
X166112293Y-74266639D01*
X165903440Y-74438041D01*
X165732039Y-74646894D01*
X165608000Y-74878954D01*
X165483961Y-74646893D01*
X165312559Y-74438040D01*
X165103706Y-74266639D01*
X164865427Y-74139276D01*
X164606880Y-74060846D01*
X164338000Y-74034364D01*
X164069119Y-74060846D01*
X163810572Y-74139276D01*
X163572293Y-74266639D01*
X163363440Y-74438041D01*
X163192039Y-74646894D01*
X163068000Y-74878954D01*
X162943961Y-74646893D01*
X162772559Y-74438040D01*
X162563706Y-74266639D01*
X162325427Y-74139276D01*
X162066880Y-74060846D01*
X161798000Y-74034364D01*
X161529119Y-74060846D01*
X161270572Y-74139276D01*
X161032293Y-74266639D01*
X160823440Y-74438041D01*
X160652039Y-74646894D01*
X160528000Y-74878954D01*
X160403961Y-74646893D01*
X160232559Y-74438040D01*
X160023706Y-74266639D01*
X159785427Y-74139276D01*
X159526880Y-74060846D01*
X159258000Y-74034364D01*
X158989119Y-74060846D01*
X158730572Y-74139276D01*
X158492293Y-74266639D01*
X158283440Y-74438041D01*
X158112039Y-74646894D01*
X157988000Y-74878954D01*
X157863961Y-74646893D01*
X157692559Y-74438040D01*
X157483706Y-74266639D01*
X157245427Y-74139276D01*
X156986880Y-74060846D01*
X156718000Y-74034364D01*
X156449119Y-74060846D01*
X156190572Y-74139276D01*
X155952293Y-74266639D01*
X155743440Y-74438041D01*
X155572039Y-74646894D01*
X155444676Y-74885173D01*
X155366246Y-75143720D01*
X155346400Y-75345223D01*
X155346400Y-75784778D01*
X155366246Y-75986281D01*
X155444676Y-76244828D01*
X155572039Y-76483107D01*
X155743441Y-76691960D01*
X155952294Y-76863361D01*
X156190573Y-76990724D01*
X156449120Y-77069154D01*
X156718000Y-77095636D01*
X156986881Y-77069154D01*
X157245428Y-76990724D01*
X157483707Y-76863361D01*
X157692560Y-76691960D01*
X157863961Y-76483107D01*
X157988000Y-76251046D01*
X158112039Y-76483107D01*
X158283441Y-76691960D01*
X158492294Y-76863361D01*
X158730573Y-76990724D01*
X158989120Y-77069154D01*
X159258000Y-77095636D01*
X159526881Y-77069154D01*
X159785428Y-76990724D01*
X160023707Y-76863361D01*
X160232560Y-76691960D01*
X160403961Y-76483107D01*
X160528000Y-76251046D01*
X160652039Y-76483107D01*
X160823441Y-76691960D01*
X161032294Y-76863361D01*
X161270573Y-76990724D01*
X161529120Y-77069154D01*
X161798000Y-77095636D01*
X162066881Y-77069154D01*
X162325428Y-76990724D01*
X162563707Y-76863361D01*
X162772560Y-76691960D01*
X162943961Y-76483107D01*
X163068000Y-76251046D01*
X163192039Y-76483107D01*
X163363441Y-76691960D01*
X163572294Y-76863361D01*
X163810573Y-76990724D01*
X164069120Y-77069154D01*
X164338000Y-77095636D01*
X164606881Y-77069154D01*
X164865428Y-76990724D01*
X165103707Y-76863361D01*
X165312560Y-76691960D01*
X165483961Y-76483107D01*
X165608000Y-76251046D01*
X165732039Y-76483107D01*
X165903441Y-76691960D01*
X166112294Y-76863361D01*
X166350573Y-76990724D01*
X166609120Y-77069154D01*
X166878000Y-77095636D01*
X166971325Y-77086444D01*
X165520970Y-78536800D01*
X153027376Y-78536800D01*
X152991285Y-78521851D01*
X152835181Y-78490800D01*
X152676019Y-78490800D01*
X152519915Y-78521851D01*
X152372868Y-78582759D01*
X152240530Y-78671185D01*
X152127985Y-78783730D01*
X152039559Y-78916068D01*
X151978651Y-79063115D01*
X151947600Y-79219219D01*
X111581000Y-79219219D01*
X111581000Y-73608000D01*
X124602897Y-73608000D01*
X124265053Y-73945844D01*
X124265053Y-73945844D01*
G37*
X124265053Y-73945844D02*
X123987081Y-74361859D01*
X123795611Y-74824109D01*
X123698000Y-75314832D01*
X123698000Y-75815168D01*
X123795611Y-76305891D01*
X123987081Y-76768141D01*
X124265053Y-77184156D01*
X124618844Y-77537947D01*
X125034859Y-77815919D01*
X125497109Y-78007389D01*
X125987832Y-78105000D01*
X126488168Y-78105000D01*
X126978891Y-78007389D01*
X127441141Y-77815919D01*
X127857156Y-77537947D01*
X128210947Y-77184156D01*
X128488919Y-76768141D01*
X128624908Y-76439833D01*
X128648039Y-76483107D01*
X128819441Y-76691960D01*
X129028294Y-76863361D01*
X129266573Y-76990724D01*
X129525120Y-77069154D01*
X129794000Y-77095636D01*
X130062881Y-77069154D01*
X130321428Y-76990724D01*
X130559707Y-76863361D01*
X130768560Y-76691960D01*
X130939961Y-76483107D01*
X131064000Y-76251046D01*
X131188039Y-76483107D01*
X131359441Y-76691960D01*
X131568294Y-76863361D01*
X131806573Y-76990724D01*
X132065120Y-77069154D01*
X132334000Y-77095636D01*
X132602881Y-77069154D01*
X132861428Y-76990724D01*
X133099707Y-76863361D01*
X133308560Y-76691960D01*
X133479961Y-76483107D01*
X133604000Y-76251046D01*
X133728039Y-76483107D01*
X133899441Y-76691960D01*
X134108294Y-76863361D01*
X134346573Y-76990724D01*
X134605120Y-77069154D01*
X134874000Y-77095636D01*
X135142881Y-77069154D01*
X135401428Y-76990724D01*
X135639707Y-76863361D01*
X135848560Y-76691960D01*
X136019961Y-76483107D01*
X136144000Y-76251046D01*
X136268039Y-76483107D01*
X136439441Y-76691960D01*
X136648294Y-76863361D01*
X136886573Y-76990724D01*
X137145120Y-77069154D01*
X137414000Y-77095636D01*
X137682881Y-77069154D01*
X137941428Y-76990724D01*
X138179707Y-76863361D01*
X138388560Y-76691960D01*
X138559961Y-76483107D01*
X138684000Y-76251046D01*
X138808039Y-76483107D01*
X138979441Y-76691960D01*
X139188294Y-76863361D01*
X139426573Y-76990724D01*
X139685120Y-77069154D01*
X139954000Y-77095636D01*
X140222881Y-77069154D01*
X140481428Y-76990724D01*
X140719707Y-76863361D01*
X140928560Y-76691960D01*
X141099961Y-76483107D01*
X141224000Y-76251046D01*
X141348039Y-76483107D01*
X141519441Y-76691960D01*
X141728294Y-76863361D01*
X141966573Y-76990724D01*
X142225120Y-77069154D01*
X142494000Y-77095636D01*
X142762881Y-77069154D01*
X143021428Y-76990724D01*
X143259707Y-76863361D01*
X143468560Y-76691960D01*
X143639961Y-76483107D01*
X143764000Y-76251046D01*
X143888039Y-76483107D01*
X144059441Y-76691960D01*
X144268294Y-76863361D01*
X144506573Y-76990724D01*
X144765120Y-77069154D01*
X145034000Y-77095636D01*
X145302881Y-77069154D01*
X145561428Y-76990724D01*
X145799707Y-76863361D01*
X146008560Y-76691960D01*
X146179961Y-76483107D01*
X146304000Y-76251046D01*
X146428039Y-76483107D01*
X146599441Y-76691960D01*
X146808294Y-76863361D01*
X147046573Y-76990724D01*
X147305120Y-77069154D01*
X147574000Y-77095636D01*
X147842881Y-77069154D01*
X148101428Y-76990724D01*
X148339707Y-76863361D01*
X148548560Y-76691960D01*
X148719961Y-76483107D01*
X148844000Y-76251046D01*
X148968039Y-76483107D01*
X149139441Y-76691960D01*
X149348294Y-76863361D01*
X149586573Y-76990724D01*
X149845120Y-77069154D01*
X150114000Y-77095636D01*
X150382881Y-77069154D01*
X150641428Y-76990724D01*
X150879707Y-76863361D01*
X151088560Y-76691960D01*
X151259961Y-76483107D01*
X151384000Y-76251046D01*
X151508039Y-76483107D01*
X151679441Y-76691960D01*
X151888294Y-76863361D01*
X152126573Y-76990724D01*
X152385120Y-77069154D01*
X152654000Y-77095636D01*
X152922881Y-77069154D01*
X153181428Y-76990724D01*
X153419707Y-76863361D01*
X153628560Y-76691960D01*
X153799961Y-76483107D01*
X153927324Y-76244827D01*
X154005754Y-75986280D01*
X154025600Y-75784777D01*
X154025600Y-75345222D01*
X154005754Y-75143719D01*
X153927324Y-74885172D01*
X153799961Y-74646893D01*
X153628559Y-74438040D01*
X153419706Y-74266639D01*
X153181427Y-74139276D01*
X152922880Y-74060846D01*
X152654000Y-74034364D01*
X152385119Y-74060846D01*
X152126572Y-74139276D01*
X151888293Y-74266639D01*
X151679440Y-74438041D01*
X151508039Y-74646894D01*
X151384000Y-74878954D01*
X151259961Y-74646893D01*
X151088559Y-74438040D01*
X150879706Y-74266639D01*
X150641427Y-74139276D01*
X150382880Y-74060846D01*
X150114000Y-74034364D01*
X149845119Y-74060846D01*
X149586572Y-74139276D01*
X149348293Y-74266639D01*
X149139440Y-74438041D01*
X148968039Y-74646894D01*
X148844000Y-74878954D01*
X148719961Y-74646893D01*
X148548559Y-74438040D01*
X148339706Y-74266639D01*
X148101427Y-74139276D01*
X147842880Y-74060846D01*
X147574000Y-74034364D01*
X147305119Y-74060846D01*
X147046572Y-74139276D01*
X146808293Y-74266639D01*
X146599440Y-74438041D01*
X146428039Y-74646894D01*
X146304000Y-74878954D01*
X146179961Y-74646893D01*
X146008559Y-74438040D01*
X145799706Y-74266639D01*
X145561427Y-74139276D01*
X145302880Y-74060846D01*
X145034000Y-74034364D01*
X144765119Y-74060846D01*
X144506572Y-74139276D01*
X144268293Y-74266639D01*
X144059440Y-74438041D01*
X143888039Y-74646894D01*
X143764000Y-74878954D01*
X143639961Y-74646893D01*
X143468559Y-74438040D01*
X143259706Y-74266639D01*
X143021427Y-74139276D01*
X142762880Y-74060846D01*
X142494000Y-74034364D01*
X142225119Y-74060846D01*
X141966572Y-74139276D01*
X141728293Y-74266639D01*
X141519440Y-74438041D01*
X141348039Y-74646894D01*
X141224000Y-74878954D01*
X141099961Y-74646893D01*
X140928559Y-74438040D01*
X140719706Y-74266639D01*
X140481427Y-74139276D01*
X140222880Y-74060846D01*
X139954000Y-74034364D01*
X139685119Y-74060846D01*
X139426572Y-74139276D01*
X139188293Y-74266639D01*
X138979440Y-74438041D01*
X138808039Y-74646894D01*
X138684000Y-74878954D01*
X138559961Y-74646893D01*
X138388559Y-74438040D01*
X138179706Y-74266639D01*
X137941427Y-74139276D01*
X137682880Y-74060846D01*
X137414000Y-74034364D01*
X137145119Y-74060846D01*
X136886572Y-74139276D01*
X136648293Y-74266639D01*
X136439440Y-74438041D01*
X136268039Y-74646894D01*
X136144000Y-74878954D01*
X136019961Y-74646893D01*
X135848559Y-74438040D01*
X135639706Y-74266639D01*
X135401427Y-74139276D01*
X135142880Y-74060846D01*
X134874000Y-74034364D01*
X134605119Y-74060846D01*
X134346572Y-74139276D01*
X134108293Y-74266639D01*
X133899440Y-74438041D01*
X133728039Y-74646894D01*
X133604000Y-74878954D01*
X133479961Y-74646893D01*
X133308559Y-74438040D01*
X133099706Y-74266639D01*
X132861427Y-74139276D01*
X132602880Y-74060846D01*
X132334000Y-74034364D01*
X132065119Y-74060846D01*
X131806572Y-74139276D01*
X131568293Y-74266639D01*
X131359440Y-74438041D01*
X131188039Y-74646894D01*
X131064000Y-74878954D01*
X130939961Y-74646893D01*
X130768559Y-74438040D01*
X130559706Y-74266639D01*
X130321427Y-74139276D01*
X130062880Y-74060846D01*
X129794000Y-74034364D01*
X129525119Y-74060846D01*
X129266572Y-74139276D01*
X129028293Y-74266639D01*
X128819440Y-74438041D01*
X128648039Y-74646894D01*
X128624909Y-74690168D01*
X128488919Y-74361859D01*
X128210947Y-73945844D01*
X127873103Y-73608000D01*
X175272515Y-73608000D01*
X176455001Y-74790487D01*
X176455000Y-85950377D01*
X176452181Y-85979000D01*
X176455000Y-86007623D01*
X176455000Y-86007632D01*
X176463436Y-86093287D01*
X176496773Y-86203183D01*
X176550908Y-86304463D01*
X176623763Y-86393237D01*
X176646009Y-86411494D01*
X178995001Y-88760487D01*
X178995001Y-89169898D01*
X178657156Y-88832053D01*
X178241141Y-88554081D01*
X177778891Y-88362611D01*
X177288168Y-88265000D01*
X176787832Y-88265000D01*
X176297109Y-88362611D01*
X175834859Y-88554081D01*
X175418844Y-88832053D01*
X175065053Y-89185844D01*
X174787081Y-89601859D01*
X174595611Y-90064109D01*
X174498000Y-90554832D01*
X174498000Y-91055168D01*
X174595611Y-91545891D01*
X174787081Y-92008141D01*
X175065053Y-92424156D01*
X175418844Y-92777947D01*
X175834859Y-93055919D01*
X176297109Y-93247389D01*
X176787832Y-93345000D01*
X177288168Y-93345000D01*
X177778891Y-93247389D01*
X178241141Y-93055919D01*
X178657156Y-92777947D01*
X178995001Y-92440102D01*
X178995000Y-117109897D01*
X178657156Y-116772053D01*
X178241141Y-116494081D01*
X177778891Y-116302611D01*
X177288168Y-116205000D01*
X176787832Y-116205000D01*
X176297109Y-116302611D01*
X175834859Y-116494081D01*
X175418844Y-116772053D01*
X175197987Y-116992910D01*
X175287045Y-116884392D01*
X175357802Y-116752015D01*
X175401374Y-116608378D01*
X175412400Y-116496426D01*
X175412400Y-116496424D01*
X175416086Y-116459001D01*
X175412400Y-116421578D01*
X175412400Y-113069101D01*
X175416086Y-113031678D01*
X175412400Y-112994252D01*
X175401374Y-112882300D01*
X175357802Y-112738663D01*
X175324865Y-112677042D01*
X175287045Y-112606285D01*
X175252257Y-112563897D01*
X175191822Y-112490256D01*
X175162747Y-112466395D01*
X172050407Y-109354055D01*
X172026545Y-109324979D01*
X171910515Y-109229756D01*
X171778138Y-109158999D01*
X171634501Y-109115427D01*
X171610715Y-109113084D01*
X170747284Y-108249654D01*
X170723422Y-108220578D01*
X170607392Y-108125355D01*
X170475015Y-108054598D01*
X170462752Y-108050878D01*
X170694346Y-107819284D01*
X170723422Y-107795422D01*
X170795519Y-107707571D01*
X170818645Y-107679393D01*
X170856465Y-107608636D01*
X170889402Y-107547015D01*
X170932974Y-107403378D01*
X170944000Y-107291426D01*
X170944000Y-107291423D01*
X170947686Y-107254000D01*
X170944000Y-107216577D01*
X170944000Y-101355423D01*
X170947686Y-101318000D01*
X170944000Y-101280574D01*
X170932974Y-101168622D01*
X170889402Y-101024985D01*
X170830820Y-100915385D01*
X170818645Y-100892607D01*
X170764768Y-100826959D01*
X170723422Y-100776578D01*
X170694347Y-100752717D01*
X169931831Y-99990201D01*
X169957595Y-99976429D01*
X170034948Y-99912948D01*
X170098429Y-99835595D01*
X170145601Y-99747343D01*
X170174649Y-99651585D01*
X170184457Y-99552000D01*
X170184457Y-97552000D01*
X170174649Y-97452415D01*
X170145601Y-97356657D01*
X170098429Y-97268405D01*
X170034948Y-97191052D01*
X169957595Y-97127571D01*
X169869343Y-97080399D01*
X169773585Y-97051351D01*
X169686000Y-97042725D01*
X169686000Y-90653222D01*
X169689686Y-90615799D01*
X169685388Y-90572158D01*
X169674974Y-90466422D01*
X169631402Y-90322785D01*
X169560645Y-90190408D01*
X169465422Y-90074378D01*
X169436352Y-90050521D01*
X167214684Y-87828854D01*
X167190822Y-87799778D01*
X167074792Y-87704555D01*
X166942415Y-87633798D01*
X166798778Y-87590226D01*
X166686826Y-87579200D01*
X166686823Y-87579200D01*
X166649400Y-87575514D01*
X166611977Y-87579200D01*
X153758223Y-87579200D01*
X153720800Y-87575514D01*
X153683377Y-87579200D01*
X153683374Y-87579200D01*
X153571422Y-87590226D01*
X153427785Y-87633798D01*
X153401187Y-87648015D01*
X153295407Y-87704555D01*
X153256555Y-87736441D01*
X153179378Y-87799778D01*
X153155516Y-87828854D01*
X152522654Y-88461716D01*
X152493578Y-88485578D01*
X152437983Y-88553322D01*
X152398355Y-88601608D01*
X152380926Y-88634216D01*
X152327598Y-88733986D01*
X152284026Y-88877623D01*
X152273000Y-88989574D01*
X152269314Y-89027000D01*
X152273000Y-89064423D01*
X152273001Y-93053567D01*
X152269314Y-93091000D01*
X152284027Y-93240378D01*
X152327599Y-93384015D01*
X152398355Y-93516392D01*
X152444619Y-93572764D01*
X152493579Y-93632422D01*
X152522649Y-93656279D01*
X154600673Y-95734303D01*
X154572598Y-95731538D01*
X154541510Y-95734600D01*
X131374485Y-95734600D01*
X131343399Y-95731538D01*
X131312313Y-95734600D01*
X131312312Y-95734600D01*
X131219310Y-95743760D01*
X131099990Y-95779955D01*
X130990023Y-95838734D01*
X130893636Y-95917836D01*
X130873816Y-95941987D01*
X128479383Y-98336420D01*
X128455237Y-98356236D01*
X128435421Y-98380382D01*
X128435419Y-98380384D01*
X128376134Y-98452624D01*
X128317356Y-98562590D01*
X128281160Y-98681911D01*
X128268938Y-98806000D01*
X128272001Y-98837098D01*
X128272000Y-106852112D01*
X128268938Y-106883200D01*
X128272000Y-106914287D01*
X128281160Y-107007289D01*
X128317355Y-107126609D01*
X128350848Y-107189269D01*
X127240980Y-106079401D01*
X127240982Y-99457395D01*
X131323378Y-95375000D01*
X150622989Y-95375000D01*
X150747268Y-95458041D01*
X150894315Y-95518949D01*
X151050419Y-95550000D01*
X151209581Y-95550000D01*
X151365685Y-95518949D01*
X151512732Y-95458041D01*
X151645070Y-95369615D01*
X151757615Y-95257070D01*
X151846041Y-95124732D01*
X151906949Y-94977685D01*
X151938000Y-94821581D01*
X151938000Y-94662419D01*
X151906949Y-94506315D01*
X151846041Y-94359268D01*
X151757615Y-94226930D01*
X151645070Y-94114385D01*
X151512732Y-94025959D01*
X151365685Y-93965051D01*
X151209581Y-93934000D01*
X151050419Y-93934000D01*
X150894315Y-93965051D01*
X150747268Y-94025959D01*
X150622989Y-94109000D01*
X131092267Y-94109000D01*
X131061179Y-94105938D01*
X130937090Y-94118160D01*
X130817770Y-94154355D01*
X130707803Y-94213134D01*
X130611416Y-94292236D01*
X130591600Y-94316382D01*
X126182364Y-98725619D01*
X126158219Y-98745434D01*
X126138403Y-98769580D01*
X126138401Y-98769582D01*
X126079116Y-98841822D01*
X126020338Y-98951788D01*
X125984142Y-99071109D01*
X125971920Y-99195198D01*
X125974983Y-99226296D01*
X125974981Y-106310513D01*
X125971919Y-106341599D01*
X125982732Y-106451384D01*
X125984141Y-106465688D01*
X126020336Y-106585008D01*
X126079115Y-106694975D01*
X126158217Y-106791362D01*
X126182368Y-106811182D01*
X131404396Y-112033213D01*
X131424216Y-112057364D01*
X131520603Y-112136466D01*
X131630570Y-112195245D01*
X131749890Y-112231440D01*
X131873980Y-112243662D01*
X131905068Y-112240600D01*
X143612589Y-112240600D01*
X143736868Y-112323641D01*
X143883915Y-112384549D01*
X144040019Y-112415600D01*
X144199181Y-112415600D01*
X144355285Y-112384549D01*
X144502332Y-112323641D01*
X144634670Y-112235215D01*
X144747215Y-112122670D01*
X144835641Y-111990332D01*
X144896549Y-111843285D01*
X144896605Y-111843000D01*
X147397313Y-111843000D01*
X147412025Y-111992378D01*
X147455597Y-112136016D01*
X147526355Y-112268393D01*
X147621578Y-112384422D01*
X147737607Y-112479645D01*
X147869984Y-112550403D01*
X148013622Y-112593975D01*
X148163000Y-112608687D01*
X148226500Y-112605000D01*
X148417000Y-112414500D01*
X148417000Y-111249000D01*
X147591500Y-111249000D01*
X147401000Y-111439500D01*
X147397313Y-111843000D01*
X144896605Y-111843000D01*
X144927600Y-111687181D01*
X144927600Y-111528019D01*
X144896549Y-111371915D01*
X144835641Y-111224868D01*
X144747215Y-111092530D01*
X144634670Y-110979985D01*
X144502332Y-110891559D01*
X144355285Y-110830651D01*
X144199181Y-110799600D01*
X144040019Y-110799600D01*
X143883915Y-110830651D01*
X143736868Y-110891559D01*
X143612589Y-110974600D01*
X132136177Y-110974600D01*
X131926329Y-110764752D01*
X131988990Y-110798245D01*
X132108310Y-110834440D01*
X132201312Y-110843600D01*
X132201313Y-110843600D01*
X132232399Y-110846662D01*
X132263485Y-110843600D01*
X142978448Y-110843600D01*
X143009536Y-110846662D01*
X143040624Y-110843600D01*
X143133626Y-110834440D01*
X143252946Y-110798245D01*
X143362913Y-110739466D01*
X143459300Y-110660364D01*
X143479120Y-110636213D01*
X144215184Y-109900150D01*
X144264915Y-109920749D01*
X144421019Y-109951800D01*
X144580181Y-109951800D01*
X144736285Y-109920749D01*
X144803277Y-109893000D01*
X147397313Y-109893000D01*
X147401000Y-110296500D01*
X147591500Y-110487000D01*
X148417000Y-110487000D01*
X148417000Y-109321500D01*
X148226500Y-109131000D01*
X148163000Y-109127313D01*
X148013622Y-109142025D01*
X147869984Y-109185597D01*
X147737607Y-109256355D01*
X147621578Y-109351578D01*
X147526355Y-109467607D01*
X147455597Y-109599984D01*
X147412025Y-109743622D01*
X147397313Y-109893000D01*
X144803277Y-109893000D01*
X144883332Y-109859841D01*
X145015670Y-109771415D01*
X145128215Y-109658870D01*
X145216641Y-109526532D01*
X145277549Y-109379485D01*
X145308600Y-109223381D01*
X145308600Y-109064219D01*
X145277549Y-108908115D01*
X145216641Y-108761068D01*
X145128215Y-108628730D01*
X145015670Y-108516185D01*
X144883332Y-108427759D01*
X144736285Y-108366851D01*
X144580181Y-108335800D01*
X144421019Y-108335800D01*
X144264915Y-108366851D01*
X144117868Y-108427759D01*
X143985530Y-108516185D01*
X143984979Y-108516736D01*
X143952246Y-108519960D01*
X143832926Y-108556155D01*
X143820156Y-108562981D01*
X143722959Y-108614934D01*
X143674560Y-108654654D01*
X143626572Y-108694036D01*
X143606756Y-108718182D01*
X142747339Y-109577600D01*
X132494597Y-109577600D01*
X129538000Y-106621003D01*
X129538000Y-99068197D01*
X131605597Y-97000600D01*
X154310401Y-97000600D01*
X155921343Y-98611543D01*
X155876740Y-98611543D01*
X155239184Y-97973987D01*
X155219364Y-97949836D01*
X155122977Y-97870734D01*
X155013010Y-97811955D01*
X154893690Y-97775760D01*
X154800688Y-97766600D01*
X154769600Y-97763538D01*
X154738512Y-97766600D01*
X131552285Y-97766600D01*
X131521199Y-97763538D01*
X131490113Y-97766600D01*
X131490112Y-97766600D01*
X131397110Y-97775760D01*
X131277790Y-97811955D01*
X131216720Y-97844598D01*
X131167823Y-97870734D01*
X131113452Y-97915355D01*
X131071436Y-97949836D01*
X131051620Y-97973982D01*
X129952582Y-99073021D01*
X129928437Y-99092836D01*
X129908621Y-99116982D01*
X129908619Y-99116984D01*
X129849334Y-99189224D01*
X129790556Y-99299190D01*
X129754360Y-99418511D01*
X129742138Y-99542600D01*
X129745201Y-99573698D01*
X129745200Y-106521912D01*
X129742138Y-106553000D01*
X129750686Y-106639790D01*
X129754360Y-106677089D01*
X129790555Y-106796409D01*
X129849334Y-106906376D01*
X129928436Y-107002764D01*
X129952587Y-107022584D01*
X132139015Y-109209012D01*
X132158835Y-109233163D01*
X132255222Y-109312265D01*
X132365189Y-109371044D01*
X132463797Y-109400956D01*
X132484509Y-109407239D01*
X132608599Y-109419461D01*
X132639687Y-109416399D01*
X142340713Y-109416399D01*
X142371801Y-109419461D01*
X142402889Y-109416399D01*
X142495891Y-109407239D01*
X142615211Y-109371044D01*
X142725178Y-109312265D01*
X142750602Y-109291400D01*
X142751381Y-109291400D01*
X142907485Y-109260349D01*
X143054532Y-109199441D01*
X143186870Y-109111015D01*
X143299415Y-108998470D01*
X143387841Y-108866132D01*
X143448749Y-108719085D01*
X143479800Y-108562981D01*
X143479800Y-108403819D01*
X143448749Y-108247715D01*
X143387841Y-108100668D01*
X143299415Y-107968330D01*
X143186870Y-107855785D01*
X143054532Y-107767359D01*
X142907485Y-107706451D01*
X142751381Y-107675400D01*
X142592219Y-107675400D01*
X142436115Y-107706451D01*
X142289068Y-107767359D01*
X142156730Y-107855785D01*
X142044185Y-107968330D01*
X141955759Y-108100668D01*
X141935160Y-108150399D01*
X141816637Y-108150399D01*
X141822442Y-108139537D01*
X141704489Y-107899200D01*
X140716000Y-107899200D01*
X140716000Y-107919200D01*
X139954000Y-107919200D01*
X139954000Y-107899200D01*
X138965511Y-107899200D01*
X138847558Y-108139537D01*
X138853363Y-108150399D01*
X136826099Y-108150399D01*
X136651100Y-107975400D01*
X135610600Y-107975400D01*
X135610600Y-107995400D01*
X134848600Y-107995400D01*
X134848600Y-107975400D01*
X133808100Y-107975400D01*
X133633101Y-108150399D01*
X132870796Y-108150399D01*
X131011200Y-106290803D01*
X131011200Y-99804797D01*
X131783398Y-99032600D01*
X134245748Y-99032600D01*
X134095002Y-99216286D01*
X133968902Y-99452202D01*
X133891250Y-99708186D01*
X133865030Y-99974400D01*
X133891250Y-100240614D01*
X133968902Y-100496598D01*
X134095002Y-100732514D01*
X134264703Y-100939297D01*
X134471486Y-101108998D01*
X134707402Y-101235098D01*
X134738067Y-101244400D01*
X134707402Y-101253702D01*
X134471486Y-101379802D01*
X134264703Y-101549503D01*
X134095002Y-101756286D01*
X133968902Y-101992202D01*
X133891250Y-102248186D01*
X133865030Y-102514400D01*
X133891250Y-102780614D01*
X133932432Y-102916371D01*
X133628986Y-103219817D01*
X133604835Y-103239637D01*
X133525733Y-103336025D01*
X133466954Y-103445992D01*
X133448970Y-103505279D01*
X133430759Y-103565312D01*
X133418537Y-103689401D01*
X133421599Y-103720490D01*
X133421600Y-105587303D01*
X133418537Y-105618401D01*
X133430759Y-105742490D01*
X133466955Y-105861811D01*
X133525733Y-105971777D01*
X133574126Y-106030744D01*
X133604836Y-106068165D01*
X133628982Y-106087981D01*
X133795717Y-106254716D01*
X133742955Y-106319007D01*
X133672197Y-106451384D01*
X133628625Y-106595022D01*
X133613913Y-106744400D01*
X133617600Y-107022900D01*
X133808100Y-107213400D01*
X134848600Y-107213400D01*
X134848600Y-107193400D01*
X135610600Y-107193400D01*
X135610600Y-107213400D01*
X136651100Y-107213400D01*
X136841600Y-107022900D01*
X136843725Y-106862401D01*
X138865976Y-106862401D01*
X138847558Y-106896863D01*
X138965511Y-107137200D01*
X139954000Y-107137200D01*
X139954000Y-107117200D01*
X140716000Y-107117200D01*
X140716000Y-107137200D01*
X141704489Y-107137200D01*
X141822442Y-106896863D01*
X141678011Y-106626623D01*
X141517525Y-106429874D01*
X142766026Y-105181373D01*
X142773400Y-105199176D01*
X142773400Y-105314241D01*
X142769714Y-105351664D01*
X142773400Y-105389087D01*
X142773400Y-105389090D01*
X142784426Y-105501042D01*
X142827998Y-105644679D01*
X142898755Y-105777056D01*
X142993979Y-105893086D01*
X143023049Y-105916943D01*
X144923442Y-107817337D01*
X144981788Y-107888432D01*
X145097818Y-107983655D01*
X145230195Y-108054412D01*
X145373832Y-108097984D01*
X145485784Y-108109010D01*
X145485785Y-108109010D01*
X145523210Y-108112696D01*
X145560636Y-108109010D01*
X152675180Y-108109010D01*
X156749010Y-112182841D01*
X156763959Y-112218932D01*
X156852385Y-112351270D01*
X156964930Y-112463815D01*
X157097268Y-112552241D01*
X157244315Y-112613149D01*
X157400419Y-112644200D01*
X157559581Y-112644200D01*
X157715685Y-112613149D01*
X157862732Y-112552241D01*
X157995070Y-112463815D01*
X158107615Y-112351270D01*
X158196041Y-112218932D01*
X158256949Y-112071885D01*
X158288000Y-111915781D01*
X158288000Y-111756619D01*
X158256949Y-111600515D01*
X158196041Y-111453468D01*
X158107615Y-111321130D01*
X157995070Y-111208585D01*
X157862732Y-111120159D01*
X157826641Y-111105210D01*
X154486887Y-107765457D01*
X154643027Y-107765457D01*
X162451921Y-115574352D01*
X162475778Y-115603422D01*
X162591808Y-115698645D01*
X162724185Y-115769402D01*
X162867822Y-115812974D01*
X162979774Y-115824000D01*
X162979776Y-115824000D01*
X163017199Y-115827686D01*
X163054622Y-115824000D01*
X164213543Y-115824000D01*
X164213543Y-116062000D01*
X164223351Y-116161585D01*
X164252399Y-116257343D01*
X164299571Y-116345595D01*
X164363052Y-116422948D01*
X164440405Y-116486429D01*
X164528657Y-116533601D01*
X164624415Y-116562649D01*
X164724000Y-116572457D01*
X165543912Y-116572457D01*
X164768370Y-117348000D01*
X159783776Y-117348000D01*
X159747685Y-117333051D01*
X159591581Y-117302000D01*
X159432419Y-117302000D01*
X159276315Y-117333051D01*
X159129268Y-117393959D01*
X158996930Y-117482385D01*
X158884385Y-117594930D01*
X158795959Y-117727268D01*
X158781009Y-117763361D01*
X156205654Y-120338716D01*
X156176578Y-120362578D01*
X156143891Y-120402408D01*
X156081355Y-120478608D01*
X156051328Y-120534785D01*
X156010598Y-120610986D01*
X155967026Y-120754623D01*
X155962763Y-120797909D01*
X155952314Y-120904000D01*
X155956000Y-120941423D01*
X155956001Y-122524657D01*
X155952293Y-122526639D01*
X155743440Y-122698041D01*
X155572039Y-122906894D01*
X155448000Y-123138954D01*
X155323961Y-122906893D01*
X155152559Y-122698040D01*
X154943706Y-122526639D01*
X154705427Y-122399276D01*
X154446880Y-122320846D01*
X154178000Y-122294364D01*
X153909119Y-122320846D01*
X153650572Y-122399276D01*
X153412293Y-122526639D01*
X153203440Y-122698041D01*
X153047416Y-122888157D01*
X152881583Y-122642422D01*
X152656710Y-122419606D01*
X152392689Y-122244941D01*
X152261526Y-122171337D01*
X152019000Y-122288999D01*
X152019000Y-123444000D01*
X152039000Y-123444000D01*
X152039000Y-124206000D01*
X152019000Y-124206000D01*
X152019000Y-125361001D01*
X152261526Y-125478663D01*
X152392689Y-125405059D01*
X152656710Y-125230394D01*
X152881583Y-125007578D01*
X153047416Y-124761843D01*
X153203441Y-124951960D01*
X153412294Y-125123361D01*
X153650573Y-125250724D01*
X153909120Y-125329154D01*
X154178000Y-125355636D01*
X154446881Y-125329154D01*
X154705428Y-125250724D01*
X154943707Y-125123361D01*
X155152560Y-124951960D01*
X155323961Y-124743107D01*
X155448000Y-124511046D01*
X155572039Y-124743107D01*
X155743441Y-124951960D01*
X155952294Y-125123361D01*
X156190573Y-125250724D01*
X156449120Y-125329154D01*
X156718000Y-125355636D01*
X156986881Y-125329154D01*
X157245428Y-125250724D01*
X157483707Y-125123361D01*
X157692560Y-124951960D01*
X157863961Y-124743107D01*
X157991324Y-124504827D01*
X158069754Y-124246280D01*
X158089600Y-124044777D01*
X158089600Y-123605223D01*
X160426400Y-123605223D01*
X160426400Y-124044778D01*
X160446246Y-124246281D01*
X160524676Y-124504828D01*
X160652039Y-124743107D01*
X160823441Y-124951960D01*
X161032294Y-125123361D01*
X161270573Y-125250724D01*
X161529120Y-125329154D01*
X161798000Y-125355636D01*
X162066881Y-125329154D01*
X162325428Y-125250724D01*
X162563707Y-125123361D01*
X162772560Y-124951960D01*
X162943961Y-124743107D01*
X163068000Y-124511046D01*
X163192039Y-124743107D01*
X163363441Y-124951960D01*
X163572294Y-125123361D01*
X163810573Y-125250724D01*
X164069120Y-125329154D01*
X164338000Y-125355636D01*
X164606881Y-125329154D01*
X164865428Y-125250724D01*
X165103707Y-125123361D01*
X165312560Y-124951960D01*
X165483961Y-124743107D01*
X165608000Y-124511046D01*
X165732039Y-124743107D01*
X165903441Y-124951960D01*
X166112294Y-125123361D01*
X166350573Y-125250724D01*
X166609120Y-125329154D01*
X166878000Y-125355636D01*
X167146881Y-125329154D01*
X167405428Y-125250724D01*
X167643707Y-125123361D01*
X167852560Y-124951960D01*
X168023961Y-124743107D01*
X168148000Y-124511046D01*
X168272039Y-124743107D01*
X168443441Y-124951960D01*
X168652294Y-125123361D01*
X168890573Y-125250724D01*
X169149120Y-125329154D01*
X169418000Y-125355636D01*
X169686881Y-125329154D01*
X169945428Y-125250724D01*
X170183707Y-125123361D01*
X170392560Y-124951960D01*
X170563961Y-124743107D01*
X170688000Y-124511046D01*
X170812039Y-124743107D01*
X170983441Y-124951960D01*
X171192294Y-125123361D01*
X171430573Y-125250724D01*
X171689120Y-125329154D01*
X171958000Y-125355636D01*
X172226881Y-125329154D01*
X172485428Y-125250724D01*
X172723707Y-125123361D01*
X172932560Y-124951960D01*
X173103961Y-124743107D01*
X173228000Y-124511046D01*
X173352039Y-124743107D01*
X173523441Y-124951960D01*
X173732294Y-125123361D01*
X173970573Y-125250724D01*
X174229120Y-125329154D01*
X174498000Y-125355636D01*
X174766881Y-125329154D01*
X175025428Y-125250724D01*
X175263707Y-125123361D01*
X175472560Y-124951960D01*
X175643961Y-124743107D01*
X175771324Y-124504827D01*
X175849754Y-124246280D01*
X175869600Y-124044777D01*
X175869600Y-123605222D01*
X175849754Y-123403719D01*
X175771324Y-123145172D01*
X175643961Y-122906893D01*
X175472559Y-122698040D01*
X175263706Y-122526639D01*
X175025427Y-122399276D01*
X174766880Y-122320846D01*
X174498000Y-122294364D01*
X174229119Y-122320846D01*
X173970572Y-122399276D01*
X173732293Y-122526639D01*
X173523440Y-122698041D01*
X173352039Y-122906894D01*
X173228000Y-123138954D01*
X173103961Y-122906893D01*
X172932559Y-122698040D01*
X172723706Y-122526639D01*
X172485427Y-122399276D01*
X172226880Y-122320846D01*
X171958000Y-122294364D01*
X171689119Y-122320846D01*
X171430572Y-122399276D01*
X171192293Y-122526639D01*
X170983440Y-122698041D01*
X170812039Y-122906894D01*
X170688000Y-123138954D01*
X170563961Y-122906893D01*
X170392559Y-122698040D01*
X170183706Y-122526639D01*
X169945427Y-122399276D01*
X169686880Y-122320846D01*
X169418000Y-122294364D01*
X169149119Y-122320846D01*
X168890572Y-122399276D01*
X168652293Y-122526639D01*
X168443440Y-122698041D01*
X168272039Y-122906894D01*
X168148000Y-123138954D01*
X168023961Y-122906893D01*
X167852559Y-122698040D01*
X167643706Y-122526639D01*
X167405427Y-122399276D01*
X167146880Y-122320846D01*
X166878000Y-122294364D01*
X166609119Y-122320846D01*
X166350572Y-122399276D01*
X166112293Y-122526639D01*
X165903440Y-122698041D01*
X165732039Y-122906894D01*
X165608000Y-123138954D01*
X165483961Y-122906893D01*
X165312559Y-122698040D01*
X165103706Y-122526639D01*
X164865427Y-122399276D01*
X164606880Y-122320846D01*
X164338000Y-122294364D01*
X164069119Y-122320846D01*
X163810572Y-122399276D01*
X163572293Y-122526639D01*
X163363440Y-122698041D01*
X163192039Y-122906894D01*
X163068000Y-123138954D01*
X162943961Y-122906893D01*
X162772559Y-122698040D01*
X162563706Y-122526639D01*
X162325427Y-122399276D01*
X162066880Y-122320846D01*
X161798000Y-122294364D01*
X161529119Y-122320846D01*
X161270572Y-122399276D01*
X161032293Y-122526639D01*
X160823440Y-122698041D01*
X160652039Y-122906894D01*
X160524676Y-123145173D01*
X160446246Y-123403720D01*
X160426400Y-123605223D01*
X158089600Y-123605223D01*
X158089600Y-123605222D01*
X158069754Y-123403719D01*
X157991324Y-123145172D01*
X157863961Y-122906893D01*
X157692559Y-122698040D01*
X157483706Y-122526639D01*
X157480000Y-122524658D01*
X157480000Y-121219630D01*
X159827630Y-118872000D01*
X165046577Y-118872000D01*
X165084000Y-118875686D01*
X165121423Y-118872000D01*
X165121426Y-118872000D01*
X165233378Y-118860974D01*
X165377015Y-118817402D01*
X165509392Y-118746645D01*
X165625422Y-118651422D01*
X165649284Y-118622346D01*
X166741131Y-117530500D01*
X167608470Y-117530500D01*
X168664000Y-118586031D01*
X168664000Y-118615679D01*
X168702737Y-118810423D01*
X168778722Y-118993867D01*
X168889035Y-119158962D01*
X169029438Y-119299365D01*
X169194533Y-119409678D01*
X169377977Y-119485663D01*
X169572721Y-119524400D01*
X169771279Y-119524400D01*
X169966023Y-119485663D01*
X170149467Y-119409678D01*
X170314562Y-119299365D01*
X170454965Y-119158962D01*
X170565278Y-118993867D01*
X170641263Y-118810423D01*
X170680000Y-118615679D01*
X170680000Y-118417121D01*
X170641263Y-118222377D01*
X170565278Y-118038933D01*
X170454965Y-117873838D01*
X170314562Y-117733435D01*
X170149467Y-117623122D01*
X169966023Y-117547137D01*
X169771279Y-117508400D01*
X169741631Y-117508400D01*
X168750290Y-116517060D01*
X168807595Y-116486429D01*
X168884948Y-116422948D01*
X168948429Y-116345595D01*
X168995601Y-116257343D01*
X169024649Y-116161585D01*
X169034457Y-116062000D01*
X169034457Y-114062000D01*
X169024649Y-113962415D01*
X168995601Y-113866657D01*
X168948429Y-113778405D01*
X168884948Y-113701052D01*
X168807595Y-113637571D01*
X168719343Y-113590399D01*
X168623585Y-113561351D01*
X168524000Y-113551543D01*
X167767000Y-113551543D01*
X167767000Y-110083892D01*
X167774000Y-110075362D01*
X167813052Y-110122948D01*
X167890405Y-110186429D01*
X167978657Y-110233601D01*
X168074415Y-110262649D01*
X168174000Y-110272457D01*
X169674000Y-110272457D01*
X169773585Y-110262649D01*
X169869343Y-110233601D01*
X169957595Y-110186429D01*
X170034948Y-110122948D01*
X170098429Y-110045595D01*
X170145601Y-109957343D01*
X170174649Y-109861585D01*
X170177276Y-109834907D01*
X170721121Y-110378752D01*
X170744979Y-110407823D01*
X170774049Y-110431680D01*
X170861008Y-110503046D01*
X170907109Y-110527687D01*
X170993386Y-110573803D01*
X171137023Y-110617375D01*
X171160810Y-110619718D01*
X173888400Y-113347308D01*
X173888401Y-116143368D01*
X169965970Y-120065800D01*
X159605976Y-120065800D01*
X159569885Y-120050851D01*
X159413781Y-120019800D01*
X159254619Y-120019800D01*
X159098515Y-120050851D01*
X158951468Y-120111759D01*
X158819130Y-120200185D01*
X158706585Y-120312730D01*
X158618159Y-120445068D01*
X158557251Y-120592115D01*
X158526200Y-120748219D01*
X158526200Y-120907381D01*
X158557251Y-121063485D01*
X158618159Y-121210532D01*
X158706585Y-121342870D01*
X158819130Y-121455415D01*
X158951468Y-121543841D01*
X159098515Y-121604749D01*
X159254619Y-121635800D01*
X159413781Y-121635800D01*
X159569885Y-121604749D01*
X159605976Y-121589800D01*
X170244177Y-121589800D01*
X170281600Y-121593486D01*
X170319023Y-121589800D01*
X170319026Y-121589800D01*
X170430978Y-121578774D01*
X170574615Y-121535202D01*
X170706992Y-121464445D01*
X170823022Y-121369222D01*
X170846884Y-121340146D01*
X175162752Y-117024279D01*
X175184310Y-117006587D01*
X175065053Y-117125844D01*
X174787081Y-117541859D01*
X174595611Y-118004109D01*
X174498000Y-118494832D01*
X174498000Y-118995168D01*
X174595611Y-119485891D01*
X174787081Y-119948141D01*
X175065053Y-120364156D01*
X175418844Y-120717947D01*
X175834859Y-120995919D01*
X176297109Y-121187389D01*
X176787832Y-121285000D01*
X177288168Y-121285000D01*
X177778891Y-121187389D01*
X178241141Y-120995919D01*
X178657156Y-120717947D01*
X178995000Y-120380103D01*
X178995000Y-121043514D01*
X176646005Y-123392510D01*
X176623764Y-123410763D01*
X176605511Y-123433004D01*
X176550909Y-123499536D01*
X176496773Y-123600817D01*
X176463437Y-123710712D01*
X176452181Y-123825000D01*
X176455001Y-123853633D01*
X176455000Y-125782000D01*
X126603103Y-125782000D01*
X126940947Y-125444156D01*
X127218919Y-125028141D01*
X127410389Y-124565891D01*
X127508000Y-124075168D01*
X127508000Y-123605223D01*
X137566400Y-123605223D01*
X137566400Y-124044778D01*
X137586246Y-124246281D01*
X137664676Y-124504828D01*
X137792039Y-124743107D01*
X137963441Y-124951960D01*
X138172294Y-125123361D01*
X138410573Y-125250724D01*
X138669120Y-125329154D01*
X138938000Y-125355636D01*
X139206881Y-125329154D01*
X139465428Y-125250724D01*
X139703707Y-125123361D01*
X139912560Y-124951960D01*
X140083961Y-124743107D01*
X140208000Y-124511046D01*
X140332039Y-124743107D01*
X140503441Y-124951960D01*
X140712294Y-125123361D01*
X140950573Y-125250724D01*
X141209120Y-125329154D01*
X141478000Y-125355636D01*
X141746881Y-125329154D01*
X142005428Y-125250724D01*
X142243707Y-125123361D01*
X142452560Y-124951960D01*
X142623961Y-124743107D01*
X142748000Y-124511046D01*
X142872039Y-124743107D01*
X143043441Y-124951960D01*
X143252294Y-125123361D01*
X143490573Y-125250724D01*
X143749120Y-125329154D01*
X144018000Y-125355636D01*
X144286881Y-125329154D01*
X144545428Y-125250724D01*
X144783707Y-125123361D01*
X144992560Y-124951960D01*
X145163961Y-124743107D01*
X145288000Y-124511046D01*
X145412039Y-124743107D01*
X145583441Y-124951960D01*
X145792294Y-125123361D01*
X146030573Y-125250724D01*
X146289120Y-125329154D01*
X146558000Y-125355636D01*
X146826881Y-125329154D01*
X147085428Y-125250724D01*
X147323707Y-125123361D01*
X147532560Y-124951960D01*
X147703961Y-124743107D01*
X147828000Y-124511046D01*
X147952039Y-124743107D01*
X148123441Y-124951960D01*
X148332294Y-125123361D01*
X148570573Y-125250724D01*
X148829120Y-125329154D01*
X149098000Y-125355636D01*
X149366881Y-125329154D01*
X149625428Y-125250724D01*
X149863707Y-125123361D01*
X150072560Y-124951960D01*
X150228585Y-124761843D01*
X150394417Y-125007578D01*
X150619290Y-125230394D01*
X150883311Y-125405059D01*
X151014474Y-125478663D01*
X151257000Y-125361001D01*
X151257000Y-124206000D01*
X151237000Y-124206000D01*
X151237000Y-123444000D01*
X151257000Y-123444000D01*
X151257000Y-122288999D01*
X151014474Y-122171337D01*
X150883311Y-122244941D01*
X150619290Y-122419606D01*
X150394417Y-122642422D01*
X150228584Y-122888157D01*
X150072559Y-122698040D01*
X149863706Y-122526639D01*
X149625427Y-122399276D01*
X149366880Y-122320846D01*
X149098000Y-122294364D01*
X148829119Y-122320846D01*
X148570572Y-122399276D01*
X148332293Y-122526639D01*
X148123440Y-122698041D01*
X147952039Y-122906894D01*
X147828000Y-123138954D01*
X147703961Y-122906893D01*
X147532559Y-122698040D01*
X147323706Y-122526639D01*
X147085427Y-122399276D01*
X146826880Y-122320846D01*
X146558000Y-122294364D01*
X146289119Y-122320846D01*
X146030572Y-122399276D01*
X145792293Y-122526639D01*
X145583440Y-122698041D01*
X145412039Y-122906894D01*
X145288000Y-123138954D01*
X145163961Y-122906893D01*
X144992559Y-122698040D01*
X144783706Y-122526639D01*
X144545427Y-122399276D01*
X144286880Y-122320846D01*
X144018000Y-122294364D01*
X143749119Y-122320846D01*
X143490572Y-122399276D01*
X143252293Y-122526639D01*
X143043440Y-122698041D01*
X142872039Y-122906894D01*
X142748000Y-123138954D01*
X142623961Y-122906893D01*
X142452559Y-122698040D01*
X142243706Y-122526639D01*
X142005427Y-122399276D01*
X141746880Y-122320846D01*
X141478000Y-122294364D01*
X141209119Y-122320846D01*
X140950572Y-122399276D01*
X140712293Y-122526639D01*
X140503440Y-122698041D01*
X140332039Y-122906894D01*
X140208000Y-123138954D01*
X140083961Y-122906893D01*
X139912559Y-122698040D01*
X139703706Y-122526639D01*
X139465427Y-122399276D01*
X139206880Y-122320846D01*
X138938000Y-122294364D01*
X138669119Y-122320846D01*
X138410572Y-122399276D01*
X138172293Y-122526639D01*
X137963440Y-122698041D01*
X137792039Y-122906894D01*
X137664676Y-123145173D01*
X137586246Y-123403720D01*
X137566400Y-123605223D01*
X127508000Y-123605223D01*
X127508000Y-123574832D01*
X127410389Y-123084109D01*
X127218919Y-122621859D01*
X126940947Y-122205844D01*
X126587156Y-121852053D01*
X126171141Y-121574081D01*
X125708891Y-121382611D01*
X125218168Y-121285000D01*
X124717832Y-121285000D01*
X124227109Y-121382611D01*
X123764859Y-121574081D01*
X123348844Y-121852053D01*
X122995053Y-122205844D01*
X122717081Y-122621859D01*
X122525611Y-123084109D01*
X122428000Y-123574832D01*
X122428000Y-124075168D01*
X122525611Y-124565891D01*
X122717081Y-125028141D01*
X122995053Y-125444156D01*
X123332897Y-125782000D01*
X111581000Y-125782000D01*
X111581000Y-117131000D01*
X143285543Y-117131000D01*
X143285543Y-118581000D01*
X143300155Y-118729358D01*
X143343429Y-118872014D01*
X143413703Y-119003487D01*
X143508276Y-119118724D01*
X143623513Y-119213297D01*
X143754986Y-119283571D01*
X143897642Y-119326845D01*
X144046000Y-119341457D01*
X145246000Y-119341457D01*
X145394358Y-119326845D01*
X145537014Y-119283571D01*
X145668487Y-119213297D01*
X145783724Y-119118724D01*
X145878297Y-119003487D01*
X145894518Y-118973141D01*
X145931338Y-119025589D01*
X146158467Y-119242486D01*
X146423546Y-119410905D01*
X146524663Y-119468442D01*
X146765000Y-119350489D01*
X146765000Y-118237000D01*
X146745000Y-118237000D01*
X146745000Y-117475000D01*
X146765000Y-117475000D01*
X146765000Y-116361511D01*
X147527000Y-116361511D01*
X147527000Y-117475000D01*
X147547000Y-117475000D01*
X147547000Y-118237000D01*
X147527000Y-118237000D01*
X147527000Y-119350489D01*
X147767337Y-119468442D01*
X147868454Y-119410905D01*
X148133533Y-119242486D01*
X148360662Y-119025589D01*
X148538552Y-118772196D01*
X148681104Y-118945897D01*
X148887887Y-119115598D01*
X149123803Y-119241698D01*
X149379787Y-119319350D01*
X149646000Y-119345570D01*
X149912214Y-119319350D01*
X150168198Y-119241698D01*
X150404114Y-119115598D01*
X150610897Y-118945897D01*
X150780598Y-118739113D01*
X150896000Y-118523212D01*
X151011402Y-118739114D01*
X151181104Y-118945897D01*
X151387887Y-119115598D01*
X151623803Y-119241698D01*
X151879787Y-119319350D01*
X152146000Y-119345570D01*
X152412214Y-119319350D01*
X152668198Y-119241698D01*
X152904114Y-119115598D01*
X153110897Y-118945897D01*
X153280598Y-118739113D01*
X153406698Y-118503197D01*
X153484350Y-118247213D01*
X153504000Y-118047705D01*
X153504000Y-117664294D01*
X153484350Y-117464786D01*
X153406698Y-117208802D01*
X153280598Y-116972886D01*
X153110896Y-116766103D01*
X152904113Y-116596402D01*
X152779000Y-116529528D01*
X152779000Y-114331085D01*
X152782062Y-114299999D01*
X152779000Y-114268912D01*
X152769840Y-114175910D01*
X152733645Y-114056590D01*
X152674866Y-113946623D01*
X152595764Y-113850236D01*
X152571619Y-113830421D01*
X151636000Y-112894803D01*
X151636000Y-112140535D01*
X151638000Y-112138098D01*
X151655986Y-112160014D01*
X151756070Y-112242150D01*
X151870254Y-112303183D01*
X151994151Y-112340767D01*
X152123000Y-112353457D01*
X152423000Y-112353457D01*
X152551849Y-112340767D01*
X152675746Y-112303183D01*
X152789930Y-112242150D01*
X152890014Y-112160014D01*
X152972150Y-112059930D01*
X153033183Y-111945746D01*
X153070767Y-111821849D01*
X153083457Y-111693000D01*
X153083457Y-110043000D01*
X153070767Y-109914151D01*
X153033183Y-109790254D01*
X152972150Y-109676070D01*
X152890014Y-109575986D01*
X152789930Y-109493850D01*
X152675746Y-109432817D01*
X152551849Y-109395233D01*
X152423000Y-109382543D01*
X152123000Y-109382543D01*
X151994151Y-109395233D01*
X151870254Y-109432817D01*
X151756070Y-109493850D01*
X151655986Y-109575986D01*
X151638000Y-109597902D01*
X151620014Y-109575986D01*
X151519930Y-109493850D01*
X151405746Y-109432817D01*
X151281849Y-109395233D01*
X151153000Y-109382543D01*
X150853000Y-109382543D01*
X150724151Y-109395233D01*
X150600254Y-109432817D01*
X150486070Y-109493850D01*
X150385986Y-109575986D01*
X150368000Y-109597902D01*
X150350014Y-109575986D01*
X150249930Y-109493850D01*
X150135746Y-109432817D01*
X150011849Y-109395233D01*
X149883000Y-109382543D01*
X149583000Y-109382543D01*
X149454151Y-109395233D01*
X149362953Y-109422898D01*
X149304422Y-109351578D01*
X149188393Y-109256355D01*
X149056016Y-109185597D01*
X148912378Y-109142025D01*
X148763000Y-109127313D01*
X148699500Y-109131000D01*
X148509000Y-109321500D01*
X148509000Y-110487000D01*
X148763000Y-110487000D01*
X148763000Y-111249000D01*
X148509000Y-111249000D01*
X148509000Y-112414500D01*
X148699500Y-112605000D01*
X148763000Y-112608687D01*
X148912378Y-112593975D01*
X149056016Y-112550403D01*
X149100000Y-112526893D01*
X149100001Y-116483024D01*
X148887886Y-116596402D01*
X148681103Y-116766104D01*
X148538552Y-116939804D01*
X148360662Y-116686411D01*
X148133533Y-116469514D01*
X147868454Y-116301095D01*
X147767337Y-116243558D01*
X147527000Y-116361511D01*
X146765000Y-116361511D01*
X146524663Y-116243558D01*
X146423546Y-116301095D01*
X146158467Y-116469514D01*
X145931338Y-116686411D01*
X145894518Y-116738859D01*
X145878297Y-116708513D01*
X145783724Y-116593276D01*
X145668487Y-116498703D01*
X145537014Y-116428429D01*
X145394358Y-116385155D01*
X145246000Y-116370543D01*
X144046000Y-116370543D01*
X143897642Y-116385155D01*
X143754986Y-116428429D01*
X143623513Y-116498703D01*
X143508276Y-116593276D01*
X143413703Y-116708513D01*
X143343429Y-116839986D01*
X143300155Y-116982642D01*
X143285543Y-117131000D01*
X111581000Y-117131000D01*
X111581000Y-104507400D01*
X120431313Y-104507400D01*
X120446025Y-104656778D01*
X120489597Y-104800416D01*
X120560355Y-104932793D01*
X120655578Y-105048822D01*
X120771607Y-105144045D01*
X120903984Y-105214803D01*
X121047622Y-105258375D01*
X121197000Y-105273087D01*
X121475500Y-105269400D01*
X121666000Y-105078900D01*
X121666000Y-104038400D01*
X122428000Y-104038400D01*
X122428000Y-105078900D01*
X122618500Y-105269400D01*
X122897000Y-105273087D01*
X123046378Y-105258375D01*
X123190016Y-105214803D01*
X123322393Y-105144045D01*
X123438422Y-105048822D01*
X123533645Y-104932793D01*
X123604403Y-104800416D01*
X123647975Y-104656778D01*
X123662687Y-104507400D01*
X123659000Y-104228900D01*
X123468500Y-104038400D01*
X122428000Y-104038400D01*
X121666000Y-104038400D01*
X120625500Y-104038400D01*
X120435000Y-104228900D01*
X120431313Y-104507400D01*
X111581000Y-104507400D01*
X111581000Y-102807400D01*
X120431313Y-102807400D01*
X120435000Y-103085900D01*
X120625500Y-103276400D01*
X121666000Y-103276400D01*
X121666000Y-101498400D01*
X122428000Y-101498400D01*
X122428000Y-103276400D01*
X123468500Y-103276400D01*
X123659000Y-103085900D01*
X123662687Y-102807400D01*
X123647975Y-102658022D01*
X123604403Y-102514384D01*
X123533645Y-102382007D01*
X123438422Y-102265978D01*
X123322393Y-102170755D01*
X123277586Y-102146805D01*
X123390011Y-102008977D01*
X123534442Y-101738737D01*
X123416489Y-101498400D01*
X122428000Y-101498400D01*
X121666000Y-101498400D01*
X120677511Y-101498400D01*
X120559558Y-101738737D01*
X120703989Y-102008977D01*
X120816414Y-102146805D01*
X120771607Y-102170755D01*
X120655578Y-102265978D01*
X120560355Y-102382007D01*
X120489597Y-102514384D01*
X120446025Y-102658022D01*
X120431313Y-102807400D01*
X111581000Y-102807400D01*
X111581000Y-99198737D01*
X120559558Y-99198737D01*
X120703989Y-99468977D01*
X120903733Y-99713854D01*
X121065471Y-99847400D01*
X120903733Y-99980946D01*
X120703989Y-100225823D01*
X120559558Y-100496063D01*
X120677511Y-100736400D01*
X121666000Y-100736400D01*
X121666000Y-98958400D01*
X122428000Y-98958400D01*
X122428000Y-100736400D01*
X123416489Y-100736400D01*
X123534442Y-100496063D01*
X123390011Y-100225823D01*
X123190267Y-99980946D01*
X123028529Y-99847400D01*
X123190267Y-99713854D01*
X123390011Y-99468977D01*
X123534442Y-99198737D01*
X123416489Y-98958400D01*
X122428000Y-98958400D01*
X121666000Y-98958400D01*
X120677511Y-98958400D01*
X120559558Y-99198737D01*
X111581000Y-99198737D01*
X111581000Y-97956063D01*
X120559558Y-97956063D01*
X120677511Y-98196400D01*
X121666000Y-98196400D01*
X121666000Y-97201558D01*
X122428000Y-97201558D01*
X122428000Y-98196400D01*
X123416489Y-98196400D01*
X123534442Y-97956063D01*
X123390011Y-97685823D01*
X123190267Y-97440946D01*
X122946588Y-97239742D01*
X122668339Y-97089944D01*
X122428000Y-97201558D01*
X121666000Y-97201558D01*
X121425661Y-97089944D01*
X121147412Y-97239742D01*
X120903733Y-97440946D01*
X120703989Y-97685823D01*
X120559558Y-97956063D01*
X111581000Y-97956063D01*
X111581000Y-91284219D01*
X122788400Y-91284219D01*
X122788400Y-91443381D01*
X122819451Y-91599485D01*
X122880359Y-91746532D01*
X122968785Y-91878870D01*
X123081330Y-91991415D01*
X123213668Y-92079841D01*
X123249762Y-92094791D01*
X123331116Y-92176145D01*
X123331120Y-92176150D01*
X124995522Y-93840553D01*
X125019379Y-93869623D01*
X125048449Y-93893480D01*
X125135408Y-93964846D01*
X125206165Y-94002666D01*
X125267786Y-94035603D01*
X125411423Y-94079175D01*
X125523375Y-94090201D01*
X125523378Y-94090201D01*
X125560801Y-94093887D01*
X125598224Y-94090201D01*
X137596576Y-94090201D01*
X137633999Y-94093887D01*
X137671422Y-94090201D01*
X137671425Y-94090201D01*
X137783377Y-94079175D01*
X137927014Y-94035603D01*
X138059391Y-93964846D01*
X138175421Y-93869623D01*
X138199283Y-93840547D01*
X140046639Y-91993191D01*
X140082732Y-91978241D01*
X140215070Y-91889815D01*
X140327615Y-91777270D01*
X140416041Y-91644932D01*
X140476949Y-91497885D01*
X140508000Y-91341781D01*
X140508000Y-91182619D01*
X140476949Y-91026515D01*
X140416041Y-90879468D01*
X140327615Y-90747130D01*
X140215070Y-90634585D01*
X140082732Y-90546159D01*
X139935685Y-90485251D01*
X139779581Y-90454200D01*
X139620419Y-90454200D01*
X139464315Y-90485251D01*
X139317268Y-90546159D01*
X139184930Y-90634585D01*
X139072385Y-90747130D01*
X138983959Y-90879468D01*
X138969009Y-90915561D01*
X137318369Y-92566201D01*
X136844057Y-92566201D01*
X136844057Y-91174200D01*
X136834249Y-91074615D01*
X136805201Y-90978857D01*
X136758029Y-90890605D01*
X136694548Y-90813252D01*
X136617195Y-90749771D01*
X136528943Y-90702599D01*
X136433185Y-90673551D01*
X136333600Y-90663743D01*
X136157628Y-90663743D01*
X136241714Y-90618798D01*
X136448497Y-90449097D01*
X136618198Y-90242314D01*
X136744298Y-90006398D01*
X136821950Y-89750414D01*
X136848170Y-89484200D01*
X136821950Y-89217986D01*
X136744298Y-88962002D01*
X136618198Y-88726086D01*
X136448497Y-88519303D01*
X136247909Y-88354686D01*
X136383188Y-88281858D01*
X136626867Y-88080654D01*
X136826611Y-87835777D01*
X136971042Y-87565537D01*
X136853089Y-87325200D01*
X135864600Y-87325200D01*
X135864600Y-87345200D01*
X135102600Y-87345200D01*
X135102600Y-87325200D01*
X134114111Y-87325200D01*
X133996158Y-87565537D01*
X134140589Y-87835777D01*
X134340333Y-88080654D01*
X134584012Y-88281858D01*
X134719291Y-88354686D01*
X134518703Y-88519303D01*
X134349002Y-88726086D01*
X134222902Y-88962002D01*
X134145250Y-89217986D01*
X134119030Y-89484200D01*
X134145250Y-89750414D01*
X134222902Y-90006398D01*
X134349002Y-90242314D01*
X134518703Y-90449097D01*
X134725486Y-90618798D01*
X134809572Y-90663743D01*
X134633600Y-90663743D01*
X134534015Y-90673551D01*
X134438257Y-90702599D01*
X134350005Y-90749771D01*
X134272652Y-90813252D01*
X134209171Y-90890605D01*
X134161999Y-90978857D01*
X134132951Y-91074615D01*
X134123143Y-91174200D01*
X134123143Y-92566201D01*
X130621057Y-92566201D01*
X130621057Y-91148800D01*
X130611249Y-91049215D01*
X130582201Y-90953457D01*
X130535029Y-90865205D01*
X130471548Y-90787852D01*
X130394195Y-90724371D01*
X130305943Y-90677199D01*
X130210185Y-90648151D01*
X130110600Y-90638343D01*
X129934628Y-90638343D01*
X130018714Y-90593398D01*
X130225497Y-90423697D01*
X130395198Y-90216914D01*
X130521298Y-89980998D01*
X130598950Y-89725014D01*
X130625170Y-89458800D01*
X130598950Y-89192586D01*
X130521298Y-88936602D01*
X130395198Y-88700686D01*
X130225497Y-88493903D01*
X130024909Y-88329286D01*
X130160188Y-88256458D01*
X130403867Y-88055254D01*
X130603611Y-87810377D01*
X130748042Y-87540137D01*
X130630090Y-87299802D01*
X130872600Y-87299802D01*
X130872600Y-87259342D01*
X130932159Y-87403132D01*
X131020585Y-87535470D01*
X131133130Y-87648015D01*
X131265468Y-87736441D01*
X131412515Y-87797349D01*
X131568619Y-87828400D01*
X131727781Y-87828400D01*
X131883885Y-87797349D01*
X132030932Y-87736441D01*
X132163270Y-87648015D01*
X132275815Y-87535470D01*
X132364241Y-87403132D01*
X132425149Y-87256085D01*
X132456200Y-87099981D01*
X132456200Y-86940819D01*
X132425149Y-86784715D01*
X132364241Y-86637668D01*
X132275815Y-86505330D01*
X132163270Y-86392785D01*
X132058626Y-86322863D01*
X133996158Y-86322863D01*
X134114111Y-86563200D01*
X135102600Y-86563200D01*
X135102600Y-86543200D01*
X135864600Y-86543200D01*
X135864600Y-86563200D01*
X136853089Y-86563200D01*
X136971042Y-86322863D01*
X136826611Y-86052623D01*
X136626867Y-85807746D01*
X136383188Y-85606542D01*
X136247909Y-85533714D01*
X136448497Y-85369097D01*
X136618198Y-85162314D01*
X136744298Y-84926398D01*
X136821950Y-84670414D01*
X136848170Y-84404200D01*
X136821950Y-84137986D01*
X136744298Y-83882002D01*
X136618198Y-83646086D01*
X136448497Y-83439303D01*
X136241714Y-83269602D01*
X136005798Y-83143502D01*
X135975133Y-83134200D01*
X136005798Y-83124898D01*
X136241714Y-82998798D01*
X136448497Y-82829097D01*
X136618198Y-82622314D01*
X136744298Y-82386398D01*
X136821950Y-82130414D01*
X136848170Y-81864200D01*
X136821950Y-81597986D01*
X136744298Y-81342002D01*
X136618198Y-81106086D01*
X136448497Y-80899303D01*
X136241714Y-80729602D01*
X136005798Y-80603502D01*
X135749814Y-80525850D01*
X135550306Y-80506200D01*
X135416894Y-80506200D01*
X135217386Y-80525850D01*
X134961402Y-80603502D01*
X134725486Y-80729602D01*
X134518703Y-80899303D01*
X134349002Y-81106086D01*
X134222902Y-81342002D01*
X134145250Y-81597986D01*
X134119030Y-81864200D01*
X134145250Y-82130414D01*
X134222902Y-82386398D01*
X134349002Y-82622314D01*
X134518703Y-82829097D01*
X134725486Y-82998798D01*
X134961402Y-83124898D01*
X134992067Y-83134200D01*
X134961402Y-83143502D01*
X134725486Y-83269602D01*
X134518703Y-83439303D01*
X134349002Y-83646086D01*
X134222902Y-83882002D01*
X134145250Y-84137986D01*
X134119030Y-84404200D01*
X134145250Y-84670414D01*
X134222902Y-84926398D01*
X134349002Y-85162314D01*
X134518703Y-85369097D01*
X134719291Y-85533714D01*
X134584012Y-85606542D01*
X134340333Y-85807746D01*
X134140589Y-86052623D01*
X133996158Y-86322863D01*
X132058626Y-86322863D01*
X132030932Y-86304359D01*
X131883885Y-86243451D01*
X131727781Y-86212400D01*
X131568619Y-86212400D01*
X131412515Y-86243451D01*
X131265468Y-86304359D01*
X131133130Y-86392785D01*
X131020585Y-86505330D01*
X130932159Y-86637668D01*
X130872600Y-86781458D01*
X130872600Y-86537798D01*
X130630090Y-86537798D01*
X130748042Y-86297463D01*
X130603611Y-86027223D01*
X130403867Y-85782346D01*
X130160188Y-85581142D01*
X130024909Y-85508314D01*
X130225497Y-85343697D01*
X130395198Y-85136914D01*
X130521298Y-84900998D01*
X130598950Y-84645014D01*
X130625170Y-84378800D01*
X130598950Y-84112586D01*
X130521298Y-83856602D01*
X130395198Y-83620686D01*
X130225497Y-83413903D01*
X130018714Y-83244202D01*
X129782798Y-83118102D01*
X129752133Y-83108800D01*
X129782798Y-83099498D01*
X130018714Y-82973398D01*
X130225497Y-82803697D01*
X130395198Y-82596914D01*
X130521298Y-82360998D01*
X130598950Y-82105014D01*
X130625170Y-81838800D01*
X130598950Y-81572586D01*
X130521298Y-81316602D01*
X130395198Y-81080686D01*
X130225497Y-80873903D01*
X130018714Y-80704202D01*
X129782798Y-80578102D01*
X129526814Y-80500450D01*
X129327306Y-80480800D01*
X129193894Y-80480800D01*
X128994386Y-80500450D01*
X128738402Y-80578102D01*
X128502486Y-80704202D01*
X128295703Y-80873903D01*
X128126002Y-81080686D01*
X127999902Y-81316602D01*
X127922250Y-81572586D01*
X127896030Y-81838800D01*
X127922250Y-82105014D01*
X127999902Y-82360998D01*
X128126002Y-82596914D01*
X128295703Y-82803697D01*
X128502486Y-82973398D01*
X128738402Y-83099498D01*
X128769067Y-83108800D01*
X128738402Y-83118102D01*
X128502486Y-83244202D01*
X128295703Y-83413903D01*
X128126002Y-83620686D01*
X127999902Y-83856602D01*
X127922250Y-84112586D01*
X127896030Y-84378800D01*
X127922250Y-84645014D01*
X127999902Y-84900998D01*
X128126002Y-85136914D01*
X128295703Y-85343697D01*
X128496291Y-85508314D01*
X128361012Y-85581142D01*
X128117333Y-85782346D01*
X127917589Y-86027223D01*
X127773158Y-86297463D01*
X127891111Y-86537800D01*
X128879600Y-86537800D01*
X128879600Y-86517800D01*
X129641600Y-86517800D01*
X129641600Y-86537800D01*
X129661600Y-86537800D01*
X129661600Y-87299800D01*
X129641600Y-87299800D01*
X129641600Y-87319800D01*
X128879600Y-87319800D01*
X128879600Y-87299800D01*
X127891111Y-87299800D01*
X127773158Y-87540137D01*
X127917589Y-87810377D01*
X128117333Y-88055254D01*
X128361012Y-88256458D01*
X128496291Y-88329286D01*
X128295703Y-88493903D01*
X128126002Y-88700686D01*
X127999902Y-88936602D01*
X127922250Y-89192586D01*
X127896030Y-89458800D01*
X127922250Y-89725014D01*
X127999902Y-89980998D01*
X128126002Y-90216914D01*
X128295703Y-90423697D01*
X128502486Y-90593398D01*
X128586572Y-90638343D01*
X128410600Y-90638343D01*
X128311015Y-90648151D01*
X128215257Y-90677199D01*
X128127005Y-90724371D01*
X128049652Y-90787852D01*
X127986171Y-90865205D01*
X127938999Y-90953457D01*
X127909951Y-91049215D01*
X127900143Y-91148800D01*
X127900143Y-92566201D01*
X125876432Y-92566201D01*
X124408750Y-91098520D01*
X124408745Y-91098516D01*
X124327391Y-91017162D01*
X124312441Y-90981068D01*
X124224015Y-90848730D01*
X124111470Y-90736185D01*
X123979132Y-90647759D01*
X123832085Y-90586851D01*
X123675981Y-90555800D01*
X123516819Y-90555800D01*
X123360715Y-90586851D01*
X123213668Y-90647759D01*
X123081330Y-90736185D01*
X122968785Y-90848730D01*
X122880359Y-90981068D01*
X122819451Y-91128115D01*
X122788400Y-91284219D01*
X111581000Y-91284219D01*
X111581000Y-79219219D01*
X151947600Y-79219219D01*
X151947600Y-79378381D01*
X151978651Y-79534485D01*
X152039559Y-79681532D01*
X152127985Y-79813870D01*
X152240530Y-79926415D01*
X152372868Y-80014841D01*
X152519915Y-80075749D01*
X152676019Y-80106800D01*
X152835181Y-80106800D01*
X152991285Y-80075749D01*
X153027376Y-80060800D01*
X165799177Y-80060800D01*
X165836600Y-80064486D01*
X165874023Y-80060800D01*
X165874026Y-80060800D01*
X165985978Y-80049774D01*
X166129615Y-80006202D01*
X166261992Y-79935445D01*
X166378022Y-79840222D01*
X166401884Y-79811146D01*
X169145097Y-77067934D01*
X169149120Y-77069154D01*
X169418000Y-77095636D01*
X169686881Y-77069154D01*
X169945428Y-76990724D01*
X170183707Y-76863361D01*
X170392560Y-76691960D01*
X170563961Y-76483107D01*
X170688000Y-76251046D01*
X170812039Y-76483107D01*
X170983441Y-76691960D01*
X171192294Y-76863361D01*
X171430573Y-76990724D01*
X171689120Y-77069154D01*
X171958000Y-77095636D01*
X172226881Y-77069154D01*
X172485428Y-76990724D01*
X172723707Y-76863361D01*
X172932560Y-76691960D01*
X173103961Y-76483107D01*
X173228000Y-76251046D01*
X173352039Y-76483107D01*
X173523441Y-76691960D01*
X173732294Y-76863361D01*
X173970573Y-76990724D01*
X174229120Y-77069154D01*
X174498000Y-77095636D01*
X174766881Y-77069154D01*
X175025428Y-76990724D01*
X175263707Y-76863361D01*
X175472560Y-76691960D01*
X175643961Y-76483107D01*
X175771324Y-76244827D01*
X175849754Y-75986280D01*
X175869600Y-75784777D01*
X175869600Y-75345222D01*
X175849754Y-75143719D01*
X175771324Y-74885172D01*
X175643961Y-74646893D01*
X175472559Y-74438040D01*
X175263706Y-74266639D01*
X175025427Y-74139276D01*
X174766880Y-74060846D01*
X174498000Y-74034364D01*
X174229119Y-74060846D01*
X173970572Y-74139276D01*
X173732293Y-74266639D01*
X173523440Y-74438041D01*
X173352039Y-74646894D01*
X173228000Y-74878954D01*
X173103961Y-74646893D01*
X172932559Y-74438040D01*
X172723706Y-74266639D01*
X172485427Y-74139276D01*
X172226880Y-74060846D01*
X171958000Y-74034364D01*
X171689119Y-74060846D01*
X171430572Y-74139276D01*
X171192293Y-74266639D01*
X170983440Y-74438041D01*
X170812039Y-74646894D01*
X170688000Y-74878954D01*
X170563961Y-74646893D01*
X170392559Y-74438040D01*
X170183706Y-74266639D01*
X169945427Y-74139276D01*
X169686880Y-74060846D01*
X169418000Y-74034364D01*
X169149119Y-74060846D01*
X168890572Y-74139276D01*
X168652293Y-74266639D01*
X168443440Y-74438041D01*
X168272039Y-74646894D01*
X168148000Y-74878954D01*
X168023961Y-74646893D01*
X167852559Y-74438040D01*
X167643706Y-74266639D01*
X167405427Y-74139276D01*
X167146880Y-74060846D01*
X166878000Y-74034364D01*
X166609119Y-74060846D01*
X166350572Y-74139276D01*
X166112293Y-74266639D01*
X165903440Y-74438041D01*
X165732039Y-74646894D01*
X165608000Y-74878954D01*
X165483961Y-74646893D01*
X165312559Y-74438040D01*
X165103706Y-74266639D01*
X164865427Y-74139276D01*
X164606880Y-74060846D01*
X164338000Y-74034364D01*
X164069119Y-74060846D01*
X163810572Y-74139276D01*
X163572293Y-74266639D01*
X163363440Y-74438041D01*
X163192039Y-74646894D01*
X163068000Y-74878954D01*
X162943961Y-74646893D01*
X162772559Y-74438040D01*
X162563706Y-74266639D01*
X162325427Y-74139276D01*
X162066880Y-74060846D01*
X161798000Y-74034364D01*
X161529119Y-74060846D01*
X161270572Y-74139276D01*
X161032293Y-74266639D01*
X160823440Y-74438041D01*
X160652039Y-74646894D01*
X160528000Y-74878954D01*
X160403961Y-74646893D01*
X160232559Y-74438040D01*
X160023706Y-74266639D01*
X159785427Y-74139276D01*
X159526880Y-74060846D01*
X159258000Y-74034364D01*
X158989119Y-74060846D01*
X158730572Y-74139276D01*
X158492293Y-74266639D01*
X158283440Y-74438041D01*
X158112039Y-74646894D01*
X157988000Y-74878954D01*
X157863961Y-74646893D01*
X157692559Y-74438040D01*
X157483706Y-74266639D01*
X157245427Y-74139276D01*
X156986880Y-74060846D01*
X156718000Y-74034364D01*
X156449119Y-74060846D01*
X156190572Y-74139276D01*
X155952293Y-74266639D01*
X155743440Y-74438041D01*
X155572039Y-74646894D01*
X155444676Y-74885173D01*
X155366246Y-75143720D01*
X155346400Y-75345223D01*
X155346400Y-75784778D01*
X155366246Y-75986281D01*
X155444676Y-76244828D01*
X155572039Y-76483107D01*
X155743441Y-76691960D01*
X155952294Y-76863361D01*
X156190573Y-76990724D01*
X156449120Y-77069154D01*
X156718000Y-77095636D01*
X156986881Y-77069154D01*
X157245428Y-76990724D01*
X157483707Y-76863361D01*
X157692560Y-76691960D01*
X157863961Y-76483107D01*
X157988000Y-76251046D01*
X158112039Y-76483107D01*
X158283441Y-76691960D01*
X158492294Y-76863361D01*
X158730573Y-76990724D01*
X158989120Y-77069154D01*
X159258000Y-77095636D01*
X159526881Y-77069154D01*
X159785428Y-76990724D01*
X160023707Y-76863361D01*
X160232560Y-76691960D01*
X160403961Y-76483107D01*
X160528000Y-76251046D01*
X160652039Y-76483107D01*
X160823441Y-76691960D01*
X161032294Y-76863361D01*
X161270573Y-76990724D01*
X161529120Y-77069154D01*
X161798000Y-77095636D01*
X162066881Y-77069154D01*
X162325428Y-76990724D01*
X162563707Y-76863361D01*
X162772560Y-76691960D01*
X162943961Y-76483107D01*
X163068000Y-76251046D01*
X163192039Y-76483107D01*
X163363441Y-76691960D01*
X163572294Y-76863361D01*
X163810573Y-76990724D01*
X164069120Y-77069154D01*
X164338000Y-77095636D01*
X164606881Y-77069154D01*
X164865428Y-76990724D01*
X165103707Y-76863361D01*
X165312560Y-76691960D01*
X165483961Y-76483107D01*
X165608000Y-76251046D01*
X165732039Y-76483107D01*
X165903441Y-76691960D01*
X166112294Y-76863361D01*
X166350573Y-76990724D01*
X166609120Y-77069154D01*
X166878000Y-77095636D01*
X166971325Y-77086444D01*
X165520970Y-78536800D01*
X153027376Y-78536800D01*
X152991285Y-78521851D01*
X152835181Y-78490800D01*
X152676019Y-78490800D01*
X152519915Y-78521851D01*
X152372868Y-78582759D01*
X152240530Y-78671185D01*
X152127985Y-78783730D01*
X152039559Y-78916068D01*
X151978651Y-79063115D01*
X151947600Y-79219219D01*
X111581000Y-79219219D01*
X111581000Y-73608000D01*
X124602897Y-73608000D01*
X124265053Y-73945844D01*
G36*
X164705000Y-108381000D02*
G01*
X164725000Y-108381000D01*
X164725000Y-109143000D01*
X164705000Y-109143000D01*
X164705000Y-110333500D01*
X164895500Y-110524000D01*
X165074000Y-110527687D01*
X165223378Y-110512975D01*
X165367016Y-110469403D01*
X165481000Y-110408476D01*
X165481001Y-113551543D01*
X164724000Y-113551543D01*
X164624415Y-113561351D01*
X164528657Y-113590399D01*
X164440405Y-113637571D01*
X164363052Y-113701052D01*
X164299571Y-113778405D01*
X164252399Y-113866657D01*
X164223351Y-113962415D01*
X164213543Y-114062000D01*
X164213543Y-114300000D01*
X163332831Y-114300000D01*
X160019221Y-110986390D01*
X160119868Y-111053641D01*
X160266915Y-111114549D01*
X160423019Y-111145600D01*
X160582181Y-111145600D01*
X160738285Y-111114549D01*
X160885332Y-111053641D01*
X161017670Y-110965215D01*
X161130215Y-110852670D01*
X161218641Y-110720332D01*
X161233591Y-110684238D01*
X161314940Y-110602889D01*
X161344021Y-110579023D01*
X161439244Y-110462993D01*
X161510001Y-110330616D01*
X161553573Y-110186978D01*
X161563069Y-110090561D01*
X162812000Y-108841630D01*
X162812000Y-109143002D01*
X163002498Y-109143002D01*
X162812000Y-109333500D01*
X162808313Y-109762000D01*
X162823025Y-109911378D01*
X162866597Y-110055016D01*
X162937355Y-110187393D01*
X163032578Y-110303422D01*
X163148607Y-110398645D01*
X163280984Y-110469403D01*
X163424622Y-110512975D01*
X163574000Y-110527687D01*
X163752500Y-110524000D01*
X163943000Y-110333500D01*
X163943000Y-109143000D01*
X163923000Y-109143000D01*
X163923000Y-108381000D01*
X163943000Y-108381000D01*
X163943000Y-108361000D01*
X164705000Y-108361000D01*
X164705000Y-108381000D01*
X164705000Y-108381000D01*
G37*
X164705000Y-108381000D02*
X164725000Y-108381000D01*
X164725000Y-109143000D01*
X164705000Y-109143000D01*
X164705000Y-110333500D01*
X164895500Y-110524000D01*
X165074000Y-110527687D01*
X165223378Y-110512975D01*
X165367016Y-110469403D01*
X165481000Y-110408476D01*
X165481001Y-113551543D01*
X164724000Y-113551543D01*
X164624415Y-113561351D01*
X164528657Y-113590399D01*
X164440405Y-113637571D01*
X164363052Y-113701052D01*
X164299571Y-113778405D01*
X164252399Y-113866657D01*
X164223351Y-113962415D01*
X164213543Y-114062000D01*
X164213543Y-114300000D01*
X163332831Y-114300000D01*
X160019221Y-110986390D01*
X160119868Y-111053641D01*
X160266915Y-111114549D01*
X160423019Y-111145600D01*
X160582181Y-111145600D01*
X160738285Y-111114549D01*
X160885332Y-111053641D01*
X161017670Y-110965215D01*
X161130215Y-110852670D01*
X161218641Y-110720332D01*
X161233591Y-110684238D01*
X161314940Y-110602889D01*
X161344021Y-110579023D01*
X161439244Y-110462993D01*
X161510001Y-110330616D01*
X161553573Y-110186978D01*
X161563069Y-110090561D01*
X162812000Y-108841630D01*
X162812000Y-109143002D01*
X163002498Y-109143002D01*
X162812000Y-109333500D01*
X162808313Y-109762000D01*
X162823025Y-109911378D01*
X162866597Y-110055016D01*
X162937355Y-110187393D01*
X163032578Y-110303422D01*
X163148607Y-110398645D01*
X163280984Y-110469403D01*
X163424622Y-110512975D01*
X163574000Y-110527687D01*
X163752500Y-110524000D01*
X163943000Y-110333500D01*
X163943000Y-109143000D01*
X163923000Y-109143000D01*
X163923000Y-108381000D01*
X163943000Y-108381000D01*
X163943000Y-108361000D01*
X164705000Y-108361000D01*
X164705000Y-108381000D01*
G36*
X168162001Y-90931432D02*
G01*
X168162000Y-97042725D01*
X168074415Y-97051351D01*
X167978657Y-97080399D01*
X167890405Y-97127571D01*
X167813052Y-97191052D01*
X167774000Y-97238638D01*
X167734948Y-97191052D01*
X167657595Y-97127571D01*
X167569343Y-97080399D01*
X167473585Y-97051351D01*
X167374000Y-97041543D01*
X165874000Y-97041543D01*
X165774415Y-97051351D01*
X165678657Y-97080399D01*
X165674532Y-97082604D01*
X165615422Y-97010578D01*
X165499393Y-96915355D01*
X165367016Y-96844597D01*
X165223378Y-96801025D01*
X165074000Y-96786313D01*
X164895500Y-96790000D01*
X164705000Y-96980500D01*
X164705000Y-98171000D01*
X164725000Y-98171000D01*
X164725000Y-98933000D01*
X164705000Y-98933000D01*
X164705000Y-100123500D01*
X164895500Y-100314000D01*
X165074000Y-100317687D01*
X165223378Y-100302975D01*
X165367016Y-100259403D01*
X165481000Y-100198476D01*
X165481001Y-103341543D01*
X164724000Y-103341543D01*
X164624415Y-103351351D01*
X164528657Y-103380399D01*
X164440405Y-103427571D01*
X164363052Y-103491052D01*
X164299571Y-103568405D01*
X164252399Y-103656657D01*
X164223351Y-103752415D01*
X164213543Y-103852000D01*
X164213543Y-105284826D01*
X160290253Y-109208117D01*
X160261177Y-109231979D01*
X160212412Y-109291400D01*
X160165954Y-109348009D01*
X160140713Y-109395233D01*
X160095197Y-109480387D01*
X160051625Y-109624024D01*
X160047078Y-109670196D01*
X159987530Y-109709985D01*
X159874985Y-109822530D01*
X159786559Y-109954868D01*
X159725651Y-110101915D01*
X159694600Y-110258019D01*
X159694600Y-110417181D01*
X159725651Y-110573285D01*
X159786559Y-110720332D01*
X159853810Y-110820979D01*
X155845657Y-106812827D01*
X155845657Y-106354999D01*
X155831045Y-106206641D01*
X155787771Y-106063985D01*
X155717497Y-105932512D01*
X155678803Y-105885363D01*
X155760593Y-105841645D01*
X155876622Y-105746422D01*
X155971845Y-105630393D01*
X156042603Y-105498016D01*
X156086175Y-105354378D01*
X156100887Y-105205000D01*
X156097200Y-105141500D01*
X155906700Y-104951000D01*
X155016200Y-104951000D01*
X155016200Y-105031000D01*
X154292831Y-105031000D01*
X154254200Y-104992369D01*
X154254200Y-104951000D01*
X154234200Y-104951000D01*
X154234200Y-104309000D01*
X154254200Y-104309000D01*
X154254200Y-103483500D01*
X155016200Y-103483500D01*
X155016200Y-104309000D01*
X155906700Y-104309000D01*
X156097200Y-104118500D01*
X156100887Y-104055000D01*
X156086175Y-103905622D01*
X156042603Y-103761984D01*
X155971845Y-103629607D01*
X155876622Y-103513578D01*
X155760593Y-103418355D01*
X155628216Y-103347597D01*
X155484578Y-103304025D01*
X155335200Y-103289313D01*
X155206700Y-103293000D01*
X155016200Y-103483500D01*
X154254200Y-103483500D01*
X154063700Y-103293000D01*
X153935200Y-103289313D01*
X153785822Y-103304025D01*
X153642184Y-103347597D01*
X153509807Y-103418355D01*
X153393778Y-103513578D01*
X153298555Y-103629607D01*
X153227797Y-103761984D01*
X153184225Y-103905622D01*
X153182675Y-103921358D01*
X153098582Y-103852345D01*
X152966205Y-103781588D01*
X152822568Y-103738016D01*
X152710616Y-103726990D01*
X152710613Y-103726990D01*
X152673190Y-103723304D01*
X152635767Y-103726990D01*
X152330000Y-103726990D01*
X152330000Y-103255630D01*
X153280631Y-102305000D01*
X156483577Y-102305000D01*
X156521000Y-102308686D01*
X156558423Y-102305000D01*
X156558426Y-102305000D01*
X156670378Y-102293974D01*
X156814015Y-102250402D01*
X156946392Y-102179645D01*
X157062422Y-102084422D01*
X157086284Y-102055346D01*
X158109173Y-101032457D01*
X158567001Y-101032457D01*
X158715359Y-101017845D01*
X158858015Y-100974571D01*
X158989488Y-100904297D01*
X159104725Y-100809725D01*
X159199297Y-100694488D01*
X159269571Y-100563015D01*
X159312845Y-100420359D01*
X159327457Y-100272001D01*
X159327457Y-99552000D01*
X162808313Y-99552000D01*
X162823025Y-99701378D01*
X162866597Y-99845016D01*
X162937355Y-99977393D01*
X163032578Y-100093422D01*
X163148607Y-100188645D01*
X163280984Y-100259403D01*
X163424622Y-100302975D01*
X163574000Y-100317687D01*
X163752500Y-100314000D01*
X163943000Y-100123500D01*
X163943000Y-98933000D01*
X163002500Y-98933000D01*
X162812000Y-99123500D01*
X162808313Y-99552000D01*
X159327457Y-99552000D01*
X159327457Y-99429990D01*
X159996924Y-99429990D01*
X160028012Y-99433052D01*
X160059100Y-99429990D01*
X160152102Y-99420830D01*
X160271422Y-99384635D01*
X160381389Y-99325856D01*
X160477776Y-99246754D01*
X160497596Y-99222603D01*
X161112615Y-98607584D01*
X161136765Y-98587765D01*
X161215867Y-98491378D01*
X161274646Y-98381411D01*
X161310841Y-98262091D01*
X161320001Y-98169089D01*
X161320001Y-98169088D01*
X161323063Y-98138002D01*
X161320001Y-98106916D01*
X161320001Y-97552000D01*
X162808313Y-97552000D01*
X162812000Y-97980500D01*
X163002500Y-98171000D01*
X163943000Y-98171000D01*
X163943000Y-96980500D01*
X163752500Y-96790000D01*
X163574000Y-96786313D01*
X163424622Y-96801025D01*
X163280984Y-96844597D01*
X163148607Y-96915355D01*
X163032578Y-97010578D01*
X162937355Y-97126607D01*
X162866597Y-97258984D01*
X162823025Y-97402622D01*
X162808313Y-97552000D01*
X161320001Y-97552000D01*
X161320001Y-93154086D01*
X161323063Y-93123000D01*
X161319266Y-93084454D01*
X161310841Y-92998911D01*
X161274646Y-92879591D01*
X161215867Y-92769624D01*
X161136765Y-92673237D01*
X161112609Y-92653413D01*
X160831585Y-92372388D01*
X160831580Y-92372382D01*
X160809169Y-92349971D01*
X160850350Y-92214214D01*
X160876570Y-91948000D01*
X160850350Y-91681786D01*
X160772698Y-91425802D01*
X160646598Y-91189886D01*
X160476897Y-90983103D01*
X160270114Y-90813402D01*
X160034198Y-90687302D01*
X159778214Y-90609650D01*
X159578706Y-90590000D01*
X159445294Y-90590000D01*
X159245786Y-90609650D01*
X158989802Y-90687302D01*
X158753886Y-90813402D01*
X158547103Y-90983103D01*
X158382815Y-91183290D01*
X158315011Y-91056423D01*
X158115267Y-90811546D01*
X157871588Y-90610342D01*
X157593339Y-90460544D01*
X157353000Y-90572158D01*
X157353000Y-91567000D01*
X157373000Y-91567000D01*
X157373000Y-92329000D01*
X157353000Y-92329000D01*
X157353000Y-92349000D01*
X156591000Y-92349000D01*
X156591000Y-92329000D01*
X155602511Y-92329000D01*
X155484558Y-92569337D01*
X155628989Y-92839577D01*
X155828733Y-93084454D01*
X156072412Y-93285658D01*
X156207691Y-93358486D01*
X156007103Y-93523103D01*
X155837402Y-93729886D01*
X155711302Y-93965802D01*
X155633650Y-94221786D01*
X155607430Y-94488000D01*
X155618115Y-94596484D01*
X153797000Y-92775370D01*
X153797000Y-91326663D01*
X155484558Y-91326663D01*
X155602511Y-91567000D01*
X156591000Y-91567000D01*
X156591000Y-90572158D01*
X156350661Y-90460544D01*
X156072412Y-90610342D01*
X155828733Y-90811546D01*
X155628989Y-91056423D01*
X155484558Y-91326663D01*
X153797000Y-91326663D01*
X153797000Y-89342630D01*
X154036430Y-89103200D01*
X166333770Y-89103200D01*
X168162001Y-90931432D01*
X168162001Y-90931432D01*
G37*
X168162001Y-90931432D02*
X168162000Y-97042725D01*
X168074415Y-97051351D01*
X167978657Y-97080399D01*
X167890405Y-97127571D01*
X167813052Y-97191052D01*
X167774000Y-97238638D01*
X167734948Y-97191052D01*
X167657595Y-97127571D01*
X167569343Y-97080399D01*
X167473585Y-97051351D01*
X167374000Y-97041543D01*
X165874000Y-97041543D01*
X165774415Y-97051351D01*
X165678657Y-97080399D01*
X165674532Y-97082604D01*
X165615422Y-97010578D01*
X165499393Y-96915355D01*
X165367016Y-96844597D01*
X165223378Y-96801025D01*
X165074000Y-96786313D01*
X164895500Y-96790000D01*
X164705000Y-96980500D01*
X164705000Y-98171000D01*
X164725000Y-98171000D01*
X164725000Y-98933000D01*
X164705000Y-98933000D01*
X164705000Y-100123500D01*
X164895500Y-100314000D01*
X165074000Y-100317687D01*
X165223378Y-100302975D01*
X165367016Y-100259403D01*
X165481000Y-100198476D01*
X165481001Y-103341543D01*
X164724000Y-103341543D01*
X164624415Y-103351351D01*
X164528657Y-103380399D01*
X164440405Y-103427571D01*
X164363052Y-103491052D01*
X164299571Y-103568405D01*
X164252399Y-103656657D01*
X164223351Y-103752415D01*
X164213543Y-103852000D01*
X164213543Y-105284826D01*
X160290253Y-109208117D01*
X160261177Y-109231979D01*
X160212412Y-109291400D01*
X160165954Y-109348009D01*
X160140713Y-109395233D01*
X160095197Y-109480387D01*
X160051625Y-109624024D01*
X160047078Y-109670196D01*
X159987530Y-109709985D01*
X159874985Y-109822530D01*
X159786559Y-109954868D01*
X159725651Y-110101915D01*
X159694600Y-110258019D01*
X159694600Y-110417181D01*
X159725651Y-110573285D01*
X159786559Y-110720332D01*
X159853810Y-110820979D01*
X155845657Y-106812827D01*
X155845657Y-106354999D01*
X155831045Y-106206641D01*
X155787771Y-106063985D01*
X155717497Y-105932512D01*
X155678803Y-105885363D01*
X155760593Y-105841645D01*
X155876622Y-105746422D01*
X155971845Y-105630393D01*
X156042603Y-105498016D01*
X156086175Y-105354378D01*
X156100887Y-105205000D01*
X156097200Y-105141500D01*
X155906700Y-104951000D01*
X155016200Y-104951000D01*
X155016200Y-105031000D01*
X154292831Y-105031000D01*
X154254200Y-104992369D01*
X154254200Y-104951000D01*
X154234200Y-104951000D01*
X154234200Y-104309000D01*
X154254200Y-104309000D01*
X154254200Y-103483500D01*
X155016200Y-103483500D01*
X155016200Y-104309000D01*
X155906700Y-104309000D01*
X156097200Y-104118500D01*
X156100887Y-104055000D01*
X156086175Y-103905622D01*
X156042603Y-103761984D01*
X155971845Y-103629607D01*
X155876622Y-103513578D01*
X155760593Y-103418355D01*
X155628216Y-103347597D01*
X155484578Y-103304025D01*
X155335200Y-103289313D01*
X155206700Y-103293000D01*
X155016200Y-103483500D01*
X154254200Y-103483500D01*
X154063700Y-103293000D01*
X153935200Y-103289313D01*
X153785822Y-103304025D01*
X153642184Y-103347597D01*
X153509807Y-103418355D01*
X153393778Y-103513578D01*
X153298555Y-103629607D01*
X153227797Y-103761984D01*
X153184225Y-103905622D01*
X153182675Y-103921358D01*
X153098582Y-103852345D01*
X152966205Y-103781588D01*
X152822568Y-103738016D01*
X152710616Y-103726990D01*
X152710613Y-103726990D01*
X152673190Y-103723304D01*
X152635767Y-103726990D01*
X152330000Y-103726990D01*
X152330000Y-103255630D01*
X153280631Y-102305000D01*
X156483577Y-102305000D01*
X156521000Y-102308686D01*
X156558423Y-102305000D01*
X156558426Y-102305000D01*
X156670378Y-102293974D01*
X156814015Y-102250402D01*
X156946392Y-102179645D01*
X157062422Y-102084422D01*
X157086284Y-102055346D01*
X158109173Y-101032457D01*
X158567001Y-101032457D01*
X158715359Y-101017845D01*
X158858015Y-100974571D01*
X158989488Y-100904297D01*
X159104725Y-100809725D01*
X159199297Y-100694488D01*
X159269571Y-100563015D01*
X159312845Y-100420359D01*
X159327457Y-100272001D01*
X159327457Y-99552000D01*
X162808313Y-99552000D01*
X162823025Y-99701378D01*
X162866597Y-99845016D01*
X162937355Y-99977393D01*
X163032578Y-100093422D01*
X163148607Y-100188645D01*
X163280984Y-100259403D01*
X163424622Y-100302975D01*
X163574000Y-100317687D01*
X163752500Y-100314000D01*
X163943000Y-100123500D01*
X163943000Y-98933000D01*
X163002500Y-98933000D01*
X162812000Y-99123500D01*
X162808313Y-99552000D01*
X159327457Y-99552000D01*
X159327457Y-99429990D01*
X159996924Y-99429990D01*
X160028012Y-99433052D01*
X160059100Y-99429990D01*
X160152102Y-99420830D01*
X160271422Y-99384635D01*
X160381389Y-99325856D01*
X160477776Y-99246754D01*
X160497596Y-99222603D01*
X161112615Y-98607584D01*
X161136765Y-98587765D01*
X161215867Y-98491378D01*
X161274646Y-98381411D01*
X161310841Y-98262091D01*
X161320001Y-98169089D01*
X161320001Y-98169088D01*
X161323063Y-98138002D01*
X161320001Y-98106916D01*
X161320001Y-97552000D01*
X162808313Y-97552000D01*
X162812000Y-97980500D01*
X163002500Y-98171000D01*
X163943000Y-98171000D01*
X163943000Y-96980500D01*
X163752500Y-96790000D01*
X163574000Y-96786313D01*
X163424622Y-96801025D01*
X163280984Y-96844597D01*
X163148607Y-96915355D01*
X163032578Y-97010578D01*
X162937355Y-97126607D01*
X162866597Y-97258984D01*
X162823025Y-97402622D01*
X162808313Y-97552000D01*
X161320001Y-97552000D01*
X161320001Y-93154086D01*
X161323063Y-93123000D01*
X161319266Y-93084454D01*
X161310841Y-92998911D01*
X161274646Y-92879591D01*
X161215867Y-92769624D01*
X161136765Y-92673237D01*
X161112609Y-92653413D01*
X160831585Y-92372388D01*
X160831580Y-92372382D01*
X160809169Y-92349971D01*
X160850350Y-92214214D01*
X160876570Y-91948000D01*
X160850350Y-91681786D01*
X160772698Y-91425802D01*
X160646598Y-91189886D01*
X160476897Y-90983103D01*
X160270114Y-90813402D01*
X160034198Y-90687302D01*
X159778214Y-90609650D01*
X159578706Y-90590000D01*
X159445294Y-90590000D01*
X159245786Y-90609650D01*
X158989802Y-90687302D01*
X158753886Y-90813402D01*
X158547103Y-90983103D01*
X158382815Y-91183290D01*
X158315011Y-91056423D01*
X158115267Y-90811546D01*
X157871588Y-90610342D01*
X157593339Y-90460544D01*
X157353000Y-90572158D01*
X157353000Y-91567000D01*
X157373000Y-91567000D01*
X157373000Y-92329000D01*
X157353000Y-92329000D01*
X157353000Y-92349000D01*
X156591000Y-92349000D01*
X156591000Y-92329000D01*
X155602511Y-92329000D01*
X155484558Y-92569337D01*
X155628989Y-92839577D01*
X155828733Y-93084454D01*
X156072412Y-93285658D01*
X156207691Y-93358486D01*
X156007103Y-93523103D01*
X155837402Y-93729886D01*
X155711302Y-93965802D01*
X155633650Y-94221786D01*
X155607430Y-94488000D01*
X155618115Y-94596484D01*
X153797000Y-92775370D01*
X153797000Y-91326663D01*
X155484558Y-91326663D01*
X155602511Y-91567000D01*
X156591000Y-91567000D01*
X156591000Y-90572158D01*
X156350661Y-90460544D01*
X156072412Y-90610342D01*
X155828733Y-90811546D01*
X155628989Y-91056423D01*
X155484558Y-91326663D01*
X153797000Y-91326663D01*
X153797000Y-89342630D01*
X154036430Y-89103200D01*
X166333770Y-89103200D01*
X168162001Y-90931432D01*
G36*
X149779000Y-105537000D02*
G01*
X150033000Y-105537000D01*
X150033000Y-106299000D01*
X149779000Y-106299000D01*
X149779000Y-106319000D01*
X149687000Y-106319000D01*
X149687000Y-106299000D01*
X149433000Y-106299000D01*
X149433000Y-105537000D01*
X149687000Y-105537000D01*
X149687000Y-105517000D01*
X149779000Y-105517000D01*
X149779000Y-105537000D01*
X149779000Y-105537000D01*
G37*
X149779000Y-105537000D02*
X150033000Y-105537000D01*
X150033000Y-106299000D01*
X149779000Y-106299000D01*
X149779000Y-106319000D01*
X149687000Y-106319000D01*
X149687000Y-106299000D01*
X149433000Y-106299000D01*
X149433000Y-105537000D01*
X149687000Y-105537000D01*
X149687000Y-105517000D01*
X149779000Y-105517000D01*
X149779000Y-105537000D01*
G36*
X155106543Y-99631740D02*
G01*
X155106543Y-100272001D01*
X155121155Y-100420359D01*
X155164429Y-100563015D01*
X155234703Y-100694488D01*
X155305701Y-100781000D01*
X153002422Y-100781000D01*
X152964999Y-100777314D01*
X152927576Y-100781000D01*
X152927574Y-100781000D01*
X152815622Y-100792026D01*
X152671985Y-100835598D01*
X152539608Y-100906355D01*
X152423578Y-101001578D01*
X152399721Y-101030648D01*
X152278457Y-101151912D01*
X152195615Y-101027930D01*
X152083070Y-100915385D01*
X151950732Y-100826959D01*
X151803685Y-100766051D01*
X151647581Y-100735000D01*
X151488419Y-100735000D01*
X151332315Y-100766051D01*
X151185268Y-100826959D01*
X151052930Y-100915385D01*
X150940385Y-101027930D01*
X150851959Y-101160268D01*
X150791051Y-101307315D01*
X150760000Y-101463419D01*
X150760000Y-101622581D01*
X150791051Y-101778685D01*
X150806001Y-101814777D01*
X150806000Y-102902574D01*
X150802314Y-102940000D01*
X150806000Y-102977423D01*
X150806000Y-102977425D01*
X150806001Y-102977435D01*
X150806000Y-103959251D01*
X150791726Y-103976644D01*
X150490654Y-104277716D01*
X150461578Y-104301578D01*
X150457882Y-104306082D01*
X150364327Y-104256075D01*
X150372841Y-104243332D01*
X150433749Y-104096285D01*
X150464800Y-103940181D01*
X150464800Y-103781019D01*
X150433749Y-103624915D01*
X150372841Y-103477868D01*
X150284415Y-103345530D01*
X150171870Y-103232985D01*
X150039532Y-103144559D01*
X149892485Y-103083651D01*
X149736381Y-103052600D01*
X149577219Y-103052600D01*
X149421115Y-103083651D01*
X149274068Y-103144559D01*
X149149789Y-103227600D01*
X148885687Y-103227600D01*
X148854601Y-103224538D01*
X148823515Y-103227600D01*
X148823514Y-103227600D01*
X148730512Y-103236760D01*
X148611192Y-103272955D01*
X148501225Y-103331734D01*
X148404838Y-103410836D01*
X148385022Y-103434982D01*
X148287245Y-103532760D01*
X148216070Y-103461585D01*
X148083732Y-103373159D01*
X147936685Y-103312251D01*
X147780581Y-103281200D01*
X147621419Y-103281200D01*
X147465315Y-103312251D01*
X147318268Y-103373159D01*
X147193989Y-103456200D01*
X147175797Y-103456200D01*
X147097184Y-103377587D01*
X147077363Y-103353435D01*
X146980976Y-103274333D01*
X146871009Y-103215554D01*
X146751689Y-103179359D01*
X146658687Y-103170199D01*
X146627599Y-103167137D01*
X146596511Y-103170199D01*
X141483557Y-103170199D01*
X141595698Y-102960398D01*
X141673350Y-102704414D01*
X141699570Y-102438200D01*
X141696871Y-102410800D01*
X148616389Y-102410800D01*
X148740668Y-102493841D01*
X148887715Y-102554749D01*
X149043819Y-102585800D01*
X149202981Y-102585800D01*
X149359085Y-102554749D01*
X149506132Y-102493841D01*
X149638470Y-102405415D01*
X149751015Y-102292870D01*
X149839441Y-102160532D01*
X149900349Y-102013485D01*
X149931400Y-101857381D01*
X149931400Y-101698219D01*
X149900349Y-101542115D01*
X149839441Y-101395068D01*
X149751015Y-101262730D01*
X149638470Y-101150185D01*
X149506132Y-101061759D01*
X149359085Y-101000851D01*
X149202981Y-100969800D01*
X149043819Y-100969800D01*
X148887715Y-101000851D01*
X148740668Y-101061759D01*
X148616389Y-101144800D01*
X141502505Y-101144800D01*
X141545948Y-101109148D01*
X141609429Y-101031795D01*
X141656601Y-100943543D01*
X141685649Y-100847785D01*
X141695457Y-100748200D01*
X141695457Y-99048200D01*
X141693921Y-99032600D01*
X154507403Y-99032600D01*
X155106543Y-99631740D01*
X155106543Y-99631740D01*
G37*
X155106543Y-99631740D02*
X155106543Y-100272001D01*
X155121155Y-100420359D01*
X155164429Y-100563015D01*
X155234703Y-100694488D01*
X155305701Y-100781000D01*
X153002422Y-100781000D01*
X152964999Y-100777314D01*
X152927576Y-100781000D01*
X152927574Y-100781000D01*
X152815622Y-100792026D01*
X152671985Y-100835598D01*
X152539608Y-100906355D01*
X152423578Y-101001578D01*
X152399721Y-101030648D01*
X152278457Y-101151912D01*
X152195615Y-101027930D01*
X152083070Y-100915385D01*
X151950732Y-100826959D01*
X151803685Y-100766051D01*
X151647581Y-100735000D01*
X151488419Y-100735000D01*
X151332315Y-100766051D01*
X151185268Y-100826959D01*
X151052930Y-100915385D01*
X150940385Y-101027930D01*
X150851959Y-101160268D01*
X150791051Y-101307315D01*
X150760000Y-101463419D01*
X150760000Y-101622581D01*
X150791051Y-101778685D01*
X150806001Y-101814777D01*
X150806000Y-102902574D01*
X150802314Y-102940000D01*
X150806000Y-102977423D01*
X150806000Y-102977425D01*
X150806001Y-102977435D01*
X150806000Y-103959251D01*
X150791726Y-103976644D01*
X150490654Y-104277716D01*
X150461578Y-104301578D01*
X150457882Y-104306082D01*
X150364327Y-104256075D01*
X150372841Y-104243332D01*
X150433749Y-104096285D01*
X150464800Y-103940181D01*
X150464800Y-103781019D01*
X150433749Y-103624915D01*
X150372841Y-103477868D01*
X150284415Y-103345530D01*
X150171870Y-103232985D01*
X150039532Y-103144559D01*
X149892485Y-103083651D01*
X149736381Y-103052600D01*
X149577219Y-103052600D01*
X149421115Y-103083651D01*
X149274068Y-103144559D01*
X149149789Y-103227600D01*
X148885687Y-103227600D01*
X148854601Y-103224538D01*
X148823515Y-103227600D01*
X148823514Y-103227600D01*
X148730512Y-103236760D01*
X148611192Y-103272955D01*
X148501225Y-103331734D01*
X148404838Y-103410836D01*
X148385022Y-103434982D01*
X148287245Y-103532760D01*
X148216070Y-103461585D01*
X148083732Y-103373159D01*
X147936685Y-103312251D01*
X147780581Y-103281200D01*
X147621419Y-103281200D01*
X147465315Y-103312251D01*
X147318268Y-103373159D01*
X147193989Y-103456200D01*
X147175797Y-103456200D01*
X147097184Y-103377587D01*
X147077363Y-103353435D01*
X146980976Y-103274333D01*
X146871009Y-103215554D01*
X146751689Y-103179359D01*
X146658687Y-103170199D01*
X146627599Y-103167137D01*
X146596511Y-103170199D01*
X141483557Y-103170199D01*
X141595698Y-102960398D01*
X141673350Y-102704414D01*
X141699570Y-102438200D01*
X141696871Y-102410800D01*
X148616389Y-102410800D01*
X148740668Y-102493841D01*
X148887715Y-102554749D01*
X149043819Y-102585800D01*
X149202981Y-102585800D01*
X149359085Y-102554749D01*
X149506132Y-102493841D01*
X149638470Y-102405415D01*
X149751015Y-102292870D01*
X149839441Y-102160532D01*
X149900349Y-102013485D01*
X149931400Y-101857381D01*
X149931400Y-101698219D01*
X149900349Y-101542115D01*
X149839441Y-101395068D01*
X149751015Y-101262730D01*
X149638470Y-101150185D01*
X149506132Y-101061759D01*
X149359085Y-101000851D01*
X149202981Y-100969800D01*
X149043819Y-100969800D01*
X148887715Y-101000851D01*
X148740668Y-101061759D01*
X148616389Y-101144800D01*
X141502505Y-101144800D01*
X141545948Y-101109148D01*
X141609429Y-101031795D01*
X141656601Y-100943543D01*
X141685649Y-100847785D01*
X141695457Y-100748200D01*
X141695457Y-99048200D01*
X141693921Y-99032600D01*
X154507403Y-99032600D01*
X155106543Y-99631740D01*
M02*
