G04 #@! TF.GenerationSoftware,KiCad,Pcbnew,(5.1.4)-1*
G04 #@! TF.CreationDate,2020-03-24T16:39:45-06:00*
G04 #@! TF.ProjectId,Laser_Stripe_Sensor,4c617365-725f-4537-9472-6970655f5365,rev?*
G04 #@! TF.SameCoordinates,Original*
G04 #@! TF.FileFunction,Legend,Top*
G04 #@! TF.FilePolarity,Positive*
%FSLAX46Y46*%
G04 Gerber Fmt 4.6, Leading zero omitted, Abs format (unit mm)*
G04 Created by KiCad (PCBNEW (5.1.4)-1) date 2020-03-24 16:39:45*
%MOMM*%
%LPD*%
G04 APERTURE LIST*
%ADD10C,0.120000*%
%ADD11C,0.150000*%
G04 APERTURE END LIST*
D10*
X136559600Y-108924400D02*
X135229600Y-108924400D01*
X136559600Y-107594400D02*
X136559600Y-108924400D01*
X136559600Y-106324400D02*
X133899600Y-106324400D01*
X133899600Y-106324400D02*
X133899600Y-98644400D01*
X136559600Y-106324400D02*
X136559600Y-98644400D01*
X136559600Y-98644400D02*
X133899600Y-98644400D01*
X141736000Y-120466000D02*
X144236000Y-120466000D01*
X141736000Y-117966000D02*
X141736000Y-120466000D01*
X153756000Y-118666000D02*
X153756000Y-120166000D01*
X154756000Y-118666000D02*
X153756000Y-118666000D01*
X143036000Y-118666000D02*
X143036000Y-120166000D01*
X142036000Y-118666000D02*
X143036000Y-118666000D01*
X154256000Y-117856000D02*
X154756000Y-117856000D01*
X154256000Y-116646000D02*
X154256000Y-117856000D01*
X142536000Y-116646000D02*
X154256000Y-116646000D01*
X142536000Y-117856000D02*
X142536000Y-116646000D01*
X142036000Y-117856000D02*
X142536000Y-117856000D01*
X154756000Y-116146000D02*
X142036000Y-116146000D01*
X154756000Y-120166000D02*
X154756000Y-116146000D01*
X142036000Y-120166000D02*
X154756000Y-120166000D01*
X142036000Y-116146000D02*
X142036000Y-120166000D01*
X169356000Y-93218000D02*
G75*
G03X169356000Y-93218000I-700000J0D01*
G01*
X159246000Y-104326000D02*
X157746000Y-104326000D01*
X157696000Y-105526000D02*
X157696000Y-105826000D01*
X159296000Y-105526000D02*
X159296000Y-105826000D01*
D11*
X146968000Y-107765000D02*
X146968000Y-109190000D01*
X146743000Y-100515000D02*
X146743000Y-100840000D01*
X153993000Y-100515000D02*
X153993000Y-100840000D01*
X153993000Y-107765000D02*
X153993000Y-107440000D01*
X146743000Y-107765000D02*
X146743000Y-107440000D01*
X153993000Y-107765000D02*
X153668000Y-107765000D01*
X153993000Y-100515000D02*
X153668000Y-100515000D01*
X146743000Y-100515000D02*
X147068000Y-100515000D01*
X146743000Y-107765000D02*
X146968000Y-107765000D01*
D10*
X144286200Y-102336600D02*
G75*
G03X144286200Y-102336600I-700000J0D01*
G01*
X157646600Y-110083600D02*
G75*
G03X157646600Y-110083600I-700000J0D01*
G01*
X155589200Y-112166400D02*
G75*
G03X155589200Y-112166400I-700000J0D01*
G01*
X118937000Y-101244400D02*
G75*
G03X118937000Y-101244400I-700000J0D01*
G01*
X122988000Y-90111948D02*
X122988000Y-90634452D01*
X124408000Y-90111948D02*
X124408000Y-90634452D01*
X138812200Y-89899748D02*
X138812200Y-90422252D01*
X140232200Y-89899748D02*
X140232200Y-90422252D01*
X122047000Y-104987400D02*
X120717000Y-104987400D01*
X120717000Y-104987400D02*
X120717000Y-103657400D01*
X120717000Y-102387400D02*
X120717000Y-97247400D01*
X123377000Y-97247400D02*
X120717000Y-97247400D01*
X123377000Y-102387400D02*
X123377000Y-97247400D01*
X123377000Y-102387400D02*
X120717000Y-102387400D01*
X140335000Y-98568200D02*
X141665000Y-98568200D01*
X141665000Y-98568200D02*
X141665000Y-99898200D01*
X141665000Y-101168200D02*
X141665000Y-108848200D01*
X139005000Y-108848200D02*
X141665000Y-108848200D01*
X139005000Y-101168200D02*
X139005000Y-108848200D01*
X139005000Y-101168200D02*
X141665000Y-101168200D01*
X129260600Y-93328800D02*
X127930600Y-93328800D01*
X127930600Y-93328800D02*
X127930600Y-91998800D01*
X127930600Y-90728800D02*
X127930600Y-80508800D01*
X130590600Y-80508800D02*
X127930600Y-80508800D01*
X130590600Y-90728800D02*
X130590600Y-80508800D01*
X130590600Y-90728800D02*
X127930600Y-90728800D01*
X135483600Y-93354200D02*
X134153600Y-93354200D01*
X134153600Y-93354200D02*
X134153600Y-92024200D01*
X134153600Y-90754200D02*
X134153600Y-80534200D01*
X136813600Y-80534200D02*
X134153600Y-80534200D01*
X136813600Y-90754200D02*
X136813600Y-80534200D01*
X136813600Y-90754200D02*
X134153600Y-90754200D01*
X160842000Y-98358000D02*
X159512000Y-98358000D01*
X160842000Y-97028000D02*
X160842000Y-98358000D01*
X158242000Y-98358000D02*
X155642000Y-98358000D01*
X158242000Y-95758000D02*
X158242000Y-98358000D01*
X160842000Y-95758000D02*
X158242000Y-95758000D01*
X155642000Y-98358000D02*
X155642000Y-90618000D01*
X160842000Y-95758000D02*
X160842000Y-90618000D01*
X160842000Y-90618000D02*
X155642000Y-90618000D01*
X131293800Y-106122948D02*
X131293800Y-106645452D01*
X132713800Y-106122948D02*
X132713800Y-106645452D01*
X142876200Y-105691148D02*
X142876200Y-106213652D01*
X144296200Y-105691148D02*
X144296200Y-106213652D01*
X149404000Y-112012252D02*
X149404000Y-111489748D01*
X150824000Y-112012252D02*
X150824000Y-111489748D01*
X151436000Y-112012252D02*
X151436000Y-111489748D01*
X152856000Y-112012252D02*
X152856000Y-111489748D01*
X159216348Y-108939400D02*
X159738852Y-108939400D01*
X159216348Y-107519400D02*
X159738852Y-107519400D01*
X159241748Y-103326000D02*
X159764252Y-103326000D01*
X159241748Y-101906000D02*
X159764252Y-101906000D01*
X165992564Y-97446000D02*
X164788436Y-97446000D01*
X165992564Y-100166000D02*
X164788436Y-100166000D01*
X165919564Y-107606000D02*
X164715436Y-107606000D01*
X165919564Y-110326000D02*
X164715436Y-110326000D01*
X165580852Y-95149600D02*
X165058348Y-95149600D01*
X165580852Y-96569600D02*
X165058348Y-96569600D01*
X165530052Y-105411200D02*
X165007548Y-105411200D01*
X165530052Y-106831200D02*
X165007548Y-106831200D01*
D11*
X127254000Y-123825000D02*
G75*
G03X127254000Y-123825000I-2286000J0D01*
G01*
X179324000Y-118745000D02*
G75*
G03X179324000Y-118745000I-2286000J0D01*
G01*
X128524000Y-75565000D02*
G75*
G03X128524000Y-75565000I-2286000J0D01*
G01*
X179324000Y-90805000D02*
G75*
G03X179324000Y-90805000I-2286000J0D01*
G01*
X140208000Y-125095000D02*
X157988000Y-125095000D01*
X157988000Y-125095000D02*
X157988000Y-122555000D01*
X157988000Y-122555000D02*
X140208000Y-122555000D01*
X137388000Y-125375000D02*
X138938000Y-125375000D01*
X140208000Y-125095000D02*
X140208000Y-122555000D01*
X138938000Y-122275000D02*
X137388000Y-122275000D01*
X137388000Y-122275000D02*
X137388000Y-125375000D01*
X163068000Y-125095000D02*
X175768000Y-125095000D01*
X175768000Y-125095000D02*
X175768000Y-122555000D01*
X175768000Y-122555000D02*
X163068000Y-122555000D01*
X160248000Y-125375000D02*
X161798000Y-125375000D01*
X163068000Y-125095000D02*
X163068000Y-122555000D01*
X161798000Y-122275000D02*
X160248000Y-122275000D01*
X160248000Y-122275000D02*
X160248000Y-125375000D01*
X131064000Y-76835000D02*
X153924000Y-76835000D01*
X153924000Y-76835000D02*
X153924000Y-74295000D01*
X153924000Y-74295000D02*
X131064000Y-74295000D01*
X128244000Y-77115000D02*
X129794000Y-77115000D01*
X131064000Y-76835000D02*
X131064000Y-74295000D01*
X129794000Y-74015000D02*
X128244000Y-74015000D01*
X128244000Y-74015000D02*
X128244000Y-77115000D01*
X157988000Y-76835000D02*
X175768000Y-76835000D01*
X175768000Y-76835000D02*
X175768000Y-74295000D01*
X175768000Y-74295000D02*
X157988000Y-74295000D01*
X155168000Y-77115000D02*
X156718000Y-77115000D01*
X157988000Y-76835000D02*
X157988000Y-74295000D01*
X156718000Y-74015000D02*
X155168000Y-74015000D01*
X155168000Y-74015000D02*
X155168000Y-77115000D01*
X133913714Y-110180380D02*
X133913714Y-109180380D01*
X134294666Y-109180380D01*
X134389904Y-109228000D01*
X134437523Y-109275619D01*
X134485142Y-109370857D01*
X134485142Y-109513714D01*
X134437523Y-109608952D01*
X134389904Y-109656571D01*
X134294666Y-109704190D01*
X133913714Y-109704190D01*
X135437523Y-110180380D02*
X134866095Y-110180380D01*
X135151809Y-110180380D02*
X135151809Y-109180380D01*
X135056571Y-109323238D01*
X134961333Y-109418476D01*
X134866095Y-109466095D01*
X136056571Y-109180380D02*
X136151809Y-109180380D01*
X136247047Y-109228000D01*
X136294666Y-109275619D01*
X136342285Y-109370857D01*
X136389904Y-109561333D01*
X136389904Y-109799428D01*
X136342285Y-109989904D01*
X136294666Y-110085142D01*
X136247047Y-110132761D01*
X136151809Y-110180380D01*
X136056571Y-110180380D01*
X135961333Y-110132761D01*
X135913714Y-110085142D01*
X135866095Y-109989904D01*
X135818476Y-109799428D01*
X135818476Y-109561333D01*
X135866095Y-109370857D01*
X135913714Y-109275619D01*
X135961333Y-109228000D01*
X136056571Y-109180380D01*
X144192666Y-114508380D02*
X144192666Y-115222666D01*
X144145047Y-115365523D01*
X144049809Y-115460761D01*
X143906952Y-115508380D01*
X143811714Y-115508380D01*
X144621238Y-114603619D02*
X144668857Y-114556000D01*
X144764095Y-114508380D01*
X145002190Y-114508380D01*
X145097428Y-114556000D01*
X145145047Y-114603619D01*
X145192666Y-114698857D01*
X145192666Y-114794095D01*
X145145047Y-114936952D01*
X144573619Y-115508380D01*
X145192666Y-115508380D01*
X167394095Y-91222380D02*
X167965523Y-91222380D01*
X167679809Y-92222380D02*
X167679809Y-91222380D01*
X168298857Y-92222380D02*
X168298857Y-91222380D01*
X168679809Y-91222380D01*
X168775047Y-91270000D01*
X168822666Y-91317619D01*
X168870285Y-91412857D01*
X168870285Y-91555714D01*
X168822666Y-91650952D01*
X168775047Y-91698571D01*
X168679809Y-91746190D01*
X168298857Y-91746190D01*
X169775047Y-91222380D02*
X169298857Y-91222380D01*
X169251238Y-91698571D01*
X169298857Y-91650952D01*
X169394095Y-91603333D01*
X169632190Y-91603333D01*
X169727428Y-91650952D01*
X169775047Y-91698571D01*
X169822666Y-91793809D01*
X169822666Y-92031904D01*
X169775047Y-92127142D01*
X169727428Y-92174761D01*
X169632190Y-92222380D01*
X169394095Y-92222380D01*
X169298857Y-92174761D01*
X169251238Y-92127142D01*
X160504190Y-106140190D02*
X160980380Y-106140190D01*
X159980380Y-106473523D02*
X160504190Y-106140190D01*
X159980380Y-105806857D01*
X160980380Y-104949714D02*
X160980380Y-105521142D01*
X160980380Y-105235428D02*
X159980380Y-105235428D01*
X160123238Y-105330666D01*
X160218476Y-105425904D01*
X160266095Y-105521142D01*
X145288095Y-99020380D02*
X145288095Y-99829904D01*
X145335714Y-99925142D01*
X145383333Y-99972761D01*
X145478571Y-100020380D01*
X145669047Y-100020380D01*
X145764285Y-99972761D01*
X145811904Y-99925142D01*
X145859523Y-99829904D01*
X145859523Y-99020380D01*
X146859523Y-100020380D02*
X146288095Y-100020380D01*
X146573809Y-100020380D02*
X146573809Y-99020380D01*
X146478571Y-99163238D01*
X146383333Y-99258476D01*
X146288095Y-99306095D01*
X142324295Y-100340980D02*
X142895723Y-100340980D01*
X142610009Y-101340980D02*
X142610009Y-100340980D01*
X143229057Y-101340980D02*
X143229057Y-100340980D01*
X143610009Y-100340980D01*
X143705247Y-100388600D01*
X143752866Y-100436219D01*
X143800485Y-100531457D01*
X143800485Y-100674314D01*
X143752866Y-100769552D01*
X143705247Y-100817171D01*
X143610009Y-100864790D01*
X143229057Y-100864790D01*
X144133819Y-100340980D02*
X144752866Y-100340980D01*
X144419533Y-100721933D01*
X144562390Y-100721933D01*
X144657628Y-100769552D01*
X144705247Y-100817171D01*
X144752866Y-100912409D01*
X144752866Y-101150504D01*
X144705247Y-101245742D01*
X144657628Y-101293361D01*
X144562390Y-101340980D01*
X144276676Y-101340980D01*
X144181438Y-101293361D01*
X144133819Y-101245742D01*
X157869095Y-110475780D02*
X158440523Y-110475780D01*
X158154809Y-111475780D02*
X158154809Y-110475780D01*
X158773857Y-111475780D02*
X158773857Y-110475780D01*
X159154809Y-110475780D01*
X159250047Y-110523400D01*
X159297666Y-110571019D01*
X159345285Y-110666257D01*
X159345285Y-110809114D01*
X159297666Y-110904352D01*
X159250047Y-110951971D01*
X159154809Y-110999590D01*
X158773857Y-110999590D01*
X159726238Y-110571019D02*
X159773857Y-110523400D01*
X159869095Y-110475780D01*
X160107190Y-110475780D01*
X160202428Y-110523400D01*
X160250047Y-110571019D01*
X160297666Y-110666257D01*
X160297666Y-110761495D01*
X160250047Y-110904352D01*
X159678619Y-111475780D01*
X160297666Y-111475780D01*
X154973495Y-113168180D02*
X155544923Y-113168180D01*
X155259209Y-114168180D02*
X155259209Y-113168180D01*
X155878257Y-114168180D02*
X155878257Y-113168180D01*
X156259209Y-113168180D01*
X156354447Y-113215800D01*
X156402066Y-113263419D01*
X156449685Y-113358657D01*
X156449685Y-113501514D01*
X156402066Y-113596752D01*
X156354447Y-113644371D01*
X156259209Y-113691990D01*
X155878257Y-113691990D01*
X157402066Y-114168180D02*
X156830638Y-114168180D01*
X157116352Y-114168180D02*
X157116352Y-113168180D01*
X157021114Y-113311038D01*
X156925876Y-113406276D01*
X156830638Y-113453895D01*
X116975095Y-99248780D02*
X117546523Y-99248780D01*
X117260809Y-100248780D02*
X117260809Y-99248780D01*
X117879857Y-100248780D02*
X117879857Y-99248780D01*
X118260809Y-99248780D01*
X118356047Y-99296400D01*
X118403666Y-99344019D01*
X118451285Y-99439257D01*
X118451285Y-99582114D01*
X118403666Y-99677352D01*
X118356047Y-99724971D01*
X118260809Y-99772590D01*
X117879857Y-99772590D01*
X119070333Y-99248780D02*
X119165571Y-99248780D01*
X119260809Y-99296400D01*
X119308428Y-99344019D01*
X119356047Y-99439257D01*
X119403666Y-99629733D01*
X119403666Y-99867828D01*
X119356047Y-100058304D01*
X119308428Y-100153542D01*
X119260809Y-100201161D01*
X119165571Y-100248780D01*
X119070333Y-100248780D01*
X118975095Y-100201161D01*
X118927476Y-100153542D01*
X118879857Y-100058304D01*
X118832238Y-99867828D01*
X118832238Y-99629733D01*
X118879857Y-99439257D01*
X118927476Y-99344019D01*
X118975095Y-99296400D01*
X119070333Y-99248780D01*
X125800380Y-90539866D02*
X125324190Y-90873200D01*
X125800380Y-91111295D02*
X124800380Y-91111295D01*
X124800380Y-90730342D01*
X124848000Y-90635104D01*
X124895619Y-90587485D01*
X124990857Y-90539866D01*
X125133714Y-90539866D01*
X125228952Y-90587485D01*
X125276571Y-90635104D01*
X125324190Y-90730342D01*
X125324190Y-91111295D01*
X124800380Y-90206533D02*
X124800380Y-89587485D01*
X125181333Y-89920819D01*
X125181333Y-89777961D01*
X125228952Y-89682723D01*
X125276571Y-89635104D01*
X125371809Y-89587485D01*
X125609904Y-89587485D01*
X125705142Y-89635104D01*
X125752761Y-89682723D01*
X125800380Y-89777961D01*
X125800380Y-90063676D01*
X125752761Y-90158914D01*
X125705142Y-90206533D01*
X141624580Y-90327666D02*
X141148390Y-90661000D01*
X141624580Y-90899095D02*
X140624580Y-90899095D01*
X140624580Y-90518142D01*
X140672200Y-90422904D01*
X140719819Y-90375285D01*
X140815057Y-90327666D01*
X140957914Y-90327666D01*
X141053152Y-90375285D01*
X141100771Y-90422904D01*
X141148390Y-90518142D01*
X141148390Y-90899095D01*
X140719819Y-89946714D02*
X140672200Y-89899095D01*
X140624580Y-89803857D01*
X140624580Y-89565761D01*
X140672200Y-89470523D01*
X140719819Y-89422904D01*
X140815057Y-89375285D01*
X140910295Y-89375285D01*
X141053152Y-89422904D01*
X141624580Y-89994333D01*
X141624580Y-89375285D01*
X121308904Y-106879780D02*
X121308904Y-105879780D01*
X121689857Y-105879780D01*
X121785095Y-105927400D01*
X121832714Y-105975019D01*
X121880333Y-106070257D01*
X121880333Y-106213114D01*
X121832714Y-106308352D01*
X121785095Y-106355971D01*
X121689857Y-106403590D01*
X121308904Y-106403590D01*
X122356523Y-106879780D02*
X122547000Y-106879780D01*
X122642238Y-106832161D01*
X122689857Y-106784542D01*
X122785095Y-106641685D01*
X122832714Y-106451209D01*
X122832714Y-106070257D01*
X122785095Y-105975019D01*
X122737476Y-105927400D01*
X122642238Y-105879780D01*
X122451761Y-105879780D01*
X122356523Y-105927400D01*
X122308904Y-105975019D01*
X122261285Y-106070257D01*
X122261285Y-106308352D01*
X122308904Y-106403590D01*
X122356523Y-106451209D01*
X122451761Y-106498828D01*
X122642238Y-106498828D01*
X122737476Y-106451209D01*
X122785095Y-106403590D01*
X122832714Y-106308352D01*
X139723904Y-110180380D02*
X139723904Y-109180380D01*
X140104857Y-109180380D01*
X140200095Y-109228000D01*
X140247714Y-109275619D01*
X140295333Y-109370857D01*
X140295333Y-109513714D01*
X140247714Y-109608952D01*
X140200095Y-109656571D01*
X140104857Y-109704190D01*
X139723904Y-109704190D01*
X140866761Y-109608952D02*
X140771523Y-109561333D01*
X140723904Y-109513714D01*
X140676285Y-109418476D01*
X140676285Y-109370857D01*
X140723904Y-109275619D01*
X140771523Y-109228000D01*
X140866761Y-109180380D01*
X141057238Y-109180380D01*
X141152476Y-109228000D01*
X141200095Y-109275619D01*
X141247714Y-109370857D01*
X141247714Y-109418476D01*
X141200095Y-109513714D01*
X141152476Y-109561333D01*
X141057238Y-109608952D01*
X140866761Y-109608952D01*
X140771523Y-109656571D01*
X140723904Y-109704190D01*
X140676285Y-109799428D01*
X140676285Y-109989904D01*
X140723904Y-110085142D01*
X140771523Y-110132761D01*
X140866761Y-110180380D01*
X141057238Y-110180380D01*
X141152476Y-110132761D01*
X141200095Y-110085142D01*
X141247714Y-109989904D01*
X141247714Y-109799428D01*
X141200095Y-109704190D01*
X141152476Y-109656571D01*
X141057238Y-109608952D01*
X128927266Y-94221180D02*
X128927266Y-94935466D01*
X128879647Y-95078323D01*
X128784409Y-95173561D01*
X128641552Y-95221180D01*
X128546314Y-95221180D01*
X129832028Y-94554514D02*
X129832028Y-95221180D01*
X129593933Y-94173561D02*
X129355838Y-94887847D01*
X129974885Y-94887847D01*
X135150266Y-94246580D02*
X135150266Y-94960866D01*
X135102647Y-95103723D01*
X135007409Y-95198961D01*
X134864552Y-95246580D01*
X134769314Y-95246580D01*
X135531219Y-94246580D02*
X136150266Y-94246580D01*
X135816933Y-94627533D01*
X135959790Y-94627533D01*
X136055028Y-94675152D01*
X136102647Y-94722771D01*
X136150266Y-94818009D01*
X136150266Y-95056104D01*
X136102647Y-95151342D01*
X136055028Y-95198961D01*
X135959790Y-95246580D01*
X135674076Y-95246580D01*
X135578838Y-95198961D01*
X135531219Y-95151342D01*
X157908666Y-89368380D02*
X157908666Y-90082666D01*
X157861047Y-90225523D01*
X157765809Y-90320761D01*
X157622952Y-90368380D01*
X157527714Y-90368380D01*
X158908666Y-90368380D02*
X158337238Y-90368380D01*
X158622952Y-90368380D02*
X158622952Y-89368380D01*
X158527714Y-89511238D01*
X158432476Y-89606476D01*
X158337238Y-89654095D01*
X131056142Y-109653342D02*
X131008523Y-109700961D01*
X130865666Y-109748580D01*
X130770428Y-109748580D01*
X130627571Y-109700961D01*
X130532333Y-109605723D01*
X130484714Y-109510485D01*
X130437095Y-109320009D01*
X130437095Y-109177152D01*
X130484714Y-108986676D01*
X130532333Y-108891438D01*
X130627571Y-108796200D01*
X130770428Y-108748580D01*
X130865666Y-108748580D01*
X131008523Y-108796200D01*
X131056142Y-108843819D01*
X132008523Y-109748580D02*
X131437095Y-109748580D01*
X131722809Y-109748580D02*
X131722809Y-108748580D01*
X131627571Y-108891438D01*
X131532333Y-108986676D01*
X131437095Y-109034295D01*
X132627571Y-108748580D02*
X132722809Y-108748580D01*
X132818047Y-108796200D01*
X132865666Y-108843819D01*
X132913285Y-108939057D01*
X132960904Y-109129533D01*
X132960904Y-109367628D01*
X132913285Y-109558104D01*
X132865666Y-109653342D01*
X132818047Y-109700961D01*
X132722809Y-109748580D01*
X132627571Y-109748580D01*
X132532333Y-109700961D01*
X132484714Y-109653342D01*
X132437095Y-109558104D01*
X132389476Y-109367628D01*
X132389476Y-109129533D01*
X132437095Y-108939057D01*
X132484714Y-108843819D01*
X132532333Y-108796200D01*
X132627571Y-108748580D01*
X142581333Y-103989142D02*
X142533714Y-104036761D01*
X142390857Y-104084380D01*
X142295619Y-104084380D01*
X142152761Y-104036761D01*
X142057523Y-103941523D01*
X142009904Y-103846285D01*
X141962285Y-103655809D01*
X141962285Y-103512952D01*
X142009904Y-103322476D01*
X142057523Y-103227238D01*
X142152761Y-103132000D01*
X142295619Y-103084380D01*
X142390857Y-103084380D01*
X142533714Y-103132000D01*
X142581333Y-103179619D01*
X143057523Y-104084380D02*
X143248000Y-104084380D01*
X143343238Y-104036761D01*
X143390857Y-103989142D01*
X143486095Y-103846285D01*
X143533714Y-103655809D01*
X143533714Y-103274857D01*
X143486095Y-103179619D01*
X143438476Y-103132000D01*
X143343238Y-103084380D01*
X143152761Y-103084380D01*
X143057523Y-103132000D01*
X143009904Y-103179619D01*
X142962285Y-103274857D01*
X142962285Y-103512952D01*
X143009904Y-103608190D01*
X143057523Y-103655809D01*
X143152761Y-103703428D01*
X143343238Y-103703428D01*
X143438476Y-103655809D01*
X143486095Y-103608190D01*
X143533714Y-103512952D01*
X149845733Y-114631742D02*
X149798114Y-114679361D01*
X149655257Y-114726980D01*
X149560019Y-114726980D01*
X149417161Y-114679361D01*
X149321923Y-114584123D01*
X149274304Y-114488885D01*
X149226685Y-114298409D01*
X149226685Y-114155552D01*
X149274304Y-113965076D01*
X149321923Y-113869838D01*
X149417161Y-113774600D01*
X149560019Y-113726980D01*
X149655257Y-113726980D01*
X149798114Y-113774600D01*
X149845733Y-113822219D01*
X150417161Y-114155552D02*
X150321923Y-114107933D01*
X150274304Y-114060314D01*
X150226685Y-113965076D01*
X150226685Y-113917457D01*
X150274304Y-113822219D01*
X150321923Y-113774600D01*
X150417161Y-113726980D01*
X150607638Y-113726980D01*
X150702876Y-113774600D01*
X150750495Y-113822219D01*
X150798114Y-113917457D01*
X150798114Y-113965076D01*
X150750495Y-114060314D01*
X150702876Y-114107933D01*
X150607638Y-114155552D01*
X150417161Y-114155552D01*
X150321923Y-114203171D01*
X150274304Y-114250790D01*
X150226685Y-114346028D01*
X150226685Y-114536504D01*
X150274304Y-114631742D01*
X150321923Y-114679361D01*
X150417161Y-114726980D01*
X150607638Y-114726980D01*
X150702876Y-114679361D01*
X150750495Y-114631742D01*
X150798114Y-114536504D01*
X150798114Y-114346028D01*
X150750495Y-114250790D01*
X150702876Y-114203171D01*
X150607638Y-114155552D01*
X151979333Y-114639142D02*
X151931714Y-114686761D01*
X151788857Y-114734380D01*
X151693619Y-114734380D01*
X151550761Y-114686761D01*
X151455523Y-114591523D01*
X151407904Y-114496285D01*
X151360285Y-114305809D01*
X151360285Y-114162952D01*
X151407904Y-113972476D01*
X151455523Y-113877238D01*
X151550761Y-113782000D01*
X151693619Y-113734380D01*
X151788857Y-113734380D01*
X151931714Y-113782000D01*
X151979333Y-113829619D01*
X152312666Y-113734380D02*
X152979333Y-113734380D01*
X152550761Y-114734380D01*
X161783733Y-107240342D02*
X161736114Y-107287961D01*
X161593257Y-107335580D01*
X161498019Y-107335580D01*
X161355161Y-107287961D01*
X161259923Y-107192723D01*
X161212304Y-107097485D01*
X161164685Y-106907009D01*
X161164685Y-106764152D01*
X161212304Y-106573676D01*
X161259923Y-106478438D01*
X161355161Y-106383200D01*
X161498019Y-106335580D01*
X161593257Y-106335580D01*
X161736114Y-106383200D01*
X161783733Y-106430819D01*
X162640876Y-106335580D02*
X162450400Y-106335580D01*
X162355161Y-106383200D01*
X162307542Y-106430819D01*
X162212304Y-106573676D01*
X162164685Y-106764152D01*
X162164685Y-107145104D01*
X162212304Y-107240342D01*
X162259923Y-107287961D01*
X162355161Y-107335580D01*
X162545638Y-107335580D01*
X162640876Y-107287961D01*
X162688495Y-107240342D01*
X162736114Y-107145104D01*
X162736114Y-106907009D01*
X162688495Y-106811771D01*
X162640876Y-106764152D01*
X162545638Y-106716533D01*
X162355161Y-106716533D01*
X162259923Y-106764152D01*
X162212304Y-106811771D01*
X162164685Y-106907009D01*
X162409142Y-102782666D02*
X162456761Y-102830285D01*
X162504380Y-102973142D01*
X162504380Y-103068380D01*
X162456761Y-103211238D01*
X162361523Y-103306476D01*
X162266285Y-103354095D01*
X162075809Y-103401714D01*
X161932952Y-103401714D01*
X161742476Y-103354095D01*
X161647238Y-103306476D01*
X161552000Y-103211238D01*
X161504380Y-103068380D01*
X161504380Y-102973142D01*
X161552000Y-102830285D01*
X161599619Y-102782666D01*
X161504380Y-101877904D02*
X161504380Y-102354095D01*
X161980571Y-102401714D01*
X161932952Y-102354095D01*
X161885333Y-102258857D01*
X161885333Y-102020761D01*
X161932952Y-101925523D01*
X161980571Y-101877904D01*
X162075809Y-101830285D01*
X162313904Y-101830285D01*
X162409142Y-101877904D01*
X162456761Y-101925523D01*
X162504380Y-102020761D01*
X162504380Y-102258857D01*
X162456761Y-102354095D01*
X162409142Y-102401714D01*
X165223833Y-101443142D02*
X165176214Y-101490761D01*
X165033357Y-101538380D01*
X164938119Y-101538380D01*
X164795261Y-101490761D01*
X164700023Y-101395523D01*
X164652404Y-101300285D01*
X164604785Y-101109809D01*
X164604785Y-100966952D01*
X164652404Y-100776476D01*
X164700023Y-100681238D01*
X164795261Y-100586000D01*
X164938119Y-100538380D01*
X165033357Y-100538380D01*
X165176214Y-100586000D01*
X165223833Y-100633619D01*
X166080976Y-100871714D02*
X166080976Y-101538380D01*
X165842880Y-100490761D02*
X165604785Y-101205047D01*
X166223833Y-101205047D01*
X168667133Y-109399342D02*
X168619514Y-109446961D01*
X168476657Y-109494580D01*
X168381419Y-109494580D01*
X168238561Y-109446961D01*
X168143323Y-109351723D01*
X168095704Y-109256485D01*
X168048085Y-109066009D01*
X168048085Y-108923152D01*
X168095704Y-108732676D01*
X168143323Y-108637438D01*
X168238561Y-108542200D01*
X168381419Y-108494580D01*
X168476657Y-108494580D01*
X168619514Y-108542200D01*
X168667133Y-108589819D01*
X169000466Y-108494580D02*
X169619514Y-108494580D01*
X169286180Y-108875533D01*
X169429038Y-108875533D01*
X169524276Y-108923152D01*
X169571895Y-108970771D01*
X169619514Y-109066009D01*
X169619514Y-109304104D01*
X169571895Y-109399342D01*
X169524276Y-109446961D01*
X169429038Y-109494580D01*
X169143323Y-109494580D01*
X169048085Y-109446961D01*
X169000466Y-109399342D01*
X165161933Y-94692742D02*
X165114314Y-94740361D01*
X164971457Y-94787980D01*
X164876219Y-94787980D01*
X164733361Y-94740361D01*
X164638123Y-94645123D01*
X164590504Y-94549885D01*
X164542885Y-94359409D01*
X164542885Y-94216552D01*
X164590504Y-94026076D01*
X164638123Y-93930838D01*
X164733361Y-93835600D01*
X164876219Y-93787980D01*
X164971457Y-93787980D01*
X165114314Y-93835600D01*
X165161933Y-93883219D01*
X165542885Y-93883219D02*
X165590504Y-93835600D01*
X165685742Y-93787980D01*
X165923838Y-93787980D01*
X166019076Y-93835600D01*
X166066695Y-93883219D01*
X166114314Y-93978457D01*
X166114314Y-94073695D01*
X166066695Y-94216552D01*
X165495266Y-94787980D01*
X166114314Y-94787980D01*
X168057533Y-106478342D02*
X168009914Y-106525961D01*
X167867057Y-106573580D01*
X167771819Y-106573580D01*
X167628961Y-106525961D01*
X167533723Y-106430723D01*
X167486104Y-106335485D01*
X167438485Y-106145009D01*
X167438485Y-106002152D01*
X167486104Y-105811676D01*
X167533723Y-105716438D01*
X167628961Y-105621200D01*
X167771819Y-105573580D01*
X167867057Y-105573580D01*
X168009914Y-105621200D01*
X168057533Y-105668819D01*
X169009914Y-106573580D02*
X168438485Y-106573580D01*
X168724200Y-106573580D02*
X168724200Y-105573580D01*
X168628961Y-105716438D01*
X168533723Y-105811676D01*
X168438485Y-105859295D01*
X139469904Y-121737380D02*
X139469904Y-120737380D01*
X139850857Y-120737380D01*
X139946095Y-120785000D01*
X139993714Y-120832619D01*
X140041333Y-120927857D01*
X140041333Y-121070714D01*
X139993714Y-121165952D01*
X139946095Y-121213571D01*
X139850857Y-121261190D01*
X139469904Y-121261190D01*
X140993714Y-121737380D02*
X140422285Y-121737380D01*
X140708000Y-121737380D02*
X140708000Y-120737380D01*
X140612761Y-120880238D01*
X140517523Y-120975476D01*
X140422285Y-121023095D01*
X162329904Y-121864380D02*
X162329904Y-120864380D01*
X162710857Y-120864380D01*
X162806095Y-120912000D01*
X162853714Y-120959619D01*
X162901333Y-121054857D01*
X162901333Y-121197714D01*
X162853714Y-121292952D01*
X162806095Y-121340571D01*
X162710857Y-121388190D01*
X162329904Y-121388190D01*
X163282285Y-120959619D02*
X163329904Y-120912000D01*
X163425142Y-120864380D01*
X163663238Y-120864380D01*
X163758476Y-120912000D01*
X163806095Y-120959619D01*
X163853714Y-121054857D01*
X163853714Y-121150095D01*
X163806095Y-121292952D01*
X163234666Y-121864380D01*
X163853714Y-121864380D01*
X128801904Y-78684380D02*
X128801904Y-77684380D01*
X129182857Y-77684380D01*
X129278095Y-77732000D01*
X129325714Y-77779619D01*
X129373333Y-77874857D01*
X129373333Y-78017714D01*
X129325714Y-78112952D01*
X129278095Y-78160571D01*
X129182857Y-78208190D01*
X128801904Y-78208190D01*
X129706666Y-77684380D02*
X130325714Y-77684380D01*
X129992380Y-78065333D01*
X130135238Y-78065333D01*
X130230476Y-78112952D01*
X130278095Y-78160571D01*
X130325714Y-78255809D01*
X130325714Y-78493904D01*
X130278095Y-78589142D01*
X130230476Y-78636761D01*
X130135238Y-78684380D01*
X129849523Y-78684380D01*
X129754285Y-78636761D01*
X129706666Y-78589142D01*
X155979904Y-78430380D02*
X155979904Y-77430380D01*
X156360857Y-77430380D01*
X156456095Y-77478000D01*
X156503714Y-77525619D01*
X156551333Y-77620857D01*
X156551333Y-77763714D01*
X156503714Y-77858952D01*
X156456095Y-77906571D01*
X156360857Y-77954190D01*
X155979904Y-77954190D01*
X157408476Y-77763714D02*
X157408476Y-78430380D01*
X157170380Y-77382761D02*
X156932285Y-78097047D01*
X157551333Y-78097047D01*
M02*
