G04 #@! TF.GenerationSoftware,KiCad,Pcbnew,(5.1.4)-1*
G04 #@! TF.CreationDate,2020-03-11T00:25:43-04:00*
G04 #@! TF.ProjectId,CAN_hub,43414e5f-6875-4622-9e6b-696361645f70,rev?*
G04 #@! TF.SameCoordinates,Original*
G04 #@! TF.FileFunction,Copper,L1,Top*
G04 #@! TF.FilePolarity,Positive*
%FSLAX46Y46*%
G04 Gerber Fmt 4.6, Leading zero omitted, Abs format (unit mm)*
G04 Created by KiCad (PCBNEW (5.1.4)-1) date 2020-03-11 00:25:43*
%MOMM*%
%LPD*%
G04 APERTURE LIST*
%ADD10O,1.700000X1.950000*%
%ADD11C,0.100000*%
%ADD12C,1.700000*%
%ADD13O,1.950000X1.700000*%
%ADD14C,0.508000*%
%ADD15C,0.250000*%
%ADD16C,0.254000*%
G04 APERTURE END LIST*
D10*
X30600000Y-36650000D03*
X33100000Y-36650000D03*
X35600000Y-36650000D03*
D11*
G36*
X38724504Y-35676204D02*
G01*
X38748773Y-35679804D01*
X38772571Y-35685765D01*
X38795671Y-35694030D01*
X38817849Y-35704520D01*
X38838893Y-35717133D01*
X38858598Y-35731747D01*
X38876777Y-35748223D01*
X38893253Y-35766402D01*
X38907867Y-35786107D01*
X38920480Y-35807151D01*
X38930970Y-35829329D01*
X38939235Y-35852429D01*
X38945196Y-35876227D01*
X38948796Y-35900496D01*
X38950000Y-35925000D01*
X38950000Y-37375000D01*
X38948796Y-37399504D01*
X38945196Y-37423773D01*
X38939235Y-37447571D01*
X38930970Y-37470671D01*
X38920480Y-37492849D01*
X38907867Y-37513893D01*
X38893253Y-37533598D01*
X38876777Y-37551777D01*
X38858598Y-37568253D01*
X38838893Y-37582867D01*
X38817849Y-37595480D01*
X38795671Y-37605970D01*
X38772571Y-37614235D01*
X38748773Y-37620196D01*
X38724504Y-37623796D01*
X38700000Y-37625000D01*
X37500000Y-37625000D01*
X37475496Y-37623796D01*
X37451227Y-37620196D01*
X37427429Y-37614235D01*
X37404329Y-37605970D01*
X37382151Y-37595480D01*
X37361107Y-37582867D01*
X37341402Y-37568253D01*
X37323223Y-37551777D01*
X37306747Y-37533598D01*
X37292133Y-37513893D01*
X37279520Y-37492849D01*
X37269030Y-37470671D01*
X37260765Y-37447571D01*
X37254804Y-37423773D01*
X37251204Y-37399504D01*
X37250000Y-37375000D01*
X37250000Y-35925000D01*
X37251204Y-35900496D01*
X37254804Y-35876227D01*
X37260765Y-35852429D01*
X37269030Y-35829329D01*
X37279520Y-35807151D01*
X37292133Y-35786107D01*
X37306747Y-35766402D01*
X37323223Y-35748223D01*
X37341402Y-35731747D01*
X37361107Y-35717133D01*
X37382151Y-35704520D01*
X37404329Y-35694030D01*
X37427429Y-35685765D01*
X37451227Y-35679804D01*
X37475496Y-35676204D01*
X37500000Y-35675000D01*
X38700000Y-35675000D01*
X38724504Y-35676204D01*
X38724504Y-35676204D01*
G37*
D12*
X38100000Y-36650000D03*
D13*
X22860000Y-24250000D03*
X22860000Y-26750000D03*
X22860000Y-29250000D03*
D11*
G36*
X23609504Y-30901204D02*
G01*
X23633773Y-30904804D01*
X23657571Y-30910765D01*
X23680671Y-30919030D01*
X23702849Y-30929520D01*
X23723893Y-30942133D01*
X23743598Y-30956747D01*
X23761777Y-30973223D01*
X23778253Y-30991402D01*
X23792867Y-31011107D01*
X23805480Y-31032151D01*
X23815970Y-31054329D01*
X23824235Y-31077429D01*
X23830196Y-31101227D01*
X23833796Y-31125496D01*
X23835000Y-31150000D01*
X23835000Y-32350000D01*
X23833796Y-32374504D01*
X23830196Y-32398773D01*
X23824235Y-32422571D01*
X23815970Y-32445671D01*
X23805480Y-32467849D01*
X23792867Y-32488893D01*
X23778253Y-32508598D01*
X23761777Y-32526777D01*
X23743598Y-32543253D01*
X23723893Y-32557867D01*
X23702849Y-32570480D01*
X23680671Y-32580970D01*
X23657571Y-32589235D01*
X23633773Y-32595196D01*
X23609504Y-32598796D01*
X23585000Y-32600000D01*
X22135000Y-32600000D01*
X22110496Y-32598796D01*
X22086227Y-32595196D01*
X22062429Y-32589235D01*
X22039329Y-32580970D01*
X22017151Y-32570480D01*
X21996107Y-32557867D01*
X21976402Y-32543253D01*
X21958223Y-32526777D01*
X21941747Y-32508598D01*
X21927133Y-32488893D01*
X21914520Y-32467849D01*
X21904030Y-32445671D01*
X21895765Y-32422571D01*
X21889804Y-32398773D01*
X21886204Y-32374504D01*
X21885000Y-32350000D01*
X21885000Y-31150000D01*
X21886204Y-31125496D01*
X21889804Y-31101227D01*
X21895765Y-31077429D01*
X21904030Y-31054329D01*
X21914520Y-31032151D01*
X21927133Y-31011107D01*
X21941747Y-30991402D01*
X21958223Y-30973223D01*
X21976402Y-30956747D01*
X21996107Y-30942133D01*
X22017151Y-30929520D01*
X22039329Y-30919030D01*
X22062429Y-30910765D01*
X22086227Y-30904804D01*
X22110496Y-30901204D01*
X22135000Y-30900000D01*
X23585000Y-30900000D01*
X23609504Y-30901204D01*
X23609504Y-30901204D01*
G37*
D12*
X22860000Y-31750000D03*
D10*
X53220000Y-22860000D03*
X50720000Y-22860000D03*
X48220000Y-22860000D03*
D11*
G36*
X46344504Y-21886204D02*
G01*
X46368773Y-21889804D01*
X46392571Y-21895765D01*
X46415671Y-21904030D01*
X46437849Y-21914520D01*
X46458893Y-21927133D01*
X46478598Y-21941747D01*
X46496777Y-21958223D01*
X46513253Y-21976402D01*
X46527867Y-21996107D01*
X46540480Y-22017151D01*
X46550970Y-22039329D01*
X46559235Y-22062429D01*
X46565196Y-22086227D01*
X46568796Y-22110496D01*
X46570000Y-22135000D01*
X46570000Y-23585000D01*
X46568796Y-23609504D01*
X46565196Y-23633773D01*
X46559235Y-23657571D01*
X46550970Y-23680671D01*
X46540480Y-23702849D01*
X46527867Y-23723893D01*
X46513253Y-23743598D01*
X46496777Y-23761777D01*
X46478598Y-23778253D01*
X46458893Y-23792867D01*
X46437849Y-23805480D01*
X46415671Y-23815970D01*
X46392571Y-23824235D01*
X46368773Y-23830196D01*
X46344504Y-23833796D01*
X46320000Y-23835000D01*
X45120000Y-23835000D01*
X45095496Y-23833796D01*
X45071227Y-23830196D01*
X45047429Y-23824235D01*
X45024329Y-23815970D01*
X45002151Y-23805480D01*
X44981107Y-23792867D01*
X44961402Y-23778253D01*
X44943223Y-23761777D01*
X44926747Y-23743598D01*
X44912133Y-23723893D01*
X44899520Y-23702849D01*
X44889030Y-23680671D01*
X44880765Y-23657571D01*
X44874804Y-23633773D01*
X44871204Y-23609504D01*
X44870000Y-23585000D01*
X44870000Y-22135000D01*
X44871204Y-22110496D01*
X44874804Y-22086227D01*
X44880765Y-22062429D01*
X44889030Y-22039329D01*
X44899520Y-22017151D01*
X44912133Y-21996107D01*
X44926747Y-21976402D01*
X44943223Y-21958223D01*
X44961402Y-21941747D01*
X44981107Y-21927133D01*
X45002151Y-21914520D01*
X45024329Y-21904030D01*
X45047429Y-21895765D01*
X45071227Y-21889804D01*
X45095496Y-21886204D01*
X45120000Y-21885000D01*
X46320000Y-21885000D01*
X46344504Y-21886204D01*
X46344504Y-21886204D01*
G37*
D12*
X45720000Y-22860000D03*
D13*
X59690000Y-28060000D03*
X59690000Y-30560000D03*
X59690000Y-33060000D03*
D11*
G36*
X60439504Y-34711204D02*
G01*
X60463773Y-34714804D01*
X60487571Y-34720765D01*
X60510671Y-34729030D01*
X60532849Y-34739520D01*
X60553893Y-34752133D01*
X60573598Y-34766747D01*
X60591777Y-34783223D01*
X60608253Y-34801402D01*
X60622867Y-34821107D01*
X60635480Y-34842151D01*
X60645970Y-34864329D01*
X60654235Y-34887429D01*
X60660196Y-34911227D01*
X60663796Y-34935496D01*
X60665000Y-34960000D01*
X60665000Y-36160000D01*
X60663796Y-36184504D01*
X60660196Y-36208773D01*
X60654235Y-36232571D01*
X60645970Y-36255671D01*
X60635480Y-36277849D01*
X60622867Y-36298893D01*
X60608253Y-36318598D01*
X60591777Y-36336777D01*
X60573598Y-36353253D01*
X60553893Y-36367867D01*
X60532849Y-36380480D01*
X60510671Y-36390970D01*
X60487571Y-36399235D01*
X60463773Y-36405196D01*
X60439504Y-36408796D01*
X60415000Y-36410000D01*
X58965000Y-36410000D01*
X58940496Y-36408796D01*
X58916227Y-36405196D01*
X58892429Y-36399235D01*
X58869329Y-36390970D01*
X58847151Y-36380480D01*
X58826107Y-36367867D01*
X58806402Y-36353253D01*
X58788223Y-36336777D01*
X58771747Y-36318598D01*
X58757133Y-36298893D01*
X58744520Y-36277849D01*
X58734030Y-36255671D01*
X58725765Y-36232571D01*
X58719804Y-36208773D01*
X58716204Y-36184504D01*
X58715000Y-36160000D01*
X58715000Y-34960000D01*
X58716204Y-34935496D01*
X58719804Y-34911227D01*
X58725765Y-34887429D01*
X58734030Y-34864329D01*
X58744520Y-34842151D01*
X58757133Y-34821107D01*
X58771747Y-34801402D01*
X58788223Y-34783223D01*
X58806402Y-34766747D01*
X58826107Y-34752133D01*
X58847151Y-34739520D01*
X58869329Y-34729030D01*
X58892429Y-34720765D01*
X58916227Y-34714804D01*
X58940496Y-34711204D01*
X58965000Y-34710000D01*
X60415000Y-34710000D01*
X60439504Y-34711204D01*
X60439504Y-34711204D01*
G37*
D12*
X59690000Y-35560000D03*
D10*
X53220000Y-29210000D03*
X50720000Y-29210000D03*
X48220000Y-29210000D03*
D11*
G36*
X46344504Y-28236204D02*
G01*
X46368773Y-28239804D01*
X46392571Y-28245765D01*
X46415671Y-28254030D01*
X46437849Y-28264520D01*
X46458893Y-28277133D01*
X46478598Y-28291747D01*
X46496777Y-28308223D01*
X46513253Y-28326402D01*
X46527867Y-28346107D01*
X46540480Y-28367151D01*
X46550970Y-28389329D01*
X46559235Y-28412429D01*
X46565196Y-28436227D01*
X46568796Y-28460496D01*
X46570000Y-28485000D01*
X46570000Y-29935000D01*
X46568796Y-29959504D01*
X46565196Y-29983773D01*
X46559235Y-30007571D01*
X46550970Y-30030671D01*
X46540480Y-30052849D01*
X46527867Y-30073893D01*
X46513253Y-30093598D01*
X46496777Y-30111777D01*
X46478598Y-30128253D01*
X46458893Y-30142867D01*
X46437849Y-30155480D01*
X46415671Y-30165970D01*
X46392571Y-30174235D01*
X46368773Y-30180196D01*
X46344504Y-30183796D01*
X46320000Y-30185000D01*
X45120000Y-30185000D01*
X45095496Y-30183796D01*
X45071227Y-30180196D01*
X45047429Y-30174235D01*
X45024329Y-30165970D01*
X45002151Y-30155480D01*
X44981107Y-30142867D01*
X44961402Y-30128253D01*
X44943223Y-30111777D01*
X44926747Y-30093598D01*
X44912133Y-30073893D01*
X44899520Y-30052849D01*
X44889030Y-30030671D01*
X44880765Y-30007571D01*
X44874804Y-29983773D01*
X44871204Y-29959504D01*
X44870000Y-29935000D01*
X44870000Y-28485000D01*
X44871204Y-28460496D01*
X44874804Y-28436227D01*
X44880765Y-28412429D01*
X44889030Y-28389329D01*
X44899520Y-28367151D01*
X44912133Y-28346107D01*
X44926747Y-28326402D01*
X44943223Y-28308223D01*
X44961402Y-28291747D01*
X44981107Y-28277133D01*
X45002151Y-28264520D01*
X45024329Y-28254030D01*
X45047429Y-28245765D01*
X45071227Y-28239804D01*
X45095496Y-28236204D01*
X45120000Y-28235000D01*
X46320000Y-28235000D01*
X46344504Y-28236204D01*
X46344504Y-28236204D01*
G37*
D12*
X45720000Y-29210000D03*
D10*
X30600000Y-29900000D03*
X33100000Y-29900000D03*
X35600000Y-29900000D03*
D11*
G36*
X38724504Y-28926204D02*
G01*
X38748773Y-28929804D01*
X38772571Y-28935765D01*
X38795671Y-28944030D01*
X38817849Y-28954520D01*
X38838893Y-28967133D01*
X38858598Y-28981747D01*
X38876777Y-28998223D01*
X38893253Y-29016402D01*
X38907867Y-29036107D01*
X38920480Y-29057151D01*
X38930970Y-29079329D01*
X38939235Y-29102429D01*
X38945196Y-29126227D01*
X38948796Y-29150496D01*
X38950000Y-29175000D01*
X38950000Y-30625000D01*
X38948796Y-30649504D01*
X38945196Y-30673773D01*
X38939235Y-30697571D01*
X38930970Y-30720671D01*
X38920480Y-30742849D01*
X38907867Y-30763893D01*
X38893253Y-30783598D01*
X38876777Y-30801777D01*
X38858598Y-30818253D01*
X38838893Y-30832867D01*
X38817849Y-30845480D01*
X38795671Y-30855970D01*
X38772571Y-30864235D01*
X38748773Y-30870196D01*
X38724504Y-30873796D01*
X38700000Y-30875000D01*
X37500000Y-30875000D01*
X37475496Y-30873796D01*
X37451227Y-30870196D01*
X37427429Y-30864235D01*
X37404329Y-30855970D01*
X37382151Y-30845480D01*
X37361107Y-30832867D01*
X37341402Y-30818253D01*
X37323223Y-30801777D01*
X37306747Y-30783598D01*
X37292133Y-30763893D01*
X37279520Y-30742849D01*
X37269030Y-30720671D01*
X37260765Y-30697571D01*
X37254804Y-30673773D01*
X37251204Y-30649504D01*
X37250000Y-30625000D01*
X37250000Y-29175000D01*
X37251204Y-29150496D01*
X37254804Y-29126227D01*
X37260765Y-29102429D01*
X37269030Y-29079329D01*
X37279520Y-29057151D01*
X37292133Y-29036107D01*
X37306747Y-29016402D01*
X37323223Y-28998223D01*
X37341402Y-28981747D01*
X37361107Y-28967133D01*
X37382151Y-28954520D01*
X37404329Y-28944030D01*
X37427429Y-28935765D01*
X37451227Y-28929804D01*
X37475496Y-28926204D01*
X37500000Y-28925000D01*
X38700000Y-28925000D01*
X38724504Y-28926204D01*
X38724504Y-28926204D01*
G37*
D12*
X38100000Y-29900000D03*
D10*
X53220000Y-36000000D03*
X50720000Y-36000000D03*
X48220000Y-36000000D03*
D11*
G36*
X46344504Y-35026204D02*
G01*
X46368773Y-35029804D01*
X46392571Y-35035765D01*
X46415671Y-35044030D01*
X46437849Y-35054520D01*
X46458893Y-35067133D01*
X46478598Y-35081747D01*
X46496777Y-35098223D01*
X46513253Y-35116402D01*
X46527867Y-35136107D01*
X46540480Y-35157151D01*
X46550970Y-35179329D01*
X46559235Y-35202429D01*
X46565196Y-35226227D01*
X46568796Y-35250496D01*
X46570000Y-35275000D01*
X46570000Y-36725000D01*
X46568796Y-36749504D01*
X46565196Y-36773773D01*
X46559235Y-36797571D01*
X46550970Y-36820671D01*
X46540480Y-36842849D01*
X46527867Y-36863893D01*
X46513253Y-36883598D01*
X46496777Y-36901777D01*
X46478598Y-36918253D01*
X46458893Y-36932867D01*
X46437849Y-36945480D01*
X46415671Y-36955970D01*
X46392571Y-36964235D01*
X46368773Y-36970196D01*
X46344504Y-36973796D01*
X46320000Y-36975000D01*
X45120000Y-36975000D01*
X45095496Y-36973796D01*
X45071227Y-36970196D01*
X45047429Y-36964235D01*
X45024329Y-36955970D01*
X45002151Y-36945480D01*
X44981107Y-36932867D01*
X44961402Y-36918253D01*
X44943223Y-36901777D01*
X44926747Y-36883598D01*
X44912133Y-36863893D01*
X44899520Y-36842849D01*
X44889030Y-36820671D01*
X44880765Y-36797571D01*
X44874804Y-36773773D01*
X44871204Y-36749504D01*
X44870000Y-36725000D01*
X44870000Y-35275000D01*
X44871204Y-35250496D01*
X44874804Y-35226227D01*
X44880765Y-35202429D01*
X44889030Y-35179329D01*
X44899520Y-35157151D01*
X44912133Y-35136107D01*
X44926747Y-35116402D01*
X44943223Y-35098223D01*
X44961402Y-35081747D01*
X44981107Y-35067133D01*
X45002151Y-35054520D01*
X45024329Y-35044030D01*
X45047429Y-35035765D01*
X45071227Y-35029804D01*
X45095496Y-35026204D01*
X45120000Y-35025000D01*
X46320000Y-35025000D01*
X46344504Y-35026204D01*
X46344504Y-35026204D01*
G37*
D12*
X45720000Y-36000000D03*
D10*
X30600000Y-23400000D03*
X33100000Y-23400000D03*
X35600000Y-23400000D03*
D11*
G36*
X38724504Y-22426204D02*
G01*
X38748773Y-22429804D01*
X38772571Y-22435765D01*
X38795671Y-22444030D01*
X38817849Y-22454520D01*
X38838893Y-22467133D01*
X38858598Y-22481747D01*
X38876777Y-22498223D01*
X38893253Y-22516402D01*
X38907867Y-22536107D01*
X38920480Y-22557151D01*
X38930970Y-22579329D01*
X38939235Y-22602429D01*
X38945196Y-22626227D01*
X38948796Y-22650496D01*
X38950000Y-22675000D01*
X38950000Y-24125000D01*
X38948796Y-24149504D01*
X38945196Y-24173773D01*
X38939235Y-24197571D01*
X38930970Y-24220671D01*
X38920480Y-24242849D01*
X38907867Y-24263893D01*
X38893253Y-24283598D01*
X38876777Y-24301777D01*
X38858598Y-24318253D01*
X38838893Y-24332867D01*
X38817849Y-24345480D01*
X38795671Y-24355970D01*
X38772571Y-24364235D01*
X38748773Y-24370196D01*
X38724504Y-24373796D01*
X38700000Y-24375000D01*
X37500000Y-24375000D01*
X37475496Y-24373796D01*
X37451227Y-24370196D01*
X37427429Y-24364235D01*
X37404329Y-24355970D01*
X37382151Y-24345480D01*
X37361107Y-24332867D01*
X37341402Y-24318253D01*
X37323223Y-24301777D01*
X37306747Y-24283598D01*
X37292133Y-24263893D01*
X37279520Y-24242849D01*
X37269030Y-24220671D01*
X37260765Y-24197571D01*
X37254804Y-24173773D01*
X37251204Y-24149504D01*
X37250000Y-24125000D01*
X37250000Y-22675000D01*
X37251204Y-22650496D01*
X37254804Y-22626227D01*
X37260765Y-22602429D01*
X37269030Y-22579329D01*
X37279520Y-22557151D01*
X37292133Y-22536107D01*
X37306747Y-22516402D01*
X37323223Y-22498223D01*
X37341402Y-22481747D01*
X37361107Y-22467133D01*
X37382151Y-22454520D01*
X37404329Y-22444030D01*
X37427429Y-22435765D01*
X37451227Y-22429804D01*
X37475496Y-22426204D01*
X37500000Y-22425000D01*
X38700000Y-22425000D01*
X38724504Y-22426204D01*
X38724504Y-22426204D01*
G37*
D12*
X38100000Y-23400000D03*
D14*
X37201628Y-37548372D02*
X38100000Y-36650000D01*
X36670990Y-38079010D02*
X37201628Y-37548372D01*
X29189010Y-38079010D02*
X36670990Y-38079010D01*
X22860000Y-31750000D02*
X29189010Y-38079010D01*
X38100000Y-36650000D02*
X38100000Y-29900000D01*
X37201628Y-22501628D02*
X38100000Y-23400000D01*
X36670990Y-21970990D02*
X37201628Y-22501628D01*
X23169862Y-21970990D02*
X36670990Y-21970990D01*
X21430990Y-23709862D02*
X23169862Y-21970990D01*
X21430990Y-30320990D02*
X21430990Y-23709862D01*
X22860000Y-31750000D02*
X21430990Y-30320990D01*
X45180000Y-23400000D02*
X45720000Y-22860000D01*
X38100000Y-23400000D02*
X45180000Y-23400000D01*
X55030138Y-21430990D02*
X62230000Y-28630852D01*
X62230000Y-33020000D02*
X59690000Y-35560000D01*
X62230000Y-28630852D02*
X62230000Y-33020000D01*
X45720000Y-36000000D02*
X45720000Y-29210000D01*
X58791628Y-36458372D02*
X59690000Y-35560000D01*
X57820990Y-37429010D02*
X58791628Y-36458372D01*
X47149010Y-37429010D02*
X57820990Y-37429010D01*
X45720000Y-36000000D02*
X47149010Y-37429010D01*
X47149010Y-21430990D02*
X55030138Y-21430990D01*
X45720000Y-22860000D02*
X47149010Y-21430990D01*
D15*
X59690000Y-30520000D02*
X59565000Y-30520000D01*
X59690000Y-30520000D02*
X59815000Y-30520000D01*
X53220000Y-22735000D02*
X53220000Y-22860000D01*
X53220000Y-22860000D02*
X53220000Y-22985000D01*
X50720000Y-22735000D02*
X50720000Y-22860000D01*
X48220000Y-22735000D02*
X48220000Y-22860000D01*
X35600000Y-24130000D02*
X35600000Y-24005000D01*
X59690000Y-28020000D02*
X59565000Y-28020000D01*
X59690000Y-28020000D02*
X59815000Y-28020000D01*
X22860000Y-24250000D02*
X22985000Y-24250000D01*
X58465000Y-28060000D02*
X59690000Y-28060000D01*
X22860000Y-26750000D02*
X22985000Y-26750000D01*
D16*
X59565000Y-30560000D02*
X59690000Y-30560000D01*
X58461000Y-29456000D02*
X59565000Y-30560000D01*
X58461000Y-29331000D02*
X58461000Y-29456000D01*
X55880000Y-26750000D02*
X58461000Y-29331000D01*
X22860000Y-26750000D02*
X33100000Y-26750000D01*
X33100000Y-26590000D02*
X33100000Y-29900000D01*
X33100000Y-26590000D02*
X33100000Y-23400000D01*
X33100000Y-26750000D02*
X33100000Y-26590000D01*
X33100000Y-29900000D02*
X33100000Y-36650000D01*
X50720000Y-30439000D02*
X50720000Y-36000000D01*
X50720000Y-29210000D02*
X50720000Y-30439000D01*
X50720000Y-29210000D02*
X50720000Y-27981000D01*
X50720000Y-24089000D02*
X50720000Y-26750000D01*
X50720000Y-22860000D02*
X50720000Y-24089000D01*
X33100000Y-26750000D02*
X50720000Y-26750000D01*
X50720000Y-26750000D02*
X55880000Y-26750000D01*
X50720000Y-27981000D02*
X50720000Y-26750000D01*
D15*
X35600000Y-36955000D02*
X35600000Y-36830000D01*
M02*
