M48
; DRILL file {KiCad (5.1.4)-1} date 3/11/2020 12:25:53 AM
; FORMAT={-:-/ absolute / inch / decimal}
; #@! TF.CreationDate,2020-03-11T00:25:53-04:00
; #@! TF.GenerationSoftware,Kicad,Pcbnew,(5.1.4)-1
; #@! TF.FileFunction,Plated,1,2,PTH
FMAT,2
INCH
T1C0.0374
%
G90
G05
T1
X1.2047Y-1.1772
X1.3031Y-1.1772
X1.4016Y-1.1772
X1.5Y-1.1772
X0.9Y-0.9547
X0.9Y-1.0531
X0.9Y-1.1516
X0.9Y-1.25
X1.2047Y-1.4429
X1.3031Y-1.4429
X1.4016Y-1.4429
X1.5Y-1.4429
X1.8Y-1.4173
X1.8984Y-1.4173
X1.9969Y-1.4173
X2.0953Y-1.4173
X2.35Y-1.1047
X2.35Y-1.2031
X2.35Y-1.3016
X2.35Y-1.4
X1.2047Y-0.9213
X1.3031Y-0.9213
X1.4016Y-0.9213
X1.5Y-0.9213
X1.8Y-1.15
X1.8984Y-1.15
X1.9969Y-1.15
X2.0953Y-1.15
X1.8Y-0.9
X1.8984Y-0.9
X1.9969Y-0.9
X2.0953Y-0.9
T0
M30
