G04 #@! TF.GenerationSoftware,KiCad,Pcbnew,(5.1.4)-1*
G04 #@! TF.CreationDate,2020-02-08T14:35:32-05:00*
G04 #@! TF.ProjectId,Psyduck,50737964-7563-46b2-9e6b-696361645f70,rev?*
G04 #@! TF.SameCoordinates,Original*
G04 #@! TF.FileFunction,Soldermask,Top*
G04 #@! TF.FilePolarity,Negative*
%FSLAX46Y46*%
G04 Gerber Fmt 4.6, Leading zero omitted, Abs format (unit mm)*
G04 Created by KiCad (PCBNEW (5.1.4)-1) date 2020-02-08 14:35:32*
%MOMM*%
%LPD*%
G04 APERTURE LIST*
%ADD10C,0.100000*%
G04 APERTURE END LIST*
D10*
G36*
X39325562Y-33875181D02*
G01*
X39360481Y-33885774D01*
X39392663Y-33902976D01*
X39420873Y-33926127D01*
X39444024Y-33954337D01*
X39461226Y-33986519D01*
X39471819Y-34021438D01*
X39476000Y-34063895D01*
X39476000Y-35205105D01*
X39471819Y-35247562D01*
X39461226Y-35282481D01*
X39444024Y-35314663D01*
X39420873Y-35342873D01*
X39392663Y-35366024D01*
X39360481Y-35383226D01*
X39325562Y-35393819D01*
X39283105Y-35398000D01*
X36916895Y-35398000D01*
X36874438Y-35393819D01*
X36839519Y-35383226D01*
X36807337Y-35366024D01*
X36779127Y-35342873D01*
X36755976Y-35314663D01*
X36738774Y-35282481D01*
X36728181Y-35247562D01*
X36724000Y-35205105D01*
X36724000Y-34063895D01*
X36728181Y-34021438D01*
X36738774Y-33986519D01*
X36755976Y-33954337D01*
X36779127Y-33926127D01*
X36807337Y-33902976D01*
X36839519Y-33885774D01*
X36874438Y-33875181D01*
X36916895Y-33871000D01*
X39283105Y-33871000D01*
X39325562Y-33875181D01*
X39325562Y-33875181D01*
G37*
G36*
X27718062Y-32029181D02*
G01*
X27752981Y-32039774D01*
X27785163Y-32056976D01*
X27813373Y-32080127D01*
X27836524Y-32108337D01*
X27853726Y-32140519D01*
X27864319Y-32175438D01*
X27868500Y-32217895D01*
X27868500Y-34584105D01*
X27864319Y-34626562D01*
X27853726Y-34661481D01*
X27836524Y-34693663D01*
X27813373Y-34721873D01*
X27785163Y-34745024D01*
X27752981Y-34762226D01*
X27718062Y-34772819D01*
X27675605Y-34777000D01*
X26534395Y-34777000D01*
X26491938Y-34772819D01*
X26457019Y-34762226D01*
X26424837Y-34745024D01*
X26396627Y-34721873D01*
X26373476Y-34693663D01*
X26356274Y-34661481D01*
X26345681Y-34626562D01*
X26341500Y-34584105D01*
X26341500Y-32217895D01*
X26345681Y-32175438D01*
X26356274Y-32140519D01*
X26373476Y-32108337D01*
X26396627Y-32080127D01*
X26424837Y-32056976D01*
X26457019Y-32039774D01*
X26491938Y-32029181D01*
X26534395Y-32025000D01*
X27675605Y-32025000D01*
X27718062Y-32029181D01*
X27718062Y-32029181D01*
G37*
G36*
X24743062Y-32029181D02*
G01*
X24777981Y-32039774D01*
X24810163Y-32056976D01*
X24838373Y-32080127D01*
X24861524Y-32108337D01*
X24878726Y-32140519D01*
X24889319Y-32175438D01*
X24893500Y-32217895D01*
X24893500Y-34584105D01*
X24889319Y-34626562D01*
X24878726Y-34661481D01*
X24861524Y-34693663D01*
X24838373Y-34721873D01*
X24810163Y-34745024D01*
X24777981Y-34762226D01*
X24743062Y-34772819D01*
X24700605Y-34777000D01*
X23559395Y-34777000D01*
X23516938Y-34772819D01*
X23482019Y-34762226D01*
X23449837Y-34745024D01*
X23421627Y-34721873D01*
X23398476Y-34693663D01*
X23381274Y-34661481D01*
X23370681Y-34626562D01*
X23366500Y-34584105D01*
X23366500Y-32217895D01*
X23370681Y-32175438D01*
X23381274Y-32140519D01*
X23398476Y-32108337D01*
X23421627Y-32080127D01*
X23449837Y-32056976D01*
X23482019Y-32039774D01*
X23516938Y-32029181D01*
X23559395Y-32025000D01*
X24700605Y-32025000D01*
X24743062Y-32029181D01*
X24743062Y-32029181D01*
G37*
G36*
X39325562Y-30900181D02*
G01*
X39360481Y-30910774D01*
X39392663Y-30927976D01*
X39420873Y-30951127D01*
X39444024Y-30979337D01*
X39461226Y-31011519D01*
X39471819Y-31046438D01*
X39476000Y-31088895D01*
X39476000Y-32230105D01*
X39471819Y-32272562D01*
X39461226Y-32307481D01*
X39444024Y-32339663D01*
X39420873Y-32367873D01*
X39392663Y-32391024D01*
X39360481Y-32408226D01*
X39325562Y-32418819D01*
X39283105Y-32423000D01*
X36916895Y-32423000D01*
X36874438Y-32418819D01*
X36839519Y-32408226D01*
X36807337Y-32391024D01*
X36779127Y-32367873D01*
X36755976Y-32339663D01*
X36738774Y-32307481D01*
X36728181Y-32272562D01*
X36724000Y-32230105D01*
X36724000Y-31088895D01*
X36728181Y-31046438D01*
X36738774Y-31011519D01*
X36755976Y-30979337D01*
X36779127Y-30951127D01*
X36807337Y-30927976D01*
X36839519Y-30910774D01*
X36874438Y-30900181D01*
X36916895Y-30896000D01*
X39283105Y-30896000D01*
X39325562Y-30900181D01*
X39325562Y-30900181D01*
G37*
G36*
X35152674Y-30876465D02*
G01*
X35190367Y-30887899D01*
X35225103Y-30906466D01*
X35255548Y-30931452D01*
X35280534Y-30961897D01*
X35299101Y-30996633D01*
X35310535Y-31034326D01*
X35315000Y-31079661D01*
X35315000Y-32166339D01*
X35310535Y-32211674D01*
X35299101Y-32249367D01*
X35280534Y-32284103D01*
X35255548Y-32314548D01*
X35225103Y-32339534D01*
X35190367Y-32358101D01*
X35152674Y-32369535D01*
X35107339Y-32374000D01*
X34270661Y-32374000D01*
X34225326Y-32369535D01*
X34187633Y-32358101D01*
X34152897Y-32339534D01*
X34122452Y-32314548D01*
X34097466Y-32284103D01*
X34078899Y-32249367D01*
X34067465Y-32211674D01*
X34063000Y-32166339D01*
X34063000Y-31079661D01*
X34067465Y-31034326D01*
X34078899Y-30996633D01*
X34097466Y-30961897D01*
X34122452Y-30931452D01*
X34152897Y-30906466D01*
X34187633Y-30887899D01*
X34225326Y-30876465D01*
X34270661Y-30872000D01*
X35107339Y-30872000D01*
X35152674Y-30876465D01*
X35152674Y-30876465D01*
G37*
G36*
X33102674Y-30876465D02*
G01*
X33140367Y-30887899D01*
X33175103Y-30906466D01*
X33205548Y-30931452D01*
X33230534Y-30961897D01*
X33249101Y-30996633D01*
X33260535Y-31034326D01*
X33265000Y-31079661D01*
X33265000Y-32166339D01*
X33260535Y-32211674D01*
X33249101Y-32249367D01*
X33230534Y-32284103D01*
X33205548Y-32314548D01*
X33175103Y-32339534D01*
X33140367Y-32358101D01*
X33102674Y-32369535D01*
X33057339Y-32374000D01*
X32220661Y-32374000D01*
X32175326Y-32369535D01*
X32137633Y-32358101D01*
X32102897Y-32339534D01*
X32072452Y-32314548D01*
X32047466Y-32284103D01*
X32028899Y-32249367D01*
X32017465Y-32211674D01*
X32013000Y-32166339D01*
X32013000Y-31079661D01*
X32017465Y-31034326D01*
X32028899Y-30996633D01*
X32047466Y-30961897D01*
X32072452Y-30931452D01*
X32102897Y-30906466D01*
X32137633Y-30887899D01*
X32175326Y-30876465D01*
X32220661Y-30872000D01*
X33057339Y-30872000D01*
X33102674Y-30876465D01*
X33102674Y-30876465D01*
G37*
G36*
X40927721Y-31093174D02*
G01*
X41027995Y-31134709D01*
X41071675Y-31163895D01*
X41118242Y-31195010D01*
X41194990Y-31271758D01*
X41194991Y-31271760D01*
X41255291Y-31362005D01*
X41296826Y-31462279D01*
X41318000Y-31568730D01*
X41318000Y-31677270D01*
X41296826Y-31783721D01*
X41255291Y-31883995D01*
X41255290Y-31883996D01*
X41194990Y-31974242D01*
X41118242Y-32050990D01*
X41109283Y-32056976D01*
X41027995Y-32111291D01*
X40927721Y-32152826D01*
X40821270Y-32174000D01*
X40712730Y-32174000D01*
X40606279Y-32152826D01*
X40506005Y-32111291D01*
X40424717Y-32056976D01*
X40415758Y-32050990D01*
X40339010Y-31974242D01*
X40278710Y-31883996D01*
X40278709Y-31883995D01*
X40237174Y-31783721D01*
X40216000Y-31677270D01*
X40216000Y-31568730D01*
X40237174Y-31462279D01*
X40278709Y-31362005D01*
X40339009Y-31271760D01*
X40339010Y-31271758D01*
X40415758Y-31195010D01*
X40462325Y-31163895D01*
X40506005Y-31134709D01*
X40606279Y-31093174D01*
X40712730Y-31072000D01*
X40821270Y-31072000D01*
X40927721Y-31093174D01*
X40927721Y-31093174D01*
G37*
G36*
X30894721Y-31093174D02*
G01*
X30994995Y-31134709D01*
X31038675Y-31163895D01*
X31085242Y-31195010D01*
X31161990Y-31271758D01*
X31161991Y-31271760D01*
X31222291Y-31362005D01*
X31263826Y-31462279D01*
X31285000Y-31568730D01*
X31285000Y-31677270D01*
X31263826Y-31783721D01*
X31222291Y-31883995D01*
X31222290Y-31883996D01*
X31161990Y-31974242D01*
X31085242Y-32050990D01*
X31076283Y-32056976D01*
X30994995Y-32111291D01*
X30894721Y-32152826D01*
X30788270Y-32174000D01*
X30679730Y-32174000D01*
X30573279Y-32152826D01*
X30473005Y-32111291D01*
X30391717Y-32056976D01*
X30382758Y-32050990D01*
X30306010Y-31974242D01*
X30245710Y-31883996D01*
X30245709Y-31883995D01*
X30204174Y-31783721D01*
X30183000Y-31677270D01*
X30183000Y-31568730D01*
X30204174Y-31462279D01*
X30245709Y-31362005D01*
X30306009Y-31271760D01*
X30306010Y-31271758D01*
X30382758Y-31195010D01*
X30429325Y-31163895D01*
X30473005Y-31134709D01*
X30573279Y-31093174D01*
X30679730Y-31072000D01*
X30788270Y-31072000D01*
X30894721Y-31093174D01*
X30894721Y-31093174D01*
G37*
G36*
X46476600Y-30137989D02*
G01*
X46509652Y-30148015D01*
X46540103Y-30164292D01*
X46566799Y-30186201D01*
X46588708Y-30212897D01*
X46604985Y-30243348D01*
X46615011Y-30276400D01*
X46619000Y-30316903D01*
X46619000Y-31753097D01*
X46615011Y-31793600D01*
X46604985Y-31826652D01*
X46588708Y-31857103D01*
X46566799Y-31883799D01*
X46540103Y-31905708D01*
X46509652Y-31921985D01*
X46476600Y-31932011D01*
X46436097Y-31936000D01*
X44749903Y-31936000D01*
X44709400Y-31932011D01*
X44676348Y-31921985D01*
X44645897Y-31905708D01*
X44619201Y-31883799D01*
X44597292Y-31857103D01*
X44581015Y-31826652D01*
X44570989Y-31793600D01*
X44567000Y-31753097D01*
X44567000Y-30316903D01*
X44570989Y-30276400D01*
X44581015Y-30243348D01*
X44597292Y-30212897D01*
X44619201Y-30186201D01*
X44645897Y-30164292D01*
X44676348Y-30148015D01*
X44709400Y-30137989D01*
X44749903Y-30134000D01*
X46436097Y-30134000D01*
X46476600Y-30137989D01*
X46476600Y-30137989D01*
G37*
G36*
X26634674Y-29987465D02*
G01*
X26672367Y-29998899D01*
X26707103Y-30017466D01*
X26737548Y-30042452D01*
X26762534Y-30072897D01*
X26781101Y-30107633D01*
X26792535Y-30145326D01*
X26797000Y-30190661D01*
X26797000Y-31277339D01*
X26792535Y-31322674D01*
X26781101Y-31360367D01*
X26762534Y-31395103D01*
X26737548Y-31425548D01*
X26707103Y-31450534D01*
X26672367Y-31469101D01*
X26634674Y-31480535D01*
X26589339Y-31485000D01*
X25752661Y-31485000D01*
X25707326Y-31480535D01*
X25669633Y-31469101D01*
X25634897Y-31450534D01*
X25604452Y-31425548D01*
X25579466Y-31395103D01*
X25560899Y-31360367D01*
X25549465Y-31322674D01*
X25545000Y-31277339D01*
X25545000Y-30190661D01*
X25549465Y-30145326D01*
X25560899Y-30107633D01*
X25579466Y-30072897D01*
X25604452Y-30042452D01*
X25634897Y-30017466D01*
X25669633Y-29998899D01*
X25707326Y-29987465D01*
X25752661Y-29983000D01*
X26589339Y-29983000D01*
X26634674Y-29987465D01*
X26634674Y-29987465D01*
G37*
G36*
X24584674Y-29987465D02*
G01*
X24622367Y-29998899D01*
X24657103Y-30017466D01*
X24687548Y-30042452D01*
X24712534Y-30072897D01*
X24731101Y-30107633D01*
X24742535Y-30145326D01*
X24747000Y-30190661D01*
X24747000Y-31277339D01*
X24742535Y-31322674D01*
X24731101Y-31360367D01*
X24712534Y-31395103D01*
X24687548Y-31425548D01*
X24657103Y-31450534D01*
X24622367Y-31469101D01*
X24584674Y-31480535D01*
X24539339Y-31485000D01*
X23702661Y-31485000D01*
X23657326Y-31480535D01*
X23619633Y-31469101D01*
X23584897Y-31450534D01*
X23554452Y-31425548D01*
X23529466Y-31395103D01*
X23510899Y-31360367D01*
X23499465Y-31322674D01*
X23495000Y-31277339D01*
X23495000Y-30190661D01*
X23499465Y-30145326D01*
X23510899Y-30107633D01*
X23529466Y-30072897D01*
X23554452Y-30042452D01*
X23584897Y-30017466D01*
X23619633Y-29998899D01*
X23657326Y-29987465D01*
X23702661Y-29983000D01*
X24539339Y-29983000D01*
X24584674Y-29987465D01*
X24584674Y-29987465D01*
G37*
G36*
X37905000Y-29925000D02*
G01*
X31653000Y-29925000D01*
X31653000Y-28223000D01*
X37905000Y-28223000D01*
X37905000Y-29925000D01*
X37905000Y-29925000D01*
G37*
G36*
X45828443Y-27640519D02*
G01*
X45894627Y-27647037D01*
X46064466Y-27698557D01*
X46220991Y-27782222D01*
X46256729Y-27811552D01*
X46358186Y-27894814D01*
X46430557Y-27983000D01*
X46470778Y-28032009D01*
X46554443Y-28188534D01*
X46605963Y-28358373D01*
X46623359Y-28535000D01*
X46605963Y-28711627D01*
X46554443Y-28881466D01*
X46470778Y-29037991D01*
X46441448Y-29073729D01*
X46358186Y-29175186D01*
X46256729Y-29258448D01*
X46220991Y-29287778D01*
X46064466Y-29371443D01*
X45894627Y-29422963D01*
X45828443Y-29429481D01*
X45762260Y-29436000D01*
X45423740Y-29436000D01*
X45357557Y-29429481D01*
X45291373Y-29422963D01*
X45121534Y-29371443D01*
X44965009Y-29287778D01*
X44929271Y-29258448D01*
X44827814Y-29175186D01*
X44744552Y-29073729D01*
X44715222Y-29037991D01*
X44631557Y-28881466D01*
X44580037Y-28711627D01*
X44562641Y-28535000D01*
X44580037Y-28358373D01*
X44631557Y-28188534D01*
X44715222Y-28032009D01*
X44755443Y-27983000D01*
X44827814Y-27894814D01*
X44929271Y-27811552D01*
X44965009Y-27782222D01*
X45121534Y-27698557D01*
X45291373Y-27647037D01*
X45357557Y-27640519D01*
X45423740Y-27634000D01*
X45762260Y-27634000D01*
X45828443Y-27640519D01*
X45828443Y-27640519D01*
G37*
G36*
X19845721Y-26902174D02*
G01*
X19945995Y-26943709D01*
X19945996Y-26943710D01*
X20036242Y-27004010D01*
X20112990Y-27080758D01*
X20112991Y-27080760D01*
X20173291Y-27171005D01*
X20214826Y-27271279D01*
X20236000Y-27377730D01*
X20236000Y-27486270D01*
X20214826Y-27592721D01*
X20173291Y-27692995D01*
X20169574Y-27698558D01*
X20112990Y-27783242D01*
X20036242Y-27859990D01*
X19990812Y-27890345D01*
X19945995Y-27920291D01*
X19845721Y-27961826D01*
X19739270Y-27983000D01*
X19630730Y-27983000D01*
X19524279Y-27961826D01*
X19424005Y-27920291D01*
X19379188Y-27890345D01*
X19333758Y-27859990D01*
X19257010Y-27783242D01*
X19200426Y-27698558D01*
X19196709Y-27692995D01*
X19155174Y-27592721D01*
X19134000Y-27486270D01*
X19134000Y-27377730D01*
X19155174Y-27271279D01*
X19196709Y-27171005D01*
X19257009Y-27080760D01*
X19257010Y-27080758D01*
X19333758Y-27004010D01*
X19424004Y-26943710D01*
X19424005Y-26943709D01*
X19524279Y-26902174D01*
X19630730Y-26881000D01*
X19739270Y-26881000D01*
X19845721Y-26902174D01*
X19845721Y-26902174D01*
G37*
G36*
X22004721Y-26902174D02*
G01*
X22104995Y-26943709D01*
X22104996Y-26943710D01*
X22195242Y-27004010D01*
X22271990Y-27080758D01*
X22271991Y-27080760D01*
X22332291Y-27171005D01*
X22373826Y-27271279D01*
X22395000Y-27377730D01*
X22395000Y-27486270D01*
X22373826Y-27592721D01*
X22332291Y-27692995D01*
X22328574Y-27698558D01*
X22271990Y-27783242D01*
X22195242Y-27859990D01*
X22149812Y-27890345D01*
X22104995Y-27920291D01*
X22004721Y-27961826D01*
X21898270Y-27983000D01*
X21789730Y-27983000D01*
X21683279Y-27961826D01*
X21583005Y-27920291D01*
X21538188Y-27890345D01*
X21492758Y-27859990D01*
X21416010Y-27783242D01*
X21359426Y-27698558D01*
X21355709Y-27692995D01*
X21314174Y-27592721D01*
X21293000Y-27486270D01*
X21293000Y-27377730D01*
X21314174Y-27271279D01*
X21355709Y-27171005D01*
X21416009Y-27080760D01*
X21416010Y-27080758D01*
X21492758Y-27004010D01*
X21583004Y-26943710D01*
X21583005Y-26943709D01*
X21683279Y-26902174D01*
X21789730Y-26881000D01*
X21898270Y-26881000D01*
X22004721Y-26902174D01*
X22004721Y-26902174D01*
G37*
G36*
X24163721Y-26902174D02*
G01*
X24263995Y-26943709D01*
X24263996Y-26943710D01*
X24354242Y-27004010D01*
X24430990Y-27080758D01*
X24430991Y-27080760D01*
X24491291Y-27171005D01*
X24532826Y-27271279D01*
X24554000Y-27377730D01*
X24554000Y-27486270D01*
X24532826Y-27592721D01*
X24491291Y-27692995D01*
X24487574Y-27698558D01*
X24430990Y-27783242D01*
X24354242Y-27859990D01*
X24308812Y-27890345D01*
X24263995Y-27920291D01*
X24163721Y-27961826D01*
X24057270Y-27983000D01*
X23948730Y-27983000D01*
X23842279Y-27961826D01*
X23742005Y-27920291D01*
X23697188Y-27890345D01*
X23651758Y-27859990D01*
X23575010Y-27783242D01*
X23518426Y-27698558D01*
X23514709Y-27692995D01*
X23473174Y-27592721D01*
X23452000Y-27486270D01*
X23452000Y-27377730D01*
X23473174Y-27271279D01*
X23514709Y-27171005D01*
X23575009Y-27080760D01*
X23575010Y-27080758D01*
X23651758Y-27004010D01*
X23742004Y-26943710D01*
X23742005Y-26943709D01*
X23842279Y-26902174D01*
X23948730Y-26881000D01*
X24057270Y-26881000D01*
X24163721Y-26902174D01*
X24163721Y-26902174D01*
G37*
G36*
X31380000Y-27950000D02*
G01*
X29678000Y-27950000D01*
X29678000Y-21698000D01*
X31380000Y-21698000D01*
X31380000Y-27950000D01*
X31380000Y-27950000D01*
G37*
G36*
X39880000Y-27950000D02*
G01*
X38178000Y-27950000D01*
X38178000Y-21698000D01*
X39880000Y-21698000D01*
X39880000Y-27950000D01*
X39880000Y-27950000D01*
G37*
G36*
X42117674Y-26692465D02*
G01*
X42155367Y-26703899D01*
X42190103Y-26722466D01*
X42220548Y-26747452D01*
X42245534Y-26777897D01*
X42264101Y-26812633D01*
X42275535Y-26850326D01*
X42280000Y-26895661D01*
X42280000Y-27732339D01*
X42275535Y-27777674D01*
X42264101Y-27815367D01*
X42245534Y-27850103D01*
X42220548Y-27880548D01*
X42190103Y-27905534D01*
X42155367Y-27924101D01*
X42117674Y-27935535D01*
X42072339Y-27940000D01*
X40985661Y-27940000D01*
X40940326Y-27935535D01*
X40902633Y-27924101D01*
X40867897Y-27905534D01*
X40837452Y-27880548D01*
X40812466Y-27850103D01*
X40793899Y-27815367D01*
X40782465Y-27777674D01*
X40778000Y-27732339D01*
X40778000Y-26895661D01*
X40782465Y-26850326D01*
X40793899Y-26812633D01*
X40812466Y-26777897D01*
X40837452Y-26747452D01*
X40867897Y-26722466D01*
X40902633Y-26703899D01*
X40940326Y-26692465D01*
X40985661Y-26688000D01*
X42072339Y-26688000D01*
X42117674Y-26692465D01*
X42117674Y-26692465D01*
G37*
G36*
X16123600Y-25772989D02*
G01*
X16156652Y-25783015D01*
X16187103Y-25799292D01*
X16213799Y-25821201D01*
X16235708Y-25847897D01*
X16251985Y-25878348D01*
X16262011Y-25911400D01*
X16266000Y-25951903D01*
X16266000Y-27388097D01*
X16262011Y-27428600D01*
X16251985Y-27461652D01*
X16235708Y-27492103D01*
X16213799Y-27518799D01*
X16187103Y-27540708D01*
X16156652Y-27556985D01*
X16123600Y-27567011D01*
X16083097Y-27571000D01*
X14396903Y-27571000D01*
X14356400Y-27567011D01*
X14323348Y-27556985D01*
X14292897Y-27540708D01*
X14266201Y-27518799D01*
X14244292Y-27492103D01*
X14228015Y-27461652D01*
X14217989Y-27428600D01*
X14214000Y-27388097D01*
X14214000Y-25951903D01*
X14217989Y-25911400D01*
X14228015Y-25878348D01*
X14244292Y-25847897D01*
X14266201Y-25821201D01*
X14292897Y-25799292D01*
X14323348Y-25783015D01*
X14356400Y-25772989D01*
X14396903Y-25769000D01*
X16083097Y-25769000D01*
X16123600Y-25772989D01*
X16123600Y-25772989D01*
G37*
G36*
X45828443Y-25140519D02*
G01*
X45894627Y-25147037D01*
X46064466Y-25198557D01*
X46220991Y-25282222D01*
X46256729Y-25311552D01*
X46358186Y-25394814D01*
X46441448Y-25496271D01*
X46470778Y-25532009D01*
X46554443Y-25688534D01*
X46605963Y-25858373D01*
X46623359Y-26035000D01*
X46605963Y-26211627D01*
X46554443Y-26381466D01*
X46470778Y-26537991D01*
X46441448Y-26573729D01*
X46358186Y-26675186D01*
X46295924Y-26726282D01*
X46220991Y-26787778D01*
X46064466Y-26871443D01*
X45894627Y-26922963D01*
X45828443Y-26929481D01*
X45762260Y-26936000D01*
X45423740Y-26936000D01*
X45357557Y-26929481D01*
X45291373Y-26922963D01*
X45121534Y-26871443D01*
X44965009Y-26787778D01*
X44890076Y-26726282D01*
X44827814Y-26675186D01*
X44744552Y-26573729D01*
X44715222Y-26537991D01*
X44631557Y-26381466D01*
X44580037Y-26211627D01*
X44562641Y-26035000D01*
X44580037Y-25858373D01*
X44631557Y-25688534D01*
X44715222Y-25532009D01*
X44744552Y-25496271D01*
X44827814Y-25394814D01*
X44929271Y-25311552D01*
X44965009Y-25282222D01*
X45121534Y-25198557D01*
X45291373Y-25147037D01*
X45357558Y-25140518D01*
X45423740Y-25134000D01*
X45762260Y-25134000D01*
X45828443Y-25140519D01*
X45828443Y-25140519D01*
G37*
G36*
X28528674Y-25558465D02*
G01*
X28566367Y-25569899D01*
X28601103Y-25588466D01*
X28631548Y-25613452D01*
X28656534Y-25643897D01*
X28675101Y-25678633D01*
X28686535Y-25716326D01*
X28691000Y-25761661D01*
X28691000Y-26598339D01*
X28686535Y-26643674D01*
X28675101Y-26681367D01*
X28656534Y-26716103D01*
X28631548Y-26746548D01*
X28601103Y-26771534D01*
X28566367Y-26790101D01*
X28528674Y-26801535D01*
X28483339Y-26806000D01*
X27396661Y-26806000D01*
X27351326Y-26801535D01*
X27313633Y-26790101D01*
X27278897Y-26771534D01*
X27248452Y-26746548D01*
X27223466Y-26716103D01*
X27204899Y-26681367D01*
X27193465Y-26643674D01*
X27189000Y-26598339D01*
X27189000Y-25761661D01*
X27193465Y-25716326D01*
X27204899Y-25678633D01*
X27223466Y-25643897D01*
X27248452Y-25613452D01*
X27278897Y-25588466D01*
X27313633Y-25569899D01*
X27351326Y-25558465D01*
X27396661Y-25554000D01*
X28483339Y-25554000D01*
X28528674Y-25558465D01*
X28528674Y-25558465D01*
G37*
G36*
X42117674Y-24642465D02*
G01*
X42155367Y-24653899D01*
X42190103Y-24672466D01*
X42220548Y-24697452D01*
X42245534Y-24727897D01*
X42264101Y-24762633D01*
X42275535Y-24800326D01*
X42280000Y-24845661D01*
X42280000Y-25682339D01*
X42275535Y-25727674D01*
X42264101Y-25765367D01*
X42245534Y-25800103D01*
X42220548Y-25830548D01*
X42190103Y-25855534D01*
X42155367Y-25874101D01*
X42117674Y-25885535D01*
X42072339Y-25890000D01*
X40985661Y-25890000D01*
X40940326Y-25885535D01*
X40902633Y-25874101D01*
X40867897Y-25855534D01*
X40837452Y-25830548D01*
X40812466Y-25800103D01*
X40793899Y-25765367D01*
X40782465Y-25727674D01*
X40778000Y-25682339D01*
X40778000Y-24845661D01*
X40782465Y-24800326D01*
X40793899Y-24762633D01*
X40812466Y-24727897D01*
X40837452Y-24697452D01*
X40867897Y-24672466D01*
X40902633Y-24653899D01*
X40940326Y-24642465D01*
X40985661Y-24638000D01*
X42072339Y-24638000D01*
X42117674Y-24642465D01*
X42117674Y-24642465D01*
G37*
G36*
X15475443Y-23275519D02*
G01*
X15541627Y-23282037D01*
X15711466Y-23333557D01*
X15867991Y-23417222D01*
X15903729Y-23446552D01*
X16005186Y-23529814D01*
X16083271Y-23624962D01*
X16117778Y-23667009D01*
X16201443Y-23823534D01*
X16252963Y-23993373D01*
X16270359Y-24170000D01*
X16252963Y-24346627D01*
X16201443Y-24516466D01*
X16117778Y-24672991D01*
X16098445Y-24696548D01*
X16005186Y-24810186D01*
X15903729Y-24893448D01*
X15867991Y-24922778D01*
X15711466Y-25006443D01*
X15541627Y-25057963D01*
X15475442Y-25064482D01*
X15409260Y-25071000D01*
X15070740Y-25071000D01*
X15004558Y-25064482D01*
X14938373Y-25057963D01*
X14768534Y-25006443D01*
X14612009Y-24922778D01*
X14576271Y-24893448D01*
X14474814Y-24810186D01*
X14381555Y-24696548D01*
X14362222Y-24672991D01*
X14278557Y-24516466D01*
X14227037Y-24346627D01*
X14209641Y-24170000D01*
X14227037Y-23993373D01*
X14278557Y-23823534D01*
X14362222Y-23667009D01*
X14396729Y-23624962D01*
X14474814Y-23529814D01*
X14576271Y-23446552D01*
X14612009Y-23417222D01*
X14768534Y-23333557D01*
X14938373Y-23282037D01*
X15004557Y-23275519D01*
X15070740Y-23269000D01*
X15409260Y-23269000D01*
X15475443Y-23275519D01*
X15475443Y-23275519D01*
G37*
G36*
X28528674Y-23508465D02*
G01*
X28566367Y-23519899D01*
X28601103Y-23538466D01*
X28631548Y-23563452D01*
X28656534Y-23593897D01*
X28675101Y-23628633D01*
X28686535Y-23666326D01*
X28691000Y-23711661D01*
X28691000Y-24548339D01*
X28686535Y-24593674D01*
X28675101Y-24631367D01*
X28656534Y-24666103D01*
X28631548Y-24696548D01*
X28601103Y-24721534D01*
X28566367Y-24740101D01*
X28528674Y-24751535D01*
X28483339Y-24756000D01*
X27396661Y-24756000D01*
X27351326Y-24751535D01*
X27313633Y-24740101D01*
X27278897Y-24721534D01*
X27248452Y-24696548D01*
X27223466Y-24666103D01*
X27204899Y-24631367D01*
X27193465Y-24593674D01*
X27189000Y-24548339D01*
X27189000Y-23711661D01*
X27193465Y-23666326D01*
X27204899Y-23628633D01*
X27223466Y-23593897D01*
X27248452Y-23563452D01*
X27278897Y-23538466D01*
X27313633Y-23519899D01*
X27351326Y-23508465D01*
X27396661Y-23504000D01*
X28483339Y-23504000D01*
X28528674Y-23508465D01*
X28528674Y-23508465D01*
G37*
G36*
X19845721Y-23600174D02*
G01*
X19945995Y-23641709D01*
X19945996Y-23641710D01*
X20036242Y-23702010D01*
X20112990Y-23778758D01*
X20112991Y-23778760D01*
X20173291Y-23869005D01*
X20214826Y-23969279D01*
X20236000Y-24075730D01*
X20236000Y-24184270D01*
X20214826Y-24290721D01*
X20173291Y-24390995D01*
X20143345Y-24435812D01*
X20112990Y-24481242D01*
X20036242Y-24557990D01*
X19991354Y-24587983D01*
X19945995Y-24618291D01*
X19845721Y-24659826D01*
X19739270Y-24681000D01*
X19630730Y-24681000D01*
X19524279Y-24659826D01*
X19424005Y-24618291D01*
X19378646Y-24587983D01*
X19333758Y-24557990D01*
X19257010Y-24481242D01*
X19226655Y-24435812D01*
X19196709Y-24390995D01*
X19155174Y-24290721D01*
X19134000Y-24184270D01*
X19134000Y-24075730D01*
X19155174Y-23969279D01*
X19196709Y-23869005D01*
X19257009Y-23778760D01*
X19257010Y-23778758D01*
X19333758Y-23702010D01*
X19424004Y-23641710D01*
X19424005Y-23641709D01*
X19524279Y-23600174D01*
X19630730Y-23579000D01*
X19739270Y-23579000D01*
X19845721Y-23600174D01*
X19845721Y-23600174D01*
G37*
G36*
X24163721Y-23600174D02*
G01*
X24263995Y-23641709D01*
X24263996Y-23641710D01*
X24354242Y-23702010D01*
X24430990Y-23778758D01*
X24430991Y-23778760D01*
X24491291Y-23869005D01*
X24532826Y-23969279D01*
X24554000Y-24075730D01*
X24554000Y-24184270D01*
X24532826Y-24290721D01*
X24491291Y-24390995D01*
X24461345Y-24435812D01*
X24430990Y-24481242D01*
X24354242Y-24557990D01*
X24309354Y-24587983D01*
X24263995Y-24618291D01*
X24163721Y-24659826D01*
X24057270Y-24681000D01*
X23948730Y-24681000D01*
X23842279Y-24659826D01*
X23742005Y-24618291D01*
X23696646Y-24587983D01*
X23651758Y-24557990D01*
X23575010Y-24481242D01*
X23544655Y-24435812D01*
X23514709Y-24390995D01*
X23473174Y-24290721D01*
X23452000Y-24184270D01*
X23452000Y-24075730D01*
X23473174Y-23969279D01*
X23514709Y-23869005D01*
X23575009Y-23778760D01*
X23575010Y-23778758D01*
X23651758Y-23702010D01*
X23742004Y-23641710D01*
X23742005Y-23641709D01*
X23842279Y-23600174D01*
X23948730Y-23579000D01*
X24057270Y-23579000D01*
X24163721Y-23600174D01*
X24163721Y-23600174D01*
G37*
G36*
X45828443Y-22640519D02*
G01*
X45894627Y-22647037D01*
X46064466Y-22698557D01*
X46220991Y-22782222D01*
X46256729Y-22811552D01*
X46358186Y-22894814D01*
X46441448Y-22996271D01*
X46470778Y-23032009D01*
X46554443Y-23188534D01*
X46605963Y-23358373D01*
X46623359Y-23535000D01*
X46605963Y-23711627D01*
X46554443Y-23881466D01*
X46470778Y-24037991D01*
X46441448Y-24073729D01*
X46358186Y-24175186D01*
X46256729Y-24258448D01*
X46220991Y-24287778D01*
X46064466Y-24371443D01*
X45894627Y-24422963D01*
X45828443Y-24429481D01*
X45762260Y-24436000D01*
X45423740Y-24436000D01*
X45357557Y-24429481D01*
X45291373Y-24422963D01*
X45121534Y-24371443D01*
X44965009Y-24287778D01*
X44929271Y-24258448D01*
X44827814Y-24175186D01*
X44744552Y-24073729D01*
X44715222Y-24037991D01*
X44631557Y-23881466D01*
X44580037Y-23711627D01*
X44562641Y-23535000D01*
X44580037Y-23358373D01*
X44631557Y-23188534D01*
X44715222Y-23032009D01*
X44744552Y-22996271D01*
X44827814Y-22894814D01*
X44929271Y-22811552D01*
X44965009Y-22782222D01*
X45121534Y-22698557D01*
X45291373Y-22647037D01*
X45357557Y-22640519D01*
X45423740Y-22634000D01*
X45762260Y-22634000D01*
X45828443Y-22640519D01*
X45828443Y-22640519D01*
G37*
G36*
X15475442Y-20775518D02*
G01*
X15541627Y-20782037D01*
X15711466Y-20833557D01*
X15867991Y-20917222D01*
X15903729Y-20946552D01*
X16005186Y-21029814D01*
X16088448Y-21131271D01*
X16117778Y-21167009D01*
X16201443Y-21323534D01*
X16252963Y-21493373D01*
X16270359Y-21670000D01*
X16252963Y-21846627D01*
X16201443Y-22016466D01*
X16117778Y-22172991D01*
X16088448Y-22208729D01*
X16005186Y-22310186D01*
X15903729Y-22393448D01*
X15867991Y-22422778D01*
X15789729Y-22464610D01*
X15721977Y-22500825D01*
X15711466Y-22506443D01*
X15541627Y-22557963D01*
X15475442Y-22564482D01*
X15409260Y-22571000D01*
X15070740Y-22571000D01*
X15004558Y-22564482D01*
X14938373Y-22557963D01*
X14768534Y-22506443D01*
X14758024Y-22500825D01*
X14690271Y-22464610D01*
X14612009Y-22422778D01*
X14576271Y-22393448D01*
X14474814Y-22310186D01*
X14391552Y-22208729D01*
X14362222Y-22172991D01*
X14278557Y-22016466D01*
X14227037Y-21846627D01*
X14209641Y-21670000D01*
X14227037Y-21493373D01*
X14278557Y-21323534D01*
X14362222Y-21167009D01*
X14391552Y-21131271D01*
X14474814Y-21029814D01*
X14576271Y-20946552D01*
X14612009Y-20917222D01*
X14768534Y-20833557D01*
X14938373Y-20782037D01*
X15004558Y-20775518D01*
X15070740Y-20769000D01*
X15409260Y-20769000D01*
X15475442Y-20775518D01*
X15475442Y-20775518D01*
G37*
G36*
X19845721Y-21441174D02*
G01*
X19945995Y-21482709D01*
X19990812Y-21512655D01*
X20036242Y-21543010D01*
X20112990Y-21619758D01*
X20112991Y-21619760D01*
X20173291Y-21710005D01*
X20214826Y-21810279D01*
X20236000Y-21916730D01*
X20236000Y-22025270D01*
X20214826Y-22131721D01*
X20173291Y-22231995D01*
X20173290Y-22231996D01*
X20112990Y-22322242D01*
X20036242Y-22398990D01*
X20000640Y-22422778D01*
X19945995Y-22459291D01*
X19845721Y-22500826D01*
X19739270Y-22522000D01*
X19630730Y-22522000D01*
X19524279Y-22500826D01*
X19424005Y-22459291D01*
X19369360Y-22422778D01*
X19333758Y-22398990D01*
X19257010Y-22322242D01*
X19196710Y-22231996D01*
X19196709Y-22231995D01*
X19155174Y-22131721D01*
X19134000Y-22025270D01*
X19134000Y-21916730D01*
X19155174Y-21810279D01*
X19196709Y-21710005D01*
X19257009Y-21619760D01*
X19257010Y-21619758D01*
X19333758Y-21543010D01*
X19379188Y-21512655D01*
X19424005Y-21482709D01*
X19524279Y-21441174D01*
X19630730Y-21420000D01*
X19739270Y-21420000D01*
X19845721Y-21441174D01*
X19845721Y-21441174D01*
G37*
G36*
X37905000Y-21425000D02*
G01*
X31653000Y-21425000D01*
X31653000Y-19723000D01*
X37905000Y-19723000D01*
X37905000Y-21425000D01*
X37905000Y-21425000D01*
G37*
G36*
X41562721Y-19663174D02*
G01*
X41662995Y-19704709D01*
X41662996Y-19704710D01*
X41753242Y-19765010D01*
X41829990Y-19841758D01*
X41829991Y-19841760D01*
X41890291Y-19932005D01*
X41931826Y-20032279D01*
X41953000Y-20138730D01*
X41953000Y-20247270D01*
X41931826Y-20353721D01*
X41890291Y-20453995D01*
X41890290Y-20453996D01*
X41829990Y-20544242D01*
X41753242Y-20620990D01*
X41707812Y-20651345D01*
X41662995Y-20681291D01*
X41562721Y-20722826D01*
X41456270Y-20744000D01*
X41347730Y-20744000D01*
X41241279Y-20722826D01*
X41141005Y-20681291D01*
X41096188Y-20651345D01*
X41050758Y-20620990D01*
X40974010Y-20544242D01*
X40913710Y-20453996D01*
X40913709Y-20453995D01*
X40872174Y-20353721D01*
X40851000Y-20247270D01*
X40851000Y-20138730D01*
X40872174Y-20032279D01*
X40913709Y-19932005D01*
X40974009Y-19841760D01*
X40974010Y-19841758D01*
X41050758Y-19765010D01*
X41141004Y-19704710D01*
X41141005Y-19704709D01*
X41241279Y-19663174D01*
X41347730Y-19642000D01*
X41456270Y-19642000D01*
X41562721Y-19663174D01*
X41562721Y-19663174D01*
G37*
G36*
X27669443Y-18409519D02*
G01*
X27735627Y-18416037D01*
X27905466Y-18467557D01*
X28061991Y-18551222D01*
X28079543Y-18565627D01*
X28199186Y-18663814D01*
X28282448Y-18765271D01*
X28311778Y-18801009D01*
X28395443Y-18957534D01*
X28446963Y-19127373D01*
X28464359Y-19304000D01*
X28446963Y-19480627D01*
X28395443Y-19650466D01*
X28311778Y-19806991D01*
X28283245Y-19841758D01*
X28199186Y-19944186D01*
X28097729Y-20027448D01*
X28061991Y-20056778D01*
X27905466Y-20140443D01*
X27735627Y-20191963D01*
X27669443Y-20198481D01*
X27603260Y-20205000D01*
X27514740Y-20205000D01*
X27448557Y-20198481D01*
X27382373Y-20191963D01*
X27212534Y-20140443D01*
X27056009Y-20056778D01*
X27020271Y-20027448D01*
X26918814Y-19944186D01*
X26834755Y-19841758D01*
X26806222Y-19806991D01*
X26722557Y-19650466D01*
X26671037Y-19480627D01*
X26653641Y-19304000D01*
X26671037Y-19127373D01*
X26722557Y-18957534D01*
X26806222Y-18801009D01*
X26835552Y-18765271D01*
X26918814Y-18663814D01*
X27038457Y-18565627D01*
X27056009Y-18551222D01*
X27212534Y-18467557D01*
X27382373Y-18416037D01*
X27448557Y-18409519D01*
X27514740Y-18403000D01*
X27603260Y-18403000D01*
X27669443Y-18409519D01*
X27669443Y-18409519D01*
G37*
G36*
X25129443Y-18409519D02*
G01*
X25195627Y-18416037D01*
X25365466Y-18467557D01*
X25521991Y-18551222D01*
X25539543Y-18565627D01*
X25659186Y-18663814D01*
X25742448Y-18765271D01*
X25771778Y-18801009D01*
X25855443Y-18957534D01*
X25906963Y-19127373D01*
X25924359Y-19304000D01*
X25906963Y-19480627D01*
X25855443Y-19650466D01*
X25771778Y-19806991D01*
X25743245Y-19841758D01*
X25659186Y-19944186D01*
X25557729Y-20027448D01*
X25521991Y-20056778D01*
X25365466Y-20140443D01*
X25195627Y-20191963D01*
X25129443Y-20198481D01*
X25063260Y-20205000D01*
X24974740Y-20205000D01*
X24908557Y-20198481D01*
X24842373Y-20191963D01*
X24672534Y-20140443D01*
X24516009Y-20056778D01*
X24480271Y-20027448D01*
X24378814Y-19944186D01*
X24294755Y-19841758D01*
X24266222Y-19806991D01*
X24182557Y-19650466D01*
X24131037Y-19480627D01*
X24113641Y-19304000D01*
X24131037Y-19127373D01*
X24182557Y-18957534D01*
X24266222Y-18801009D01*
X24295552Y-18765271D01*
X24378814Y-18663814D01*
X24498457Y-18565627D01*
X24516009Y-18551222D01*
X24672534Y-18467557D01*
X24842373Y-18416037D01*
X24908557Y-18409519D01*
X24974740Y-18403000D01*
X25063260Y-18403000D01*
X25129443Y-18409519D01*
X25129443Y-18409519D01*
G37*
G36*
X22589443Y-18409519D02*
G01*
X22655627Y-18416037D01*
X22825466Y-18467557D01*
X22981991Y-18551222D01*
X22999543Y-18565627D01*
X23119186Y-18663814D01*
X23202448Y-18765271D01*
X23231778Y-18801009D01*
X23315443Y-18957534D01*
X23366963Y-19127373D01*
X23384359Y-19304000D01*
X23366963Y-19480627D01*
X23315443Y-19650466D01*
X23231778Y-19806991D01*
X23203245Y-19841758D01*
X23119186Y-19944186D01*
X23017729Y-20027448D01*
X22981991Y-20056778D01*
X22825466Y-20140443D01*
X22655627Y-20191963D01*
X22589443Y-20198481D01*
X22523260Y-20205000D01*
X22434740Y-20205000D01*
X22368557Y-20198481D01*
X22302373Y-20191963D01*
X22132534Y-20140443D01*
X21976009Y-20056778D01*
X21940271Y-20027448D01*
X21838814Y-19944186D01*
X21754755Y-19841758D01*
X21726222Y-19806991D01*
X21642557Y-19650466D01*
X21591037Y-19480627D01*
X21573641Y-19304000D01*
X21591037Y-19127373D01*
X21642557Y-18957534D01*
X21726222Y-18801009D01*
X21755552Y-18765271D01*
X21838814Y-18663814D01*
X21958457Y-18565627D01*
X21976009Y-18551222D01*
X22132534Y-18467557D01*
X22302373Y-18416037D01*
X22368557Y-18409519D01*
X22434740Y-18403000D01*
X22523260Y-18403000D01*
X22589443Y-18409519D01*
X22589443Y-18409519D01*
G37*
G36*
X20146674Y-18310465D02*
G01*
X20184367Y-18321899D01*
X20219103Y-18340466D01*
X20249548Y-18365452D01*
X20274534Y-18395897D01*
X20293101Y-18430633D01*
X20304535Y-18468326D01*
X20309000Y-18513661D01*
X20309000Y-19350339D01*
X20304535Y-19395674D01*
X20293101Y-19433367D01*
X20274534Y-19468103D01*
X20249548Y-19498548D01*
X20219103Y-19523534D01*
X20184367Y-19542101D01*
X20146674Y-19553535D01*
X20101339Y-19558000D01*
X19014661Y-19558000D01*
X18969326Y-19553535D01*
X18931633Y-19542101D01*
X18896897Y-19523534D01*
X18866452Y-19498548D01*
X18841466Y-19468103D01*
X18822899Y-19433367D01*
X18811465Y-19395674D01*
X18807000Y-19350339D01*
X18807000Y-18513661D01*
X18811465Y-18468326D01*
X18822899Y-18430633D01*
X18841466Y-18395897D01*
X18866452Y-18365452D01*
X18896897Y-18340466D01*
X18931633Y-18321899D01*
X18969326Y-18310465D01*
X19014661Y-18306000D01*
X20101339Y-18306000D01*
X20146674Y-18310465D01*
X20146674Y-18310465D01*
G37*
G36*
X39882474Y-17590265D02*
G01*
X39920167Y-17601699D01*
X39954903Y-17620266D01*
X39985348Y-17645252D01*
X40010334Y-17675697D01*
X40028901Y-17710433D01*
X40040335Y-17748126D01*
X40044800Y-17793461D01*
X40044800Y-18630139D01*
X40040335Y-18675474D01*
X40028901Y-18713167D01*
X40010334Y-18747903D01*
X39985348Y-18778348D01*
X39954903Y-18803334D01*
X39920167Y-18821901D01*
X39882474Y-18833335D01*
X39837139Y-18837800D01*
X38750461Y-18837800D01*
X38705126Y-18833335D01*
X38667433Y-18821901D01*
X38632697Y-18803334D01*
X38602252Y-18778348D01*
X38577266Y-18747903D01*
X38558699Y-18713167D01*
X38547265Y-18675474D01*
X38542800Y-18630139D01*
X38542800Y-17793461D01*
X38547265Y-17748126D01*
X38558699Y-17710433D01*
X38577266Y-17675697D01*
X38602252Y-17645252D01*
X38632697Y-17620266D01*
X38667433Y-17601699D01*
X38705126Y-17590265D01*
X38750461Y-17585800D01*
X39837139Y-17585800D01*
X39882474Y-17590265D01*
X39882474Y-17590265D01*
G37*
G36*
X34040474Y-17590265D02*
G01*
X34078167Y-17601699D01*
X34112903Y-17620266D01*
X34143348Y-17645252D01*
X34168334Y-17675697D01*
X34186901Y-17710433D01*
X34198335Y-17748126D01*
X34202800Y-17793461D01*
X34202800Y-18630139D01*
X34198335Y-18675474D01*
X34186901Y-18713167D01*
X34168334Y-18747903D01*
X34143348Y-18778348D01*
X34112903Y-18803334D01*
X34078167Y-18821901D01*
X34040474Y-18833335D01*
X33995139Y-18837800D01*
X32908461Y-18837800D01*
X32863126Y-18833335D01*
X32825433Y-18821901D01*
X32790697Y-18803334D01*
X32760252Y-18778348D01*
X32735266Y-18747903D01*
X32716699Y-18713167D01*
X32705265Y-18675474D01*
X32700800Y-18630139D01*
X32700800Y-17793461D01*
X32705265Y-17748126D01*
X32716699Y-17710433D01*
X32735266Y-17675697D01*
X32760252Y-17645252D01*
X32790697Y-17620266D01*
X32825433Y-17601699D01*
X32863126Y-17590265D01*
X32908461Y-17585800D01*
X33995139Y-17585800D01*
X34040474Y-17590265D01*
X34040474Y-17590265D01*
G37*
G36*
X37573800Y-18250800D02*
G01*
X36671800Y-18250800D01*
X36671800Y-16648800D01*
X37573800Y-16648800D01*
X37573800Y-18250800D01*
X37573800Y-18250800D01*
G37*
G36*
X36073800Y-18250800D02*
G01*
X35171800Y-18250800D01*
X35171800Y-16648800D01*
X36073800Y-16648800D01*
X36073800Y-18250800D01*
X36073800Y-18250800D01*
G37*
G36*
X28460000Y-17665000D02*
G01*
X26658000Y-17665000D01*
X26658000Y-15863000D01*
X28460000Y-15863000D01*
X28460000Y-17665000D01*
X28460000Y-17665000D01*
G37*
G36*
X25129443Y-15869519D02*
G01*
X25195627Y-15876037D01*
X25365466Y-15927557D01*
X25521991Y-16011222D01*
X25557729Y-16040552D01*
X25659186Y-16123814D01*
X25742448Y-16225271D01*
X25771778Y-16261009D01*
X25855443Y-16417534D01*
X25906963Y-16587373D01*
X25924359Y-16764000D01*
X25906963Y-16940627D01*
X25855443Y-17110466D01*
X25771778Y-17266991D01*
X25753777Y-17288925D01*
X25659186Y-17404186D01*
X25574684Y-17473534D01*
X25521991Y-17516778D01*
X25365466Y-17600443D01*
X25195627Y-17651963D01*
X25129442Y-17658482D01*
X25063260Y-17665000D01*
X24974740Y-17665000D01*
X24908558Y-17658482D01*
X24842373Y-17651963D01*
X24672534Y-17600443D01*
X24516009Y-17516778D01*
X24463316Y-17473534D01*
X24378814Y-17404186D01*
X24284223Y-17288925D01*
X24266222Y-17266991D01*
X24182557Y-17110466D01*
X24131037Y-16940627D01*
X24113641Y-16764000D01*
X24131037Y-16587373D01*
X24182557Y-16417534D01*
X24266222Y-16261009D01*
X24295552Y-16225271D01*
X24378814Y-16123814D01*
X24480271Y-16040552D01*
X24516009Y-16011222D01*
X24672534Y-15927557D01*
X24842373Y-15876037D01*
X24908557Y-15869519D01*
X24974740Y-15863000D01*
X25063260Y-15863000D01*
X25129443Y-15869519D01*
X25129443Y-15869519D01*
G37*
G36*
X22589443Y-15869519D02*
G01*
X22655627Y-15876037D01*
X22825466Y-15927557D01*
X22981991Y-16011222D01*
X23017729Y-16040552D01*
X23119186Y-16123814D01*
X23202448Y-16225271D01*
X23231778Y-16261009D01*
X23315443Y-16417534D01*
X23366963Y-16587373D01*
X23384359Y-16764000D01*
X23366963Y-16940627D01*
X23315443Y-17110466D01*
X23231778Y-17266991D01*
X23213777Y-17288925D01*
X23119186Y-17404186D01*
X23034684Y-17473534D01*
X22981991Y-17516778D01*
X22825466Y-17600443D01*
X22655627Y-17651963D01*
X22589442Y-17658482D01*
X22523260Y-17665000D01*
X22434740Y-17665000D01*
X22368558Y-17658482D01*
X22302373Y-17651963D01*
X22132534Y-17600443D01*
X21976009Y-17516778D01*
X21923316Y-17473534D01*
X21838814Y-17404186D01*
X21744223Y-17288925D01*
X21726222Y-17266991D01*
X21642557Y-17110466D01*
X21591037Y-16940627D01*
X21573641Y-16764000D01*
X21591037Y-16587373D01*
X21642557Y-16417534D01*
X21726222Y-16261009D01*
X21755552Y-16225271D01*
X21838814Y-16123814D01*
X21940271Y-16040552D01*
X21976009Y-16011222D01*
X22132534Y-15927557D01*
X22302373Y-15876037D01*
X22368557Y-15869519D01*
X22434740Y-15863000D01*
X22523260Y-15863000D01*
X22589443Y-15869519D01*
X22589443Y-15869519D01*
G37*
G36*
X20146674Y-16260465D02*
G01*
X20184367Y-16271899D01*
X20219103Y-16290466D01*
X20249548Y-16315452D01*
X20274534Y-16345897D01*
X20293101Y-16380633D01*
X20304535Y-16418326D01*
X20309000Y-16463661D01*
X20309000Y-17300339D01*
X20304535Y-17345674D01*
X20293101Y-17383367D01*
X20274534Y-17418103D01*
X20249548Y-17448548D01*
X20219103Y-17473534D01*
X20184367Y-17492101D01*
X20146674Y-17503535D01*
X20101339Y-17508000D01*
X19014661Y-17508000D01*
X18969326Y-17503535D01*
X18931633Y-17492101D01*
X18896897Y-17473534D01*
X18866452Y-17448548D01*
X18841466Y-17418103D01*
X18822899Y-17383367D01*
X18811465Y-17345674D01*
X18807000Y-17300339D01*
X18807000Y-16463661D01*
X18811465Y-16418326D01*
X18822899Y-16380633D01*
X18841466Y-16345897D01*
X18866452Y-16315452D01*
X18896897Y-16290466D01*
X18931633Y-16271899D01*
X18969326Y-16260465D01*
X19014661Y-16256000D01*
X20101339Y-16256000D01*
X20146674Y-16260465D01*
X20146674Y-16260465D01*
G37*
G36*
X34040474Y-15540265D02*
G01*
X34078167Y-15551699D01*
X34112903Y-15570266D01*
X34143348Y-15595252D01*
X34168334Y-15625697D01*
X34186901Y-15660433D01*
X34198335Y-15698126D01*
X34202800Y-15743461D01*
X34202800Y-16580139D01*
X34198335Y-16625474D01*
X34186901Y-16663167D01*
X34168334Y-16697903D01*
X34143348Y-16728348D01*
X34112903Y-16753334D01*
X34078167Y-16771901D01*
X34040474Y-16783335D01*
X33995139Y-16787800D01*
X32908461Y-16787800D01*
X32863126Y-16783335D01*
X32825433Y-16771901D01*
X32790697Y-16753334D01*
X32760252Y-16728348D01*
X32735266Y-16697903D01*
X32716699Y-16663167D01*
X32705265Y-16625474D01*
X32700800Y-16580139D01*
X32700800Y-15743461D01*
X32705265Y-15698126D01*
X32716699Y-15660433D01*
X32735266Y-15625697D01*
X32760252Y-15595252D01*
X32790697Y-15570266D01*
X32825433Y-15551699D01*
X32863126Y-15540265D01*
X32908461Y-15535800D01*
X33995139Y-15535800D01*
X34040474Y-15540265D01*
X34040474Y-15540265D01*
G37*
G36*
X39882474Y-15540265D02*
G01*
X39920167Y-15551699D01*
X39954903Y-15570266D01*
X39985348Y-15595252D01*
X40010334Y-15625697D01*
X40028901Y-15660433D01*
X40040335Y-15698126D01*
X40044800Y-15743461D01*
X40044800Y-16580139D01*
X40040335Y-16625474D01*
X40028901Y-16663167D01*
X40010334Y-16697903D01*
X39985348Y-16728348D01*
X39954903Y-16753334D01*
X39920167Y-16771901D01*
X39882474Y-16783335D01*
X39837139Y-16787800D01*
X38750461Y-16787800D01*
X38705126Y-16783335D01*
X38667433Y-16771901D01*
X38632697Y-16753334D01*
X38602252Y-16728348D01*
X38577266Y-16697903D01*
X38558699Y-16663167D01*
X38547265Y-16625474D01*
X38542800Y-16580139D01*
X38542800Y-15743461D01*
X38547265Y-15698126D01*
X38558699Y-15660433D01*
X38577266Y-15625697D01*
X38602252Y-15595252D01*
X38632697Y-15570266D01*
X38667433Y-15551699D01*
X38705126Y-15540265D01*
X38750461Y-15535800D01*
X39837139Y-15535800D01*
X39882474Y-15540265D01*
X39882474Y-15540265D01*
G37*
M02*
