G04 #@! TF.GenerationSoftware,KiCad,Pcbnew,(5.1.4)-1*
G04 #@! TF.CreationDate,2020-02-08T14:35:32-05:00*
G04 #@! TF.ProjectId,Psyduck,50737964-7563-46b2-9e6b-696361645f70,rev?*
G04 #@! TF.SameCoordinates,Original*
G04 #@! TF.FileFunction,Paste,Top*
G04 #@! TF.FilePolarity,Positive*
%FSLAX46Y46*%
G04 Gerber Fmt 4.6, Leading zero omitted, Abs format (unit mm)*
G04 Created by KiCad (PCBNEW (5.1.4)-1) date 2020-02-08 14:35:32*
%MOMM*%
%LPD*%
G04 APERTURE LIST*
%ADD10R,0.800000X1.500000*%
%ADD11R,0.550000X1.600000*%
%ADD12R,1.600000X0.550000*%
%ADD13C,0.100000*%
%ADD14C,1.425000*%
%ADD15C,1.150000*%
G04 APERTURE END LIST*
D10*
X37122800Y-17449800D03*
X35622800Y-17449800D03*
D11*
X37579000Y-29074000D03*
X36779000Y-29074000D03*
X35979000Y-29074000D03*
X35179000Y-29074000D03*
X34379000Y-29074000D03*
X33579000Y-29074000D03*
X32779000Y-29074000D03*
X31979000Y-29074000D03*
D12*
X30529000Y-27624000D03*
X30529000Y-26824000D03*
X30529000Y-26024000D03*
X30529000Y-25224000D03*
X30529000Y-24424000D03*
X30529000Y-23624000D03*
X30529000Y-22824000D03*
X30529000Y-22024000D03*
D11*
X31979000Y-20574000D03*
X32779000Y-20574000D03*
X33579000Y-20574000D03*
X34379000Y-20574000D03*
X35179000Y-20574000D03*
X35979000Y-20574000D03*
X36779000Y-20574000D03*
X37579000Y-20574000D03*
D12*
X39029000Y-22024000D03*
X39029000Y-22824000D03*
X39029000Y-23624000D03*
X39029000Y-24424000D03*
X39029000Y-25224000D03*
X39029000Y-26024000D03*
X39029000Y-26824000D03*
X39029000Y-27624000D03*
D13*
G36*
X39199504Y-33923204D02*
G01*
X39223773Y-33926804D01*
X39247571Y-33932765D01*
X39270671Y-33941030D01*
X39292849Y-33951520D01*
X39313893Y-33964133D01*
X39333598Y-33978747D01*
X39351777Y-33995223D01*
X39368253Y-34013402D01*
X39382867Y-34033107D01*
X39395480Y-34054151D01*
X39405970Y-34076329D01*
X39414235Y-34099429D01*
X39420196Y-34123227D01*
X39423796Y-34147496D01*
X39425000Y-34172000D01*
X39425000Y-35097000D01*
X39423796Y-35121504D01*
X39420196Y-35145773D01*
X39414235Y-35169571D01*
X39405970Y-35192671D01*
X39395480Y-35214849D01*
X39382867Y-35235893D01*
X39368253Y-35255598D01*
X39351777Y-35273777D01*
X39333598Y-35290253D01*
X39313893Y-35304867D01*
X39292849Y-35317480D01*
X39270671Y-35327970D01*
X39247571Y-35336235D01*
X39223773Y-35342196D01*
X39199504Y-35345796D01*
X39175000Y-35347000D01*
X37025000Y-35347000D01*
X37000496Y-35345796D01*
X36976227Y-35342196D01*
X36952429Y-35336235D01*
X36929329Y-35327970D01*
X36907151Y-35317480D01*
X36886107Y-35304867D01*
X36866402Y-35290253D01*
X36848223Y-35273777D01*
X36831747Y-35255598D01*
X36817133Y-35235893D01*
X36804520Y-35214849D01*
X36794030Y-35192671D01*
X36785765Y-35169571D01*
X36779804Y-35145773D01*
X36776204Y-35121504D01*
X36775000Y-35097000D01*
X36775000Y-34172000D01*
X36776204Y-34147496D01*
X36779804Y-34123227D01*
X36785765Y-34099429D01*
X36794030Y-34076329D01*
X36804520Y-34054151D01*
X36817133Y-34033107D01*
X36831747Y-34013402D01*
X36848223Y-33995223D01*
X36866402Y-33978747D01*
X36886107Y-33964133D01*
X36907151Y-33951520D01*
X36929329Y-33941030D01*
X36952429Y-33932765D01*
X36976227Y-33926804D01*
X37000496Y-33923204D01*
X37025000Y-33922000D01*
X39175000Y-33922000D01*
X39199504Y-33923204D01*
X39199504Y-33923204D01*
G37*
D14*
X38100000Y-34634500D03*
D13*
G36*
X39199504Y-30948204D02*
G01*
X39223773Y-30951804D01*
X39247571Y-30957765D01*
X39270671Y-30966030D01*
X39292849Y-30976520D01*
X39313893Y-30989133D01*
X39333598Y-31003747D01*
X39351777Y-31020223D01*
X39368253Y-31038402D01*
X39382867Y-31058107D01*
X39395480Y-31079151D01*
X39405970Y-31101329D01*
X39414235Y-31124429D01*
X39420196Y-31148227D01*
X39423796Y-31172496D01*
X39425000Y-31197000D01*
X39425000Y-32122000D01*
X39423796Y-32146504D01*
X39420196Y-32170773D01*
X39414235Y-32194571D01*
X39405970Y-32217671D01*
X39395480Y-32239849D01*
X39382867Y-32260893D01*
X39368253Y-32280598D01*
X39351777Y-32298777D01*
X39333598Y-32315253D01*
X39313893Y-32329867D01*
X39292849Y-32342480D01*
X39270671Y-32352970D01*
X39247571Y-32361235D01*
X39223773Y-32367196D01*
X39199504Y-32370796D01*
X39175000Y-32372000D01*
X37025000Y-32372000D01*
X37000496Y-32370796D01*
X36976227Y-32367196D01*
X36952429Y-32361235D01*
X36929329Y-32352970D01*
X36907151Y-32342480D01*
X36886107Y-32329867D01*
X36866402Y-32315253D01*
X36848223Y-32298777D01*
X36831747Y-32280598D01*
X36817133Y-32260893D01*
X36804520Y-32239849D01*
X36794030Y-32217671D01*
X36785765Y-32194571D01*
X36779804Y-32170773D01*
X36776204Y-32146504D01*
X36775000Y-32122000D01*
X36775000Y-31197000D01*
X36776204Y-31172496D01*
X36779804Y-31148227D01*
X36785765Y-31124429D01*
X36794030Y-31101329D01*
X36804520Y-31079151D01*
X36817133Y-31058107D01*
X36831747Y-31038402D01*
X36848223Y-31020223D01*
X36866402Y-31003747D01*
X36886107Y-30989133D01*
X36907151Y-30976520D01*
X36929329Y-30966030D01*
X36952429Y-30957765D01*
X36976227Y-30951804D01*
X37000496Y-30948204D01*
X37025000Y-30947000D01*
X39175000Y-30947000D01*
X39199504Y-30948204D01*
X39199504Y-30948204D01*
G37*
D14*
X38100000Y-31659500D03*
D13*
G36*
X27592004Y-32077204D02*
G01*
X27616273Y-32080804D01*
X27640071Y-32086765D01*
X27663171Y-32095030D01*
X27685349Y-32105520D01*
X27706393Y-32118133D01*
X27726098Y-32132747D01*
X27744277Y-32149223D01*
X27760753Y-32167402D01*
X27775367Y-32187107D01*
X27787980Y-32208151D01*
X27798470Y-32230329D01*
X27806735Y-32253429D01*
X27812696Y-32277227D01*
X27816296Y-32301496D01*
X27817500Y-32326000D01*
X27817500Y-34476000D01*
X27816296Y-34500504D01*
X27812696Y-34524773D01*
X27806735Y-34548571D01*
X27798470Y-34571671D01*
X27787980Y-34593849D01*
X27775367Y-34614893D01*
X27760753Y-34634598D01*
X27744277Y-34652777D01*
X27726098Y-34669253D01*
X27706393Y-34683867D01*
X27685349Y-34696480D01*
X27663171Y-34706970D01*
X27640071Y-34715235D01*
X27616273Y-34721196D01*
X27592004Y-34724796D01*
X27567500Y-34726000D01*
X26642500Y-34726000D01*
X26617996Y-34724796D01*
X26593727Y-34721196D01*
X26569929Y-34715235D01*
X26546829Y-34706970D01*
X26524651Y-34696480D01*
X26503607Y-34683867D01*
X26483902Y-34669253D01*
X26465723Y-34652777D01*
X26449247Y-34634598D01*
X26434633Y-34614893D01*
X26422020Y-34593849D01*
X26411530Y-34571671D01*
X26403265Y-34548571D01*
X26397304Y-34524773D01*
X26393704Y-34500504D01*
X26392500Y-34476000D01*
X26392500Y-32326000D01*
X26393704Y-32301496D01*
X26397304Y-32277227D01*
X26403265Y-32253429D01*
X26411530Y-32230329D01*
X26422020Y-32208151D01*
X26434633Y-32187107D01*
X26449247Y-32167402D01*
X26465723Y-32149223D01*
X26483902Y-32132747D01*
X26503607Y-32118133D01*
X26524651Y-32105520D01*
X26546829Y-32095030D01*
X26569929Y-32086765D01*
X26593727Y-32080804D01*
X26617996Y-32077204D01*
X26642500Y-32076000D01*
X27567500Y-32076000D01*
X27592004Y-32077204D01*
X27592004Y-32077204D01*
G37*
D14*
X27105000Y-33401000D03*
D13*
G36*
X24617004Y-32077204D02*
G01*
X24641273Y-32080804D01*
X24665071Y-32086765D01*
X24688171Y-32095030D01*
X24710349Y-32105520D01*
X24731393Y-32118133D01*
X24751098Y-32132747D01*
X24769277Y-32149223D01*
X24785753Y-32167402D01*
X24800367Y-32187107D01*
X24812980Y-32208151D01*
X24823470Y-32230329D01*
X24831735Y-32253429D01*
X24837696Y-32277227D01*
X24841296Y-32301496D01*
X24842500Y-32326000D01*
X24842500Y-34476000D01*
X24841296Y-34500504D01*
X24837696Y-34524773D01*
X24831735Y-34548571D01*
X24823470Y-34571671D01*
X24812980Y-34593849D01*
X24800367Y-34614893D01*
X24785753Y-34634598D01*
X24769277Y-34652777D01*
X24751098Y-34669253D01*
X24731393Y-34683867D01*
X24710349Y-34696480D01*
X24688171Y-34706970D01*
X24665071Y-34715235D01*
X24641273Y-34721196D01*
X24617004Y-34724796D01*
X24592500Y-34726000D01*
X23667500Y-34726000D01*
X23642996Y-34724796D01*
X23618727Y-34721196D01*
X23594929Y-34715235D01*
X23571829Y-34706970D01*
X23549651Y-34696480D01*
X23528607Y-34683867D01*
X23508902Y-34669253D01*
X23490723Y-34652777D01*
X23474247Y-34634598D01*
X23459633Y-34614893D01*
X23447020Y-34593849D01*
X23436530Y-34571671D01*
X23428265Y-34548571D01*
X23422304Y-34524773D01*
X23418704Y-34500504D01*
X23417500Y-34476000D01*
X23417500Y-32326000D01*
X23418704Y-32301496D01*
X23422304Y-32277227D01*
X23428265Y-32253429D01*
X23436530Y-32230329D01*
X23447020Y-32208151D01*
X23459633Y-32187107D01*
X23474247Y-32167402D01*
X23490723Y-32149223D01*
X23508902Y-32132747D01*
X23528607Y-32118133D01*
X23549651Y-32105520D01*
X23571829Y-32095030D01*
X23594929Y-32086765D01*
X23618727Y-32080804D01*
X23642996Y-32077204D01*
X23667500Y-32076000D01*
X24592500Y-32076000D01*
X24617004Y-32077204D01*
X24617004Y-32077204D01*
G37*
D14*
X24130000Y-33401000D03*
D13*
G36*
X32988505Y-30924204D02*
G01*
X33012773Y-30927804D01*
X33036572Y-30933765D01*
X33059671Y-30942030D01*
X33081850Y-30952520D01*
X33102893Y-30965132D01*
X33122599Y-30979747D01*
X33140777Y-30996223D01*
X33157253Y-31014401D01*
X33171868Y-31034107D01*
X33184480Y-31055150D01*
X33194970Y-31077329D01*
X33203235Y-31100428D01*
X33209196Y-31124227D01*
X33212796Y-31148495D01*
X33214000Y-31172999D01*
X33214000Y-32073001D01*
X33212796Y-32097505D01*
X33209196Y-32121773D01*
X33203235Y-32145572D01*
X33194970Y-32168671D01*
X33184480Y-32190850D01*
X33171868Y-32211893D01*
X33157253Y-32231599D01*
X33140777Y-32249777D01*
X33122599Y-32266253D01*
X33102893Y-32280868D01*
X33081850Y-32293480D01*
X33059671Y-32303970D01*
X33036572Y-32312235D01*
X33012773Y-32318196D01*
X32988505Y-32321796D01*
X32964001Y-32323000D01*
X32313999Y-32323000D01*
X32289495Y-32321796D01*
X32265227Y-32318196D01*
X32241428Y-32312235D01*
X32218329Y-32303970D01*
X32196150Y-32293480D01*
X32175107Y-32280868D01*
X32155401Y-32266253D01*
X32137223Y-32249777D01*
X32120747Y-32231599D01*
X32106132Y-32211893D01*
X32093520Y-32190850D01*
X32083030Y-32168671D01*
X32074765Y-32145572D01*
X32068804Y-32121773D01*
X32065204Y-32097505D01*
X32064000Y-32073001D01*
X32064000Y-31172999D01*
X32065204Y-31148495D01*
X32068804Y-31124227D01*
X32074765Y-31100428D01*
X32083030Y-31077329D01*
X32093520Y-31055150D01*
X32106132Y-31034107D01*
X32120747Y-31014401D01*
X32137223Y-30996223D01*
X32155401Y-30979747D01*
X32175107Y-30965132D01*
X32196150Y-30952520D01*
X32218329Y-30942030D01*
X32241428Y-30933765D01*
X32265227Y-30927804D01*
X32289495Y-30924204D01*
X32313999Y-30923000D01*
X32964001Y-30923000D01*
X32988505Y-30924204D01*
X32988505Y-30924204D01*
G37*
D15*
X32639000Y-31623000D03*
D13*
G36*
X35038505Y-30924204D02*
G01*
X35062773Y-30927804D01*
X35086572Y-30933765D01*
X35109671Y-30942030D01*
X35131850Y-30952520D01*
X35152893Y-30965132D01*
X35172599Y-30979747D01*
X35190777Y-30996223D01*
X35207253Y-31014401D01*
X35221868Y-31034107D01*
X35234480Y-31055150D01*
X35244970Y-31077329D01*
X35253235Y-31100428D01*
X35259196Y-31124227D01*
X35262796Y-31148495D01*
X35264000Y-31172999D01*
X35264000Y-32073001D01*
X35262796Y-32097505D01*
X35259196Y-32121773D01*
X35253235Y-32145572D01*
X35244970Y-32168671D01*
X35234480Y-32190850D01*
X35221868Y-32211893D01*
X35207253Y-32231599D01*
X35190777Y-32249777D01*
X35172599Y-32266253D01*
X35152893Y-32280868D01*
X35131850Y-32293480D01*
X35109671Y-32303970D01*
X35086572Y-32312235D01*
X35062773Y-32318196D01*
X35038505Y-32321796D01*
X35014001Y-32323000D01*
X34363999Y-32323000D01*
X34339495Y-32321796D01*
X34315227Y-32318196D01*
X34291428Y-32312235D01*
X34268329Y-32303970D01*
X34246150Y-32293480D01*
X34225107Y-32280868D01*
X34205401Y-32266253D01*
X34187223Y-32249777D01*
X34170747Y-32231599D01*
X34156132Y-32211893D01*
X34143520Y-32190850D01*
X34133030Y-32168671D01*
X34124765Y-32145572D01*
X34118804Y-32121773D01*
X34115204Y-32097505D01*
X34114000Y-32073001D01*
X34114000Y-31172999D01*
X34115204Y-31148495D01*
X34118804Y-31124227D01*
X34124765Y-31100428D01*
X34133030Y-31077329D01*
X34143520Y-31055150D01*
X34156132Y-31034107D01*
X34170747Y-31014401D01*
X34187223Y-30996223D01*
X34205401Y-30979747D01*
X34225107Y-30965132D01*
X34246150Y-30952520D01*
X34268329Y-30942030D01*
X34291428Y-30933765D01*
X34315227Y-30927804D01*
X34339495Y-30924204D01*
X34363999Y-30923000D01*
X35014001Y-30923000D01*
X35038505Y-30924204D01*
X35038505Y-30924204D01*
G37*
D15*
X34689000Y-31623000D03*
D13*
G36*
X42003505Y-26740204D02*
G01*
X42027773Y-26743804D01*
X42051572Y-26749765D01*
X42074671Y-26758030D01*
X42096850Y-26768520D01*
X42117893Y-26781132D01*
X42137599Y-26795747D01*
X42155777Y-26812223D01*
X42172253Y-26830401D01*
X42186868Y-26850107D01*
X42199480Y-26871150D01*
X42209970Y-26893329D01*
X42218235Y-26916428D01*
X42224196Y-26940227D01*
X42227796Y-26964495D01*
X42229000Y-26988999D01*
X42229000Y-27639001D01*
X42227796Y-27663505D01*
X42224196Y-27687773D01*
X42218235Y-27711572D01*
X42209970Y-27734671D01*
X42199480Y-27756850D01*
X42186868Y-27777893D01*
X42172253Y-27797599D01*
X42155777Y-27815777D01*
X42137599Y-27832253D01*
X42117893Y-27846868D01*
X42096850Y-27859480D01*
X42074671Y-27869970D01*
X42051572Y-27878235D01*
X42027773Y-27884196D01*
X42003505Y-27887796D01*
X41979001Y-27889000D01*
X41078999Y-27889000D01*
X41054495Y-27887796D01*
X41030227Y-27884196D01*
X41006428Y-27878235D01*
X40983329Y-27869970D01*
X40961150Y-27859480D01*
X40940107Y-27846868D01*
X40920401Y-27832253D01*
X40902223Y-27815777D01*
X40885747Y-27797599D01*
X40871132Y-27777893D01*
X40858520Y-27756850D01*
X40848030Y-27734671D01*
X40839765Y-27711572D01*
X40833804Y-27687773D01*
X40830204Y-27663505D01*
X40829000Y-27639001D01*
X40829000Y-26988999D01*
X40830204Y-26964495D01*
X40833804Y-26940227D01*
X40839765Y-26916428D01*
X40848030Y-26893329D01*
X40858520Y-26871150D01*
X40871132Y-26850107D01*
X40885747Y-26830401D01*
X40902223Y-26812223D01*
X40920401Y-26795747D01*
X40940107Y-26781132D01*
X40961150Y-26768520D01*
X40983329Y-26758030D01*
X41006428Y-26749765D01*
X41030227Y-26743804D01*
X41054495Y-26740204D01*
X41078999Y-26739000D01*
X41979001Y-26739000D01*
X42003505Y-26740204D01*
X42003505Y-26740204D01*
G37*
D15*
X41529000Y-27314000D03*
D13*
G36*
X42003505Y-24690204D02*
G01*
X42027773Y-24693804D01*
X42051572Y-24699765D01*
X42074671Y-24708030D01*
X42096850Y-24718520D01*
X42117893Y-24731132D01*
X42137599Y-24745747D01*
X42155777Y-24762223D01*
X42172253Y-24780401D01*
X42186868Y-24800107D01*
X42199480Y-24821150D01*
X42209970Y-24843329D01*
X42218235Y-24866428D01*
X42224196Y-24890227D01*
X42227796Y-24914495D01*
X42229000Y-24938999D01*
X42229000Y-25589001D01*
X42227796Y-25613505D01*
X42224196Y-25637773D01*
X42218235Y-25661572D01*
X42209970Y-25684671D01*
X42199480Y-25706850D01*
X42186868Y-25727893D01*
X42172253Y-25747599D01*
X42155777Y-25765777D01*
X42137599Y-25782253D01*
X42117893Y-25796868D01*
X42096850Y-25809480D01*
X42074671Y-25819970D01*
X42051572Y-25828235D01*
X42027773Y-25834196D01*
X42003505Y-25837796D01*
X41979001Y-25839000D01*
X41078999Y-25839000D01*
X41054495Y-25837796D01*
X41030227Y-25834196D01*
X41006428Y-25828235D01*
X40983329Y-25819970D01*
X40961150Y-25809480D01*
X40940107Y-25796868D01*
X40920401Y-25782253D01*
X40902223Y-25765777D01*
X40885747Y-25747599D01*
X40871132Y-25727893D01*
X40858520Y-25706850D01*
X40848030Y-25684671D01*
X40839765Y-25661572D01*
X40833804Y-25637773D01*
X40830204Y-25613505D01*
X40829000Y-25589001D01*
X40829000Y-24938999D01*
X40830204Y-24914495D01*
X40833804Y-24890227D01*
X40839765Y-24866428D01*
X40848030Y-24843329D01*
X40858520Y-24821150D01*
X40871132Y-24800107D01*
X40885747Y-24780401D01*
X40902223Y-24762223D01*
X40920401Y-24745747D01*
X40940107Y-24731132D01*
X40961150Y-24718520D01*
X40983329Y-24708030D01*
X41006428Y-24699765D01*
X41030227Y-24693804D01*
X41054495Y-24690204D01*
X41078999Y-24689000D01*
X41979001Y-24689000D01*
X42003505Y-24690204D01*
X42003505Y-24690204D01*
G37*
D15*
X41529000Y-25264000D03*
D13*
G36*
X28414505Y-25606204D02*
G01*
X28438773Y-25609804D01*
X28462572Y-25615765D01*
X28485671Y-25624030D01*
X28507850Y-25634520D01*
X28528893Y-25647132D01*
X28548599Y-25661747D01*
X28566777Y-25678223D01*
X28583253Y-25696401D01*
X28597868Y-25716107D01*
X28610480Y-25737150D01*
X28620970Y-25759329D01*
X28629235Y-25782428D01*
X28635196Y-25806227D01*
X28638796Y-25830495D01*
X28640000Y-25854999D01*
X28640000Y-26505001D01*
X28638796Y-26529505D01*
X28635196Y-26553773D01*
X28629235Y-26577572D01*
X28620970Y-26600671D01*
X28610480Y-26622850D01*
X28597868Y-26643893D01*
X28583253Y-26663599D01*
X28566777Y-26681777D01*
X28548599Y-26698253D01*
X28528893Y-26712868D01*
X28507850Y-26725480D01*
X28485671Y-26735970D01*
X28462572Y-26744235D01*
X28438773Y-26750196D01*
X28414505Y-26753796D01*
X28390001Y-26755000D01*
X27489999Y-26755000D01*
X27465495Y-26753796D01*
X27441227Y-26750196D01*
X27417428Y-26744235D01*
X27394329Y-26735970D01*
X27372150Y-26725480D01*
X27351107Y-26712868D01*
X27331401Y-26698253D01*
X27313223Y-26681777D01*
X27296747Y-26663599D01*
X27282132Y-26643893D01*
X27269520Y-26622850D01*
X27259030Y-26600671D01*
X27250765Y-26577572D01*
X27244804Y-26553773D01*
X27241204Y-26529505D01*
X27240000Y-26505001D01*
X27240000Y-25854999D01*
X27241204Y-25830495D01*
X27244804Y-25806227D01*
X27250765Y-25782428D01*
X27259030Y-25759329D01*
X27269520Y-25737150D01*
X27282132Y-25716107D01*
X27296747Y-25696401D01*
X27313223Y-25678223D01*
X27331401Y-25661747D01*
X27351107Y-25647132D01*
X27372150Y-25634520D01*
X27394329Y-25624030D01*
X27417428Y-25615765D01*
X27441227Y-25609804D01*
X27465495Y-25606204D01*
X27489999Y-25605000D01*
X28390001Y-25605000D01*
X28414505Y-25606204D01*
X28414505Y-25606204D01*
G37*
D15*
X27940000Y-26180000D03*
D13*
G36*
X28414505Y-23556204D02*
G01*
X28438773Y-23559804D01*
X28462572Y-23565765D01*
X28485671Y-23574030D01*
X28507850Y-23584520D01*
X28528893Y-23597132D01*
X28548599Y-23611747D01*
X28566777Y-23628223D01*
X28583253Y-23646401D01*
X28597868Y-23666107D01*
X28610480Y-23687150D01*
X28620970Y-23709329D01*
X28629235Y-23732428D01*
X28635196Y-23756227D01*
X28638796Y-23780495D01*
X28640000Y-23804999D01*
X28640000Y-24455001D01*
X28638796Y-24479505D01*
X28635196Y-24503773D01*
X28629235Y-24527572D01*
X28620970Y-24550671D01*
X28610480Y-24572850D01*
X28597868Y-24593893D01*
X28583253Y-24613599D01*
X28566777Y-24631777D01*
X28548599Y-24648253D01*
X28528893Y-24662868D01*
X28507850Y-24675480D01*
X28485671Y-24685970D01*
X28462572Y-24694235D01*
X28438773Y-24700196D01*
X28414505Y-24703796D01*
X28390001Y-24705000D01*
X27489999Y-24705000D01*
X27465495Y-24703796D01*
X27441227Y-24700196D01*
X27417428Y-24694235D01*
X27394329Y-24685970D01*
X27372150Y-24675480D01*
X27351107Y-24662868D01*
X27331401Y-24648253D01*
X27313223Y-24631777D01*
X27296747Y-24613599D01*
X27282132Y-24593893D01*
X27269520Y-24572850D01*
X27259030Y-24550671D01*
X27250765Y-24527572D01*
X27244804Y-24503773D01*
X27241204Y-24479505D01*
X27240000Y-24455001D01*
X27240000Y-23804999D01*
X27241204Y-23780495D01*
X27244804Y-23756227D01*
X27250765Y-23732428D01*
X27259030Y-23709329D01*
X27269520Y-23687150D01*
X27282132Y-23666107D01*
X27296747Y-23646401D01*
X27313223Y-23628223D01*
X27331401Y-23611747D01*
X27351107Y-23597132D01*
X27372150Y-23584520D01*
X27394329Y-23574030D01*
X27417428Y-23565765D01*
X27441227Y-23559804D01*
X27465495Y-23556204D01*
X27489999Y-23555000D01*
X28390001Y-23555000D01*
X28414505Y-23556204D01*
X28414505Y-23556204D01*
G37*
D15*
X27940000Y-24130000D03*
D13*
G36*
X20032505Y-18358204D02*
G01*
X20056773Y-18361804D01*
X20080572Y-18367765D01*
X20103671Y-18376030D01*
X20125850Y-18386520D01*
X20146893Y-18399132D01*
X20166599Y-18413747D01*
X20184777Y-18430223D01*
X20201253Y-18448401D01*
X20215868Y-18468107D01*
X20228480Y-18489150D01*
X20238970Y-18511329D01*
X20247235Y-18534428D01*
X20253196Y-18558227D01*
X20256796Y-18582495D01*
X20258000Y-18606999D01*
X20258000Y-19257001D01*
X20256796Y-19281505D01*
X20253196Y-19305773D01*
X20247235Y-19329572D01*
X20238970Y-19352671D01*
X20228480Y-19374850D01*
X20215868Y-19395893D01*
X20201253Y-19415599D01*
X20184777Y-19433777D01*
X20166599Y-19450253D01*
X20146893Y-19464868D01*
X20125850Y-19477480D01*
X20103671Y-19487970D01*
X20080572Y-19496235D01*
X20056773Y-19502196D01*
X20032505Y-19505796D01*
X20008001Y-19507000D01*
X19107999Y-19507000D01*
X19083495Y-19505796D01*
X19059227Y-19502196D01*
X19035428Y-19496235D01*
X19012329Y-19487970D01*
X18990150Y-19477480D01*
X18969107Y-19464868D01*
X18949401Y-19450253D01*
X18931223Y-19433777D01*
X18914747Y-19415599D01*
X18900132Y-19395893D01*
X18887520Y-19374850D01*
X18877030Y-19352671D01*
X18868765Y-19329572D01*
X18862804Y-19305773D01*
X18859204Y-19281505D01*
X18858000Y-19257001D01*
X18858000Y-18606999D01*
X18859204Y-18582495D01*
X18862804Y-18558227D01*
X18868765Y-18534428D01*
X18877030Y-18511329D01*
X18887520Y-18489150D01*
X18900132Y-18468107D01*
X18914747Y-18448401D01*
X18931223Y-18430223D01*
X18949401Y-18413747D01*
X18969107Y-18399132D01*
X18990150Y-18386520D01*
X19012329Y-18376030D01*
X19035428Y-18367765D01*
X19059227Y-18361804D01*
X19083495Y-18358204D01*
X19107999Y-18357000D01*
X20008001Y-18357000D01*
X20032505Y-18358204D01*
X20032505Y-18358204D01*
G37*
D15*
X19558000Y-18932000D03*
D13*
G36*
X20032505Y-16308204D02*
G01*
X20056773Y-16311804D01*
X20080572Y-16317765D01*
X20103671Y-16326030D01*
X20125850Y-16336520D01*
X20146893Y-16349132D01*
X20166599Y-16363747D01*
X20184777Y-16380223D01*
X20201253Y-16398401D01*
X20215868Y-16418107D01*
X20228480Y-16439150D01*
X20238970Y-16461329D01*
X20247235Y-16484428D01*
X20253196Y-16508227D01*
X20256796Y-16532495D01*
X20258000Y-16556999D01*
X20258000Y-17207001D01*
X20256796Y-17231505D01*
X20253196Y-17255773D01*
X20247235Y-17279572D01*
X20238970Y-17302671D01*
X20228480Y-17324850D01*
X20215868Y-17345893D01*
X20201253Y-17365599D01*
X20184777Y-17383777D01*
X20166599Y-17400253D01*
X20146893Y-17414868D01*
X20125850Y-17427480D01*
X20103671Y-17437970D01*
X20080572Y-17446235D01*
X20056773Y-17452196D01*
X20032505Y-17455796D01*
X20008001Y-17457000D01*
X19107999Y-17457000D01*
X19083495Y-17455796D01*
X19059227Y-17452196D01*
X19035428Y-17446235D01*
X19012329Y-17437970D01*
X18990150Y-17427480D01*
X18969107Y-17414868D01*
X18949401Y-17400253D01*
X18931223Y-17383777D01*
X18914747Y-17365599D01*
X18900132Y-17345893D01*
X18887520Y-17324850D01*
X18877030Y-17302671D01*
X18868765Y-17279572D01*
X18862804Y-17255773D01*
X18859204Y-17231505D01*
X18858000Y-17207001D01*
X18858000Y-16556999D01*
X18859204Y-16532495D01*
X18862804Y-16508227D01*
X18868765Y-16484428D01*
X18877030Y-16461329D01*
X18887520Y-16439150D01*
X18900132Y-16418107D01*
X18914747Y-16398401D01*
X18931223Y-16380223D01*
X18949401Y-16363747D01*
X18969107Y-16349132D01*
X18990150Y-16336520D01*
X19012329Y-16326030D01*
X19035428Y-16317765D01*
X19059227Y-16311804D01*
X19083495Y-16308204D01*
X19107999Y-16307000D01*
X20008001Y-16307000D01*
X20032505Y-16308204D01*
X20032505Y-16308204D01*
G37*
D15*
X19558000Y-16882000D03*
D13*
G36*
X33926305Y-15588004D02*
G01*
X33950573Y-15591604D01*
X33974372Y-15597565D01*
X33997471Y-15605830D01*
X34019650Y-15616320D01*
X34040693Y-15628932D01*
X34060399Y-15643547D01*
X34078577Y-15660023D01*
X34095053Y-15678201D01*
X34109668Y-15697907D01*
X34122280Y-15718950D01*
X34132770Y-15741129D01*
X34141035Y-15764228D01*
X34146996Y-15788027D01*
X34150596Y-15812295D01*
X34151800Y-15836799D01*
X34151800Y-16486801D01*
X34150596Y-16511305D01*
X34146996Y-16535573D01*
X34141035Y-16559372D01*
X34132770Y-16582471D01*
X34122280Y-16604650D01*
X34109668Y-16625693D01*
X34095053Y-16645399D01*
X34078577Y-16663577D01*
X34060399Y-16680053D01*
X34040693Y-16694668D01*
X34019650Y-16707280D01*
X33997471Y-16717770D01*
X33974372Y-16726035D01*
X33950573Y-16731996D01*
X33926305Y-16735596D01*
X33901801Y-16736800D01*
X33001799Y-16736800D01*
X32977295Y-16735596D01*
X32953027Y-16731996D01*
X32929228Y-16726035D01*
X32906129Y-16717770D01*
X32883950Y-16707280D01*
X32862907Y-16694668D01*
X32843201Y-16680053D01*
X32825023Y-16663577D01*
X32808547Y-16645399D01*
X32793932Y-16625693D01*
X32781320Y-16604650D01*
X32770830Y-16582471D01*
X32762565Y-16559372D01*
X32756604Y-16535573D01*
X32753004Y-16511305D01*
X32751800Y-16486801D01*
X32751800Y-15836799D01*
X32753004Y-15812295D01*
X32756604Y-15788027D01*
X32762565Y-15764228D01*
X32770830Y-15741129D01*
X32781320Y-15718950D01*
X32793932Y-15697907D01*
X32808547Y-15678201D01*
X32825023Y-15660023D01*
X32843201Y-15643547D01*
X32862907Y-15628932D01*
X32883950Y-15616320D01*
X32906129Y-15605830D01*
X32929228Y-15597565D01*
X32953027Y-15591604D01*
X32977295Y-15588004D01*
X33001799Y-15586800D01*
X33901801Y-15586800D01*
X33926305Y-15588004D01*
X33926305Y-15588004D01*
G37*
D15*
X33451800Y-16161800D03*
D13*
G36*
X33926305Y-17638004D02*
G01*
X33950573Y-17641604D01*
X33974372Y-17647565D01*
X33997471Y-17655830D01*
X34019650Y-17666320D01*
X34040693Y-17678932D01*
X34060399Y-17693547D01*
X34078577Y-17710023D01*
X34095053Y-17728201D01*
X34109668Y-17747907D01*
X34122280Y-17768950D01*
X34132770Y-17791129D01*
X34141035Y-17814228D01*
X34146996Y-17838027D01*
X34150596Y-17862295D01*
X34151800Y-17886799D01*
X34151800Y-18536801D01*
X34150596Y-18561305D01*
X34146996Y-18585573D01*
X34141035Y-18609372D01*
X34132770Y-18632471D01*
X34122280Y-18654650D01*
X34109668Y-18675693D01*
X34095053Y-18695399D01*
X34078577Y-18713577D01*
X34060399Y-18730053D01*
X34040693Y-18744668D01*
X34019650Y-18757280D01*
X33997471Y-18767770D01*
X33974372Y-18776035D01*
X33950573Y-18781996D01*
X33926305Y-18785596D01*
X33901801Y-18786800D01*
X33001799Y-18786800D01*
X32977295Y-18785596D01*
X32953027Y-18781996D01*
X32929228Y-18776035D01*
X32906129Y-18767770D01*
X32883950Y-18757280D01*
X32862907Y-18744668D01*
X32843201Y-18730053D01*
X32825023Y-18713577D01*
X32808547Y-18695399D01*
X32793932Y-18675693D01*
X32781320Y-18654650D01*
X32770830Y-18632471D01*
X32762565Y-18609372D01*
X32756604Y-18585573D01*
X32753004Y-18561305D01*
X32751800Y-18536801D01*
X32751800Y-17886799D01*
X32753004Y-17862295D01*
X32756604Y-17838027D01*
X32762565Y-17814228D01*
X32770830Y-17791129D01*
X32781320Y-17768950D01*
X32793932Y-17747907D01*
X32808547Y-17728201D01*
X32825023Y-17710023D01*
X32843201Y-17693547D01*
X32862907Y-17678932D01*
X32883950Y-17666320D01*
X32906129Y-17655830D01*
X32929228Y-17647565D01*
X32953027Y-17641604D01*
X32977295Y-17638004D01*
X33001799Y-17636800D01*
X33901801Y-17636800D01*
X33926305Y-17638004D01*
X33926305Y-17638004D01*
G37*
D15*
X33451800Y-18211800D03*
D13*
G36*
X39768305Y-15588004D02*
G01*
X39792573Y-15591604D01*
X39816372Y-15597565D01*
X39839471Y-15605830D01*
X39861650Y-15616320D01*
X39882693Y-15628932D01*
X39902399Y-15643547D01*
X39920577Y-15660023D01*
X39937053Y-15678201D01*
X39951668Y-15697907D01*
X39964280Y-15718950D01*
X39974770Y-15741129D01*
X39983035Y-15764228D01*
X39988996Y-15788027D01*
X39992596Y-15812295D01*
X39993800Y-15836799D01*
X39993800Y-16486801D01*
X39992596Y-16511305D01*
X39988996Y-16535573D01*
X39983035Y-16559372D01*
X39974770Y-16582471D01*
X39964280Y-16604650D01*
X39951668Y-16625693D01*
X39937053Y-16645399D01*
X39920577Y-16663577D01*
X39902399Y-16680053D01*
X39882693Y-16694668D01*
X39861650Y-16707280D01*
X39839471Y-16717770D01*
X39816372Y-16726035D01*
X39792573Y-16731996D01*
X39768305Y-16735596D01*
X39743801Y-16736800D01*
X38843799Y-16736800D01*
X38819295Y-16735596D01*
X38795027Y-16731996D01*
X38771228Y-16726035D01*
X38748129Y-16717770D01*
X38725950Y-16707280D01*
X38704907Y-16694668D01*
X38685201Y-16680053D01*
X38667023Y-16663577D01*
X38650547Y-16645399D01*
X38635932Y-16625693D01*
X38623320Y-16604650D01*
X38612830Y-16582471D01*
X38604565Y-16559372D01*
X38598604Y-16535573D01*
X38595004Y-16511305D01*
X38593800Y-16486801D01*
X38593800Y-15836799D01*
X38595004Y-15812295D01*
X38598604Y-15788027D01*
X38604565Y-15764228D01*
X38612830Y-15741129D01*
X38623320Y-15718950D01*
X38635932Y-15697907D01*
X38650547Y-15678201D01*
X38667023Y-15660023D01*
X38685201Y-15643547D01*
X38704907Y-15628932D01*
X38725950Y-15616320D01*
X38748129Y-15605830D01*
X38771228Y-15597565D01*
X38795027Y-15591604D01*
X38819295Y-15588004D01*
X38843799Y-15586800D01*
X39743801Y-15586800D01*
X39768305Y-15588004D01*
X39768305Y-15588004D01*
G37*
D15*
X39293800Y-16161800D03*
D13*
G36*
X39768305Y-17638004D02*
G01*
X39792573Y-17641604D01*
X39816372Y-17647565D01*
X39839471Y-17655830D01*
X39861650Y-17666320D01*
X39882693Y-17678932D01*
X39902399Y-17693547D01*
X39920577Y-17710023D01*
X39937053Y-17728201D01*
X39951668Y-17747907D01*
X39964280Y-17768950D01*
X39974770Y-17791129D01*
X39983035Y-17814228D01*
X39988996Y-17838027D01*
X39992596Y-17862295D01*
X39993800Y-17886799D01*
X39993800Y-18536801D01*
X39992596Y-18561305D01*
X39988996Y-18585573D01*
X39983035Y-18609372D01*
X39974770Y-18632471D01*
X39964280Y-18654650D01*
X39951668Y-18675693D01*
X39937053Y-18695399D01*
X39920577Y-18713577D01*
X39902399Y-18730053D01*
X39882693Y-18744668D01*
X39861650Y-18757280D01*
X39839471Y-18767770D01*
X39816372Y-18776035D01*
X39792573Y-18781996D01*
X39768305Y-18785596D01*
X39743801Y-18786800D01*
X38843799Y-18786800D01*
X38819295Y-18785596D01*
X38795027Y-18781996D01*
X38771228Y-18776035D01*
X38748129Y-18767770D01*
X38725950Y-18757280D01*
X38704907Y-18744668D01*
X38685201Y-18730053D01*
X38667023Y-18713577D01*
X38650547Y-18695399D01*
X38635932Y-18675693D01*
X38623320Y-18654650D01*
X38612830Y-18632471D01*
X38604565Y-18609372D01*
X38598604Y-18585573D01*
X38595004Y-18561305D01*
X38593800Y-18536801D01*
X38593800Y-17886799D01*
X38595004Y-17862295D01*
X38598604Y-17838027D01*
X38604565Y-17814228D01*
X38612830Y-17791129D01*
X38623320Y-17768950D01*
X38635932Y-17747907D01*
X38650547Y-17728201D01*
X38667023Y-17710023D01*
X38685201Y-17693547D01*
X38704907Y-17678932D01*
X38725950Y-17666320D01*
X38748129Y-17655830D01*
X38771228Y-17647565D01*
X38795027Y-17641604D01*
X38819295Y-17638004D01*
X38843799Y-17636800D01*
X39743801Y-17636800D01*
X39768305Y-17638004D01*
X39768305Y-17638004D01*
G37*
D15*
X39293800Y-18211800D03*
D13*
G36*
X26520505Y-30035204D02*
G01*
X26544773Y-30038804D01*
X26568572Y-30044765D01*
X26591671Y-30053030D01*
X26613850Y-30063520D01*
X26634893Y-30076132D01*
X26654599Y-30090747D01*
X26672777Y-30107223D01*
X26689253Y-30125401D01*
X26703868Y-30145107D01*
X26716480Y-30166150D01*
X26726970Y-30188329D01*
X26735235Y-30211428D01*
X26741196Y-30235227D01*
X26744796Y-30259495D01*
X26746000Y-30283999D01*
X26746000Y-31184001D01*
X26744796Y-31208505D01*
X26741196Y-31232773D01*
X26735235Y-31256572D01*
X26726970Y-31279671D01*
X26716480Y-31301850D01*
X26703868Y-31322893D01*
X26689253Y-31342599D01*
X26672777Y-31360777D01*
X26654599Y-31377253D01*
X26634893Y-31391868D01*
X26613850Y-31404480D01*
X26591671Y-31414970D01*
X26568572Y-31423235D01*
X26544773Y-31429196D01*
X26520505Y-31432796D01*
X26496001Y-31434000D01*
X25845999Y-31434000D01*
X25821495Y-31432796D01*
X25797227Y-31429196D01*
X25773428Y-31423235D01*
X25750329Y-31414970D01*
X25728150Y-31404480D01*
X25707107Y-31391868D01*
X25687401Y-31377253D01*
X25669223Y-31360777D01*
X25652747Y-31342599D01*
X25638132Y-31322893D01*
X25625520Y-31301850D01*
X25615030Y-31279671D01*
X25606765Y-31256572D01*
X25600804Y-31232773D01*
X25597204Y-31208505D01*
X25596000Y-31184001D01*
X25596000Y-30283999D01*
X25597204Y-30259495D01*
X25600804Y-30235227D01*
X25606765Y-30211428D01*
X25615030Y-30188329D01*
X25625520Y-30166150D01*
X25638132Y-30145107D01*
X25652747Y-30125401D01*
X25669223Y-30107223D01*
X25687401Y-30090747D01*
X25707107Y-30076132D01*
X25728150Y-30063520D01*
X25750329Y-30053030D01*
X25773428Y-30044765D01*
X25797227Y-30038804D01*
X25821495Y-30035204D01*
X25845999Y-30034000D01*
X26496001Y-30034000D01*
X26520505Y-30035204D01*
X26520505Y-30035204D01*
G37*
D15*
X26171000Y-30734000D03*
D13*
G36*
X24470505Y-30035204D02*
G01*
X24494773Y-30038804D01*
X24518572Y-30044765D01*
X24541671Y-30053030D01*
X24563850Y-30063520D01*
X24584893Y-30076132D01*
X24604599Y-30090747D01*
X24622777Y-30107223D01*
X24639253Y-30125401D01*
X24653868Y-30145107D01*
X24666480Y-30166150D01*
X24676970Y-30188329D01*
X24685235Y-30211428D01*
X24691196Y-30235227D01*
X24694796Y-30259495D01*
X24696000Y-30283999D01*
X24696000Y-31184001D01*
X24694796Y-31208505D01*
X24691196Y-31232773D01*
X24685235Y-31256572D01*
X24676970Y-31279671D01*
X24666480Y-31301850D01*
X24653868Y-31322893D01*
X24639253Y-31342599D01*
X24622777Y-31360777D01*
X24604599Y-31377253D01*
X24584893Y-31391868D01*
X24563850Y-31404480D01*
X24541671Y-31414970D01*
X24518572Y-31423235D01*
X24494773Y-31429196D01*
X24470505Y-31432796D01*
X24446001Y-31434000D01*
X23795999Y-31434000D01*
X23771495Y-31432796D01*
X23747227Y-31429196D01*
X23723428Y-31423235D01*
X23700329Y-31414970D01*
X23678150Y-31404480D01*
X23657107Y-31391868D01*
X23637401Y-31377253D01*
X23619223Y-31360777D01*
X23602747Y-31342599D01*
X23588132Y-31322893D01*
X23575520Y-31301850D01*
X23565030Y-31279671D01*
X23556765Y-31256572D01*
X23550804Y-31232773D01*
X23547204Y-31208505D01*
X23546000Y-31184001D01*
X23546000Y-30283999D01*
X23547204Y-30259495D01*
X23550804Y-30235227D01*
X23556765Y-30211428D01*
X23565030Y-30188329D01*
X23575520Y-30166150D01*
X23588132Y-30145107D01*
X23602747Y-30125401D01*
X23619223Y-30107223D01*
X23637401Y-30090747D01*
X23657107Y-30076132D01*
X23678150Y-30063520D01*
X23700329Y-30053030D01*
X23723428Y-30044765D01*
X23747227Y-30038804D01*
X23771495Y-30035204D01*
X23795999Y-30034000D01*
X24446001Y-30034000D01*
X24470505Y-30035204D01*
X24470505Y-30035204D01*
G37*
D15*
X24121000Y-30734000D03*
M02*
