G04 #@! TF.GenerationSoftware,KiCad,Pcbnew,(5.1.4-0-10_14)*
G04 #@! TF.CreationDate,2020-02-11T17:38:49-05:00*
G04 #@! TF.ProjectId,Chinchou,4368696e-6368-46f7-952e-6b696361645f,rev?*
G04 #@! TF.SameCoordinates,Original*
G04 #@! TF.FileFunction,Legend,Top*
G04 #@! TF.FilePolarity,Positive*
%FSLAX46Y46*%
G04 Gerber Fmt 4.6, Leading zero omitted, Abs format (unit mm)*
G04 Created by KiCad (PCBNEW (5.1.4-0-10_14)) date 2020-02-11 17:38:49*
%MOMM*%
%LPD*%
G04 APERTURE LIST*
%ADD10C,0.120000*%
%ADD11C,0.150000*%
G04 APERTURE END LIST*
D10*
X17410000Y-23790000D02*
X14960000Y-23790000D01*
X15610000Y-27010000D02*
X17410000Y-27010000D01*
X18220000Y-21102064D02*
X18220000Y-16997936D01*
X14800000Y-21102064D02*
X14800000Y-16997936D01*
X19610000Y-33510000D02*
X20940000Y-33510000D01*
X19610000Y-34840000D02*
X19610000Y-33510000D01*
X19610000Y-36110000D02*
X22270000Y-36110000D01*
X22270000Y-36110000D02*
X22270000Y-36170000D01*
X19610000Y-36110000D02*
X19610000Y-36170000D01*
X19610000Y-36170000D02*
X22270000Y-36170000D01*
X15180000Y-30540000D02*
X17840000Y-30540000D01*
X15180000Y-30480000D02*
X15180000Y-30540000D01*
X17840000Y-30480000D02*
X17840000Y-30540000D01*
X15180000Y-30480000D02*
X17840000Y-30480000D01*
X15180000Y-29210000D02*
X15180000Y-27880000D01*
X15180000Y-27880000D02*
X16510000Y-27880000D01*
X42843000Y-33885000D02*
X44093000Y-33885000D01*
X42843000Y-32635000D02*
X42843000Y-33885000D01*
X48343000Y-21735000D02*
X48343000Y-27285000D01*
X45393000Y-21735000D02*
X48343000Y-21735000D01*
X45393000Y-20985000D02*
X45393000Y-21735000D01*
X48343000Y-32835000D02*
X48343000Y-27285000D01*
X45393000Y-32835000D02*
X48343000Y-32835000D01*
X45393000Y-33585000D02*
X45393000Y-32835000D01*
X43143000Y-20985000D02*
X43143000Y-22785000D01*
X43893000Y-20985000D02*
X43143000Y-20985000D01*
X43893000Y-22785000D02*
X43893000Y-20985000D01*
X43143000Y-22785000D02*
X43893000Y-22785000D01*
X43143000Y-31785000D02*
X43143000Y-33585000D01*
X43893000Y-31785000D02*
X43143000Y-31785000D01*
X43893000Y-33585000D02*
X43893000Y-31785000D01*
X43143000Y-33585000D02*
X43893000Y-33585000D01*
X43143000Y-24285000D02*
X43143000Y-30285000D01*
X43893000Y-24285000D02*
X43143000Y-24285000D01*
X43893000Y-30285000D02*
X43893000Y-24285000D01*
X43143000Y-30285000D02*
X43893000Y-30285000D01*
X43133000Y-20975000D02*
X43133000Y-33595000D01*
X49103000Y-20975000D02*
X43133000Y-20975000D01*
X49103000Y-33595000D02*
X49103000Y-20975000D01*
X43133000Y-33595000D02*
X49103000Y-33595000D01*
D11*
X38404000Y-28224000D02*
X39829000Y-28224000D01*
X31154000Y-28449000D02*
X31479000Y-28449000D01*
X31154000Y-21199000D02*
X31479000Y-21199000D01*
X38404000Y-21199000D02*
X38079000Y-21199000D01*
X38404000Y-28449000D02*
X38079000Y-28449000D01*
X38404000Y-21199000D02*
X38404000Y-21524000D01*
X31154000Y-21199000D02*
X31154000Y-21524000D01*
X31154000Y-28449000D02*
X31154000Y-28124000D01*
X38404000Y-28449000D02*
X38404000Y-28224000D01*
D10*
X24703000Y-24130000D02*
G75*
G03X24703000Y-24130000I-700000J0D01*
G01*
X34722800Y-18849800D02*
X38022800Y-18849800D01*
X34722800Y-16049800D02*
X34722800Y-18849800D01*
X36740000Y-32544936D02*
X36740000Y-33749064D01*
X39460000Y-32544936D02*
X39460000Y-33749064D01*
X25015436Y-34761000D02*
X26219564Y-34761000D01*
X25015436Y-32041000D02*
X26219564Y-32041000D01*
X31434000Y-31623000D02*
G75*
G03X31434000Y-31623000I-700000J0D01*
G01*
X41467000Y-31623000D02*
G75*
G03X41467000Y-31623000I-700000J0D01*
G01*
X42102000Y-20193000D02*
G75*
G03X42102000Y-20193000I-700000J0D01*
G01*
X33925252Y-30913000D02*
X33402748Y-30913000D01*
X33925252Y-32333000D02*
X33402748Y-32333000D01*
X40819000Y-26027748D02*
X40819000Y-26550252D01*
X42239000Y-26027748D02*
X42239000Y-26550252D01*
X27230000Y-24893748D02*
X27230000Y-25416252D01*
X28650000Y-24893748D02*
X28650000Y-25416252D01*
X18848000Y-17645748D02*
X18848000Y-18168252D01*
X20268000Y-17645748D02*
X20268000Y-18168252D01*
X34161800Y-17448052D02*
X34161800Y-16925548D01*
X32741800Y-17448052D02*
X32741800Y-16925548D01*
X40003800Y-17448052D02*
X40003800Y-16925548D01*
X38583800Y-17448052D02*
X38583800Y-16925548D01*
X24884748Y-31444000D02*
X25407252Y-31444000D01*
X24884748Y-30024000D02*
X25407252Y-30024000D01*
X28889000Y-15434000D02*
X28889000Y-16764000D01*
X27559000Y-15434000D02*
X28889000Y-15434000D01*
X28889000Y-18034000D02*
X28889000Y-20634000D01*
X26289000Y-18034000D02*
X28889000Y-18034000D01*
X26289000Y-15434000D02*
X26289000Y-18034000D01*
X28889000Y-20634000D02*
X21149000Y-20634000D01*
X26289000Y-15434000D02*
X21149000Y-15434000D01*
X21149000Y-15434000D02*
X21149000Y-20634000D01*
D11*
X15748095Y-21952380D02*
X15748095Y-22761904D01*
X15795714Y-22857142D01*
X15843333Y-22904761D01*
X15938571Y-22952380D01*
X16129047Y-22952380D01*
X16224285Y-22904761D01*
X16271904Y-22857142D01*
X16319523Y-22761904D01*
X16319523Y-21952380D01*
X17271904Y-21952380D02*
X16795714Y-21952380D01*
X16748095Y-22428571D01*
X16795714Y-22380952D01*
X16890952Y-22333333D01*
X17129047Y-22333333D01*
X17224285Y-22380952D01*
X17271904Y-22428571D01*
X17319523Y-22523809D01*
X17319523Y-22761904D01*
X17271904Y-22857142D01*
X17224285Y-22904761D01*
X17129047Y-22952380D01*
X16890952Y-22952380D01*
X16795714Y-22904761D01*
X16748095Y-22857142D01*
X14342380Y-19216666D02*
X13866190Y-19550000D01*
X14342380Y-19788095D02*
X13342380Y-19788095D01*
X13342380Y-19407142D01*
X13390000Y-19311904D01*
X13437619Y-19264285D01*
X13532857Y-19216666D01*
X13675714Y-19216666D01*
X13770952Y-19264285D01*
X13818571Y-19311904D01*
X13866190Y-19407142D01*
X13866190Y-19788095D01*
X13342380Y-18883333D02*
X13342380Y-18264285D01*
X13723333Y-18597619D01*
X13723333Y-18454761D01*
X13770952Y-18359523D01*
X13818571Y-18311904D01*
X13913809Y-18264285D01*
X14151904Y-18264285D01*
X14247142Y-18311904D01*
X14294761Y-18359523D01*
X14342380Y-18454761D01*
X14342380Y-18740476D01*
X14294761Y-18835714D01*
X14247142Y-18883333D01*
X20606666Y-31962380D02*
X20606666Y-32676666D01*
X20559047Y-32819523D01*
X20463809Y-32914761D01*
X20320952Y-32962380D01*
X20225714Y-32962380D01*
X21511428Y-32295714D02*
X21511428Y-32962380D01*
X21273333Y-31914761D02*
X21035238Y-32629047D01*
X21654285Y-32629047D01*
X16176666Y-26332380D02*
X16176666Y-27046666D01*
X16129047Y-27189523D01*
X16033809Y-27284761D01*
X15890952Y-27332380D01*
X15795714Y-27332380D01*
X16557619Y-26332380D02*
X17176666Y-26332380D01*
X16843333Y-26713333D01*
X16986190Y-26713333D01*
X17081428Y-26760952D01*
X17129047Y-26808571D01*
X17176666Y-26903809D01*
X17176666Y-27141904D01*
X17129047Y-27237142D01*
X17081428Y-27284761D01*
X16986190Y-27332380D01*
X16700476Y-27332380D01*
X16605238Y-27284761D01*
X16557619Y-27237142D01*
X43227666Y-34123380D02*
X43227666Y-34837666D01*
X43180047Y-34980523D01*
X43084809Y-35075761D01*
X42941952Y-35123380D01*
X42846714Y-35123380D01*
X43656238Y-34218619D02*
X43703857Y-34171000D01*
X43799095Y-34123380D01*
X44037190Y-34123380D01*
X44132428Y-34171000D01*
X44180047Y-34218619D01*
X44227666Y-34313857D01*
X44227666Y-34409095D01*
X44180047Y-34551952D01*
X43608619Y-35123380D01*
X44227666Y-35123380D01*
X27813095Y-28281380D02*
X27813095Y-29090904D01*
X27860714Y-29186142D01*
X27908333Y-29233761D01*
X28003571Y-29281380D01*
X28194047Y-29281380D01*
X28289285Y-29233761D01*
X28336904Y-29186142D01*
X28384523Y-29090904D01*
X28384523Y-28281380D01*
X29384523Y-29281380D02*
X28813095Y-29281380D01*
X29098809Y-29281380D02*
X29098809Y-28281380D01*
X29003571Y-28424238D01*
X28908333Y-28519476D01*
X28813095Y-28567095D01*
X22741095Y-21931380D02*
X23312523Y-21931380D01*
X23026809Y-22931380D02*
X23026809Y-21931380D01*
X23645857Y-22931380D02*
X23645857Y-21931380D01*
X24026809Y-21931380D01*
X24122047Y-21979000D01*
X24169666Y-22026619D01*
X24217285Y-22121857D01*
X24217285Y-22264714D01*
X24169666Y-22359952D01*
X24122047Y-22407571D01*
X24026809Y-22455190D01*
X23645857Y-22455190D01*
X24788714Y-22359952D02*
X24693476Y-22312333D01*
X24645857Y-22264714D01*
X24598238Y-22169476D01*
X24598238Y-22121857D01*
X24645857Y-22026619D01*
X24693476Y-21979000D01*
X24788714Y-21931380D01*
X24979190Y-21931380D01*
X25074428Y-21979000D01*
X25122047Y-22026619D01*
X25169666Y-22121857D01*
X25169666Y-22169476D01*
X25122047Y-22264714D01*
X25074428Y-22312333D01*
X24979190Y-22359952D01*
X24788714Y-22359952D01*
X24693476Y-22407571D01*
X24645857Y-22455190D01*
X24598238Y-22550428D01*
X24598238Y-22740904D01*
X24645857Y-22836142D01*
X24693476Y-22883761D01*
X24788714Y-22931380D01*
X24979190Y-22931380D01*
X25074428Y-22883761D01*
X25122047Y-22836142D01*
X25169666Y-22740904D01*
X25169666Y-22550428D01*
X25122047Y-22455190D01*
X25074428Y-22407571D01*
X24979190Y-22359952D01*
X35972809Y-15343190D02*
X35972809Y-15819380D01*
X35639476Y-14819380D02*
X35972809Y-15343190D01*
X36306142Y-14819380D01*
X37163285Y-15819380D02*
X36591857Y-15819380D01*
X36877571Y-15819380D02*
X36877571Y-14819380D01*
X36782333Y-14962238D01*
X36687095Y-15057476D01*
X36591857Y-15105095D01*
X36917333Y-36679142D02*
X36869714Y-36726761D01*
X36726857Y-36774380D01*
X36631619Y-36774380D01*
X36488761Y-36726761D01*
X36393523Y-36631523D01*
X36345904Y-36536285D01*
X36298285Y-36345809D01*
X36298285Y-36202952D01*
X36345904Y-36012476D01*
X36393523Y-35917238D01*
X36488761Y-35822000D01*
X36631619Y-35774380D01*
X36726857Y-35774380D01*
X36869714Y-35822000D01*
X36917333Y-35869619D01*
X37250666Y-35774380D02*
X37869714Y-35774380D01*
X37536380Y-36155333D01*
X37679238Y-36155333D01*
X37774476Y-36202952D01*
X37822095Y-36250571D01*
X37869714Y-36345809D01*
X37869714Y-36583904D01*
X37822095Y-36679142D01*
X37774476Y-36726761D01*
X37679238Y-36774380D01*
X37393523Y-36774380D01*
X37298285Y-36726761D01*
X37250666Y-36679142D01*
X22058333Y-33631142D02*
X22010714Y-33678761D01*
X21867857Y-33726380D01*
X21772619Y-33726380D01*
X21629761Y-33678761D01*
X21534523Y-33583523D01*
X21486904Y-33488285D01*
X21439285Y-33297809D01*
X21439285Y-33154952D01*
X21486904Y-32964476D01*
X21534523Y-32869238D01*
X21629761Y-32774000D01*
X21772619Y-32726380D01*
X21867857Y-32726380D01*
X22010714Y-32774000D01*
X22058333Y-32821619D01*
X22915476Y-33059714D02*
X22915476Y-33726380D01*
X22677380Y-32678761D02*
X22439285Y-33393047D01*
X23058333Y-33393047D01*
X28837095Y-32980380D02*
X29408523Y-32980380D01*
X29122809Y-33980380D02*
X29122809Y-32980380D01*
X29741857Y-33980380D02*
X29741857Y-32980380D01*
X30122809Y-32980380D01*
X30218047Y-33028000D01*
X30265666Y-33075619D01*
X30313285Y-33170857D01*
X30313285Y-33313714D01*
X30265666Y-33408952D01*
X30218047Y-33456571D01*
X30122809Y-33504190D01*
X29741857Y-33504190D01*
X31218047Y-32980380D02*
X30741857Y-32980380D01*
X30694238Y-33456571D01*
X30741857Y-33408952D01*
X30837095Y-33361333D01*
X31075190Y-33361333D01*
X31170428Y-33408952D01*
X31218047Y-33456571D01*
X31265666Y-33551809D01*
X31265666Y-33789904D01*
X31218047Y-33885142D01*
X31170428Y-33932761D01*
X31075190Y-33980380D01*
X30837095Y-33980380D01*
X30741857Y-33932761D01*
X30694238Y-33885142D01*
X39759095Y-32853380D02*
X40330523Y-32853380D01*
X40044809Y-33853380D02*
X40044809Y-32853380D01*
X40663857Y-33853380D02*
X40663857Y-32853380D01*
X41044809Y-32853380D01*
X41140047Y-32901000D01*
X41187666Y-32948619D01*
X41235285Y-33043857D01*
X41235285Y-33186714D01*
X41187666Y-33281952D01*
X41140047Y-33329571D01*
X41044809Y-33377190D01*
X40663857Y-33377190D01*
X42092428Y-33186714D02*
X42092428Y-33853380D01*
X41854333Y-32805761D02*
X41616238Y-33520047D01*
X42235285Y-33520047D01*
X40902095Y-17994380D02*
X41473523Y-17994380D01*
X41187809Y-18994380D02*
X41187809Y-17994380D01*
X41806857Y-18994380D02*
X41806857Y-17994380D01*
X42187809Y-17994380D01*
X42283047Y-18042000D01*
X42330666Y-18089619D01*
X42378285Y-18184857D01*
X42378285Y-18327714D01*
X42330666Y-18422952D01*
X42283047Y-18470571D01*
X42187809Y-18518190D01*
X41806857Y-18518190D01*
X42997333Y-17994380D02*
X43092571Y-17994380D01*
X43187809Y-18042000D01*
X43235428Y-18089619D01*
X43283047Y-18184857D01*
X43330666Y-18375333D01*
X43330666Y-18613428D01*
X43283047Y-18803904D01*
X43235428Y-18899142D01*
X43187809Y-18946761D01*
X43092571Y-18994380D01*
X42997333Y-18994380D01*
X42902095Y-18946761D01*
X42854476Y-18899142D01*
X42806857Y-18803904D01*
X42759238Y-18613428D01*
X42759238Y-18375333D01*
X42806857Y-18184857D01*
X42854476Y-18089619D01*
X42902095Y-18042000D01*
X42997333Y-17994380D01*
X34377333Y-33631142D02*
X34329714Y-33678761D01*
X34186857Y-33726380D01*
X34091619Y-33726380D01*
X33948761Y-33678761D01*
X33853523Y-33583523D01*
X33805904Y-33488285D01*
X33758285Y-33297809D01*
X33758285Y-33154952D01*
X33805904Y-32964476D01*
X33853523Y-32869238D01*
X33948761Y-32774000D01*
X34091619Y-32726380D01*
X34186857Y-32726380D01*
X34329714Y-32774000D01*
X34377333Y-32821619D01*
X35329714Y-33726380D02*
X34758285Y-33726380D01*
X35044000Y-33726380D02*
X35044000Y-32726380D01*
X34948761Y-32869238D01*
X34853523Y-32964476D01*
X34758285Y-33012095D01*
X41362333Y-24106142D02*
X41314714Y-24153761D01*
X41171857Y-24201380D01*
X41076619Y-24201380D01*
X40933761Y-24153761D01*
X40838523Y-24058523D01*
X40790904Y-23963285D01*
X40743285Y-23772809D01*
X40743285Y-23629952D01*
X40790904Y-23439476D01*
X40838523Y-23344238D01*
X40933761Y-23249000D01*
X41076619Y-23201380D01*
X41171857Y-23201380D01*
X41314714Y-23249000D01*
X41362333Y-23296619D01*
X41695666Y-23201380D02*
X42362333Y-23201380D01*
X41933761Y-24201380D01*
X27773333Y-23108142D02*
X27725714Y-23155761D01*
X27582857Y-23203380D01*
X27487619Y-23203380D01*
X27344761Y-23155761D01*
X27249523Y-23060523D01*
X27201904Y-22965285D01*
X27154285Y-22774809D01*
X27154285Y-22631952D01*
X27201904Y-22441476D01*
X27249523Y-22346238D01*
X27344761Y-22251000D01*
X27487619Y-22203380D01*
X27582857Y-22203380D01*
X27725714Y-22251000D01*
X27773333Y-22298619D01*
X28344761Y-22631952D02*
X28249523Y-22584333D01*
X28201904Y-22536714D01*
X28154285Y-22441476D01*
X28154285Y-22393857D01*
X28201904Y-22298619D01*
X28249523Y-22251000D01*
X28344761Y-22203380D01*
X28535238Y-22203380D01*
X28630476Y-22251000D01*
X28678095Y-22298619D01*
X28725714Y-22393857D01*
X28725714Y-22441476D01*
X28678095Y-22536714D01*
X28630476Y-22584333D01*
X28535238Y-22631952D01*
X28344761Y-22631952D01*
X28249523Y-22679571D01*
X28201904Y-22727190D01*
X28154285Y-22822428D01*
X28154285Y-23012904D01*
X28201904Y-23108142D01*
X28249523Y-23155761D01*
X28344761Y-23203380D01*
X28535238Y-23203380D01*
X28630476Y-23155761D01*
X28678095Y-23108142D01*
X28725714Y-23012904D01*
X28725714Y-22822428D01*
X28678095Y-22727190D01*
X28630476Y-22679571D01*
X28535238Y-22631952D01*
X19264333Y-15851142D02*
X19216714Y-15898761D01*
X19073857Y-15946380D01*
X18978619Y-15946380D01*
X18835761Y-15898761D01*
X18740523Y-15803523D01*
X18692904Y-15708285D01*
X18645285Y-15517809D01*
X18645285Y-15374952D01*
X18692904Y-15184476D01*
X18740523Y-15089238D01*
X18835761Y-14994000D01*
X18978619Y-14946380D01*
X19073857Y-14946380D01*
X19216714Y-14994000D01*
X19264333Y-15041619D01*
X19740523Y-15946380D02*
X19931000Y-15946380D01*
X20026238Y-15898761D01*
X20073857Y-15851142D01*
X20169095Y-15708285D01*
X20216714Y-15517809D01*
X20216714Y-15136857D01*
X20169095Y-15041619D01*
X20121476Y-14994000D01*
X20026238Y-14946380D01*
X19835761Y-14946380D01*
X19740523Y-14994000D01*
X19692904Y-15041619D01*
X19645285Y-15136857D01*
X19645285Y-15374952D01*
X19692904Y-15470190D01*
X19740523Y-15517809D01*
X19835761Y-15565428D01*
X20026238Y-15565428D01*
X20121476Y-15517809D01*
X20169095Y-15470190D01*
X20216714Y-15374952D01*
X33234333Y-15089142D02*
X33186714Y-15136761D01*
X33043857Y-15184380D01*
X32948619Y-15184380D01*
X32805761Y-15136761D01*
X32710523Y-15041523D01*
X32662904Y-14946285D01*
X32615285Y-14755809D01*
X32615285Y-14612952D01*
X32662904Y-14422476D01*
X32710523Y-14327238D01*
X32805761Y-14232000D01*
X32948619Y-14184380D01*
X33043857Y-14184380D01*
X33186714Y-14232000D01*
X33234333Y-14279619D01*
X34139095Y-14184380D02*
X33662904Y-14184380D01*
X33615285Y-14660571D01*
X33662904Y-14612952D01*
X33758142Y-14565333D01*
X33996238Y-14565333D01*
X34091476Y-14612952D01*
X34139095Y-14660571D01*
X34186714Y-14755809D01*
X34186714Y-14993904D01*
X34139095Y-15089142D01*
X34091476Y-15136761D01*
X33996238Y-15184380D01*
X33758142Y-15184380D01*
X33662904Y-15136761D01*
X33615285Y-15089142D01*
X39076333Y-15089142D02*
X39028714Y-15136761D01*
X38885857Y-15184380D01*
X38790619Y-15184380D01*
X38647761Y-15136761D01*
X38552523Y-15041523D01*
X38504904Y-14946285D01*
X38457285Y-14755809D01*
X38457285Y-14612952D01*
X38504904Y-14422476D01*
X38552523Y-14327238D01*
X38647761Y-14232000D01*
X38790619Y-14184380D01*
X38885857Y-14184380D01*
X39028714Y-14232000D01*
X39076333Y-14279619D01*
X39933476Y-14184380D02*
X39743000Y-14184380D01*
X39647761Y-14232000D01*
X39600142Y-14279619D01*
X39504904Y-14422476D01*
X39457285Y-14612952D01*
X39457285Y-14993904D01*
X39504904Y-15089142D01*
X39552523Y-15136761D01*
X39647761Y-15184380D01*
X39838238Y-15184380D01*
X39933476Y-15136761D01*
X39981095Y-15089142D01*
X40028714Y-14993904D01*
X40028714Y-14755809D01*
X39981095Y-14660571D01*
X39933476Y-14612952D01*
X39838238Y-14565333D01*
X39647761Y-14565333D01*
X39552523Y-14612952D01*
X39504904Y-14660571D01*
X39457285Y-14755809D01*
X21931333Y-31091142D02*
X21883714Y-31138761D01*
X21740857Y-31186380D01*
X21645619Y-31186380D01*
X21502761Y-31138761D01*
X21407523Y-31043523D01*
X21359904Y-30948285D01*
X21312285Y-30757809D01*
X21312285Y-30614952D01*
X21359904Y-30424476D01*
X21407523Y-30329238D01*
X21502761Y-30234000D01*
X21645619Y-30186380D01*
X21740857Y-30186380D01*
X21883714Y-30234000D01*
X21931333Y-30281619D01*
X22312285Y-30281619D02*
X22359904Y-30234000D01*
X22455142Y-30186380D01*
X22693238Y-30186380D01*
X22788476Y-30234000D01*
X22836095Y-30281619D01*
X22883714Y-30376857D01*
X22883714Y-30472095D01*
X22836095Y-30614952D01*
X22264666Y-31186380D01*
X22883714Y-31186380D01*
X24558666Y-13676380D02*
X24558666Y-14390666D01*
X24511047Y-14533523D01*
X24415809Y-14628761D01*
X24272952Y-14676380D01*
X24177714Y-14676380D01*
X25558666Y-14676380D02*
X24987238Y-14676380D01*
X25272952Y-14676380D02*
X25272952Y-13676380D01*
X25177714Y-13819238D01*
X25082476Y-13914476D01*
X24987238Y-13962095D01*
M02*
