G04 #@! TF.GenerationSoftware,KiCad,Pcbnew,(5.1.4-0-10_14)*
G04 #@! TF.CreationDate,2020-02-11T17:38:49-05:00*
G04 #@! TF.ProjectId,Chinchou,4368696e-6368-46f7-952e-6b696361645f,rev?*
G04 #@! TF.SameCoordinates,Original*
G04 #@! TF.FileFunction,Copper,L2,Bot*
G04 #@! TF.FilePolarity,Positive*
%FSLAX46Y46*%
G04 Gerber Fmt 4.6, Leading zero omitted, Abs format (unit mm)*
G04 Created by KiCad (PCBNEW (5.1.4-0-10_14)) date 2020-02-11 17:38:49*
%MOMM*%
%LPD*%
G04 APERTURE LIST*
%ADD10R,2.000000X1.500000*%
%ADD11R,2.000000X3.800000*%
%ADD12R,1.700000X1.700000*%
%ADD13C,0.100000*%
%ADD14C,1.150000*%
%ADD15O,1.950000X1.700000*%
%ADD16C,1.700000*%
%ADD17C,0.600000*%
%ADD18O,1.700000X1.700000*%
%ADD19C,0.800000*%
%ADD20C,0.508000*%
%ADD21C,1.270000*%
%ADD22C,0.250000*%
%ADD23C,0.635000*%
G04 APERTURE END LIST*
D10*
X30734000Y-29323000D03*
X30734000Y-33923000D03*
X30734000Y-31623000D03*
D11*
X24434000Y-31623000D03*
D12*
X20940000Y-34840000D03*
X16510000Y-29210000D03*
D13*
G36*
X36281505Y-20002204D02*
G01*
X36305773Y-20005804D01*
X36329572Y-20011765D01*
X36352671Y-20020030D01*
X36374850Y-20030520D01*
X36395893Y-20043132D01*
X36415599Y-20057747D01*
X36433777Y-20074223D01*
X36450253Y-20092401D01*
X36464868Y-20112107D01*
X36477480Y-20133150D01*
X36487970Y-20155329D01*
X36496235Y-20178428D01*
X36502196Y-20202227D01*
X36505796Y-20226495D01*
X36507000Y-20250999D01*
X36507000Y-21151001D01*
X36505796Y-21175505D01*
X36502196Y-21199773D01*
X36496235Y-21223572D01*
X36487970Y-21246671D01*
X36477480Y-21268850D01*
X36464868Y-21289893D01*
X36450253Y-21309599D01*
X36433777Y-21327777D01*
X36415599Y-21344253D01*
X36395893Y-21358868D01*
X36374850Y-21371480D01*
X36352671Y-21381970D01*
X36329572Y-21390235D01*
X36305773Y-21396196D01*
X36281505Y-21399796D01*
X36257001Y-21401000D01*
X35606999Y-21401000D01*
X35582495Y-21399796D01*
X35558227Y-21396196D01*
X35534428Y-21390235D01*
X35511329Y-21381970D01*
X35489150Y-21371480D01*
X35468107Y-21358868D01*
X35448401Y-21344253D01*
X35430223Y-21327777D01*
X35413747Y-21309599D01*
X35399132Y-21289893D01*
X35386520Y-21268850D01*
X35376030Y-21246671D01*
X35367765Y-21223572D01*
X35361804Y-21199773D01*
X35358204Y-21175505D01*
X35357000Y-21151001D01*
X35357000Y-20250999D01*
X35358204Y-20226495D01*
X35361804Y-20202227D01*
X35367765Y-20178428D01*
X35376030Y-20155329D01*
X35386520Y-20133150D01*
X35399132Y-20112107D01*
X35413747Y-20092401D01*
X35430223Y-20074223D01*
X35448401Y-20057747D01*
X35468107Y-20043132D01*
X35489150Y-20030520D01*
X35511329Y-20020030D01*
X35534428Y-20011765D01*
X35558227Y-20005804D01*
X35582495Y-20002204D01*
X35606999Y-20001000D01*
X36257001Y-20001000D01*
X36281505Y-20002204D01*
X36281505Y-20002204D01*
G37*
D14*
X35932000Y-20701000D03*
D13*
G36*
X38331505Y-20002204D02*
G01*
X38355773Y-20005804D01*
X38379572Y-20011765D01*
X38402671Y-20020030D01*
X38424850Y-20030520D01*
X38445893Y-20043132D01*
X38465599Y-20057747D01*
X38483777Y-20074223D01*
X38500253Y-20092401D01*
X38514868Y-20112107D01*
X38527480Y-20133150D01*
X38537970Y-20155329D01*
X38546235Y-20178428D01*
X38552196Y-20202227D01*
X38555796Y-20226495D01*
X38557000Y-20250999D01*
X38557000Y-21151001D01*
X38555796Y-21175505D01*
X38552196Y-21199773D01*
X38546235Y-21223572D01*
X38537970Y-21246671D01*
X38527480Y-21268850D01*
X38514868Y-21289893D01*
X38500253Y-21309599D01*
X38483777Y-21327777D01*
X38465599Y-21344253D01*
X38445893Y-21358868D01*
X38424850Y-21371480D01*
X38402671Y-21381970D01*
X38379572Y-21390235D01*
X38355773Y-21396196D01*
X38331505Y-21399796D01*
X38307001Y-21401000D01*
X37656999Y-21401000D01*
X37632495Y-21399796D01*
X37608227Y-21396196D01*
X37584428Y-21390235D01*
X37561329Y-21381970D01*
X37539150Y-21371480D01*
X37518107Y-21358868D01*
X37498401Y-21344253D01*
X37480223Y-21327777D01*
X37463747Y-21309599D01*
X37449132Y-21289893D01*
X37436520Y-21268850D01*
X37426030Y-21246671D01*
X37417765Y-21223572D01*
X37411804Y-21199773D01*
X37408204Y-21175505D01*
X37407000Y-21151001D01*
X37407000Y-20250999D01*
X37408204Y-20226495D01*
X37411804Y-20202227D01*
X37417765Y-20178428D01*
X37426030Y-20155329D01*
X37436520Y-20133150D01*
X37449132Y-20112107D01*
X37463747Y-20092401D01*
X37480223Y-20074223D01*
X37498401Y-20057747D01*
X37518107Y-20043132D01*
X37539150Y-20030520D01*
X37561329Y-20020030D01*
X37584428Y-20011765D01*
X37608227Y-20005804D01*
X37632495Y-20002204D01*
X37656999Y-20001000D01*
X38307001Y-20001000D01*
X38331505Y-20002204D01*
X38331505Y-20002204D01*
G37*
D14*
X37982000Y-20701000D03*
D13*
G36*
X48480505Y-23166204D02*
G01*
X48504773Y-23169804D01*
X48528572Y-23175765D01*
X48551671Y-23184030D01*
X48573850Y-23194520D01*
X48594893Y-23207132D01*
X48614599Y-23221747D01*
X48632777Y-23238223D01*
X48649253Y-23256401D01*
X48663868Y-23276107D01*
X48676480Y-23297150D01*
X48686970Y-23319329D01*
X48695235Y-23342428D01*
X48701196Y-23366227D01*
X48704796Y-23390495D01*
X48706000Y-23414999D01*
X48706000Y-24065001D01*
X48704796Y-24089505D01*
X48701196Y-24113773D01*
X48695235Y-24137572D01*
X48686970Y-24160671D01*
X48676480Y-24182850D01*
X48663868Y-24203893D01*
X48649253Y-24223599D01*
X48632777Y-24241777D01*
X48614599Y-24258253D01*
X48594893Y-24272868D01*
X48573850Y-24285480D01*
X48551671Y-24295970D01*
X48528572Y-24304235D01*
X48504773Y-24310196D01*
X48480505Y-24313796D01*
X48456001Y-24315000D01*
X47555999Y-24315000D01*
X47531495Y-24313796D01*
X47507227Y-24310196D01*
X47483428Y-24304235D01*
X47460329Y-24295970D01*
X47438150Y-24285480D01*
X47417107Y-24272868D01*
X47397401Y-24258253D01*
X47379223Y-24241777D01*
X47362747Y-24223599D01*
X47348132Y-24203893D01*
X47335520Y-24182850D01*
X47325030Y-24160671D01*
X47316765Y-24137572D01*
X47310804Y-24113773D01*
X47307204Y-24089505D01*
X47306000Y-24065001D01*
X47306000Y-23414999D01*
X47307204Y-23390495D01*
X47310804Y-23366227D01*
X47316765Y-23342428D01*
X47325030Y-23319329D01*
X47335520Y-23297150D01*
X47348132Y-23276107D01*
X47362747Y-23256401D01*
X47379223Y-23238223D01*
X47397401Y-23221747D01*
X47417107Y-23207132D01*
X47438150Y-23194520D01*
X47460329Y-23184030D01*
X47483428Y-23175765D01*
X47507227Y-23169804D01*
X47531495Y-23166204D01*
X47555999Y-23165000D01*
X48456001Y-23165000D01*
X48480505Y-23166204D01*
X48480505Y-23166204D01*
G37*
D14*
X48006000Y-23740000D03*
D13*
G36*
X48480505Y-25216204D02*
G01*
X48504773Y-25219804D01*
X48528572Y-25225765D01*
X48551671Y-25234030D01*
X48573850Y-25244520D01*
X48594893Y-25257132D01*
X48614599Y-25271747D01*
X48632777Y-25288223D01*
X48649253Y-25306401D01*
X48663868Y-25326107D01*
X48676480Y-25347150D01*
X48686970Y-25369329D01*
X48695235Y-25392428D01*
X48701196Y-25416227D01*
X48704796Y-25440495D01*
X48706000Y-25464999D01*
X48706000Y-26115001D01*
X48704796Y-26139505D01*
X48701196Y-26163773D01*
X48695235Y-26187572D01*
X48686970Y-26210671D01*
X48676480Y-26232850D01*
X48663868Y-26253893D01*
X48649253Y-26273599D01*
X48632777Y-26291777D01*
X48614599Y-26308253D01*
X48594893Y-26322868D01*
X48573850Y-26335480D01*
X48551671Y-26345970D01*
X48528572Y-26354235D01*
X48504773Y-26360196D01*
X48480505Y-26363796D01*
X48456001Y-26365000D01*
X47555999Y-26365000D01*
X47531495Y-26363796D01*
X47507227Y-26360196D01*
X47483428Y-26354235D01*
X47460329Y-26345970D01*
X47438150Y-26335480D01*
X47417107Y-26322868D01*
X47397401Y-26308253D01*
X47379223Y-26291777D01*
X47362747Y-26273599D01*
X47348132Y-26253893D01*
X47335520Y-26232850D01*
X47325030Y-26210671D01*
X47316765Y-26187572D01*
X47310804Y-26163773D01*
X47307204Y-26139505D01*
X47306000Y-26115001D01*
X47306000Y-25464999D01*
X47307204Y-25440495D01*
X47310804Y-25416227D01*
X47316765Y-25392428D01*
X47325030Y-25369329D01*
X47335520Y-25347150D01*
X47348132Y-25326107D01*
X47362747Y-25306401D01*
X47379223Y-25288223D01*
X47397401Y-25271747D01*
X47417107Y-25257132D01*
X47438150Y-25244520D01*
X47460329Y-25234030D01*
X47483428Y-25225765D01*
X47507227Y-25219804D01*
X47531495Y-25216204D01*
X47555999Y-25215000D01*
X48456001Y-25215000D01*
X48480505Y-25216204D01*
X48480505Y-25216204D01*
G37*
D14*
X48006000Y-25790000D03*
D15*
X45593000Y-23535000D03*
X45593000Y-26035000D03*
X45593000Y-28535000D03*
D13*
G36*
X46342504Y-30186204D02*
G01*
X46366773Y-30189804D01*
X46390571Y-30195765D01*
X46413671Y-30204030D01*
X46435849Y-30214520D01*
X46456893Y-30227133D01*
X46476598Y-30241747D01*
X46494777Y-30258223D01*
X46511253Y-30276402D01*
X46525867Y-30296107D01*
X46538480Y-30317151D01*
X46548970Y-30339329D01*
X46557235Y-30362429D01*
X46563196Y-30386227D01*
X46566796Y-30410496D01*
X46568000Y-30435000D01*
X46568000Y-31635000D01*
X46566796Y-31659504D01*
X46563196Y-31683773D01*
X46557235Y-31707571D01*
X46548970Y-31730671D01*
X46538480Y-31752849D01*
X46525867Y-31773893D01*
X46511253Y-31793598D01*
X46494777Y-31811777D01*
X46476598Y-31828253D01*
X46456893Y-31842867D01*
X46435849Y-31855480D01*
X46413671Y-31865970D01*
X46390571Y-31874235D01*
X46366773Y-31880196D01*
X46342504Y-31883796D01*
X46318000Y-31885000D01*
X44868000Y-31885000D01*
X44843496Y-31883796D01*
X44819227Y-31880196D01*
X44795429Y-31874235D01*
X44772329Y-31865970D01*
X44750151Y-31855480D01*
X44729107Y-31842867D01*
X44709402Y-31828253D01*
X44691223Y-31811777D01*
X44674747Y-31793598D01*
X44660133Y-31773893D01*
X44647520Y-31752849D01*
X44637030Y-31730671D01*
X44628765Y-31707571D01*
X44622804Y-31683773D01*
X44619204Y-31659504D01*
X44618000Y-31635000D01*
X44618000Y-30435000D01*
X44619204Y-30410496D01*
X44622804Y-30386227D01*
X44628765Y-30362429D01*
X44637030Y-30339329D01*
X44647520Y-30317151D01*
X44660133Y-30296107D01*
X44674747Y-30276402D01*
X44691223Y-30258223D01*
X44709402Y-30241747D01*
X44729107Y-30227133D01*
X44750151Y-30214520D01*
X44772329Y-30204030D01*
X44795429Y-30195765D01*
X44819227Y-30189804D01*
X44843496Y-30186204D01*
X44868000Y-30185000D01*
X46318000Y-30185000D01*
X46342504Y-30186204D01*
X46342504Y-30186204D01*
G37*
D16*
X45593000Y-31035000D03*
D10*
X40717000Y-29323000D03*
X40717000Y-33923000D03*
X40717000Y-31623000D03*
D11*
X34417000Y-31623000D03*
D13*
G36*
X42241703Y-26370722D02*
G01*
X42256264Y-26372882D01*
X42270543Y-26376459D01*
X42284403Y-26381418D01*
X42297710Y-26387712D01*
X42310336Y-26395280D01*
X42322159Y-26404048D01*
X42333066Y-26413934D01*
X42342952Y-26424841D01*
X42351720Y-26436664D01*
X42359288Y-26449290D01*
X42365582Y-26462597D01*
X42370541Y-26476457D01*
X42374118Y-26490736D01*
X42376278Y-26505297D01*
X42377000Y-26520000D01*
X42377000Y-26820000D01*
X42376278Y-26834703D01*
X42374118Y-26849264D01*
X42370541Y-26863543D01*
X42365582Y-26877403D01*
X42359288Y-26890710D01*
X42351720Y-26903336D01*
X42342952Y-26915159D01*
X42333066Y-26926066D01*
X42322159Y-26935952D01*
X42310336Y-26944720D01*
X42297710Y-26952288D01*
X42284403Y-26958582D01*
X42270543Y-26963541D01*
X42256264Y-26967118D01*
X42241703Y-26969278D01*
X42227000Y-26970000D01*
X40577000Y-26970000D01*
X40562297Y-26969278D01*
X40547736Y-26967118D01*
X40533457Y-26963541D01*
X40519597Y-26958582D01*
X40506290Y-26952288D01*
X40493664Y-26944720D01*
X40481841Y-26935952D01*
X40470934Y-26926066D01*
X40461048Y-26915159D01*
X40452280Y-26903336D01*
X40444712Y-26890710D01*
X40438418Y-26877403D01*
X40433459Y-26863543D01*
X40429882Y-26849264D01*
X40427722Y-26834703D01*
X40427000Y-26820000D01*
X40427000Y-26520000D01*
X40427722Y-26505297D01*
X40429882Y-26490736D01*
X40433459Y-26476457D01*
X40438418Y-26462597D01*
X40444712Y-26449290D01*
X40452280Y-26436664D01*
X40461048Y-26424841D01*
X40470934Y-26413934D01*
X40481841Y-26404048D01*
X40493664Y-26395280D01*
X40506290Y-26387712D01*
X40519597Y-26381418D01*
X40533457Y-26376459D01*
X40547736Y-26372882D01*
X40562297Y-26370722D01*
X40577000Y-26370000D01*
X42227000Y-26370000D01*
X42241703Y-26370722D01*
X42241703Y-26370722D01*
G37*
D17*
X41402000Y-26670000D03*
D13*
G36*
X42241703Y-25100722D02*
G01*
X42256264Y-25102882D01*
X42270543Y-25106459D01*
X42284403Y-25111418D01*
X42297710Y-25117712D01*
X42310336Y-25125280D01*
X42322159Y-25134048D01*
X42333066Y-25143934D01*
X42342952Y-25154841D01*
X42351720Y-25166664D01*
X42359288Y-25179290D01*
X42365582Y-25192597D01*
X42370541Y-25206457D01*
X42374118Y-25220736D01*
X42376278Y-25235297D01*
X42377000Y-25250000D01*
X42377000Y-25550000D01*
X42376278Y-25564703D01*
X42374118Y-25579264D01*
X42370541Y-25593543D01*
X42365582Y-25607403D01*
X42359288Y-25620710D01*
X42351720Y-25633336D01*
X42342952Y-25645159D01*
X42333066Y-25656066D01*
X42322159Y-25665952D01*
X42310336Y-25674720D01*
X42297710Y-25682288D01*
X42284403Y-25688582D01*
X42270543Y-25693541D01*
X42256264Y-25697118D01*
X42241703Y-25699278D01*
X42227000Y-25700000D01*
X40577000Y-25700000D01*
X40562297Y-25699278D01*
X40547736Y-25697118D01*
X40533457Y-25693541D01*
X40519597Y-25688582D01*
X40506290Y-25682288D01*
X40493664Y-25674720D01*
X40481841Y-25665952D01*
X40470934Y-25656066D01*
X40461048Y-25645159D01*
X40452280Y-25633336D01*
X40444712Y-25620710D01*
X40438418Y-25607403D01*
X40433459Y-25593543D01*
X40429882Y-25579264D01*
X40427722Y-25564703D01*
X40427000Y-25550000D01*
X40427000Y-25250000D01*
X40427722Y-25235297D01*
X40429882Y-25220736D01*
X40433459Y-25206457D01*
X40438418Y-25192597D01*
X40444712Y-25179290D01*
X40452280Y-25166664D01*
X40461048Y-25154841D01*
X40470934Y-25143934D01*
X40481841Y-25134048D01*
X40493664Y-25125280D01*
X40506290Y-25117712D01*
X40519597Y-25111418D01*
X40533457Y-25106459D01*
X40547736Y-25102882D01*
X40562297Y-25100722D01*
X40577000Y-25100000D01*
X42227000Y-25100000D01*
X42241703Y-25100722D01*
X42241703Y-25100722D01*
G37*
D17*
X41402000Y-25400000D03*
D13*
G36*
X42241703Y-23830722D02*
G01*
X42256264Y-23832882D01*
X42270543Y-23836459D01*
X42284403Y-23841418D01*
X42297710Y-23847712D01*
X42310336Y-23855280D01*
X42322159Y-23864048D01*
X42333066Y-23873934D01*
X42342952Y-23884841D01*
X42351720Y-23896664D01*
X42359288Y-23909290D01*
X42365582Y-23922597D01*
X42370541Y-23936457D01*
X42374118Y-23950736D01*
X42376278Y-23965297D01*
X42377000Y-23980000D01*
X42377000Y-24280000D01*
X42376278Y-24294703D01*
X42374118Y-24309264D01*
X42370541Y-24323543D01*
X42365582Y-24337403D01*
X42359288Y-24350710D01*
X42351720Y-24363336D01*
X42342952Y-24375159D01*
X42333066Y-24386066D01*
X42322159Y-24395952D01*
X42310336Y-24404720D01*
X42297710Y-24412288D01*
X42284403Y-24418582D01*
X42270543Y-24423541D01*
X42256264Y-24427118D01*
X42241703Y-24429278D01*
X42227000Y-24430000D01*
X40577000Y-24430000D01*
X40562297Y-24429278D01*
X40547736Y-24427118D01*
X40533457Y-24423541D01*
X40519597Y-24418582D01*
X40506290Y-24412288D01*
X40493664Y-24404720D01*
X40481841Y-24395952D01*
X40470934Y-24386066D01*
X40461048Y-24375159D01*
X40452280Y-24363336D01*
X40444712Y-24350710D01*
X40438418Y-24337403D01*
X40433459Y-24323543D01*
X40429882Y-24309264D01*
X40427722Y-24294703D01*
X40427000Y-24280000D01*
X40427000Y-23980000D01*
X40427722Y-23965297D01*
X40429882Y-23950736D01*
X40433459Y-23936457D01*
X40438418Y-23922597D01*
X40444712Y-23909290D01*
X40452280Y-23896664D01*
X40461048Y-23884841D01*
X40470934Y-23873934D01*
X40481841Y-23864048D01*
X40493664Y-23855280D01*
X40506290Y-23847712D01*
X40519597Y-23841418D01*
X40533457Y-23836459D01*
X40547736Y-23832882D01*
X40562297Y-23830722D01*
X40577000Y-23830000D01*
X42227000Y-23830000D01*
X42241703Y-23830722D01*
X42241703Y-23830722D01*
G37*
D17*
X41402000Y-24130000D03*
D13*
G36*
X42241703Y-22560722D02*
G01*
X42256264Y-22562882D01*
X42270543Y-22566459D01*
X42284403Y-22571418D01*
X42297710Y-22577712D01*
X42310336Y-22585280D01*
X42322159Y-22594048D01*
X42333066Y-22603934D01*
X42342952Y-22614841D01*
X42351720Y-22626664D01*
X42359288Y-22639290D01*
X42365582Y-22652597D01*
X42370541Y-22666457D01*
X42374118Y-22680736D01*
X42376278Y-22695297D01*
X42377000Y-22710000D01*
X42377000Y-23010000D01*
X42376278Y-23024703D01*
X42374118Y-23039264D01*
X42370541Y-23053543D01*
X42365582Y-23067403D01*
X42359288Y-23080710D01*
X42351720Y-23093336D01*
X42342952Y-23105159D01*
X42333066Y-23116066D01*
X42322159Y-23125952D01*
X42310336Y-23134720D01*
X42297710Y-23142288D01*
X42284403Y-23148582D01*
X42270543Y-23153541D01*
X42256264Y-23157118D01*
X42241703Y-23159278D01*
X42227000Y-23160000D01*
X40577000Y-23160000D01*
X40562297Y-23159278D01*
X40547736Y-23157118D01*
X40533457Y-23153541D01*
X40519597Y-23148582D01*
X40506290Y-23142288D01*
X40493664Y-23134720D01*
X40481841Y-23125952D01*
X40470934Y-23116066D01*
X40461048Y-23105159D01*
X40452280Y-23093336D01*
X40444712Y-23080710D01*
X40438418Y-23067403D01*
X40433459Y-23053543D01*
X40429882Y-23039264D01*
X40427722Y-23024703D01*
X40427000Y-23010000D01*
X40427000Y-22710000D01*
X40427722Y-22695297D01*
X40429882Y-22680736D01*
X40433459Y-22666457D01*
X40438418Y-22652597D01*
X40444712Y-22639290D01*
X40452280Y-22626664D01*
X40461048Y-22614841D01*
X40470934Y-22603934D01*
X40481841Y-22594048D01*
X40493664Y-22585280D01*
X40506290Y-22577712D01*
X40519597Y-22571418D01*
X40533457Y-22566459D01*
X40547736Y-22562882D01*
X40562297Y-22560722D01*
X40577000Y-22560000D01*
X42227000Y-22560000D01*
X42241703Y-22560722D01*
X42241703Y-22560722D01*
G37*
D17*
X41402000Y-22860000D03*
D13*
G36*
X37291703Y-22560722D02*
G01*
X37306264Y-22562882D01*
X37320543Y-22566459D01*
X37334403Y-22571418D01*
X37347710Y-22577712D01*
X37360336Y-22585280D01*
X37372159Y-22594048D01*
X37383066Y-22603934D01*
X37392952Y-22614841D01*
X37401720Y-22626664D01*
X37409288Y-22639290D01*
X37415582Y-22652597D01*
X37420541Y-22666457D01*
X37424118Y-22680736D01*
X37426278Y-22695297D01*
X37427000Y-22710000D01*
X37427000Y-23010000D01*
X37426278Y-23024703D01*
X37424118Y-23039264D01*
X37420541Y-23053543D01*
X37415582Y-23067403D01*
X37409288Y-23080710D01*
X37401720Y-23093336D01*
X37392952Y-23105159D01*
X37383066Y-23116066D01*
X37372159Y-23125952D01*
X37360336Y-23134720D01*
X37347710Y-23142288D01*
X37334403Y-23148582D01*
X37320543Y-23153541D01*
X37306264Y-23157118D01*
X37291703Y-23159278D01*
X37277000Y-23160000D01*
X35627000Y-23160000D01*
X35612297Y-23159278D01*
X35597736Y-23157118D01*
X35583457Y-23153541D01*
X35569597Y-23148582D01*
X35556290Y-23142288D01*
X35543664Y-23134720D01*
X35531841Y-23125952D01*
X35520934Y-23116066D01*
X35511048Y-23105159D01*
X35502280Y-23093336D01*
X35494712Y-23080710D01*
X35488418Y-23067403D01*
X35483459Y-23053543D01*
X35479882Y-23039264D01*
X35477722Y-23024703D01*
X35477000Y-23010000D01*
X35477000Y-22710000D01*
X35477722Y-22695297D01*
X35479882Y-22680736D01*
X35483459Y-22666457D01*
X35488418Y-22652597D01*
X35494712Y-22639290D01*
X35502280Y-22626664D01*
X35511048Y-22614841D01*
X35520934Y-22603934D01*
X35531841Y-22594048D01*
X35543664Y-22585280D01*
X35556290Y-22577712D01*
X35569597Y-22571418D01*
X35583457Y-22566459D01*
X35597736Y-22562882D01*
X35612297Y-22560722D01*
X35627000Y-22560000D01*
X37277000Y-22560000D01*
X37291703Y-22560722D01*
X37291703Y-22560722D01*
G37*
D17*
X36452000Y-22860000D03*
D13*
G36*
X37291703Y-23830722D02*
G01*
X37306264Y-23832882D01*
X37320543Y-23836459D01*
X37334403Y-23841418D01*
X37347710Y-23847712D01*
X37360336Y-23855280D01*
X37372159Y-23864048D01*
X37383066Y-23873934D01*
X37392952Y-23884841D01*
X37401720Y-23896664D01*
X37409288Y-23909290D01*
X37415582Y-23922597D01*
X37420541Y-23936457D01*
X37424118Y-23950736D01*
X37426278Y-23965297D01*
X37427000Y-23980000D01*
X37427000Y-24280000D01*
X37426278Y-24294703D01*
X37424118Y-24309264D01*
X37420541Y-24323543D01*
X37415582Y-24337403D01*
X37409288Y-24350710D01*
X37401720Y-24363336D01*
X37392952Y-24375159D01*
X37383066Y-24386066D01*
X37372159Y-24395952D01*
X37360336Y-24404720D01*
X37347710Y-24412288D01*
X37334403Y-24418582D01*
X37320543Y-24423541D01*
X37306264Y-24427118D01*
X37291703Y-24429278D01*
X37277000Y-24430000D01*
X35627000Y-24430000D01*
X35612297Y-24429278D01*
X35597736Y-24427118D01*
X35583457Y-24423541D01*
X35569597Y-24418582D01*
X35556290Y-24412288D01*
X35543664Y-24404720D01*
X35531841Y-24395952D01*
X35520934Y-24386066D01*
X35511048Y-24375159D01*
X35502280Y-24363336D01*
X35494712Y-24350710D01*
X35488418Y-24337403D01*
X35483459Y-24323543D01*
X35479882Y-24309264D01*
X35477722Y-24294703D01*
X35477000Y-24280000D01*
X35477000Y-23980000D01*
X35477722Y-23965297D01*
X35479882Y-23950736D01*
X35483459Y-23936457D01*
X35488418Y-23922597D01*
X35494712Y-23909290D01*
X35502280Y-23896664D01*
X35511048Y-23884841D01*
X35520934Y-23873934D01*
X35531841Y-23864048D01*
X35543664Y-23855280D01*
X35556290Y-23847712D01*
X35569597Y-23841418D01*
X35583457Y-23836459D01*
X35597736Y-23832882D01*
X35612297Y-23830722D01*
X35627000Y-23830000D01*
X37277000Y-23830000D01*
X37291703Y-23830722D01*
X37291703Y-23830722D01*
G37*
D17*
X36452000Y-24130000D03*
D13*
G36*
X37291703Y-25100722D02*
G01*
X37306264Y-25102882D01*
X37320543Y-25106459D01*
X37334403Y-25111418D01*
X37347710Y-25117712D01*
X37360336Y-25125280D01*
X37372159Y-25134048D01*
X37383066Y-25143934D01*
X37392952Y-25154841D01*
X37401720Y-25166664D01*
X37409288Y-25179290D01*
X37415582Y-25192597D01*
X37420541Y-25206457D01*
X37424118Y-25220736D01*
X37426278Y-25235297D01*
X37427000Y-25250000D01*
X37427000Y-25550000D01*
X37426278Y-25564703D01*
X37424118Y-25579264D01*
X37420541Y-25593543D01*
X37415582Y-25607403D01*
X37409288Y-25620710D01*
X37401720Y-25633336D01*
X37392952Y-25645159D01*
X37383066Y-25656066D01*
X37372159Y-25665952D01*
X37360336Y-25674720D01*
X37347710Y-25682288D01*
X37334403Y-25688582D01*
X37320543Y-25693541D01*
X37306264Y-25697118D01*
X37291703Y-25699278D01*
X37277000Y-25700000D01*
X35627000Y-25700000D01*
X35612297Y-25699278D01*
X35597736Y-25697118D01*
X35583457Y-25693541D01*
X35569597Y-25688582D01*
X35556290Y-25682288D01*
X35543664Y-25674720D01*
X35531841Y-25665952D01*
X35520934Y-25656066D01*
X35511048Y-25645159D01*
X35502280Y-25633336D01*
X35494712Y-25620710D01*
X35488418Y-25607403D01*
X35483459Y-25593543D01*
X35479882Y-25579264D01*
X35477722Y-25564703D01*
X35477000Y-25550000D01*
X35477000Y-25250000D01*
X35477722Y-25235297D01*
X35479882Y-25220736D01*
X35483459Y-25206457D01*
X35488418Y-25192597D01*
X35494712Y-25179290D01*
X35502280Y-25166664D01*
X35511048Y-25154841D01*
X35520934Y-25143934D01*
X35531841Y-25134048D01*
X35543664Y-25125280D01*
X35556290Y-25117712D01*
X35569597Y-25111418D01*
X35583457Y-25106459D01*
X35597736Y-25102882D01*
X35612297Y-25100722D01*
X35627000Y-25100000D01*
X37277000Y-25100000D01*
X37291703Y-25100722D01*
X37291703Y-25100722D01*
G37*
D17*
X36452000Y-25400000D03*
D13*
G36*
X37291703Y-26370722D02*
G01*
X37306264Y-26372882D01*
X37320543Y-26376459D01*
X37334403Y-26381418D01*
X37347710Y-26387712D01*
X37360336Y-26395280D01*
X37372159Y-26404048D01*
X37383066Y-26413934D01*
X37392952Y-26424841D01*
X37401720Y-26436664D01*
X37409288Y-26449290D01*
X37415582Y-26462597D01*
X37420541Y-26476457D01*
X37424118Y-26490736D01*
X37426278Y-26505297D01*
X37427000Y-26520000D01*
X37427000Y-26820000D01*
X37426278Y-26834703D01*
X37424118Y-26849264D01*
X37420541Y-26863543D01*
X37415582Y-26877403D01*
X37409288Y-26890710D01*
X37401720Y-26903336D01*
X37392952Y-26915159D01*
X37383066Y-26926066D01*
X37372159Y-26935952D01*
X37360336Y-26944720D01*
X37347710Y-26952288D01*
X37334403Y-26958582D01*
X37320543Y-26963541D01*
X37306264Y-26967118D01*
X37291703Y-26969278D01*
X37277000Y-26970000D01*
X35627000Y-26970000D01*
X35612297Y-26969278D01*
X35597736Y-26967118D01*
X35583457Y-26963541D01*
X35569597Y-26958582D01*
X35556290Y-26952288D01*
X35543664Y-26944720D01*
X35531841Y-26935952D01*
X35520934Y-26926066D01*
X35511048Y-26915159D01*
X35502280Y-26903336D01*
X35494712Y-26890710D01*
X35488418Y-26877403D01*
X35483459Y-26863543D01*
X35479882Y-26849264D01*
X35477722Y-26834703D01*
X35477000Y-26820000D01*
X35477000Y-26520000D01*
X35477722Y-26505297D01*
X35479882Y-26490736D01*
X35483459Y-26476457D01*
X35488418Y-26462597D01*
X35494712Y-26449290D01*
X35502280Y-26436664D01*
X35511048Y-26424841D01*
X35520934Y-26413934D01*
X35531841Y-26404048D01*
X35543664Y-26395280D01*
X35556290Y-26387712D01*
X35569597Y-26381418D01*
X35583457Y-26376459D01*
X35597736Y-26372882D01*
X35612297Y-26370722D01*
X35627000Y-26370000D01*
X37277000Y-26370000D01*
X37291703Y-26370722D01*
X37291703Y-26370722D01*
G37*
D17*
X36452000Y-26670000D03*
D13*
G36*
X31081505Y-16571204D02*
G01*
X31105773Y-16574804D01*
X31129572Y-16580765D01*
X31152671Y-16589030D01*
X31174850Y-16599520D01*
X31195893Y-16612132D01*
X31215599Y-16626747D01*
X31233777Y-16643223D01*
X31250253Y-16661401D01*
X31264868Y-16681107D01*
X31277480Y-16702150D01*
X31287970Y-16724329D01*
X31296235Y-16747428D01*
X31302196Y-16771227D01*
X31305796Y-16795495D01*
X31307000Y-16819999D01*
X31307000Y-17470001D01*
X31305796Y-17494505D01*
X31302196Y-17518773D01*
X31296235Y-17542572D01*
X31287970Y-17565671D01*
X31277480Y-17587850D01*
X31264868Y-17608893D01*
X31250253Y-17628599D01*
X31233777Y-17646777D01*
X31215599Y-17663253D01*
X31195893Y-17677868D01*
X31174850Y-17690480D01*
X31152671Y-17700970D01*
X31129572Y-17709235D01*
X31105773Y-17715196D01*
X31081505Y-17718796D01*
X31057001Y-17720000D01*
X30156999Y-17720000D01*
X30132495Y-17718796D01*
X30108227Y-17715196D01*
X30084428Y-17709235D01*
X30061329Y-17700970D01*
X30039150Y-17690480D01*
X30018107Y-17677868D01*
X29998401Y-17663253D01*
X29980223Y-17646777D01*
X29963747Y-17628599D01*
X29949132Y-17608893D01*
X29936520Y-17587850D01*
X29926030Y-17565671D01*
X29917765Y-17542572D01*
X29911804Y-17518773D01*
X29908204Y-17494505D01*
X29907000Y-17470001D01*
X29907000Y-16819999D01*
X29908204Y-16795495D01*
X29911804Y-16771227D01*
X29917765Y-16747428D01*
X29926030Y-16724329D01*
X29936520Y-16702150D01*
X29949132Y-16681107D01*
X29963747Y-16661401D01*
X29980223Y-16643223D01*
X29998401Y-16626747D01*
X30018107Y-16612132D01*
X30039150Y-16599520D01*
X30061329Y-16589030D01*
X30084428Y-16580765D01*
X30108227Y-16574804D01*
X30132495Y-16571204D01*
X30156999Y-16570000D01*
X31057001Y-16570000D01*
X31081505Y-16571204D01*
X31081505Y-16571204D01*
G37*
D14*
X30607000Y-17145000D03*
D13*
G36*
X31081505Y-18621204D02*
G01*
X31105773Y-18624804D01*
X31129572Y-18630765D01*
X31152671Y-18639030D01*
X31174850Y-18649520D01*
X31195893Y-18662132D01*
X31215599Y-18676747D01*
X31233777Y-18693223D01*
X31250253Y-18711401D01*
X31264868Y-18731107D01*
X31277480Y-18752150D01*
X31287970Y-18774329D01*
X31296235Y-18797428D01*
X31302196Y-18821227D01*
X31305796Y-18845495D01*
X31307000Y-18869999D01*
X31307000Y-19520001D01*
X31305796Y-19544505D01*
X31302196Y-19568773D01*
X31296235Y-19592572D01*
X31287970Y-19615671D01*
X31277480Y-19637850D01*
X31264868Y-19658893D01*
X31250253Y-19678599D01*
X31233777Y-19696777D01*
X31215599Y-19713253D01*
X31195893Y-19727868D01*
X31174850Y-19740480D01*
X31152671Y-19750970D01*
X31129572Y-19759235D01*
X31105773Y-19765196D01*
X31081505Y-19768796D01*
X31057001Y-19770000D01*
X30156999Y-19770000D01*
X30132495Y-19768796D01*
X30108227Y-19765196D01*
X30084428Y-19759235D01*
X30061329Y-19750970D01*
X30039150Y-19740480D01*
X30018107Y-19727868D01*
X29998401Y-19713253D01*
X29980223Y-19696777D01*
X29963747Y-19678599D01*
X29949132Y-19658893D01*
X29936520Y-19637850D01*
X29926030Y-19615671D01*
X29917765Y-19592572D01*
X29911804Y-19568773D01*
X29908204Y-19544505D01*
X29907000Y-19520001D01*
X29907000Y-18869999D01*
X29908204Y-18845495D01*
X29911804Y-18821227D01*
X29917765Y-18797428D01*
X29926030Y-18774329D01*
X29936520Y-18752150D01*
X29949132Y-18731107D01*
X29963747Y-18711401D01*
X29980223Y-18693223D01*
X29998401Y-18676747D01*
X30018107Y-18662132D01*
X30039150Y-18649520D01*
X30061329Y-18639030D01*
X30084428Y-18630765D01*
X30108227Y-18624804D01*
X30132495Y-18621204D01*
X30156999Y-18620000D01*
X31057001Y-18620000D01*
X31081505Y-18621204D01*
X31081505Y-18621204D01*
G37*
D14*
X30607000Y-19195000D03*
D18*
X22479000Y-19304000D03*
X22479000Y-16764000D03*
X25019000Y-19304000D03*
X25019000Y-16764000D03*
X27559000Y-19304000D03*
D12*
X27559000Y-16764000D03*
D19*
X41402000Y-20193000D03*
X40767000Y-29337000D03*
X36449000Y-25400000D03*
X27940000Y-26162000D03*
X32639000Y-31623000D03*
X43180000Y-32512000D03*
X43561000Y-22860000D03*
X15240000Y-20320000D03*
X15240000Y-25400000D03*
X20320000Y-20320000D03*
X20320000Y-15240000D03*
X30480000Y-15240000D03*
X35560000Y-15240000D03*
X40640000Y-15240000D03*
X25000000Y-36500000D03*
X30480000Y-35560000D03*
X40640000Y-35560000D03*
X45720000Y-35560000D03*
X29083000Y-30099000D03*
X28321000Y-29210000D03*
X27432000Y-28321000D03*
X40767000Y-31623000D03*
X38100000Y-31623000D03*
X34671000Y-31623000D03*
X27940000Y-24130000D03*
X18000000Y-24500000D03*
X24130000Y-30734000D03*
X24130000Y-32766000D03*
X30734000Y-31623000D03*
X34417000Y-23495000D03*
X33528000Y-25273000D03*
X26416000Y-22479000D03*
X36449000Y-22860000D03*
X36449000Y-26670000D03*
X24003000Y-24130000D03*
X32004000Y-24638000D03*
X20320000Y-30480000D03*
D20*
X27940000Y-24130000D02*
X29332000Y-24130000D01*
X29332000Y-24130000D02*
X31202001Y-26000001D01*
X31202001Y-26000001D02*
X32864079Y-26000001D01*
X34417000Y-27552922D02*
X34417000Y-31623000D01*
X32864079Y-26000001D02*
X34417000Y-27552922D01*
X27668000Y-19195000D02*
X27559000Y-19304000D01*
X30607000Y-19195000D02*
X27668000Y-19195000D01*
X34417000Y-25025078D02*
X34417000Y-29215000D01*
X28885843Y-19304000D02*
X27559000Y-19304000D01*
X34417000Y-24835157D02*
X28885843Y-19304000D01*
X34417000Y-25190000D02*
X34417000Y-24835157D01*
X34417000Y-29215000D02*
X34417000Y-31623000D01*
D21*
X40767000Y-31623000D02*
X34417000Y-31623000D01*
D20*
X34417000Y-24701080D02*
X34417000Y-29215000D01*
X36452000Y-24130000D02*
X34988080Y-24130000D01*
X34988080Y-24130000D02*
X34417000Y-24701080D01*
X37982000Y-23575000D02*
X37427000Y-24130000D01*
X37427000Y-24130000D02*
X36452000Y-24130000D01*
X37982000Y-20701000D02*
X37982000Y-23575000D01*
X27085999Y-24984001D02*
X18484001Y-24984001D01*
X27940000Y-24130000D02*
X27085999Y-24984001D01*
X18484001Y-24984001D02*
X18000000Y-24500000D01*
X18000000Y-24500000D02*
X18000000Y-24500000D01*
D22*
X44958000Y-25400000D02*
X45593000Y-26035000D01*
X41402000Y-25400000D02*
X44958000Y-25400000D01*
X47761000Y-26035000D02*
X48006000Y-25790000D01*
X45593000Y-26035000D02*
X47761000Y-26035000D01*
X44998000Y-24130000D02*
X45593000Y-23535000D01*
X41402000Y-24130000D02*
X44998000Y-24130000D01*
X47801000Y-23535000D02*
X48006000Y-23740000D01*
X45593000Y-23535000D02*
X47801000Y-23535000D01*
D23*
X42352000Y-33923000D02*
X40717000Y-33923000D01*
X45593000Y-31885000D02*
X43555000Y-33923000D01*
X43555000Y-33923000D02*
X42352000Y-33923000D01*
X45593000Y-31035000D02*
X45593000Y-31885000D01*
X33004000Y-33923000D02*
X31369000Y-33923000D01*
X34389000Y-35308000D02*
X33004000Y-33923000D01*
X37697000Y-35308000D02*
X34389000Y-35308000D01*
X39082000Y-33923000D02*
X37697000Y-35308000D01*
X40717000Y-33923000D02*
X39082000Y-33923000D01*
D21*
X31369000Y-31623000D02*
X25069000Y-31623000D01*
D22*
X23328999Y-15914001D02*
X22479000Y-16764000D01*
X23654001Y-15588999D02*
X23328999Y-15914001D01*
X29625999Y-15588999D02*
X23654001Y-15588999D01*
X30607000Y-16570000D02*
X29625999Y-15588999D01*
X30607000Y-17145000D02*
X30607000Y-16570000D01*
X30607000Y-17145000D02*
X31307000Y-17145000D01*
X34417000Y-23495000D02*
X34417000Y-23495000D01*
X31307000Y-17145000D02*
X34417000Y-20255000D01*
X34417000Y-20255000D02*
X34417000Y-23495000D01*
X33001001Y-24746001D02*
X33528000Y-25273000D01*
X33001001Y-24238000D02*
X33001001Y-24746001D01*
X29242002Y-20479001D02*
X33001001Y-24238000D01*
X26194001Y-20479001D02*
X29242002Y-20479001D01*
X25019000Y-19304000D02*
X26194001Y-20479001D01*
X25583001Y-18128999D02*
X24454999Y-18128999D01*
X26383999Y-17328001D02*
X25583001Y-18128999D01*
X24454999Y-18128999D02*
X23843999Y-18739999D01*
X26383999Y-16839001D02*
X26383999Y-17328001D01*
X26459000Y-16764000D02*
X26383999Y-16839001D01*
X27559000Y-16764000D02*
X26459000Y-16764000D01*
X23843999Y-19906999D02*
X26416000Y-22479000D01*
X23843999Y-18739999D02*
X23843999Y-19906999D01*
X24728001Y-23404999D02*
X24003000Y-24130000D01*
X30258841Y-24238001D02*
X29425839Y-23404999D01*
X31604001Y-24238001D02*
X30258841Y-24238001D01*
X32004000Y-24638000D02*
X31604001Y-24238001D01*
X29425839Y-23404999D02*
X24728001Y-23404999D01*
D20*
G36*
X46755926Y-13307094D02*
G01*
X47511670Y-13520236D01*
X48215914Y-13867531D01*
X48845073Y-14337346D01*
X49378086Y-14913956D01*
X49797091Y-15578039D01*
X50088059Y-16307357D01*
X50243305Y-17087828D01*
X50267001Y-17539984D01*
X50267000Y-33249564D01*
X50192906Y-34055926D01*
X49979763Y-34811672D01*
X49632469Y-35515914D01*
X49162651Y-36145076D01*
X48586045Y-36678086D01*
X47921965Y-37097088D01*
X47192644Y-37388059D01*
X46412172Y-37543305D01*
X45960034Y-37567000D01*
X17550436Y-37567000D01*
X16744074Y-37492906D01*
X15988328Y-37279763D01*
X15284086Y-36932469D01*
X14654924Y-36462651D01*
X14121914Y-35886045D01*
X13702912Y-35221965D01*
X13411941Y-34492644D01*
X13256695Y-33712172D01*
X13233000Y-33260034D01*
X13233000Y-33045522D01*
X15206224Y-33045522D01*
X15206224Y-33502478D01*
X15295372Y-33950654D01*
X15470242Y-34372826D01*
X15724113Y-34752771D01*
X16047229Y-35075887D01*
X16427174Y-35329758D01*
X16849346Y-35504628D01*
X17297522Y-35593776D01*
X17754478Y-35593776D01*
X18202654Y-35504628D01*
X18624826Y-35329758D01*
X19004771Y-35075887D01*
X19327887Y-34752771D01*
X19579543Y-34376141D01*
X19579543Y-35690000D01*
X19589351Y-35789585D01*
X19618399Y-35885343D01*
X19665571Y-35973595D01*
X19729052Y-36050948D01*
X19806405Y-36114429D01*
X19894657Y-36161601D01*
X19990415Y-36190649D01*
X20090000Y-36200457D01*
X21790000Y-36200457D01*
X21889585Y-36190649D01*
X21985343Y-36161601D01*
X22073595Y-36114429D01*
X22150948Y-36050948D01*
X22214429Y-35973595D01*
X22261601Y-35885343D01*
X22290649Y-35789585D01*
X22300457Y-35690000D01*
X22300457Y-33990000D01*
X22290649Y-33890415D01*
X22261601Y-33794657D01*
X22214429Y-33706405D01*
X22150948Y-33629052D01*
X22073595Y-33565571D01*
X21985343Y-33518399D01*
X21889585Y-33489351D01*
X21790000Y-33479543D01*
X20090000Y-33479543D01*
X19990415Y-33489351D01*
X19894657Y-33518399D01*
X19836417Y-33549529D01*
X19845776Y-33502478D01*
X19845776Y-33045522D01*
X19756628Y-32597346D01*
X19581758Y-32175174D01*
X19327887Y-31795229D01*
X19004771Y-31472113D01*
X18624826Y-31218242D01*
X18202654Y-31043372D01*
X17754478Y-30954224D01*
X17297522Y-30954224D01*
X16849346Y-31043372D01*
X16427174Y-31218242D01*
X16047229Y-31472113D01*
X15724113Y-31795229D01*
X15470242Y-32175174D01*
X15295372Y-32597346D01*
X15206224Y-33045522D01*
X13233000Y-33045522D01*
X13233000Y-28360000D01*
X15149543Y-28360000D01*
X15149543Y-30060000D01*
X15159351Y-30159585D01*
X15188399Y-30255343D01*
X15235571Y-30343595D01*
X15299052Y-30420948D01*
X15376405Y-30484429D01*
X15464657Y-30531601D01*
X15560415Y-30560649D01*
X15660000Y-30570457D01*
X17360000Y-30570457D01*
X17459585Y-30560649D01*
X17555343Y-30531601D01*
X17643595Y-30484429D01*
X17720948Y-30420948D01*
X17745878Y-30390570D01*
X19412000Y-30390570D01*
X19412000Y-30569430D01*
X19446894Y-30744854D01*
X19515341Y-30910099D01*
X19614711Y-31058816D01*
X19741184Y-31185289D01*
X19889901Y-31284659D01*
X20055146Y-31353106D01*
X20230570Y-31388000D01*
X20409430Y-31388000D01*
X20584854Y-31353106D01*
X20750099Y-31284659D01*
X20898816Y-31185289D01*
X21025289Y-31058816D01*
X21124659Y-30910099D01*
X21193106Y-30744854D01*
X21228000Y-30569430D01*
X21228000Y-30390570D01*
X21193106Y-30215146D01*
X21124659Y-30049901D01*
X21025289Y-29901184D01*
X20898816Y-29774711D01*
X20750099Y-29675341D01*
X20584854Y-29606894D01*
X20409430Y-29572000D01*
X20230570Y-29572000D01*
X20055146Y-29606894D01*
X19889901Y-29675341D01*
X19741184Y-29774711D01*
X19614711Y-29901184D01*
X19515341Y-30049901D01*
X19446894Y-30215146D01*
X19412000Y-30390570D01*
X17745878Y-30390570D01*
X17784429Y-30343595D01*
X17831601Y-30255343D01*
X17860649Y-30159585D01*
X17870457Y-30060000D01*
X17870457Y-28573000D01*
X28968313Y-28573000D01*
X28972000Y-28751500D01*
X29162500Y-28942000D01*
X30353000Y-28942000D01*
X30353000Y-28001500D01*
X31115000Y-28001500D01*
X31115000Y-28942000D01*
X32305500Y-28942000D01*
X32496000Y-28751500D01*
X32499687Y-28573000D01*
X32484975Y-28423622D01*
X32441403Y-28279984D01*
X32370645Y-28147607D01*
X32275422Y-28031578D01*
X32159393Y-27936355D01*
X32027016Y-27865597D01*
X31883378Y-27822025D01*
X31734000Y-27807313D01*
X31305500Y-27811000D01*
X31115000Y-28001500D01*
X30353000Y-28001500D01*
X30162500Y-27811000D01*
X29734000Y-27807313D01*
X29584622Y-27822025D01*
X29440984Y-27865597D01*
X29308607Y-27936355D01*
X29192578Y-28031578D01*
X29097355Y-28147607D01*
X29026597Y-28279984D01*
X28983025Y-28423622D01*
X28968313Y-28573000D01*
X17870457Y-28573000D01*
X17870457Y-28360000D01*
X17860649Y-28260415D01*
X17831601Y-28164657D01*
X17784429Y-28076405D01*
X17720948Y-27999052D01*
X17643595Y-27935571D01*
X17555343Y-27888399D01*
X17459585Y-27859351D01*
X17360000Y-27849543D01*
X15660000Y-27849543D01*
X15560415Y-27859351D01*
X15464657Y-27888399D01*
X15376405Y-27935571D01*
X15299052Y-27999052D01*
X15235571Y-28076405D01*
X15188399Y-28164657D01*
X15159351Y-28260415D01*
X15149543Y-28360000D01*
X13233000Y-28360000D01*
X13233000Y-24410570D01*
X17092000Y-24410570D01*
X17092000Y-24589430D01*
X17126894Y-24764854D01*
X17195341Y-24930099D01*
X17294711Y-25078816D01*
X17421184Y-25205289D01*
X17569901Y-25304659D01*
X17735146Y-25373106D01*
X17810456Y-25388086D01*
X17918717Y-25496347D01*
X17942579Y-25525423D01*
X18002513Y-25574609D01*
X18058608Y-25620646D01*
X18101197Y-25643410D01*
X18190986Y-25691403D01*
X18334623Y-25734975D01*
X18446575Y-25746001D01*
X18446578Y-25746001D01*
X18484001Y-25749687D01*
X18521424Y-25746001D01*
X27048576Y-25746001D01*
X27085999Y-25749687D01*
X27123422Y-25746001D01*
X27123425Y-25746001D01*
X27235377Y-25734975D01*
X27379014Y-25691403D01*
X27511391Y-25620646D01*
X27627421Y-25525423D01*
X27651283Y-25496348D01*
X28129545Y-25018086D01*
X28204854Y-25003106D01*
X28370099Y-24934659D01*
X28433942Y-24892000D01*
X29016370Y-24892000D01*
X30636721Y-26512352D01*
X30660579Y-26541423D01*
X30689649Y-26565280D01*
X30776608Y-26636646D01*
X30818131Y-26658840D01*
X30908986Y-26707403D01*
X31052623Y-26750975D01*
X31164575Y-26762001D01*
X31164578Y-26762001D01*
X31202001Y-26765687D01*
X31239424Y-26762001D01*
X32548449Y-26762001D01*
X33655000Y-27868553D01*
X33655000Y-29212543D01*
X33417000Y-29212543D01*
X33317415Y-29222351D01*
X33221657Y-29251399D01*
X33133405Y-29298571D01*
X33056052Y-29362052D01*
X32992571Y-29439405D01*
X32945399Y-29527657D01*
X32916351Y-29623415D01*
X32906543Y-29723000D01*
X32906543Y-33097500D01*
X32237021Y-33097500D01*
X32234649Y-33073415D01*
X32205601Y-32977657D01*
X32158429Y-32889405D01*
X32094948Y-32812052D01*
X32047362Y-32773000D01*
X32094948Y-32733948D01*
X32158429Y-32656595D01*
X32205601Y-32568343D01*
X32234649Y-32472585D01*
X32244457Y-32373000D01*
X32244457Y-32357973D01*
X32323968Y-32261089D01*
X32430103Y-32062523D01*
X32495461Y-31847067D01*
X32517530Y-31623000D01*
X32495461Y-31398933D01*
X32430103Y-31183477D01*
X32323968Y-30984911D01*
X32244457Y-30888027D01*
X32244457Y-30873000D01*
X32234649Y-30773415D01*
X32205601Y-30677657D01*
X32203396Y-30673532D01*
X32275422Y-30614422D01*
X32370645Y-30498393D01*
X32441403Y-30366016D01*
X32484975Y-30222378D01*
X32499687Y-30073000D01*
X32496000Y-29894500D01*
X32305500Y-29704000D01*
X31115000Y-29704000D01*
X31115000Y-29724000D01*
X30353000Y-29724000D01*
X30353000Y-29704000D01*
X29162500Y-29704000D01*
X28972000Y-29894500D01*
X28968313Y-30073000D01*
X28983025Y-30222378D01*
X29026597Y-30366016D01*
X29087524Y-30480000D01*
X25944457Y-30480000D01*
X25944457Y-29723000D01*
X25934649Y-29623415D01*
X25905601Y-29527657D01*
X25858429Y-29439405D01*
X25794948Y-29362052D01*
X25717595Y-29298571D01*
X25629343Y-29251399D01*
X25533585Y-29222351D01*
X25434000Y-29212543D01*
X23434000Y-29212543D01*
X23334415Y-29222351D01*
X23238657Y-29251399D01*
X23150405Y-29298571D01*
X23073052Y-29362052D01*
X23009571Y-29439405D01*
X22962399Y-29527657D01*
X22933351Y-29623415D01*
X22923543Y-29723000D01*
X22923543Y-33523000D01*
X22933351Y-33622585D01*
X22962399Y-33718343D01*
X23009571Y-33806595D01*
X23073052Y-33883948D01*
X23150405Y-33947429D01*
X23238657Y-33994601D01*
X23334415Y-34023649D01*
X23434000Y-34033457D01*
X25434000Y-34033457D01*
X25533585Y-34023649D01*
X25629343Y-33994601D01*
X25717595Y-33947429D01*
X25794948Y-33883948D01*
X25858429Y-33806595D01*
X25905601Y-33718343D01*
X25934649Y-33622585D01*
X25944457Y-33523000D01*
X25944457Y-32766000D01*
X29412108Y-32766000D01*
X29420638Y-32773000D01*
X29373052Y-32812052D01*
X29309571Y-32889405D01*
X29262399Y-32977657D01*
X29233351Y-33073415D01*
X29223543Y-33173000D01*
X29223543Y-34673000D01*
X29233351Y-34772585D01*
X29262399Y-34868343D01*
X29309571Y-34956595D01*
X29373052Y-35033948D01*
X29450405Y-35097429D01*
X29538657Y-35144601D01*
X29634415Y-35173649D01*
X29734000Y-35183457D01*
X31734000Y-35183457D01*
X31833585Y-35173649D01*
X31929343Y-35144601D01*
X32017595Y-35097429D01*
X32094948Y-35033948D01*
X32158429Y-34956595D01*
X32205601Y-34868343D01*
X32234649Y-34772585D01*
X32237021Y-34748500D01*
X32662068Y-34748500D01*
X33776611Y-35863045D01*
X33802459Y-35894541D01*
X33833955Y-35920389D01*
X33833958Y-35920392D01*
X33928157Y-35997699D01*
X34071566Y-36074353D01*
X34227174Y-36121556D01*
X34348447Y-36133500D01*
X34348449Y-36133500D01*
X34389000Y-36137494D01*
X34429550Y-36133500D01*
X37656450Y-36133500D01*
X37697000Y-36137494D01*
X37737550Y-36133500D01*
X37737553Y-36133500D01*
X37858826Y-36121556D01*
X38014434Y-36074353D01*
X38157842Y-35997699D01*
X38283541Y-35894541D01*
X38309398Y-35863034D01*
X39265843Y-34906591D01*
X39292571Y-34956595D01*
X39356052Y-35033948D01*
X39433405Y-35097429D01*
X39521657Y-35144601D01*
X39617415Y-35173649D01*
X39717000Y-35183457D01*
X41717000Y-35183457D01*
X41816585Y-35173649D01*
X41912343Y-35144601D01*
X42000595Y-35097429D01*
X42077948Y-35033948D01*
X42141429Y-34956595D01*
X42188601Y-34868343D01*
X42217649Y-34772585D01*
X42220021Y-34748500D01*
X43514450Y-34748500D01*
X43555000Y-34752494D01*
X43595550Y-34748500D01*
X43595553Y-34748500D01*
X43716826Y-34736556D01*
X43872434Y-34689353D01*
X44015842Y-34612699D01*
X44141541Y-34509541D01*
X44167398Y-34478034D01*
X46148039Y-32497394D01*
X46179541Y-32471541D01*
X46241981Y-32395457D01*
X46318000Y-32395457D01*
X46466358Y-32380845D01*
X46609014Y-32337571D01*
X46740487Y-32267297D01*
X46855724Y-32172724D01*
X46950297Y-32057487D01*
X47020571Y-31926014D01*
X47063845Y-31783358D01*
X47078457Y-31635000D01*
X47078457Y-30435000D01*
X47063845Y-30286642D01*
X47020571Y-30143986D01*
X46950297Y-30012513D01*
X46855724Y-29897276D01*
X46740487Y-29802703D01*
X46710141Y-29786482D01*
X46762589Y-29749662D01*
X46979486Y-29522533D01*
X47147905Y-29257454D01*
X47205442Y-29156337D01*
X47087489Y-28916000D01*
X45974000Y-28916000D01*
X45974000Y-28936000D01*
X45212000Y-28936000D01*
X45212000Y-28916000D01*
X44098511Y-28916000D01*
X43980558Y-29156337D01*
X44038095Y-29257454D01*
X44206514Y-29522533D01*
X44423411Y-29749662D01*
X44475859Y-29786482D01*
X44445513Y-29802703D01*
X44330276Y-29897276D01*
X44235703Y-30012513D01*
X44165429Y-30143986D01*
X44122155Y-30286642D01*
X44107543Y-30435000D01*
X44107543Y-31635000D01*
X44122155Y-31783358D01*
X44165429Y-31926014D01*
X44235703Y-32057487D01*
X44243536Y-32067031D01*
X43213068Y-33097500D01*
X42220021Y-33097500D01*
X42217649Y-33073415D01*
X42188601Y-32977657D01*
X42141429Y-32889405D01*
X42077948Y-32812052D01*
X42030362Y-32773000D01*
X42077948Y-32733948D01*
X42141429Y-32656595D01*
X42188601Y-32568343D01*
X42217649Y-32472585D01*
X42227457Y-32373000D01*
X42227457Y-30873000D01*
X42217649Y-30773415D01*
X42188601Y-30677657D01*
X42186396Y-30673532D01*
X42258422Y-30614422D01*
X42353645Y-30498393D01*
X42424403Y-30366016D01*
X42467975Y-30222378D01*
X42482687Y-30073000D01*
X42479000Y-29894500D01*
X42288500Y-29704000D01*
X41098000Y-29704000D01*
X41098000Y-29724000D01*
X40336000Y-29724000D01*
X40336000Y-29704000D01*
X39145500Y-29704000D01*
X38955000Y-29894500D01*
X38951313Y-30073000D01*
X38966025Y-30222378D01*
X39009597Y-30366016D01*
X39070524Y-30480000D01*
X35927457Y-30480000D01*
X35927457Y-29723000D01*
X35917649Y-29623415D01*
X35888601Y-29527657D01*
X35841429Y-29439405D01*
X35777948Y-29362052D01*
X35700595Y-29298571D01*
X35612343Y-29251399D01*
X35516585Y-29222351D01*
X35417000Y-29212543D01*
X35179000Y-29212543D01*
X35179000Y-28573000D01*
X38951313Y-28573000D01*
X38955000Y-28751500D01*
X39145500Y-28942000D01*
X40336000Y-28942000D01*
X40336000Y-28001500D01*
X41098000Y-28001500D01*
X41098000Y-28942000D01*
X42288500Y-28942000D01*
X42479000Y-28751500D01*
X42482687Y-28573000D01*
X42467975Y-28423622D01*
X42424403Y-28279984D01*
X42353645Y-28147607D01*
X42258422Y-28031578D01*
X42142393Y-27936355D01*
X42010016Y-27865597D01*
X41866378Y-27822025D01*
X41717000Y-27807313D01*
X41288500Y-27811000D01*
X41098000Y-28001500D01*
X40336000Y-28001500D01*
X40145500Y-27811000D01*
X39717000Y-27807313D01*
X39567622Y-27822025D01*
X39423984Y-27865597D01*
X39291607Y-27936355D01*
X39175578Y-28031578D01*
X39080355Y-28147607D01*
X39009597Y-28279984D01*
X38966025Y-28423622D01*
X38951313Y-28573000D01*
X35179000Y-28573000D01*
X35179000Y-27590345D01*
X35182686Y-27552922D01*
X35179000Y-27515496D01*
X35179000Y-27302618D01*
X35260070Y-27369150D01*
X35374254Y-27430183D01*
X35498151Y-27467767D01*
X35627000Y-27480457D01*
X36032899Y-27480457D01*
X36184146Y-27543106D01*
X36359570Y-27578000D01*
X36538430Y-27578000D01*
X36713854Y-27543106D01*
X36865101Y-27480457D01*
X37277000Y-27480457D01*
X37405849Y-27467767D01*
X37529746Y-27430183D01*
X37643930Y-27369150D01*
X37744014Y-27287014D01*
X37826150Y-27186930D01*
X37887183Y-27072746D01*
X37918350Y-26970000D01*
X39661313Y-26970000D01*
X39676025Y-27119378D01*
X39719597Y-27263016D01*
X39790355Y-27395393D01*
X39885578Y-27511422D01*
X40001607Y-27606645D01*
X40133984Y-27677403D01*
X40277622Y-27720975D01*
X40427000Y-27735687D01*
X40830500Y-27732000D01*
X41021000Y-27541500D01*
X41021000Y-26716000D01*
X41783000Y-26716000D01*
X41783000Y-27541500D01*
X41973500Y-27732000D01*
X42377000Y-27735687D01*
X42526378Y-27720975D01*
X42670016Y-27677403D01*
X42802393Y-27606645D01*
X42918422Y-27511422D01*
X43013645Y-27395393D01*
X43084403Y-27263016D01*
X43127975Y-27119378D01*
X43142687Y-26970000D01*
X43139000Y-26906500D01*
X42948500Y-26716000D01*
X41783000Y-26716000D01*
X41021000Y-26716000D01*
X39855500Y-26716000D01*
X39665000Y-26906500D01*
X39661313Y-26970000D01*
X37918350Y-26970000D01*
X37924767Y-26948849D01*
X37937457Y-26820000D01*
X37937457Y-26520000D01*
X37924767Y-26391151D01*
X37918351Y-26370000D01*
X39661313Y-26370000D01*
X39665000Y-26433500D01*
X39855500Y-26624000D01*
X41021000Y-26624000D01*
X41021000Y-26370000D01*
X41783000Y-26370000D01*
X41783000Y-26624000D01*
X42948500Y-26624000D01*
X43139000Y-26433500D01*
X43142687Y-26370000D01*
X43127975Y-26220622D01*
X43084403Y-26076984D01*
X43060893Y-26033000D01*
X44103627Y-26033000D01*
X44103430Y-26035000D01*
X44129650Y-26301214D01*
X44207302Y-26557198D01*
X44333402Y-26793114D01*
X44503103Y-26999897D01*
X44676804Y-27142448D01*
X44423411Y-27320338D01*
X44206514Y-27547467D01*
X44038095Y-27812546D01*
X43980558Y-27913663D01*
X44098511Y-28154000D01*
X45212000Y-28154000D01*
X45212000Y-28134000D01*
X45974000Y-28134000D01*
X45974000Y-28154000D01*
X47087489Y-28154000D01*
X47205442Y-27913663D01*
X47147905Y-27812546D01*
X46979486Y-27547467D01*
X46762589Y-27320338D01*
X46509196Y-27142448D01*
X46682897Y-26999897D01*
X46852598Y-26793114D01*
X46919473Y-26668000D01*
X47036888Y-26668000D01*
X47133512Y-26747297D01*
X47264985Y-26817571D01*
X47407641Y-26860845D01*
X47555999Y-26875457D01*
X48456001Y-26875457D01*
X48604359Y-26860845D01*
X48747015Y-26817571D01*
X48878488Y-26747297D01*
X48993725Y-26652725D01*
X49088297Y-26537488D01*
X49158571Y-26406015D01*
X49201845Y-26263359D01*
X49216457Y-26115001D01*
X49216457Y-25464999D01*
X49201845Y-25316641D01*
X49158571Y-25173985D01*
X49088297Y-25042512D01*
X48993725Y-24927275D01*
X48878488Y-24832703D01*
X48751825Y-24765000D01*
X48878488Y-24697297D01*
X48993725Y-24602725D01*
X49088297Y-24487488D01*
X49158571Y-24356015D01*
X49201845Y-24213359D01*
X49216457Y-24065001D01*
X49216457Y-23414999D01*
X49201845Y-23266641D01*
X49158571Y-23123985D01*
X49088297Y-22992512D01*
X48993725Y-22877275D01*
X48878488Y-22782703D01*
X48747015Y-22712429D01*
X48604359Y-22669155D01*
X48456001Y-22654543D01*
X47555999Y-22654543D01*
X47407641Y-22669155D01*
X47264985Y-22712429D01*
X47133512Y-22782703D01*
X47018275Y-22877275D01*
X46997984Y-22902000D01*
X46919473Y-22902000D01*
X46852598Y-22776886D01*
X46682897Y-22570103D01*
X46476114Y-22400402D01*
X46240198Y-22274302D01*
X45984214Y-22196650D01*
X45784706Y-22177000D01*
X45401294Y-22177000D01*
X45201786Y-22196650D01*
X44945802Y-22274302D01*
X44709886Y-22400402D01*
X44503103Y-22570103D01*
X44333402Y-22776886D01*
X44207302Y-23012802D01*
X44129650Y-23268786D01*
X44107173Y-23497000D01*
X42674535Y-23497000D01*
X42672098Y-23495000D01*
X42694014Y-23477014D01*
X42776150Y-23376930D01*
X42837183Y-23262746D01*
X42874767Y-23138849D01*
X42887457Y-23010000D01*
X42887457Y-22710000D01*
X42874767Y-22581151D01*
X42837183Y-22457254D01*
X42776150Y-22343070D01*
X42694014Y-22242986D01*
X42593930Y-22160850D01*
X42479746Y-22099817D01*
X42355849Y-22062233D01*
X42227000Y-22049543D01*
X40577000Y-22049543D01*
X40448151Y-22062233D01*
X40324254Y-22099817D01*
X40210070Y-22160850D01*
X40109986Y-22242986D01*
X40027850Y-22343070D01*
X39966817Y-22457254D01*
X39929233Y-22581151D01*
X39916543Y-22710000D01*
X39916543Y-23010000D01*
X39929233Y-23138849D01*
X39966817Y-23262746D01*
X40027850Y-23376930D01*
X40109986Y-23477014D01*
X40131902Y-23495000D01*
X40109986Y-23512986D01*
X40027850Y-23613070D01*
X39966817Y-23727254D01*
X39929233Y-23851151D01*
X39916543Y-23980000D01*
X39916543Y-24280000D01*
X39929233Y-24408849D01*
X39966817Y-24532746D01*
X40027850Y-24646930D01*
X40109986Y-24747014D01*
X40131902Y-24765000D01*
X40109986Y-24782986D01*
X40027850Y-24883070D01*
X39966817Y-24997254D01*
X39929233Y-25121151D01*
X39916543Y-25250000D01*
X39916543Y-25550000D01*
X39929233Y-25678849D01*
X39956898Y-25770047D01*
X39885578Y-25828578D01*
X39790355Y-25944607D01*
X39719597Y-26076984D01*
X39676025Y-26220622D01*
X39661313Y-26370000D01*
X37918351Y-26370000D01*
X37897102Y-26299953D01*
X37968422Y-26241422D01*
X38063645Y-26125393D01*
X38134403Y-25993016D01*
X38177975Y-25849378D01*
X38192687Y-25700000D01*
X38189000Y-25636500D01*
X37998500Y-25446000D01*
X36833000Y-25446000D01*
X36833000Y-25700000D01*
X36071000Y-25700000D01*
X36071000Y-25446000D01*
X36051000Y-25446000D01*
X36051000Y-25354000D01*
X36071000Y-25354000D01*
X36071000Y-25100000D01*
X36833000Y-25100000D01*
X36833000Y-25354000D01*
X37998500Y-25354000D01*
X38189000Y-25163500D01*
X38192687Y-25100000D01*
X38177975Y-24950622D01*
X38134403Y-24806984D01*
X38063645Y-24674607D01*
X38016937Y-24617693D01*
X38494346Y-24140284D01*
X38523422Y-24116422D01*
X38587782Y-24037999D01*
X38618645Y-24000393D01*
X38679473Y-23886590D01*
X38689402Y-23868015D01*
X38732974Y-23724378D01*
X38744000Y-23612426D01*
X38744000Y-23612423D01*
X38747686Y-23575000D01*
X38744000Y-23537577D01*
X38744000Y-21771387D01*
X38844725Y-21688725D01*
X38939297Y-21573488D01*
X39009571Y-21442015D01*
X39052845Y-21299359D01*
X39067457Y-21151001D01*
X39067457Y-20250999D01*
X39052845Y-20102641D01*
X39009571Y-19959985D01*
X38939297Y-19828512D01*
X38844725Y-19713275D01*
X38729488Y-19618703D01*
X38598015Y-19548429D01*
X38455359Y-19505155D01*
X38307001Y-19490543D01*
X37656999Y-19490543D01*
X37508641Y-19505155D01*
X37365985Y-19548429D01*
X37234512Y-19618703D01*
X37187363Y-19657397D01*
X37143645Y-19575607D01*
X37048422Y-19459578D01*
X36932393Y-19364355D01*
X36800016Y-19293597D01*
X36656378Y-19250025D01*
X36507000Y-19235313D01*
X36443500Y-19239000D01*
X36253000Y-19429500D01*
X36253000Y-20320000D01*
X36333000Y-20320000D01*
X36333000Y-21082000D01*
X36253000Y-21082000D01*
X36253000Y-21102000D01*
X35611000Y-21102000D01*
X35611000Y-21082000D01*
X35531000Y-21082000D01*
X35531000Y-20320000D01*
X35611000Y-20320000D01*
X35611000Y-19429500D01*
X35420500Y-19239000D01*
X35357000Y-19235313D01*
X35207622Y-19250025D01*
X35063984Y-19293597D01*
X34931607Y-19364355D01*
X34815578Y-19459578D01*
X34720355Y-19575607D01*
X34689859Y-19632661D01*
X32354720Y-17297522D01*
X43654224Y-17297522D01*
X43654224Y-17754478D01*
X43743372Y-18202654D01*
X43918242Y-18624826D01*
X44172113Y-19004771D01*
X44495229Y-19327887D01*
X44875174Y-19581758D01*
X45297346Y-19756628D01*
X45745522Y-19845776D01*
X46202478Y-19845776D01*
X46650654Y-19756628D01*
X47072826Y-19581758D01*
X47452771Y-19327887D01*
X47775887Y-19004771D01*
X48029758Y-18624826D01*
X48204628Y-18202654D01*
X48293776Y-17754478D01*
X48293776Y-17297522D01*
X48204628Y-16849346D01*
X48029758Y-16427174D01*
X47775887Y-16047229D01*
X47452771Y-15724113D01*
X47072826Y-15470242D01*
X46650654Y-15295372D01*
X46202478Y-15206224D01*
X45745522Y-15206224D01*
X45297346Y-15295372D01*
X44875174Y-15470242D01*
X44495229Y-15724113D01*
X44172113Y-16047229D01*
X43918242Y-16427174D01*
X43743372Y-16849346D01*
X43654224Y-17297522D01*
X32354720Y-17297522D01*
X31810930Y-16753733D01*
X31802845Y-16671641D01*
X31759571Y-16528985D01*
X31689297Y-16397512D01*
X31594725Y-16282275D01*
X31479488Y-16187703D01*
X31348015Y-16117429D01*
X31205359Y-16074155D01*
X31057001Y-16059543D01*
X30991740Y-16059543D01*
X30095583Y-15163386D01*
X30075763Y-15139235D01*
X29979376Y-15060133D01*
X29869409Y-15001354D01*
X29750089Y-14965159D01*
X29657087Y-14955999D01*
X29625999Y-14952937D01*
X29594911Y-14955999D01*
X23685086Y-14955999D01*
X23654000Y-14952937D01*
X23622914Y-14955999D01*
X23622913Y-14955999D01*
X23529911Y-14965159D01*
X23410591Y-15001354D01*
X23300624Y-15060133D01*
X23204237Y-15139235D01*
X23184413Y-15163391D01*
X22903388Y-15444415D01*
X22903382Y-15444420D01*
X22880971Y-15466831D01*
X22745214Y-15425650D01*
X22545706Y-15406000D01*
X22412294Y-15406000D01*
X22212786Y-15425650D01*
X21956802Y-15503302D01*
X21720886Y-15629402D01*
X21514103Y-15799103D01*
X21344402Y-16005886D01*
X21218302Y-16241802D01*
X21140650Y-16497786D01*
X21114430Y-16764000D01*
X21140650Y-17030214D01*
X21218302Y-17286198D01*
X21344402Y-17522114D01*
X21514103Y-17728897D01*
X21714290Y-17893185D01*
X21587423Y-17960989D01*
X21342546Y-18160733D01*
X21141342Y-18404412D01*
X20991544Y-18682661D01*
X21103158Y-18923000D01*
X22098000Y-18923000D01*
X22098000Y-18903000D01*
X22860000Y-18903000D01*
X22860000Y-18923000D01*
X22880000Y-18923000D01*
X22880000Y-19685000D01*
X22860000Y-19685000D01*
X22860000Y-20673489D01*
X23100337Y-20791442D01*
X23370577Y-20647011D01*
X23545847Y-20504044D01*
X25508000Y-22466197D01*
X25508000Y-22568430D01*
X25542894Y-22743854D01*
X25554552Y-22771999D01*
X24759086Y-22771999D01*
X24728000Y-22768937D01*
X24696914Y-22771999D01*
X24696913Y-22771999D01*
X24603911Y-22781159D01*
X24484591Y-22817354D01*
X24374624Y-22876133D01*
X24278237Y-22955235D01*
X24258417Y-22979386D01*
X24015803Y-23222000D01*
X23913570Y-23222000D01*
X23738146Y-23256894D01*
X23572901Y-23325341D01*
X23424184Y-23424711D01*
X23297711Y-23551184D01*
X23198341Y-23699901D01*
X23129894Y-23865146D01*
X23095000Y-24040570D01*
X23095000Y-24219430D01*
X23095511Y-24222001D01*
X18867661Y-24222001D01*
X18804659Y-24069901D01*
X18705289Y-23921184D01*
X18578816Y-23794711D01*
X18430099Y-23695341D01*
X18264854Y-23626894D01*
X18089430Y-23592000D01*
X17910570Y-23592000D01*
X17735146Y-23626894D01*
X17569901Y-23695341D01*
X17421184Y-23794711D01*
X17294711Y-23921184D01*
X17195341Y-24069901D01*
X17126894Y-24235146D01*
X17092000Y-24410570D01*
X13233000Y-24410570D01*
X13233000Y-19925339D01*
X20991544Y-19925339D01*
X21141342Y-20203588D01*
X21342546Y-20447267D01*
X21587423Y-20647011D01*
X21857663Y-20791442D01*
X22098000Y-20673489D01*
X22098000Y-19685000D01*
X21103158Y-19685000D01*
X20991544Y-19925339D01*
X13233000Y-19925339D01*
X13233000Y-17550436D01*
X13307094Y-16744074D01*
X13520236Y-15988330D01*
X13867531Y-15284086D01*
X14337346Y-14654927D01*
X14913956Y-14121914D01*
X15578039Y-13702909D01*
X16307357Y-13411941D01*
X17087828Y-13256695D01*
X17539965Y-13233000D01*
X45949564Y-13233000D01*
X46755926Y-13307094D01*
X46755926Y-13307094D01*
G37*
X46755926Y-13307094D02*
X47511670Y-13520236D01*
X48215914Y-13867531D01*
X48845073Y-14337346D01*
X49378086Y-14913956D01*
X49797091Y-15578039D01*
X50088059Y-16307357D01*
X50243305Y-17087828D01*
X50267001Y-17539984D01*
X50267000Y-33249564D01*
X50192906Y-34055926D01*
X49979763Y-34811672D01*
X49632469Y-35515914D01*
X49162651Y-36145076D01*
X48586045Y-36678086D01*
X47921965Y-37097088D01*
X47192644Y-37388059D01*
X46412172Y-37543305D01*
X45960034Y-37567000D01*
X17550436Y-37567000D01*
X16744074Y-37492906D01*
X15988328Y-37279763D01*
X15284086Y-36932469D01*
X14654924Y-36462651D01*
X14121914Y-35886045D01*
X13702912Y-35221965D01*
X13411941Y-34492644D01*
X13256695Y-33712172D01*
X13233000Y-33260034D01*
X13233000Y-33045522D01*
X15206224Y-33045522D01*
X15206224Y-33502478D01*
X15295372Y-33950654D01*
X15470242Y-34372826D01*
X15724113Y-34752771D01*
X16047229Y-35075887D01*
X16427174Y-35329758D01*
X16849346Y-35504628D01*
X17297522Y-35593776D01*
X17754478Y-35593776D01*
X18202654Y-35504628D01*
X18624826Y-35329758D01*
X19004771Y-35075887D01*
X19327887Y-34752771D01*
X19579543Y-34376141D01*
X19579543Y-35690000D01*
X19589351Y-35789585D01*
X19618399Y-35885343D01*
X19665571Y-35973595D01*
X19729052Y-36050948D01*
X19806405Y-36114429D01*
X19894657Y-36161601D01*
X19990415Y-36190649D01*
X20090000Y-36200457D01*
X21790000Y-36200457D01*
X21889585Y-36190649D01*
X21985343Y-36161601D01*
X22073595Y-36114429D01*
X22150948Y-36050948D01*
X22214429Y-35973595D01*
X22261601Y-35885343D01*
X22290649Y-35789585D01*
X22300457Y-35690000D01*
X22300457Y-33990000D01*
X22290649Y-33890415D01*
X22261601Y-33794657D01*
X22214429Y-33706405D01*
X22150948Y-33629052D01*
X22073595Y-33565571D01*
X21985343Y-33518399D01*
X21889585Y-33489351D01*
X21790000Y-33479543D01*
X20090000Y-33479543D01*
X19990415Y-33489351D01*
X19894657Y-33518399D01*
X19836417Y-33549529D01*
X19845776Y-33502478D01*
X19845776Y-33045522D01*
X19756628Y-32597346D01*
X19581758Y-32175174D01*
X19327887Y-31795229D01*
X19004771Y-31472113D01*
X18624826Y-31218242D01*
X18202654Y-31043372D01*
X17754478Y-30954224D01*
X17297522Y-30954224D01*
X16849346Y-31043372D01*
X16427174Y-31218242D01*
X16047229Y-31472113D01*
X15724113Y-31795229D01*
X15470242Y-32175174D01*
X15295372Y-32597346D01*
X15206224Y-33045522D01*
X13233000Y-33045522D01*
X13233000Y-28360000D01*
X15149543Y-28360000D01*
X15149543Y-30060000D01*
X15159351Y-30159585D01*
X15188399Y-30255343D01*
X15235571Y-30343595D01*
X15299052Y-30420948D01*
X15376405Y-30484429D01*
X15464657Y-30531601D01*
X15560415Y-30560649D01*
X15660000Y-30570457D01*
X17360000Y-30570457D01*
X17459585Y-30560649D01*
X17555343Y-30531601D01*
X17643595Y-30484429D01*
X17720948Y-30420948D01*
X17745878Y-30390570D01*
X19412000Y-30390570D01*
X19412000Y-30569430D01*
X19446894Y-30744854D01*
X19515341Y-30910099D01*
X19614711Y-31058816D01*
X19741184Y-31185289D01*
X19889901Y-31284659D01*
X20055146Y-31353106D01*
X20230570Y-31388000D01*
X20409430Y-31388000D01*
X20584854Y-31353106D01*
X20750099Y-31284659D01*
X20898816Y-31185289D01*
X21025289Y-31058816D01*
X21124659Y-30910099D01*
X21193106Y-30744854D01*
X21228000Y-30569430D01*
X21228000Y-30390570D01*
X21193106Y-30215146D01*
X21124659Y-30049901D01*
X21025289Y-29901184D01*
X20898816Y-29774711D01*
X20750099Y-29675341D01*
X20584854Y-29606894D01*
X20409430Y-29572000D01*
X20230570Y-29572000D01*
X20055146Y-29606894D01*
X19889901Y-29675341D01*
X19741184Y-29774711D01*
X19614711Y-29901184D01*
X19515341Y-30049901D01*
X19446894Y-30215146D01*
X19412000Y-30390570D01*
X17745878Y-30390570D01*
X17784429Y-30343595D01*
X17831601Y-30255343D01*
X17860649Y-30159585D01*
X17870457Y-30060000D01*
X17870457Y-28573000D01*
X28968313Y-28573000D01*
X28972000Y-28751500D01*
X29162500Y-28942000D01*
X30353000Y-28942000D01*
X30353000Y-28001500D01*
X31115000Y-28001500D01*
X31115000Y-28942000D01*
X32305500Y-28942000D01*
X32496000Y-28751500D01*
X32499687Y-28573000D01*
X32484975Y-28423622D01*
X32441403Y-28279984D01*
X32370645Y-28147607D01*
X32275422Y-28031578D01*
X32159393Y-27936355D01*
X32027016Y-27865597D01*
X31883378Y-27822025D01*
X31734000Y-27807313D01*
X31305500Y-27811000D01*
X31115000Y-28001500D01*
X30353000Y-28001500D01*
X30162500Y-27811000D01*
X29734000Y-27807313D01*
X29584622Y-27822025D01*
X29440984Y-27865597D01*
X29308607Y-27936355D01*
X29192578Y-28031578D01*
X29097355Y-28147607D01*
X29026597Y-28279984D01*
X28983025Y-28423622D01*
X28968313Y-28573000D01*
X17870457Y-28573000D01*
X17870457Y-28360000D01*
X17860649Y-28260415D01*
X17831601Y-28164657D01*
X17784429Y-28076405D01*
X17720948Y-27999052D01*
X17643595Y-27935571D01*
X17555343Y-27888399D01*
X17459585Y-27859351D01*
X17360000Y-27849543D01*
X15660000Y-27849543D01*
X15560415Y-27859351D01*
X15464657Y-27888399D01*
X15376405Y-27935571D01*
X15299052Y-27999052D01*
X15235571Y-28076405D01*
X15188399Y-28164657D01*
X15159351Y-28260415D01*
X15149543Y-28360000D01*
X13233000Y-28360000D01*
X13233000Y-24410570D01*
X17092000Y-24410570D01*
X17092000Y-24589430D01*
X17126894Y-24764854D01*
X17195341Y-24930099D01*
X17294711Y-25078816D01*
X17421184Y-25205289D01*
X17569901Y-25304659D01*
X17735146Y-25373106D01*
X17810456Y-25388086D01*
X17918717Y-25496347D01*
X17942579Y-25525423D01*
X18002513Y-25574609D01*
X18058608Y-25620646D01*
X18101197Y-25643410D01*
X18190986Y-25691403D01*
X18334623Y-25734975D01*
X18446575Y-25746001D01*
X18446578Y-25746001D01*
X18484001Y-25749687D01*
X18521424Y-25746001D01*
X27048576Y-25746001D01*
X27085999Y-25749687D01*
X27123422Y-25746001D01*
X27123425Y-25746001D01*
X27235377Y-25734975D01*
X27379014Y-25691403D01*
X27511391Y-25620646D01*
X27627421Y-25525423D01*
X27651283Y-25496348D01*
X28129545Y-25018086D01*
X28204854Y-25003106D01*
X28370099Y-24934659D01*
X28433942Y-24892000D01*
X29016370Y-24892000D01*
X30636721Y-26512352D01*
X30660579Y-26541423D01*
X30689649Y-26565280D01*
X30776608Y-26636646D01*
X30818131Y-26658840D01*
X30908986Y-26707403D01*
X31052623Y-26750975D01*
X31164575Y-26762001D01*
X31164578Y-26762001D01*
X31202001Y-26765687D01*
X31239424Y-26762001D01*
X32548449Y-26762001D01*
X33655000Y-27868553D01*
X33655000Y-29212543D01*
X33417000Y-29212543D01*
X33317415Y-29222351D01*
X33221657Y-29251399D01*
X33133405Y-29298571D01*
X33056052Y-29362052D01*
X32992571Y-29439405D01*
X32945399Y-29527657D01*
X32916351Y-29623415D01*
X32906543Y-29723000D01*
X32906543Y-33097500D01*
X32237021Y-33097500D01*
X32234649Y-33073415D01*
X32205601Y-32977657D01*
X32158429Y-32889405D01*
X32094948Y-32812052D01*
X32047362Y-32773000D01*
X32094948Y-32733948D01*
X32158429Y-32656595D01*
X32205601Y-32568343D01*
X32234649Y-32472585D01*
X32244457Y-32373000D01*
X32244457Y-32357973D01*
X32323968Y-32261089D01*
X32430103Y-32062523D01*
X32495461Y-31847067D01*
X32517530Y-31623000D01*
X32495461Y-31398933D01*
X32430103Y-31183477D01*
X32323968Y-30984911D01*
X32244457Y-30888027D01*
X32244457Y-30873000D01*
X32234649Y-30773415D01*
X32205601Y-30677657D01*
X32203396Y-30673532D01*
X32275422Y-30614422D01*
X32370645Y-30498393D01*
X32441403Y-30366016D01*
X32484975Y-30222378D01*
X32499687Y-30073000D01*
X32496000Y-29894500D01*
X32305500Y-29704000D01*
X31115000Y-29704000D01*
X31115000Y-29724000D01*
X30353000Y-29724000D01*
X30353000Y-29704000D01*
X29162500Y-29704000D01*
X28972000Y-29894500D01*
X28968313Y-30073000D01*
X28983025Y-30222378D01*
X29026597Y-30366016D01*
X29087524Y-30480000D01*
X25944457Y-30480000D01*
X25944457Y-29723000D01*
X25934649Y-29623415D01*
X25905601Y-29527657D01*
X25858429Y-29439405D01*
X25794948Y-29362052D01*
X25717595Y-29298571D01*
X25629343Y-29251399D01*
X25533585Y-29222351D01*
X25434000Y-29212543D01*
X23434000Y-29212543D01*
X23334415Y-29222351D01*
X23238657Y-29251399D01*
X23150405Y-29298571D01*
X23073052Y-29362052D01*
X23009571Y-29439405D01*
X22962399Y-29527657D01*
X22933351Y-29623415D01*
X22923543Y-29723000D01*
X22923543Y-33523000D01*
X22933351Y-33622585D01*
X22962399Y-33718343D01*
X23009571Y-33806595D01*
X23073052Y-33883948D01*
X23150405Y-33947429D01*
X23238657Y-33994601D01*
X23334415Y-34023649D01*
X23434000Y-34033457D01*
X25434000Y-34033457D01*
X25533585Y-34023649D01*
X25629343Y-33994601D01*
X25717595Y-33947429D01*
X25794948Y-33883948D01*
X25858429Y-33806595D01*
X25905601Y-33718343D01*
X25934649Y-33622585D01*
X25944457Y-33523000D01*
X25944457Y-32766000D01*
X29412108Y-32766000D01*
X29420638Y-32773000D01*
X29373052Y-32812052D01*
X29309571Y-32889405D01*
X29262399Y-32977657D01*
X29233351Y-33073415D01*
X29223543Y-33173000D01*
X29223543Y-34673000D01*
X29233351Y-34772585D01*
X29262399Y-34868343D01*
X29309571Y-34956595D01*
X29373052Y-35033948D01*
X29450405Y-35097429D01*
X29538657Y-35144601D01*
X29634415Y-35173649D01*
X29734000Y-35183457D01*
X31734000Y-35183457D01*
X31833585Y-35173649D01*
X31929343Y-35144601D01*
X32017595Y-35097429D01*
X32094948Y-35033948D01*
X32158429Y-34956595D01*
X32205601Y-34868343D01*
X32234649Y-34772585D01*
X32237021Y-34748500D01*
X32662068Y-34748500D01*
X33776611Y-35863045D01*
X33802459Y-35894541D01*
X33833955Y-35920389D01*
X33833958Y-35920392D01*
X33928157Y-35997699D01*
X34071566Y-36074353D01*
X34227174Y-36121556D01*
X34348447Y-36133500D01*
X34348449Y-36133500D01*
X34389000Y-36137494D01*
X34429550Y-36133500D01*
X37656450Y-36133500D01*
X37697000Y-36137494D01*
X37737550Y-36133500D01*
X37737553Y-36133500D01*
X37858826Y-36121556D01*
X38014434Y-36074353D01*
X38157842Y-35997699D01*
X38283541Y-35894541D01*
X38309398Y-35863034D01*
X39265843Y-34906591D01*
X39292571Y-34956595D01*
X39356052Y-35033948D01*
X39433405Y-35097429D01*
X39521657Y-35144601D01*
X39617415Y-35173649D01*
X39717000Y-35183457D01*
X41717000Y-35183457D01*
X41816585Y-35173649D01*
X41912343Y-35144601D01*
X42000595Y-35097429D01*
X42077948Y-35033948D01*
X42141429Y-34956595D01*
X42188601Y-34868343D01*
X42217649Y-34772585D01*
X42220021Y-34748500D01*
X43514450Y-34748500D01*
X43555000Y-34752494D01*
X43595550Y-34748500D01*
X43595553Y-34748500D01*
X43716826Y-34736556D01*
X43872434Y-34689353D01*
X44015842Y-34612699D01*
X44141541Y-34509541D01*
X44167398Y-34478034D01*
X46148039Y-32497394D01*
X46179541Y-32471541D01*
X46241981Y-32395457D01*
X46318000Y-32395457D01*
X46466358Y-32380845D01*
X46609014Y-32337571D01*
X46740487Y-32267297D01*
X46855724Y-32172724D01*
X46950297Y-32057487D01*
X47020571Y-31926014D01*
X47063845Y-31783358D01*
X47078457Y-31635000D01*
X47078457Y-30435000D01*
X47063845Y-30286642D01*
X47020571Y-30143986D01*
X46950297Y-30012513D01*
X46855724Y-29897276D01*
X46740487Y-29802703D01*
X46710141Y-29786482D01*
X46762589Y-29749662D01*
X46979486Y-29522533D01*
X47147905Y-29257454D01*
X47205442Y-29156337D01*
X47087489Y-28916000D01*
X45974000Y-28916000D01*
X45974000Y-28936000D01*
X45212000Y-28936000D01*
X45212000Y-28916000D01*
X44098511Y-28916000D01*
X43980558Y-29156337D01*
X44038095Y-29257454D01*
X44206514Y-29522533D01*
X44423411Y-29749662D01*
X44475859Y-29786482D01*
X44445513Y-29802703D01*
X44330276Y-29897276D01*
X44235703Y-30012513D01*
X44165429Y-30143986D01*
X44122155Y-30286642D01*
X44107543Y-30435000D01*
X44107543Y-31635000D01*
X44122155Y-31783358D01*
X44165429Y-31926014D01*
X44235703Y-32057487D01*
X44243536Y-32067031D01*
X43213068Y-33097500D01*
X42220021Y-33097500D01*
X42217649Y-33073415D01*
X42188601Y-32977657D01*
X42141429Y-32889405D01*
X42077948Y-32812052D01*
X42030362Y-32773000D01*
X42077948Y-32733948D01*
X42141429Y-32656595D01*
X42188601Y-32568343D01*
X42217649Y-32472585D01*
X42227457Y-32373000D01*
X42227457Y-30873000D01*
X42217649Y-30773415D01*
X42188601Y-30677657D01*
X42186396Y-30673532D01*
X42258422Y-30614422D01*
X42353645Y-30498393D01*
X42424403Y-30366016D01*
X42467975Y-30222378D01*
X42482687Y-30073000D01*
X42479000Y-29894500D01*
X42288500Y-29704000D01*
X41098000Y-29704000D01*
X41098000Y-29724000D01*
X40336000Y-29724000D01*
X40336000Y-29704000D01*
X39145500Y-29704000D01*
X38955000Y-29894500D01*
X38951313Y-30073000D01*
X38966025Y-30222378D01*
X39009597Y-30366016D01*
X39070524Y-30480000D01*
X35927457Y-30480000D01*
X35927457Y-29723000D01*
X35917649Y-29623415D01*
X35888601Y-29527657D01*
X35841429Y-29439405D01*
X35777948Y-29362052D01*
X35700595Y-29298571D01*
X35612343Y-29251399D01*
X35516585Y-29222351D01*
X35417000Y-29212543D01*
X35179000Y-29212543D01*
X35179000Y-28573000D01*
X38951313Y-28573000D01*
X38955000Y-28751500D01*
X39145500Y-28942000D01*
X40336000Y-28942000D01*
X40336000Y-28001500D01*
X41098000Y-28001500D01*
X41098000Y-28942000D01*
X42288500Y-28942000D01*
X42479000Y-28751500D01*
X42482687Y-28573000D01*
X42467975Y-28423622D01*
X42424403Y-28279984D01*
X42353645Y-28147607D01*
X42258422Y-28031578D01*
X42142393Y-27936355D01*
X42010016Y-27865597D01*
X41866378Y-27822025D01*
X41717000Y-27807313D01*
X41288500Y-27811000D01*
X41098000Y-28001500D01*
X40336000Y-28001500D01*
X40145500Y-27811000D01*
X39717000Y-27807313D01*
X39567622Y-27822025D01*
X39423984Y-27865597D01*
X39291607Y-27936355D01*
X39175578Y-28031578D01*
X39080355Y-28147607D01*
X39009597Y-28279984D01*
X38966025Y-28423622D01*
X38951313Y-28573000D01*
X35179000Y-28573000D01*
X35179000Y-27590345D01*
X35182686Y-27552922D01*
X35179000Y-27515496D01*
X35179000Y-27302618D01*
X35260070Y-27369150D01*
X35374254Y-27430183D01*
X35498151Y-27467767D01*
X35627000Y-27480457D01*
X36032899Y-27480457D01*
X36184146Y-27543106D01*
X36359570Y-27578000D01*
X36538430Y-27578000D01*
X36713854Y-27543106D01*
X36865101Y-27480457D01*
X37277000Y-27480457D01*
X37405849Y-27467767D01*
X37529746Y-27430183D01*
X37643930Y-27369150D01*
X37744014Y-27287014D01*
X37826150Y-27186930D01*
X37887183Y-27072746D01*
X37918350Y-26970000D01*
X39661313Y-26970000D01*
X39676025Y-27119378D01*
X39719597Y-27263016D01*
X39790355Y-27395393D01*
X39885578Y-27511422D01*
X40001607Y-27606645D01*
X40133984Y-27677403D01*
X40277622Y-27720975D01*
X40427000Y-27735687D01*
X40830500Y-27732000D01*
X41021000Y-27541500D01*
X41021000Y-26716000D01*
X41783000Y-26716000D01*
X41783000Y-27541500D01*
X41973500Y-27732000D01*
X42377000Y-27735687D01*
X42526378Y-27720975D01*
X42670016Y-27677403D01*
X42802393Y-27606645D01*
X42918422Y-27511422D01*
X43013645Y-27395393D01*
X43084403Y-27263016D01*
X43127975Y-27119378D01*
X43142687Y-26970000D01*
X43139000Y-26906500D01*
X42948500Y-26716000D01*
X41783000Y-26716000D01*
X41021000Y-26716000D01*
X39855500Y-26716000D01*
X39665000Y-26906500D01*
X39661313Y-26970000D01*
X37918350Y-26970000D01*
X37924767Y-26948849D01*
X37937457Y-26820000D01*
X37937457Y-26520000D01*
X37924767Y-26391151D01*
X37918351Y-26370000D01*
X39661313Y-26370000D01*
X39665000Y-26433500D01*
X39855500Y-26624000D01*
X41021000Y-26624000D01*
X41021000Y-26370000D01*
X41783000Y-26370000D01*
X41783000Y-26624000D01*
X42948500Y-26624000D01*
X43139000Y-26433500D01*
X43142687Y-26370000D01*
X43127975Y-26220622D01*
X43084403Y-26076984D01*
X43060893Y-26033000D01*
X44103627Y-26033000D01*
X44103430Y-26035000D01*
X44129650Y-26301214D01*
X44207302Y-26557198D01*
X44333402Y-26793114D01*
X44503103Y-26999897D01*
X44676804Y-27142448D01*
X44423411Y-27320338D01*
X44206514Y-27547467D01*
X44038095Y-27812546D01*
X43980558Y-27913663D01*
X44098511Y-28154000D01*
X45212000Y-28154000D01*
X45212000Y-28134000D01*
X45974000Y-28134000D01*
X45974000Y-28154000D01*
X47087489Y-28154000D01*
X47205442Y-27913663D01*
X47147905Y-27812546D01*
X46979486Y-27547467D01*
X46762589Y-27320338D01*
X46509196Y-27142448D01*
X46682897Y-26999897D01*
X46852598Y-26793114D01*
X46919473Y-26668000D01*
X47036888Y-26668000D01*
X47133512Y-26747297D01*
X47264985Y-26817571D01*
X47407641Y-26860845D01*
X47555999Y-26875457D01*
X48456001Y-26875457D01*
X48604359Y-26860845D01*
X48747015Y-26817571D01*
X48878488Y-26747297D01*
X48993725Y-26652725D01*
X49088297Y-26537488D01*
X49158571Y-26406015D01*
X49201845Y-26263359D01*
X49216457Y-26115001D01*
X49216457Y-25464999D01*
X49201845Y-25316641D01*
X49158571Y-25173985D01*
X49088297Y-25042512D01*
X48993725Y-24927275D01*
X48878488Y-24832703D01*
X48751825Y-24765000D01*
X48878488Y-24697297D01*
X48993725Y-24602725D01*
X49088297Y-24487488D01*
X49158571Y-24356015D01*
X49201845Y-24213359D01*
X49216457Y-24065001D01*
X49216457Y-23414999D01*
X49201845Y-23266641D01*
X49158571Y-23123985D01*
X49088297Y-22992512D01*
X48993725Y-22877275D01*
X48878488Y-22782703D01*
X48747015Y-22712429D01*
X48604359Y-22669155D01*
X48456001Y-22654543D01*
X47555999Y-22654543D01*
X47407641Y-22669155D01*
X47264985Y-22712429D01*
X47133512Y-22782703D01*
X47018275Y-22877275D01*
X46997984Y-22902000D01*
X46919473Y-22902000D01*
X46852598Y-22776886D01*
X46682897Y-22570103D01*
X46476114Y-22400402D01*
X46240198Y-22274302D01*
X45984214Y-22196650D01*
X45784706Y-22177000D01*
X45401294Y-22177000D01*
X45201786Y-22196650D01*
X44945802Y-22274302D01*
X44709886Y-22400402D01*
X44503103Y-22570103D01*
X44333402Y-22776886D01*
X44207302Y-23012802D01*
X44129650Y-23268786D01*
X44107173Y-23497000D01*
X42674535Y-23497000D01*
X42672098Y-23495000D01*
X42694014Y-23477014D01*
X42776150Y-23376930D01*
X42837183Y-23262746D01*
X42874767Y-23138849D01*
X42887457Y-23010000D01*
X42887457Y-22710000D01*
X42874767Y-22581151D01*
X42837183Y-22457254D01*
X42776150Y-22343070D01*
X42694014Y-22242986D01*
X42593930Y-22160850D01*
X42479746Y-22099817D01*
X42355849Y-22062233D01*
X42227000Y-22049543D01*
X40577000Y-22049543D01*
X40448151Y-22062233D01*
X40324254Y-22099817D01*
X40210070Y-22160850D01*
X40109986Y-22242986D01*
X40027850Y-22343070D01*
X39966817Y-22457254D01*
X39929233Y-22581151D01*
X39916543Y-22710000D01*
X39916543Y-23010000D01*
X39929233Y-23138849D01*
X39966817Y-23262746D01*
X40027850Y-23376930D01*
X40109986Y-23477014D01*
X40131902Y-23495000D01*
X40109986Y-23512986D01*
X40027850Y-23613070D01*
X39966817Y-23727254D01*
X39929233Y-23851151D01*
X39916543Y-23980000D01*
X39916543Y-24280000D01*
X39929233Y-24408849D01*
X39966817Y-24532746D01*
X40027850Y-24646930D01*
X40109986Y-24747014D01*
X40131902Y-24765000D01*
X40109986Y-24782986D01*
X40027850Y-24883070D01*
X39966817Y-24997254D01*
X39929233Y-25121151D01*
X39916543Y-25250000D01*
X39916543Y-25550000D01*
X39929233Y-25678849D01*
X39956898Y-25770047D01*
X39885578Y-25828578D01*
X39790355Y-25944607D01*
X39719597Y-26076984D01*
X39676025Y-26220622D01*
X39661313Y-26370000D01*
X37918351Y-26370000D01*
X37897102Y-26299953D01*
X37968422Y-26241422D01*
X38063645Y-26125393D01*
X38134403Y-25993016D01*
X38177975Y-25849378D01*
X38192687Y-25700000D01*
X38189000Y-25636500D01*
X37998500Y-25446000D01*
X36833000Y-25446000D01*
X36833000Y-25700000D01*
X36071000Y-25700000D01*
X36071000Y-25446000D01*
X36051000Y-25446000D01*
X36051000Y-25354000D01*
X36071000Y-25354000D01*
X36071000Y-25100000D01*
X36833000Y-25100000D01*
X36833000Y-25354000D01*
X37998500Y-25354000D01*
X38189000Y-25163500D01*
X38192687Y-25100000D01*
X38177975Y-24950622D01*
X38134403Y-24806984D01*
X38063645Y-24674607D01*
X38016937Y-24617693D01*
X38494346Y-24140284D01*
X38523422Y-24116422D01*
X38587782Y-24037999D01*
X38618645Y-24000393D01*
X38679473Y-23886590D01*
X38689402Y-23868015D01*
X38732974Y-23724378D01*
X38744000Y-23612426D01*
X38744000Y-23612423D01*
X38747686Y-23575000D01*
X38744000Y-23537577D01*
X38744000Y-21771387D01*
X38844725Y-21688725D01*
X38939297Y-21573488D01*
X39009571Y-21442015D01*
X39052845Y-21299359D01*
X39067457Y-21151001D01*
X39067457Y-20250999D01*
X39052845Y-20102641D01*
X39009571Y-19959985D01*
X38939297Y-19828512D01*
X38844725Y-19713275D01*
X38729488Y-19618703D01*
X38598015Y-19548429D01*
X38455359Y-19505155D01*
X38307001Y-19490543D01*
X37656999Y-19490543D01*
X37508641Y-19505155D01*
X37365985Y-19548429D01*
X37234512Y-19618703D01*
X37187363Y-19657397D01*
X37143645Y-19575607D01*
X37048422Y-19459578D01*
X36932393Y-19364355D01*
X36800016Y-19293597D01*
X36656378Y-19250025D01*
X36507000Y-19235313D01*
X36443500Y-19239000D01*
X36253000Y-19429500D01*
X36253000Y-20320000D01*
X36333000Y-20320000D01*
X36333000Y-21082000D01*
X36253000Y-21082000D01*
X36253000Y-21102000D01*
X35611000Y-21102000D01*
X35611000Y-21082000D01*
X35531000Y-21082000D01*
X35531000Y-20320000D01*
X35611000Y-20320000D01*
X35611000Y-19429500D01*
X35420500Y-19239000D01*
X35357000Y-19235313D01*
X35207622Y-19250025D01*
X35063984Y-19293597D01*
X34931607Y-19364355D01*
X34815578Y-19459578D01*
X34720355Y-19575607D01*
X34689859Y-19632661D01*
X32354720Y-17297522D01*
X43654224Y-17297522D01*
X43654224Y-17754478D01*
X43743372Y-18202654D01*
X43918242Y-18624826D01*
X44172113Y-19004771D01*
X44495229Y-19327887D01*
X44875174Y-19581758D01*
X45297346Y-19756628D01*
X45745522Y-19845776D01*
X46202478Y-19845776D01*
X46650654Y-19756628D01*
X47072826Y-19581758D01*
X47452771Y-19327887D01*
X47775887Y-19004771D01*
X48029758Y-18624826D01*
X48204628Y-18202654D01*
X48293776Y-17754478D01*
X48293776Y-17297522D01*
X48204628Y-16849346D01*
X48029758Y-16427174D01*
X47775887Y-16047229D01*
X47452771Y-15724113D01*
X47072826Y-15470242D01*
X46650654Y-15295372D01*
X46202478Y-15206224D01*
X45745522Y-15206224D01*
X45297346Y-15295372D01*
X44875174Y-15470242D01*
X44495229Y-15724113D01*
X44172113Y-16047229D01*
X43918242Y-16427174D01*
X43743372Y-16849346D01*
X43654224Y-17297522D01*
X32354720Y-17297522D01*
X31810930Y-16753733D01*
X31802845Y-16671641D01*
X31759571Y-16528985D01*
X31689297Y-16397512D01*
X31594725Y-16282275D01*
X31479488Y-16187703D01*
X31348015Y-16117429D01*
X31205359Y-16074155D01*
X31057001Y-16059543D01*
X30991740Y-16059543D01*
X30095583Y-15163386D01*
X30075763Y-15139235D01*
X29979376Y-15060133D01*
X29869409Y-15001354D01*
X29750089Y-14965159D01*
X29657087Y-14955999D01*
X29625999Y-14952937D01*
X29594911Y-14955999D01*
X23685086Y-14955999D01*
X23654000Y-14952937D01*
X23622914Y-14955999D01*
X23622913Y-14955999D01*
X23529911Y-14965159D01*
X23410591Y-15001354D01*
X23300624Y-15060133D01*
X23204237Y-15139235D01*
X23184413Y-15163391D01*
X22903388Y-15444415D01*
X22903382Y-15444420D01*
X22880971Y-15466831D01*
X22745214Y-15425650D01*
X22545706Y-15406000D01*
X22412294Y-15406000D01*
X22212786Y-15425650D01*
X21956802Y-15503302D01*
X21720886Y-15629402D01*
X21514103Y-15799103D01*
X21344402Y-16005886D01*
X21218302Y-16241802D01*
X21140650Y-16497786D01*
X21114430Y-16764000D01*
X21140650Y-17030214D01*
X21218302Y-17286198D01*
X21344402Y-17522114D01*
X21514103Y-17728897D01*
X21714290Y-17893185D01*
X21587423Y-17960989D01*
X21342546Y-18160733D01*
X21141342Y-18404412D01*
X20991544Y-18682661D01*
X21103158Y-18923000D01*
X22098000Y-18923000D01*
X22098000Y-18903000D01*
X22860000Y-18903000D01*
X22860000Y-18923000D01*
X22880000Y-18923000D01*
X22880000Y-19685000D01*
X22860000Y-19685000D01*
X22860000Y-20673489D01*
X23100337Y-20791442D01*
X23370577Y-20647011D01*
X23545847Y-20504044D01*
X25508000Y-22466197D01*
X25508000Y-22568430D01*
X25542894Y-22743854D01*
X25554552Y-22771999D01*
X24759086Y-22771999D01*
X24728000Y-22768937D01*
X24696914Y-22771999D01*
X24696913Y-22771999D01*
X24603911Y-22781159D01*
X24484591Y-22817354D01*
X24374624Y-22876133D01*
X24278237Y-22955235D01*
X24258417Y-22979386D01*
X24015803Y-23222000D01*
X23913570Y-23222000D01*
X23738146Y-23256894D01*
X23572901Y-23325341D01*
X23424184Y-23424711D01*
X23297711Y-23551184D01*
X23198341Y-23699901D01*
X23129894Y-23865146D01*
X23095000Y-24040570D01*
X23095000Y-24219430D01*
X23095511Y-24222001D01*
X18867661Y-24222001D01*
X18804659Y-24069901D01*
X18705289Y-23921184D01*
X18578816Y-23794711D01*
X18430099Y-23695341D01*
X18264854Y-23626894D01*
X18089430Y-23592000D01*
X17910570Y-23592000D01*
X17735146Y-23626894D01*
X17569901Y-23695341D01*
X17421184Y-23794711D01*
X17294711Y-23921184D01*
X17195341Y-24069901D01*
X17126894Y-24235146D01*
X17092000Y-24410570D01*
X13233000Y-24410570D01*
X13233000Y-19925339D01*
X20991544Y-19925339D01*
X21141342Y-20203588D01*
X21342546Y-20447267D01*
X21587423Y-20647011D01*
X21857663Y-20791442D01*
X22098000Y-20673489D01*
X22098000Y-19685000D01*
X21103158Y-19685000D01*
X20991544Y-19925339D01*
X13233000Y-19925339D01*
X13233000Y-17550436D01*
X13307094Y-16744074D01*
X13520236Y-15988330D01*
X13867531Y-15284086D01*
X14337346Y-14654927D01*
X14913956Y-14121914D01*
X15578039Y-13702909D01*
X16307357Y-13411941D01*
X17087828Y-13256695D01*
X17539965Y-13233000D01*
X45949564Y-13233000D01*
X46755926Y-13307094D01*
M02*
