G04 #@! TF.GenerationSoftware,KiCad,Pcbnew,(5.1.4-0-10_14)*
G04 #@! TF.CreationDate,2020-02-11T17:38:49-05:00*
G04 #@! TF.ProjectId,Chinchou,4368696e-6368-46f7-952e-6b696361645f,rev?*
G04 #@! TF.SameCoordinates,Original*
G04 #@! TF.FileFunction,Paste,Bot*
G04 #@! TF.FilePolarity,Positive*
%FSLAX46Y46*%
G04 Gerber Fmt 4.6, Leading zero omitted, Abs format (unit mm)*
G04 Created by KiCad (PCBNEW (5.1.4-0-10_14)) date 2020-02-11 17:38:49*
%MOMM*%
%LPD*%
G04 APERTURE LIST*
%ADD10R,2.000000X1.500000*%
%ADD11R,2.000000X3.800000*%
%ADD12C,0.100000*%
%ADD13C,1.150000*%
%ADD14C,0.600000*%
G04 APERTURE END LIST*
D10*
X30734000Y-29323000D03*
X30734000Y-33923000D03*
X30734000Y-31623000D03*
D11*
X24434000Y-31623000D03*
D12*
G36*
X36281505Y-20002204D02*
G01*
X36305773Y-20005804D01*
X36329572Y-20011765D01*
X36352671Y-20020030D01*
X36374850Y-20030520D01*
X36395893Y-20043132D01*
X36415599Y-20057747D01*
X36433777Y-20074223D01*
X36450253Y-20092401D01*
X36464868Y-20112107D01*
X36477480Y-20133150D01*
X36487970Y-20155329D01*
X36496235Y-20178428D01*
X36502196Y-20202227D01*
X36505796Y-20226495D01*
X36507000Y-20250999D01*
X36507000Y-21151001D01*
X36505796Y-21175505D01*
X36502196Y-21199773D01*
X36496235Y-21223572D01*
X36487970Y-21246671D01*
X36477480Y-21268850D01*
X36464868Y-21289893D01*
X36450253Y-21309599D01*
X36433777Y-21327777D01*
X36415599Y-21344253D01*
X36395893Y-21358868D01*
X36374850Y-21371480D01*
X36352671Y-21381970D01*
X36329572Y-21390235D01*
X36305773Y-21396196D01*
X36281505Y-21399796D01*
X36257001Y-21401000D01*
X35606999Y-21401000D01*
X35582495Y-21399796D01*
X35558227Y-21396196D01*
X35534428Y-21390235D01*
X35511329Y-21381970D01*
X35489150Y-21371480D01*
X35468107Y-21358868D01*
X35448401Y-21344253D01*
X35430223Y-21327777D01*
X35413747Y-21309599D01*
X35399132Y-21289893D01*
X35386520Y-21268850D01*
X35376030Y-21246671D01*
X35367765Y-21223572D01*
X35361804Y-21199773D01*
X35358204Y-21175505D01*
X35357000Y-21151001D01*
X35357000Y-20250999D01*
X35358204Y-20226495D01*
X35361804Y-20202227D01*
X35367765Y-20178428D01*
X35376030Y-20155329D01*
X35386520Y-20133150D01*
X35399132Y-20112107D01*
X35413747Y-20092401D01*
X35430223Y-20074223D01*
X35448401Y-20057747D01*
X35468107Y-20043132D01*
X35489150Y-20030520D01*
X35511329Y-20020030D01*
X35534428Y-20011765D01*
X35558227Y-20005804D01*
X35582495Y-20002204D01*
X35606999Y-20001000D01*
X36257001Y-20001000D01*
X36281505Y-20002204D01*
X36281505Y-20002204D01*
G37*
D13*
X35932000Y-20701000D03*
D12*
G36*
X38331505Y-20002204D02*
G01*
X38355773Y-20005804D01*
X38379572Y-20011765D01*
X38402671Y-20020030D01*
X38424850Y-20030520D01*
X38445893Y-20043132D01*
X38465599Y-20057747D01*
X38483777Y-20074223D01*
X38500253Y-20092401D01*
X38514868Y-20112107D01*
X38527480Y-20133150D01*
X38537970Y-20155329D01*
X38546235Y-20178428D01*
X38552196Y-20202227D01*
X38555796Y-20226495D01*
X38557000Y-20250999D01*
X38557000Y-21151001D01*
X38555796Y-21175505D01*
X38552196Y-21199773D01*
X38546235Y-21223572D01*
X38537970Y-21246671D01*
X38527480Y-21268850D01*
X38514868Y-21289893D01*
X38500253Y-21309599D01*
X38483777Y-21327777D01*
X38465599Y-21344253D01*
X38445893Y-21358868D01*
X38424850Y-21371480D01*
X38402671Y-21381970D01*
X38379572Y-21390235D01*
X38355773Y-21396196D01*
X38331505Y-21399796D01*
X38307001Y-21401000D01*
X37656999Y-21401000D01*
X37632495Y-21399796D01*
X37608227Y-21396196D01*
X37584428Y-21390235D01*
X37561329Y-21381970D01*
X37539150Y-21371480D01*
X37518107Y-21358868D01*
X37498401Y-21344253D01*
X37480223Y-21327777D01*
X37463747Y-21309599D01*
X37449132Y-21289893D01*
X37436520Y-21268850D01*
X37426030Y-21246671D01*
X37417765Y-21223572D01*
X37411804Y-21199773D01*
X37408204Y-21175505D01*
X37407000Y-21151001D01*
X37407000Y-20250999D01*
X37408204Y-20226495D01*
X37411804Y-20202227D01*
X37417765Y-20178428D01*
X37426030Y-20155329D01*
X37436520Y-20133150D01*
X37449132Y-20112107D01*
X37463747Y-20092401D01*
X37480223Y-20074223D01*
X37498401Y-20057747D01*
X37518107Y-20043132D01*
X37539150Y-20030520D01*
X37561329Y-20020030D01*
X37584428Y-20011765D01*
X37608227Y-20005804D01*
X37632495Y-20002204D01*
X37656999Y-20001000D01*
X38307001Y-20001000D01*
X38331505Y-20002204D01*
X38331505Y-20002204D01*
G37*
D13*
X37982000Y-20701000D03*
D12*
G36*
X48480505Y-23166204D02*
G01*
X48504773Y-23169804D01*
X48528572Y-23175765D01*
X48551671Y-23184030D01*
X48573850Y-23194520D01*
X48594893Y-23207132D01*
X48614599Y-23221747D01*
X48632777Y-23238223D01*
X48649253Y-23256401D01*
X48663868Y-23276107D01*
X48676480Y-23297150D01*
X48686970Y-23319329D01*
X48695235Y-23342428D01*
X48701196Y-23366227D01*
X48704796Y-23390495D01*
X48706000Y-23414999D01*
X48706000Y-24065001D01*
X48704796Y-24089505D01*
X48701196Y-24113773D01*
X48695235Y-24137572D01*
X48686970Y-24160671D01*
X48676480Y-24182850D01*
X48663868Y-24203893D01*
X48649253Y-24223599D01*
X48632777Y-24241777D01*
X48614599Y-24258253D01*
X48594893Y-24272868D01*
X48573850Y-24285480D01*
X48551671Y-24295970D01*
X48528572Y-24304235D01*
X48504773Y-24310196D01*
X48480505Y-24313796D01*
X48456001Y-24315000D01*
X47555999Y-24315000D01*
X47531495Y-24313796D01*
X47507227Y-24310196D01*
X47483428Y-24304235D01*
X47460329Y-24295970D01*
X47438150Y-24285480D01*
X47417107Y-24272868D01*
X47397401Y-24258253D01*
X47379223Y-24241777D01*
X47362747Y-24223599D01*
X47348132Y-24203893D01*
X47335520Y-24182850D01*
X47325030Y-24160671D01*
X47316765Y-24137572D01*
X47310804Y-24113773D01*
X47307204Y-24089505D01*
X47306000Y-24065001D01*
X47306000Y-23414999D01*
X47307204Y-23390495D01*
X47310804Y-23366227D01*
X47316765Y-23342428D01*
X47325030Y-23319329D01*
X47335520Y-23297150D01*
X47348132Y-23276107D01*
X47362747Y-23256401D01*
X47379223Y-23238223D01*
X47397401Y-23221747D01*
X47417107Y-23207132D01*
X47438150Y-23194520D01*
X47460329Y-23184030D01*
X47483428Y-23175765D01*
X47507227Y-23169804D01*
X47531495Y-23166204D01*
X47555999Y-23165000D01*
X48456001Y-23165000D01*
X48480505Y-23166204D01*
X48480505Y-23166204D01*
G37*
D13*
X48006000Y-23740000D03*
D12*
G36*
X48480505Y-25216204D02*
G01*
X48504773Y-25219804D01*
X48528572Y-25225765D01*
X48551671Y-25234030D01*
X48573850Y-25244520D01*
X48594893Y-25257132D01*
X48614599Y-25271747D01*
X48632777Y-25288223D01*
X48649253Y-25306401D01*
X48663868Y-25326107D01*
X48676480Y-25347150D01*
X48686970Y-25369329D01*
X48695235Y-25392428D01*
X48701196Y-25416227D01*
X48704796Y-25440495D01*
X48706000Y-25464999D01*
X48706000Y-26115001D01*
X48704796Y-26139505D01*
X48701196Y-26163773D01*
X48695235Y-26187572D01*
X48686970Y-26210671D01*
X48676480Y-26232850D01*
X48663868Y-26253893D01*
X48649253Y-26273599D01*
X48632777Y-26291777D01*
X48614599Y-26308253D01*
X48594893Y-26322868D01*
X48573850Y-26335480D01*
X48551671Y-26345970D01*
X48528572Y-26354235D01*
X48504773Y-26360196D01*
X48480505Y-26363796D01*
X48456001Y-26365000D01*
X47555999Y-26365000D01*
X47531495Y-26363796D01*
X47507227Y-26360196D01*
X47483428Y-26354235D01*
X47460329Y-26345970D01*
X47438150Y-26335480D01*
X47417107Y-26322868D01*
X47397401Y-26308253D01*
X47379223Y-26291777D01*
X47362747Y-26273599D01*
X47348132Y-26253893D01*
X47335520Y-26232850D01*
X47325030Y-26210671D01*
X47316765Y-26187572D01*
X47310804Y-26163773D01*
X47307204Y-26139505D01*
X47306000Y-26115001D01*
X47306000Y-25464999D01*
X47307204Y-25440495D01*
X47310804Y-25416227D01*
X47316765Y-25392428D01*
X47325030Y-25369329D01*
X47335520Y-25347150D01*
X47348132Y-25326107D01*
X47362747Y-25306401D01*
X47379223Y-25288223D01*
X47397401Y-25271747D01*
X47417107Y-25257132D01*
X47438150Y-25244520D01*
X47460329Y-25234030D01*
X47483428Y-25225765D01*
X47507227Y-25219804D01*
X47531495Y-25216204D01*
X47555999Y-25215000D01*
X48456001Y-25215000D01*
X48480505Y-25216204D01*
X48480505Y-25216204D01*
G37*
D13*
X48006000Y-25790000D03*
D10*
X40717000Y-29323000D03*
X40717000Y-33923000D03*
X40717000Y-31623000D03*
D11*
X34417000Y-31623000D03*
D12*
G36*
X42241703Y-26370722D02*
G01*
X42256264Y-26372882D01*
X42270543Y-26376459D01*
X42284403Y-26381418D01*
X42297710Y-26387712D01*
X42310336Y-26395280D01*
X42322159Y-26404048D01*
X42333066Y-26413934D01*
X42342952Y-26424841D01*
X42351720Y-26436664D01*
X42359288Y-26449290D01*
X42365582Y-26462597D01*
X42370541Y-26476457D01*
X42374118Y-26490736D01*
X42376278Y-26505297D01*
X42377000Y-26520000D01*
X42377000Y-26820000D01*
X42376278Y-26834703D01*
X42374118Y-26849264D01*
X42370541Y-26863543D01*
X42365582Y-26877403D01*
X42359288Y-26890710D01*
X42351720Y-26903336D01*
X42342952Y-26915159D01*
X42333066Y-26926066D01*
X42322159Y-26935952D01*
X42310336Y-26944720D01*
X42297710Y-26952288D01*
X42284403Y-26958582D01*
X42270543Y-26963541D01*
X42256264Y-26967118D01*
X42241703Y-26969278D01*
X42227000Y-26970000D01*
X40577000Y-26970000D01*
X40562297Y-26969278D01*
X40547736Y-26967118D01*
X40533457Y-26963541D01*
X40519597Y-26958582D01*
X40506290Y-26952288D01*
X40493664Y-26944720D01*
X40481841Y-26935952D01*
X40470934Y-26926066D01*
X40461048Y-26915159D01*
X40452280Y-26903336D01*
X40444712Y-26890710D01*
X40438418Y-26877403D01*
X40433459Y-26863543D01*
X40429882Y-26849264D01*
X40427722Y-26834703D01*
X40427000Y-26820000D01*
X40427000Y-26520000D01*
X40427722Y-26505297D01*
X40429882Y-26490736D01*
X40433459Y-26476457D01*
X40438418Y-26462597D01*
X40444712Y-26449290D01*
X40452280Y-26436664D01*
X40461048Y-26424841D01*
X40470934Y-26413934D01*
X40481841Y-26404048D01*
X40493664Y-26395280D01*
X40506290Y-26387712D01*
X40519597Y-26381418D01*
X40533457Y-26376459D01*
X40547736Y-26372882D01*
X40562297Y-26370722D01*
X40577000Y-26370000D01*
X42227000Y-26370000D01*
X42241703Y-26370722D01*
X42241703Y-26370722D01*
G37*
D14*
X41402000Y-26670000D03*
D12*
G36*
X42241703Y-25100722D02*
G01*
X42256264Y-25102882D01*
X42270543Y-25106459D01*
X42284403Y-25111418D01*
X42297710Y-25117712D01*
X42310336Y-25125280D01*
X42322159Y-25134048D01*
X42333066Y-25143934D01*
X42342952Y-25154841D01*
X42351720Y-25166664D01*
X42359288Y-25179290D01*
X42365582Y-25192597D01*
X42370541Y-25206457D01*
X42374118Y-25220736D01*
X42376278Y-25235297D01*
X42377000Y-25250000D01*
X42377000Y-25550000D01*
X42376278Y-25564703D01*
X42374118Y-25579264D01*
X42370541Y-25593543D01*
X42365582Y-25607403D01*
X42359288Y-25620710D01*
X42351720Y-25633336D01*
X42342952Y-25645159D01*
X42333066Y-25656066D01*
X42322159Y-25665952D01*
X42310336Y-25674720D01*
X42297710Y-25682288D01*
X42284403Y-25688582D01*
X42270543Y-25693541D01*
X42256264Y-25697118D01*
X42241703Y-25699278D01*
X42227000Y-25700000D01*
X40577000Y-25700000D01*
X40562297Y-25699278D01*
X40547736Y-25697118D01*
X40533457Y-25693541D01*
X40519597Y-25688582D01*
X40506290Y-25682288D01*
X40493664Y-25674720D01*
X40481841Y-25665952D01*
X40470934Y-25656066D01*
X40461048Y-25645159D01*
X40452280Y-25633336D01*
X40444712Y-25620710D01*
X40438418Y-25607403D01*
X40433459Y-25593543D01*
X40429882Y-25579264D01*
X40427722Y-25564703D01*
X40427000Y-25550000D01*
X40427000Y-25250000D01*
X40427722Y-25235297D01*
X40429882Y-25220736D01*
X40433459Y-25206457D01*
X40438418Y-25192597D01*
X40444712Y-25179290D01*
X40452280Y-25166664D01*
X40461048Y-25154841D01*
X40470934Y-25143934D01*
X40481841Y-25134048D01*
X40493664Y-25125280D01*
X40506290Y-25117712D01*
X40519597Y-25111418D01*
X40533457Y-25106459D01*
X40547736Y-25102882D01*
X40562297Y-25100722D01*
X40577000Y-25100000D01*
X42227000Y-25100000D01*
X42241703Y-25100722D01*
X42241703Y-25100722D01*
G37*
D14*
X41402000Y-25400000D03*
D12*
G36*
X42241703Y-23830722D02*
G01*
X42256264Y-23832882D01*
X42270543Y-23836459D01*
X42284403Y-23841418D01*
X42297710Y-23847712D01*
X42310336Y-23855280D01*
X42322159Y-23864048D01*
X42333066Y-23873934D01*
X42342952Y-23884841D01*
X42351720Y-23896664D01*
X42359288Y-23909290D01*
X42365582Y-23922597D01*
X42370541Y-23936457D01*
X42374118Y-23950736D01*
X42376278Y-23965297D01*
X42377000Y-23980000D01*
X42377000Y-24280000D01*
X42376278Y-24294703D01*
X42374118Y-24309264D01*
X42370541Y-24323543D01*
X42365582Y-24337403D01*
X42359288Y-24350710D01*
X42351720Y-24363336D01*
X42342952Y-24375159D01*
X42333066Y-24386066D01*
X42322159Y-24395952D01*
X42310336Y-24404720D01*
X42297710Y-24412288D01*
X42284403Y-24418582D01*
X42270543Y-24423541D01*
X42256264Y-24427118D01*
X42241703Y-24429278D01*
X42227000Y-24430000D01*
X40577000Y-24430000D01*
X40562297Y-24429278D01*
X40547736Y-24427118D01*
X40533457Y-24423541D01*
X40519597Y-24418582D01*
X40506290Y-24412288D01*
X40493664Y-24404720D01*
X40481841Y-24395952D01*
X40470934Y-24386066D01*
X40461048Y-24375159D01*
X40452280Y-24363336D01*
X40444712Y-24350710D01*
X40438418Y-24337403D01*
X40433459Y-24323543D01*
X40429882Y-24309264D01*
X40427722Y-24294703D01*
X40427000Y-24280000D01*
X40427000Y-23980000D01*
X40427722Y-23965297D01*
X40429882Y-23950736D01*
X40433459Y-23936457D01*
X40438418Y-23922597D01*
X40444712Y-23909290D01*
X40452280Y-23896664D01*
X40461048Y-23884841D01*
X40470934Y-23873934D01*
X40481841Y-23864048D01*
X40493664Y-23855280D01*
X40506290Y-23847712D01*
X40519597Y-23841418D01*
X40533457Y-23836459D01*
X40547736Y-23832882D01*
X40562297Y-23830722D01*
X40577000Y-23830000D01*
X42227000Y-23830000D01*
X42241703Y-23830722D01*
X42241703Y-23830722D01*
G37*
D14*
X41402000Y-24130000D03*
D12*
G36*
X42241703Y-22560722D02*
G01*
X42256264Y-22562882D01*
X42270543Y-22566459D01*
X42284403Y-22571418D01*
X42297710Y-22577712D01*
X42310336Y-22585280D01*
X42322159Y-22594048D01*
X42333066Y-22603934D01*
X42342952Y-22614841D01*
X42351720Y-22626664D01*
X42359288Y-22639290D01*
X42365582Y-22652597D01*
X42370541Y-22666457D01*
X42374118Y-22680736D01*
X42376278Y-22695297D01*
X42377000Y-22710000D01*
X42377000Y-23010000D01*
X42376278Y-23024703D01*
X42374118Y-23039264D01*
X42370541Y-23053543D01*
X42365582Y-23067403D01*
X42359288Y-23080710D01*
X42351720Y-23093336D01*
X42342952Y-23105159D01*
X42333066Y-23116066D01*
X42322159Y-23125952D01*
X42310336Y-23134720D01*
X42297710Y-23142288D01*
X42284403Y-23148582D01*
X42270543Y-23153541D01*
X42256264Y-23157118D01*
X42241703Y-23159278D01*
X42227000Y-23160000D01*
X40577000Y-23160000D01*
X40562297Y-23159278D01*
X40547736Y-23157118D01*
X40533457Y-23153541D01*
X40519597Y-23148582D01*
X40506290Y-23142288D01*
X40493664Y-23134720D01*
X40481841Y-23125952D01*
X40470934Y-23116066D01*
X40461048Y-23105159D01*
X40452280Y-23093336D01*
X40444712Y-23080710D01*
X40438418Y-23067403D01*
X40433459Y-23053543D01*
X40429882Y-23039264D01*
X40427722Y-23024703D01*
X40427000Y-23010000D01*
X40427000Y-22710000D01*
X40427722Y-22695297D01*
X40429882Y-22680736D01*
X40433459Y-22666457D01*
X40438418Y-22652597D01*
X40444712Y-22639290D01*
X40452280Y-22626664D01*
X40461048Y-22614841D01*
X40470934Y-22603934D01*
X40481841Y-22594048D01*
X40493664Y-22585280D01*
X40506290Y-22577712D01*
X40519597Y-22571418D01*
X40533457Y-22566459D01*
X40547736Y-22562882D01*
X40562297Y-22560722D01*
X40577000Y-22560000D01*
X42227000Y-22560000D01*
X42241703Y-22560722D01*
X42241703Y-22560722D01*
G37*
D14*
X41402000Y-22860000D03*
D12*
G36*
X37291703Y-22560722D02*
G01*
X37306264Y-22562882D01*
X37320543Y-22566459D01*
X37334403Y-22571418D01*
X37347710Y-22577712D01*
X37360336Y-22585280D01*
X37372159Y-22594048D01*
X37383066Y-22603934D01*
X37392952Y-22614841D01*
X37401720Y-22626664D01*
X37409288Y-22639290D01*
X37415582Y-22652597D01*
X37420541Y-22666457D01*
X37424118Y-22680736D01*
X37426278Y-22695297D01*
X37427000Y-22710000D01*
X37427000Y-23010000D01*
X37426278Y-23024703D01*
X37424118Y-23039264D01*
X37420541Y-23053543D01*
X37415582Y-23067403D01*
X37409288Y-23080710D01*
X37401720Y-23093336D01*
X37392952Y-23105159D01*
X37383066Y-23116066D01*
X37372159Y-23125952D01*
X37360336Y-23134720D01*
X37347710Y-23142288D01*
X37334403Y-23148582D01*
X37320543Y-23153541D01*
X37306264Y-23157118D01*
X37291703Y-23159278D01*
X37277000Y-23160000D01*
X35627000Y-23160000D01*
X35612297Y-23159278D01*
X35597736Y-23157118D01*
X35583457Y-23153541D01*
X35569597Y-23148582D01*
X35556290Y-23142288D01*
X35543664Y-23134720D01*
X35531841Y-23125952D01*
X35520934Y-23116066D01*
X35511048Y-23105159D01*
X35502280Y-23093336D01*
X35494712Y-23080710D01*
X35488418Y-23067403D01*
X35483459Y-23053543D01*
X35479882Y-23039264D01*
X35477722Y-23024703D01*
X35477000Y-23010000D01*
X35477000Y-22710000D01*
X35477722Y-22695297D01*
X35479882Y-22680736D01*
X35483459Y-22666457D01*
X35488418Y-22652597D01*
X35494712Y-22639290D01*
X35502280Y-22626664D01*
X35511048Y-22614841D01*
X35520934Y-22603934D01*
X35531841Y-22594048D01*
X35543664Y-22585280D01*
X35556290Y-22577712D01*
X35569597Y-22571418D01*
X35583457Y-22566459D01*
X35597736Y-22562882D01*
X35612297Y-22560722D01*
X35627000Y-22560000D01*
X37277000Y-22560000D01*
X37291703Y-22560722D01*
X37291703Y-22560722D01*
G37*
D14*
X36452000Y-22860000D03*
D12*
G36*
X37291703Y-23830722D02*
G01*
X37306264Y-23832882D01*
X37320543Y-23836459D01*
X37334403Y-23841418D01*
X37347710Y-23847712D01*
X37360336Y-23855280D01*
X37372159Y-23864048D01*
X37383066Y-23873934D01*
X37392952Y-23884841D01*
X37401720Y-23896664D01*
X37409288Y-23909290D01*
X37415582Y-23922597D01*
X37420541Y-23936457D01*
X37424118Y-23950736D01*
X37426278Y-23965297D01*
X37427000Y-23980000D01*
X37427000Y-24280000D01*
X37426278Y-24294703D01*
X37424118Y-24309264D01*
X37420541Y-24323543D01*
X37415582Y-24337403D01*
X37409288Y-24350710D01*
X37401720Y-24363336D01*
X37392952Y-24375159D01*
X37383066Y-24386066D01*
X37372159Y-24395952D01*
X37360336Y-24404720D01*
X37347710Y-24412288D01*
X37334403Y-24418582D01*
X37320543Y-24423541D01*
X37306264Y-24427118D01*
X37291703Y-24429278D01*
X37277000Y-24430000D01*
X35627000Y-24430000D01*
X35612297Y-24429278D01*
X35597736Y-24427118D01*
X35583457Y-24423541D01*
X35569597Y-24418582D01*
X35556290Y-24412288D01*
X35543664Y-24404720D01*
X35531841Y-24395952D01*
X35520934Y-24386066D01*
X35511048Y-24375159D01*
X35502280Y-24363336D01*
X35494712Y-24350710D01*
X35488418Y-24337403D01*
X35483459Y-24323543D01*
X35479882Y-24309264D01*
X35477722Y-24294703D01*
X35477000Y-24280000D01*
X35477000Y-23980000D01*
X35477722Y-23965297D01*
X35479882Y-23950736D01*
X35483459Y-23936457D01*
X35488418Y-23922597D01*
X35494712Y-23909290D01*
X35502280Y-23896664D01*
X35511048Y-23884841D01*
X35520934Y-23873934D01*
X35531841Y-23864048D01*
X35543664Y-23855280D01*
X35556290Y-23847712D01*
X35569597Y-23841418D01*
X35583457Y-23836459D01*
X35597736Y-23832882D01*
X35612297Y-23830722D01*
X35627000Y-23830000D01*
X37277000Y-23830000D01*
X37291703Y-23830722D01*
X37291703Y-23830722D01*
G37*
D14*
X36452000Y-24130000D03*
D12*
G36*
X37291703Y-25100722D02*
G01*
X37306264Y-25102882D01*
X37320543Y-25106459D01*
X37334403Y-25111418D01*
X37347710Y-25117712D01*
X37360336Y-25125280D01*
X37372159Y-25134048D01*
X37383066Y-25143934D01*
X37392952Y-25154841D01*
X37401720Y-25166664D01*
X37409288Y-25179290D01*
X37415582Y-25192597D01*
X37420541Y-25206457D01*
X37424118Y-25220736D01*
X37426278Y-25235297D01*
X37427000Y-25250000D01*
X37427000Y-25550000D01*
X37426278Y-25564703D01*
X37424118Y-25579264D01*
X37420541Y-25593543D01*
X37415582Y-25607403D01*
X37409288Y-25620710D01*
X37401720Y-25633336D01*
X37392952Y-25645159D01*
X37383066Y-25656066D01*
X37372159Y-25665952D01*
X37360336Y-25674720D01*
X37347710Y-25682288D01*
X37334403Y-25688582D01*
X37320543Y-25693541D01*
X37306264Y-25697118D01*
X37291703Y-25699278D01*
X37277000Y-25700000D01*
X35627000Y-25700000D01*
X35612297Y-25699278D01*
X35597736Y-25697118D01*
X35583457Y-25693541D01*
X35569597Y-25688582D01*
X35556290Y-25682288D01*
X35543664Y-25674720D01*
X35531841Y-25665952D01*
X35520934Y-25656066D01*
X35511048Y-25645159D01*
X35502280Y-25633336D01*
X35494712Y-25620710D01*
X35488418Y-25607403D01*
X35483459Y-25593543D01*
X35479882Y-25579264D01*
X35477722Y-25564703D01*
X35477000Y-25550000D01*
X35477000Y-25250000D01*
X35477722Y-25235297D01*
X35479882Y-25220736D01*
X35483459Y-25206457D01*
X35488418Y-25192597D01*
X35494712Y-25179290D01*
X35502280Y-25166664D01*
X35511048Y-25154841D01*
X35520934Y-25143934D01*
X35531841Y-25134048D01*
X35543664Y-25125280D01*
X35556290Y-25117712D01*
X35569597Y-25111418D01*
X35583457Y-25106459D01*
X35597736Y-25102882D01*
X35612297Y-25100722D01*
X35627000Y-25100000D01*
X37277000Y-25100000D01*
X37291703Y-25100722D01*
X37291703Y-25100722D01*
G37*
D14*
X36452000Y-25400000D03*
D12*
G36*
X37291703Y-26370722D02*
G01*
X37306264Y-26372882D01*
X37320543Y-26376459D01*
X37334403Y-26381418D01*
X37347710Y-26387712D01*
X37360336Y-26395280D01*
X37372159Y-26404048D01*
X37383066Y-26413934D01*
X37392952Y-26424841D01*
X37401720Y-26436664D01*
X37409288Y-26449290D01*
X37415582Y-26462597D01*
X37420541Y-26476457D01*
X37424118Y-26490736D01*
X37426278Y-26505297D01*
X37427000Y-26520000D01*
X37427000Y-26820000D01*
X37426278Y-26834703D01*
X37424118Y-26849264D01*
X37420541Y-26863543D01*
X37415582Y-26877403D01*
X37409288Y-26890710D01*
X37401720Y-26903336D01*
X37392952Y-26915159D01*
X37383066Y-26926066D01*
X37372159Y-26935952D01*
X37360336Y-26944720D01*
X37347710Y-26952288D01*
X37334403Y-26958582D01*
X37320543Y-26963541D01*
X37306264Y-26967118D01*
X37291703Y-26969278D01*
X37277000Y-26970000D01*
X35627000Y-26970000D01*
X35612297Y-26969278D01*
X35597736Y-26967118D01*
X35583457Y-26963541D01*
X35569597Y-26958582D01*
X35556290Y-26952288D01*
X35543664Y-26944720D01*
X35531841Y-26935952D01*
X35520934Y-26926066D01*
X35511048Y-26915159D01*
X35502280Y-26903336D01*
X35494712Y-26890710D01*
X35488418Y-26877403D01*
X35483459Y-26863543D01*
X35479882Y-26849264D01*
X35477722Y-26834703D01*
X35477000Y-26820000D01*
X35477000Y-26520000D01*
X35477722Y-26505297D01*
X35479882Y-26490736D01*
X35483459Y-26476457D01*
X35488418Y-26462597D01*
X35494712Y-26449290D01*
X35502280Y-26436664D01*
X35511048Y-26424841D01*
X35520934Y-26413934D01*
X35531841Y-26404048D01*
X35543664Y-26395280D01*
X35556290Y-26387712D01*
X35569597Y-26381418D01*
X35583457Y-26376459D01*
X35597736Y-26372882D01*
X35612297Y-26370722D01*
X35627000Y-26370000D01*
X37277000Y-26370000D01*
X37291703Y-26370722D01*
X37291703Y-26370722D01*
G37*
D14*
X36452000Y-26670000D03*
D12*
G36*
X31081505Y-16571204D02*
G01*
X31105773Y-16574804D01*
X31129572Y-16580765D01*
X31152671Y-16589030D01*
X31174850Y-16599520D01*
X31195893Y-16612132D01*
X31215599Y-16626747D01*
X31233777Y-16643223D01*
X31250253Y-16661401D01*
X31264868Y-16681107D01*
X31277480Y-16702150D01*
X31287970Y-16724329D01*
X31296235Y-16747428D01*
X31302196Y-16771227D01*
X31305796Y-16795495D01*
X31307000Y-16819999D01*
X31307000Y-17470001D01*
X31305796Y-17494505D01*
X31302196Y-17518773D01*
X31296235Y-17542572D01*
X31287970Y-17565671D01*
X31277480Y-17587850D01*
X31264868Y-17608893D01*
X31250253Y-17628599D01*
X31233777Y-17646777D01*
X31215599Y-17663253D01*
X31195893Y-17677868D01*
X31174850Y-17690480D01*
X31152671Y-17700970D01*
X31129572Y-17709235D01*
X31105773Y-17715196D01*
X31081505Y-17718796D01*
X31057001Y-17720000D01*
X30156999Y-17720000D01*
X30132495Y-17718796D01*
X30108227Y-17715196D01*
X30084428Y-17709235D01*
X30061329Y-17700970D01*
X30039150Y-17690480D01*
X30018107Y-17677868D01*
X29998401Y-17663253D01*
X29980223Y-17646777D01*
X29963747Y-17628599D01*
X29949132Y-17608893D01*
X29936520Y-17587850D01*
X29926030Y-17565671D01*
X29917765Y-17542572D01*
X29911804Y-17518773D01*
X29908204Y-17494505D01*
X29907000Y-17470001D01*
X29907000Y-16819999D01*
X29908204Y-16795495D01*
X29911804Y-16771227D01*
X29917765Y-16747428D01*
X29926030Y-16724329D01*
X29936520Y-16702150D01*
X29949132Y-16681107D01*
X29963747Y-16661401D01*
X29980223Y-16643223D01*
X29998401Y-16626747D01*
X30018107Y-16612132D01*
X30039150Y-16599520D01*
X30061329Y-16589030D01*
X30084428Y-16580765D01*
X30108227Y-16574804D01*
X30132495Y-16571204D01*
X30156999Y-16570000D01*
X31057001Y-16570000D01*
X31081505Y-16571204D01*
X31081505Y-16571204D01*
G37*
D13*
X30607000Y-17145000D03*
D12*
G36*
X31081505Y-18621204D02*
G01*
X31105773Y-18624804D01*
X31129572Y-18630765D01*
X31152671Y-18639030D01*
X31174850Y-18649520D01*
X31195893Y-18662132D01*
X31215599Y-18676747D01*
X31233777Y-18693223D01*
X31250253Y-18711401D01*
X31264868Y-18731107D01*
X31277480Y-18752150D01*
X31287970Y-18774329D01*
X31296235Y-18797428D01*
X31302196Y-18821227D01*
X31305796Y-18845495D01*
X31307000Y-18869999D01*
X31307000Y-19520001D01*
X31305796Y-19544505D01*
X31302196Y-19568773D01*
X31296235Y-19592572D01*
X31287970Y-19615671D01*
X31277480Y-19637850D01*
X31264868Y-19658893D01*
X31250253Y-19678599D01*
X31233777Y-19696777D01*
X31215599Y-19713253D01*
X31195893Y-19727868D01*
X31174850Y-19740480D01*
X31152671Y-19750970D01*
X31129572Y-19759235D01*
X31105773Y-19765196D01*
X31081505Y-19768796D01*
X31057001Y-19770000D01*
X30156999Y-19770000D01*
X30132495Y-19768796D01*
X30108227Y-19765196D01*
X30084428Y-19759235D01*
X30061329Y-19750970D01*
X30039150Y-19740480D01*
X30018107Y-19727868D01*
X29998401Y-19713253D01*
X29980223Y-19696777D01*
X29963747Y-19678599D01*
X29949132Y-19658893D01*
X29936520Y-19637850D01*
X29926030Y-19615671D01*
X29917765Y-19592572D01*
X29911804Y-19568773D01*
X29908204Y-19544505D01*
X29907000Y-19520001D01*
X29907000Y-18869999D01*
X29908204Y-18845495D01*
X29911804Y-18821227D01*
X29917765Y-18797428D01*
X29926030Y-18774329D01*
X29936520Y-18752150D01*
X29949132Y-18731107D01*
X29963747Y-18711401D01*
X29980223Y-18693223D01*
X29998401Y-18676747D01*
X30018107Y-18662132D01*
X30039150Y-18649520D01*
X30061329Y-18639030D01*
X30084428Y-18630765D01*
X30108227Y-18624804D01*
X30132495Y-18621204D01*
X30156999Y-18620000D01*
X31057001Y-18620000D01*
X31081505Y-18621204D01*
X31081505Y-18621204D01*
G37*
D13*
X30607000Y-19195000D03*
M02*
