G04 #@! TF.GenerationSoftware,KiCad,Pcbnew,(5.1.2-1)-1*
G04 #@! TF.CreationDate,2020-02-16T12:27:45-05:00*
G04 #@! TF.ProjectId,Delibird,44656c69-6269-4726-942e-6b696361645f,rev?*
G04 #@! TF.SameCoordinates,Original*
G04 #@! TF.FileFunction,Legend,Bot*
G04 #@! TF.FilePolarity,Positive*
%FSLAX46Y46*%
G04 Gerber Fmt 4.6, Leading zero omitted, Abs format (unit mm)*
G04 Created by KiCad (PCBNEW (5.1.2-1)-1) date 2020-02-16 12:27:45*
%MOMM*%
%LPD*%
G04 APERTURE LIST*
%ADD10C,0.120000*%
%ADD11C,0.150000*%
G04 APERTURE END LIST*
D10*
X37218252Y-21411000D02*
X36695748Y-21411000D01*
X37218252Y-19991000D02*
X36695748Y-19991000D01*
X47296000Y-25026252D02*
X47296000Y-24503748D01*
X48716000Y-25026252D02*
X48716000Y-24503748D01*
X41667000Y-28213000D02*
X35657000Y-28213000D01*
X39417000Y-35033000D02*
X35657000Y-35033000D01*
X35657000Y-28213000D02*
X35657000Y-29473000D01*
X35657000Y-35033000D02*
X35657000Y-33773000D01*
X38927000Y-27325000D02*
X35477000Y-27325000D01*
X38927000Y-27325000D02*
X40877000Y-27325000D01*
X38927000Y-22205000D02*
X36977000Y-22205000D01*
X38927000Y-22205000D02*
X40877000Y-22205000D01*
X29897000Y-18431252D02*
X29897000Y-17908748D01*
X31317000Y-18431252D02*
X31317000Y-17908748D01*
X31684000Y-28213000D02*
X25674000Y-28213000D01*
X29434000Y-35033000D02*
X25674000Y-35033000D01*
X25674000Y-28213000D02*
X25674000Y-29473000D01*
X25674000Y-35033000D02*
X25674000Y-33773000D01*
D11*
X37123666Y-19408142D02*
X37171285Y-19455761D01*
X37314142Y-19503380D01*
X37409380Y-19503380D01*
X37552238Y-19455761D01*
X37647476Y-19360523D01*
X37695095Y-19265285D01*
X37742714Y-19074809D01*
X37742714Y-18931952D01*
X37695095Y-18741476D01*
X37647476Y-18646238D01*
X37552238Y-18551000D01*
X37409380Y-18503380D01*
X37314142Y-18503380D01*
X37171285Y-18551000D01*
X37123666Y-18598619D01*
X36647476Y-19503380D02*
X36457000Y-19503380D01*
X36361761Y-19455761D01*
X36314142Y-19408142D01*
X36218904Y-19265285D01*
X36171285Y-19074809D01*
X36171285Y-18693857D01*
X36218904Y-18598619D01*
X36266523Y-18551000D01*
X36361761Y-18503380D01*
X36552238Y-18503380D01*
X36647476Y-18551000D01*
X36695095Y-18598619D01*
X36742714Y-18693857D01*
X36742714Y-18931952D01*
X36695095Y-19027190D01*
X36647476Y-19074809D01*
X36552238Y-19122428D01*
X36361761Y-19122428D01*
X36266523Y-19074809D01*
X36218904Y-19027190D01*
X36171285Y-18931952D01*
X50108380Y-24598333D02*
X49632190Y-24265000D01*
X50108380Y-24026904D02*
X49108380Y-24026904D01*
X49108380Y-24407857D01*
X49156000Y-24503095D01*
X49203619Y-24550714D01*
X49298857Y-24598333D01*
X49441714Y-24598333D01*
X49536952Y-24550714D01*
X49584571Y-24503095D01*
X49632190Y-24407857D01*
X49632190Y-24026904D01*
X49203619Y-24979285D02*
X49156000Y-25026904D01*
X49108380Y-25122142D01*
X49108380Y-25360238D01*
X49156000Y-25455476D01*
X49203619Y-25503095D01*
X49298857Y-25550714D01*
X49394095Y-25550714D01*
X49536952Y-25503095D01*
X50108380Y-24931666D01*
X50108380Y-25550714D01*
X34670904Y-26884380D02*
X34670904Y-27693904D01*
X34623285Y-27789142D01*
X34575666Y-27836761D01*
X34480428Y-27884380D01*
X34289952Y-27884380D01*
X34194714Y-27836761D01*
X34147095Y-27789142D01*
X34099476Y-27693904D01*
X34099476Y-26884380D01*
X33718523Y-26884380D02*
X33099476Y-26884380D01*
X33432809Y-27265333D01*
X33289952Y-27265333D01*
X33194714Y-27312952D01*
X33147095Y-27360571D01*
X33099476Y-27455809D01*
X33099476Y-27693904D01*
X33147095Y-27789142D01*
X33194714Y-27836761D01*
X33289952Y-27884380D01*
X33575666Y-27884380D01*
X33670904Y-27836761D01*
X33718523Y-27789142D01*
X36829904Y-20788380D02*
X36829904Y-21597904D01*
X36782285Y-21693142D01*
X36734666Y-21740761D01*
X36639428Y-21788380D01*
X36448952Y-21788380D01*
X36353714Y-21740761D01*
X36306095Y-21693142D01*
X36258476Y-21597904D01*
X36258476Y-20788380D01*
X35829904Y-20883619D02*
X35782285Y-20836000D01*
X35687047Y-20788380D01*
X35448952Y-20788380D01*
X35353714Y-20836000D01*
X35306095Y-20883619D01*
X35258476Y-20978857D01*
X35258476Y-21074095D01*
X35306095Y-21216952D01*
X35877523Y-21788380D01*
X35258476Y-21788380D01*
X30773666Y-16073380D02*
X31107000Y-15597190D01*
X31345095Y-16073380D02*
X31345095Y-15073380D01*
X30964142Y-15073380D01*
X30868904Y-15121000D01*
X30821285Y-15168619D01*
X30773666Y-15263857D01*
X30773666Y-15406714D01*
X30821285Y-15501952D01*
X30868904Y-15549571D01*
X30964142Y-15597190D01*
X31345095Y-15597190D01*
X29821285Y-16073380D02*
X30392714Y-16073380D01*
X30107000Y-16073380D02*
X30107000Y-15073380D01*
X30202238Y-15216238D01*
X30297476Y-15311476D01*
X30392714Y-15359095D01*
X24764904Y-26884380D02*
X24764904Y-27693904D01*
X24717285Y-27789142D01*
X24669666Y-27836761D01*
X24574428Y-27884380D01*
X24383952Y-27884380D01*
X24288714Y-27836761D01*
X24241095Y-27789142D01*
X24193476Y-27693904D01*
X24193476Y-26884380D01*
X23288714Y-27217714D02*
X23288714Y-27884380D01*
X23526809Y-26836761D02*
X23764904Y-27551047D01*
X23145857Y-27551047D01*
M02*
