M48
; DRILL file {KiCad (5.1.4)-1} date 2/16/2020 6:27:36 PM
; FORMAT={-:-/ absolute / inch / decimal}
; #@! TF.CreationDate,2020-02-16T18:27:36-05:00
; #@! TF.GenerationSoftware,Kicad,Pcbnew,(5.1.4)-1
; #@! TF.FileFunction,Plated,1,2,PTH
FMAT,2
INCH
T1C0.0157
T2C0.0374
T3C0.0394
%
G90
G05
T1
X0.6Y-0.6
X0.8Y-0.6
X0.8Y-0.8
X0.8Y-1.4
X0.945Y-0.95
X1.04Y-0.885
X1.05Y-1.2
X1.1Y-0.95
X1.1Y-1.03
X1.2Y-0.6
X1.2625Y-0.9197
X1.285Y-1.245
X1.3Y-1.0
X1.3301Y-0.947
X1.365Y-1.245
X1.382Y-0.8651
X1.4Y-0.6
X1.435Y-0.9
X1.435Y-1.0
X1.435Y-1.05
X1.5Y-1.245
X1.6Y-0.6
X1.6Y-1.4
X1.605Y-1.155
X1.605Y-1.245
X1.63Y-0.795
X1.7Y-1.28
X1.715Y-0.9
X1.8Y-1.4
T2
X1.795Y-0.9266
X1.795Y-1.025
X1.795Y-1.1234
X1.795Y-1.2219
X0.6Y-0.8531
X0.6Y-0.9516
X0.6Y-1.05
T3
X0.885Y-0.66
X0.885Y-0.76
X0.985Y-0.66
X0.985Y-0.76
X1.085Y-0.66
X1.085Y-0.76
T0
M30
