G04 #@! TF.GenerationSoftware,KiCad,Pcbnew,(5.1.4)-1*
G04 #@! TF.CreationDate,2020-03-11T00:03:17-04:00*
G04 #@! TF.ProjectId,Psyduck,50737964-7563-46b2-9e6b-696361645f70,rev?*
G04 #@! TF.SameCoordinates,Original*
G04 #@! TF.FileFunction,Soldermask,Bot*
G04 #@! TF.FilePolarity,Negative*
%FSLAX46Y46*%
G04 Gerber Fmt 4.6, Leading zero omitted, Abs format (unit mm)*
G04 Created by KiCad (PCBNEW (5.1.4)-1) date 2020-03-11 00:03:17*
%MOMM*%
%LPD*%
G04 APERTURE LIST*
%ADD10C,0.100000*%
G04 APERTURE END LIST*
D10*
G36*
X41768000Y-34724000D02*
G01*
X39666000Y-34724000D01*
X39666000Y-33122000D01*
X41768000Y-33122000D01*
X41768000Y-34724000D01*
X41768000Y-34724000D01*
G37*
G36*
X35468000Y-33574000D02*
G01*
X33366000Y-33574000D01*
X33366000Y-29672000D01*
X35468000Y-29672000D01*
X35468000Y-33574000D01*
X35468000Y-33574000D01*
G37*
G36*
X41768000Y-32424000D02*
G01*
X39666000Y-32424000D01*
X39666000Y-30822000D01*
X41768000Y-30822000D01*
X41768000Y-32424000D01*
X41768000Y-32424000D01*
G37*
G36*
X46476600Y-30137989D02*
G01*
X46509652Y-30148015D01*
X46540103Y-30164292D01*
X46566799Y-30186201D01*
X46588708Y-30212897D01*
X46604985Y-30243348D01*
X46615011Y-30276400D01*
X46619000Y-30316903D01*
X46619000Y-31753097D01*
X46615011Y-31793600D01*
X46604985Y-31826652D01*
X46588708Y-31857103D01*
X46566799Y-31883799D01*
X46540103Y-31905708D01*
X46509652Y-31921985D01*
X46476600Y-31932011D01*
X46436097Y-31936000D01*
X44749903Y-31936000D01*
X44709400Y-31932011D01*
X44676348Y-31921985D01*
X44645897Y-31905708D01*
X44619201Y-31883799D01*
X44597292Y-31857103D01*
X44581015Y-31826652D01*
X44570989Y-31793600D01*
X44567000Y-31753097D01*
X44567000Y-30316903D01*
X44570989Y-30276400D01*
X44581015Y-30243348D01*
X44597292Y-30212897D01*
X44619201Y-30186201D01*
X44645897Y-30164292D01*
X44676348Y-30148015D01*
X44709400Y-30137989D01*
X44749903Y-30134000D01*
X46436097Y-30134000D01*
X46476600Y-30137989D01*
X46476600Y-30137989D01*
G37*
G36*
X41768000Y-30124000D02*
G01*
X39666000Y-30124000D01*
X39666000Y-28522000D01*
X41768000Y-28522000D01*
X41768000Y-30124000D01*
X41768000Y-30124000D01*
G37*
G36*
X45828443Y-27640519D02*
G01*
X45894627Y-27647037D01*
X46064466Y-27698557D01*
X46220991Y-27782222D01*
X46256729Y-27811552D01*
X46358186Y-27894814D01*
X46441448Y-27996271D01*
X46470778Y-28032009D01*
X46554443Y-28188534D01*
X46605963Y-28358373D01*
X46623359Y-28535000D01*
X46605963Y-28711627D01*
X46554443Y-28881466D01*
X46470778Y-29037991D01*
X46441448Y-29073729D01*
X46358186Y-29175186D01*
X46256729Y-29258448D01*
X46220991Y-29287778D01*
X46064466Y-29371443D01*
X45894627Y-29422963D01*
X45828443Y-29429481D01*
X45762260Y-29436000D01*
X45423740Y-29436000D01*
X45357557Y-29429481D01*
X45291373Y-29422963D01*
X45121534Y-29371443D01*
X44965009Y-29287778D01*
X44929271Y-29258448D01*
X44827814Y-29175186D01*
X44744552Y-29073729D01*
X44715222Y-29037991D01*
X44631557Y-28881466D01*
X44580037Y-28711627D01*
X44562641Y-28535000D01*
X44580037Y-28358373D01*
X44631557Y-28188534D01*
X44715222Y-28032009D01*
X44744552Y-27996271D01*
X44827814Y-27894814D01*
X44929271Y-27811552D01*
X44965009Y-27782222D01*
X45121534Y-27698557D01*
X45291373Y-27647037D01*
X45357557Y-27640519D01*
X45423740Y-27634000D01*
X45762260Y-27634000D01*
X45828443Y-27640519D01*
X45828443Y-27640519D01*
G37*
G36*
X18663600Y-27042989D02*
G01*
X18696652Y-27053015D01*
X18727103Y-27069292D01*
X18753799Y-27091201D01*
X18775708Y-27117897D01*
X18791985Y-27148348D01*
X18802011Y-27181400D01*
X18806000Y-27221903D01*
X18806000Y-28658097D01*
X18802011Y-28698600D01*
X18791985Y-28731652D01*
X18775708Y-28762103D01*
X18753799Y-28788799D01*
X18727103Y-28810708D01*
X18696652Y-28826985D01*
X18663600Y-28837011D01*
X18623097Y-28841000D01*
X16936903Y-28841000D01*
X16896400Y-28837011D01*
X16863348Y-28826985D01*
X16832897Y-28810708D01*
X16806201Y-28788799D01*
X16784292Y-28762103D01*
X16768015Y-28731652D01*
X16757989Y-28698600D01*
X16754000Y-28658097D01*
X16754000Y-27221903D01*
X16757989Y-27181400D01*
X16768015Y-27148348D01*
X16784292Y-27117897D01*
X16806201Y-27091201D01*
X16832897Y-27069292D01*
X16863348Y-27053015D01*
X16896400Y-27042989D01*
X16936903Y-27039000D01*
X18623097Y-27039000D01*
X18663600Y-27042989D01*
X18663600Y-27042989D01*
G37*
G36*
X37386928Y-26321764D02*
G01*
X37408009Y-26328160D01*
X37427445Y-26338548D01*
X37444476Y-26352524D01*
X37458452Y-26369555D01*
X37468840Y-26388991D01*
X37475236Y-26410072D01*
X37478000Y-26438140D01*
X37478000Y-26901860D01*
X37475236Y-26929928D01*
X37468840Y-26951009D01*
X37458452Y-26970445D01*
X37444476Y-26987476D01*
X37427445Y-27001452D01*
X37408009Y-27011840D01*
X37386928Y-27018236D01*
X37358860Y-27021000D01*
X35545140Y-27021000D01*
X35517072Y-27018236D01*
X35495991Y-27011840D01*
X35476555Y-27001452D01*
X35459524Y-26987476D01*
X35445548Y-26970445D01*
X35435160Y-26951009D01*
X35428764Y-26929928D01*
X35426000Y-26901860D01*
X35426000Y-26438140D01*
X35428764Y-26410072D01*
X35435160Y-26388991D01*
X35445548Y-26369555D01*
X35459524Y-26352524D01*
X35476555Y-26338548D01*
X35495991Y-26328160D01*
X35517072Y-26321764D01*
X35545140Y-26319000D01*
X37358860Y-26319000D01*
X37386928Y-26321764D01*
X37386928Y-26321764D01*
G37*
G36*
X42336928Y-26321764D02*
G01*
X42358009Y-26328160D01*
X42377445Y-26338548D01*
X42394476Y-26352524D01*
X42408452Y-26369555D01*
X42418840Y-26388991D01*
X42425236Y-26410072D01*
X42428000Y-26438140D01*
X42428000Y-26901860D01*
X42425236Y-26929928D01*
X42418840Y-26951009D01*
X42408452Y-26970445D01*
X42394476Y-26987476D01*
X42377445Y-27001452D01*
X42358009Y-27011840D01*
X42336928Y-27018236D01*
X42308860Y-27021000D01*
X40495140Y-27021000D01*
X40467072Y-27018236D01*
X40445991Y-27011840D01*
X40426555Y-27001452D01*
X40409524Y-26987476D01*
X40395548Y-26970445D01*
X40385160Y-26951009D01*
X40378764Y-26929928D01*
X40376000Y-26901860D01*
X40376000Y-26438140D01*
X40378764Y-26410072D01*
X40385160Y-26388991D01*
X40395548Y-26369555D01*
X40409524Y-26352524D01*
X40426555Y-26338548D01*
X40445991Y-26328160D01*
X40467072Y-26321764D01*
X40495140Y-26319000D01*
X42308860Y-26319000D01*
X42336928Y-26321764D01*
X42336928Y-26321764D01*
G37*
G36*
X45823909Y-25140072D02*
G01*
X45894627Y-25147037D01*
X46064466Y-25198557D01*
X46220991Y-25282222D01*
X46256729Y-25311552D01*
X46358186Y-25394814D01*
X46441448Y-25496271D01*
X46470778Y-25532009D01*
X46554443Y-25688534D01*
X46605963Y-25858373D01*
X46623359Y-26035000D01*
X46605963Y-26211627D01*
X46554443Y-26381466D01*
X46470778Y-26537991D01*
X46441448Y-26573729D01*
X46358186Y-26675186D01*
X46256729Y-26758448D01*
X46220991Y-26787778D01*
X46064466Y-26871443D01*
X45894627Y-26922963D01*
X45828443Y-26929481D01*
X45762260Y-26936000D01*
X45423740Y-26936000D01*
X45357557Y-26929481D01*
X45291373Y-26922963D01*
X45121534Y-26871443D01*
X44965009Y-26787778D01*
X44929271Y-26758448D01*
X44827814Y-26675186D01*
X44744552Y-26573729D01*
X44715222Y-26537991D01*
X44631557Y-26381466D01*
X44580037Y-26211627D01*
X44562641Y-26035000D01*
X44580037Y-25858373D01*
X44631557Y-25688534D01*
X44715222Y-25532009D01*
X44744552Y-25496271D01*
X44827814Y-25394814D01*
X44929271Y-25311552D01*
X44965009Y-25282222D01*
X45121534Y-25198557D01*
X45291373Y-25147037D01*
X45362091Y-25140072D01*
X45423740Y-25134000D01*
X45762260Y-25134000D01*
X45823909Y-25140072D01*
X45823909Y-25140072D01*
G37*
G36*
X18015443Y-24545519D02*
G01*
X18081627Y-24552037D01*
X18251466Y-24603557D01*
X18407991Y-24687222D01*
X18443729Y-24716552D01*
X18545186Y-24799814D01*
X18628448Y-24901271D01*
X18657778Y-24937009D01*
X18657779Y-24937011D01*
X18724780Y-25062359D01*
X18741443Y-25093534D01*
X18792963Y-25263373D01*
X18810359Y-25440000D01*
X18792963Y-25616627D01*
X18741443Y-25786466D01*
X18657778Y-25942991D01*
X18628448Y-25978729D01*
X18545186Y-26080186D01*
X18443729Y-26163448D01*
X18407991Y-26192778D01*
X18251466Y-26276443D01*
X18081627Y-26327963D01*
X18015442Y-26334482D01*
X17949260Y-26341000D01*
X17610740Y-26341000D01*
X17544557Y-26334481D01*
X17478373Y-26327963D01*
X17308534Y-26276443D01*
X17152009Y-26192778D01*
X17116271Y-26163448D01*
X17014814Y-26080186D01*
X16931552Y-25978729D01*
X16902222Y-25942991D01*
X16818557Y-25786466D01*
X16767037Y-25616627D01*
X16749641Y-25440000D01*
X16767037Y-25263373D01*
X16818557Y-25093534D01*
X16835221Y-25062359D01*
X16902221Y-24937011D01*
X16902222Y-24937009D01*
X16931552Y-24901271D01*
X17014814Y-24799814D01*
X17116271Y-24716552D01*
X17152009Y-24687222D01*
X17308534Y-24603557D01*
X17478373Y-24552037D01*
X17544557Y-24545519D01*
X17610740Y-24539000D01*
X17949260Y-24539000D01*
X18015443Y-24545519D01*
X18015443Y-24545519D01*
G37*
G36*
X37386928Y-25051764D02*
G01*
X37408009Y-25058160D01*
X37427445Y-25068548D01*
X37444476Y-25082524D01*
X37458452Y-25099555D01*
X37468840Y-25118991D01*
X37475236Y-25140072D01*
X37478000Y-25168140D01*
X37478000Y-25631860D01*
X37475236Y-25659928D01*
X37468840Y-25681009D01*
X37458452Y-25700445D01*
X37444476Y-25717476D01*
X37427445Y-25731452D01*
X37408009Y-25741840D01*
X37386928Y-25748236D01*
X37358860Y-25751000D01*
X35545140Y-25751000D01*
X35517072Y-25748236D01*
X35495991Y-25741840D01*
X35476555Y-25731452D01*
X35459524Y-25717476D01*
X35445548Y-25700445D01*
X35435160Y-25681009D01*
X35428764Y-25659928D01*
X35426000Y-25631860D01*
X35426000Y-25168140D01*
X35428764Y-25140072D01*
X35435160Y-25118991D01*
X35445548Y-25099555D01*
X35459524Y-25082524D01*
X35476555Y-25068548D01*
X35495991Y-25058160D01*
X35517072Y-25051764D01*
X35545140Y-25049000D01*
X37358860Y-25049000D01*
X37386928Y-25051764D01*
X37386928Y-25051764D01*
G37*
G36*
X42336928Y-25051764D02*
G01*
X42358009Y-25058160D01*
X42377445Y-25068548D01*
X42394476Y-25082524D01*
X42408452Y-25099555D01*
X42418840Y-25118991D01*
X42425236Y-25140072D01*
X42428000Y-25168140D01*
X42428000Y-25631860D01*
X42425236Y-25659928D01*
X42418840Y-25681009D01*
X42408452Y-25700445D01*
X42394476Y-25717476D01*
X42377445Y-25731452D01*
X42358009Y-25741840D01*
X42336928Y-25748236D01*
X42308860Y-25751000D01*
X40495140Y-25751000D01*
X40467072Y-25748236D01*
X40445991Y-25741840D01*
X40426555Y-25731452D01*
X40409524Y-25717476D01*
X40395548Y-25700445D01*
X40385160Y-25681009D01*
X40378764Y-25659928D01*
X40376000Y-25631860D01*
X40376000Y-25168140D01*
X40378764Y-25140072D01*
X40385160Y-25118991D01*
X40395548Y-25099555D01*
X40409524Y-25082524D01*
X40426555Y-25068548D01*
X40445991Y-25058160D01*
X40467072Y-25051764D01*
X40495140Y-25049000D01*
X42308860Y-25049000D01*
X42336928Y-25051764D01*
X42336928Y-25051764D01*
G37*
G36*
X37386928Y-23781764D02*
G01*
X37408009Y-23788160D01*
X37427445Y-23798548D01*
X37444476Y-23812524D01*
X37458452Y-23829555D01*
X37468840Y-23848991D01*
X37475236Y-23870072D01*
X37478000Y-23898140D01*
X37478000Y-24361860D01*
X37475236Y-24389928D01*
X37468840Y-24411009D01*
X37458452Y-24430445D01*
X37444476Y-24447476D01*
X37427445Y-24461452D01*
X37408009Y-24471840D01*
X37386928Y-24478236D01*
X37358860Y-24481000D01*
X35545140Y-24481000D01*
X35517072Y-24478236D01*
X35495991Y-24471840D01*
X35476555Y-24461452D01*
X35459524Y-24447476D01*
X35445548Y-24430445D01*
X35435160Y-24411009D01*
X35428764Y-24389928D01*
X35426000Y-24361860D01*
X35426000Y-23898140D01*
X35428764Y-23870072D01*
X35435160Y-23848991D01*
X35445548Y-23829555D01*
X35459524Y-23812524D01*
X35476555Y-23798548D01*
X35495991Y-23788160D01*
X35517072Y-23781764D01*
X35545140Y-23779000D01*
X37358860Y-23779000D01*
X37386928Y-23781764D01*
X37386928Y-23781764D01*
G37*
G36*
X42336928Y-23781764D02*
G01*
X42358009Y-23788160D01*
X42377445Y-23798548D01*
X42394476Y-23812524D01*
X42408452Y-23829555D01*
X42418840Y-23848991D01*
X42425236Y-23870072D01*
X42428000Y-23898140D01*
X42428000Y-24361860D01*
X42425236Y-24389928D01*
X42418840Y-24411009D01*
X42408452Y-24430445D01*
X42394476Y-24447476D01*
X42377445Y-24461452D01*
X42358009Y-24471840D01*
X42336928Y-24478236D01*
X42308860Y-24481000D01*
X40495140Y-24481000D01*
X40467072Y-24478236D01*
X40445991Y-24471840D01*
X40426555Y-24461452D01*
X40409524Y-24447476D01*
X40395548Y-24430445D01*
X40385160Y-24411009D01*
X40378764Y-24389928D01*
X40376000Y-24361860D01*
X40376000Y-23898140D01*
X40378764Y-23870072D01*
X40385160Y-23848991D01*
X40395548Y-23829555D01*
X40409524Y-23812524D01*
X40426555Y-23798548D01*
X40445991Y-23788160D01*
X40467072Y-23781764D01*
X40495140Y-23779000D01*
X42308860Y-23779000D01*
X42336928Y-23781764D01*
X42336928Y-23781764D01*
G37*
G36*
X45828443Y-22640519D02*
G01*
X45894627Y-22647037D01*
X46064466Y-22698557D01*
X46220991Y-22782222D01*
X46256729Y-22811552D01*
X46358186Y-22894814D01*
X46441448Y-22996271D01*
X46470778Y-23032009D01*
X46554443Y-23188534D01*
X46605963Y-23358373D01*
X46623359Y-23535000D01*
X46605963Y-23711627D01*
X46557899Y-23870072D01*
X46554442Y-23881468D01*
X46533706Y-23920262D01*
X46470778Y-24037991D01*
X46441448Y-24073729D01*
X46358186Y-24175186D01*
X46256729Y-24258448D01*
X46220991Y-24287778D01*
X46064466Y-24371443D01*
X45894627Y-24422963D01*
X45828443Y-24429481D01*
X45762260Y-24436000D01*
X45423740Y-24436000D01*
X45357557Y-24429481D01*
X45291373Y-24422963D01*
X45121534Y-24371443D01*
X44965009Y-24287778D01*
X44929271Y-24258448D01*
X44827814Y-24175186D01*
X44744552Y-24073729D01*
X44715222Y-24037991D01*
X44652294Y-23920262D01*
X44631558Y-23881468D01*
X44628101Y-23870072D01*
X44580037Y-23711627D01*
X44562641Y-23535000D01*
X44580037Y-23358373D01*
X44631557Y-23188534D01*
X44715222Y-23032009D01*
X44744552Y-22996271D01*
X44827814Y-22894814D01*
X44929271Y-22811552D01*
X44965009Y-22782222D01*
X45121534Y-22698557D01*
X45291373Y-22647037D01*
X45357557Y-22640519D01*
X45423740Y-22634000D01*
X45762260Y-22634000D01*
X45828443Y-22640519D01*
X45828443Y-22640519D01*
G37*
G36*
X18015443Y-22045519D02*
G01*
X18081627Y-22052037D01*
X18251466Y-22103557D01*
X18407991Y-22187222D01*
X18443729Y-22216552D01*
X18545186Y-22299814D01*
X18628448Y-22401271D01*
X18657778Y-22437009D01*
X18741443Y-22593534D01*
X18792963Y-22763373D01*
X18810359Y-22940000D01*
X18792963Y-23116627D01*
X18741443Y-23286466D01*
X18657778Y-23442991D01*
X18628448Y-23478729D01*
X18545186Y-23580186D01*
X18443729Y-23663448D01*
X18407991Y-23692778D01*
X18251466Y-23776443D01*
X18081627Y-23827963D01*
X18015442Y-23834482D01*
X17949260Y-23841000D01*
X17610740Y-23841000D01*
X17544558Y-23834482D01*
X17478373Y-23827963D01*
X17308534Y-23776443D01*
X17152009Y-23692778D01*
X17116271Y-23663448D01*
X17014814Y-23580186D01*
X16931552Y-23478729D01*
X16902222Y-23442991D01*
X16818557Y-23286466D01*
X16767037Y-23116627D01*
X16749641Y-22940000D01*
X16767037Y-22763373D01*
X16818557Y-22593534D01*
X16902222Y-22437009D01*
X16931552Y-22401271D01*
X17014814Y-22299814D01*
X17116271Y-22216552D01*
X17152009Y-22187222D01*
X17308534Y-22103557D01*
X17478373Y-22052037D01*
X17544557Y-22045519D01*
X17610740Y-22039000D01*
X17949260Y-22039000D01*
X18015443Y-22045519D01*
X18015443Y-22045519D01*
G37*
G36*
X42336928Y-22511764D02*
G01*
X42358009Y-22518160D01*
X42377445Y-22528548D01*
X42394476Y-22542524D01*
X42408452Y-22559555D01*
X42418840Y-22578991D01*
X42425236Y-22600072D01*
X42428000Y-22628140D01*
X42428000Y-23091860D01*
X42425236Y-23119928D01*
X42418840Y-23141009D01*
X42408452Y-23160445D01*
X42394476Y-23177476D01*
X42377445Y-23191452D01*
X42358009Y-23201840D01*
X42336928Y-23208236D01*
X42308860Y-23211000D01*
X40495140Y-23211000D01*
X40467072Y-23208236D01*
X40445991Y-23201840D01*
X40426555Y-23191452D01*
X40409524Y-23177476D01*
X40395548Y-23160445D01*
X40385160Y-23141009D01*
X40378764Y-23119928D01*
X40376000Y-23091860D01*
X40376000Y-22628140D01*
X40378764Y-22600072D01*
X40385160Y-22578991D01*
X40395548Y-22559555D01*
X40409524Y-22542524D01*
X40426555Y-22528548D01*
X40445991Y-22518160D01*
X40467072Y-22511764D01*
X40495140Y-22509000D01*
X42308860Y-22509000D01*
X42336928Y-22511764D01*
X42336928Y-22511764D01*
G37*
G36*
X37386928Y-22511764D02*
G01*
X37408009Y-22518160D01*
X37427445Y-22528548D01*
X37444476Y-22542524D01*
X37458452Y-22559555D01*
X37468840Y-22578991D01*
X37475236Y-22600072D01*
X37478000Y-22628140D01*
X37478000Y-23091860D01*
X37475236Y-23119928D01*
X37468840Y-23141009D01*
X37458452Y-23160445D01*
X37444476Y-23177476D01*
X37427445Y-23191452D01*
X37408009Y-23201840D01*
X37386928Y-23208236D01*
X37358860Y-23211000D01*
X35545140Y-23211000D01*
X35517072Y-23208236D01*
X35495991Y-23201840D01*
X35476555Y-23191452D01*
X35459524Y-23177476D01*
X35445548Y-23160445D01*
X35435160Y-23141009D01*
X35428764Y-23119928D01*
X35426000Y-23091860D01*
X35426000Y-22628140D01*
X35428764Y-22600072D01*
X35435160Y-22578991D01*
X35445548Y-22559555D01*
X35459524Y-22542524D01*
X35476555Y-22528548D01*
X35495991Y-22518160D01*
X35517072Y-22511764D01*
X35545140Y-22509000D01*
X37358860Y-22509000D01*
X37386928Y-22511764D01*
X37386928Y-22511764D01*
G37*
G36*
X36395674Y-19954465D02*
G01*
X36433367Y-19965899D01*
X36468103Y-19984466D01*
X36498548Y-20009452D01*
X36523534Y-20039897D01*
X36542101Y-20074633D01*
X36553535Y-20112326D01*
X36558000Y-20157661D01*
X36558000Y-21244339D01*
X36553535Y-21289674D01*
X36542101Y-21327367D01*
X36523534Y-21362103D01*
X36498548Y-21392548D01*
X36468103Y-21417534D01*
X36433367Y-21436101D01*
X36395674Y-21447535D01*
X36350339Y-21452000D01*
X35513661Y-21452000D01*
X35468326Y-21447535D01*
X35430633Y-21436101D01*
X35395897Y-21417534D01*
X35365452Y-21392548D01*
X35340466Y-21362103D01*
X35321899Y-21327367D01*
X35310465Y-21289674D01*
X35306000Y-21244339D01*
X35306000Y-20157661D01*
X35310465Y-20112326D01*
X35321899Y-20074633D01*
X35340466Y-20039897D01*
X35365452Y-20009452D01*
X35395897Y-19984466D01*
X35430633Y-19965899D01*
X35468326Y-19954465D01*
X35513661Y-19950000D01*
X36350339Y-19950000D01*
X36395674Y-19954465D01*
X36395674Y-19954465D01*
G37*
G36*
X38445674Y-19954465D02*
G01*
X38483367Y-19965899D01*
X38518103Y-19984466D01*
X38548548Y-20009452D01*
X38573534Y-20039897D01*
X38592101Y-20074633D01*
X38603535Y-20112326D01*
X38608000Y-20157661D01*
X38608000Y-21244339D01*
X38603535Y-21289674D01*
X38592101Y-21327367D01*
X38573534Y-21362103D01*
X38548548Y-21392548D01*
X38518103Y-21417534D01*
X38483367Y-21436101D01*
X38445674Y-21447535D01*
X38400339Y-21452000D01*
X37563661Y-21452000D01*
X37518326Y-21447535D01*
X37480633Y-21436101D01*
X37445897Y-21417534D01*
X37415452Y-21392548D01*
X37390466Y-21362103D01*
X37371899Y-21327367D01*
X37360465Y-21289674D01*
X37356000Y-21244339D01*
X37356000Y-20157661D01*
X37360465Y-20112326D01*
X37371899Y-20074633D01*
X37390466Y-20039897D01*
X37415452Y-20009452D01*
X37445897Y-19984466D01*
X37480633Y-19965899D01*
X37518326Y-19954465D01*
X37563661Y-19950000D01*
X38400339Y-19950000D01*
X38445674Y-19954465D01*
X38445674Y-19954465D01*
G37*
G36*
X25129443Y-18409519D02*
G01*
X25195627Y-18416037D01*
X25365466Y-18467557D01*
X25521991Y-18551222D01*
X25543653Y-18569000D01*
X25659186Y-18663814D01*
X25719261Y-18737017D01*
X25771778Y-18801009D01*
X25855443Y-18957534D01*
X25906963Y-19127373D01*
X25924359Y-19304000D01*
X25906963Y-19480627D01*
X25855443Y-19650466D01*
X25771778Y-19806991D01*
X25764573Y-19815770D01*
X25659186Y-19944186D01*
X25557729Y-20027448D01*
X25521991Y-20056778D01*
X25365466Y-20140443D01*
X25195627Y-20191963D01*
X25129443Y-20198481D01*
X25063260Y-20205000D01*
X24974740Y-20205000D01*
X24908557Y-20198481D01*
X24842373Y-20191963D01*
X24672534Y-20140443D01*
X24516009Y-20056778D01*
X24480271Y-20027448D01*
X24378814Y-19944186D01*
X24273427Y-19815770D01*
X24266222Y-19806991D01*
X24182557Y-19650466D01*
X24131037Y-19480627D01*
X24113641Y-19304000D01*
X24131037Y-19127373D01*
X24182557Y-18957534D01*
X24266222Y-18801009D01*
X24318739Y-18737017D01*
X24378814Y-18663814D01*
X24494347Y-18569000D01*
X24516009Y-18551222D01*
X24672534Y-18467557D01*
X24842373Y-18416037D01*
X24908557Y-18409519D01*
X24974740Y-18403000D01*
X25063260Y-18403000D01*
X25129443Y-18409519D01*
X25129443Y-18409519D01*
G37*
G36*
X22589443Y-18409519D02*
G01*
X22655627Y-18416037D01*
X22825466Y-18467557D01*
X22981991Y-18551222D01*
X23003653Y-18569000D01*
X23119186Y-18663814D01*
X23179261Y-18737017D01*
X23231778Y-18801009D01*
X23315443Y-18957534D01*
X23366963Y-19127373D01*
X23384359Y-19304000D01*
X23366963Y-19480627D01*
X23315443Y-19650466D01*
X23231778Y-19806991D01*
X23224573Y-19815770D01*
X23119186Y-19944186D01*
X23017729Y-20027448D01*
X22981991Y-20056778D01*
X22825466Y-20140443D01*
X22655627Y-20191963D01*
X22589443Y-20198481D01*
X22523260Y-20205000D01*
X22434740Y-20205000D01*
X22368557Y-20198481D01*
X22302373Y-20191963D01*
X22132534Y-20140443D01*
X21976009Y-20056778D01*
X21940271Y-20027448D01*
X21838814Y-19944186D01*
X21733427Y-19815770D01*
X21726222Y-19806991D01*
X21642557Y-19650466D01*
X21591037Y-19480627D01*
X21573641Y-19304000D01*
X21591037Y-19127373D01*
X21642557Y-18957534D01*
X21726222Y-18801009D01*
X21778739Y-18737017D01*
X21838814Y-18663814D01*
X21954347Y-18569000D01*
X21976009Y-18551222D01*
X22132534Y-18467557D01*
X22302373Y-18416037D01*
X22368557Y-18409519D01*
X22434740Y-18403000D01*
X22523260Y-18403000D01*
X22589443Y-18409519D01*
X22589443Y-18409519D01*
G37*
G36*
X27669443Y-18409519D02*
G01*
X27735627Y-18416037D01*
X27905466Y-18467557D01*
X28061991Y-18551222D01*
X28083653Y-18569000D01*
X28199186Y-18663814D01*
X28259261Y-18737017D01*
X28311778Y-18801009D01*
X28395443Y-18957534D01*
X28446963Y-19127373D01*
X28464359Y-19304000D01*
X28446963Y-19480627D01*
X28395443Y-19650466D01*
X28311778Y-19806991D01*
X28304573Y-19815770D01*
X28199186Y-19944186D01*
X28097729Y-20027448D01*
X28061991Y-20056778D01*
X27905466Y-20140443D01*
X27735627Y-20191963D01*
X27669443Y-20198481D01*
X27603260Y-20205000D01*
X27514740Y-20205000D01*
X27448557Y-20198481D01*
X27382373Y-20191963D01*
X27212534Y-20140443D01*
X27056009Y-20056778D01*
X27020271Y-20027448D01*
X26918814Y-19944186D01*
X26813427Y-19815770D01*
X26806222Y-19806991D01*
X26722557Y-19650466D01*
X26671037Y-19480627D01*
X26653641Y-19304000D01*
X26671037Y-19127373D01*
X26722557Y-18957534D01*
X26806222Y-18801009D01*
X26858739Y-18737017D01*
X26918814Y-18663814D01*
X27034347Y-18569000D01*
X27056009Y-18551222D01*
X27212534Y-18467557D01*
X27382373Y-18416037D01*
X27448557Y-18409519D01*
X27514740Y-18403000D01*
X27603260Y-18403000D01*
X27669443Y-18409519D01*
X27669443Y-18409519D01*
G37*
G36*
X31195674Y-18573465D02*
G01*
X31233367Y-18584899D01*
X31268103Y-18603466D01*
X31298548Y-18628452D01*
X31323534Y-18658897D01*
X31342101Y-18693633D01*
X31353535Y-18731326D01*
X31358000Y-18776661D01*
X31358000Y-19613339D01*
X31353535Y-19658674D01*
X31342101Y-19696367D01*
X31323534Y-19731103D01*
X31298548Y-19761548D01*
X31268103Y-19786534D01*
X31233367Y-19805101D01*
X31195674Y-19816535D01*
X31150339Y-19821000D01*
X30063661Y-19821000D01*
X30018326Y-19816535D01*
X29980633Y-19805101D01*
X29945897Y-19786534D01*
X29915452Y-19761548D01*
X29890466Y-19731103D01*
X29871899Y-19696367D01*
X29860465Y-19658674D01*
X29856000Y-19613339D01*
X29856000Y-18776661D01*
X29860465Y-18731326D01*
X29871899Y-18693633D01*
X29890466Y-18658897D01*
X29915452Y-18628452D01*
X29945897Y-18603466D01*
X29980633Y-18584899D01*
X30018326Y-18573465D01*
X30063661Y-18569000D01*
X31150339Y-18569000D01*
X31195674Y-18573465D01*
X31195674Y-18573465D01*
G37*
G36*
X31195674Y-16523465D02*
G01*
X31233367Y-16534899D01*
X31268103Y-16553466D01*
X31298548Y-16578452D01*
X31323534Y-16608897D01*
X31342101Y-16643633D01*
X31353535Y-16681326D01*
X31358000Y-16726661D01*
X31358000Y-17563339D01*
X31353535Y-17608674D01*
X31342101Y-17646367D01*
X31323534Y-17681103D01*
X31298548Y-17711548D01*
X31268103Y-17736534D01*
X31233367Y-17755101D01*
X31195674Y-17766535D01*
X31150339Y-17771000D01*
X30063661Y-17771000D01*
X30018326Y-17766535D01*
X29980633Y-17755101D01*
X29945897Y-17736534D01*
X29915452Y-17711548D01*
X29890466Y-17681103D01*
X29871899Y-17646367D01*
X29860465Y-17608674D01*
X29856000Y-17563339D01*
X29856000Y-16726661D01*
X29860465Y-16681326D01*
X29871899Y-16643633D01*
X29890466Y-16608897D01*
X29915452Y-16578452D01*
X29945897Y-16553466D01*
X29980633Y-16534899D01*
X30018326Y-16523465D01*
X30063661Y-16519000D01*
X31150339Y-16519000D01*
X31195674Y-16523465D01*
X31195674Y-16523465D01*
G37*
G36*
X22589443Y-15869519D02*
G01*
X22655627Y-15876037D01*
X22825466Y-15927557D01*
X22981991Y-16011222D01*
X23017729Y-16040552D01*
X23119186Y-16123814D01*
X23202448Y-16225271D01*
X23231778Y-16261009D01*
X23315443Y-16417534D01*
X23366963Y-16587373D01*
X23384359Y-16764000D01*
X23366963Y-16940627D01*
X23315443Y-17110466D01*
X23231778Y-17266991D01*
X23202448Y-17302729D01*
X23119186Y-17404186D01*
X23017729Y-17487448D01*
X22981991Y-17516778D01*
X22825466Y-17600443D01*
X22655627Y-17651963D01*
X22589442Y-17658482D01*
X22523260Y-17665000D01*
X22434740Y-17665000D01*
X22368558Y-17658482D01*
X22302373Y-17651963D01*
X22132534Y-17600443D01*
X21976009Y-17516778D01*
X21940271Y-17487448D01*
X21838814Y-17404186D01*
X21755552Y-17302729D01*
X21726222Y-17266991D01*
X21642557Y-17110466D01*
X21591037Y-16940627D01*
X21573641Y-16764000D01*
X21591037Y-16587373D01*
X21642557Y-16417534D01*
X21726222Y-16261009D01*
X21755552Y-16225271D01*
X21838814Y-16123814D01*
X21940271Y-16040552D01*
X21976009Y-16011222D01*
X22132534Y-15927557D01*
X22302373Y-15876037D01*
X22368557Y-15869519D01*
X22434740Y-15863000D01*
X22523260Y-15863000D01*
X22589443Y-15869519D01*
X22589443Y-15869519D01*
G37*
G36*
X25129443Y-15869519D02*
G01*
X25195627Y-15876037D01*
X25365466Y-15927557D01*
X25521991Y-16011222D01*
X25557729Y-16040552D01*
X25659186Y-16123814D01*
X25742448Y-16225271D01*
X25771778Y-16261009D01*
X25855443Y-16417534D01*
X25906963Y-16587373D01*
X25924359Y-16764000D01*
X25906963Y-16940627D01*
X25855443Y-17110466D01*
X25771778Y-17266991D01*
X25742448Y-17302729D01*
X25659186Y-17404186D01*
X25557729Y-17487448D01*
X25521991Y-17516778D01*
X25365466Y-17600443D01*
X25195627Y-17651963D01*
X25129442Y-17658482D01*
X25063260Y-17665000D01*
X24974740Y-17665000D01*
X24908558Y-17658482D01*
X24842373Y-17651963D01*
X24672534Y-17600443D01*
X24516009Y-17516778D01*
X24480271Y-17487448D01*
X24378814Y-17404186D01*
X24295552Y-17302729D01*
X24266222Y-17266991D01*
X24182557Y-17110466D01*
X24131037Y-16940627D01*
X24113641Y-16764000D01*
X24131037Y-16587373D01*
X24182557Y-16417534D01*
X24266222Y-16261009D01*
X24295552Y-16225271D01*
X24378814Y-16123814D01*
X24480271Y-16040552D01*
X24516009Y-16011222D01*
X24672534Y-15927557D01*
X24842373Y-15876037D01*
X24908557Y-15869519D01*
X24974740Y-15863000D01*
X25063260Y-15863000D01*
X25129443Y-15869519D01*
X25129443Y-15869519D01*
G37*
G36*
X28460000Y-17665000D02*
G01*
X26658000Y-17665000D01*
X26658000Y-15863000D01*
X28460000Y-15863000D01*
X28460000Y-17665000D01*
X28460000Y-17665000D01*
G37*
M02*
